G04 #@! TF.FileFunction,Legend,Top*
%FSLAX46Y46*%
G04 Gerber Fmt 4.6, Leading zero omitted, Abs format (unit mm)*
G04 Created by KiCad (PCBNEW 0.201512021501+6340~38~ubuntu15.10.1-stable) date Sun 06 Dec 2015 12:21:56 AM EST*
%MOMM*%
G01*
G04 APERTURE LIST*
%ADD10C,0.100000*%
%ADD11C,0.150000*%
G04 APERTURE END LIST*
D10*
D11*
X145374000Y-107547000D02*
X146674000Y-107547000D01*
X149174000Y-110747000D02*
X145974000Y-110747000D01*
X149174000Y-107947000D02*
X149174000Y-110747000D01*
X145974000Y-107947000D02*
X149174000Y-107947000D01*
X145974000Y-110747000D02*
X145974000Y-107947000D01*
X159978000Y-102320000D02*
X159453000Y-102320000D01*
X154728000Y-97070000D02*
X155253000Y-97070000D01*
X154728000Y-102320000D02*
X155253000Y-102320000D01*
X159978000Y-97070000D02*
X159978000Y-97595000D01*
X154728000Y-97070000D02*
X154728000Y-97595000D01*
X154728000Y-102320000D02*
X154728000Y-101795000D01*
X159978000Y-102320000D02*
X159978000Y-101795000D01*
X157640000Y-104779000D02*
X157640000Y-105279000D01*
X158590000Y-105279000D02*
X158590000Y-104779000D01*
X160241000Y-105279000D02*
X160241000Y-104779000D01*
X159291000Y-104779000D02*
X159291000Y-105279000D01*
X166882000Y-94251000D02*
X167382000Y-94251000D01*
X167382000Y-93201000D02*
X166882000Y-93201000D01*
X132330000Y-93582000D02*
X131830000Y-93582000D01*
X131830000Y-94632000D02*
X132330000Y-94632000D01*
X138608000Y-99249000D02*
X138608000Y-99349000D01*
X138608000Y-99249000D02*
X138608000Y-98949000D01*
X139158000Y-100999000D02*
X141258000Y-100999000D01*
X141258000Y-98899000D02*
X139158000Y-98899000D01*
X137156000Y-97188000D02*
X136656000Y-97188000D01*
X136656000Y-98138000D02*
X137156000Y-98138000D01*
X144686000Y-96270000D02*
X144686000Y-96770000D01*
X145636000Y-96770000D02*
X145636000Y-96270000D01*
X148877000Y-95889000D02*
X148877000Y-96389000D01*
X149827000Y-96389000D02*
X149827000Y-95889000D01*
X140175000Y-110359000D02*
X140175000Y-109859000D01*
X139225000Y-109859000D02*
X139225000Y-110359000D01*
X137381000Y-107819000D02*
X137381000Y-107319000D01*
X136431000Y-107319000D02*
X136431000Y-107819000D01*
X137664000Y-109126000D02*
X137164000Y-109126000D01*
X137164000Y-110076000D02*
X137664000Y-110076000D01*
X159225000Y-89912000D02*
X159225000Y-89412000D01*
X158275000Y-89412000D02*
X158275000Y-89912000D01*
X165194000Y-90801000D02*
X165194000Y-90301000D01*
X164244000Y-90301000D02*
X164244000Y-90801000D01*
X161892000Y-105279000D02*
X161892000Y-104779000D01*
X160942000Y-104779000D02*
X160942000Y-105279000D01*
X152142000Y-103792000D02*
X151642000Y-103792000D01*
X151642000Y-104742000D02*
X152142000Y-104742000D01*
X149893000Y-90301000D02*
X149893000Y-90801000D01*
X150843000Y-90801000D02*
X150843000Y-90301000D01*
X133096000Y-97159000D02*
X133096000Y-96909000D01*
X133096000Y-97659000D02*
X133096000Y-97909000D01*
X133096000Y-97659000D02*
X132746000Y-97159000D01*
X132746000Y-97159000D02*
X133446000Y-97159000D01*
X133446000Y-97159000D02*
X133096000Y-97659000D01*
X132746000Y-97659000D02*
X133446000Y-97659000D01*
X133896000Y-98709000D02*
X133896000Y-96309000D01*
X132296000Y-98709000D02*
X132296000Y-96309000D01*
X130090000Y-91892300D02*
X130090000Y-89992300D01*
X128990000Y-91892300D02*
X128990000Y-89992300D01*
X129540000Y-90992300D02*
X129540000Y-90542300D01*
X129290000Y-91042300D02*
X129790000Y-91042300D01*
X129540000Y-91042300D02*
X129290000Y-90792300D01*
X129290000Y-90792300D02*
X129790000Y-90792300D01*
X129790000Y-90792300D02*
X129540000Y-91042300D01*
X134154000Y-91892300D02*
X134154000Y-89992300D01*
X133054000Y-91892300D02*
X133054000Y-89992300D01*
X133604000Y-90992300D02*
X133604000Y-90542300D01*
X133354000Y-91042300D02*
X133854000Y-91042300D01*
X133604000Y-91042300D02*
X133354000Y-90792300D01*
X133354000Y-90792300D02*
X133854000Y-90792300D01*
X133854000Y-90792300D02*
X133604000Y-91042300D01*
X146774000Y-97356000D02*
X148374000Y-97356000D01*
X146774000Y-100256000D02*
X146774000Y-97356000D01*
X148374000Y-100256000D02*
X146774000Y-100256000D01*
X148374000Y-97356000D02*
X148374000Y-100256000D01*
X135520000Y-109677000D02*
X135920000Y-109677000D01*
X135320000Y-109577000D02*
X133920000Y-109577000D01*
X135320000Y-106577000D02*
X135320000Y-109577000D01*
X133920000Y-106577000D02*
X135320000Y-106577000D01*
X133920000Y-109577000D02*
X133920000Y-106577000D01*
X142612000Y-103641000D02*
X142612000Y-104166000D01*
X138312000Y-107941000D02*
X138312000Y-107416000D01*
X142612000Y-107941000D02*
X142612000Y-107416000D01*
X138312000Y-103641000D02*
X138837000Y-103641000D01*
X138312000Y-107941000D02*
X138837000Y-107941000D01*
X142612000Y-107941000D02*
X142087000Y-107941000D01*
X142612000Y-103641000D02*
X142087000Y-103641000D01*
D10*
X166097000Y-89347000D02*
X165697000Y-89347000D01*
X167307000Y-89512001D02*
X165687000Y-89512001D01*
X167307000Y-91581999D02*
X167307000Y-89512001D01*
X165687000Y-91581999D02*
X167307000Y-91581999D01*
X165687000Y-89512001D02*
X165687000Y-91581999D01*
D11*
X156045000Y-107501000D02*
X156045000Y-108301000D01*
X162695000Y-107501000D02*
X156045000Y-107501000D01*
X162695000Y-107501000D02*
X162695000Y-110451000D01*
X162695000Y-110451000D02*
X158145000Y-110451000D01*
X156045000Y-109101000D02*
X156045000Y-110451000D01*
X156045000Y-110451000D02*
X157345000Y-110451000D01*
X137164000Y-100728000D02*
X137664000Y-100728000D01*
X137664000Y-99678000D02*
X137164000Y-99678000D01*
X137164000Y-102252000D02*
X137664000Y-102252000D01*
X137664000Y-101202000D02*
X137164000Y-101202000D01*
X143506000Y-99932000D02*
X143006000Y-99932000D01*
X143006000Y-100982000D02*
X143506000Y-100982000D01*
X143006000Y-99458000D02*
X143506000Y-99458000D01*
X143506000Y-98408000D02*
X143006000Y-98408000D01*
X143006000Y-102506000D02*
X143506000Y-102506000D01*
X143506000Y-101456000D02*
X143006000Y-101456000D01*
X134637000Y-94103000D02*
X134637000Y-93603000D01*
X133587000Y-93603000D02*
X133587000Y-94103000D01*
X147697000Y-101202000D02*
X147197000Y-101202000D01*
X147197000Y-102252000D02*
X147697000Y-102252000D01*
X141715000Y-109801000D02*
X141715000Y-110301000D01*
X142765000Y-110301000D02*
X142765000Y-109801000D01*
X146575000Y-106549000D02*
X146575000Y-106049000D01*
X145525000Y-106049000D02*
X145525000Y-106549000D01*
X149623000Y-106549000D02*
X149623000Y-106049000D01*
X148573000Y-106049000D02*
X148573000Y-106549000D01*
X148099000Y-106549000D02*
X148099000Y-106049000D01*
X147049000Y-106049000D02*
X147049000Y-106549000D01*
X149589000Y-101350000D02*
X149589000Y-101850000D01*
X150639000Y-101850000D02*
X150639000Y-101350000D01*
X152163000Y-101850000D02*
X152163000Y-101350000D01*
X151113000Y-101350000D02*
X151113000Y-101850000D01*
X154415000Y-109478000D02*
X154415000Y-109978000D01*
X155465000Y-109978000D02*
X155465000Y-109478000D01*
X152891000Y-109478000D02*
X152891000Y-109978000D01*
X153941000Y-109978000D02*
X153941000Y-109478000D01*
X159783000Y-93849000D02*
X159783000Y-93349000D01*
X158733000Y-93349000D02*
X158733000Y-93849000D01*
X162416000Y-94365000D02*
X162416000Y-94865000D01*
X163466000Y-94865000D02*
X163466000Y-94365000D01*
X160892000Y-94365000D02*
X160892000Y-94865000D01*
X161942000Y-94865000D02*
X161942000Y-94365000D01*
X149843000Y-93349000D02*
X149843000Y-93849000D01*
X150893000Y-93849000D02*
X150893000Y-93349000D01*
X160009000Y-88489000D02*
X160509000Y-88489000D01*
X159909000Y-90789000D02*
X159909000Y-88789000D01*
X161909000Y-90789000D02*
X159909000Y-90789000D01*
X161909000Y-88789000D02*
X161909000Y-90789000D01*
X159909000Y-88789000D02*
X161909000Y-88789000D01*
X134187000Y-103813000D02*
X134187000Y-103313000D01*
X133137000Y-103313000D02*
X133137000Y-103813000D01*
X127228000Y-93065000D02*
X127228000Y-94615000D01*
X127508000Y-98425000D02*
X127508000Y-95885000D01*
X127508000Y-95885000D02*
X130048000Y-95885000D01*
X130328000Y-94615000D02*
X130328000Y-93065000D01*
X130328000Y-93065000D02*
X127228000Y-93065000D01*
X130048000Y-95885000D02*
X130048000Y-98425000D01*
X130048000Y-98425000D02*
X127508000Y-98425000D01*
X137042000Y-96611000D02*
X136242000Y-96611000D01*
X137042000Y-94011000D02*
X137042000Y-96611000D01*
X143342000Y-94011000D02*
X137042000Y-94011000D01*
X143342000Y-96611000D02*
X143342000Y-94011000D01*
X144142000Y-96611000D02*
X143342000Y-96611000D01*
X136242000Y-88011000D02*
X136242000Y-96611000D01*
X144142000Y-88011000D02*
X144142000Y-96611000D01*
X136242000Y-88011000D02*
X144142000Y-88011000D01*
X125722540Y-101186100D02*
X125722540Y-109886100D01*
X132127540Y-101186100D02*
X132127540Y-109886100D01*
X132127540Y-109886100D02*
X125722540Y-109886100D01*
X126952540Y-109886100D02*
X126952540Y-101186100D01*
X125722540Y-101186100D02*
X132127540Y-101186100D01*
X143543000Y-104017000D02*
X143543000Y-104517000D01*
X144493000Y-104517000D02*
X144493000Y-104017000D01*
X148547000Y-91167000D02*
G75*
G03X146347000Y-91167000I-1100000J0D01*
G01*
X146347000Y-91967000D02*
G75*
G03X148547000Y-91967000I1100000J0D01*
G01*
X146347000Y-91967000D02*
X146347000Y-91167000D01*
X148547000Y-91167000D02*
X148547000Y-91967000D01*
X145847000Y-89267000D02*
X149047000Y-89267000D01*
X145847000Y-93867000D02*
X145847000Y-89267000D01*
X149047000Y-93867000D02*
X145847000Y-93867000D01*
X149047000Y-89267000D02*
X149047000Y-93867000D01*
X156040000Y-91040000D02*
G75*
G03X153840000Y-91040000I-1100000J0D01*
G01*
X153840000Y-91840000D02*
G75*
G03X156040000Y-91840000I1100000J0D01*
G01*
X153840000Y-91840000D02*
X153840000Y-91040000D01*
X156040000Y-91040000D02*
X156040000Y-91840000D01*
X153340000Y-89140000D02*
X156540000Y-89140000D01*
X153340000Y-93740000D02*
X153340000Y-89140000D01*
X156540000Y-93740000D02*
X153340000Y-93740000D01*
X156540000Y-89140000D02*
X156540000Y-93740000D01*
X153594000Y-103729000D02*
X156794000Y-103729000D01*
X156794000Y-103729000D02*
X156794000Y-106329000D01*
X156794000Y-106329000D02*
X153594000Y-106329000D01*
X153594000Y-106329000D02*
X153594000Y-103729000D01*
X157259000Y-93222000D02*
X157259000Y-93722000D01*
X158209000Y-93722000D02*
X158209000Y-93222000D01*
D10*
X150142238Y-110911048D02*
X150142238Y-110261048D01*
X150297000Y-110261048D01*
X150389857Y-110292000D01*
X150451762Y-110353905D01*
X150482714Y-110415810D01*
X150513666Y-110539619D01*
X150513666Y-110632476D01*
X150482714Y-110756286D01*
X150451762Y-110818190D01*
X150389857Y-110880095D01*
X150297000Y-110911048D01*
X150142238Y-110911048D01*
X151070809Y-110477714D02*
X151070809Y-110911048D01*
X150916047Y-110230095D02*
X150761286Y-110694381D01*
X151163666Y-110694381D01*
X161089048Y-102079524D02*
X160439048Y-102079524D01*
X161027143Y-101398572D02*
X161058095Y-101429524D01*
X161089048Y-101522381D01*
X161089048Y-101584286D01*
X161058095Y-101677143D01*
X160996190Y-101739048D01*
X160934286Y-101770000D01*
X160810476Y-101800952D01*
X160717619Y-101800952D01*
X160593810Y-101770000D01*
X160531905Y-101739048D01*
X160470000Y-101677143D01*
X160439048Y-101584286D01*
X160439048Y-101522381D01*
X160470000Y-101429524D01*
X160500952Y-101398572D01*
X160439048Y-101181905D02*
X160439048Y-100748572D01*
X161089048Y-101027143D01*
X157570142Y-106912143D02*
X157539190Y-106943095D01*
X157446333Y-106974048D01*
X157384428Y-106974048D01*
X157291571Y-106943095D01*
X157229666Y-106881190D01*
X157198714Y-106819286D01*
X157167762Y-106695476D01*
X157167762Y-106602619D01*
X157198714Y-106478810D01*
X157229666Y-106416905D01*
X157291571Y-106355000D01*
X157384428Y-106324048D01*
X157446333Y-106324048D01*
X157539190Y-106355000D01*
X157570142Y-106385952D01*
X158189190Y-106974048D02*
X157817762Y-106974048D01*
X158003476Y-106974048D02*
X158003476Y-106324048D01*
X157941571Y-106416905D01*
X157879666Y-106478810D01*
X157817762Y-106509762D01*
X158405857Y-106324048D02*
X158808238Y-106324048D01*
X158591571Y-106571667D01*
X158684429Y-106571667D01*
X158746333Y-106602619D01*
X158777286Y-106633571D01*
X158808238Y-106695476D01*
X158808238Y-106850238D01*
X158777286Y-106912143D01*
X158746333Y-106943095D01*
X158684429Y-106974048D01*
X158498714Y-106974048D01*
X158436810Y-106943095D01*
X158405857Y-106912143D01*
X164251048Y-101444762D02*
X163601048Y-101444762D01*
X163601048Y-101197143D01*
X163632000Y-101135238D01*
X163662952Y-101104286D01*
X163724857Y-101073334D01*
X163817714Y-101073334D01*
X163879619Y-101104286D01*
X163910571Y-101135238D01*
X163941524Y-101197143D01*
X163941524Y-101444762D01*
X163817714Y-100516191D02*
X164251048Y-100516191D01*
X163570095Y-100670953D02*
X164034381Y-100825714D01*
X164034381Y-100423334D01*
X159729142Y-106912143D02*
X159698190Y-106943095D01*
X159605333Y-106974048D01*
X159543428Y-106974048D01*
X159450571Y-106943095D01*
X159388666Y-106881190D01*
X159357714Y-106819286D01*
X159326762Y-106695476D01*
X159326762Y-106602619D01*
X159357714Y-106478810D01*
X159388666Y-106416905D01*
X159450571Y-106355000D01*
X159543428Y-106324048D01*
X159605333Y-106324048D01*
X159698190Y-106355000D01*
X159729142Y-106385952D01*
X160348190Y-106974048D02*
X159976762Y-106974048D01*
X160162476Y-106974048D02*
X160162476Y-106324048D01*
X160100571Y-106416905D01*
X160038666Y-106478810D01*
X159976762Y-106509762D01*
X160905333Y-106540714D02*
X160905333Y-106974048D01*
X160750571Y-106293095D02*
X160595810Y-106757381D01*
X160998190Y-106757381D01*
X164555142Y-94020048D02*
X164338476Y-93710524D01*
X164183714Y-94020048D02*
X164183714Y-93370048D01*
X164431333Y-93370048D01*
X164493238Y-93401000D01*
X164524190Y-93431952D01*
X164555142Y-93493857D01*
X164555142Y-93586714D01*
X164524190Y-93648619D01*
X164493238Y-93679571D01*
X164431333Y-93710524D01*
X164183714Y-93710524D01*
X165174190Y-94020048D02*
X164802762Y-94020048D01*
X164988476Y-94020048D02*
X164988476Y-93370048D01*
X164926571Y-93462905D01*
X164864666Y-93524810D01*
X164802762Y-93555762D01*
X165576571Y-93370048D02*
X165638476Y-93370048D01*
X165700381Y-93401000D01*
X165731333Y-93431952D01*
X165762286Y-93493857D01*
X165793238Y-93617667D01*
X165793238Y-93772429D01*
X165762286Y-93896238D01*
X165731333Y-93958143D01*
X165700381Y-93989095D01*
X165638476Y-94020048D01*
X165576571Y-94020048D01*
X165514667Y-93989095D01*
X165483714Y-93958143D01*
X165452762Y-93896238D01*
X165421810Y-93772429D01*
X165421810Y-93617667D01*
X165452762Y-93493857D01*
X165483714Y-93431952D01*
X165514667Y-93401000D01*
X165576571Y-93370048D01*
X131971666Y-93258048D02*
X131755000Y-92948524D01*
X131600238Y-93258048D02*
X131600238Y-92608048D01*
X131847857Y-92608048D01*
X131909762Y-92639000D01*
X131940714Y-92669952D01*
X131971666Y-92731857D01*
X131971666Y-92824714D01*
X131940714Y-92886619D01*
X131909762Y-92917571D01*
X131847857Y-92948524D01*
X131600238Y-92948524D01*
X132559762Y-92608048D02*
X132250238Y-92608048D01*
X132219286Y-92917571D01*
X132250238Y-92886619D01*
X132312143Y-92855667D01*
X132466905Y-92855667D01*
X132528809Y-92886619D01*
X132559762Y-92917571D01*
X132590714Y-92979476D01*
X132590714Y-93134238D01*
X132559762Y-93196143D01*
X132528809Y-93227095D01*
X132466905Y-93258048D01*
X132312143Y-93258048D01*
X132250238Y-93227095D01*
X132219286Y-93196143D01*
X139573476Y-98719048D02*
X139573476Y-98069048D01*
X140254428Y-98657143D02*
X140223476Y-98688095D01*
X140130619Y-98719048D01*
X140068714Y-98719048D01*
X139975857Y-98688095D01*
X139913952Y-98626190D01*
X139883000Y-98564286D01*
X139852048Y-98440476D01*
X139852048Y-98347619D01*
X139883000Y-98223810D01*
X139913952Y-98161905D01*
X139975857Y-98100000D01*
X140068714Y-98069048D01*
X140130619Y-98069048D01*
X140223476Y-98100000D01*
X140254428Y-98130952D01*
X140873476Y-98719048D02*
X140502048Y-98719048D01*
X140687762Y-98719048D02*
X140687762Y-98069048D01*
X140625857Y-98161905D01*
X140563952Y-98223810D01*
X140502048Y-98254762D01*
X136289666Y-99165143D02*
X136258714Y-99196095D01*
X136165857Y-99227048D01*
X136103952Y-99227048D01*
X136011095Y-99196095D01*
X135949190Y-99134190D01*
X135918238Y-99072286D01*
X135887286Y-98948476D01*
X135887286Y-98855619D01*
X135918238Y-98731810D01*
X135949190Y-98669905D01*
X136011095Y-98608000D01*
X136103952Y-98577048D01*
X136165857Y-98577048D01*
X136258714Y-98608000D01*
X136289666Y-98638952D01*
X136908714Y-99227048D02*
X136537286Y-99227048D01*
X136723000Y-99227048D02*
X136723000Y-98577048D01*
X136661095Y-98669905D01*
X136599190Y-98731810D01*
X136537286Y-98762762D01*
X146536143Y-96374334D02*
X146567095Y-96405286D01*
X146598048Y-96498143D01*
X146598048Y-96560048D01*
X146567095Y-96652905D01*
X146505190Y-96714810D01*
X146443286Y-96745762D01*
X146319476Y-96776714D01*
X146226619Y-96776714D01*
X146102810Y-96745762D01*
X146040905Y-96714810D01*
X145979000Y-96652905D01*
X145948048Y-96560048D01*
X145948048Y-96498143D01*
X145979000Y-96405286D01*
X146009952Y-96374334D01*
X146009952Y-96126714D02*
X145979000Y-96095762D01*
X145948048Y-96033857D01*
X145948048Y-95879095D01*
X145979000Y-95817191D01*
X146009952Y-95786238D01*
X146071857Y-95755286D01*
X146133762Y-95755286D01*
X146226619Y-95786238D01*
X146598048Y-96157667D01*
X146598048Y-95755286D01*
X150727143Y-96247334D02*
X150758095Y-96278286D01*
X150789048Y-96371143D01*
X150789048Y-96433048D01*
X150758095Y-96525905D01*
X150696190Y-96587810D01*
X150634286Y-96618762D01*
X150510476Y-96649714D01*
X150417619Y-96649714D01*
X150293810Y-96618762D01*
X150231905Y-96587810D01*
X150170000Y-96525905D01*
X150139048Y-96433048D01*
X150139048Y-96371143D01*
X150170000Y-96278286D01*
X150200952Y-96247334D01*
X150139048Y-96030667D02*
X150139048Y-95628286D01*
X150386667Y-95844953D01*
X150386667Y-95752095D01*
X150417619Y-95690191D01*
X150448571Y-95659238D01*
X150510476Y-95628286D01*
X150665238Y-95628286D01*
X150727143Y-95659238D01*
X150758095Y-95690191D01*
X150789048Y-95752095D01*
X150789048Y-95937810D01*
X150758095Y-95999714D01*
X150727143Y-96030667D01*
X141075143Y-110217334D02*
X141106095Y-110248286D01*
X141137048Y-110341143D01*
X141137048Y-110403048D01*
X141106095Y-110495905D01*
X141044190Y-110557810D01*
X140982286Y-110588762D01*
X140858476Y-110619714D01*
X140765619Y-110619714D01*
X140641810Y-110588762D01*
X140579905Y-110557810D01*
X140518000Y-110495905D01*
X140487048Y-110403048D01*
X140487048Y-110341143D01*
X140518000Y-110248286D01*
X140548952Y-110217334D01*
X140703714Y-109660191D02*
X141137048Y-109660191D01*
X140456095Y-109814953D02*
X140920381Y-109969714D01*
X140920381Y-109567334D01*
X137138143Y-105899334D02*
X137169095Y-105930286D01*
X137200048Y-106023143D01*
X137200048Y-106085048D01*
X137169095Y-106177905D01*
X137107190Y-106239810D01*
X137045286Y-106270762D01*
X136921476Y-106301714D01*
X136828619Y-106301714D01*
X136704810Y-106270762D01*
X136642905Y-106239810D01*
X136581000Y-106177905D01*
X136550048Y-106085048D01*
X136550048Y-106023143D01*
X136581000Y-105930286D01*
X136611952Y-105899334D01*
X136550048Y-105311238D02*
X136550048Y-105620762D01*
X136859571Y-105651714D01*
X136828619Y-105620762D01*
X136797667Y-105558857D01*
X136797667Y-105404095D01*
X136828619Y-105342191D01*
X136859571Y-105311238D01*
X136921476Y-105280286D01*
X137076238Y-105280286D01*
X137138143Y-105311238D01*
X137169095Y-105342191D01*
X137200048Y-105404095D01*
X137200048Y-105558857D01*
X137169095Y-105620762D01*
X137138143Y-105651714D01*
X137305666Y-110976143D02*
X137274714Y-111007095D01*
X137181857Y-111038048D01*
X137119952Y-111038048D01*
X137027095Y-111007095D01*
X136965190Y-110945190D01*
X136934238Y-110883286D01*
X136903286Y-110759476D01*
X136903286Y-110666619D01*
X136934238Y-110542810D01*
X136965190Y-110480905D01*
X137027095Y-110419000D01*
X137119952Y-110388048D01*
X137181857Y-110388048D01*
X137274714Y-110419000D01*
X137305666Y-110449952D01*
X137522333Y-110388048D02*
X137955666Y-110388048D01*
X137677095Y-111038048D01*
X157966143Y-89770334D02*
X157997095Y-89801286D01*
X158028048Y-89894143D01*
X158028048Y-89956048D01*
X157997095Y-90048905D01*
X157935190Y-90110810D01*
X157873286Y-90141762D01*
X157749476Y-90172714D01*
X157656619Y-90172714D01*
X157532810Y-90141762D01*
X157470905Y-90110810D01*
X157409000Y-90048905D01*
X157378048Y-89956048D01*
X157378048Y-89894143D01*
X157409000Y-89801286D01*
X157439952Y-89770334D01*
X157656619Y-89398905D02*
X157625667Y-89460810D01*
X157594714Y-89491762D01*
X157532810Y-89522714D01*
X157501857Y-89522714D01*
X157439952Y-89491762D01*
X157409000Y-89460810D01*
X157378048Y-89398905D01*
X157378048Y-89275095D01*
X157409000Y-89213191D01*
X157439952Y-89182238D01*
X157501857Y-89151286D01*
X157532810Y-89151286D01*
X157594714Y-89182238D01*
X157625667Y-89213191D01*
X157656619Y-89275095D01*
X157656619Y-89398905D01*
X157687571Y-89460810D01*
X157718524Y-89491762D01*
X157780429Y-89522714D01*
X157904238Y-89522714D01*
X157966143Y-89491762D01*
X157997095Y-89460810D01*
X158028048Y-89398905D01*
X158028048Y-89275095D01*
X157997095Y-89213191D01*
X157966143Y-89182238D01*
X157904238Y-89151286D01*
X157780429Y-89151286D01*
X157718524Y-89182238D01*
X157687571Y-89213191D01*
X157656619Y-89275095D01*
X163935143Y-90659334D02*
X163966095Y-90690286D01*
X163997048Y-90783143D01*
X163997048Y-90845048D01*
X163966095Y-90937905D01*
X163904190Y-90999810D01*
X163842286Y-91030762D01*
X163718476Y-91061714D01*
X163625619Y-91061714D01*
X163501810Y-91030762D01*
X163439905Y-90999810D01*
X163378000Y-90937905D01*
X163347048Y-90845048D01*
X163347048Y-90783143D01*
X163378000Y-90690286D01*
X163408952Y-90659334D01*
X163997048Y-90349810D02*
X163997048Y-90226000D01*
X163966095Y-90164095D01*
X163935143Y-90133143D01*
X163842286Y-90071238D01*
X163718476Y-90040286D01*
X163470857Y-90040286D01*
X163408952Y-90071238D01*
X163378000Y-90102191D01*
X163347048Y-90164095D01*
X163347048Y-90287905D01*
X163378000Y-90349810D01*
X163408952Y-90380762D01*
X163470857Y-90411714D01*
X163625619Y-90411714D01*
X163687524Y-90380762D01*
X163718476Y-90349810D01*
X163749429Y-90287905D01*
X163749429Y-90164095D01*
X163718476Y-90102191D01*
X163687524Y-90071238D01*
X163625619Y-90040286D01*
X162665143Y-105446858D02*
X162696095Y-105477810D01*
X162727048Y-105570667D01*
X162727048Y-105632572D01*
X162696095Y-105725429D01*
X162634190Y-105787334D01*
X162572286Y-105818286D01*
X162448476Y-105849238D01*
X162355619Y-105849238D01*
X162231810Y-105818286D01*
X162169905Y-105787334D01*
X162108000Y-105725429D01*
X162077048Y-105632572D01*
X162077048Y-105570667D01*
X162108000Y-105477810D01*
X162138952Y-105446858D01*
X162727048Y-104827810D02*
X162727048Y-105199238D01*
X162727048Y-105013524D02*
X162077048Y-105013524D01*
X162169905Y-105075429D01*
X162231810Y-105137334D01*
X162262762Y-105199238D01*
X162077048Y-104425429D02*
X162077048Y-104363524D01*
X162108000Y-104301619D01*
X162138952Y-104270667D01*
X162200857Y-104239714D01*
X162324667Y-104208762D01*
X162479429Y-104208762D01*
X162603238Y-104239714D01*
X162665143Y-104270667D01*
X162696095Y-104301619D01*
X162727048Y-104363524D01*
X162727048Y-104425429D01*
X162696095Y-104487333D01*
X162665143Y-104518286D01*
X162603238Y-104549238D01*
X162479429Y-104580190D01*
X162324667Y-104580190D01*
X162200857Y-104549238D01*
X162138952Y-104518286D01*
X162108000Y-104487333D01*
X162077048Y-104425429D01*
X151347142Y-103483143D02*
X151316190Y-103514095D01*
X151223333Y-103545048D01*
X151161428Y-103545048D01*
X151068571Y-103514095D01*
X151006666Y-103452190D01*
X150975714Y-103390286D01*
X150944762Y-103266476D01*
X150944762Y-103173619D01*
X150975714Y-103049810D01*
X151006666Y-102987905D01*
X151068571Y-102926000D01*
X151161428Y-102895048D01*
X151223333Y-102895048D01*
X151316190Y-102926000D01*
X151347142Y-102956952D01*
X151966190Y-103545048D02*
X151594762Y-103545048D01*
X151780476Y-103545048D02*
X151780476Y-102895048D01*
X151718571Y-102987905D01*
X151656666Y-103049810D01*
X151594762Y-103080762D01*
X152213810Y-102956952D02*
X152244762Y-102926000D01*
X152306667Y-102895048D01*
X152461429Y-102895048D01*
X152523333Y-102926000D01*
X152554286Y-102956952D01*
X152585238Y-103018857D01*
X152585238Y-103080762D01*
X152554286Y-103173619D01*
X152182857Y-103545048D01*
X152585238Y-103545048D01*
X151870143Y-90968858D02*
X151901095Y-90999810D01*
X151932048Y-91092667D01*
X151932048Y-91154572D01*
X151901095Y-91247429D01*
X151839190Y-91309334D01*
X151777286Y-91340286D01*
X151653476Y-91371238D01*
X151560619Y-91371238D01*
X151436810Y-91340286D01*
X151374905Y-91309334D01*
X151313000Y-91247429D01*
X151282048Y-91154572D01*
X151282048Y-91092667D01*
X151313000Y-90999810D01*
X151343952Y-90968858D01*
X151932048Y-90349810D02*
X151932048Y-90721238D01*
X151932048Y-90535524D02*
X151282048Y-90535524D01*
X151374905Y-90597429D01*
X151436810Y-90659334D01*
X151467762Y-90721238D01*
X151282048Y-89761714D02*
X151282048Y-90071238D01*
X151591571Y-90102190D01*
X151560619Y-90071238D01*
X151529667Y-90009333D01*
X151529667Y-89854571D01*
X151560619Y-89792667D01*
X151591571Y-89761714D01*
X151653476Y-89730762D01*
X151808238Y-89730762D01*
X151870143Y-89761714D01*
X151901095Y-89792667D01*
X151932048Y-89854571D01*
X151932048Y-90009333D01*
X151901095Y-90071238D01*
X151870143Y-90102190D01*
X131993048Y-98015762D02*
X131343048Y-98015762D01*
X131343048Y-97861000D01*
X131374000Y-97768143D01*
X131435905Y-97706238D01*
X131497810Y-97675286D01*
X131621619Y-97644334D01*
X131714476Y-97644334D01*
X131838286Y-97675286D01*
X131900190Y-97706238D01*
X131962095Y-97768143D01*
X131993048Y-97861000D01*
X131993048Y-98015762D01*
X131993048Y-97025286D02*
X131993048Y-97396714D01*
X131993048Y-97211000D02*
X131343048Y-97211000D01*
X131435905Y-97272905D01*
X131497810Y-97334810D01*
X131528762Y-97396714D01*
X128564048Y-91284762D02*
X127914048Y-91284762D01*
X127914048Y-91130000D01*
X127945000Y-91037143D01*
X128006905Y-90975238D01*
X128068810Y-90944286D01*
X128192619Y-90913334D01*
X128285476Y-90913334D01*
X128409286Y-90944286D01*
X128471190Y-90975238D01*
X128533095Y-91037143D01*
X128564048Y-91130000D01*
X128564048Y-91284762D01*
X127975952Y-90665714D02*
X127945000Y-90634762D01*
X127914048Y-90572857D01*
X127914048Y-90418095D01*
X127945000Y-90356191D01*
X127975952Y-90325238D01*
X128037857Y-90294286D01*
X128099762Y-90294286D01*
X128192619Y-90325238D01*
X128564048Y-90696667D01*
X128564048Y-90294286D01*
X132628048Y-91272062D02*
X131978048Y-91272062D01*
X131978048Y-91117300D01*
X132009000Y-91024443D01*
X132070905Y-90962538D01*
X132132810Y-90931586D01*
X132256619Y-90900634D01*
X132349476Y-90900634D01*
X132473286Y-90931586D01*
X132535190Y-90962538D01*
X132597095Y-91024443D01*
X132628048Y-91117300D01*
X132628048Y-91272062D01*
X131978048Y-90683967D02*
X131978048Y-90281586D01*
X132225667Y-90498253D01*
X132225667Y-90405395D01*
X132256619Y-90343491D01*
X132287571Y-90312538D01*
X132349476Y-90281586D01*
X132504238Y-90281586D01*
X132566143Y-90312538D01*
X132597095Y-90343491D01*
X132628048Y-90405395D01*
X132628048Y-90591110D01*
X132597095Y-90653014D01*
X132566143Y-90683967D01*
X147193476Y-97068048D02*
X147193476Y-96418048D01*
X147874428Y-97006143D02*
X147843476Y-97037095D01*
X147750619Y-97068048D01*
X147688714Y-97068048D01*
X147595857Y-97037095D01*
X147533952Y-96975190D01*
X147503000Y-96913286D01*
X147472048Y-96789476D01*
X147472048Y-96696619D01*
X147503000Y-96572810D01*
X147533952Y-96510905D01*
X147595857Y-96449000D01*
X147688714Y-96418048D01*
X147750619Y-96418048D01*
X147843476Y-96449000D01*
X147874428Y-96479952D01*
X148122048Y-96479952D02*
X148153000Y-96449000D01*
X148214905Y-96418048D01*
X148369667Y-96418048D01*
X148431571Y-96449000D01*
X148462524Y-96479952D01*
X148493476Y-96541857D01*
X148493476Y-96603762D01*
X148462524Y-96696619D01*
X148091095Y-97068048D01*
X148493476Y-97068048D01*
X133985476Y-110657048D02*
X133985476Y-110007048D01*
X134666428Y-110595143D02*
X134635476Y-110626095D01*
X134542619Y-110657048D01*
X134480714Y-110657048D01*
X134387857Y-110626095D01*
X134325952Y-110564190D01*
X134295000Y-110502286D01*
X134264048Y-110378476D01*
X134264048Y-110285619D01*
X134295000Y-110161810D01*
X134325952Y-110099905D01*
X134387857Y-110038000D01*
X134480714Y-110007048D01*
X134542619Y-110007048D01*
X134635476Y-110038000D01*
X134666428Y-110068952D01*
X134883095Y-110007048D02*
X135285476Y-110007048D01*
X135068809Y-110254667D01*
X135161667Y-110254667D01*
X135223571Y-110285619D01*
X135254524Y-110316571D01*
X135285476Y-110378476D01*
X135285476Y-110533238D01*
X135254524Y-110595143D01*
X135223571Y-110626095D01*
X135161667Y-110657048D01*
X134975952Y-110657048D01*
X134914048Y-110626095D01*
X134883095Y-110595143D01*
X138811476Y-103037048D02*
X138811476Y-102387048D01*
X139492428Y-102975143D02*
X139461476Y-103006095D01*
X139368619Y-103037048D01*
X139306714Y-103037048D01*
X139213857Y-103006095D01*
X139151952Y-102944190D01*
X139121000Y-102882286D01*
X139090048Y-102758476D01*
X139090048Y-102665619D01*
X139121000Y-102541810D01*
X139151952Y-102479905D01*
X139213857Y-102418000D01*
X139306714Y-102387048D01*
X139368619Y-102387048D01*
X139461476Y-102418000D01*
X139492428Y-102448952D01*
X140049571Y-102603714D02*
X140049571Y-103037048D01*
X139894809Y-102356095D02*
X139740048Y-102820381D01*
X140142428Y-102820381D01*
X165862476Y-89063048D02*
X165862476Y-88413048D01*
X166543428Y-89001143D02*
X166512476Y-89032095D01*
X166419619Y-89063048D01*
X166357714Y-89063048D01*
X166264857Y-89032095D01*
X166202952Y-88970190D01*
X166172000Y-88908286D01*
X166141048Y-88784476D01*
X166141048Y-88691619D01*
X166172000Y-88567810D01*
X166202952Y-88505905D01*
X166264857Y-88444000D01*
X166357714Y-88413048D01*
X166419619Y-88413048D01*
X166512476Y-88444000D01*
X166543428Y-88474952D01*
X167131524Y-88413048D02*
X166822000Y-88413048D01*
X166791048Y-88722571D01*
X166822000Y-88691619D01*
X166883905Y-88660667D01*
X167038667Y-88660667D01*
X167100571Y-88691619D01*
X167131524Y-88722571D01*
X167162476Y-88784476D01*
X167162476Y-88939238D01*
X167131524Y-89001143D01*
X167100571Y-89032095D01*
X167038667Y-89063048D01*
X166883905Y-89063048D01*
X166822000Y-89032095D01*
X166791048Y-89001143D01*
X163093048Y-109309667D02*
X163557333Y-109309667D01*
X163650190Y-109340619D01*
X163712095Y-109402524D01*
X163743048Y-109495381D01*
X163743048Y-109557286D01*
X163743048Y-108659667D02*
X163743048Y-109031095D01*
X163743048Y-108845381D02*
X163093048Y-108845381D01*
X163185905Y-108907286D01*
X163247810Y-108969191D01*
X163278762Y-109031095D01*
X135654666Y-100497048D02*
X135438000Y-100187524D01*
X135283238Y-100497048D02*
X135283238Y-99847048D01*
X135530857Y-99847048D01*
X135592762Y-99878000D01*
X135623714Y-99908952D01*
X135654666Y-99970857D01*
X135654666Y-100063714D01*
X135623714Y-100125619D01*
X135592762Y-100156571D01*
X135530857Y-100187524D01*
X135283238Y-100187524D01*
X136273714Y-100497048D02*
X135902286Y-100497048D01*
X136088000Y-100497048D02*
X136088000Y-99847048D01*
X136026095Y-99939905D01*
X135964190Y-100001810D01*
X135902286Y-100032762D01*
X135654666Y-102021048D02*
X135438000Y-101711524D01*
X135283238Y-102021048D02*
X135283238Y-101371048D01*
X135530857Y-101371048D01*
X135592762Y-101402000D01*
X135623714Y-101432952D01*
X135654666Y-101494857D01*
X135654666Y-101587714D01*
X135623714Y-101649619D01*
X135592762Y-101680571D01*
X135530857Y-101711524D01*
X135283238Y-101711524D01*
X135902286Y-101432952D02*
X135933238Y-101402000D01*
X135995143Y-101371048D01*
X136149905Y-101371048D01*
X136211809Y-101402000D01*
X136242762Y-101432952D01*
X136273714Y-101494857D01*
X136273714Y-101556762D01*
X136242762Y-101649619D01*
X135871333Y-102021048D01*
X136273714Y-102021048D01*
X144671666Y-100878048D02*
X144455000Y-100568524D01*
X144300238Y-100878048D02*
X144300238Y-100228048D01*
X144547857Y-100228048D01*
X144609762Y-100259000D01*
X144640714Y-100289952D01*
X144671666Y-100351857D01*
X144671666Y-100444714D01*
X144640714Y-100506619D01*
X144609762Y-100537571D01*
X144547857Y-100568524D01*
X144300238Y-100568524D01*
X144888333Y-100228048D02*
X145290714Y-100228048D01*
X145074047Y-100475667D01*
X145166905Y-100475667D01*
X145228809Y-100506619D01*
X145259762Y-100537571D01*
X145290714Y-100599476D01*
X145290714Y-100754238D01*
X145259762Y-100816143D01*
X145228809Y-100847095D01*
X145166905Y-100878048D01*
X144981190Y-100878048D01*
X144919286Y-100847095D01*
X144888333Y-100816143D01*
X144671666Y-99227048D02*
X144455000Y-98917524D01*
X144300238Y-99227048D02*
X144300238Y-98577048D01*
X144547857Y-98577048D01*
X144609762Y-98608000D01*
X144640714Y-98638952D01*
X144671666Y-98700857D01*
X144671666Y-98793714D01*
X144640714Y-98855619D01*
X144609762Y-98886571D01*
X144547857Y-98917524D01*
X144300238Y-98917524D01*
X145228809Y-98793714D02*
X145228809Y-99227048D01*
X145074047Y-98546095D02*
X144919286Y-99010381D01*
X145321666Y-99010381D01*
X144671666Y-102275048D02*
X144455000Y-101965524D01*
X144300238Y-102275048D02*
X144300238Y-101625048D01*
X144547857Y-101625048D01*
X144609762Y-101656000D01*
X144640714Y-101686952D01*
X144671666Y-101748857D01*
X144671666Y-101841714D01*
X144640714Y-101903619D01*
X144609762Y-101934571D01*
X144547857Y-101965524D01*
X144300238Y-101965524D01*
X145228809Y-101625048D02*
X145105000Y-101625048D01*
X145043095Y-101656000D01*
X145012143Y-101686952D01*
X144950238Y-101779810D01*
X144919286Y-101903619D01*
X144919286Y-102151238D01*
X144950238Y-102213143D01*
X144981190Y-102244095D01*
X145043095Y-102275048D01*
X145166905Y-102275048D01*
X145228809Y-102244095D01*
X145259762Y-102213143D01*
X145290714Y-102151238D01*
X145290714Y-101996476D01*
X145259762Y-101934571D01*
X145228809Y-101903619D01*
X145166905Y-101872667D01*
X145043095Y-101872667D01*
X144981190Y-101903619D01*
X144950238Y-101934571D01*
X144919286Y-101996476D01*
X135676048Y-93961334D02*
X135366524Y-94178000D01*
X135676048Y-94332762D02*
X135026048Y-94332762D01*
X135026048Y-94085143D01*
X135057000Y-94023238D01*
X135087952Y-93992286D01*
X135149857Y-93961334D01*
X135242714Y-93961334D01*
X135304619Y-93992286D01*
X135335571Y-94023238D01*
X135366524Y-94085143D01*
X135366524Y-94332762D01*
X135026048Y-93744667D02*
X135026048Y-93311334D01*
X135676048Y-93589905D01*
X147338666Y-103164048D02*
X147122000Y-102854524D01*
X146967238Y-103164048D02*
X146967238Y-102514048D01*
X147214857Y-102514048D01*
X147276762Y-102545000D01*
X147307714Y-102575952D01*
X147338666Y-102637857D01*
X147338666Y-102730714D01*
X147307714Y-102792619D01*
X147276762Y-102823571D01*
X147214857Y-102854524D01*
X146967238Y-102854524D01*
X147710095Y-102792619D02*
X147648190Y-102761667D01*
X147617238Y-102730714D01*
X147586286Y-102668810D01*
X147586286Y-102637857D01*
X147617238Y-102575952D01*
X147648190Y-102545000D01*
X147710095Y-102514048D01*
X147833905Y-102514048D01*
X147895809Y-102545000D01*
X147926762Y-102575952D01*
X147957714Y-102637857D01*
X147957714Y-102668810D01*
X147926762Y-102730714D01*
X147895809Y-102761667D01*
X147833905Y-102792619D01*
X147710095Y-102792619D01*
X147648190Y-102823571D01*
X147617238Y-102854524D01*
X147586286Y-102916429D01*
X147586286Y-103040238D01*
X147617238Y-103102143D01*
X147648190Y-103133095D01*
X147710095Y-103164048D01*
X147833905Y-103164048D01*
X147895809Y-103133095D01*
X147926762Y-103102143D01*
X147957714Y-103040238D01*
X147957714Y-102916429D01*
X147926762Y-102854524D01*
X147895809Y-102823571D01*
X147833905Y-102792619D01*
X143677048Y-110090334D02*
X143367524Y-110307000D01*
X143677048Y-110461762D02*
X143027048Y-110461762D01*
X143027048Y-110214143D01*
X143058000Y-110152238D01*
X143088952Y-110121286D01*
X143150857Y-110090334D01*
X143243714Y-110090334D01*
X143305619Y-110121286D01*
X143336571Y-110152238D01*
X143367524Y-110214143D01*
X143367524Y-110461762D01*
X143677048Y-109780810D02*
X143677048Y-109657000D01*
X143646095Y-109595095D01*
X143615143Y-109564143D01*
X143522286Y-109502238D01*
X143398476Y-109471286D01*
X143150857Y-109471286D01*
X143088952Y-109502238D01*
X143058000Y-109533191D01*
X143027048Y-109595095D01*
X143027048Y-109718905D01*
X143058000Y-109780810D01*
X143088952Y-109811762D01*
X143150857Y-109842714D01*
X143305619Y-109842714D01*
X143367524Y-109811762D01*
X143398476Y-109780810D01*
X143429429Y-109718905D01*
X143429429Y-109595095D01*
X143398476Y-109533191D01*
X143367524Y-109502238D01*
X143305619Y-109471286D01*
X146471048Y-104811858D02*
X146161524Y-105028524D01*
X146471048Y-105183286D02*
X145821048Y-105183286D01*
X145821048Y-104935667D01*
X145852000Y-104873762D01*
X145882952Y-104842810D01*
X145944857Y-104811858D01*
X146037714Y-104811858D01*
X146099619Y-104842810D01*
X146130571Y-104873762D01*
X146161524Y-104935667D01*
X146161524Y-105183286D01*
X146471048Y-104192810D02*
X146471048Y-104564238D01*
X146471048Y-104378524D02*
X145821048Y-104378524D01*
X145913905Y-104440429D01*
X145975810Y-104502334D01*
X146006762Y-104564238D01*
X146471048Y-103573762D02*
X146471048Y-103945190D01*
X146471048Y-103759476D02*
X145821048Y-103759476D01*
X145913905Y-103821381D01*
X145975810Y-103883286D01*
X146006762Y-103945190D01*
X149392048Y-104811858D02*
X149082524Y-105028524D01*
X149392048Y-105183286D02*
X148742048Y-105183286D01*
X148742048Y-104935667D01*
X148773000Y-104873762D01*
X148803952Y-104842810D01*
X148865857Y-104811858D01*
X148958714Y-104811858D01*
X149020619Y-104842810D01*
X149051571Y-104873762D01*
X149082524Y-104935667D01*
X149082524Y-105183286D01*
X149392048Y-104192810D02*
X149392048Y-104564238D01*
X149392048Y-104378524D02*
X148742048Y-104378524D01*
X148834905Y-104440429D01*
X148896810Y-104502334D01*
X148927762Y-104564238D01*
X148803952Y-103945190D02*
X148773000Y-103914238D01*
X148742048Y-103852333D01*
X148742048Y-103697571D01*
X148773000Y-103635667D01*
X148803952Y-103604714D01*
X148865857Y-103573762D01*
X148927762Y-103573762D01*
X149020619Y-103604714D01*
X149392048Y-103976143D01*
X149392048Y-103573762D01*
X147868048Y-104811858D02*
X147558524Y-105028524D01*
X147868048Y-105183286D02*
X147218048Y-105183286D01*
X147218048Y-104935667D01*
X147249000Y-104873762D01*
X147279952Y-104842810D01*
X147341857Y-104811858D01*
X147434714Y-104811858D01*
X147496619Y-104842810D01*
X147527571Y-104873762D01*
X147558524Y-104935667D01*
X147558524Y-105183286D01*
X147868048Y-104192810D02*
X147868048Y-104564238D01*
X147868048Y-104378524D02*
X147218048Y-104378524D01*
X147310905Y-104440429D01*
X147372810Y-104502334D01*
X147403762Y-104564238D01*
X147218048Y-103976143D02*
X147218048Y-103573762D01*
X147465667Y-103790429D01*
X147465667Y-103697571D01*
X147496619Y-103635667D01*
X147527571Y-103604714D01*
X147589476Y-103573762D01*
X147744238Y-103573762D01*
X147806143Y-103604714D01*
X147837095Y-103635667D01*
X147868048Y-103697571D01*
X147868048Y-103883286D01*
X147837095Y-103945190D01*
X147806143Y-103976143D01*
X150408048Y-100239858D02*
X150098524Y-100456524D01*
X150408048Y-100611286D02*
X149758048Y-100611286D01*
X149758048Y-100363667D01*
X149789000Y-100301762D01*
X149819952Y-100270810D01*
X149881857Y-100239858D01*
X149974714Y-100239858D01*
X150036619Y-100270810D01*
X150067571Y-100301762D01*
X150098524Y-100363667D01*
X150098524Y-100611286D01*
X150408048Y-99620810D02*
X150408048Y-99992238D01*
X150408048Y-99806524D02*
X149758048Y-99806524D01*
X149850905Y-99868429D01*
X149912810Y-99930334D01*
X149943762Y-99992238D01*
X149974714Y-99063667D02*
X150408048Y-99063667D01*
X149727095Y-99218429D02*
X150191381Y-99373190D01*
X150191381Y-98970810D01*
X151932048Y-100239858D02*
X151622524Y-100456524D01*
X151932048Y-100611286D02*
X151282048Y-100611286D01*
X151282048Y-100363667D01*
X151313000Y-100301762D01*
X151343952Y-100270810D01*
X151405857Y-100239858D01*
X151498714Y-100239858D01*
X151560619Y-100270810D01*
X151591571Y-100301762D01*
X151622524Y-100363667D01*
X151622524Y-100611286D01*
X151932048Y-99620810D02*
X151932048Y-99992238D01*
X151932048Y-99806524D02*
X151282048Y-99806524D01*
X151374905Y-99868429D01*
X151436810Y-99930334D01*
X151467762Y-99992238D01*
X151282048Y-99032714D02*
X151282048Y-99342238D01*
X151591571Y-99373190D01*
X151560619Y-99342238D01*
X151529667Y-99280333D01*
X151529667Y-99125571D01*
X151560619Y-99063667D01*
X151591571Y-99032714D01*
X151653476Y-99001762D01*
X151808238Y-99001762D01*
X151870143Y-99032714D01*
X151901095Y-99063667D01*
X151932048Y-99125571D01*
X151932048Y-99280333D01*
X151901095Y-99342238D01*
X151870143Y-99373190D01*
X155234048Y-108240858D02*
X154924524Y-108457524D01*
X155234048Y-108612286D02*
X154584048Y-108612286D01*
X154584048Y-108364667D01*
X154615000Y-108302762D01*
X154645952Y-108271810D01*
X154707857Y-108240858D01*
X154800714Y-108240858D01*
X154862619Y-108271810D01*
X154893571Y-108302762D01*
X154924524Y-108364667D01*
X154924524Y-108612286D01*
X155234048Y-107621810D02*
X155234048Y-107993238D01*
X155234048Y-107807524D02*
X154584048Y-107807524D01*
X154676905Y-107869429D01*
X154738810Y-107931334D01*
X154769762Y-107993238D01*
X154584048Y-107064667D02*
X154584048Y-107188476D01*
X154615000Y-107250381D01*
X154645952Y-107281333D01*
X154738810Y-107343238D01*
X154862619Y-107374190D01*
X155110238Y-107374190D01*
X155172143Y-107343238D01*
X155203095Y-107312286D01*
X155234048Y-107250381D01*
X155234048Y-107126571D01*
X155203095Y-107064667D01*
X155172143Y-107033714D01*
X155110238Y-107002762D01*
X154955476Y-107002762D01*
X154893571Y-107033714D01*
X154862619Y-107064667D01*
X154831667Y-107126571D01*
X154831667Y-107250381D01*
X154862619Y-107312286D01*
X154893571Y-107343238D01*
X154955476Y-107374190D01*
X153710048Y-108240858D02*
X153400524Y-108457524D01*
X153710048Y-108612286D02*
X153060048Y-108612286D01*
X153060048Y-108364667D01*
X153091000Y-108302762D01*
X153121952Y-108271810D01*
X153183857Y-108240858D01*
X153276714Y-108240858D01*
X153338619Y-108271810D01*
X153369571Y-108302762D01*
X153400524Y-108364667D01*
X153400524Y-108612286D01*
X153710048Y-107621810D02*
X153710048Y-107993238D01*
X153710048Y-107807524D02*
X153060048Y-107807524D01*
X153152905Y-107869429D01*
X153214810Y-107931334D01*
X153245762Y-107993238D01*
X153060048Y-107405143D02*
X153060048Y-106971810D01*
X153710048Y-107250381D01*
X159552048Y-95794858D02*
X159242524Y-96011524D01*
X159552048Y-96166286D02*
X158902048Y-96166286D01*
X158902048Y-95918667D01*
X158933000Y-95856762D01*
X158963952Y-95825810D01*
X159025857Y-95794858D01*
X159118714Y-95794858D01*
X159180619Y-95825810D01*
X159211571Y-95856762D01*
X159242524Y-95918667D01*
X159242524Y-96166286D01*
X159552048Y-95175810D02*
X159552048Y-95547238D01*
X159552048Y-95361524D02*
X158902048Y-95361524D01*
X158994905Y-95423429D01*
X159056810Y-95485334D01*
X159087762Y-95547238D01*
X159180619Y-94804381D02*
X159149667Y-94866286D01*
X159118714Y-94897238D01*
X159056810Y-94928190D01*
X159025857Y-94928190D01*
X158963952Y-94897238D01*
X158933000Y-94866286D01*
X158902048Y-94804381D01*
X158902048Y-94680571D01*
X158933000Y-94618667D01*
X158963952Y-94587714D01*
X159025857Y-94556762D01*
X159056810Y-94556762D01*
X159118714Y-94587714D01*
X159149667Y-94618667D01*
X159180619Y-94680571D01*
X159180619Y-94804381D01*
X159211571Y-94866286D01*
X159242524Y-94897238D01*
X159304429Y-94928190D01*
X159428238Y-94928190D01*
X159490143Y-94897238D01*
X159521095Y-94866286D01*
X159552048Y-94804381D01*
X159552048Y-94680571D01*
X159521095Y-94618667D01*
X159490143Y-94587714D01*
X159428238Y-94556762D01*
X159304429Y-94556762D01*
X159242524Y-94587714D01*
X159211571Y-94618667D01*
X159180619Y-94680571D01*
X163235048Y-96810858D02*
X162925524Y-97027524D01*
X163235048Y-97182286D02*
X162585048Y-97182286D01*
X162585048Y-96934667D01*
X162616000Y-96872762D01*
X162646952Y-96841810D01*
X162708857Y-96810858D01*
X162801714Y-96810858D01*
X162863619Y-96841810D01*
X162894571Y-96872762D01*
X162925524Y-96934667D01*
X162925524Y-97182286D01*
X163235048Y-96191810D02*
X163235048Y-96563238D01*
X163235048Y-96377524D02*
X162585048Y-96377524D01*
X162677905Y-96439429D01*
X162739810Y-96501334D01*
X162770762Y-96563238D01*
X163235048Y-95882286D02*
X163235048Y-95758476D01*
X163204095Y-95696571D01*
X163173143Y-95665619D01*
X163080286Y-95603714D01*
X162956476Y-95572762D01*
X162708857Y-95572762D01*
X162646952Y-95603714D01*
X162616000Y-95634667D01*
X162585048Y-95696571D01*
X162585048Y-95820381D01*
X162616000Y-95882286D01*
X162646952Y-95913238D01*
X162708857Y-95944190D01*
X162863619Y-95944190D01*
X162925524Y-95913238D01*
X162956476Y-95882286D01*
X162987429Y-95820381D01*
X162987429Y-95696571D01*
X162956476Y-95634667D01*
X162925524Y-95603714D01*
X162863619Y-95572762D01*
X161711048Y-96810858D02*
X161401524Y-97027524D01*
X161711048Y-97182286D02*
X161061048Y-97182286D01*
X161061048Y-96934667D01*
X161092000Y-96872762D01*
X161122952Y-96841810D01*
X161184857Y-96810858D01*
X161277714Y-96810858D01*
X161339619Y-96841810D01*
X161370571Y-96872762D01*
X161401524Y-96934667D01*
X161401524Y-97182286D01*
X161122952Y-96563238D02*
X161092000Y-96532286D01*
X161061048Y-96470381D01*
X161061048Y-96315619D01*
X161092000Y-96253715D01*
X161122952Y-96222762D01*
X161184857Y-96191810D01*
X161246762Y-96191810D01*
X161339619Y-96222762D01*
X161711048Y-96594191D01*
X161711048Y-96191810D01*
X161061048Y-95789429D02*
X161061048Y-95727524D01*
X161092000Y-95665619D01*
X161122952Y-95634667D01*
X161184857Y-95603714D01*
X161308667Y-95572762D01*
X161463429Y-95572762D01*
X161587238Y-95603714D01*
X161649143Y-95634667D01*
X161680095Y-95665619D01*
X161711048Y-95727524D01*
X161711048Y-95789429D01*
X161680095Y-95851333D01*
X161649143Y-95882286D01*
X161587238Y-95913238D01*
X161463429Y-95944190D01*
X161308667Y-95944190D01*
X161184857Y-95913238D01*
X161122952Y-95882286D01*
X161092000Y-95851333D01*
X161061048Y-95789429D01*
X151932048Y-93947858D02*
X151622524Y-94164524D01*
X151932048Y-94319286D02*
X151282048Y-94319286D01*
X151282048Y-94071667D01*
X151313000Y-94009762D01*
X151343952Y-93978810D01*
X151405857Y-93947858D01*
X151498714Y-93947858D01*
X151560619Y-93978810D01*
X151591571Y-94009762D01*
X151622524Y-94071667D01*
X151622524Y-94319286D01*
X151343952Y-93700238D02*
X151313000Y-93669286D01*
X151282048Y-93607381D01*
X151282048Y-93452619D01*
X151313000Y-93390715D01*
X151343952Y-93359762D01*
X151405857Y-93328810D01*
X151467762Y-93328810D01*
X151560619Y-93359762D01*
X151932048Y-93731191D01*
X151932048Y-93328810D01*
X151932048Y-92709762D02*
X151932048Y-93081190D01*
X151932048Y-92895476D02*
X151282048Y-92895476D01*
X151374905Y-92957381D01*
X151436810Y-93019286D01*
X151467762Y-93081190D01*
X160655476Y-91861048D02*
X160655476Y-91211048D01*
X161336428Y-91799143D02*
X161305476Y-91830095D01*
X161212619Y-91861048D01*
X161150714Y-91861048D01*
X161057857Y-91830095D01*
X160995952Y-91768190D01*
X160965000Y-91706286D01*
X160934048Y-91582476D01*
X160934048Y-91489619D01*
X160965000Y-91365810D01*
X160995952Y-91303905D01*
X161057857Y-91242000D01*
X161150714Y-91211048D01*
X161212619Y-91211048D01*
X161305476Y-91242000D01*
X161336428Y-91272952D01*
X161893571Y-91211048D02*
X161769762Y-91211048D01*
X161707857Y-91242000D01*
X161676905Y-91272952D01*
X161615000Y-91365810D01*
X161584048Y-91489619D01*
X161584048Y-91737238D01*
X161615000Y-91799143D01*
X161645952Y-91830095D01*
X161707857Y-91861048D01*
X161831667Y-91861048D01*
X161893571Y-91830095D01*
X161924524Y-91799143D01*
X161955476Y-91737238D01*
X161955476Y-91582476D01*
X161924524Y-91520571D01*
X161893571Y-91489619D01*
X161831667Y-91458667D01*
X161707857Y-91458667D01*
X161645952Y-91489619D01*
X161615000Y-91520571D01*
X161584048Y-91582476D01*
X134827571Y-104173666D02*
X134827571Y-104390333D01*
X135168048Y-104390333D02*
X134518048Y-104390333D01*
X134518048Y-104080809D01*
X134827571Y-103616523D02*
X134858524Y-103523666D01*
X134889476Y-103492714D01*
X134951381Y-103461762D01*
X135044238Y-103461762D01*
X135106143Y-103492714D01*
X135137095Y-103523666D01*
X135168048Y-103585571D01*
X135168048Y-103833190D01*
X134518048Y-103833190D01*
X134518048Y-103616523D01*
X134549000Y-103554619D01*
X134579952Y-103523666D01*
X134641857Y-103492714D01*
X134703762Y-103492714D01*
X134765667Y-103523666D01*
X134796619Y-103554619D01*
X134827571Y-103616523D01*
X134827571Y-103833190D01*
X135168048Y-102842714D02*
X135168048Y-103214142D01*
X135168048Y-103028428D02*
X134518048Y-103028428D01*
X134610905Y-103090333D01*
X134672810Y-103152238D01*
X134703762Y-103214142D01*
X129060238Y-99735048D02*
X129060238Y-99085048D01*
X129307857Y-99085048D01*
X129369762Y-99116000D01*
X129400714Y-99146952D01*
X129431666Y-99208857D01*
X129431666Y-99301714D01*
X129400714Y-99363619D01*
X129369762Y-99394571D01*
X129307857Y-99425524D01*
X129060238Y-99425524D01*
X130050714Y-99735048D02*
X129679286Y-99735048D01*
X129865000Y-99735048D02*
X129865000Y-99085048D01*
X129803095Y-99177905D01*
X129741190Y-99239810D01*
X129679286Y-99270762D01*
X135549048Y-90014762D02*
X134899048Y-90014762D01*
X134899048Y-89767143D01*
X134930000Y-89705238D01*
X134960952Y-89674286D01*
X135022857Y-89643334D01*
X135115714Y-89643334D01*
X135177619Y-89674286D01*
X135208571Y-89705238D01*
X135239524Y-89767143D01*
X135239524Y-90014762D01*
X134960952Y-89395714D02*
X134930000Y-89364762D01*
X134899048Y-89302857D01*
X134899048Y-89148095D01*
X134930000Y-89086191D01*
X134960952Y-89055238D01*
X135022857Y-89024286D01*
X135084762Y-89024286D01*
X135177619Y-89055238D01*
X135549048Y-89426667D01*
X135549048Y-89024286D01*
X129314238Y-110911048D02*
X129314238Y-110261048D01*
X129561857Y-110261048D01*
X129623762Y-110292000D01*
X129654714Y-110322952D01*
X129685666Y-110384857D01*
X129685666Y-110477714D01*
X129654714Y-110539619D01*
X129623762Y-110570571D01*
X129561857Y-110601524D01*
X129314238Y-110601524D01*
X129902333Y-110261048D02*
X130304714Y-110261048D01*
X130088047Y-110508667D01*
X130180905Y-110508667D01*
X130242809Y-110539619D01*
X130273762Y-110570571D01*
X130304714Y-110632476D01*
X130304714Y-110787238D01*
X130273762Y-110849143D01*
X130242809Y-110880095D01*
X130180905Y-110911048D01*
X129995190Y-110911048D01*
X129933286Y-110880095D01*
X129902333Y-110849143D01*
X145393143Y-104375334D02*
X145424095Y-104406286D01*
X145455048Y-104499143D01*
X145455048Y-104561048D01*
X145424095Y-104653905D01*
X145362190Y-104715810D01*
X145300286Y-104746762D01*
X145176476Y-104777714D01*
X145083619Y-104777714D01*
X144959810Y-104746762D01*
X144897905Y-104715810D01*
X144836000Y-104653905D01*
X144805048Y-104561048D01*
X144805048Y-104499143D01*
X144836000Y-104406286D01*
X144866952Y-104375334D01*
X144805048Y-103818191D02*
X144805048Y-103942000D01*
X144836000Y-104003905D01*
X144866952Y-104034857D01*
X144959810Y-104096762D01*
X145083619Y-104127714D01*
X145331238Y-104127714D01*
X145393143Y-104096762D01*
X145424095Y-104065810D01*
X145455048Y-104003905D01*
X145455048Y-103880095D01*
X145424095Y-103818191D01*
X145393143Y-103787238D01*
X145331238Y-103756286D01*
X145176476Y-103756286D01*
X145114571Y-103787238D01*
X145083619Y-103818191D01*
X145052667Y-103880095D01*
X145052667Y-104003905D01*
X145083619Y-104065810D01*
X145114571Y-104096762D01*
X145176476Y-104127714D01*
X145551095Y-93322666D02*
X145582048Y-93229809D01*
X145582048Y-93075047D01*
X145551095Y-93013143D01*
X145520143Y-92982190D01*
X145458238Y-92951238D01*
X145396333Y-92951238D01*
X145334429Y-92982190D01*
X145303476Y-93013143D01*
X145272524Y-93075047D01*
X145241571Y-93198857D01*
X145210619Y-93260762D01*
X145179667Y-93291714D01*
X145117762Y-93322666D01*
X145055857Y-93322666D01*
X144993952Y-93291714D01*
X144963000Y-93260762D01*
X144932048Y-93198857D01*
X144932048Y-93044095D01*
X144963000Y-92951238D01*
X144932048Y-92734571D02*
X145582048Y-92579809D01*
X145117762Y-92455999D01*
X145582048Y-92332190D01*
X144932048Y-92177428D01*
X145582048Y-91589333D02*
X145582048Y-91960761D01*
X145582048Y-91775047D02*
X144932048Y-91775047D01*
X145024905Y-91836952D01*
X145086810Y-91898857D01*
X145117762Y-91960761D01*
X153044095Y-93195666D02*
X153075048Y-93102809D01*
X153075048Y-92948047D01*
X153044095Y-92886143D01*
X153013143Y-92855190D01*
X152951238Y-92824238D01*
X152889333Y-92824238D01*
X152827429Y-92855190D01*
X152796476Y-92886143D01*
X152765524Y-92948047D01*
X152734571Y-93071857D01*
X152703619Y-93133762D01*
X152672667Y-93164714D01*
X152610762Y-93195666D01*
X152548857Y-93195666D01*
X152486952Y-93164714D01*
X152456000Y-93133762D01*
X152425048Y-93071857D01*
X152425048Y-92917095D01*
X152456000Y-92824238D01*
X152425048Y-92607571D02*
X153075048Y-92452809D01*
X152610762Y-92328999D01*
X153075048Y-92205190D01*
X152425048Y-92050428D01*
X152486952Y-91833761D02*
X152456000Y-91802809D01*
X152425048Y-91740904D01*
X152425048Y-91586142D01*
X152456000Y-91524238D01*
X152486952Y-91493285D01*
X152548857Y-91462333D01*
X152610762Y-91462333D01*
X152703619Y-91493285D01*
X153075048Y-91864714D01*
X153075048Y-91462333D01*
X153487476Y-103108524D02*
X153487476Y-103418048D01*
X153270810Y-102768048D02*
X153487476Y-103108524D01*
X153704143Y-102768048D01*
X154261286Y-103418048D02*
X153889858Y-103418048D01*
X154075572Y-103418048D02*
X154075572Y-102768048D01*
X154013667Y-102860905D01*
X153951762Y-102922810D01*
X153889858Y-102953762D01*
X157966143Y-95667858D02*
X157997095Y-95698810D01*
X158028048Y-95791667D01*
X158028048Y-95853572D01*
X157997095Y-95946429D01*
X157935190Y-96008334D01*
X157873286Y-96039286D01*
X157749476Y-96070238D01*
X157656619Y-96070238D01*
X157532810Y-96039286D01*
X157470905Y-96008334D01*
X157409000Y-95946429D01*
X157378048Y-95853572D01*
X157378048Y-95791667D01*
X157409000Y-95698810D01*
X157439952Y-95667858D01*
X158028048Y-95048810D02*
X158028048Y-95420238D01*
X158028048Y-95234524D02*
X157378048Y-95234524D01*
X157470905Y-95296429D01*
X157532810Y-95358334D01*
X157563762Y-95420238D01*
X158028048Y-94429762D02*
X158028048Y-94801190D01*
X158028048Y-94615476D02*
X157378048Y-94615476D01*
X157470905Y-94677381D01*
X157532810Y-94739286D01*
X157563762Y-94801190D01*
M02*
