M48
;DRILL file {KiCad 0.201512021501+6340~38~ubuntu15.10.1-stable} date Sun 06 Dec 2015 12:16:39 AM EST
;FORMAT={-:-/ absolute / inch / decimal}
FMAT,2
INCH,TZ
T1C0.016
T2C0.020
T3C0.022
T4C0.026
T5C0.030
T6C0.040
%
G90
G05
M72
T1
X5.225Y-3.755
X5.24Y-4.025
X5.24Y-4.325
X5.305Y-4.275
X5.305Y-4.305
X5.345Y-3.8
X5.415Y-4.1955
X5.45Y-3.84
X5.46Y-4.36
X5.48Y-3.84
X5.48Y-3.995
X5.5044Y-4.1394
X5.5044Y-4.1906
X5.515Y-3.99
X5.54Y-4.04
X5.545Y-3.99
X5.5556Y-4.1394
X5.5556Y-4.1906
X5.57Y-4.045
X5.6Y-3.93
X5.64Y-4.065
X5.665Y-3.8656
X5.68Y-4.35
X5.7Y-4.045
X5.715Y-3.7196
X5.72Y-3.94
X5.74Y-3.96
X5.77Y-3.96
X5.78Y-4.14
X5.835Y-4.14
X5.855Y-3.88
X5.885Y-3.88
X5.895Y-3.855
X5.92Y-3.625
X5.92Y-4.05
X5.935Y-3.51
X5.955Y-4.145
X6.Y-3.96
X6.005Y-4.16
X6.0191Y-3.87
X6.0397Y-3.8403
X6.05Y-3.9807
X6.055Y-3.7762
X6.065Y-3.935
X6.075Y-3.685
X6.081Y-3.7854
X6.105Y-3.505
X6.12Y-3.535
X6.138Y-3.7954
X6.1543Y-3.891
X6.1543Y-3.9393
X6.165Y-3.79
X6.18Y-3.655
X6.2Y-3.55
X6.2Y-4.055
X6.24Y-3.7
X6.2457Y-3.891
X6.2457Y-3.9552
X6.26Y-4.1567
X6.275Y-3.5517
X6.295Y-3.805
X6.295Y-4.015
X6.305Y-3.745
X6.3117Y-3.705
X6.325Y-4.1567
X6.335Y-4.07
X6.355Y-3.67
X6.39Y-3.66
X6.46Y-3.525
X6.505Y-3.61
X6.605Y-3.51
T4
X6.175Y-4.265
X6.175Y-4.315
X6.225Y-4.265
X6.225Y-4.315
X6.275Y-4.265
X6.275Y-4.315
X6.325Y-4.265
X6.325Y-4.315
X6.375Y-4.265
X6.375Y-4.315
T5
X6.51Y-3.7838
X6.51Y-3.8625
X6.51Y-3.9413
X6.51Y-4.02
X6.51Y-4.0987
X6.51Y-4.1775
X6.51Y-4.2562
X6.51Y-4.335
X6.5887Y-3.7838
X6.5887Y-3.8625
X6.5887Y-3.9413
X6.5887Y-4.02
X6.5887Y-4.0987
X6.5887Y-4.1775
X6.5887Y-4.2562
X6.5887Y-4.335
T6
X5.07Y-3.725
X5.07Y-3.825
T2
X5.0424Y-4.0172G85X5.068Y-4.0172
G05
X5.0424Y-4.2928G85X5.068Y-4.2928
G05
T3
X5.1615Y-4.0506G85X5.1615Y-4.0624
G05
X5.1615Y-4.2475G85X5.1615Y-4.2593
G05
T0
M30
