G04 #@! TF.FileFunction,Copper,L3,Inr,Signal*
%FSLAX46Y46*%
G04 Gerber Fmt 4.6, Leading zero omitted, Abs format (unit mm)*
G04 Created by KiCad (PCBNEW 0.201512021501+6340~38~ubuntu15.10.1-stable) date Sun 06 Dec 2015 12:21:56 AM EST*
%MOMM*%
G01*
G04 APERTURE LIST*
%ADD10C,0.100000*%
%ADD11C,1.250000*%
%ADD12R,1.050000X1.050000*%
%ADD13C,1.050000*%
%ADD14R,2.032000X2.032000*%
%ADD15O,2.032000X2.032000*%
%ADD16O,0.950000X1.250000*%
%ADD17O,1.550000X1.000000*%
%ADD18C,0.600000*%
%ADD19C,0.250000*%
%ADD20C,0.254000*%
G04 APERTURE END LIST*
D10*
D11*
X167354000Y-110108000D03*
X165354000Y-110108000D03*
X167354000Y-108108000D03*
X165354000Y-108108000D03*
X167354000Y-106108000D03*
X165354000Y-106108000D03*
X167354000Y-104108000D03*
X165354000Y-104108000D03*
X167354000Y-102108000D03*
X165354000Y-102108000D03*
X167354000Y-100108000D03*
X165354000Y-100108000D03*
X167354000Y-98108000D03*
X165354000Y-98108000D03*
X167354000Y-96108000D03*
X165354000Y-96108000D03*
D12*
X156845000Y-109601000D03*
D13*
X158115000Y-109601000D03*
X159385000Y-109601000D03*
X160655000Y-109601000D03*
X161925000Y-109601000D03*
X158115000Y-108331000D03*
X159385000Y-108331000D03*
X160655000Y-108331000D03*
X161925000Y-108331000D03*
X156845000Y-108331000D03*
D14*
X128778000Y-94615000D03*
D15*
X128778000Y-97155000D03*
D16*
X131102540Y-103036100D03*
X131102540Y-108036100D03*
D17*
X128402540Y-102036100D03*
X128402540Y-109036100D03*
D18*
X134747000Y-108585000D03*
X134747000Y-109347000D03*
X133096000Y-102235000D03*
X133096000Y-109855000D03*
X165227000Y-91694000D03*
X160655000Y-105579000D03*
X159004000Y-105579000D03*
X156319990Y-100058990D03*
X158640010Y-100460904D03*
X158640010Y-98832500D03*
X156319990Y-98832500D03*
X150368000Y-102870000D03*
X151257000Y-105283000D03*
X138684000Y-110744000D03*
X150749000Y-89154000D03*
X154305000Y-93599000D03*
X156972000Y-92837000D03*
X159385000Y-90212000D03*
X143891000Y-98186010D03*
X146558000Y-100584000D03*
X145796000Y-100584000D03*
X145288000Y-100076000D03*
X145161000Y-94478000D03*
X138430000Y-97536000D03*
X139192000Y-97536000D03*
X140081000Y-101346000D03*
X140843000Y-101346000D03*
X141112000Y-106441000D03*
X139812000Y-106441000D03*
X139812000Y-105141000D03*
X141112000Y-105141000D03*
X143256000Y-103251000D03*
X148717000Y-98552000D03*
X149479000Y-98552000D03*
X149733000Y-97917000D03*
X144780000Y-102743000D03*
X160316000Y-94107000D03*
X157480000Y-102997000D03*
X144272000Y-110490000D03*
X137541000Y-106566010D03*
X157480000Y-90170000D03*
X155448000Y-89789000D03*
X164084000Y-89535000D03*
X155067000Y-89027000D03*
X150368000Y-92075000D03*
X160147000Y-95123000D03*
X159893000Y-96647000D03*
X154051000Y-99949000D03*
X167767000Y-89154000D03*
X161417000Y-93218000D03*
X146812000Y-105156000D03*
X154457459Y-96147940D03*
X148209000Y-105156000D03*
X152884257Y-98298000D03*
X155904592Y-96403281D03*
X156591000Y-96266000D03*
X158496000Y-93980000D03*
X162306000Y-92964000D03*
X153797000Y-95915999D03*
X141478000Y-102743000D03*
X140716000Y-102616000D03*
X159893000Y-101981000D03*
X153409267Y-97542733D03*
X153670000Y-101109010D03*
X152527000Y-105664000D03*
X132715000Y-95377000D03*
X139192000Y-101473000D03*
X142240000Y-99822000D03*
X135763000Y-96520000D03*
X160909000Y-103378000D03*
X152400000Y-100584000D03*
D19*
X152527000Y-105664000D02*
X152527000Y-102252010D01*
X152527000Y-102252010D02*
X153670000Y-101109010D01*
X152400000Y-100584000D02*
X157718998Y-100584000D01*
X157718998Y-100584000D02*
X160512998Y-103378000D01*
X160512998Y-103378000D02*
X160909000Y-103378000D01*
D20*
G36*
X162579308Y-88374524D02*
X162579307Y-88374526D01*
X162579306Y-88374527D01*
X162551776Y-88415729D01*
X162551775Y-88415730D01*
X162535423Y-88455208D01*
X162502950Y-88533605D01*
X162502950Y-88533607D01*
X162493283Y-88582208D01*
X162493283Y-88614413D01*
X162487000Y-88646000D01*
X162487000Y-91694000D01*
X162493283Y-91725587D01*
X162493283Y-91757792D01*
X162502950Y-91806393D01*
X162502950Y-91806395D01*
X162531367Y-91875000D01*
X162551775Y-91924270D01*
X162551776Y-91924271D01*
X162579306Y-91965473D01*
X162579307Y-91965474D01*
X162579308Y-91965476D01*
X162669524Y-92055692D01*
X162669526Y-92055693D01*
X162669527Y-92055694D01*
X162710729Y-92083224D01*
X162710730Y-92083225D01*
X162759556Y-92103449D01*
X162828605Y-92132050D01*
X162828607Y-92132050D01*
X162877200Y-92141715D01*
X162877204Y-92141717D01*
X163004796Y-92141717D01*
X163004800Y-92141715D01*
X163053393Y-92132050D01*
X163053395Y-92132050D01*
X163122444Y-92103449D01*
X163171270Y-92083225D01*
X163171271Y-92083224D01*
X163212473Y-92055694D01*
X163212474Y-92055693D01*
X163212476Y-92055692D01*
X163302692Y-91965476D01*
X163302693Y-91965474D01*
X163302694Y-91965473D01*
X163330224Y-91924271D01*
X163330225Y-91924270D01*
X163350633Y-91875000D01*
X163379050Y-91806395D01*
X163379050Y-91806393D01*
X163388717Y-91757792D01*
X163388717Y-91725587D01*
X163395000Y-91694000D01*
X163395000Y-89644318D01*
X163531905Y-89644318D01*
X163615765Y-89847274D01*
X163770909Y-90002690D01*
X163973719Y-90086904D01*
X164193318Y-90087095D01*
X164396274Y-90003235D01*
X164551690Y-89848091D01*
X164635904Y-89645281D01*
X164636095Y-89425682D01*
X164552235Y-89222726D01*
X164397091Y-89067310D01*
X164194281Y-88983096D01*
X163974682Y-88982905D01*
X163771726Y-89066765D01*
X163616310Y-89221909D01*
X163532096Y-89424719D01*
X163531905Y-89644318D01*
X163395000Y-89644318D01*
X163395000Y-88646000D01*
X163388717Y-88614413D01*
X163388717Y-88582208D01*
X163379050Y-88533607D01*
X163379050Y-88533605D01*
X163346577Y-88455208D01*
X163330225Y-88415730D01*
X163330224Y-88415729D01*
X163302694Y-88374527D01*
X163302693Y-88374526D01*
X163302692Y-88374524D01*
X163266168Y-88338000D01*
X168202000Y-88338000D01*
X168202000Y-88808433D01*
X168080091Y-88686310D01*
X167877281Y-88602096D01*
X167657682Y-88601905D01*
X167454726Y-88685765D01*
X167299310Y-88840909D01*
X167215096Y-89043719D01*
X167214905Y-89263318D01*
X167298765Y-89466274D01*
X167453909Y-89621690D01*
X167656719Y-89705904D01*
X167876318Y-89706095D01*
X168079274Y-89622235D01*
X168202000Y-89499724D01*
X168202000Y-92003832D01*
X168165476Y-91967308D01*
X168165474Y-91967307D01*
X168165473Y-91967306D01*
X168124271Y-91939776D01*
X168124270Y-91939775D01*
X168072858Y-91918480D01*
X168006395Y-91890950D01*
X168006393Y-91890950D01*
X167957792Y-91881283D01*
X167925587Y-91881283D01*
X167894000Y-91875000D01*
X165749539Y-91875000D01*
X165778904Y-91804281D01*
X165779095Y-91584682D01*
X165695235Y-91381726D01*
X165540091Y-91226310D01*
X165337281Y-91142096D01*
X165117682Y-91141905D01*
X164914726Y-91225765D01*
X164759310Y-91380909D01*
X164675096Y-91583719D01*
X164674905Y-91803318D01*
X164704524Y-91875000D01*
X163576000Y-91875000D01*
X163544413Y-91881283D01*
X163512208Y-91881283D01*
X163463607Y-91890950D01*
X163463605Y-91890950D01*
X163397142Y-91918480D01*
X163345730Y-91939775D01*
X163345729Y-91939776D01*
X163304527Y-91967306D01*
X163304526Y-91967307D01*
X163304524Y-91967308D01*
X163214308Y-92057524D01*
X163214307Y-92057526D01*
X163214306Y-92057527D01*
X163186776Y-92098729D01*
X163186775Y-92098730D01*
X163175639Y-92125616D01*
X163137950Y-92216605D01*
X163137950Y-92216607D01*
X163128285Y-92265200D01*
X163128283Y-92265204D01*
X163128283Y-92392796D01*
X163128285Y-92392800D01*
X163137950Y-92441393D01*
X163137950Y-92441395D01*
X163155414Y-92483556D01*
X163186775Y-92559270D01*
X163186776Y-92559271D01*
X163214306Y-92600473D01*
X163214307Y-92600474D01*
X163214308Y-92600476D01*
X163304524Y-92690692D01*
X163304526Y-92690693D01*
X163304527Y-92690694D01*
X163345729Y-92718224D01*
X163345730Y-92718225D01*
X163369062Y-92727889D01*
X163463605Y-92767050D01*
X163463607Y-92767050D01*
X163512208Y-92776717D01*
X163544413Y-92776717D01*
X163576000Y-92783000D01*
X167894000Y-92783000D01*
X167925587Y-92776717D01*
X167957792Y-92776717D01*
X168006393Y-92767050D01*
X168006395Y-92767050D01*
X168100938Y-92727889D01*
X168124270Y-92718225D01*
X168124271Y-92718224D01*
X168165473Y-92690694D01*
X168165474Y-92690693D01*
X168165476Y-92690692D01*
X168202000Y-92654168D01*
X168202000Y-95142700D01*
X168170846Y-95111546D01*
X168055272Y-95227120D01*
X168002675Y-94999110D01*
X167528944Y-94835283D01*
X167028580Y-94865215D01*
X166705325Y-94999110D01*
X166652727Y-95227122D01*
X167354000Y-95928395D01*
X167368143Y-95914253D01*
X167547748Y-96093858D01*
X167533605Y-96108000D01*
X167547748Y-96122143D01*
X167368143Y-96301748D01*
X167354000Y-96287605D01*
X166652727Y-96988878D01*
X166705325Y-97216890D01*
X166982292Y-97312672D01*
X166857869Y-97364082D01*
X166610949Y-97610571D01*
X166477153Y-97932789D01*
X166476849Y-98281681D01*
X166610082Y-98604131D01*
X166856571Y-98851051D01*
X167178789Y-98984847D01*
X167527681Y-98985151D01*
X167850131Y-98851918D01*
X168097051Y-98605429D01*
X168202000Y-98352683D01*
X168202000Y-99863768D01*
X168097918Y-99611869D01*
X167851429Y-99364949D01*
X167529211Y-99231153D01*
X167180319Y-99230849D01*
X166857869Y-99364082D01*
X166610949Y-99610571D01*
X166477153Y-99932789D01*
X166476849Y-100281681D01*
X166610082Y-100604131D01*
X166856571Y-100851051D01*
X167178789Y-100984847D01*
X167527681Y-100985151D01*
X167850131Y-100851918D01*
X168097051Y-100605429D01*
X168202000Y-100352683D01*
X168202000Y-101863768D01*
X168097918Y-101611869D01*
X167851429Y-101364949D01*
X167529211Y-101231153D01*
X167180319Y-101230849D01*
X166857869Y-101364082D01*
X166610949Y-101610571D01*
X166477153Y-101932789D01*
X166476849Y-102281681D01*
X166610082Y-102604131D01*
X166856571Y-102851051D01*
X167178789Y-102984847D01*
X167527681Y-102985151D01*
X167850131Y-102851918D01*
X168097051Y-102605429D01*
X168202000Y-102352683D01*
X168202000Y-103863768D01*
X168097918Y-103611869D01*
X167851429Y-103364949D01*
X167529211Y-103231153D01*
X167180319Y-103230849D01*
X166857869Y-103364082D01*
X166610949Y-103610571D01*
X166477153Y-103932789D01*
X166476849Y-104281681D01*
X166610082Y-104604131D01*
X166856571Y-104851051D01*
X167178789Y-104984847D01*
X167527681Y-104985151D01*
X167850131Y-104851918D01*
X168097051Y-104605429D01*
X168202000Y-104352683D01*
X168202000Y-105863768D01*
X168097918Y-105611869D01*
X167851429Y-105364949D01*
X167529211Y-105231153D01*
X167180319Y-105230849D01*
X166857869Y-105364082D01*
X166610949Y-105610571D01*
X166477153Y-105932789D01*
X166476849Y-106281681D01*
X166610082Y-106604131D01*
X166856571Y-106851051D01*
X167178789Y-106984847D01*
X167527681Y-106985151D01*
X167850131Y-106851918D01*
X168097051Y-106605429D01*
X168202000Y-106352683D01*
X168202000Y-107863768D01*
X168097918Y-107611869D01*
X167851429Y-107364949D01*
X167529211Y-107231153D01*
X167180319Y-107230849D01*
X166857869Y-107364082D01*
X166610949Y-107610571D01*
X166477153Y-107932789D01*
X166476849Y-108281681D01*
X166610082Y-108604131D01*
X166856571Y-108851051D01*
X167178789Y-108984847D01*
X167527681Y-108985151D01*
X167850131Y-108851918D01*
X168097051Y-108605429D01*
X168202000Y-108352683D01*
X168202000Y-109863768D01*
X168097918Y-109611869D01*
X167851429Y-109364949D01*
X167529211Y-109231153D01*
X167180319Y-109230849D01*
X166857869Y-109364082D01*
X166610949Y-109610571D01*
X166477153Y-109932789D01*
X166476849Y-110281681D01*
X166610082Y-110604131D01*
X166856571Y-110851051D01*
X167034661Y-110925000D01*
X165673258Y-110925000D01*
X165850131Y-110851918D01*
X166097051Y-110605429D01*
X166230847Y-110283211D01*
X166231151Y-109934319D01*
X166097918Y-109611869D01*
X165851429Y-109364949D01*
X165529211Y-109231153D01*
X165180319Y-109230849D01*
X164857869Y-109364082D01*
X164610949Y-109610571D01*
X164477153Y-109932789D01*
X164476849Y-110281681D01*
X164610082Y-110604131D01*
X164856571Y-110851051D01*
X165034661Y-110925000D01*
X139206539Y-110925000D01*
X139235904Y-110854281D01*
X139236095Y-110634682D01*
X139152235Y-110431726D01*
X138997091Y-110276310D01*
X138794281Y-110192096D01*
X138574682Y-110191905D01*
X138371726Y-110275765D01*
X138216310Y-110430909D01*
X138132096Y-110633719D01*
X138131905Y-110853318D01*
X138161524Y-110925000D01*
X127327000Y-110925000D01*
X127327000Y-109964318D01*
X132543905Y-109964318D01*
X132627765Y-110167274D01*
X132782909Y-110322690D01*
X132985719Y-110406904D01*
X133205318Y-110407095D01*
X133408274Y-110323235D01*
X133563690Y-110168091D01*
X133647904Y-109965281D01*
X133648095Y-109745682D01*
X133564235Y-109542726D01*
X133409091Y-109387310D01*
X133206281Y-109303096D01*
X132986682Y-109302905D01*
X132783726Y-109386765D01*
X132628310Y-109541909D01*
X132544096Y-109744719D01*
X132543905Y-109964318D01*
X127327000Y-109964318D01*
X127327000Y-109036100D01*
X127355420Y-109036100D01*
X127412663Y-109323878D01*
X127575676Y-109567844D01*
X127819642Y-109730857D01*
X128107420Y-109788100D01*
X128697660Y-109788100D01*
X128985438Y-109730857D01*
X129229404Y-109567844D01*
X129392417Y-109323878D01*
X129449660Y-109036100D01*
X129392417Y-108748322D01*
X129229404Y-108504356D01*
X128985438Y-108341343D01*
X128697660Y-108284100D01*
X128107420Y-108284100D01*
X127819642Y-108341343D01*
X127575676Y-108504356D01*
X127412663Y-108748322D01*
X127355420Y-109036100D01*
X127327000Y-109036100D01*
X127327000Y-107868919D01*
X130375540Y-107868919D01*
X130375540Y-108203281D01*
X130430880Y-108481492D01*
X130588473Y-108717348D01*
X130824329Y-108874941D01*
X131102540Y-108930281D01*
X131380751Y-108874941D01*
X131616607Y-108717348D01*
X131631995Y-108694318D01*
X134194905Y-108694318D01*
X134278765Y-108897274D01*
X134347354Y-108965984D01*
X134279310Y-109033909D01*
X134195096Y-109236719D01*
X134194905Y-109456318D01*
X134278765Y-109659274D01*
X134433909Y-109814690D01*
X134636719Y-109898904D01*
X134856318Y-109899095D01*
X134886195Y-109886750D01*
X155685000Y-109886750D01*
X155685000Y-110252309D01*
X155781673Y-110485698D01*
X155960301Y-110664327D01*
X156193690Y-110761000D01*
X156559250Y-110761000D01*
X156718000Y-110602250D01*
X156718000Y-109728000D01*
X155843750Y-109728000D01*
X155685000Y-109886750D01*
X134886195Y-109886750D01*
X135059274Y-109815235D01*
X135214690Y-109660091D01*
X135298904Y-109457281D01*
X135299095Y-109237682D01*
X135215235Y-109034726D01*
X135146646Y-108966016D01*
X135162999Y-108949691D01*
X155685000Y-108949691D01*
X155685000Y-109315250D01*
X155843750Y-109474000D01*
X156718000Y-109474000D01*
X156718000Y-109454000D01*
X156972000Y-109454000D01*
X156972000Y-109474000D01*
X156992000Y-109474000D01*
X156992000Y-109728000D01*
X156972000Y-109728000D01*
X156972000Y-110602250D01*
X157130750Y-110761000D01*
X157496310Y-110761000D01*
X157729699Y-110664327D01*
X157908327Y-110485698D01*
X157953987Y-110375465D01*
X157959767Y-110377865D01*
X158268877Y-110378134D01*
X158554560Y-110260092D01*
X158750150Y-110064844D01*
X158944290Y-110259324D01*
X159229767Y-110377865D01*
X159538877Y-110378134D01*
X159824560Y-110260092D01*
X160020150Y-110064844D01*
X160214290Y-110259324D01*
X160499767Y-110377865D01*
X160808877Y-110378134D01*
X161094560Y-110260092D01*
X161290150Y-110064844D01*
X161484290Y-110259324D01*
X161769767Y-110377865D01*
X162078877Y-110378134D01*
X162364560Y-110260092D01*
X162583324Y-110041710D01*
X162701865Y-109756233D01*
X162702134Y-109447123D01*
X162584092Y-109161440D01*
X162388844Y-108965850D01*
X162583324Y-108771710D01*
X162701865Y-108486233D01*
X162702043Y-108281681D01*
X164476849Y-108281681D01*
X164610082Y-108604131D01*
X164856571Y-108851051D01*
X165178789Y-108984847D01*
X165527681Y-108985151D01*
X165850131Y-108851918D01*
X166097051Y-108605429D01*
X166230847Y-108283211D01*
X166231151Y-107934319D01*
X166097918Y-107611869D01*
X165851429Y-107364949D01*
X165529211Y-107231153D01*
X165180319Y-107230849D01*
X164857869Y-107364082D01*
X164610949Y-107610571D01*
X164477153Y-107932789D01*
X164476849Y-108281681D01*
X162702043Y-108281681D01*
X162702134Y-108177123D01*
X162584092Y-107891440D01*
X162365710Y-107672676D01*
X162080233Y-107554135D01*
X161771123Y-107553866D01*
X161485440Y-107671908D01*
X161289850Y-107867156D01*
X161095710Y-107672676D01*
X160810233Y-107554135D01*
X160501123Y-107553866D01*
X160215440Y-107671908D01*
X160019850Y-107867156D01*
X159825710Y-107672676D01*
X159540233Y-107554135D01*
X159231123Y-107553866D01*
X158945440Y-107671908D01*
X158749850Y-107867156D01*
X158555710Y-107672676D01*
X158270233Y-107554135D01*
X157961123Y-107553866D01*
X157675440Y-107671908D01*
X157479850Y-107867156D01*
X157285710Y-107672676D01*
X157000233Y-107554135D01*
X156691123Y-107553866D01*
X156405440Y-107671908D01*
X156186676Y-107890290D01*
X156068135Y-108175767D01*
X156067866Y-108484877D01*
X156070774Y-108491914D01*
X155960301Y-108537673D01*
X155781673Y-108716302D01*
X155685000Y-108949691D01*
X135162999Y-108949691D01*
X135214690Y-108898091D01*
X135298904Y-108695281D01*
X135299095Y-108475682D01*
X135215235Y-108272726D01*
X135060091Y-108117310D01*
X134857281Y-108033096D01*
X134637682Y-108032905D01*
X134434726Y-108116765D01*
X134279310Y-108271909D01*
X134195096Y-108474719D01*
X134194905Y-108694318D01*
X131631995Y-108694318D01*
X131774200Y-108481492D01*
X131829540Y-108203281D01*
X131829540Y-107868919D01*
X131774200Y-107590708D01*
X131616607Y-107354852D01*
X131380751Y-107197259D01*
X131102540Y-107141919D01*
X130824329Y-107197259D01*
X130588473Y-107354852D01*
X130430880Y-107590708D01*
X130375540Y-107868919D01*
X127327000Y-107868919D01*
X127327000Y-106550318D01*
X139259905Y-106550318D01*
X139343765Y-106753274D01*
X139498909Y-106908690D01*
X139701719Y-106992904D01*
X139921318Y-106993095D01*
X140124274Y-106909235D01*
X140279690Y-106754091D01*
X140363904Y-106551281D01*
X140363904Y-106550318D01*
X140559905Y-106550318D01*
X140643765Y-106753274D01*
X140798909Y-106908690D01*
X141001719Y-106992904D01*
X141221318Y-106993095D01*
X141424274Y-106909235D01*
X141579690Y-106754091D01*
X141663904Y-106551281D01*
X141664095Y-106331682D01*
X141643435Y-106281681D01*
X164476849Y-106281681D01*
X164610082Y-106604131D01*
X164856571Y-106851051D01*
X165178789Y-106984847D01*
X165527681Y-106985151D01*
X165850131Y-106851918D01*
X166097051Y-106605429D01*
X166230847Y-106283211D01*
X166231151Y-105934319D01*
X166097918Y-105611869D01*
X165851429Y-105364949D01*
X165529211Y-105231153D01*
X165180319Y-105230849D01*
X164857869Y-105364082D01*
X164610949Y-105610571D01*
X164477153Y-105932789D01*
X164476849Y-106281681D01*
X141643435Y-106281681D01*
X141580235Y-106128726D01*
X141425091Y-105973310D01*
X141222281Y-105889096D01*
X141002682Y-105888905D01*
X140799726Y-105972765D01*
X140644310Y-106127909D01*
X140560096Y-106330719D01*
X140559905Y-106550318D01*
X140363904Y-106550318D01*
X140364095Y-106331682D01*
X140280235Y-106128726D01*
X140125091Y-105973310D01*
X139922281Y-105889096D01*
X139702682Y-105888905D01*
X139499726Y-105972765D01*
X139344310Y-106127909D01*
X139260096Y-106330719D01*
X139259905Y-106550318D01*
X127327000Y-106550318D01*
X127327000Y-105250318D01*
X139259905Y-105250318D01*
X139343765Y-105453274D01*
X139498909Y-105608690D01*
X139701719Y-105692904D01*
X139921318Y-105693095D01*
X140124274Y-105609235D01*
X140279690Y-105454091D01*
X140363904Y-105251281D01*
X140363904Y-105250318D01*
X140559905Y-105250318D01*
X140643765Y-105453274D01*
X140798909Y-105608690D01*
X141001719Y-105692904D01*
X141221318Y-105693095D01*
X141424274Y-105609235D01*
X141579690Y-105454091D01*
X141658075Y-105265318D01*
X146259905Y-105265318D01*
X146343765Y-105468274D01*
X146498909Y-105623690D01*
X146701719Y-105707904D01*
X146921318Y-105708095D01*
X147124274Y-105624235D01*
X147279690Y-105469091D01*
X147363904Y-105266281D01*
X147363904Y-105265318D01*
X147656905Y-105265318D01*
X147740765Y-105468274D01*
X147895909Y-105623690D01*
X148098719Y-105707904D01*
X148318318Y-105708095D01*
X148521274Y-105624235D01*
X148676690Y-105469091D01*
X148708568Y-105392318D01*
X150704905Y-105392318D01*
X150788765Y-105595274D01*
X150943909Y-105750690D01*
X151146719Y-105834904D01*
X151366318Y-105835095D01*
X151569274Y-105751235D01*
X151724690Y-105596091D01*
X151808904Y-105393281D01*
X151809095Y-105173682D01*
X151725235Y-104970726D01*
X151570091Y-104815310D01*
X151367281Y-104731096D01*
X151147682Y-104730905D01*
X150944726Y-104814765D01*
X150789310Y-104969909D01*
X150705096Y-105172719D01*
X150704905Y-105392318D01*
X148708568Y-105392318D01*
X148760904Y-105266281D01*
X148761095Y-105046682D01*
X148677235Y-104843726D01*
X148522091Y-104688310D01*
X148319281Y-104604096D01*
X148099682Y-104603905D01*
X147896726Y-104687765D01*
X147741310Y-104842909D01*
X147657096Y-105045719D01*
X147656905Y-105265318D01*
X147363904Y-105265318D01*
X147364095Y-105046682D01*
X147280235Y-104843726D01*
X147125091Y-104688310D01*
X146922281Y-104604096D01*
X146702682Y-104603905D01*
X146499726Y-104687765D01*
X146344310Y-104842909D01*
X146260096Y-105045719D01*
X146259905Y-105265318D01*
X141658075Y-105265318D01*
X141663904Y-105251281D01*
X141664095Y-105031682D01*
X141580235Y-104828726D01*
X141425091Y-104673310D01*
X141222281Y-104589096D01*
X141002682Y-104588905D01*
X140799726Y-104672765D01*
X140644310Y-104827909D01*
X140560096Y-105030719D01*
X140559905Y-105250318D01*
X140363904Y-105250318D01*
X140364095Y-105031682D01*
X140280235Y-104828726D01*
X140125091Y-104673310D01*
X139922281Y-104589096D01*
X139702682Y-104588905D01*
X139499726Y-104672765D01*
X139344310Y-104827909D01*
X139260096Y-105030719D01*
X139259905Y-105250318D01*
X127327000Y-105250318D01*
X127327000Y-102868919D01*
X130375540Y-102868919D01*
X130375540Y-103203281D01*
X130430880Y-103481492D01*
X130588473Y-103717348D01*
X130824329Y-103874941D01*
X131102540Y-103930281D01*
X131380751Y-103874941D01*
X131616607Y-103717348D01*
X131774200Y-103481492D01*
X131798303Y-103360318D01*
X142703905Y-103360318D01*
X142787765Y-103563274D01*
X142942909Y-103718690D01*
X143145719Y-103802904D01*
X143365318Y-103803095D01*
X143568274Y-103719235D01*
X143723690Y-103564091D01*
X143807904Y-103361281D01*
X143808095Y-103141682D01*
X143741008Y-102979318D01*
X149815905Y-102979318D01*
X149899765Y-103182274D01*
X150054909Y-103337690D01*
X150257719Y-103421904D01*
X150477318Y-103422095D01*
X150680274Y-103338235D01*
X150835690Y-103183091D01*
X150919904Y-102980281D01*
X150920095Y-102760682D01*
X150836235Y-102557726D01*
X150681091Y-102402310D01*
X150478281Y-102318096D01*
X150258682Y-102317905D01*
X150055726Y-102401765D01*
X149900310Y-102556909D01*
X149816096Y-102759719D01*
X149815905Y-102979318D01*
X143741008Y-102979318D01*
X143724235Y-102938726D01*
X143569091Y-102783310D01*
X143366281Y-102699096D01*
X143146682Y-102698905D01*
X142943726Y-102782765D01*
X142788310Y-102937909D01*
X142704096Y-103140719D01*
X142703905Y-103360318D01*
X131798303Y-103360318D01*
X131829540Y-103203281D01*
X131829540Y-102868919D01*
X131774200Y-102590708D01*
X131616607Y-102354852D01*
X131600842Y-102344318D01*
X132543905Y-102344318D01*
X132627765Y-102547274D01*
X132782909Y-102702690D01*
X132985719Y-102786904D01*
X133205318Y-102787095D01*
X133354829Y-102725318D01*
X140163905Y-102725318D01*
X140247765Y-102928274D01*
X140402909Y-103083690D01*
X140605719Y-103167904D01*
X140825318Y-103168095D01*
X141028274Y-103084235D01*
X141033484Y-103079034D01*
X141164909Y-103210690D01*
X141367719Y-103294904D01*
X141587318Y-103295095D01*
X141790274Y-103211235D01*
X141945690Y-103056091D01*
X142029904Y-102853281D01*
X142030095Y-102633682D01*
X141946235Y-102430726D01*
X141791091Y-102275310D01*
X141588281Y-102191096D01*
X141368682Y-102190905D01*
X141165726Y-102274765D01*
X141160516Y-102279966D01*
X141029091Y-102148310D01*
X140826281Y-102064096D01*
X140606682Y-102063905D01*
X140403726Y-102147765D01*
X140248310Y-102302909D01*
X140164096Y-102505719D01*
X140163905Y-102725318D01*
X133354829Y-102725318D01*
X133408274Y-102703235D01*
X133563690Y-102548091D01*
X133647904Y-102345281D01*
X133648095Y-102125682D01*
X133564235Y-101922726D01*
X133409091Y-101767310D01*
X133206281Y-101683096D01*
X132986682Y-101682905D01*
X132783726Y-101766765D01*
X132628310Y-101921909D01*
X132544096Y-102124719D01*
X132543905Y-102344318D01*
X131600842Y-102344318D01*
X131380751Y-102197259D01*
X131102540Y-102141919D01*
X130824329Y-102197259D01*
X130588473Y-102354852D01*
X130430880Y-102590708D01*
X130375540Y-102868919D01*
X127327000Y-102868919D01*
X127327000Y-102036100D01*
X127355420Y-102036100D01*
X127412663Y-102323878D01*
X127575676Y-102567844D01*
X127819642Y-102730857D01*
X128107420Y-102788100D01*
X128697660Y-102788100D01*
X128985438Y-102730857D01*
X129229404Y-102567844D01*
X129392417Y-102323878D01*
X129449660Y-102036100D01*
X129392417Y-101748322D01*
X129281497Y-101582318D01*
X138639905Y-101582318D01*
X138723765Y-101785274D01*
X138878909Y-101940690D01*
X139081719Y-102024904D01*
X139301318Y-102025095D01*
X139504274Y-101941235D01*
X139659690Y-101786091D01*
X139683388Y-101729021D01*
X139767909Y-101813690D01*
X139970719Y-101897904D01*
X140190318Y-101898095D01*
X140393274Y-101814235D01*
X140461984Y-101745646D01*
X140529909Y-101813690D01*
X140732719Y-101897904D01*
X140952318Y-101898095D01*
X141155274Y-101814235D01*
X141310690Y-101659091D01*
X141394904Y-101456281D01*
X141395095Y-101236682D01*
X141311235Y-101033726D01*
X141156091Y-100878310D01*
X140953281Y-100794096D01*
X140733682Y-100793905D01*
X140530726Y-100877765D01*
X140462016Y-100946354D01*
X140394091Y-100878310D01*
X140191281Y-100794096D01*
X139971682Y-100793905D01*
X139768726Y-100877765D01*
X139613310Y-101032909D01*
X139589612Y-101089979D01*
X139505091Y-101005310D01*
X139302281Y-100921096D01*
X139082682Y-100920905D01*
X138879726Y-101004765D01*
X138724310Y-101159909D01*
X138640096Y-101362719D01*
X138639905Y-101582318D01*
X129281497Y-101582318D01*
X129229404Y-101504356D01*
X128985438Y-101341343D01*
X128697660Y-101284100D01*
X128107420Y-101284100D01*
X127819642Y-101341343D01*
X127575676Y-101504356D01*
X127412663Y-101748322D01*
X127355420Y-102036100D01*
X127327000Y-102036100D01*
X127327000Y-99931318D01*
X141687905Y-99931318D01*
X141771765Y-100134274D01*
X141926909Y-100289690D01*
X142129719Y-100373904D01*
X142349318Y-100374095D01*
X142552274Y-100290235D01*
X142657374Y-100185318D01*
X144735905Y-100185318D01*
X144819765Y-100388274D01*
X144974909Y-100543690D01*
X145177719Y-100627904D01*
X145243962Y-100627962D01*
X145243905Y-100693318D01*
X145327765Y-100896274D01*
X145482909Y-101051690D01*
X145685719Y-101135904D01*
X145905318Y-101136095D01*
X146108274Y-101052235D01*
X146176984Y-100983646D01*
X146244909Y-101051690D01*
X146447719Y-101135904D01*
X146667318Y-101136095D01*
X146870274Y-101052235D01*
X147025690Y-100897091D01*
X147109904Y-100694281D01*
X147109904Y-100693318D01*
X151847905Y-100693318D01*
X151931765Y-100896274D01*
X152086909Y-101051690D01*
X152289719Y-101135904D01*
X152509318Y-101136095D01*
X152712274Y-101052235D01*
X152803669Y-100961000D01*
X153133762Y-100961000D01*
X153118096Y-100998729D01*
X153117984Y-101127868D01*
X152260421Y-101985431D01*
X152178697Y-102107738D01*
X152150000Y-102252010D01*
X152150000Y-105260378D01*
X152059310Y-105350909D01*
X151975096Y-105553719D01*
X151974905Y-105773318D01*
X152058765Y-105976274D01*
X152213909Y-106131690D01*
X152416719Y-106215904D01*
X152636318Y-106216095D01*
X152839274Y-106132235D01*
X152994690Y-105977091D01*
X153078904Y-105774281D01*
X153078978Y-105688318D01*
X158451905Y-105688318D01*
X158535765Y-105891274D01*
X158690909Y-106046690D01*
X158893719Y-106130904D01*
X159113318Y-106131095D01*
X159316274Y-106047235D01*
X159471690Y-105892091D01*
X159555904Y-105689281D01*
X159555904Y-105688318D01*
X160102905Y-105688318D01*
X160186765Y-105891274D01*
X160341909Y-106046690D01*
X160544719Y-106130904D01*
X160764318Y-106131095D01*
X160967274Y-106047235D01*
X161122690Y-105892091D01*
X161206904Y-105689281D01*
X161207095Y-105469682D01*
X161123235Y-105266726D01*
X160968091Y-105111310D01*
X160765281Y-105027096D01*
X160545682Y-105026905D01*
X160342726Y-105110765D01*
X160187310Y-105265909D01*
X160103096Y-105468719D01*
X160102905Y-105688318D01*
X159555904Y-105688318D01*
X159556095Y-105469682D01*
X159472235Y-105266726D01*
X159317091Y-105111310D01*
X159114281Y-105027096D01*
X158894682Y-105026905D01*
X158691726Y-105110765D01*
X158536310Y-105265909D01*
X158452096Y-105468719D01*
X158451905Y-105688318D01*
X153078978Y-105688318D01*
X153079095Y-105554682D01*
X152995235Y-105351726D01*
X152904000Y-105260331D01*
X152904000Y-104281681D01*
X164476849Y-104281681D01*
X164610082Y-104604131D01*
X164856571Y-104851051D01*
X165178789Y-104984847D01*
X165527681Y-104985151D01*
X165850131Y-104851918D01*
X166097051Y-104605429D01*
X166230847Y-104283211D01*
X166231151Y-103934319D01*
X166097918Y-103611869D01*
X165851429Y-103364949D01*
X165529211Y-103231153D01*
X165180319Y-103230849D01*
X164857869Y-103364082D01*
X164610949Y-103610571D01*
X164477153Y-103932789D01*
X164476849Y-104281681D01*
X152904000Y-104281681D01*
X152904000Y-102408168D01*
X153651174Y-101660994D01*
X153779318Y-101661105D01*
X153982274Y-101577245D01*
X154137690Y-101422101D01*
X154221904Y-101219291D01*
X154222095Y-100999692D01*
X154206108Y-100961000D01*
X157562840Y-100961000D01*
X160246419Y-103644579D01*
X160368726Y-103726303D01*
X160503490Y-103753109D01*
X160595909Y-103845690D01*
X160798719Y-103929904D01*
X161018318Y-103930095D01*
X161221274Y-103846235D01*
X161376690Y-103691091D01*
X161460904Y-103488281D01*
X161461095Y-103268682D01*
X161377235Y-103065726D01*
X161222091Y-102910310D01*
X161019281Y-102826096D01*
X160799682Y-102825905D01*
X160596726Y-102909765D01*
X160587315Y-102919159D01*
X160143086Y-102474930D01*
X160205274Y-102449235D01*
X160360690Y-102294091D01*
X160365843Y-102281681D01*
X164476849Y-102281681D01*
X164610082Y-102604131D01*
X164856571Y-102851051D01*
X165178789Y-102984847D01*
X165527681Y-102985151D01*
X165850131Y-102851918D01*
X166097051Y-102605429D01*
X166230847Y-102283211D01*
X166231151Y-101934319D01*
X166097918Y-101611869D01*
X165851429Y-101364949D01*
X165529211Y-101231153D01*
X165180319Y-101230849D01*
X164857869Y-101364082D01*
X164610949Y-101610571D01*
X164477153Y-101932789D01*
X164476849Y-102281681D01*
X160365843Y-102281681D01*
X160444904Y-102091281D01*
X160445095Y-101871682D01*
X160361235Y-101668726D01*
X160206091Y-101513310D01*
X160003281Y-101429096D01*
X159783682Y-101428905D01*
X159580726Y-101512765D01*
X159425310Y-101667909D01*
X159399125Y-101730969D01*
X158681096Y-101012940D01*
X158749328Y-101012999D01*
X158952284Y-100929139D01*
X159107700Y-100773995D01*
X159191914Y-100571185D01*
X159192105Y-100351586D01*
X159163221Y-100281681D01*
X164476849Y-100281681D01*
X164610082Y-100604131D01*
X164856571Y-100851051D01*
X165178789Y-100984847D01*
X165527681Y-100985151D01*
X165850131Y-100851918D01*
X166097051Y-100605429D01*
X166230847Y-100283211D01*
X166231151Y-99934319D01*
X166097918Y-99611869D01*
X165851429Y-99364949D01*
X165529211Y-99231153D01*
X165180319Y-99230849D01*
X164857869Y-99364082D01*
X164610949Y-99610571D01*
X164477153Y-99932789D01*
X164476849Y-100281681D01*
X159163221Y-100281681D01*
X159108245Y-100148630D01*
X158953101Y-99993214D01*
X158750291Y-99909000D01*
X158530692Y-99908809D01*
X158327736Y-99992669D01*
X158172320Y-100147813D01*
X158088106Y-100350623D01*
X158088046Y-100419890D01*
X157985577Y-100317421D01*
X157863270Y-100235697D01*
X157718998Y-100207000D01*
X156856228Y-100207000D01*
X156871894Y-100169271D01*
X156872085Y-99949672D01*
X156788225Y-99746716D01*
X156633081Y-99591300D01*
X156430271Y-99507086D01*
X156210672Y-99506895D01*
X156007716Y-99590755D01*
X155852300Y-99745899D01*
X155768086Y-99948709D01*
X155767895Y-100168308D01*
X155783882Y-100207000D01*
X154541566Y-100207000D01*
X154602904Y-100059281D01*
X154603095Y-99839682D01*
X154519235Y-99636726D01*
X154364091Y-99481310D01*
X154161281Y-99397096D01*
X153941682Y-99396905D01*
X153738726Y-99480765D01*
X153583310Y-99635909D01*
X153499096Y-99838719D01*
X153498905Y-100058318D01*
X153560339Y-100207000D01*
X152803622Y-100207000D01*
X152713091Y-100116310D01*
X152510281Y-100032096D01*
X152290682Y-100031905D01*
X152087726Y-100115765D01*
X151932310Y-100270909D01*
X151848096Y-100473719D01*
X151847905Y-100693318D01*
X147109904Y-100693318D01*
X147110095Y-100474682D01*
X147026235Y-100271726D01*
X146871091Y-100116310D01*
X146668281Y-100032096D01*
X146448682Y-100031905D01*
X146245726Y-100115765D01*
X146177016Y-100184354D01*
X146109091Y-100116310D01*
X145906281Y-100032096D01*
X145840038Y-100032038D01*
X145840095Y-99966682D01*
X145756235Y-99763726D01*
X145601091Y-99608310D01*
X145398281Y-99524096D01*
X145178682Y-99523905D01*
X144975726Y-99607765D01*
X144820310Y-99762909D01*
X144736096Y-99965719D01*
X144735905Y-100185318D01*
X142657374Y-100185318D01*
X142707690Y-100135091D01*
X142791904Y-99932281D01*
X142792095Y-99712682D01*
X142708235Y-99509726D01*
X142553091Y-99354310D01*
X142350281Y-99270096D01*
X142130682Y-99269905D01*
X141927726Y-99353765D01*
X141772310Y-99508909D01*
X141688096Y-99711719D01*
X141687905Y-99931318D01*
X127327000Y-99931318D01*
X127327000Y-98941818D01*
X155767895Y-98941818D01*
X155851755Y-99144774D01*
X156006899Y-99300190D01*
X156209709Y-99384404D01*
X156429308Y-99384595D01*
X156632264Y-99300735D01*
X156787680Y-99145591D01*
X156871894Y-98942781D01*
X156871894Y-98941818D01*
X158087915Y-98941818D01*
X158171775Y-99144774D01*
X158326919Y-99300190D01*
X158529729Y-99384404D01*
X158749328Y-99384595D01*
X158952284Y-99300735D01*
X159107700Y-99145591D01*
X159191914Y-98942781D01*
X159192105Y-98723182D01*
X159108245Y-98520226D01*
X158953101Y-98364810D01*
X158752904Y-98281681D01*
X164476849Y-98281681D01*
X164610082Y-98604131D01*
X164856571Y-98851051D01*
X165178789Y-98984847D01*
X165527681Y-98985151D01*
X165850131Y-98851918D01*
X166097051Y-98605429D01*
X166230847Y-98283211D01*
X166231151Y-97934319D01*
X166097918Y-97611869D01*
X165851429Y-97364949D01*
X165529211Y-97231153D01*
X165180319Y-97230849D01*
X164857869Y-97364082D01*
X164610949Y-97610571D01*
X164477153Y-97932789D01*
X164476849Y-98281681D01*
X158752904Y-98281681D01*
X158750291Y-98280596D01*
X158530692Y-98280405D01*
X158327736Y-98364265D01*
X158172320Y-98519409D01*
X158088106Y-98722219D01*
X158087915Y-98941818D01*
X156871894Y-98941818D01*
X156872085Y-98723182D01*
X156788225Y-98520226D01*
X156633081Y-98364810D01*
X156430271Y-98280596D01*
X156210672Y-98280405D01*
X156007716Y-98364265D01*
X155852300Y-98519409D01*
X155768086Y-98722219D01*
X155767895Y-98941818D01*
X127327000Y-98941818D01*
X127327000Y-93599000D01*
X127505064Y-93599000D01*
X127505064Y-95631000D01*
X127522636Y-95724385D01*
X127577826Y-95810154D01*
X127662038Y-95867693D01*
X127762000Y-95887936D01*
X128648405Y-95887936D01*
X128292757Y-95958679D01*
X127881389Y-96233547D01*
X127606521Y-96644915D01*
X127510000Y-97130158D01*
X127510000Y-97179842D01*
X127606521Y-97665085D01*
X127881389Y-98076453D01*
X128292757Y-98351321D01*
X128778000Y-98447842D01*
X129263243Y-98351321D01*
X129347042Y-98295328D01*
X143338905Y-98295328D01*
X143422765Y-98498284D01*
X143577909Y-98653700D01*
X143780719Y-98737914D01*
X144000318Y-98738105D01*
X144203274Y-98654245D01*
X144358690Y-98499101D01*
X144396801Y-98407318D01*
X152332162Y-98407318D01*
X152416022Y-98610274D01*
X152571166Y-98765690D01*
X152773976Y-98849904D01*
X152993575Y-98850095D01*
X153196531Y-98766235D01*
X153351947Y-98611091D01*
X153436161Y-98408281D01*
X153436352Y-98188682D01*
X153397529Y-98094723D01*
X153518585Y-98094828D01*
X153721541Y-98010968D01*
X153876957Y-97855824D01*
X153961171Y-97653014D01*
X153961362Y-97433415D01*
X153877502Y-97230459D01*
X153722358Y-97075043D01*
X153519548Y-96990829D01*
X153299949Y-96990638D01*
X153096993Y-97074498D01*
X152941577Y-97229642D01*
X152857363Y-97432452D01*
X152857172Y-97652051D01*
X152895995Y-97746010D01*
X152774939Y-97745905D01*
X152571983Y-97829765D01*
X152416567Y-97984909D01*
X152332353Y-98187719D01*
X152332162Y-98407318D01*
X144396801Y-98407318D01*
X144442904Y-98296291D01*
X144443095Y-98076692D01*
X144359235Y-97873736D01*
X144204091Y-97718320D01*
X144001281Y-97634106D01*
X143781682Y-97633915D01*
X143578726Y-97717775D01*
X143423310Y-97872919D01*
X143339096Y-98075729D01*
X143338905Y-98295328D01*
X129347042Y-98295328D01*
X129674611Y-98076453D01*
X129949479Y-97665085D01*
X129953410Y-97645318D01*
X137877905Y-97645318D01*
X137961765Y-97848274D01*
X138116909Y-98003690D01*
X138319719Y-98087904D01*
X138539318Y-98088095D01*
X138742274Y-98004235D01*
X138810984Y-97935646D01*
X138878909Y-98003690D01*
X139081719Y-98087904D01*
X139301318Y-98088095D01*
X139504274Y-98004235D01*
X139659690Y-97849091D01*
X139743904Y-97646281D01*
X139744095Y-97426682D01*
X139660235Y-97223726D01*
X139505091Y-97068310D01*
X139302281Y-96984096D01*
X139082682Y-96983905D01*
X138879726Y-97067765D01*
X138811016Y-97136354D01*
X138743091Y-97068310D01*
X138540281Y-96984096D01*
X138320682Y-96983905D01*
X138117726Y-97067765D01*
X137962310Y-97222909D01*
X137878096Y-97425719D01*
X137877905Y-97645318D01*
X129953410Y-97645318D01*
X130046000Y-97179842D01*
X130046000Y-97130158D01*
X129949479Y-96644915D01*
X129939058Y-96629318D01*
X135210905Y-96629318D01*
X135294765Y-96832274D01*
X135449909Y-96987690D01*
X135652719Y-97071904D01*
X135872318Y-97072095D01*
X136075274Y-96988235D01*
X136230690Y-96833091D01*
X136314904Y-96630281D01*
X136315095Y-96410682D01*
X136231235Y-96207726D01*
X136076091Y-96052310D01*
X136011085Y-96025317D01*
X153244905Y-96025317D01*
X153328765Y-96228273D01*
X153483909Y-96383689D01*
X153686719Y-96467903D01*
X153906318Y-96468094D01*
X153979915Y-96437684D01*
X153989224Y-96460214D01*
X154144368Y-96615630D01*
X154347178Y-96699844D01*
X154566777Y-96700035D01*
X154769733Y-96616175D01*
X154873490Y-96512599D01*
X155352497Y-96512599D01*
X155436357Y-96715555D01*
X155591501Y-96870971D01*
X155794311Y-96955185D01*
X156013910Y-96955376D01*
X156216866Y-96871516D01*
X156332306Y-96756278D01*
X156480719Y-96817904D01*
X156700318Y-96818095D01*
X156849829Y-96756318D01*
X159340905Y-96756318D01*
X159424765Y-96959274D01*
X159579909Y-97114690D01*
X159782719Y-97198904D01*
X160002318Y-97199095D01*
X160205274Y-97115235D01*
X160360690Y-96960091D01*
X160444904Y-96757281D01*
X160445095Y-96537682D01*
X160361235Y-96334726D01*
X160308283Y-96281681D01*
X164476849Y-96281681D01*
X164610082Y-96604131D01*
X164856571Y-96851051D01*
X165178789Y-96984847D01*
X165527681Y-96985151D01*
X165850131Y-96851918D01*
X166097051Y-96605429D01*
X166139810Y-96502454D01*
X166245110Y-96756675D01*
X166473122Y-96809273D01*
X167174395Y-96108000D01*
X166473122Y-95406727D01*
X166245110Y-95459325D01*
X166149328Y-95736292D01*
X166097918Y-95611869D01*
X165851429Y-95364949D01*
X165529211Y-95231153D01*
X165180319Y-95230849D01*
X164857869Y-95364082D01*
X164610949Y-95610571D01*
X164477153Y-95932789D01*
X164476849Y-96281681D01*
X160308283Y-96281681D01*
X160206091Y-96179310D01*
X160003281Y-96095096D01*
X159783682Y-96094905D01*
X159580726Y-96178765D01*
X159425310Y-96333909D01*
X159341096Y-96536719D01*
X159340905Y-96756318D01*
X156849829Y-96756318D01*
X156903274Y-96734235D01*
X157058690Y-96579091D01*
X157142904Y-96376281D01*
X157143095Y-96156682D01*
X157059235Y-95953726D01*
X156904091Y-95798310D01*
X156701281Y-95714096D01*
X156481682Y-95713905D01*
X156278726Y-95797765D01*
X156163286Y-95913003D01*
X156014873Y-95851377D01*
X155795274Y-95851186D01*
X155592318Y-95935046D01*
X155436902Y-96090190D01*
X155352688Y-96293000D01*
X155352497Y-96512599D01*
X154873490Y-96512599D01*
X154925149Y-96461031D01*
X155009363Y-96258221D01*
X155009554Y-96038622D01*
X154925694Y-95835666D01*
X154770550Y-95680250D01*
X154567740Y-95596036D01*
X154348141Y-95595845D01*
X154274544Y-95626255D01*
X154265235Y-95603725D01*
X154110091Y-95448309D01*
X153907281Y-95364095D01*
X153687682Y-95363904D01*
X153484726Y-95447764D01*
X153329310Y-95602908D01*
X153245096Y-95805718D01*
X153244905Y-96025317D01*
X136011085Y-96025317D01*
X135873281Y-95968096D01*
X135653682Y-95967905D01*
X135450726Y-96051765D01*
X135295310Y-96206909D01*
X135211096Y-96409719D01*
X135210905Y-96629318D01*
X129939058Y-96629318D01*
X129674611Y-96233547D01*
X129263243Y-95958679D01*
X128907595Y-95887936D01*
X129794000Y-95887936D01*
X129887385Y-95870364D01*
X129973154Y-95815174D01*
X130030693Y-95730962D01*
X130050936Y-95631000D01*
X130050936Y-95486318D01*
X132162905Y-95486318D01*
X132246765Y-95689274D01*
X132401909Y-95844690D01*
X132604719Y-95928904D01*
X132824318Y-95929095D01*
X133027274Y-95845235D01*
X133182690Y-95690091D01*
X133266904Y-95487281D01*
X133267095Y-95267682D01*
X133252483Y-95232318D01*
X159594905Y-95232318D01*
X159678765Y-95435274D01*
X159833909Y-95590690D01*
X160036719Y-95674904D01*
X160256318Y-95675095D01*
X160459274Y-95591235D01*
X160614690Y-95436091D01*
X160698904Y-95233281D01*
X160699095Y-95013682D01*
X160615235Y-94810726D01*
X160460091Y-94655310D01*
X160257281Y-94571096D01*
X160037682Y-94570905D01*
X159834726Y-94654765D01*
X159679310Y-94809909D01*
X159595096Y-95012719D01*
X159594905Y-95232318D01*
X133252483Y-95232318D01*
X133183235Y-95064726D01*
X133028091Y-94909310D01*
X132825281Y-94825096D01*
X132605682Y-94824905D01*
X132402726Y-94908765D01*
X132247310Y-95063909D01*
X132163096Y-95266719D01*
X132162905Y-95486318D01*
X130050936Y-95486318D01*
X130050936Y-94587318D01*
X144608905Y-94587318D01*
X144692765Y-94790274D01*
X144847909Y-94945690D01*
X145050719Y-95029904D01*
X145270318Y-95030095D01*
X145473274Y-94946235D01*
X145628690Y-94791091D01*
X145712904Y-94588281D01*
X145713095Y-94368682D01*
X145629235Y-94165726D01*
X145474091Y-94010310D01*
X145271281Y-93926096D01*
X145051682Y-93925905D01*
X144848726Y-94009765D01*
X144693310Y-94164909D01*
X144609096Y-94367719D01*
X144608905Y-94587318D01*
X130050936Y-94587318D01*
X130050936Y-93708318D01*
X153752905Y-93708318D01*
X153836765Y-93911274D01*
X153991909Y-94066690D01*
X154194719Y-94150904D01*
X154414318Y-94151095D01*
X154563829Y-94089318D01*
X157943905Y-94089318D01*
X158027765Y-94292274D01*
X158182909Y-94447690D01*
X158385719Y-94531904D01*
X158605318Y-94532095D01*
X158808274Y-94448235D01*
X158963690Y-94293091D01*
X159047904Y-94090281D01*
X159048095Y-93870682D01*
X158964235Y-93667726D01*
X158809091Y-93512310D01*
X158606281Y-93428096D01*
X158386682Y-93427905D01*
X158183726Y-93511765D01*
X158028310Y-93666909D01*
X157944096Y-93869719D01*
X157943905Y-94089318D01*
X154563829Y-94089318D01*
X154617274Y-94067235D01*
X154772690Y-93912091D01*
X154856904Y-93709281D01*
X154857095Y-93489682D01*
X154773235Y-93286726D01*
X154618091Y-93131310D01*
X154415281Y-93047096D01*
X154195682Y-93046905D01*
X153992726Y-93130765D01*
X153837310Y-93285909D01*
X153753096Y-93488719D01*
X153752905Y-93708318D01*
X130050936Y-93708318D01*
X130050936Y-93599000D01*
X130033364Y-93505615D01*
X129978174Y-93419846D01*
X129893962Y-93362307D01*
X129794000Y-93342064D01*
X127762000Y-93342064D01*
X127668615Y-93359636D01*
X127582846Y-93414826D01*
X127525307Y-93499038D01*
X127505064Y-93599000D01*
X127327000Y-93599000D01*
X127327000Y-92946318D01*
X156419905Y-92946318D01*
X156503765Y-93149274D01*
X156658909Y-93304690D01*
X156861719Y-93388904D01*
X157081318Y-93389095D01*
X157230829Y-93327318D01*
X160864905Y-93327318D01*
X160948765Y-93530274D01*
X161103909Y-93685690D01*
X161306719Y-93769904D01*
X161526318Y-93770095D01*
X161729274Y-93686235D01*
X161884690Y-93531091D01*
X161945631Y-93384329D01*
X161992909Y-93431690D01*
X162195719Y-93515904D01*
X162415318Y-93516095D01*
X162618274Y-93432235D01*
X162773690Y-93277091D01*
X162857904Y-93074281D01*
X162858095Y-92854682D01*
X162774235Y-92651726D01*
X162619091Y-92496310D01*
X162416281Y-92412096D01*
X162196682Y-92411905D01*
X161993726Y-92495765D01*
X161838310Y-92650909D01*
X161777369Y-92797671D01*
X161730091Y-92750310D01*
X161527281Y-92666096D01*
X161307682Y-92665905D01*
X161104726Y-92749765D01*
X160949310Y-92904909D01*
X160865096Y-93107719D01*
X160864905Y-93327318D01*
X157230829Y-93327318D01*
X157284274Y-93305235D01*
X157439690Y-93150091D01*
X157523904Y-92947281D01*
X157524095Y-92727682D01*
X157440235Y-92524726D01*
X157285091Y-92369310D01*
X157082281Y-92285096D01*
X156862682Y-92284905D01*
X156659726Y-92368765D01*
X156504310Y-92523909D01*
X156420096Y-92726719D01*
X156419905Y-92946318D01*
X127327000Y-92946318D01*
X127327000Y-92184318D01*
X149815905Y-92184318D01*
X149899765Y-92387274D01*
X150054909Y-92542690D01*
X150257719Y-92626904D01*
X150477318Y-92627095D01*
X150680274Y-92543235D01*
X150835690Y-92388091D01*
X150919904Y-92185281D01*
X150920095Y-91965682D01*
X150836235Y-91762726D01*
X150681091Y-91607310D01*
X150478281Y-91523096D01*
X150258682Y-91522905D01*
X150055726Y-91606765D01*
X149900310Y-91761909D01*
X149816096Y-91964719D01*
X149815905Y-92184318D01*
X127327000Y-92184318D01*
X127327000Y-89263318D01*
X150196905Y-89263318D01*
X150280765Y-89466274D01*
X150435909Y-89621690D01*
X150638719Y-89705904D01*
X150858318Y-89706095D01*
X151061274Y-89622235D01*
X151216690Y-89467091D01*
X151300904Y-89264281D01*
X151301015Y-89136318D01*
X154514905Y-89136318D01*
X154598765Y-89339274D01*
X154753909Y-89494690D01*
X154940363Y-89572112D01*
X154896096Y-89678719D01*
X154895905Y-89898318D01*
X154979765Y-90101274D01*
X155134909Y-90256690D01*
X155337719Y-90340904D01*
X155557318Y-90341095D01*
X155706829Y-90279318D01*
X156927905Y-90279318D01*
X157011765Y-90482274D01*
X157166909Y-90637690D01*
X157369719Y-90721904D01*
X157589318Y-90722095D01*
X157792274Y-90638235D01*
X157947690Y-90483091D01*
X158014863Y-90321318D01*
X158832905Y-90321318D01*
X158916765Y-90524274D01*
X159071909Y-90679690D01*
X159274719Y-90763904D01*
X159494318Y-90764095D01*
X159697274Y-90680235D01*
X159852690Y-90525091D01*
X159936904Y-90322281D01*
X159937095Y-90102682D01*
X159853235Y-89899726D01*
X159698091Y-89744310D01*
X159495281Y-89660096D01*
X159275682Y-89659905D01*
X159072726Y-89743765D01*
X158917310Y-89898909D01*
X158833096Y-90101719D01*
X158832905Y-90321318D01*
X158014863Y-90321318D01*
X158031904Y-90280281D01*
X158032095Y-90060682D01*
X157948235Y-89857726D01*
X157793091Y-89702310D01*
X157590281Y-89618096D01*
X157370682Y-89617905D01*
X157167726Y-89701765D01*
X157012310Y-89856909D01*
X156928096Y-90059719D01*
X156927905Y-90279318D01*
X155706829Y-90279318D01*
X155760274Y-90257235D01*
X155915690Y-90102091D01*
X155999904Y-89899281D01*
X156000095Y-89679682D01*
X155916235Y-89476726D01*
X155761091Y-89321310D01*
X155574637Y-89243888D01*
X155618904Y-89137281D01*
X155619095Y-88917682D01*
X155535235Y-88714726D01*
X155380091Y-88559310D01*
X155177281Y-88475096D01*
X154957682Y-88474905D01*
X154754726Y-88558765D01*
X154599310Y-88713909D01*
X154515096Y-88916719D01*
X154514905Y-89136318D01*
X151301015Y-89136318D01*
X151301095Y-89044682D01*
X151217235Y-88841726D01*
X151062091Y-88686310D01*
X150859281Y-88602096D01*
X150639682Y-88601905D01*
X150436726Y-88685765D01*
X150281310Y-88840909D01*
X150197096Y-89043719D01*
X150196905Y-89263318D01*
X127327000Y-89263318D01*
X127327000Y-88338000D01*
X162615832Y-88338000D01*
X162579308Y-88374524D01*
X162579308Y-88374524D01*
G37*
X162579308Y-88374524D02*
X162579307Y-88374526D01*
X162579306Y-88374527D01*
X162551776Y-88415729D01*
X162551775Y-88415730D01*
X162535423Y-88455208D01*
X162502950Y-88533605D01*
X162502950Y-88533607D01*
X162493283Y-88582208D01*
X162493283Y-88614413D01*
X162487000Y-88646000D01*
X162487000Y-91694000D01*
X162493283Y-91725587D01*
X162493283Y-91757792D01*
X162502950Y-91806393D01*
X162502950Y-91806395D01*
X162531367Y-91875000D01*
X162551775Y-91924270D01*
X162551776Y-91924271D01*
X162579306Y-91965473D01*
X162579307Y-91965474D01*
X162579308Y-91965476D01*
X162669524Y-92055692D01*
X162669526Y-92055693D01*
X162669527Y-92055694D01*
X162710729Y-92083224D01*
X162710730Y-92083225D01*
X162759556Y-92103449D01*
X162828605Y-92132050D01*
X162828607Y-92132050D01*
X162877200Y-92141715D01*
X162877204Y-92141717D01*
X163004796Y-92141717D01*
X163004800Y-92141715D01*
X163053393Y-92132050D01*
X163053395Y-92132050D01*
X163122444Y-92103449D01*
X163171270Y-92083225D01*
X163171271Y-92083224D01*
X163212473Y-92055694D01*
X163212474Y-92055693D01*
X163212476Y-92055692D01*
X163302692Y-91965476D01*
X163302693Y-91965474D01*
X163302694Y-91965473D01*
X163330224Y-91924271D01*
X163330225Y-91924270D01*
X163350633Y-91875000D01*
X163379050Y-91806395D01*
X163379050Y-91806393D01*
X163388717Y-91757792D01*
X163388717Y-91725587D01*
X163395000Y-91694000D01*
X163395000Y-89644318D01*
X163531905Y-89644318D01*
X163615765Y-89847274D01*
X163770909Y-90002690D01*
X163973719Y-90086904D01*
X164193318Y-90087095D01*
X164396274Y-90003235D01*
X164551690Y-89848091D01*
X164635904Y-89645281D01*
X164636095Y-89425682D01*
X164552235Y-89222726D01*
X164397091Y-89067310D01*
X164194281Y-88983096D01*
X163974682Y-88982905D01*
X163771726Y-89066765D01*
X163616310Y-89221909D01*
X163532096Y-89424719D01*
X163531905Y-89644318D01*
X163395000Y-89644318D01*
X163395000Y-88646000D01*
X163388717Y-88614413D01*
X163388717Y-88582208D01*
X163379050Y-88533607D01*
X163379050Y-88533605D01*
X163346577Y-88455208D01*
X163330225Y-88415730D01*
X163330224Y-88415729D01*
X163302694Y-88374527D01*
X163302693Y-88374526D01*
X163302692Y-88374524D01*
X163266168Y-88338000D01*
X168202000Y-88338000D01*
X168202000Y-88808433D01*
X168080091Y-88686310D01*
X167877281Y-88602096D01*
X167657682Y-88601905D01*
X167454726Y-88685765D01*
X167299310Y-88840909D01*
X167215096Y-89043719D01*
X167214905Y-89263318D01*
X167298765Y-89466274D01*
X167453909Y-89621690D01*
X167656719Y-89705904D01*
X167876318Y-89706095D01*
X168079274Y-89622235D01*
X168202000Y-89499724D01*
X168202000Y-92003832D01*
X168165476Y-91967308D01*
X168165474Y-91967307D01*
X168165473Y-91967306D01*
X168124271Y-91939776D01*
X168124270Y-91939775D01*
X168072858Y-91918480D01*
X168006395Y-91890950D01*
X168006393Y-91890950D01*
X167957792Y-91881283D01*
X167925587Y-91881283D01*
X167894000Y-91875000D01*
X165749539Y-91875000D01*
X165778904Y-91804281D01*
X165779095Y-91584682D01*
X165695235Y-91381726D01*
X165540091Y-91226310D01*
X165337281Y-91142096D01*
X165117682Y-91141905D01*
X164914726Y-91225765D01*
X164759310Y-91380909D01*
X164675096Y-91583719D01*
X164674905Y-91803318D01*
X164704524Y-91875000D01*
X163576000Y-91875000D01*
X163544413Y-91881283D01*
X163512208Y-91881283D01*
X163463607Y-91890950D01*
X163463605Y-91890950D01*
X163397142Y-91918480D01*
X163345730Y-91939775D01*
X163345729Y-91939776D01*
X163304527Y-91967306D01*
X163304526Y-91967307D01*
X163304524Y-91967308D01*
X163214308Y-92057524D01*
X163214307Y-92057526D01*
X163214306Y-92057527D01*
X163186776Y-92098729D01*
X163186775Y-92098730D01*
X163175639Y-92125616D01*
X163137950Y-92216605D01*
X163137950Y-92216607D01*
X163128285Y-92265200D01*
X163128283Y-92265204D01*
X163128283Y-92392796D01*
X163128285Y-92392800D01*
X163137950Y-92441393D01*
X163137950Y-92441395D01*
X163155414Y-92483556D01*
X163186775Y-92559270D01*
X163186776Y-92559271D01*
X163214306Y-92600473D01*
X163214307Y-92600474D01*
X163214308Y-92600476D01*
X163304524Y-92690692D01*
X163304526Y-92690693D01*
X163304527Y-92690694D01*
X163345729Y-92718224D01*
X163345730Y-92718225D01*
X163369062Y-92727889D01*
X163463605Y-92767050D01*
X163463607Y-92767050D01*
X163512208Y-92776717D01*
X163544413Y-92776717D01*
X163576000Y-92783000D01*
X167894000Y-92783000D01*
X167925587Y-92776717D01*
X167957792Y-92776717D01*
X168006393Y-92767050D01*
X168006395Y-92767050D01*
X168100938Y-92727889D01*
X168124270Y-92718225D01*
X168124271Y-92718224D01*
X168165473Y-92690694D01*
X168165474Y-92690693D01*
X168165476Y-92690692D01*
X168202000Y-92654168D01*
X168202000Y-95142700D01*
X168170846Y-95111546D01*
X168055272Y-95227120D01*
X168002675Y-94999110D01*
X167528944Y-94835283D01*
X167028580Y-94865215D01*
X166705325Y-94999110D01*
X166652727Y-95227122D01*
X167354000Y-95928395D01*
X167368143Y-95914253D01*
X167547748Y-96093858D01*
X167533605Y-96108000D01*
X167547748Y-96122143D01*
X167368143Y-96301748D01*
X167354000Y-96287605D01*
X166652727Y-96988878D01*
X166705325Y-97216890D01*
X166982292Y-97312672D01*
X166857869Y-97364082D01*
X166610949Y-97610571D01*
X166477153Y-97932789D01*
X166476849Y-98281681D01*
X166610082Y-98604131D01*
X166856571Y-98851051D01*
X167178789Y-98984847D01*
X167527681Y-98985151D01*
X167850131Y-98851918D01*
X168097051Y-98605429D01*
X168202000Y-98352683D01*
X168202000Y-99863768D01*
X168097918Y-99611869D01*
X167851429Y-99364949D01*
X167529211Y-99231153D01*
X167180319Y-99230849D01*
X166857869Y-99364082D01*
X166610949Y-99610571D01*
X166477153Y-99932789D01*
X166476849Y-100281681D01*
X166610082Y-100604131D01*
X166856571Y-100851051D01*
X167178789Y-100984847D01*
X167527681Y-100985151D01*
X167850131Y-100851918D01*
X168097051Y-100605429D01*
X168202000Y-100352683D01*
X168202000Y-101863768D01*
X168097918Y-101611869D01*
X167851429Y-101364949D01*
X167529211Y-101231153D01*
X167180319Y-101230849D01*
X166857869Y-101364082D01*
X166610949Y-101610571D01*
X166477153Y-101932789D01*
X166476849Y-102281681D01*
X166610082Y-102604131D01*
X166856571Y-102851051D01*
X167178789Y-102984847D01*
X167527681Y-102985151D01*
X167850131Y-102851918D01*
X168097051Y-102605429D01*
X168202000Y-102352683D01*
X168202000Y-103863768D01*
X168097918Y-103611869D01*
X167851429Y-103364949D01*
X167529211Y-103231153D01*
X167180319Y-103230849D01*
X166857869Y-103364082D01*
X166610949Y-103610571D01*
X166477153Y-103932789D01*
X166476849Y-104281681D01*
X166610082Y-104604131D01*
X166856571Y-104851051D01*
X167178789Y-104984847D01*
X167527681Y-104985151D01*
X167850131Y-104851918D01*
X168097051Y-104605429D01*
X168202000Y-104352683D01*
X168202000Y-105863768D01*
X168097918Y-105611869D01*
X167851429Y-105364949D01*
X167529211Y-105231153D01*
X167180319Y-105230849D01*
X166857869Y-105364082D01*
X166610949Y-105610571D01*
X166477153Y-105932789D01*
X166476849Y-106281681D01*
X166610082Y-106604131D01*
X166856571Y-106851051D01*
X167178789Y-106984847D01*
X167527681Y-106985151D01*
X167850131Y-106851918D01*
X168097051Y-106605429D01*
X168202000Y-106352683D01*
X168202000Y-107863768D01*
X168097918Y-107611869D01*
X167851429Y-107364949D01*
X167529211Y-107231153D01*
X167180319Y-107230849D01*
X166857869Y-107364082D01*
X166610949Y-107610571D01*
X166477153Y-107932789D01*
X166476849Y-108281681D01*
X166610082Y-108604131D01*
X166856571Y-108851051D01*
X167178789Y-108984847D01*
X167527681Y-108985151D01*
X167850131Y-108851918D01*
X168097051Y-108605429D01*
X168202000Y-108352683D01*
X168202000Y-109863768D01*
X168097918Y-109611869D01*
X167851429Y-109364949D01*
X167529211Y-109231153D01*
X167180319Y-109230849D01*
X166857869Y-109364082D01*
X166610949Y-109610571D01*
X166477153Y-109932789D01*
X166476849Y-110281681D01*
X166610082Y-110604131D01*
X166856571Y-110851051D01*
X167034661Y-110925000D01*
X165673258Y-110925000D01*
X165850131Y-110851918D01*
X166097051Y-110605429D01*
X166230847Y-110283211D01*
X166231151Y-109934319D01*
X166097918Y-109611869D01*
X165851429Y-109364949D01*
X165529211Y-109231153D01*
X165180319Y-109230849D01*
X164857869Y-109364082D01*
X164610949Y-109610571D01*
X164477153Y-109932789D01*
X164476849Y-110281681D01*
X164610082Y-110604131D01*
X164856571Y-110851051D01*
X165034661Y-110925000D01*
X139206539Y-110925000D01*
X139235904Y-110854281D01*
X139236095Y-110634682D01*
X139152235Y-110431726D01*
X138997091Y-110276310D01*
X138794281Y-110192096D01*
X138574682Y-110191905D01*
X138371726Y-110275765D01*
X138216310Y-110430909D01*
X138132096Y-110633719D01*
X138131905Y-110853318D01*
X138161524Y-110925000D01*
X127327000Y-110925000D01*
X127327000Y-109964318D01*
X132543905Y-109964318D01*
X132627765Y-110167274D01*
X132782909Y-110322690D01*
X132985719Y-110406904D01*
X133205318Y-110407095D01*
X133408274Y-110323235D01*
X133563690Y-110168091D01*
X133647904Y-109965281D01*
X133648095Y-109745682D01*
X133564235Y-109542726D01*
X133409091Y-109387310D01*
X133206281Y-109303096D01*
X132986682Y-109302905D01*
X132783726Y-109386765D01*
X132628310Y-109541909D01*
X132544096Y-109744719D01*
X132543905Y-109964318D01*
X127327000Y-109964318D01*
X127327000Y-109036100D01*
X127355420Y-109036100D01*
X127412663Y-109323878D01*
X127575676Y-109567844D01*
X127819642Y-109730857D01*
X128107420Y-109788100D01*
X128697660Y-109788100D01*
X128985438Y-109730857D01*
X129229404Y-109567844D01*
X129392417Y-109323878D01*
X129449660Y-109036100D01*
X129392417Y-108748322D01*
X129229404Y-108504356D01*
X128985438Y-108341343D01*
X128697660Y-108284100D01*
X128107420Y-108284100D01*
X127819642Y-108341343D01*
X127575676Y-108504356D01*
X127412663Y-108748322D01*
X127355420Y-109036100D01*
X127327000Y-109036100D01*
X127327000Y-107868919D01*
X130375540Y-107868919D01*
X130375540Y-108203281D01*
X130430880Y-108481492D01*
X130588473Y-108717348D01*
X130824329Y-108874941D01*
X131102540Y-108930281D01*
X131380751Y-108874941D01*
X131616607Y-108717348D01*
X131631995Y-108694318D01*
X134194905Y-108694318D01*
X134278765Y-108897274D01*
X134347354Y-108965984D01*
X134279310Y-109033909D01*
X134195096Y-109236719D01*
X134194905Y-109456318D01*
X134278765Y-109659274D01*
X134433909Y-109814690D01*
X134636719Y-109898904D01*
X134856318Y-109899095D01*
X134886195Y-109886750D01*
X155685000Y-109886750D01*
X155685000Y-110252309D01*
X155781673Y-110485698D01*
X155960301Y-110664327D01*
X156193690Y-110761000D01*
X156559250Y-110761000D01*
X156718000Y-110602250D01*
X156718000Y-109728000D01*
X155843750Y-109728000D01*
X155685000Y-109886750D01*
X134886195Y-109886750D01*
X135059274Y-109815235D01*
X135214690Y-109660091D01*
X135298904Y-109457281D01*
X135299095Y-109237682D01*
X135215235Y-109034726D01*
X135146646Y-108966016D01*
X135162999Y-108949691D01*
X155685000Y-108949691D01*
X155685000Y-109315250D01*
X155843750Y-109474000D01*
X156718000Y-109474000D01*
X156718000Y-109454000D01*
X156972000Y-109454000D01*
X156972000Y-109474000D01*
X156992000Y-109474000D01*
X156992000Y-109728000D01*
X156972000Y-109728000D01*
X156972000Y-110602250D01*
X157130750Y-110761000D01*
X157496310Y-110761000D01*
X157729699Y-110664327D01*
X157908327Y-110485698D01*
X157953987Y-110375465D01*
X157959767Y-110377865D01*
X158268877Y-110378134D01*
X158554560Y-110260092D01*
X158750150Y-110064844D01*
X158944290Y-110259324D01*
X159229767Y-110377865D01*
X159538877Y-110378134D01*
X159824560Y-110260092D01*
X160020150Y-110064844D01*
X160214290Y-110259324D01*
X160499767Y-110377865D01*
X160808877Y-110378134D01*
X161094560Y-110260092D01*
X161290150Y-110064844D01*
X161484290Y-110259324D01*
X161769767Y-110377865D01*
X162078877Y-110378134D01*
X162364560Y-110260092D01*
X162583324Y-110041710D01*
X162701865Y-109756233D01*
X162702134Y-109447123D01*
X162584092Y-109161440D01*
X162388844Y-108965850D01*
X162583324Y-108771710D01*
X162701865Y-108486233D01*
X162702043Y-108281681D01*
X164476849Y-108281681D01*
X164610082Y-108604131D01*
X164856571Y-108851051D01*
X165178789Y-108984847D01*
X165527681Y-108985151D01*
X165850131Y-108851918D01*
X166097051Y-108605429D01*
X166230847Y-108283211D01*
X166231151Y-107934319D01*
X166097918Y-107611869D01*
X165851429Y-107364949D01*
X165529211Y-107231153D01*
X165180319Y-107230849D01*
X164857869Y-107364082D01*
X164610949Y-107610571D01*
X164477153Y-107932789D01*
X164476849Y-108281681D01*
X162702043Y-108281681D01*
X162702134Y-108177123D01*
X162584092Y-107891440D01*
X162365710Y-107672676D01*
X162080233Y-107554135D01*
X161771123Y-107553866D01*
X161485440Y-107671908D01*
X161289850Y-107867156D01*
X161095710Y-107672676D01*
X160810233Y-107554135D01*
X160501123Y-107553866D01*
X160215440Y-107671908D01*
X160019850Y-107867156D01*
X159825710Y-107672676D01*
X159540233Y-107554135D01*
X159231123Y-107553866D01*
X158945440Y-107671908D01*
X158749850Y-107867156D01*
X158555710Y-107672676D01*
X158270233Y-107554135D01*
X157961123Y-107553866D01*
X157675440Y-107671908D01*
X157479850Y-107867156D01*
X157285710Y-107672676D01*
X157000233Y-107554135D01*
X156691123Y-107553866D01*
X156405440Y-107671908D01*
X156186676Y-107890290D01*
X156068135Y-108175767D01*
X156067866Y-108484877D01*
X156070774Y-108491914D01*
X155960301Y-108537673D01*
X155781673Y-108716302D01*
X155685000Y-108949691D01*
X135162999Y-108949691D01*
X135214690Y-108898091D01*
X135298904Y-108695281D01*
X135299095Y-108475682D01*
X135215235Y-108272726D01*
X135060091Y-108117310D01*
X134857281Y-108033096D01*
X134637682Y-108032905D01*
X134434726Y-108116765D01*
X134279310Y-108271909D01*
X134195096Y-108474719D01*
X134194905Y-108694318D01*
X131631995Y-108694318D01*
X131774200Y-108481492D01*
X131829540Y-108203281D01*
X131829540Y-107868919D01*
X131774200Y-107590708D01*
X131616607Y-107354852D01*
X131380751Y-107197259D01*
X131102540Y-107141919D01*
X130824329Y-107197259D01*
X130588473Y-107354852D01*
X130430880Y-107590708D01*
X130375540Y-107868919D01*
X127327000Y-107868919D01*
X127327000Y-106550318D01*
X139259905Y-106550318D01*
X139343765Y-106753274D01*
X139498909Y-106908690D01*
X139701719Y-106992904D01*
X139921318Y-106993095D01*
X140124274Y-106909235D01*
X140279690Y-106754091D01*
X140363904Y-106551281D01*
X140363904Y-106550318D01*
X140559905Y-106550318D01*
X140643765Y-106753274D01*
X140798909Y-106908690D01*
X141001719Y-106992904D01*
X141221318Y-106993095D01*
X141424274Y-106909235D01*
X141579690Y-106754091D01*
X141663904Y-106551281D01*
X141664095Y-106331682D01*
X141643435Y-106281681D01*
X164476849Y-106281681D01*
X164610082Y-106604131D01*
X164856571Y-106851051D01*
X165178789Y-106984847D01*
X165527681Y-106985151D01*
X165850131Y-106851918D01*
X166097051Y-106605429D01*
X166230847Y-106283211D01*
X166231151Y-105934319D01*
X166097918Y-105611869D01*
X165851429Y-105364949D01*
X165529211Y-105231153D01*
X165180319Y-105230849D01*
X164857869Y-105364082D01*
X164610949Y-105610571D01*
X164477153Y-105932789D01*
X164476849Y-106281681D01*
X141643435Y-106281681D01*
X141580235Y-106128726D01*
X141425091Y-105973310D01*
X141222281Y-105889096D01*
X141002682Y-105888905D01*
X140799726Y-105972765D01*
X140644310Y-106127909D01*
X140560096Y-106330719D01*
X140559905Y-106550318D01*
X140363904Y-106550318D01*
X140364095Y-106331682D01*
X140280235Y-106128726D01*
X140125091Y-105973310D01*
X139922281Y-105889096D01*
X139702682Y-105888905D01*
X139499726Y-105972765D01*
X139344310Y-106127909D01*
X139260096Y-106330719D01*
X139259905Y-106550318D01*
X127327000Y-106550318D01*
X127327000Y-105250318D01*
X139259905Y-105250318D01*
X139343765Y-105453274D01*
X139498909Y-105608690D01*
X139701719Y-105692904D01*
X139921318Y-105693095D01*
X140124274Y-105609235D01*
X140279690Y-105454091D01*
X140363904Y-105251281D01*
X140363904Y-105250318D01*
X140559905Y-105250318D01*
X140643765Y-105453274D01*
X140798909Y-105608690D01*
X141001719Y-105692904D01*
X141221318Y-105693095D01*
X141424274Y-105609235D01*
X141579690Y-105454091D01*
X141658075Y-105265318D01*
X146259905Y-105265318D01*
X146343765Y-105468274D01*
X146498909Y-105623690D01*
X146701719Y-105707904D01*
X146921318Y-105708095D01*
X147124274Y-105624235D01*
X147279690Y-105469091D01*
X147363904Y-105266281D01*
X147363904Y-105265318D01*
X147656905Y-105265318D01*
X147740765Y-105468274D01*
X147895909Y-105623690D01*
X148098719Y-105707904D01*
X148318318Y-105708095D01*
X148521274Y-105624235D01*
X148676690Y-105469091D01*
X148708568Y-105392318D01*
X150704905Y-105392318D01*
X150788765Y-105595274D01*
X150943909Y-105750690D01*
X151146719Y-105834904D01*
X151366318Y-105835095D01*
X151569274Y-105751235D01*
X151724690Y-105596091D01*
X151808904Y-105393281D01*
X151809095Y-105173682D01*
X151725235Y-104970726D01*
X151570091Y-104815310D01*
X151367281Y-104731096D01*
X151147682Y-104730905D01*
X150944726Y-104814765D01*
X150789310Y-104969909D01*
X150705096Y-105172719D01*
X150704905Y-105392318D01*
X148708568Y-105392318D01*
X148760904Y-105266281D01*
X148761095Y-105046682D01*
X148677235Y-104843726D01*
X148522091Y-104688310D01*
X148319281Y-104604096D01*
X148099682Y-104603905D01*
X147896726Y-104687765D01*
X147741310Y-104842909D01*
X147657096Y-105045719D01*
X147656905Y-105265318D01*
X147363904Y-105265318D01*
X147364095Y-105046682D01*
X147280235Y-104843726D01*
X147125091Y-104688310D01*
X146922281Y-104604096D01*
X146702682Y-104603905D01*
X146499726Y-104687765D01*
X146344310Y-104842909D01*
X146260096Y-105045719D01*
X146259905Y-105265318D01*
X141658075Y-105265318D01*
X141663904Y-105251281D01*
X141664095Y-105031682D01*
X141580235Y-104828726D01*
X141425091Y-104673310D01*
X141222281Y-104589096D01*
X141002682Y-104588905D01*
X140799726Y-104672765D01*
X140644310Y-104827909D01*
X140560096Y-105030719D01*
X140559905Y-105250318D01*
X140363904Y-105250318D01*
X140364095Y-105031682D01*
X140280235Y-104828726D01*
X140125091Y-104673310D01*
X139922281Y-104589096D01*
X139702682Y-104588905D01*
X139499726Y-104672765D01*
X139344310Y-104827909D01*
X139260096Y-105030719D01*
X139259905Y-105250318D01*
X127327000Y-105250318D01*
X127327000Y-102868919D01*
X130375540Y-102868919D01*
X130375540Y-103203281D01*
X130430880Y-103481492D01*
X130588473Y-103717348D01*
X130824329Y-103874941D01*
X131102540Y-103930281D01*
X131380751Y-103874941D01*
X131616607Y-103717348D01*
X131774200Y-103481492D01*
X131798303Y-103360318D01*
X142703905Y-103360318D01*
X142787765Y-103563274D01*
X142942909Y-103718690D01*
X143145719Y-103802904D01*
X143365318Y-103803095D01*
X143568274Y-103719235D01*
X143723690Y-103564091D01*
X143807904Y-103361281D01*
X143808095Y-103141682D01*
X143741008Y-102979318D01*
X149815905Y-102979318D01*
X149899765Y-103182274D01*
X150054909Y-103337690D01*
X150257719Y-103421904D01*
X150477318Y-103422095D01*
X150680274Y-103338235D01*
X150835690Y-103183091D01*
X150919904Y-102980281D01*
X150920095Y-102760682D01*
X150836235Y-102557726D01*
X150681091Y-102402310D01*
X150478281Y-102318096D01*
X150258682Y-102317905D01*
X150055726Y-102401765D01*
X149900310Y-102556909D01*
X149816096Y-102759719D01*
X149815905Y-102979318D01*
X143741008Y-102979318D01*
X143724235Y-102938726D01*
X143569091Y-102783310D01*
X143366281Y-102699096D01*
X143146682Y-102698905D01*
X142943726Y-102782765D01*
X142788310Y-102937909D01*
X142704096Y-103140719D01*
X142703905Y-103360318D01*
X131798303Y-103360318D01*
X131829540Y-103203281D01*
X131829540Y-102868919D01*
X131774200Y-102590708D01*
X131616607Y-102354852D01*
X131600842Y-102344318D01*
X132543905Y-102344318D01*
X132627765Y-102547274D01*
X132782909Y-102702690D01*
X132985719Y-102786904D01*
X133205318Y-102787095D01*
X133354829Y-102725318D01*
X140163905Y-102725318D01*
X140247765Y-102928274D01*
X140402909Y-103083690D01*
X140605719Y-103167904D01*
X140825318Y-103168095D01*
X141028274Y-103084235D01*
X141033484Y-103079034D01*
X141164909Y-103210690D01*
X141367719Y-103294904D01*
X141587318Y-103295095D01*
X141790274Y-103211235D01*
X141945690Y-103056091D01*
X142029904Y-102853281D01*
X142030095Y-102633682D01*
X141946235Y-102430726D01*
X141791091Y-102275310D01*
X141588281Y-102191096D01*
X141368682Y-102190905D01*
X141165726Y-102274765D01*
X141160516Y-102279966D01*
X141029091Y-102148310D01*
X140826281Y-102064096D01*
X140606682Y-102063905D01*
X140403726Y-102147765D01*
X140248310Y-102302909D01*
X140164096Y-102505719D01*
X140163905Y-102725318D01*
X133354829Y-102725318D01*
X133408274Y-102703235D01*
X133563690Y-102548091D01*
X133647904Y-102345281D01*
X133648095Y-102125682D01*
X133564235Y-101922726D01*
X133409091Y-101767310D01*
X133206281Y-101683096D01*
X132986682Y-101682905D01*
X132783726Y-101766765D01*
X132628310Y-101921909D01*
X132544096Y-102124719D01*
X132543905Y-102344318D01*
X131600842Y-102344318D01*
X131380751Y-102197259D01*
X131102540Y-102141919D01*
X130824329Y-102197259D01*
X130588473Y-102354852D01*
X130430880Y-102590708D01*
X130375540Y-102868919D01*
X127327000Y-102868919D01*
X127327000Y-102036100D01*
X127355420Y-102036100D01*
X127412663Y-102323878D01*
X127575676Y-102567844D01*
X127819642Y-102730857D01*
X128107420Y-102788100D01*
X128697660Y-102788100D01*
X128985438Y-102730857D01*
X129229404Y-102567844D01*
X129392417Y-102323878D01*
X129449660Y-102036100D01*
X129392417Y-101748322D01*
X129281497Y-101582318D01*
X138639905Y-101582318D01*
X138723765Y-101785274D01*
X138878909Y-101940690D01*
X139081719Y-102024904D01*
X139301318Y-102025095D01*
X139504274Y-101941235D01*
X139659690Y-101786091D01*
X139683388Y-101729021D01*
X139767909Y-101813690D01*
X139970719Y-101897904D01*
X140190318Y-101898095D01*
X140393274Y-101814235D01*
X140461984Y-101745646D01*
X140529909Y-101813690D01*
X140732719Y-101897904D01*
X140952318Y-101898095D01*
X141155274Y-101814235D01*
X141310690Y-101659091D01*
X141394904Y-101456281D01*
X141395095Y-101236682D01*
X141311235Y-101033726D01*
X141156091Y-100878310D01*
X140953281Y-100794096D01*
X140733682Y-100793905D01*
X140530726Y-100877765D01*
X140462016Y-100946354D01*
X140394091Y-100878310D01*
X140191281Y-100794096D01*
X139971682Y-100793905D01*
X139768726Y-100877765D01*
X139613310Y-101032909D01*
X139589612Y-101089979D01*
X139505091Y-101005310D01*
X139302281Y-100921096D01*
X139082682Y-100920905D01*
X138879726Y-101004765D01*
X138724310Y-101159909D01*
X138640096Y-101362719D01*
X138639905Y-101582318D01*
X129281497Y-101582318D01*
X129229404Y-101504356D01*
X128985438Y-101341343D01*
X128697660Y-101284100D01*
X128107420Y-101284100D01*
X127819642Y-101341343D01*
X127575676Y-101504356D01*
X127412663Y-101748322D01*
X127355420Y-102036100D01*
X127327000Y-102036100D01*
X127327000Y-99931318D01*
X141687905Y-99931318D01*
X141771765Y-100134274D01*
X141926909Y-100289690D01*
X142129719Y-100373904D01*
X142349318Y-100374095D01*
X142552274Y-100290235D01*
X142657374Y-100185318D01*
X144735905Y-100185318D01*
X144819765Y-100388274D01*
X144974909Y-100543690D01*
X145177719Y-100627904D01*
X145243962Y-100627962D01*
X145243905Y-100693318D01*
X145327765Y-100896274D01*
X145482909Y-101051690D01*
X145685719Y-101135904D01*
X145905318Y-101136095D01*
X146108274Y-101052235D01*
X146176984Y-100983646D01*
X146244909Y-101051690D01*
X146447719Y-101135904D01*
X146667318Y-101136095D01*
X146870274Y-101052235D01*
X147025690Y-100897091D01*
X147109904Y-100694281D01*
X147109904Y-100693318D01*
X151847905Y-100693318D01*
X151931765Y-100896274D01*
X152086909Y-101051690D01*
X152289719Y-101135904D01*
X152509318Y-101136095D01*
X152712274Y-101052235D01*
X152803669Y-100961000D01*
X153133762Y-100961000D01*
X153118096Y-100998729D01*
X153117984Y-101127868D01*
X152260421Y-101985431D01*
X152178697Y-102107738D01*
X152150000Y-102252010D01*
X152150000Y-105260378D01*
X152059310Y-105350909D01*
X151975096Y-105553719D01*
X151974905Y-105773318D01*
X152058765Y-105976274D01*
X152213909Y-106131690D01*
X152416719Y-106215904D01*
X152636318Y-106216095D01*
X152839274Y-106132235D01*
X152994690Y-105977091D01*
X153078904Y-105774281D01*
X153078978Y-105688318D01*
X158451905Y-105688318D01*
X158535765Y-105891274D01*
X158690909Y-106046690D01*
X158893719Y-106130904D01*
X159113318Y-106131095D01*
X159316274Y-106047235D01*
X159471690Y-105892091D01*
X159555904Y-105689281D01*
X159555904Y-105688318D01*
X160102905Y-105688318D01*
X160186765Y-105891274D01*
X160341909Y-106046690D01*
X160544719Y-106130904D01*
X160764318Y-106131095D01*
X160967274Y-106047235D01*
X161122690Y-105892091D01*
X161206904Y-105689281D01*
X161207095Y-105469682D01*
X161123235Y-105266726D01*
X160968091Y-105111310D01*
X160765281Y-105027096D01*
X160545682Y-105026905D01*
X160342726Y-105110765D01*
X160187310Y-105265909D01*
X160103096Y-105468719D01*
X160102905Y-105688318D01*
X159555904Y-105688318D01*
X159556095Y-105469682D01*
X159472235Y-105266726D01*
X159317091Y-105111310D01*
X159114281Y-105027096D01*
X158894682Y-105026905D01*
X158691726Y-105110765D01*
X158536310Y-105265909D01*
X158452096Y-105468719D01*
X158451905Y-105688318D01*
X153078978Y-105688318D01*
X153079095Y-105554682D01*
X152995235Y-105351726D01*
X152904000Y-105260331D01*
X152904000Y-104281681D01*
X164476849Y-104281681D01*
X164610082Y-104604131D01*
X164856571Y-104851051D01*
X165178789Y-104984847D01*
X165527681Y-104985151D01*
X165850131Y-104851918D01*
X166097051Y-104605429D01*
X166230847Y-104283211D01*
X166231151Y-103934319D01*
X166097918Y-103611869D01*
X165851429Y-103364949D01*
X165529211Y-103231153D01*
X165180319Y-103230849D01*
X164857869Y-103364082D01*
X164610949Y-103610571D01*
X164477153Y-103932789D01*
X164476849Y-104281681D01*
X152904000Y-104281681D01*
X152904000Y-102408168D01*
X153651174Y-101660994D01*
X153779318Y-101661105D01*
X153982274Y-101577245D01*
X154137690Y-101422101D01*
X154221904Y-101219291D01*
X154222095Y-100999692D01*
X154206108Y-100961000D01*
X157562840Y-100961000D01*
X160246419Y-103644579D01*
X160368726Y-103726303D01*
X160503490Y-103753109D01*
X160595909Y-103845690D01*
X160798719Y-103929904D01*
X161018318Y-103930095D01*
X161221274Y-103846235D01*
X161376690Y-103691091D01*
X161460904Y-103488281D01*
X161461095Y-103268682D01*
X161377235Y-103065726D01*
X161222091Y-102910310D01*
X161019281Y-102826096D01*
X160799682Y-102825905D01*
X160596726Y-102909765D01*
X160587315Y-102919159D01*
X160143086Y-102474930D01*
X160205274Y-102449235D01*
X160360690Y-102294091D01*
X160365843Y-102281681D01*
X164476849Y-102281681D01*
X164610082Y-102604131D01*
X164856571Y-102851051D01*
X165178789Y-102984847D01*
X165527681Y-102985151D01*
X165850131Y-102851918D01*
X166097051Y-102605429D01*
X166230847Y-102283211D01*
X166231151Y-101934319D01*
X166097918Y-101611869D01*
X165851429Y-101364949D01*
X165529211Y-101231153D01*
X165180319Y-101230849D01*
X164857869Y-101364082D01*
X164610949Y-101610571D01*
X164477153Y-101932789D01*
X164476849Y-102281681D01*
X160365843Y-102281681D01*
X160444904Y-102091281D01*
X160445095Y-101871682D01*
X160361235Y-101668726D01*
X160206091Y-101513310D01*
X160003281Y-101429096D01*
X159783682Y-101428905D01*
X159580726Y-101512765D01*
X159425310Y-101667909D01*
X159399125Y-101730969D01*
X158681096Y-101012940D01*
X158749328Y-101012999D01*
X158952284Y-100929139D01*
X159107700Y-100773995D01*
X159191914Y-100571185D01*
X159192105Y-100351586D01*
X159163221Y-100281681D01*
X164476849Y-100281681D01*
X164610082Y-100604131D01*
X164856571Y-100851051D01*
X165178789Y-100984847D01*
X165527681Y-100985151D01*
X165850131Y-100851918D01*
X166097051Y-100605429D01*
X166230847Y-100283211D01*
X166231151Y-99934319D01*
X166097918Y-99611869D01*
X165851429Y-99364949D01*
X165529211Y-99231153D01*
X165180319Y-99230849D01*
X164857869Y-99364082D01*
X164610949Y-99610571D01*
X164477153Y-99932789D01*
X164476849Y-100281681D01*
X159163221Y-100281681D01*
X159108245Y-100148630D01*
X158953101Y-99993214D01*
X158750291Y-99909000D01*
X158530692Y-99908809D01*
X158327736Y-99992669D01*
X158172320Y-100147813D01*
X158088106Y-100350623D01*
X158088046Y-100419890D01*
X157985577Y-100317421D01*
X157863270Y-100235697D01*
X157718998Y-100207000D01*
X156856228Y-100207000D01*
X156871894Y-100169271D01*
X156872085Y-99949672D01*
X156788225Y-99746716D01*
X156633081Y-99591300D01*
X156430271Y-99507086D01*
X156210672Y-99506895D01*
X156007716Y-99590755D01*
X155852300Y-99745899D01*
X155768086Y-99948709D01*
X155767895Y-100168308D01*
X155783882Y-100207000D01*
X154541566Y-100207000D01*
X154602904Y-100059281D01*
X154603095Y-99839682D01*
X154519235Y-99636726D01*
X154364091Y-99481310D01*
X154161281Y-99397096D01*
X153941682Y-99396905D01*
X153738726Y-99480765D01*
X153583310Y-99635909D01*
X153499096Y-99838719D01*
X153498905Y-100058318D01*
X153560339Y-100207000D01*
X152803622Y-100207000D01*
X152713091Y-100116310D01*
X152510281Y-100032096D01*
X152290682Y-100031905D01*
X152087726Y-100115765D01*
X151932310Y-100270909D01*
X151848096Y-100473719D01*
X151847905Y-100693318D01*
X147109904Y-100693318D01*
X147110095Y-100474682D01*
X147026235Y-100271726D01*
X146871091Y-100116310D01*
X146668281Y-100032096D01*
X146448682Y-100031905D01*
X146245726Y-100115765D01*
X146177016Y-100184354D01*
X146109091Y-100116310D01*
X145906281Y-100032096D01*
X145840038Y-100032038D01*
X145840095Y-99966682D01*
X145756235Y-99763726D01*
X145601091Y-99608310D01*
X145398281Y-99524096D01*
X145178682Y-99523905D01*
X144975726Y-99607765D01*
X144820310Y-99762909D01*
X144736096Y-99965719D01*
X144735905Y-100185318D01*
X142657374Y-100185318D01*
X142707690Y-100135091D01*
X142791904Y-99932281D01*
X142792095Y-99712682D01*
X142708235Y-99509726D01*
X142553091Y-99354310D01*
X142350281Y-99270096D01*
X142130682Y-99269905D01*
X141927726Y-99353765D01*
X141772310Y-99508909D01*
X141688096Y-99711719D01*
X141687905Y-99931318D01*
X127327000Y-99931318D01*
X127327000Y-98941818D01*
X155767895Y-98941818D01*
X155851755Y-99144774D01*
X156006899Y-99300190D01*
X156209709Y-99384404D01*
X156429308Y-99384595D01*
X156632264Y-99300735D01*
X156787680Y-99145591D01*
X156871894Y-98942781D01*
X156871894Y-98941818D01*
X158087915Y-98941818D01*
X158171775Y-99144774D01*
X158326919Y-99300190D01*
X158529729Y-99384404D01*
X158749328Y-99384595D01*
X158952284Y-99300735D01*
X159107700Y-99145591D01*
X159191914Y-98942781D01*
X159192105Y-98723182D01*
X159108245Y-98520226D01*
X158953101Y-98364810D01*
X158752904Y-98281681D01*
X164476849Y-98281681D01*
X164610082Y-98604131D01*
X164856571Y-98851051D01*
X165178789Y-98984847D01*
X165527681Y-98985151D01*
X165850131Y-98851918D01*
X166097051Y-98605429D01*
X166230847Y-98283211D01*
X166231151Y-97934319D01*
X166097918Y-97611869D01*
X165851429Y-97364949D01*
X165529211Y-97231153D01*
X165180319Y-97230849D01*
X164857869Y-97364082D01*
X164610949Y-97610571D01*
X164477153Y-97932789D01*
X164476849Y-98281681D01*
X158752904Y-98281681D01*
X158750291Y-98280596D01*
X158530692Y-98280405D01*
X158327736Y-98364265D01*
X158172320Y-98519409D01*
X158088106Y-98722219D01*
X158087915Y-98941818D01*
X156871894Y-98941818D01*
X156872085Y-98723182D01*
X156788225Y-98520226D01*
X156633081Y-98364810D01*
X156430271Y-98280596D01*
X156210672Y-98280405D01*
X156007716Y-98364265D01*
X155852300Y-98519409D01*
X155768086Y-98722219D01*
X155767895Y-98941818D01*
X127327000Y-98941818D01*
X127327000Y-93599000D01*
X127505064Y-93599000D01*
X127505064Y-95631000D01*
X127522636Y-95724385D01*
X127577826Y-95810154D01*
X127662038Y-95867693D01*
X127762000Y-95887936D01*
X128648405Y-95887936D01*
X128292757Y-95958679D01*
X127881389Y-96233547D01*
X127606521Y-96644915D01*
X127510000Y-97130158D01*
X127510000Y-97179842D01*
X127606521Y-97665085D01*
X127881389Y-98076453D01*
X128292757Y-98351321D01*
X128778000Y-98447842D01*
X129263243Y-98351321D01*
X129347042Y-98295328D01*
X143338905Y-98295328D01*
X143422765Y-98498284D01*
X143577909Y-98653700D01*
X143780719Y-98737914D01*
X144000318Y-98738105D01*
X144203274Y-98654245D01*
X144358690Y-98499101D01*
X144396801Y-98407318D01*
X152332162Y-98407318D01*
X152416022Y-98610274D01*
X152571166Y-98765690D01*
X152773976Y-98849904D01*
X152993575Y-98850095D01*
X153196531Y-98766235D01*
X153351947Y-98611091D01*
X153436161Y-98408281D01*
X153436352Y-98188682D01*
X153397529Y-98094723D01*
X153518585Y-98094828D01*
X153721541Y-98010968D01*
X153876957Y-97855824D01*
X153961171Y-97653014D01*
X153961362Y-97433415D01*
X153877502Y-97230459D01*
X153722358Y-97075043D01*
X153519548Y-96990829D01*
X153299949Y-96990638D01*
X153096993Y-97074498D01*
X152941577Y-97229642D01*
X152857363Y-97432452D01*
X152857172Y-97652051D01*
X152895995Y-97746010D01*
X152774939Y-97745905D01*
X152571983Y-97829765D01*
X152416567Y-97984909D01*
X152332353Y-98187719D01*
X152332162Y-98407318D01*
X144396801Y-98407318D01*
X144442904Y-98296291D01*
X144443095Y-98076692D01*
X144359235Y-97873736D01*
X144204091Y-97718320D01*
X144001281Y-97634106D01*
X143781682Y-97633915D01*
X143578726Y-97717775D01*
X143423310Y-97872919D01*
X143339096Y-98075729D01*
X143338905Y-98295328D01*
X129347042Y-98295328D01*
X129674611Y-98076453D01*
X129949479Y-97665085D01*
X129953410Y-97645318D01*
X137877905Y-97645318D01*
X137961765Y-97848274D01*
X138116909Y-98003690D01*
X138319719Y-98087904D01*
X138539318Y-98088095D01*
X138742274Y-98004235D01*
X138810984Y-97935646D01*
X138878909Y-98003690D01*
X139081719Y-98087904D01*
X139301318Y-98088095D01*
X139504274Y-98004235D01*
X139659690Y-97849091D01*
X139743904Y-97646281D01*
X139744095Y-97426682D01*
X139660235Y-97223726D01*
X139505091Y-97068310D01*
X139302281Y-96984096D01*
X139082682Y-96983905D01*
X138879726Y-97067765D01*
X138811016Y-97136354D01*
X138743091Y-97068310D01*
X138540281Y-96984096D01*
X138320682Y-96983905D01*
X138117726Y-97067765D01*
X137962310Y-97222909D01*
X137878096Y-97425719D01*
X137877905Y-97645318D01*
X129953410Y-97645318D01*
X130046000Y-97179842D01*
X130046000Y-97130158D01*
X129949479Y-96644915D01*
X129939058Y-96629318D01*
X135210905Y-96629318D01*
X135294765Y-96832274D01*
X135449909Y-96987690D01*
X135652719Y-97071904D01*
X135872318Y-97072095D01*
X136075274Y-96988235D01*
X136230690Y-96833091D01*
X136314904Y-96630281D01*
X136315095Y-96410682D01*
X136231235Y-96207726D01*
X136076091Y-96052310D01*
X136011085Y-96025317D01*
X153244905Y-96025317D01*
X153328765Y-96228273D01*
X153483909Y-96383689D01*
X153686719Y-96467903D01*
X153906318Y-96468094D01*
X153979915Y-96437684D01*
X153989224Y-96460214D01*
X154144368Y-96615630D01*
X154347178Y-96699844D01*
X154566777Y-96700035D01*
X154769733Y-96616175D01*
X154873490Y-96512599D01*
X155352497Y-96512599D01*
X155436357Y-96715555D01*
X155591501Y-96870971D01*
X155794311Y-96955185D01*
X156013910Y-96955376D01*
X156216866Y-96871516D01*
X156332306Y-96756278D01*
X156480719Y-96817904D01*
X156700318Y-96818095D01*
X156849829Y-96756318D01*
X159340905Y-96756318D01*
X159424765Y-96959274D01*
X159579909Y-97114690D01*
X159782719Y-97198904D01*
X160002318Y-97199095D01*
X160205274Y-97115235D01*
X160360690Y-96960091D01*
X160444904Y-96757281D01*
X160445095Y-96537682D01*
X160361235Y-96334726D01*
X160308283Y-96281681D01*
X164476849Y-96281681D01*
X164610082Y-96604131D01*
X164856571Y-96851051D01*
X165178789Y-96984847D01*
X165527681Y-96985151D01*
X165850131Y-96851918D01*
X166097051Y-96605429D01*
X166139810Y-96502454D01*
X166245110Y-96756675D01*
X166473122Y-96809273D01*
X167174395Y-96108000D01*
X166473122Y-95406727D01*
X166245110Y-95459325D01*
X166149328Y-95736292D01*
X166097918Y-95611869D01*
X165851429Y-95364949D01*
X165529211Y-95231153D01*
X165180319Y-95230849D01*
X164857869Y-95364082D01*
X164610949Y-95610571D01*
X164477153Y-95932789D01*
X164476849Y-96281681D01*
X160308283Y-96281681D01*
X160206091Y-96179310D01*
X160003281Y-96095096D01*
X159783682Y-96094905D01*
X159580726Y-96178765D01*
X159425310Y-96333909D01*
X159341096Y-96536719D01*
X159340905Y-96756318D01*
X156849829Y-96756318D01*
X156903274Y-96734235D01*
X157058690Y-96579091D01*
X157142904Y-96376281D01*
X157143095Y-96156682D01*
X157059235Y-95953726D01*
X156904091Y-95798310D01*
X156701281Y-95714096D01*
X156481682Y-95713905D01*
X156278726Y-95797765D01*
X156163286Y-95913003D01*
X156014873Y-95851377D01*
X155795274Y-95851186D01*
X155592318Y-95935046D01*
X155436902Y-96090190D01*
X155352688Y-96293000D01*
X155352497Y-96512599D01*
X154873490Y-96512599D01*
X154925149Y-96461031D01*
X155009363Y-96258221D01*
X155009554Y-96038622D01*
X154925694Y-95835666D01*
X154770550Y-95680250D01*
X154567740Y-95596036D01*
X154348141Y-95595845D01*
X154274544Y-95626255D01*
X154265235Y-95603725D01*
X154110091Y-95448309D01*
X153907281Y-95364095D01*
X153687682Y-95363904D01*
X153484726Y-95447764D01*
X153329310Y-95602908D01*
X153245096Y-95805718D01*
X153244905Y-96025317D01*
X136011085Y-96025317D01*
X135873281Y-95968096D01*
X135653682Y-95967905D01*
X135450726Y-96051765D01*
X135295310Y-96206909D01*
X135211096Y-96409719D01*
X135210905Y-96629318D01*
X129939058Y-96629318D01*
X129674611Y-96233547D01*
X129263243Y-95958679D01*
X128907595Y-95887936D01*
X129794000Y-95887936D01*
X129887385Y-95870364D01*
X129973154Y-95815174D01*
X130030693Y-95730962D01*
X130050936Y-95631000D01*
X130050936Y-95486318D01*
X132162905Y-95486318D01*
X132246765Y-95689274D01*
X132401909Y-95844690D01*
X132604719Y-95928904D01*
X132824318Y-95929095D01*
X133027274Y-95845235D01*
X133182690Y-95690091D01*
X133266904Y-95487281D01*
X133267095Y-95267682D01*
X133252483Y-95232318D01*
X159594905Y-95232318D01*
X159678765Y-95435274D01*
X159833909Y-95590690D01*
X160036719Y-95674904D01*
X160256318Y-95675095D01*
X160459274Y-95591235D01*
X160614690Y-95436091D01*
X160698904Y-95233281D01*
X160699095Y-95013682D01*
X160615235Y-94810726D01*
X160460091Y-94655310D01*
X160257281Y-94571096D01*
X160037682Y-94570905D01*
X159834726Y-94654765D01*
X159679310Y-94809909D01*
X159595096Y-95012719D01*
X159594905Y-95232318D01*
X133252483Y-95232318D01*
X133183235Y-95064726D01*
X133028091Y-94909310D01*
X132825281Y-94825096D01*
X132605682Y-94824905D01*
X132402726Y-94908765D01*
X132247310Y-95063909D01*
X132163096Y-95266719D01*
X132162905Y-95486318D01*
X130050936Y-95486318D01*
X130050936Y-94587318D01*
X144608905Y-94587318D01*
X144692765Y-94790274D01*
X144847909Y-94945690D01*
X145050719Y-95029904D01*
X145270318Y-95030095D01*
X145473274Y-94946235D01*
X145628690Y-94791091D01*
X145712904Y-94588281D01*
X145713095Y-94368682D01*
X145629235Y-94165726D01*
X145474091Y-94010310D01*
X145271281Y-93926096D01*
X145051682Y-93925905D01*
X144848726Y-94009765D01*
X144693310Y-94164909D01*
X144609096Y-94367719D01*
X144608905Y-94587318D01*
X130050936Y-94587318D01*
X130050936Y-93708318D01*
X153752905Y-93708318D01*
X153836765Y-93911274D01*
X153991909Y-94066690D01*
X154194719Y-94150904D01*
X154414318Y-94151095D01*
X154563829Y-94089318D01*
X157943905Y-94089318D01*
X158027765Y-94292274D01*
X158182909Y-94447690D01*
X158385719Y-94531904D01*
X158605318Y-94532095D01*
X158808274Y-94448235D01*
X158963690Y-94293091D01*
X159047904Y-94090281D01*
X159048095Y-93870682D01*
X158964235Y-93667726D01*
X158809091Y-93512310D01*
X158606281Y-93428096D01*
X158386682Y-93427905D01*
X158183726Y-93511765D01*
X158028310Y-93666909D01*
X157944096Y-93869719D01*
X157943905Y-94089318D01*
X154563829Y-94089318D01*
X154617274Y-94067235D01*
X154772690Y-93912091D01*
X154856904Y-93709281D01*
X154857095Y-93489682D01*
X154773235Y-93286726D01*
X154618091Y-93131310D01*
X154415281Y-93047096D01*
X154195682Y-93046905D01*
X153992726Y-93130765D01*
X153837310Y-93285909D01*
X153753096Y-93488719D01*
X153752905Y-93708318D01*
X130050936Y-93708318D01*
X130050936Y-93599000D01*
X130033364Y-93505615D01*
X129978174Y-93419846D01*
X129893962Y-93362307D01*
X129794000Y-93342064D01*
X127762000Y-93342064D01*
X127668615Y-93359636D01*
X127582846Y-93414826D01*
X127525307Y-93499038D01*
X127505064Y-93599000D01*
X127327000Y-93599000D01*
X127327000Y-92946318D01*
X156419905Y-92946318D01*
X156503765Y-93149274D01*
X156658909Y-93304690D01*
X156861719Y-93388904D01*
X157081318Y-93389095D01*
X157230829Y-93327318D01*
X160864905Y-93327318D01*
X160948765Y-93530274D01*
X161103909Y-93685690D01*
X161306719Y-93769904D01*
X161526318Y-93770095D01*
X161729274Y-93686235D01*
X161884690Y-93531091D01*
X161945631Y-93384329D01*
X161992909Y-93431690D01*
X162195719Y-93515904D01*
X162415318Y-93516095D01*
X162618274Y-93432235D01*
X162773690Y-93277091D01*
X162857904Y-93074281D01*
X162858095Y-92854682D01*
X162774235Y-92651726D01*
X162619091Y-92496310D01*
X162416281Y-92412096D01*
X162196682Y-92411905D01*
X161993726Y-92495765D01*
X161838310Y-92650909D01*
X161777369Y-92797671D01*
X161730091Y-92750310D01*
X161527281Y-92666096D01*
X161307682Y-92665905D01*
X161104726Y-92749765D01*
X160949310Y-92904909D01*
X160865096Y-93107719D01*
X160864905Y-93327318D01*
X157230829Y-93327318D01*
X157284274Y-93305235D01*
X157439690Y-93150091D01*
X157523904Y-92947281D01*
X157524095Y-92727682D01*
X157440235Y-92524726D01*
X157285091Y-92369310D01*
X157082281Y-92285096D01*
X156862682Y-92284905D01*
X156659726Y-92368765D01*
X156504310Y-92523909D01*
X156420096Y-92726719D01*
X156419905Y-92946318D01*
X127327000Y-92946318D01*
X127327000Y-92184318D01*
X149815905Y-92184318D01*
X149899765Y-92387274D01*
X150054909Y-92542690D01*
X150257719Y-92626904D01*
X150477318Y-92627095D01*
X150680274Y-92543235D01*
X150835690Y-92388091D01*
X150919904Y-92185281D01*
X150920095Y-91965682D01*
X150836235Y-91762726D01*
X150681091Y-91607310D01*
X150478281Y-91523096D01*
X150258682Y-91522905D01*
X150055726Y-91606765D01*
X149900310Y-91761909D01*
X149816096Y-91964719D01*
X149815905Y-92184318D01*
X127327000Y-92184318D01*
X127327000Y-89263318D01*
X150196905Y-89263318D01*
X150280765Y-89466274D01*
X150435909Y-89621690D01*
X150638719Y-89705904D01*
X150858318Y-89706095D01*
X151061274Y-89622235D01*
X151216690Y-89467091D01*
X151300904Y-89264281D01*
X151301015Y-89136318D01*
X154514905Y-89136318D01*
X154598765Y-89339274D01*
X154753909Y-89494690D01*
X154940363Y-89572112D01*
X154896096Y-89678719D01*
X154895905Y-89898318D01*
X154979765Y-90101274D01*
X155134909Y-90256690D01*
X155337719Y-90340904D01*
X155557318Y-90341095D01*
X155706829Y-90279318D01*
X156927905Y-90279318D01*
X157011765Y-90482274D01*
X157166909Y-90637690D01*
X157369719Y-90721904D01*
X157589318Y-90722095D01*
X157792274Y-90638235D01*
X157947690Y-90483091D01*
X158014863Y-90321318D01*
X158832905Y-90321318D01*
X158916765Y-90524274D01*
X159071909Y-90679690D01*
X159274719Y-90763904D01*
X159494318Y-90764095D01*
X159697274Y-90680235D01*
X159852690Y-90525091D01*
X159936904Y-90322281D01*
X159937095Y-90102682D01*
X159853235Y-89899726D01*
X159698091Y-89744310D01*
X159495281Y-89660096D01*
X159275682Y-89659905D01*
X159072726Y-89743765D01*
X158917310Y-89898909D01*
X158833096Y-90101719D01*
X158832905Y-90321318D01*
X158014863Y-90321318D01*
X158031904Y-90280281D01*
X158032095Y-90060682D01*
X157948235Y-89857726D01*
X157793091Y-89702310D01*
X157590281Y-89618096D01*
X157370682Y-89617905D01*
X157167726Y-89701765D01*
X157012310Y-89856909D01*
X156928096Y-90059719D01*
X156927905Y-90279318D01*
X155706829Y-90279318D01*
X155760274Y-90257235D01*
X155915690Y-90102091D01*
X155999904Y-89899281D01*
X156000095Y-89679682D01*
X155916235Y-89476726D01*
X155761091Y-89321310D01*
X155574637Y-89243888D01*
X155618904Y-89137281D01*
X155619095Y-88917682D01*
X155535235Y-88714726D01*
X155380091Y-88559310D01*
X155177281Y-88475096D01*
X154957682Y-88474905D01*
X154754726Y-88558765D01*
X154599310Y-88713909D01*
X154515096Y-88916719D01*
X154514905Y-89136318D01*
X151301015Y-89136318D01*
X151301095Y-89044682D01*
X151217235Y-88841726D01*
X151062091Y-88686310D01*
X150859281Y-88602096D01*
X150639682Y-88601905D01*
X150436726Y-88685765D01*
X150281310Y-88840909D01*
X150197096Y-89043719D01*
X150196905Y-89263318D01*
X127327000Y-89263318D01*
X127327000Y-88338000D01*
X162615832Y-88338000D01*
X162579308Y-88374524D01*
M02*
