G04 #@! TF.FileFunction,Copper,L1,Top,Signal*
%FSLAX46Y46*%
G04 Gerber Fmt 4.6, Leading zero omitted, Abs format (unit mm)*
G04 Created by KiCad (PCBNEW 0.201512051502+6347~38~ubuntu15.10.1-stable) date Sun 06 Dec 2015 10:28:51 PM EST*
%MOMM*%
G01*
G04 APERTURE LIST*
%ADD10C,0.100000*%
%ADD11R,1.000000X3.500000*%
%ADD12R,1.700000X3.400000*%
%ADD13R,0.650000X1.050000*%
%ADD14R,0.600000X0.500000*%
%ADD15R,0.500000X0.600000*%
%ADD16R,0.797560X0.797560*%
%ADD17R,0.590000X0.450000*%
%ADD18R,0.400000X0.600000*%
%ADD19R,1.000000X0.600000*%
%ADD20R,0.700000X1.000000*%
%ADD21R,0.700000X0.600000*%
%ADD22R,0.850000X0.300000*%
%ADD23R,0.300000X0.850000*%
%ADD24R,1.300000X1.300000*%
%ADD25R,0.250000X0.700000*%
%ADD26R,0.700000X0.250000*%
%ADD27R,1.725000X1.725000*%
%ADD28R,1.050000X1.050000*%
%ADD29C,1.050000*%
%ADD30R,2.032000X2.032000*%
%ADD31O,2.032000X2.032000*%
%ADD32R,0.600000X0.400000*%
%ADD33R,1.400000X1.200000*%
%ADD34C,1.250000*%
%ADD35C,3.800000*%
%ADD36R,1.350000X0.400000*%
%ADD37R,2.000000X2.100000*%
%ADD38R,1.900000X1.600000*%
%ADD39R,1.900000X1.200000*%
%ADD40C,0.600000*%
%ADD41C,0.250000*%
%ADD42C,0.350000*%
%ADD43C,0.500000*%
%ADD44C,0.125000*%
G04 APERTURE END LIST*
D10*
D11*
X143494000Y-94118000D03*
X141494000Y-94118000D03*
D12*
X145944000Y-88568000D03*
X139044000Y-88568000D03*
D13*
X158747000Y-92643000D03*
X158747000Y-87443000D03*
X161547000Y-92643000D03*
X161547000Y-87443000D03*
D14*
X137202000Y-97028000D03*
X136102000Y-97028000D03*
D15*
X142621000Y-97113000D03*
X142621000Y-98213000D03*
X148336000Y-97070000D03*
X148336000Y-95970000D03*
D14*
X151172000Y-96012000D03*
X150072000Y-96012000D03*
D15*
X142621000Y-106765000D03*
X142621000Y-107865000D03*
X140208000Y-104225000D03*
X140208000Y-105325000D03*
X147447000Y-102955000D03*
X147447000Y-104055000D03*
X141224000Y-107865000D03*
X141224000Y-106765000D03*
D14*
X150537000Y-108204000D03*
X149437000Y-108204000D03*
D15*
X157099000Y-90847000D03*
X157099000Y-89747000D03*
X152146000Y-102701000D03*
X152146000Y-103801000D03*
X157734000Y-103843000D03*
X157734000Y-102743000D03*
X159258000Y-102701000D03*
X159258000Y-103801000D03*
X148209000Y-92372000D03*
X148209000Y-93472000D03*
D16*
X134112000Y-90792300D03*
X134112000Y-89293700D03*
D17*
X146851000Y-97282000D03*
X144741000Y-97282000D03*
D16*
X148221700Y-90043000D03*
X149720300Y-90043000D03*
D18*
X137102000Y-100838000D03*
X136202000Y-100838000D03*
D19*
X149803000Y-97475000D03*
X149803000Y-98425000D03*
X149803000Y-99375000D03*
X152203000Y-99375000D03*
X152203000Y-97475000D03*
D20*
X138541000Y-105017000D03*
D21*
X138541000Y-103317000D03*
X136541000Y-103317000D03*
X136541000Y-105217000D03*
D22*
X141926000Y-102016000D03*
X141926000Y-102516000D03*
X141926000Y-103016000D03*
X141926000Y-103516000D03*
X141926000Y-104016000D03*
X141926000Y-104516000D03*
D23*
X142626000Y-105216000D03*
X143126000Y-105216000D03*
X143626000Y-105216000D03*
X144126000Y-105216000D03*
X144626000Y-105216000D03*
X145126000Y-105216000D03*
D22*
X145826000Y-104516000D03*
X145826000Y-104016000D03*
X145826000Y-103516000D03*
X145826000Y-103016000D03*
X145826000Y-102516000D03*
X145826000Y-102016000D03*
D23*
X145126000Y-101316000D03*
X144626000Y-101316000D03*
X144126000Y-101316000D03*
X143626000Y-101316000D03*
X143126000Y-101316000D03*
X142626000Y-101316000D03*
D24*
X144526000Y-103916000D03*
X144526000Y-102616000D03*
X143226000Y-103916000D03*
X143226000Y-102616000D03*
D25*
X159764500Y-95670500D03*
X159264500Y-95670500D03*
X158764500Y-95670500D03*
X158264500Y-95670500D03*
X157764500Y-95670500D03*
X157264500Y-95670500D03*
X156764500Y-95670500D03*
X156264500Y-95670500D03*
D26*
X155614500Y-96320500D03*
X155614500Y-96820500D03*
X155614500Y-97320500D03*
X155614500Y-97820500D03*
X155614500Y-98320500D03*
X155614500Y-98820500D03*
X155614500Y-99320500D03*
X155614500Y-99820500D03*
D25*
X156264500Y-100470500D03*
X156764500Y-100470500D03*
X157264500Y-100470500D03*
X157764500Y-100470500D03*
X158264500Y-100470500D03*
X158764500Y-100470500D03*
X159264500Y-100470500D03*
X159764500Y-100470500D03*
D26*
X160414500Y-99820500D03*
X160414500Y-99320500D03*
X160414500Y-98820500D03*
X160414500Y-98320500D03*
X160414500Y-97820500D03*
X160414500Y-97320500D03*
X160414500Y-96820500D03*
X160414500Y-96320500D03*
D27*
X157152000Y-98933000D03*
X158877000Y-98933000D03*
X157152000Y-97208000D03*
X158877000Y-97208000D03*
D28*
X156210000Y-107696000D03*
D29*
X157480000Y-107696000D03*
X158750000Y-107696000D03*
X160020000Y-107696000D03*
X161290000Y-107696000D03*
X157480000Y-106426000D03*
X158750000Y-106426000D03*
X160020000Y-106426000D03*
X161290000Y-106426000D03*
X156210000Y-106426000D03*
D30*
X130556000Y-88011000D03*
D31*
X130556000Y-90551000D03*
D32*
X135890000Y-90493000D03*
X135890000Y-89593000D03*
D18*
X136202000Y-99314000D03*
X137102000Y-99314000D03*
X148405000Y-99441000D03*
X147505000Y-99441000D03*
D32*
X144018000Y-107765000D03*
X144018000Y-106865000D03*
D18*
X149744000Y-88392000D03*
X148844000Y-88392000D03*
X149537000Y-105283000D03*
X150437000Y-105283000D03*
X150437000Y-106807000D03*
X149537000Y-106807000D03*
D32*
X154305000Y-108019000D03*
X154305000Y-107119000D03*
X152781000Y-108019000D03*
X152781000Y-107119000D03*
X155575000Y-89916000D03*
X155575000Y-90816000D03*
D18*
X152712000Y-96139000D03*
X153612000Y-96139000D03*
X152712000Y-94615000D03*
X153612000Y-94615000D03*
D32*
X149733000Y-93414000D03*
X149733000Y-92514000D03*
D13*
X151000000Y-92643000D03*
X151000000Y-87443000D03*
X153800000Y-92643000D03*
X153800000Y-87443000D03*
D33*
X153840000Y-104051000D03*
X156040000Y-104051000D03*
X153840000Y-102451000D03*
X156040000Y-102451000D03*
D19*
X141027000Y-99121000D03*
X141027000Y-98171000D03*
X141027000Y-97221000D03*
X138627000Y-97221000D03*
X138627000Y-99121000D03*
D34*
X165703000Y-107918000D03*
X163703000Y-107918000D03*
X165703000Y-105918000D03*
X163703000Y-105918000D03*
X165703000Y-103918000D03*
X163703000Y-103918000D03*
X165703000Y-101918000D03*
X163703000Y-101918000D03*
X165703000Y-99918000D03*
X163703000Y-99918000D03*
X165703000Y-97918000D03*
X163703000Y-97918000D03*
X165703000Y-95918000D03*
X163703000Y-95918000D03*
D35*
X131826000Y-106934000D03*
X164592000Y-89281000D03*
D36*
X133417500Y-96807500D03*
X133417500Y-97457500D03*
X133417500Y-98107500D03*
X133417500Y-98757500D03*
X133417500Y-99407500D03*
D37*
X133092500Y-95007500D03*
X133092500Y-101207500D03*
D38*
X130742500Y-94007500D03*
X130742500Y-102207500D03*
D39*
X130742500Y-98957500D03*
X130742500Y-97257500D03*
D40*
X161671000Y-94869000D03*
X161163000Y-94488000D03*
X154686000Y-99568000D03*
X154686000Y-98933000D03*
X154686000Y-98298000D03*
X149225000Y-94234000D03*
X149225000Y-94996000D03*
X140208000Y-106299000D03*
X139192000Y-106299000D03*
X139700000Y-106807000D03*
X140208000Y-107315000D03*
X135001000Y-87249000D03*
X134366000Y-87249000D03*
X133731000Y-87249000D03*
X149987000Y-87376000D03*
X149352000Y-87376000D03*
X148717000Y-87376000D03*
X148082000Y-87376000D03*
X140843000Y-102362000D03*
X142367000Y-100076000D03*
X142367000Y-99314000D03*
X143129000Y-99314000D03*
X151892000Y-101219000D03*
X152235828Y-101800706D03*
X149352000Y-102108000D03*
X149860000Y-102616000D03*
X150241000Y-103251000D03*
X152527000Y-108966000D03*
X153162000Y-108966000D03*
X153797000Y-108966000D03*
X154432000Y-108966000D03*
X147193000Y-106045000D03*
X146685000Y-105283000D03*
X147447000Y-105283000D03*
X139446000Y-93472000D03*
X140081000Y-93218000D03*
X140208000Y-93853000D03*
X143226000Y-103916000D03*
X144526000Y-103916000D03*
X144526000Y-102616000D03*
X143226000Y-102616000D03*
X148209000Y-98298000D03*
X148844000Y-98298000D03*
X158877000Y-97208000D03*
X157152000Y-97208000D03*
X157152000Y-98933000D03*
X158877000Y-98933000D03*
X145288000Y-99314000D03*
X147447000Y-101219000D03*
X151130000Y-98298000D03*
X151130000Y-97536000D03*
X158115000Y-101473000D03*
X145034000Y-107823000D03*
X140970000Y-104041010D03*
X154813000Y-94361000D03*
X156464000Y-94361000D03*
X157353000Y-94488000D03*
X161250262Y-103798738D03*
X158877000Y-93853000D03*
X153797000Y-95377000D03*
X160528000Y-89662000D03*
X152527000Y-100584000D03*
X156965034Y-93338863D03*
X160274000Y-101092000D03*
X154940000Y-100457000D03*
X139446000Y-103516000D03*
X136525000Y-102362000D03*
X135255000Y-103251000D03*
X139065000Y-102108000D03*
X147066000Y-91059000D03*
X155067000Y-92075000D03*
D41*
X134112000Y-90792300D02*
X134112000Y-91441080D01*
X134112000Y-91441080D02*
X137202000Y-94531080D01*
X137202000Y-94531080D02*
X137202000Y-96528000D01*
X137202000Y-96528000D02*
X137202000Y-97028000D01*
D42*
X136541000Y-105217000D02*
X136541000Y-104567000D01*
X136541000Y-104567000D02*
X137652000Y-103456000D01*
X137652000Y-103456000D02*
X137652000Y-101288000D01*
X137652000Y-101288000D02*
X137102000Y-100738000D01*
D41*
X138627000Y-97221000D02*
X137395000Y-97221000D01*
X137395000Y-97221000D02*
X137202000Y-97028000D01*
D43*
X137102000Y-100838000D02*
X137102000Y-100738000D01*
X137102000Y-100738000D02*
X138068999Y-99771001D01*
X138068999Y-99771001D02*
X139407001Y-99771001D01*
X139407001Y-99771001D02*
X139627000Y-99551002D01*
X139627000Y-99551002D02*
X139627000Y-98021000D01*
X139627000Y-98021000D02*
X138827000Y-97221000D01*
X138827000Y-97221000D02*
X138627000Y-97221000D01*
D41*
X136541000Y-105217000D02*
X136491000Y-105217000D01*
X142621000Y-106765000D02*
X142621000Y-106815000D01*
X142621000Y-106815000D02*
X143096001Y-107290001D01*
X143096001Y-107290001D02*
X143096001Y-108345001D01*
X143096001Y-108345001D02*
X143051001Y-108390001D01*
X143051001Y-108390001D02*
X140314001Y-108390001D01*
X140314001Y-108390001D02*
X137141000Y-105217000D01*
X137141000Y-105217000D02*
X136541000Y-105217000D01*
X143126000Y-105216000D02*
X142626000Y-105216000D01*
X142621000Y-106765000D02*
X142621000Y-105221000D01*
X142621000Y-105221000D02*
X142626000Y-105216000D01*
X154686000Y-98933000D02*
X154686000Y-99568000D01*
X149803000Y-98425000D02*
X150201001Y-98823001D01*
X150201001Y-98823001D02*
X154160999Y-98823001D01*
X154160999Y-98823001D02*
X154686000Y-98298000D01*
X148336000Y-95970000D02*
X148336000Y-95885000D01*
X148336000Y-95885000D02*
X149225000Y-94996000D01*
X140208000Y-105325000D02*
X140208000Y-106299000D01*
X140208000Y-106299000D02*
X140208000Y-107315000D01*
X139700000Y-106807000D02*
X139192000Y-106299000D01*
X133731000Y-87249000D02*
X134366000Y-87249000D01*
X148717000Y-87376000D02*
X149352000Y-87376000D01*
X148844000Y-88392000D02*
X148844000Y-88138000D01*
X148844000Y-88138000D02*
X148082000Y-87376000D01*
X141926000Y-102516000D02*
X140997000Y-102516000D01*
X140997000Y-102516000D02*
X140843000Y-102362000D01*
X142367000Y-99314000D02*
X142367000Y-100076000D01*
X142621000Y-98213000D02*
X142621000Y-98806000D01*
X142621000Y-98806000D02*
X143129000Y-99314000D01*
X152146000Y-102701000D02*
X152146000Y-101890534D01*
X152146000Y-101890534D02*
X152235828Y-101800706D01*
X149860000Y-102616000D02*
X149352000Y-102108000D01*
X152146000Y-102701000D02*
X150791000Y-102701000D01*
X150791000Y-102701000D02*
X150241000Y-103251000D01*
X153797000Y-108966000D02*
X153162000Y-108966000D01*
X157480000Y-107696000D02*
X157480000Y-108438462D01*
X157480000Y-108438462D02*
X156952462Y-108966000D01*
X156952462Y-108966000D02*
X154432000Y-108966000D01*
X146685000Y-105283000D02*
X146685000Y-105537000D01*
X146685000Y-105537000D02*
X147193000Y-106045000D01*
X147447000Y-104055000D02*
X147447000Y-105283000D01*
D42*
X140081000Y-93218000D02*
X139700000Y-93218000D01*
X139700000Y-93218000D02*
X139446000Y-93472000D01*
X141494000Y-94118000D02*
X140473000Y-94118000D01*
X140473000Y-94118000D02*
X140208000Y-93853000D01*
D43*
X148209000Y-98298000D02*
X148844000Y-98298000D01*
X149803000Y-98425000D02*
X148971000Y-98425000D01*
X148971000Y-98425000D02*
X148844000Y-98298000D01*
D41*
X157764500Y-100470500D02*
X157764500Y-99545500D01*
X157764500Y-99545500D02*
X157152000Y-98933000D01*
X141926000Y-102516000D02*
X143126000Y-102516000D01*
X143126000Y-102516000D02*
X143226000Y-102616000D01*
X145288000Y-99314000D02*
X145288000Y-97829000D01*
X145288000Y-97829000D02*
X144741000Y-97282000D01*
X149537000Y-105283000D02*
X149537000Y-103309000D01*
X149537000Y-103309000D02*
X147447000Y-101219000D01*
D43*
X142621000Y-97113000D02*
X143637000Y-97113000D01*
X143637000Y-97113000D02*
X144572000Y-97113000D01*
X143494000Y-94118000D02*
X143494000Y-96970000D01*
X143494000Y-96970000D02*
X143637000Y-97113000D01*
X144572000Y-97113000D02*
X144741000Y-97282000D01*
X142621000Y-97113000D02*
X141135000Y-97113000D01*
X141135000Y-97113000D02*
X141027000Y-97221000D01*
D41*
X157351500Y-101157500D02*
X158115000Y-101157500D01*
X158115000Y-101157500D02*
X158264500Y-101157500D01*
X158115000Y-101473000D02*
X158115000Y-101157500D01*
X151172000Y-96012000D02*
X151172000Y-94753000D01*
X151172000Y-94753000D02*
X149833000Y-93414000D01*
X149833000Y-93414000D02*
X149733000Y-93414000D01*
X152712000Y-94615000D02*
X152712000Y-92229000D01*
X152712000Y-92229000D02*
X155025000Y-89916000D01*
X155025000Y-89916000D02*
X155575000Y-89916000D01*
X154305000Y-108019000D02*
X155887000Y-108019000D01*
X155887000Y-108019000D02*
X156210000Y-107696000D01*
D43*
X151130000Y-98298000D02*
X151130000Y-97536000D01*
X152203000Y-97475000D02*
X151191000Y-97475000D01*
X151191000Y-97475000D02*
X151130000Y-97536000D01*
D41*
X158580000Y-101473000D02*
X158264500Y-101157500D01*
X159258000Y-102151000D02*
X158580000Y-101473000D01*
X152781000Y-108019000D02*
X154305000Y-108019000D01*
X157264500Y-100470500D02*
X157264500Y-101070500D01*
X157264500Y-101070500D02*
X157351500Y-101157500D01*
X159258000Y-102701000D02*
X159258000Y-102151000D01*
X158264500Y-101157500D02*
X158264500Y-101070500D01*
X158264500Y-101070500D02*
X158264500Y-100470500D01*
X152712000Y-96139000D02*
X152712000Y-94615000D01*
X152712000Y-96139000D02*
X152712000Y-96239000D01*
X152712000Y-96239000D02*
X152203000Y-96748000D01*
X152203000Y-96748000D02*
X152203000Y-97043000D01*
X151172000Y-96012000D02*
X151122000Y-96012000D01*
X152203000Y-97475000D02*
X152203000Y-97043000D01*
X152203000Y-97043000D02*
X151172000Y-96012000D01*
X144568000Y-107765000D02*
X144780000Y-107977000D01*
X144780000Y-107977000D02*
X145736001Y-108933001D01*
X145034000Y-107823000D02*
X144934000Y-107823000D01*
X144934000Y-107823000D02*
X144780000Y-107977000D01*
X140843000Y-104016000D02*
X140417000Y-104016000D01*
X141926000Y-104016000D02*
X140843000Y-104016000D01*
X140843000Y-104016000D02*
X140944990Y-104016000D01*
X140944990Y-104016000D02*
X140970000Y-104041010D01*
X144018000Y-107765000D02*
X144568000Y-107765000D01*
X151316999Y-108933001D02*
X152231000Y-108019000D01*
X145736001Y-108933001D02*
X151316999Y-108933001D01*
X152231000Y-108019000D02*
X152781000Y-108019000D01*
X140417000Y-104016000D02*
X140208000Y-104225000D01*
X159264500Y-95670500D02*
X159264500Y-95070500D01*
X159264500Y-95070500D02*
X159402001Y-94932999D01*
X159402001Y-94932999D02*
X159402001Y-91094999D01*
X157529001Y-89221999D02*
X154996001Y-89221999D01*
X151575000Y-92643000D02*
X151000000Y-92643000D01*
X159402001Y-91094999D02*
X157529001Y-89221999D01*
X154996001Y-89221999D02*
X151575000Y-92643000D01*
X151000000Y-92643000D02*
X149862000Y-92643000D01*
X149862000Y-92643000D02*
X149733000Y-92514000D01*
X148209000Y-92372000D02*
X149591000Y-92372000D01*
X149591000Y-92372000D02*
X149733000Y-92514000D01*
D43*
X130556000Y-88011000D02*
X136271000Y-88011000D01*
X136271000Y-88011000D02*
X137160000Y-88900000D01*
X137160000Y-88900000D02*
X137160000Y-90424000D01*
X137160000Y-90424000D02*
X138753999Y-92017999D01*
X138753999Y-92017999D02*
X144274001Y-92017999D01*
X144274001Y-92017999D02*
X147320000Y-95063998D01*
X147320000Y-95063998D02*
X147320000Y-97282000D01*
X147320000Y-97282000D02*
X148209000Y-97282000D01*
X148209000Y-97282000D02*
X149610000Y-97282000D01*
D41*
X148336000Y-97070000D02*
X148336000Y-97155000D01*
X148336000Y-97155000D02*
X148209000Y-97282000D01*
X147505000Y-99441000D02*
X147505000Y-97467000D01*
X147505000Y-97467000D02*
X147320000Y-97282000D01*
D43*
X146851000Y-97282000D02*
X147320000Y-97282000D01*
X149610000Y-97282000D02*
X149803000Y-97475000D01*
D41*
X153612000Y-94615000D02*
X154686000Y-94615000D01*
X154686000Y-94615000D02*
X155434000Y-94615000D01*
X154813000Y-94361000D02*
X154686000Y-94488000D01*
X154686000Y-94488000D02*
X154686000Y-94615000D01*
X155434000Y-94615000D02*
X156264500Y-95445500D01*
X156264500Y-95445500D02*
X156264500Y-95670500D01*
X156210000Y-106426000D02*
X154998000Y-106426000D01*
X154998000Y-106426000D02*
X154305000Y-107119000D01*
X156464000Y-94361000D02*
X156764500Y-94661500D01*
X156764500Y-94661500D02*
X156764500Y-95670500D01*
X152781000Y-107119000D02*
X153331000Y-107119000D01*
X153331000Y-107119000D02*
X154774001Y-105675999D01*
X154774001Y-105675999D02*
X156729999Y-105675999D01*
X156729999Y-105675999D02*
X156955001Y-105901001D01*
X156955001Y-105901001D02*
X157480000Y-106426000D01*
X157353000Y-94488000D02*
X157353000Y-95582000D01*
X157353000Y-95582000D02*
X157264500Y-95670500D01*
X158764500Y-95670500D02*
X158764500Y-93965500D01*
X158764500Y-93965500D02*
X158877000Y-93853000D01*
X158747000Y-92643000D02*
X158747000Y-93723000D01*
X158747000Y-93723000D02*
X158877000Y-93853000D01*
X157099000Y-90995000D02*
X158747000Y-92643000D01*
X157099000Y-90847000D02*
X157099000Y-90995000D01*
X155575000Y-90816000D02*
X157068000Y-90816000D01*
X157068000Y-90816000D02*
X157099000Y-90847000D01*
X161290000Y-106934000D02*
X161290000Y-103838476D01*
X161290000Y-103838476D02*
X161250262Y-103798738D01*
X153797000Y-95377000D02*
X153797000Y-95954000D01*
X153797000Y-95954000D02*
X153612000Y-96139000D01*
X165703000Y-95918000D02*
X165703000Y-94567998D01*
X165703000Y-94567998D02*
X160797002Y-89662000D01*
X160797002Y-89662000D02*
X160528000Y-89662000D01*
X155614500Y-96320500D02*
X153793500Y-96320500D01*
X153793500Y-96320500D02*
X153612000Y-96139000D01*
X144626000Y-101316000D02*
X144626000Y-100641000D01*
X144626000Y-100641000D02*
X144683000Y-100584000D01*
X144683000Y-100584000D02*
X144877998Y-100584000D01*
X152527000Y-100584000D02*
X144877998Y-100584000D01*
X158264500Y-95670500D02*
X158264500Y-93798809D01*
X158264500Y-93798809D02*
X157742282Y-93276591D01*
X157742282Y-93276591D02*
X157027306Y-93276591D01*
X157027306Y-93276591D02*
X156965034Y-93338863D01*
X144126000Y-101316000D02*
X144126000Y-100641000D01*
X144126000Y-100641000D02*
X144800999Y-99966001D01*
X144800999Y-99966001D02*
X154024737Y-99966001D01*
X154024737Y-99966001D02*
X154515736Y-100457000D01*
X154515736Y-100457000D02*
X154940000Y-100457000D01*
X159764500Y-100470500D02*
X159764500Y-100582500D01*
X159764500Y-100582500D02*
X160274000Y-101092000D01*
X159764500Y-95670500D02*
X162197498Y-95670500D01*
X165078001Y-97293001D02*
X165703000Y-97918000D01*
X162197498Y-95670500D02*
X163594997Y-97067999D01*
X163594997Y-97067999D02*
X164852999Y-97067999D01*
X164852999Y-97067999D02*
X165078001Y-97293001D01*
X159264500Y-100470500D02*
X159264500Y-101070500D01*
X159264500Y-101070500D02*
X162336990Y-104142990D01*
X163078001Y-105293001D02*
X163703000Y-105918000D01*
X162336990Y-104142990D02*
X162336990Y-104551990D01*
X162336990Y-104551990D02*
X163078001Y-105293001D01*
X160414500Y-99820500D02*
X160780500Y-99820500D01*
X161452959Y-101915937D02*
X162687000Y-103149978D01*
X162687000Y-104394000D02*
X163360999Y-105067999D01*
X163360999Y-105067999D02*
X164852999Y-105067999D01*
X160780500Y-99820500D02*
X161452959Y-100492959D01*
X161452959Y-100492959D02*
X161452959Y-101915937D01*
X162687000Y-103149978D02*
X162687000Y-104394000D01*
X164852999Y-105067999D02*
X165078001Y-105293001D01*
X165078001Y-105293001D02*
X165703000Y-105918000D01*
X160414500Y-99320500D02*
X160794502Y-99320500D01*
X160794502Y-99320500D02*
X161802969Y-100328967D01*
X161802969Y-100328967D02*
X161802969Y-101770959D01*
X161802969Y-101770959D02*
X163703000Y-103670990D01*
X163703000Y-103670990D02*
X163703000Y-103918000D01*
X160414500Y-98820500D02*
X160796500Y-98820500D01*
X160796500Y-98820500D02*
X162152979Y-100176979D01*
X162152979Y-100176979D02*
X162152979Y-101625981D01*
X162152979Y-101625981D02*
X163594997Y-103067999D01*
X163594997Y-103067999D02*
X164852999Y-103067999D01*
X165078001Y-103293001D02*
X165703000Y-103918000D01*
X164852999Y-103067999D02*
X165078001Y-103293001D01*
X160414500Y-98320500D02*
X160794502Y-98320500D01*
X160794502Y-98320500D02*
X162502989Y-100028987D01*
X162502989Y-100028987D02*
X162502989Y-100717989D01*
X162502989Y-100717989D02*
X163703000Y-101918000D01*
X160414500Y-97820500D02*
X161014500Y-97820500D01*
X165078001Y-101293001D02*
X165703000Y-101918000D01*
X161014500Y-97820500D02*
X162852999Y-99658999D01*
X162852999Y-99658999D02*
X162852999Y-100326001D01*
X162852999Y-100326001D02*
X163594997Y-101067999D01*
X164852999Y-101067999D02*
X165078001Y-101293001D01*
X163594997Y-101067999D02*
X164852999Y-101067999D01*
X160414500Y-97320500D02*
X161019512Y-97320500D01*
X161019512Y-97320500D02*
X163617012Y-99918000D01*
X163617012Y-99918000D02*
X163703000Y-99918000D01*
X160414500Y-96820500D02*
X161014500Y-96820500D01*
X161014500Y-96820500D02*
X163261999Y-99067999D01*
X163261999Y-99067999D02*
X164852999Y-99067999D01*
X164852999Y-99067999D02*
X165078001Y-99293001D01*
X165078001Y-99293001D02*
X165703000Y-99918000D01*
X160414500Y-96320500D02*
X162105500Y-96320500D01*
X162105500Y-96320500D02*
X163703000Y-97918000D01*
X141926000Y-103516000D02*
X139446000Y-103516000D01*
X139446000Y-103516000D02*
X139319000Y-103516000D01*
X134747000Y-101600000D02*
X135509000Y-102362000D01*
X135509000Y-102362000D02*
X136525000Y-102362000D01*
X134747000Y-97868500D02*
X134747000Y-101600000D01*
X133411000Y-97457500D02*
X134336000Y-97457500D01*
X134336000Y-97457500D02*
X134747000Y-97868500D01*
X139319000Y-103516000D02*
X138740000Y-103516000D01*
X138740000Y-103516000D02*
X138541000Y-103317000D01*
X134366000Y-101981000D02*
X135509000Y-103124000D01*
X135509000Y-103124000D02*
X135702000Y-103317000D01*
X135255000Y-103251000D02*
X135382000Y-103251000D01*
X135382000Y-103251000D02*
X135509000Y-103124000D01*
X141926000Y-103016000D02*
X139973000Y-103016000D01*
X139973000Y-103016000D02*
X139065000Y-102108000D01*
X133411000Y-98107500D02*
X134041002Y-98107500D01*
X134041002Y-98107500D02*
X134366000Y-98432498D01*
X134366000Y-98432498D02*
X134366000Y-101981000D01*
X135702000Y-103317000D02*
X136541000Y-103317000D01*
X149720300Y-90043000D02*
X149720300Y-88415700D01*
X149720300Y-88415700D02*
X149744000Y-88392000D01*
X137102000Y-99314000D02*
X137295000Y-99121000D01*
X137295000Y-99121000D02*
X138627000Y-99121000D01*
X149803000Y-99375000D02*
X148471000Y-99375000D01*
X148471000Y-99375000D02*
X148405000Y-99441000D01*
X149795000Y-99383000D02*
X149803000Y-99375000D01*
X157734000Y-102743000D02*
X156332000Y-102743000D01*
X156332000Y-102743000D02*
X156040000Y-102451000D01*
X156040000Y-102451000D02*
X156764500Y-101726500D01*
X156764500Y-101726500D02*
X156764500Y-100470500D01*
D43*
X133411000Y-96807500D02*
X134357764Y-96807500D01*
X134357764Y-96807500D02*
X135255000Y-97704736D01*
X135255000Y-97704736D02*
X135255000Y-100591000D01*
X135255000Y-100591000D02*
X135502000Y-100838000D01*
X135502000Y-100838000D02*
X136202000Y-100838000D01*
D41*
X143626000Y-105216000D02*
X143626000Y-106473000D01*
X143626000Y-106473000D02*
X144018000Y-106865000D01*
X147066000Y-91059000D02*
X147205700Y-91059000D01*
X147205700Y-91059000D02*
X148221700Y-90043000D01*
X157764500Y-95670500D02*
X157764500Y-95070500D01*
X155067000Y-92186998D02*
X155067000Y-92075000D01*
X157764500Y-95070500D02*
X157878001Y-94956999D01*
X157878001Y-94956999D02*
X157878001Y-94235999D01*
X157878001Y-94235999D02*
X157505866Y-93863864D01*
X157505866Y-93863864D02*
X156743866Y-93863864D01*
X156743866Y-93863864D02*
X155067000Y-92186998D01*
X145826000Y-103016000D02*
X147386000Y-103016000D01*
X147386000Y-103016000D02*
X147447000Y-102955000D01*
X141926000Y-104516000D02*
X141926000Y-106563000D01*
X141926000Y-106563000D02*
X141724000Y-106765000D01*
X141724000Y-106765000D02*
X141224000Y-106765000D01*
X158764500Y-100470500D02*
X158764500Y-101070500D01*
X158764500Y-101070500D02*
X159733001Y-102039001D01*
X159733001Y-102039001D02*
X159733001Y-104281001D01*
X159733001Y-104281001D02*
X158731002Y-105283000D01*
X158731002Y-105283000D02*
X150887000Y-105283000D01*
X150887000Y-105283000D02*
X150437000Y-105283000D01*
X150537000Y-108204000D02*
X150537000Y-106907000D01*
X150537000Y-106907000D02*
X150437000Y-106807000D01*
X150437000Y-105283000D02*
X150437000Y-106807000D01*
X150506000Y-106923000D02*
X150495000Y-106934000D01*
X152146000Y-103801000D02*
X152146000Y-103751000D01*
X152146000Y-103751000D02*
X152914999Y-102982001D01*
X152914999Y-102982001D02*
X152914999Y-101670999D01*
X152914999Y-101670999D02*
X153366998Y-101219000D01*
X153366998Y-101219000D02*
X155741000Y-101219000D01*
X155741000Y-101219000D02*
X156264500Y-100695500D01*
X156264500Y-100695500D02*
X156264500Y-100470500D01*
X153840000Y-104051000D02*
X152396000Y-104051000D01*
X152396000Y-104051000D02*
X152146000Y-103801000D01*
X134112000Y-89293700D02*
X135590700Y-89293700D01*
X135590700Y-89293700D02*
X135890000Y-89593000D01*
X140208000Y-95261000D02*
X140208000Y-98502000D01*
X140208000Y-98502000D02*
X140827000Y-99121000D01*
X140827000Y-99121000D02*
X141027000Y-99121000D01*
X135890000Y-90493000D02*
X135890000Y-90943000D01*
X135890000Y-90943000D02*
X140208000Y-95261000D01*
D44*
G36*
X138002827Y-90268000D02*
X138015901Y-90337483D01*
X138056966Y-90401299D01*
X138119623Y-90444111D01*
X138194000Y-90459173D01*
X139894000Y-90459173D01*
X139963483Y-90446099D01*
X140027299Y-90405034D01*
X140070111Y-90342377D01*
X140085173Y-90268000D01*
X140085173Y-87003500D01*
X144902827Y-87003500D01*
X144902827Y-90268000D01*
X144915901Y-90337483D01*
X144956966Y-90401299D01*
X145019623Y-90444111D01*
X145094000Y-90459173D01*
X146794000Y-90459173D01*
X146863483Y-90446099D01*
X146927299Y-90405034D01*
X146970111Y-90342377D01*
X146985173Y-90268000D01*
X146985173Y-88621125D01*
X148327500Y-88621125D01*
X148327500Y-88754956D01*
X148375684Y-88871283D01*
X148464717Y-88960316D01*
X148581044Y-89008500D01*
X148664875Y-89008500D01*
X148744000Y-88929375D01*
X148744000Y-88542000D01*
X148406625Y-88542000D01*
X148327500Y-88621125D01*
X146985173Y-88621125D01*
X146985173Y-88029044D01*
X148327500Y-88029044D01*
X148327500Y-88162875D01*
X148406625Y-88242000D01*
X148744000Y-88242000D01*
X148744000Y-87854625D01*
X148944000Y-87854625D01*
X148944000Y-88242000D01*
X149044000Y-88242000D01*
X149044000Y-88542000D01*
X148944000Y-88542000D01*
X148944000Y-88929375D01*
X149023125Y-89008500D01*
X149106956Y-89008500D01*
X149223283Y-88960316D01*
X149312316Y-88871283D01*
X149360500Y-88754956D01*
X149360500Y-88732779D01*
X149365901Y-88761483D01*
X149406966Y-88825299D01*
X149407800Y-88825869D01*
X149407800Y-89453047D01*
X149321520Y-89453047D01*
X149252037Y-89466121D01*
X149188221Y-89507186D01*
X149145409Y-89569843D01*
X149130347Y-89644220D01*
X149130347Y-90441780D01*
X149143421Y-90511263D01*
X149184486Y-90575079D01*
X149247143Y-90617891D01*
X149321520Y-90632953D01*
X150119080Y-90632953D01*
X150188563Y-90619879D01*
X150252379Y-90578814D01*
X150295191Y-90516157D01*
X150310253Y-90441780D01*
X150310253Y-89644220D01*
X150297179Y-89574737D01*
X150256114Y-89510921D01*
X150193457Y-89468109D01*
X150119080Y-89453047D01*
X150032800Y-89453047D01*
X150032800Y-88857669D01*
X150077299Y-88829034D01*
X150120111Y-88766377D01*
X150135173Y-88692000D01*
X150135173Y-88092000D01*
X150122099Y-88022517D01*
X150081034Y-87958701D01*
X150018377Y-87915889D01*
X149944000Y-87900827D01*
X149544000Y-87900827D01*
X149474517Y-87913901D01*
X149410701Y-87954966D01*
X149367889Y-88017623D01*
X149360500Y-88054110D01*
X149360500Y-88029044D01*
X149312316Y-87912717D01*
X149223283Y-87823684D01*
X149106956Y-87775500D01*
X149023125Y-87775500D01*
X148944000Y-87854625D01*
X148744000Y-87854625D01*
X148664875Y-87775500D01*
X148581044Y-87775500D01*
X148464717Y-87823684D01*
X148375684Y-87912717D01*
X148327500Y-88029044D01*
X146985173Y-88029044D01*
X146985173Y-87713625D01*
X150358500Y-87713625D01*
X150358500Y-88030956D01*
X150406684Y-88147283D01*
X150495717Y-88236316D01*
X150612044Y-88284500D01*
X150758375Y-88284500D01*
X150837500Y-88205375D01*
X150837500Y-87634500D01*
X151162500Y-87634500D01*
X151162500Y-88205375D01*
X151241625Y-88284500D01*
X151387956Y-88284500D01*
X151504283Y-88236316D01*
X151593316Y-88147283D01*
X151641500Y-88030956D01*
X151641500Y-87713625D01*
X151562375Y-87634500D01*
X151162500Y-87634500D01*
X150837500Y-87634500D01*
X150437625Y-87634500D01*
X150358500Y-87713625D01*
X146985173Y-87713625D01*
X146985173Y-87003500D01*
X150358500Y-87003500D01*
X150358500Y-87172375D01*
X150437625Y-87251500D01*
X150837500Y-87251500D01*
X150837500Y-87231500D01*
X151162500Y-87231500D01*
X151162500Y-87251500D01*
X151562375Y-87251500D01*
X151641500Y-87172375D01*
X151641500Y-87003500D01*
X153283827Y-87003500D01*
X153283827Y-87968000D01*
X153296901Y-88037483D01*
X153337966Y-88101299D01*
X153400623Y-88144111D01*
X153475000Y-88159173D01*
X154125000Y-88159173D01*
X154194483Y-88146099D01*
X154258299Y-88105034D01*
X154301111Y-88042377D01*
X154316173Y-87968000D01*
X154316173Y-87713625D01*
X158105500Y-87713625D01*
X158105500Y-88030956D01*
X158153684Y-88147283D01*
X158242717Y-88236316D01*
X158359044Y-88284500D01*
X158505375Y-88284500D01*
X158584500Y-88205375D01*
X158584500Y-87634500D01*
X158909500Y-87634500D01*
X158909500Y-88205375D01*
X158988625Y-88284500D01*
X159134956Y-88284500D01*
X159251283Y-88236316D01*
X159340316Y-88147283D01*
X159388500Y-88030956D01*
X159388500Y-87713625D01*
X159309375Y-87634500D01*
X158909500Y-87634500D01*
X158584500Y-87634500D01*
X158184625Y-87634500D01*
X158105500Y-87713625D01*
X154316173Y-87713625D01*
X154316173Y-87003500D01*
X158105500Y-87003500D01*
X158105500Y-87172375D01*
X158184625Y-87251500D01*
X158584500Y-87251500D01*
X158584500Y-87231500D01*
X158909500Y-87231500D01*
X158909500Y-87251500D01*
X159309375Y-87251500D01*
X159388500Y-87172375D01*
X159388500Y-87003500D01*
X161030827Y-87003500D01*
X161030827Y-87968000D01*
X161043901Y-88037483D01*
X161084966Y-88101299D01*
X161147623Y-88144111D01*
X161222000Y-88159173D01*
X161872000Y-88159173D01*
X161941483Y-88146099D01*
X162005299Y-88105034D01*
X162048111Y-88042377D01*
X162063173Y-87968000D01*
X162063173Y-87609488D01*
X163191310Y-87609488D01*
X164592000Y-89010178D01*
X165992690Y-87609488D01*
X165760645Y-87346698D01*
X164931462Y-87046717D01*
X164050599Y-87086885D01*
X163423355Y-87346698D01*
X163191310Y-87609488D01*
X162063173Y-87609488D01*
X162063173Y-87003500D01*
X166869500Y-87003500D01*
X166869500Y-109211500D01*
X151451873Y-109211500D01*
X151537970Y-109153972D01*
X152030595Y-108661347D01*
X163230475Y-108661347D01*
X163305026Y-108791563D01*
X163669618Y-108877365D01*
X164039292Y-108817112D01*
X164100974Y-108791563D01*
X164175525Y-108661347D01*
X163703000Y-108188822D01*
X163230475Y-108661347D01*
X152030595Y-108661347D01*
X152342273Y-108349669D01*
X152343966Y-108352299D01*
X152406623Y-108395111D01*
X152481000Y-108410173D01*
X153081000Y-108410173D01*
X153150483Y-108397099D01*
X153214299Y-108356034D01*
X153231062Y-108331500D01*
X153854582Y-108331500D01*
X153867966Y-108352299D01*
X153930623Y-108395111D01*
X154005000Y-108410173D01*
X154605000Y-108410173D01*
X154674483Y-108397099D01*
X154738299Y-108356034D01*
X154755062Y-108331500D01*
X155533295Y-108331500D01*
X155547966Y-108354299D01*
X155610623Y-108397111D01*
X155685000Y-108412173D01*
X156735000Y-108412173D01*
X156804483Y-108399099D01*
X156868299Y-108358034D01*
X156893503Y-108321148D01*
X157009590Y-108437235D01*
X157081580Y-108365245D01*
X157143337Y-108485176D01*
X157470969Y-108553938D01*
X157799976Y-108492088D01*
X157816663Y-108485176D01*
X157878421Y-108365243D01*
X158351579Y-108365243D01*
X158413337Y-108485176D01*
X158740969Y-108553938D01*
X159069976Y-108492088D01*
X159086663Y-108485176D01*
X159148421Y-108365243D01*
X158750000Y-107966822D01*
X158351579Y-108365243D01*
X157878421Y-108365243D01*
X157480000Y-107966822D01*
X157465858Y-107980964D01*
X157195036Y-107710142D01*
X157209178Y-107696000D01*
X157750822Y-107696000D01*
X157926852Y-107872030D01*
X157953912Y-108015976D01*
X157960824Y-108032663D01*
X158080757Y-108094421D01*
X158115000Y-108060178D01*
X158149243Y-108094421D01*
X158269176Y-108032663D01*
X158302820Y-107872358D01*
X158479178Y-107696000D01*
X158303148Y-107519970D01*
X158276088Y-107376024D01*
X158269176Y-107359337D01*
X158149243Y-107297579D01*
X158115000Y-107331822D01*
X158080757Y-107297579D01*
X157960824Y-107359337D01*
X157927180Y-107519642D01*
X157750822Y-107696000D01*
X157209178Y-107696000D01*
X157195036Y-107681858D01*
X157465858Y-107411036D01*
X157480000Y-107425178D01*
X157868970Y-107036208D01*
X157883072Y-107030381D01*
X158083676Y-106830126D01*
X158114942Y-106754828D01*
X158145619Y-106829072D01*
X158345874Y-107029676D01*
X158360622Y-107035800D01*
X158750000Y-107425178D01*
X159138970Y-107036208D01*
X159153072Y-107030381D01*
X159353676Y-106830126D01*
X159384942Y-106754828D01*
X159415619Y-106829072D01*
X159615874Y-107029676D01*
X159691172Y-107060942D01*
X159616928Y-107091619D01*
X159416324Y-107291874D01*
X159410200Y-107306622D01*
X159020822Y-107696000D01*
X159409792Y-108084970D01*
X159415619Y-108099072D01*
X159615874Y-108299676D01*
X159877653Y-108408376D01*
X160161103Y-108408624D01*
X160266093Y-108365243D01*
X160891579Y-108365243D01*
X160953337Y-108485176D01*
X161280969Y-108553938D01*
X161609976Y-108492088D01*
X161626663Y-108485176D01*
X161688421Y-108365243D01*
X161290000Y-107966822D01*
X160891579Y-108365243D01*
X160266093Y-108365243D01*
X160423072Y-108300381D01*
X160623676Y-108100126D01*
X160629800Y-108085378D01*
X161019178Y-107696000D01*
X161560822Y-107696000D01*
X161959243Y-108094421D01*
X162079176Y-108032663D01*
X162110247Y-107884618D01*
X162743635Y-107884618D01*
X162803888Y-108254292D01*
X162829437Y-108315974D01*
X162959653Y-108390525D01*
X163432178Y-107918000D01*
X163973822Y-107918000D01*
X164446347Y-108390525D01*
X164576563Y-108315974D01*
X164632353Y-108078907D01*
X164890359Y-108078907D01*
X165013794Y-108377643D01*
X165242155Y-108606402D01*
X165540675Y-108730359D01*
X165863907Y-108730641D01*
X166162643Y-108607206D01*
X166391402Y-108378845D01*
X166515359Y-108080325D01*
X166515641Y-107757093D01*
X166392206Y-107458357D01*
X166163845Y-107229598D01*
X165865325Y-107105641D01*
X165542093Y-107105359D01*
X165243357Y-107228794D01*
X165014598Y-107457155D01*
X164890641Y-107755675D01*
X164890359Y-108078907D01*
X164632353Y-108078907D01*
X164662365Y-107951382D01*
X164602112Y-107581708D01*
X164576563Y-107520026D01*
X164446347Y-107445475D01*
X163973822Y-107918000D01*
X163432178Y-107918000D01*
X162959653Y-107445475D01*
X162829437Y-107520026D01*
X162743635Y-107884618D01*
X162110247Y-107884618D01*
X162147938Y-107705031D01*
X162086088Y-107376024D01*
X162079176Y-107359337D01*
X161959243Y-107297579D01*
X161560822Y-107696000D01*
X161019178Y-107696000D01*
X160630208Y-107307030D01*
X160624381Y-107292928D01*
X160424126Y-107092324D01*
X160348828Y-107061058D01*
X160423072Y-107030381D01*
X160623676Y-106830126D01*
X160654942Y-106754828D01*
X160685619Y-106829072D01*
X160885874Y-107029676D01*
X160900622Y-107035800D01*
X161290000Y-107425178D01*
X161540525Y-107174653D01*
X163230475Y-107174653D01*
X163703000Y-107647178D01*
X164175525Y-107174653D01*
X164100974Y-107044437D01*
X163736382Y-106958635D01*
X163366708Y-107018888D01*
X163305026Y-107044437D01*
X163230475Y-107174653D01*
X161540525Y-107174653D01*
X161678970Y-107036208D01*
X161693072Y-107030381D01*
X161893676Y-106830126D01*
X162002376Y-106568347D01*
X162002624Y-106284897D01*
X161894381Y-106022928D01*
X161694126Y-105822324D01*
X161602500Y-105784278D01*
X161602500Y-104135943D01*
X161663304Y-104075245D01*
X161711422Y-103959364D01*
X162024490Y-104272432D01*
X162024490Y-104551990D01*
X162048278Y-104671579D01*
X162094247Y-104740377D01*
X162116019Y-104772961D01*
X162951696Y-105608638D01*
X162890641Y-105755675D01*
X162890359Y-106078907D01*
X163013794Y-106377643D01*
X163242155Y-106606402D01*
X163540675Y-106730359D01*
X163863907Y-106730641D01*
X164162643Y-106607206D01*
X164391402Y-106378845D01*
X164515359Y-106080325D01*
X164515641Y-105757093D01*
X164392206Y-105458357D01*
X164314483Y-105380499D01*
X164723557Y-105380499D01*
X164951696Y-105608638D01*
X164890641Y-105755675D01*
X164890359Y-106078907D01*
X165013794Y-106377643D01*
X165242155Y-106606402D01*
X165540675Y-106730359D01*
X165863907Y-106730641D01*
X166162643Y-106607206D01*
X166391402Y-106378845D01*
X166515359Y-106080325D01*
X166515641Y-105757093D01*
X166392206Y-105458357D01*
X166163845Y-105229598D01*
X165865325Y-105105641D01*
X165542093Y-105105359D01*
X165393640Y-105166698D01*
X165073970Y-104847028D01*
X165033220Y-104819800D01*
X164972588Y-104779287D01*
X164852999Y-104755499D01*
X163490441Y-104755499D01*
X163411778Y-104676836D01*
X163540675Y-104730359D01*
X163863907Y-104730641D01*
X164162643Y-104607206D01*
X164391402Y-104378845D01*
X164515359Y-104080325D01*
X164515641Y-103757093D01*
X164392206Y-103458357D01*
X164314483Y-103380499D01*
X164723557Y-103380499D01*
X164951696Y-103608638D01*
X164890641Y-103755675D01*
X164890359Y-104078907D01*
X165013794Y-104377643D01*
X165242155Y-104606402D01*
X165540675Y-104730359D01*
X165863907Y-104730641D01*
X166162643Y-104607206D01*
X166391402Y-104378845D01*
X166515359Y-104080325D01*
X166515641Y-103757093D01*
X166392206Y-103458357D01*
X166163845Y-103229598D01*
X165865325Y-103105641D01*
X165542093Y-103105359D01*
X165393640Y-103166698D01*
X165073970Y-102847028D01*
X165020798Y-102811500D01*
X164972588Y-102779287D01*
X164852999Y-102755499D01*
X163724439Y-102755499D01*
X163699438Y-102730498D01*
X163863907Y-102730641D01*
X164162643Y-102607206D01*
X164391402Y-102378845D01*
X164515359Y-102080325D01*
X164515641Y-101757093D01*
X164392206Y-101458357D01*
X164314483Y-101380499D01*
X164723557Y-101380499D01*
X164951696Y-101608638D01*
X164890641Y-101755675D01*
X164890359Y-102078907D01*
X165013794Y-102377643D01*
X165242155Y-102606402D01*
X165540675Y-102730359D01*
X165863907Y-102730641D01*
X166162643Y-102607206D01*
X166391402Y-102378845D01*
X166515359Y-102080325D01*
X166515641Y-101757093D01*
X166392206Y-101458357D01*
X166163845Y-101229598D01*
X165865325Y-101105641D01*
X165542093Y-101105359D01*
X165393640Y-101166698D01*
X165073970Y-100847028D01*
X165070935Y-100845000D01*
X164972588Y-100779287D01*
X164852999Y-100755499D01*
X163724439Y-100755499D01*
X163699438Y-100730498D01*
X163863907Y-100730641D01*
X164162643Y-100607206D01*
X164391402Y-100378845D01*
X164515359Y-100080325D01*
X164515641Y-99757093D01*
X164392206Y-99458357D01*
X164314483Y-99380499D01*
X164723557Y-99380499D01*
X164951696Y-99608638D01*
X164890641Y-99755675D01*
X164890359Y-100078907D01*
X165013794Y-100377643D01*
X165242155Y-100606402D01*
X165540675Y-100730359D01*
X165863907Y-100730641D01*
X166162643Y-100607206D01*
X166391402Y-100378845D01*
X166515359Y-100080325D01*
X166515641Y-99757093D01*
X166392206Y-99458357D01*
X166163845Y-99229598D01*
X165865325Y-99105641D01*
X165542093Y-99105359D01*
X165393640Y-99166698D01*
X165073970Y-98847028D01*
X165047737Y-98829500D01*
X164972588Y-98779287D01*
X164852999Y-98755499D01*
X163391441Y-98755499D01*
X163242478Y-98606536D01*
X163540675Y-98730359D01*
X163863907Y-98730641D01*
X164162643Y-98607206D01*
X164391402Y-98378845D01*
X164515359Y-98080325D01*
X164515641Y-97757093D01*
X164392206Y-97458357D01*
X164314483Y-97380499D01*
X164723557Y-97380499D01*
X164951696Y-97608638D01*
X164890641Y-97755675D01*
X164890359Y-98078907D01*
X165013794Y-98377643D01*
X165242155Y-98606402D01*
X165540675Y-98730359D01*
X165863907Y-98730641D01*
X166162643Y-98607206D01*
X166391402Y-98378845D01*
X166515359Y-98080325D01*
X166515641Y-97757093D01*
X166392206Y-97458357D01*
X166163845Y-97229598D01*
X165865325Y-97105641D01*
X165542093Y-97105359D01*
X165393640Y-97166698D01*
X165073970Y-96847028D01*
X165036556Y-96822029D01*
X164972588Y-96779287D01*
X164852999Y-96755499D01*
X163724439Y-96755499D01*
X163699438Y-96730498D01*
X163863907Y-96730641D01*
X164162643Y-96607206D01*
X164391402Y-96378845D01*
X164515359Y-96080325D01*
X164515641Y-95757093D01*
X164392206Y-95458357D01*
X164163845Y-95229598D01*
X163865325Y-95105641D01*
X163542093Y-95105359D01*
X163243357Y-95228794D01*
X163014598Y-95457155D01*
X162890641Y-95755675D01*
X162890496Y-95921556D01*
X162418469Y-95449529D01*
X162393170Y-95432625D01*
X162317087Y-95381788D01*
X162197498Y-95358000D01*
X160080673Y-95358000D01*
X160080673Y-95320500D01*
X160067599Y-95251017D01*
X160026534Y-95187201D01*
X159963877Y-95144389D01*
X159889500Y-95129327D01*
X159639500Y-95129327D01*
X159639429Y-95129340D01*
X159690714Y-95052587D01*
X159714501Y-94932999D01*
X159714501Y-94584544D01*
X160675415Y-94584544D01*
X160749476Y-94763786D01*
X160886493Y-94901042D01*
X161065605Y-94975415D01*
X161187538Y-94975522D01*
X161257476Y-95144786D01*
X161394493Y-95282042D01*
X161573605Y-95356415D01*
X161767544Y-95356585D01*
X161946786Y-95282524D01*
X162084042Y-95145507D01*
X162158415Y-94966395D01*
X162158585Y-94772456D01*
X162084524Y-94593214D01*
X161947507Y-94455958D01*
X161768395Y-94381585D01*
X161646462Y-94381478D01*
X161576524Y-94212214D01*
X161439507Y-94074958D01*
X161260395Y-94000585D01*
X161066456Y-94000415D01*
X160887214Y-94074476D01*
X160749958Y-94211493D01*
X160675585Y-94390605D01*
X160675415Y-94584544D01*
X159714501Y-94584544D01*
X159714501Y-92118000D01*
X161030827Y-92118000D01*
X161030827Y-93168000D01*
X161043901Y-93237483D01*
X161084966Y-93301299D01*
X161147623Y-93344111D01*
X161222000Y-93359173D01*
X161872000Y-93359173D01*
X161941483Y-93346099D01*
X162005299Y-93305034D01*
X162048111Y-93242377D01*
X162063173Y-93168000D01*
X162063173Y-92118000D01*
X162050099Y-92048517D01*
X162009034Y-91984701D01*
X161946377Y-91941889D01*
X161872000Y-91926827D01*
X161222000Y-91926827D01*
X161152517Y-91939901D01*
X161088701Y-91980966D01*
X161045889Y-92043623D01*
X161030827Y-92118000D01*
X159714501Y-92118000D01*
X159714501Y-91094999D01*
X159690713Y-90975410D01*
X159622972Y-90874028D01*
X158507488Y-89758544D01*
X160040415Y-89758544D01*
X160114476Y-89937786D01*
X160251493Y-90075042D01*
X160430605Y-90149415D01*
X160624544Y-90149585D01*
X160778876Y-90085816D01*
X165390500Y-94697440D01*
X165390500Y-95167996D01*
X165243357Y-95228794D01*
X165014598Y-95457155D01*
X164890641Y-95755675D01*
X164890359Y-96078907D01*
X165013794Y-96377643D01*
X165242155Y-96606402D01*
X165540675Y-96730359D01*
X165863907Y-96730641D01*
X166162643Y-96607206D01*
X166391402Y-96378845D01*
X166515359Y-96080325D01*
X166515641Y-95757093D01*
X166392206Y-95458357D01*
X166163845Y-95229598D01*
X166015500Y-95167999D01*
X166015500Y-94567998D01*
X165991712Y-94448409D01*
X165923971Y-94347027D01*
X162529456Y-90952512D01*
X163191310Y-90952512D01*
X163423355Y-91215302D01*
X164252538Y-91515283D01*
X165133401Y-91475115D01*
X165760645Y-91215302D01*
X165992690Y-90952512D01*
X164592000Y-89551822D01*
X163191310Y-90952512D01*
X162529456Y-90952512D01*
X161017973Y-89441029D01*
X160946092Y-89393000D01*
X160943655Y-89391372D01*
X160941524Y-89386214D01*
X160804507Y-89248958D01*
X160625395Y-89174585D01*
X160431456Y-89174415D01*
X160252214Y-89248476D01*
X160114958Y-89385493D01*
X160040585Y-89564605D01*
X160040415Y-89758544D01*
X158507488Y-89758544D01*
X157749972Y-89001028D01*
X157720297Y-88981200D01*
X157660939Y-88941538D01*
X162357717Y-88941538D01*
X162397885Y-89822401D01*
X162657698Y-90449645D01*
X162920488Y-90681690D01*
X164321178Y-89281000D01*
X164862822Y-89281000D01*
X166263512Y-90681690D01*
X166526302Y-90449645D01*
X166826283Y-89620462D01*
X166786115Y-88739599D01*
X166526302Y-88112355D01*
X166263512Y-87880310D01*
X164862822Y-89281000D01*
X164321178Y-89281000D01*
X162920488Y-87880310D01*
X162657698Y-88112355D01*
X162357717Y-88941538D01*
X157660939Y-88941538D01*
X157648590Y-88933287D01*
X157529001Y-88909499D01*
X154996001Y-88909499D01*
X154876412Y-88933287D01*
X154804705Y-88981200D01*
X154775030Y-89001028D01*
X151516173Y-92259885D01*
X151516173Y-92118000D01*
X151503099Y-92048517D01*
X151462034Y-91984701D01*
X151399377Y-91941889D01*
X151325000Y-91926827D01*
X150675000Y-91926827D01*
X150605517Y-91939901D01*
X150541701Y-91980966D01*
X150498889Y-92043623D01*
X150483827Y-92118000D01*
X150483827Y-92330500D01*
X150224173Y-92330500D01*
X150224173Y-92314000D01*
X150211099Y-92244517D01*
X150170034Y-92180701D01*
X150107377Y-92137889D01*
X150033000Y-92122827D01*
X149769764Y-92122827D01*
X149710589Y-92083288D01*
X149591000Y-92059500D01*
X148647821Y-92059500D01*
X148637099Y-92002517D01*
X148596034Y-91938701D01*
X148533377Y-91895889D01*
X148459000Y-91880827D01*
X147959000Y-91880827D01*
X147889517Y-91893901D01*
X147825701Y-91934966D01*
X147782889Y-91997623D01*
X147767827Y-92072000D01*
X147767827Y-92672000D01*
X147780901Y-92741483D01*
X147821966Y-92805299D01*
X147884623Y-92848111D01*
X147921110Y-92855500D01*
X147896044Y-92855500D01*
X147779717Y-92903684D01*
X147690684Y-92992717D01*
X147642500Y-93109044D01*
X147642500Y-93242875D01*
X147721625Y-93322000D01*
X148084000Y-93322000D01*
X148084000Y-93260500D01*
X148334000Y-93260500D01*
X148334000Y-93322000D01*
X148696375Y-93322000D01*
X148775500Y-93242875D01*
X148775500Y-93109044D01*
X148727316Y-92992717D01*
X148638283Y-92903684D01*
X148521956Y-92855500D01*
X148499779Y-92855500D01*
X148528483Y-92850099D01*
X148592299Y-92809034D01*
X148635111Y-92746377D01*
X148647642Y-92684500D01*
X149241827Y-92684500D01*
X149241827Y-92714000D01*
X149254901Y-92783483D01*
X149295966Y-92847299D01*
X149358623Y-92890111D01*
X149433000Y-92905173D01*
X149702692Y-92905173D01*
X149742412Y-92931713D01*
X149862000Y-92955501D01*
X149862005Y-92955500D01*
X150483827Y-92955500D01*
X150483827Y-93168000D01*
X150496901Y-93237483D01*
X150537966Y-93301299D01*
X150600623Y-93344111D01*
X150675000Y-93359173D01*
X151325000Y-93359173D01*
X151394483Y-93346099D01*
X151458299Y-93305034D01*
X151501111Y-93242377D01*
X151516173Y-93168000D01*
X151516173Y-92955500D01*
X151575000Y-92955500D01*
X151694589Y-92931712D01*
X151795971Y-92863971D01*
X152399500Y-92260442D01*
X152399500Y-94164582D01*
X152378701Y-94177966D01*
X152335889Y-94240623D01*
X152320827Y-94315000D01*
X152320827Y-94915000D01*
X152333901Y-94984483D01*
X152374966Y-95048299D01*
X152399500Y-95065062D01*
X152399500Y-95688582D01*
X152378701Y-95701966D01*
X152335889Y-95764623D01*
X152320827Y-95839000D01*
X152320827Y-96188231D01*
X152055500Y-96453558D01*
X151663173Y-96061231D01*
X151663173Y-95762000D01*
X151650099Y-95692517D01*
X151609034Y-95628701D01*
X151546377Y-95585889D01*
X151484500Y-95573358D01*
X151484500Y-94753000D01*
X151460712Y-94633411D01*
X151392971Y-94532029D01*
X150224173Y-93363231D01*
X150224173Y-93214000D01*
X150211099Y-93144517D01*
X150170034Y-93080701D01*
X150107377Y-93037889D01*
X150033000Y-93022827D01*
X149433000Y-93022827D01*
X149363517Y-93035901D01*
X149299701Y-93076966D01*
X149256889Y-93139623D01*
X149241827Y-93214000D01*
X149241827Y-93614000D01*
X149254901Y-93683483D01*
X149295966Y-93747299D01*
X149358623Y-93790111D01*
X149433000Y-93805173D01*
X149782231Y-93805173D01*
X150859500Y-94882442D01*
X150859500Y-95573179D01*
X150802517Y-95583901D01*
X150738701Y-95624966D01*
X150695889Y-95687623D01*
X150688500Y-95724110D01*
X150688500Y-95699044D01*
X150640316Y-95582717D01*
X150551283Y-95493684D01*
X150434956Y-95445500D01*
X150301125Y-95445500D01*
X150222000Y-95524625D01*
X150222000Y-95887000D01*
X150283500Y-95887000D01*
X150283500Y-96137000D01*
X150222000Y-96137000D01*
X150222000Y-96499375D01*
X150301125Y-96578500D01*
X150434956Y-96578500D01*
X150551283Y-96530316D01*
X150640316Y-96441283D01*
X150688500Y-96324956D01*
X150688500Y-96302779D01*
X150693901Y-96331483D01*
X150734966Y-96395299D01*
X150797623Y-96438111D01*
X150872000Y-96453173D01*
X151171231Y-96453173D01*
X151702062Y-96984004D01*
X151633517Y-96996901D01*
X151570425Y-97037500D01*
X151191000Y-97037500D01*
X151135677Y-97048505D01*
X151033456Y-97048415D01*
X150854214Y-97122476D01*
X150716958Y-97259493D01*
X150642585Y-97438605D01*
X150642415Y-97632544D01*
X150692500Y-97753759D01*
X150692500Y-98080395D01*
X150642585Y-98200605D01*
X150642415Y-98394544D01*
X150716476Y-98573786D01*
X150853493Y-98711042D01*
X151032605Y-98785415D01*
X151226544Y-98785585D01*
X151405786Y-98711524D01*
X151543042Y-98574507D01*
X151617415Y-98395395D01*
X151617585Y-98201456D01*
X151567500Y-98080241D01*
X151567500Y-97912500D01*
X151572114Y-97912500D01*
X151628623Y-97951111D01*
X151703000Y-97966173D01*
X152703000Y-97966173D01*
X152772483Y-97953099D01*
X152836299Y-97912034D01*
X152879111Y-97849377D01*
X152894173Y-97775000D01*
X152894173Y-97175000D01*
X152881099Y-97105517D01*
X152840034Y-97041701D01*
X152777377Y-96998889D01*
X152703000Y-96983827D01*
X152515500Y-96983827D01*
X152515500Y-96877442D01*
X152762769Y-96630173D01*
X152912000Y-96630173D01*
X152981483Y-96617099D01*
X153045299Y-96576034D01*
X153088111Y-96513377D01*
X153103173Y-96439000D01*
X153103173Y-95839000D01*
X153090099Y-95769517D01*
X153049034Y-95705701D01*
X153024500Y-95688938D01*
X153024500Y-95065418D01*
X153045299Y-95052034D01*
X153088111Y-94989377D01*
X153103173Y-94915000D01*
X153103173Y-94315000D01*
X153090099Y-94245517D01*
X153049034Y-94181701D01*
X153024500Y-94164938D01*
X153024500Y-92358442D01*
X153288623Y-92094319D01*
X153283827Y-92118000D01*
X153283827Y-93168000D01*
X153296901Y-93237483D01*
X153337966Y-93301299D01*
X153400623Y-93344111D01*
X153475000Y-93359173D01*
X154125000Y-93359173D01*
X154194483Y-93346099D01*
X154258299Y-93305034D01*
X154301111Y-93242377D01*
X154316173Y-93168000D01*
X154316173Y-92118000D01*
X154303099Y-92048517D01*
X154262034Y-91984701D01*
X154199377Y-91941889D01*
X154125000Y-91926827D01*
X153475000Y-91926827D01*
X153451738Y-91931204D01*
X155136273Y-90246669D01*
X155137966Y-90249299D01*
X155200623Y-90292111D01*
X155275000Y-90307173D01*
X155875000Y-90307173D01*
X155944483Y-90294099D01*
X156008299Y-90253034D01*
X156051111Y-90190377D01*
X156066173Y-90116000D01*
X156066173Y-89716000D01*
X156053099Y-89646517D01*
X156012034Y-89582701D01*
X155949377Y-89539889D01*
X155922761Y-89534499D01*
X156549124Y-89534499D01*
X156611625Y-89597000D01*
X156974000Y-89597000D01*
X156974000Y-89535500D01*
X157224000Y-89535500D01*
X157224000Y-89597000D01*
X157310500Y-89597000D01*
X157310500Y-89897000D01*
X157224000Y-89897000D01*
X157224000Y-89958500D01*
X156974000Y-89958500D01*
X156974000Y-89897000D01*
X156611625Y-89897000D01*
X156532500Y-89976125D01*
X156532500Y-90109956D01*
X156580684Y-90226283D01*
X156669717Y-90315316D01*
X156786044Y-90363500D01*
X156808221Y-90363500D01*
X156779517Y-90368901D01*
X156715701Y-90409966D01*
X156672889Y-90472623D01*
X156666636Y-90503500D01*
X156025418Y-90503500D01*
X156012034Y-90482701D01*
X155949377Y-90439889D01*
X155875000Y-90424827D01*
X155275000Y-90424827D01*
X155205517Y-90437901D01*
X155141701Y-90478966D01*
X155098889Y-90541623D01*
X155083827Y-90616000D01*
X155083827Y-91016000D01*
X155096901Y-91085483D01*
X155137966Y-91149299D01*
X155200623Y-91192111D01*
X155275000Y-91207173D01*
X155875000Y-91207173D01*
X155944483Y-91194099D01*
X156008299Y-91153034D01*
X156025062Y-91128500D01*
X156657827Y-91128500D01*
X156657827Y-91147000D01*
X156670901Y-91216483D01*
X156711966Y-91280299D01*
X156774623Y-91323111D01*
X156849000Y-91338173D01*
X157000231Y-91338173D01*
X158230827Y-92568769D01*
X158230827Y-93168000D01*
X158243901Y-93237483D01*
X158284966Y-93301299D01*
X158347623Y-93344111D01*
X158422000Y-93359173D01*
X158434500Y-93359173D01*
X158434500Y-93526867D01*
X157963253Y-93055620D01*
X157861871Y-92987879D01*
X157742282Y-92964091D01*
X157279744Y-92964091D01*
X157241541Y-92925821D01*
X157062429Y-92851448D01*
X156868490Y-92851278D01*
X156689248Y-92925339D01*
X156551992Y-93062356D01*
X156502791Y-93180847D01*
X155536789Y-92214845D01*
X155554415Y-92172395D01*
X155554585Y-91978456D01*
X155480524Y-91799214D01*
X155343507Y-91661958D01*
X155164395Y-91587585D01*
X154970456Y-91587415D01*
X154791214Y-91661476D01*
X154653958Y-91798493D01*
X154579585Y-91977605D01*
X154579415Y-92171544D01*
X154653476Y-92350786D01*
X154790493Y-92488042D01*
X154969605Y-92562415D01*
X155000502Y-92562442D01*
X156327843Y-93889783D01*
X156188214Y-93947476D01*
X156050958Y-94084493D01*
X155976585Y-94263605D01*
X155976415Y-94457544D01*
X156050476Y-94636786D01*
X156187493Y-94774042D01*
X156366605Y-94848415D01*
X156452000Y-94848490D01*
X156452000Y-95141984D01*
X156390464Y-95129522D01*
X155654971Y-94394029D01*
X155616632Y-94368412D01*
X155553589Y-94326288D01*
X155434000Y-94302500D01*
X155300552Y-94302500D01*
X155300585Y-94264456D01*
X155226524Y-94085214D01*
X155089507Y-93947958D01*
X154910395Y-93873585D01*
X154716456Y-93873415D01*
X154537214Y-93947476D01*
X154399958Y-94084493D01*
X154325585Y-94263605D01*
X154325551Y-94302500D01*
X154000821Y-94302500D01*
X153990099Y-94245517D01*
X153949034Y-94181701D01*
X153886377Y-94138889D01*
X153812000Y-94123827D01*
X153412000Y-94123827D01*
X153342517Y-94136901D01*
X153278701Y-94177966D01*
X153235889Y-94240623D01*
X153220827Y-94315000D01*
X153220827Y-94915000D01*
X153233901Y-94984483D01*
X153274966Y-95048299D01*
X153337623Y-95091111D01*
X153383958Y-95100494D01*
X153309585Y-95279605D01*
X153309415Y-95473544D01*
X153383476Y-95652786D01*
X153383819Y-95653130D01*
X153342517Y-95660901D01*
X153278701Y-95701966D01*
X153235889Y-95764623D01*
X153220827Y-95839000D01*
X153220827Y-96439000D01*
X153233901Y-96508483D01*
X153274966Y-96572299D01*
X153337623Y-96615111D01*
X153412000Y-96630173D01*
X153779287Y-96630173D01*
X153793500Y-96633000D01*
X155085984Y-96633000D01*
X155073327Y-96695500D01*
X155073327Y-96945500D01*
X155086401Y-97014983D01*
X155122539Y-97071143D01*
X155088389Y-97121123D01*
X155073327Y-97195500D01*
X155073327Y-97445500D01*
X155086401Y-97514983D01*
X155122539Y-97571143D01*
X155088389Y-97621123D01*
X155073327Y-97695500D01*
X155073327Y-97945500D01*
X155086401Y-98014983D01*
X155122539Y-98071143D01*
X155088389Y-98121123D01*
X155073327Y-98195500D01*
X155073327Y-98445500D01*
X155086401Y-98514983D01*
X155122539Y-98571143D01*
X155088389Y-98621123D01*
X155073327Y-98695500D01*
X155073327Y-98945500D01*
X155086401Y-99014983D01*
X155122539Y-99071143D01*
X155088389Y-99121123D01*
X155073327Y-99195500D01*
X155073327Y-99445500D01*
X155086401Y-99514983D01*
X155122539Y-99571143D01*
X155088389Y-99621123D01*
X155073327Y-99695500D01*
X155073327Y-99945500D01*
X155081288Y-99987811D01*
X155037395Y-99969585D01*
X154843456Y-99969415D01*
X154664214Y-100043476D01*
X154604132Y-100103454D01*
X154245708Y-99745030D01*
X154205892Y-99718426D01*
X154144326Y-99677289D01*
X154024737Y-99653501D01*
X152894173Y-99653501D01*
X152894173Y-99075000D01*
X152881099Y-99005517D01*
X152840034Y-98941701D01*
X152777377Y-98898889D01*
X152703000Y-98883827D01*
X151703000Y-98883827D01*
X151633517Y-98896901D01*
X151569701Y-98937966D01*
X151526889Y-99000623D01*
X151511827Y-99075000D01*
X151511827Y-99653501D01*
X150494173Y-99653501D01*
X150494173Y-99075000D01*
X150481099Y-99005517D01*
X150475149Y-98996271D01*
X150482283Y-98993316D01*
X150571316Y-98904283D01*
X150619500Y-98787956D01*
X150619500Y-98654125D01*
X150540375Y-98575000D01*
X149994500Y-98575000D01*
X149994500Y-98636500D01*
X149611500Y-98636500D01*
X149611500Y-98575000D01*
X149065625Y-98575000D01*
X148986500Y-98654125D01*
X148986500Y-98787956D01*
X149034684Y-98904283D01*
X149123717Y-98993316D01*
X149130081Y-98995952D01*
X149126889Y-99000623D01*
X149114358Y-99062500D01*
X148777297Y-99062500D01*
X148742034Y-99007701D01*
X148679377Y-98964889D01*
X148605000Y-98949827D01*
X148205000Y-98949827D01*
X148135517Y-98962901D01*
X148071701Y-99003966D01*
X148028889Y-99066623D01*
X148013827Y-99141000D01*
X148013827Y-99653501D01*
X147896173Y-99653501D01*
X147896173Y-99141000D01*
X147883099Y-99071517D01*
X147842034Y-99007701D01*
X147817500Y-98990938D01*
X147817500Y-97719500D01*
X149111827Y-97719500D01*
X149111827Y-97775000D01*
X149124901Y-97844483D01*
X149130851Y-97853729D01*
X149123717Y-97856684D01*
X149034684Y-97945717D01*
X148986500Y-98062044D01*
X148986500Y-98195875D01*
X149065625Y-98275000D01*
X149611500Y-98275000D01*
X149611500Y-98213500D01*
X149994500Y-98213500D01*
X149994500Y-98275000D01*
X150540375Y-98275000D01*
X150619500Y-98195875D01*
X150619500Y-98062044D01*
X150571316Y-97945717D01*
X150482283Y-97856684D01*
X150475919Y-97854048D01*
X150479111Y-97849377D01*
X150494173Y-97775000D01*
X150494173Y-97175000D01*
X150481099Y-97105517D01*
X150440034Y-97041701D01*
X150377377Y-96998889D01*
X150303000Y-96983827D01*
X149930545Y-96983827D01*
X149919359Y-96972641D01*
X149777424Y-96877803D01*
X149610000Y-96844500D01*
X148777173Y-96844500D01*
X148777173Y-96770000D01*
X148764099Y-96700517D01*
X148723034Y-96636701D01*
X148660377Y-96593889D01*
X148623890Y-96586500D01*
X148648956Y-96586500D01*
X148765283Y-96538316D01*
X148854316Y-96449283D01*
X148902500Y-96332956D01*
X148902500Y-96216125D01*
X149455500Y-96216125D01*
X149455500Y-96324956D01*
X149503684Y-96441283D01*
X149592717Y-96530316D01*
X149709044Y-96578500D01*
X149842875Y-96578500D01*
X149922000Y-96499375D01*
X149922000Y-96137000D01*
X149534625Y-96137000D01*
X149455500Y-96216125D01*
X148902500Y-96216125D01*
X148902500Y-96199125D01*
X148823375Y-96120000D01*
X148461000Y-96120000D01*
X148461000Y-96181500D01*
X148211000Y-96181500D01*
X148211000Y-96120000D01*
X147848625Y-96120000D01*
X147769500Y-96199125D01*
X147769500Y-96332956D01*
X147817684Y-96449283D01*
X147906717Y-96538316D01*
X148023044Y-96586500D01*
X148045221Y-96586500D01*
X148016517Y-96591901D01*
X147952701Y-96632966D01*
X147909889Y-96695623D01*
X147894827Y-96770000D01*
X147894827Y-96844500D01*
X147757500Y-96844500D01*
X147757500Y-95607044D01*
X147769500Y-95607044D01*
X147769500Y-95740875D01*
X147848625Y-95820000D01*
X148211000Y-95820000D01*
X148211000Y-95432625D01*
X148461000Y-95432625D01*
X148461000Y-95820000D01*
X148823375Y-95820000D01*
X148902500Y-95740875D01*
X148902500Y-95699044D01*
X149455500Y-95699044D01*
X149455500Y-95807875D01*
X149534625Y-95887000D01*
X149922000Y-95887000D01*
X149922000Y-95524625D01*
X149842875Y-95445500D01*
X149709044Y-95445500D01*
X149592717Y-95493684D01*
X149503684Y-95582717D01*
X149455500Y-95699044D01*
X148902500Y-95699044D01*
X148902500Y-95607044D01*
X148854316Y-95490717D01*
X148765283Y-95401684D01*
X148648956Y-95353500D01*
X148540125Y-95353500D01*
X148461000Y-95432625D01*
X148211000Y-95432625D01*
X148131875Y-95353500D01*
X148023044Y-95353500D01*
X147906717Y-95401684D01*
X147817684Y-95490717D01*
X147769500Y-95607044D01*
X147757500Y-95607044D01*
X147757500Y-95063998D01*
X147724197Y-94896574D01*
X147629359Y-94754639D01*
X146575845Y-93701125D01*
X147642500Y-93701125D01*
X147642500Y-93834956D01*
X147690684Y-93951283D01*
X147779717Y-94040316D01*
X147896044Y-94088500D01*
X148004875Y-94088500D01*
X148084000Y-94009375D01*
X148084000Y-93622000D01*
X148334000Y-93622000D01*
X148334000Y-94009375D01*
X148413125Y-94088500D01*
X148521956Y-94088500D01*
X148638283Y-94040316D01*
X148727316Y-93951283D01*
X148775500Y-93834956D01*
X148775500Y-93701125D01*
X148696375Y-93622000D01*
X148334000Y-93622000D01*
X148084000Y-93622000D01*
X147721625Y-93622000D01*
X147642500Y-93701125D01*
X146575845Y-93701125D01*
X144583360Y-91708640D01*
X144441425Y-91613802D01*
X144274001Y-91580499D01*
X138935217Y-91580499D01*
X138510262Y-91155544D01*
X146578415Y-91155544D01*
X146652476Y-91334786D01*
X146789493Y-91472042D01*
X146968605Y-91546415D01*
X147162544Y-91546585D01*
X147341786Y-91472524D01*
X147479042Y-91335507D01*
X147553415Y-91156395D01*
X147553418Y-91153224D01*
X148073689Y-90632953D01*
X148620480Y-90632953D01*
X148689963Y-90619879D01*
X148753779Y-90578814D01*
X148796591Y-90516157D01*
X148811653Y-90441780D01*
X148811653Y-89644220D01*
X148798579Y-89574737D01*
X148757514Y-89510921D01*
X148694857Y-89468109D01*
X148620480Y-89453047D01*
X147822920Y-89453047D01*
X147753437Y-89466121D01*
X147689621Y-89507186D01*
X147646809Y-89569843D01*
X147631747Y-89644220D01*
X147631747Y-90191011D01*
X147225419Y-90597339D01*
X147163395Y-90571585D01*
X146969456Y-90571415D01*
X146790214Y-90645476D01*
X146652958Y-90782493D01*
X146578585Y-90961605D01*
X146578415Y-91155544D01*
X138510262Y-91155544D01*
X137597500Y-90242782D01*
X137597500Y-88900000D01*
X137564197Y-88732576D01*
X137469359Y-88590641D01*
X136580359Y-87701641D01*
X136438424Y-87606803D01*
X136271000Y-87573500D01*
X131763173Y-87573500D01*
X131763173Y-87003500D01*
X138002827Y-87003500D01*
X138002827Y-90268000D01*
X138002827Y-90268000D01*
G37*
X138002827Y-90268000D02*
X138015901Y-90337483D01*
X138056966Y-90401299D01*
X138119623Y-90444111D01*
X138194000Y-90459173D01*
X139894000Y-90459173D01*
X139963483Y-90446099D01*
X140027299Y-90405034D01*
X140070111Y-90342377D01*
X140085173Y-90268000D01*
X140085173Y-87003500D01*
X144902827Y-87003500D01*
X144902827Y-90268000D01*
X144915901Y-90337483D01*
X144956966Y-90401299D01*
X145019623Y-90444111D01*
X145094000Y-90459173D01*
X146794000Y-90459173D01*
X146863483Y-90446099D01*
X146927299Y-90405034D01*
X146970111Y-90342377D01*
X146985173Y-90268000D01*
X146985173Y-88621125D01*
X148327500Y-88621125D01*
X148327500Y-88754956D01*
X148375684Y-88871283D01*
X148464717Y-88960316D01*
X148581044Y-89008500D01*
X148664875Y-89008500D01*
X148744000Y-88929375D01*
X148744000Y-88542000D01*
X148406625Y-88542000D01*
X148327500Y-88621125D01*
X146985173Y-88621125D01*
X146985173Y-88029044D01*
X148327500Y-88029044D01*
X148327500Y-88162875D01*
X148406625Y-88242000D01*
X148744000Y-88242000D01*
X148744000Y-87854625D01*
X148944000Y-87854625D01*
X148944000Y-88242000D01*
X149044000Y-88242000D01*
X149044000Y-88542000D01*
X148944000Y-88542000D01*
X148944000Y-88929375D01*
X149023125Y-89008500D01*
X149106956Y-89008500D01*
X149223283Y-88960316D01*
X149312316Y-88871283D01*
X149360500Y-88754956D01*
X149360500Y-88732779D01*
X149365901Y-88761483D01*
X149406966Y-88825299D01*
X149407800Y-88825869D01*
X149407800Y-89453047D01*
X149321520Y-89453047D01*
X149252037Y-89466121D01*
X149188221Y-89507186D01*
X149145409Y-89569843D01*
X149130347Y-89644220D01*
X149130347Y-90441780D01*
X149143421Y-90511263D01*
X149184486Y-90575079D01*
X149247143Y-90617891D01*
X149321520Y-90632953D01*
X150119080Y-90632953D01*
X150188563Y-90619879D01*
X150252379Y-90578814D01*
X150295191Y-90516157D01*
X150310253Y-90441780D01*
X150310253Y-89644220D01*
X150297179Y-89574737D01*
X150256114Y-89510921D01*
X150193457Y-89468109D01*
X150119080Y-89453047D01*
X150032800Y-89453047D01*
X150032800Y-88857669D01*
X150077299Y-88829034D01*
X150120111Y-88766377D01*
X150135173Y-88692000D01*
X150135173Y-88092000D01*
X150122099Y-88022517D01*
X150081034Y-87958701D01*
X150018377Y-87915889D01*
X149944000Y-87900827D01*
X149544000Y-87900827D01*
X149474517Y-87913901D01*
X149410701Y-87954966D01*
X149367889Y-88017623D01*
X149360500Y-88054110D01*
X149360500Y-88029044D01*
X149312316Y-87912717D01*
X149223283Y-87823684D01*
X149106956Y-87775500D01*
X149023125Y-87775500D01*
X148944000Y-87854625D01*
X148744000Y-87854625D01*
X148664875Y-87775500D01*
X148581044Y-87775500D01*
X148464717Y-87823684D01*
X148375684Y-87912717D01*
X148327500Y-88029044D01*
X146985173Y-88029044D01*
X146985173Y-87713625D01*
X150358500Y-87713625D01*
X150358500Y-88030956D01*
X150406684Y-88147283D01*
X150495717Y-88236316D01*
X150612044Y-88284500D01*
X150758375Y-88284500D01*
X150837500Y-88205375D01*
X150837500Y-87634500D01*
X151162500Y-87634500D01*
X151162500Y-88205375D01*
X151241625Y-88284500D01*
X151387956Y-88284500D01*
X151504283Y-88236316D01*
X151593316Y-88147283D01*
X151641500Y-88030956D01*
X151641500Y-87713625D01*
X151562375Y-87634500D01*
X151162500Y-87634500D01*
X150837500Y-87634500D01*
X150437625Y-87634500D01*
X150358500Y-87713625D01*
X146985173Y-87713625D01*
X146985173Y-87003500D01*
X150358500Y-87003500D01*
X150358500Y-87172375D01*
X150437625Y-87251500D01*
X150837500Y-87251500D01*
X150837500Y-87231500D01*
X151162500Y-87231500D01*
X151162500Y-87251500D01*
X151562375Y-87251500D01*
X151641500Y-87172375D01*
X151641500Y-87003500D01*
X153283827Y-87003500D01*
X153283827Y-87968000D01*
X153296901Y-88037483D01*
X153337966Y-88101299D01*
X153400623Y-88144111D01*
X153475000Y-88159173D01*
X154125000Y-88159173D01*
X154194483Y-88146099D01*
X154258299Y-88105034D01*
X154301111Y-88042377D01*
X154316173Y-87968000D01*
X154316173Y-87713625D01*
X158105500Y-87713625D01*
X158105500Y-88030956D01*
X158153684Y-88147283D01*
X158242717Y-88236316D01*
X158359044Y-88284500D01*
X158505375Y-88284500D01*
X158584500Y-88205375D01*
X158584500Y-87634500D01*
X158909500Y-87634500D01*
X158909500Y-88205375D01*
X158988625Y-88284500D01*
X159134956Y-88284500D01*
X159251283Y-88236316D01*
X159340316Y-88147283D01*
X159388500Y-88030956D01*
X159388500Y-87713625D01*
X159309375Y-87634500D01*
X158909500Y-87634500D01*
X158584500Y-87634500D01*
X158184625Y-87634500D01*
X158105500Y-87713625D01*
X154316173Y-87713625D01*
X154316173Y-87003500D01*
X158105500Y-87003500D01*
X158105500Y-87172375D01*
X158184625Y-87251500D01*
X158584500Y-87251500D01*
X158584500Y-87231500D01*
X158909500Y-87231500D01*
X158909500Y-87251500D01*
X159309375Y-87251500D01*
X159388500Y-87172375D01*
X159388500Y-87003500D01*
X161030827Y-87003500D01*
X161030827Y-87968000D01*
X161043901Y-88037483D01*
X161084966Y-88101299D01*
X161147623Y-88144111D01*
X161222000Y-88159173D01*
X161872000Y-88159173D01*
X161941483Y-88146099D01*
X162005299Y-88105034D01*
X162048111Y-88042377D01*
X162063173Y-87968000D01*
X162063173Y-87609488D01*
X163191310Y-87609488D01*
X164592000Y-89010178D01*
X165992690Y-87609488D01*
X165760645Y-87346698D01*
X164931462Y-87046717D01*
X164050599Y-87086885D01*
X163423355Y-87346698D01*
X163191310Y-87609488D01*
X162063173Y-87609488D01*
X162063173Y-87003500D01*
X166869500Y-87003500D01*
X166869500Y-109211500D01*
X151451873Y-109211500D01*
X151537970Y-109153972D01*
X152030595Y-108661347D01*
X163230475Y-108661347D01*
X163305026Y-108791563D01*
X163669618Y-108877365D01*
X164039292Y-108817112D01*
X164100974Y-108791563D01*
X164175525Y-108661347D01*
X163703000Y-108188822D01*
X163230475Y-108661347D01*
X152030595Y-108661347D01*
X152342273Y-108349669D01*
X152343966Y-108352299D01*
X152406623Y-108395111D01*
X152481000Y-108410173D01*
X153081000Y-108410173D01*
X153150483Y-108397099D01*
X153214299Y-108356034D01*
X153231062Y-108331500D01*
X153854582Y-108331500D01*
X153867966Y-108352299D01*
X153930623Y-108395111D01*
X154005000Y-108410173D01*
X154605000Y-108410173D01*
X154674483Y-108397099D01*
X154738299Y-108356034D01*
X154755062Y-108331500D01*
X155533295Y-108331500D01*
X155547966Y-108354299D01*
X155610623Y-108397111D01*
X155685000Y-108412173D01*
X156735000Y-108412173D01*
X156804483Y-108399099D01*
X156868299Y-108358034D01*
X156893503Y-108321148D01*
X157009590Y-108437235D01*
X157081580Y-108365245D01*
X157143337Y-108485176D01*
X157470969Y-108553938D01*
X157799976Y-108492088D01*
X157816663Y-108485176D01*
X157878421Y-108365243D01*
X158351579Y-108365243D01*
X158413337Y-108485176D01*
X158740969Y-108553938D01*
X159069976Y-108492088D01*
X159086663Y-108485176D01*
X159148421Y-108365243D01*
X158750000Y-107966822D01*
X158351579Y-108365243D01*
X157878421Y-108365243D01*
X157480000Y-107966822D01*
X157465858Y-107980964D01*
X157195036Y-107710142D01*
X157209178Y-107696000D01*
X157750822Y-107696000D01*
X157926852Y-107872030D01*
X157953912Y-108015976D01*
X157960824Y-108032663D01*
X158080757Y-108094421D01*
X158115000Y-108060178D01*
X158149243Y-108094421D01*
X158269176Y-108032663D01*
X158302820Y-107872358D01*
X158479178Y-107696000D01*
X158303148Y-107519970D01*
X158276088Y-107376024D01*
X158269176Y-107359337D01*
X158149243Y-107297579D01*
X158115000Y-107331822D01*
X158080757Y-107297579D01*
X157960824Y-107359337D01*
X157927180Y-107519642D01*
X157750822Y-107696000D01*
X157209178Y-107696000D01*
X157195036Y-107681858D01*
X157465858Y-107411036D01*
X157480000Y-107425178D01*
X157868970Y-107036208D01*
X157883072Y-107030381D01*
X158083676Y-106830126D01*
X158114942Y-106754828D01*
X158145619Y-106829072D01*
X158345874Y-107029676D01*
X158360622Y-107035800D01*
X158750000Y-107425178D01*
X159138970Y-107036208D01*
X159153072Y-107030381D01*
X159353676Y-106830126D01*
X159384942Y-106754828D01*
X159415619Y-106829072D01*
X159615874Y-107029676D01*
X159691172Y-107060942D01*
X159616928Y-107091619D01*
X159416324Y-107291874D01*
X159410200Y-107306622D01*
X159020822Y-107696000D01*
X159409792Y-108084970D01*
X159415619Y-108099072D01*
X159615874Y-108299676D01*
X159877653Y-108408376D01*
X160161103Y-108408624D01*
X160266093Y-108365243D01*
X160891579Y-108365243D01*
X160953337Y-108485176D01*
X161280969Y-108553938D01*
X161609976Y-108492088D01*
X161626663Y-108485176D01*
X161688421Y-108365243D01*
X161290000Y-107966822D01*
X160891579Y-108365243D01*
X160266093Y-108365243D01*
X160423072Y-108300381D01*
X160623676Y-108100126D01*
X160629800Y-108085378D01*
X161019178Y-107696000D01*
X161560822Y-107696000D01*
X161959243Y-108094421D01*
X162079176Y-108032663D01*
X162110247Y-107884618D01*
X162743635Y-107884618D01*
X162803888Y-108254292D01*
X162829437Y-108315974D01*
X162959653Y-108390525D01*
X163432178Y-107918000D01*
X163973822Y-107918000D01*
X164446347Y-108390525D01*
X164576563Y-108315974D01*
X164632353Y-108078907D01*
X164890359Y-108078907D01*
X165013794Y-108377643D01*
X165242155Y-108606402D01*
X165540675Y-108730359D01*
X165863907Y-108730641D01*
X166162643Y-108607206D01*
X166391402Y-108378845D01*
X166515359Y-108080325D01*
X166515641Y-107757093D01*
X166392206Y-107458357D01*
X166163845Y-107229598D01*
X165865325Y-107105641D01*
X165542093Y-107105359D01*
X165243357Y-107228794D01*
X165014598Y-107457155D01*
X164890641Y-107755675D01*
X164890359Y-108078907D01*
X164632353Y-108078907D01*
X164662365Y-107951382D01*
X164602112Y-107581708D01*
X164576563Y-107520026D01*
X164446347Y-107445475D01*
X163973822Y-107918000D01*
X163432178Y-107918000D01*
X162959653Y-107445475D01*
X162829437Y-107520026D01*
X162743635Y-107884618D01*
X162110247Y-107884618D01*
X162147938Y-107705031D01*
X162086088Y-107376024D01*
X162079176Y-107359337D01*
X161959243Y-107297579D01*
X161560822Y-107696000D01*
X161019178Y-107696000D01*
X160630208Y-107307030D01*
X160624381Y-107292928D01*
X160424126Y-107092324D01*
X160348828Y-107061058D01*
X160423072Y-107030381D01*
X160623676Y-106830126D01*
X160654942Y-106754828D01*
X160685619Y-106829072D01*
X160885874Y-107029676D01*
X160900622Y-107035800D01*
X161290000Y-107425178D01*
X161540525Y-107174653D01*
X163230475Y-107174653D01*
X163703000Y-107647178D01*
X164175525Y-107174653D01*
X164100974Y-107044437D01*
X163736382Y-106958635D01*
X163366708Y-107018888D01*
X163305026Y-107044437D01*
X163230475Y-107174653D01*
X161540525Y-107174653D01*
X161678970Y-107036208D01*
X161693072Y-107030381D01*
X161893676Y-106830126D01*
X162002376Y-106568347D01*
X162002624Y-106284897D01*
X161894381Y-106022928D01*
X161694126Y-105822324D01*
X161602500Y-105784278D01*
X161602500Y-104135943D01*
X161663304Y-104075245D01*
X161711422Y-103959364D01*
X162024490Y-104272432D01*
X162024490Y-104551990D01*
X162048278Y-104671579D01*
X162094247Y-104740377D01*
X162116019Y-104772961D01*
X162951696Y-105608638D01*
X162890641Y-105755675D01*
X162890359Y-106078907D01*
X163013794Y-106377643D01*
X163242155Y-106606402D01*
X163540675Y-106730359D01*
X163863907Y-106730641D01*
X164162643Y-106607206D01*
X164391402Y-106378845D01*
X164515359Y-106080325D01*
X164515641Y-105757093D01*
X164392206Y-105458357D01*
X164314483Y-105380499D01*
X164723557Y-105380499D01*
X164951696Y-105608638D01*
X164890641Y-105755675D01*
X164890359Y-106078907D01*
X165013794Y-106377643D01*
X165242155Y-106606402D01*
X165540675Y-106730359D01*
X165863907Y-106730641D01*
X166162643Y-106607206D01*
X166391402Y-106378845D01*
X166515359Y-106080325D01*
X166515641Y-105757093D01*
X166392206Y-105458357D01*
X166163845Y-105229598D01*
X165865325Y-105105641D01*
X165542093Y-105105359D01*
X165393640Y-105166698D01*
X165073970Y-104847028D01*
X165033220Y-104819800D01*
X164972588Y-104779287D01*
X164852999Y-104755499D01*
X163490441Y-104755499D01*
X163411778Y-104676836D01*
X163540675Y-104730359D01*
X163863907Y-104730641D01*
X164162643Y-104607206D01*
X164391402Y-104378845D01*
X164515359Y-104080325D01*
X164515641Y-103757093D01*
X164392206Y-103458357D01*
X164314483Y-103380499D01*
X164723557Y-103380499D01*
X164951696Y-103608638D01*
X164890641Y-103755675D01*
X164890359Y-104078907D01*
X165013794Y-104377643D01*
X165242155Y-104606402D01*
X165540675Y-104730359D01*
X165863907Y-104730641D01*
X166162643Y-104607206D01*
X166391402Y-104378845D01*
X166515359Y-104080325D01*
X166515641Y-103757093D01*
X166392206Y-103458357D01*
X166163845Y-103229598D01*
X165865325Y-103105641D01*
X165542093Y-103105359D01*
X165393640Y-103166698D01*
X165073970Y-102847028D01*
X165020798Y-102811500D01*
X164972588Y-102779287D01*
X164852999Y-102755499D01*
X163724439Y-102755499D01*
X163699438Y-102730498D01*
X163863907Y-102730641D01*
X164162643Y-102607206D01*
X164391402Y-102378845D01*
X164515359Y-102080325D01*
X164515641Y-101757093D01*
X164392206Y-101458357D01*
X164314483Y-101380499D01*
X164723557Y-101380499D01*
X164951696Y-101608638D01*
X164890641Y-101755675D01*
X164890359Y-102078907D01*
X165013794Y-102377643D01*
X165242155Y-102606402D01*
X165540675Y-102730359D01*
X165863907Y-102730641D01*
X166162643Y-102607206D01*
X166391402Y-102378845D01*
X166515359Y-102080325D01*
X166515641Y-101757093D01*
X166392206Y-101458357D01*
X166163845Y-101229598D01*
X165865325Y-101105641D01*
X165542093Y-101105359D01*
X165393640Y-101166698D01*
X165073970Y-100847028D01*
X165070935Y-100845000D01*
X164972588Y-100779287D01*
X164852999Y-100755499D01*
X163724439Y-100755499D01*
X163699438Y-100730498D01*
X163863907Y-100730641D01*
X164162643Y-100607206D01*
X164391402Y-100378845D01*
X164515359Y-100080325D01*
X164515641Y-99757093D01*
X164392206Y-99458357D01*
X164314483Y-99380499D01*
X164723557Y-99380499D01*
X164951696Y-99608638D01*
X164890641Y-99755675D01*
X164890359Y-100078907D01*
X165013794Y-100377643D01*
X165242155Y-100606402D01*
X165540675Y-100730359D01*
X165863907Y-100730641D01*
X166162643Y-100607206D01*
X166391402Y-100378845D01*
X166515359Y-100080325D01*
X166515641Y-99757093D01*
X166392206Y-99458357D01*
X166163845Y-99229598D01*
X165865325Y-99105641D01*
X165542093Y-99105359D01*
X165393640Y-99166698D01*
X165073970Y-98847028D01*
X165047737Y-98829500D01*
X164972588Y-98779287D01*
X164852999Y-98755499D01*
X163391441Y-98755499D01*
X163242478Y-98606536D01*
X163540675Y-98730359D01*
X163863907Y-98730641D01*
X164162643Y-98607206D01*
X164391402Y-98378845D01*
X164515359Y-98080325D01*
X164515641Y-97757093D01*
X164392206Y-97458357D01*
X164314483Y-97380499D01*
X164723557Y-97380499D01*
X164951696Y-97608638D01*
X164890641Y-97755675D01*
X164890359Y-98078907D01*
X165013794Y-98377643D01*
X165242155Y-98606402D01*
X165540675Y-98730359D01*
X165863907Y-98730641D01*
X166162643Y-98607206D01*
X166391402Y-98378845D01*
X166515359Y-98080325D01*
X166515641Y-97757093D01*
X166392206Y-97458357D01*
X166163845Y-97229598D01*
X165865325Y-97105641D01*
X165542093Y-97105359D01*
X165393640Y-97166698D01*
X165073970Y-96847028D01*
X165036556Y-96822029D01*
X164972588Y-96779287D01*
X164852999Y-96755499D01*
X163724439Y-96755499D01*
X163699438Y-96730498D01*
X163863907Y-96730641D01*
X164162643Y-96607206D01*
X164391402Y-96378845D01*
X164515359Y-96080325D01*
X164515641Y-95757093D01*
X164392206Y-95458357D01*
X164163845Y-95229598D01*
X163865325Y-95105641D01*
X163542093Y-95105359D01*
X163243357Y-95228794D01*
X163014598Y-95457155D01*
X162890641Y-95755675D01*
X162890496Y-95921556D01*
X162418469Y-95449529D01*
X162393170Y-95432625D01*
X162317087Y-95381788D01*
X162197498Y-95358000D01*
X160080673Y-95358000D01*
X160080673Y-95320500D01*
X160067599Y-95251017D01*
X160026534Y-95187201D01*
X159963877Y-95144389D01*
X159889500Y-95129327D01*
X159639500Y-95129327D01*
X159639429Y-95129340D01*
X159690714Y-95052587D01*
X159714501Y-94932999D01*
X159714501Y-94584544D01*
X160675415Y-94584544D01*
X160749476Y-94763786D01*
X160886493Y-94901042D01*
X161065605Y-94975415D01*
X161187538Y-94975522D01*
X161257476Y-95144786D01*
X161394493Y-95282042D01*
X161573605Y-95356415D01*
X161767544Y-95356585D01*
X161946786Y-95282524D01*
X162084042Y-95145507D01*
X162158415Y-94966395D01*
X162158585Y-94772456D01*
X162084524Y-94593214D01*
X161947507Y-94455958D01*
X161768395Y-94381585D01*
X161646462Y-94381478D01*
X161576524Y-94212214D01*
X161439507Y-94074958D01*
X161260395Y-94000585D01*
X161066456Y-94000415D01*
X160887214Y-94074476D01*
X160749958Y-94211493D01*
X160675585Y-94390605D01*
X160675415Y-94584544D01*
X159714501Y-94584544D01*
X159714501Y-92118000D01*
X161030827Y-92118000D01*
X161030827Y-93168000D01*
X161043901Y-93237483D01*
X161084966Y-93301299D01*
X161147623Y-93344111D01*
X161222000Y-93359173D01*
X161872000Y-93359173D01*
X161941483Y-93346099D01*
X162005299Y-93305034D01*
X162048111Y-93242377D01*
X162063173Y-93168000D01*
X162063173Y-92118000D01*
X162050099Y-92048517D01*
X162009034Y-91984701D01*
X161946377Y-91941889D01*
X161872000Y-91926827D01*
X161222000Y-91926827D01*
X161152517Y-91939901D01*
X161088701Y-91980966D01*
X161045889Y-92043623D01*
X161030827Y-92118000D01*
X159714501Y-92118000D01*
X159714501Y-91094999D01*
X159690713Y-90975410D01*
X159622972Y-90874028D01*
X158507488Y-89758544D01*
X160040415Y-89758544D01*
X160114476Y-89937786D01*
X160251493Y-90075042D01*
X160430605Y-90149415D01*
X160624544Y-90149585D01*
X160778876Y-90085816D01*
X165390500Y-94697440D01*
X165390500Y-95167996D01*
X165243357Y-95228794D01*
X165014598Y-95457155D01*
X164890641Y-95755675D01*
X164890359Y-96078907D01*
X165013794Y-96377643D01*
X165242155Y-96606402D01*
X165540675Y-96730359D01*
X165863907Y-96730641D01*
X166162643Y-96607206D01*
X166391402Y-96378845D01*
X166515359Y-96080325D01*
X166515641Y-95757093D01*
X166392206Y-95458357D01*
X166163845Y-95229598D01*
X166015500Y-95167999D01*
X166015500Y-94567998D01*
X165991712Y-94448409D01*
X165923971Y-94347027D01*
X162529456Y-90952512D01*
X163191310Y-90952512D01*
X163423355Y-91215302D01*
X164252538Y-91515283D01*
X165133401Y-91475115D01*
X165760645Y-91215302D01*
X165992690Y-90952512D01*
X164592000Y-89551822D01*
X163191310Y-90952512D01*
X162529456Y-90952512D01*
X161017973Y-89441029D01*
X160946092Y-89393000D01*
X160943655Y-89391372D01*
X160941524Y-89386214D01*
X160804507Y-89248958D01*
X160625395Y-89174585D01*
X160431456Y-89174415D01*
X160252214Y-89248476D01*
X160114958Y-89385493D01*
X160040585Y-89564605D01*
X160040415Y-89758544D01*
X158507488Y-89758544D01*
X157749972Y-89001028D01*
X157720297Y-88981200D01*
X157660939Y-88941538D01*
X162357717Y-88941538D01*
X162397885Y-89822401D01*
X162657698Y-90449645D01*
X162920488Y-90681690D01*
X164321178Y-89281000D01*
X164862822Y-89281000D01*
X166263512Y-90681690D01*
X166526302Y-90449645D01*
X166826283Y-89620462D01*
X166786115Y-88739599D01*
X166526302Y-88112355D01*
X166263512Y-87880310D01*
X164862822Y-89281000D01*
X164321178Y-89281000D01*
X162920488Y-87880310D01*
X162657698Y-88112355D01*
X162357717Y-88941538D01*
X157660939Y-88941538D01*
X157648590Y-88933287D01*
X157529001Y-88909499D01*
X154996001Y-88909499D01*
X154876412Y-88933287D01*
X154804705Y-88981200D01*
X154775030Y-89001028D01*
X151516173Y-92259885D01*
X151516173Y-92118000D01*
X151503099Y-92048517D01*
X151462034Y-91984701D01*
X151399377Y-91941889D01*
X151325000Y-91926827D01*
X150675000Y-91926827D01*
X150605517Y-91939901D01*
X150541701Y-91980966D01*
X150498889Y-92043623D01*
X150483827Y-92118000D01*
X150483827Y-92330500D01*
X150224173Y-92330500D01*
X150224173Y-92314000D01*
X150211099Y-92244517D01*
X150170034Y-92180701D01*
X150107377Y-92137889D01*
X150033000Y-92122827D01*
X149769764Y-92122827D01*
X149710589Y-92083288D01*
X149591000Y-92059500D01*
X148647821Y-92059500D01*
X148637099Y-92002517D01*
X148596034Y-91938701D01*
X148533377Y-91895889D01*
X148459000Y-91880827D01*
X147959000Y-91880827D01*
X147889517Y-91893901D01*
X147825701Y-91934966D01*
X147782889Y-91997623D01*
X147767827Y-92072000D01*
X147767827Y-92672000D01*
X147780901Y-92741483D01*
X147821966Y-92805299D01*
X147884623Y-92848111D01*
X147921110Y-92855500D01*
X147896044Y-92855500D01*
X147779717Y-92903684D01*
X147690684Y-92992717D01*
X147642500Y-93109044D01*
X147642500Y-93242875D01*
X147721625Y-93322000D01*
X148084000Y-93322000D01*
X148084000Y-93260500D01*
X148334000Y-93260500D01*
X148334000Y-93322000D01*
X148696375Y-93322000D01*
X148775500Y-93242875D01*
X148775500Y-93109044D01*
X148727316Y-92992717D01*
X148638283Y-92903684D01*
X148521956Y-92855500D01*
X148499779Y-92855500D01*
X148528483Y-92850099D01*
X148592299Y-92809034D01*
X148635111Y-92746377D01*
X148647642Y-92684500D01*
X149241827Y-92684500D01*
X149241827Y-92714000D01*
X149254901Y-92783483D01*
X149295966Y-92847299D01*
X149358623Y-92890111D01*
X149433000Y-92905173D01*
X149702692Y-92905173D01*
X149742412Y-92931713D01*
X149862000Y-92955501D01*
X149862005Y-92955500D01*
X150483827Y-92955500D01*
X150483827Y-93168000D01*
X150496901Y-93237483D01*
X150537966Y-93301299D01*
X150600623Y-93344111D01*
X150675000Y-93359173D01*
X151325000Y-93359173D01*
X151394483Y-93346099D01*
X151458299Y-93305034D01*
X151501111Y-93242377D01*
X151516173Y-93168000D01*
X151516173Y-92955500D01*
X151575000Y-92955500D01*
X151694589Y-92931712D01*
X151795971Y-92863971D01*
X152399500Y-92260442D01*
X152399500Y-94164582D01*
X152378701Y-94177966D01*
X152335889Y-94240623D01*
X152320827Y-94315000D01*
X152320827Y-94915000D01*
X152333901Y-94984483D01*
X152374966Y-95048299D01*
X152399500Y-95065062D01*
X152399500Y-95688582D01*
X152378701Y-95701966D01*
X152335889Y-95764623D01*
X152320827Y-95839000D01*
X152320827Y-96188231D01*
X152055500Y-96453558D01*
X151663173Y-96061231D01*
X151663173Y-95762000D01*
X151650099Y-95692517D01*
X151609034Y-95628701D01*
X151546377Y-95585889D01*
X151484500Y-95573358D01*
X151484500Y-94753000D01*
X151460712Y-94633411D01*
X151392971Y-94532029D01*
X150224173Y-93363231D01*
X150224173Y-93214000D01*
X150211099Y-93144517D01*
X150170034Y-93080701D01*
X150107377Y-93037889D01*
X150033000Y-93022827D01*
X149433000Y-93022827D01*
X149363517Y-93035901D01*
X149299701Y-93076966D01*
X149256889Y-93139623D01*
X149241827Y-93214000D01*
X149241827Y-93614000D01*
X149254901Y-93683483D01*
X149295966Y-93747299D01*
X149358623Y-93790111D01*
X149433000Y-93805173D01*
X149782231Y-93805173D01*
X150859500Y-94882442D01*
X150859500Y-95573179D01*
X150802517Y-95583901D01*
X150738701Y-95624966D01*
X150695889Y-95687623D01*
X150688500Y-95724110D01*
X150688500Y-95699044D01*
X150640316Y-95582717D01*
X150551283Y-95493684D01*
X150434956Y-95445500D01*
X150301125Y-95445500D01*
X150222000Y-95524625D01*
X150222000Y-95887000D01*
X150283500Y-95887000D01*
X150283500Y-96137000D01*
X150222000Y-96137000D01*
X150222000Y-96499375D01*
X150301125Y-96578500D01*
X150434956Y-96578500D01*
X150551283Y-96530316D01*
X150640316Y-96441283D01*
X150688500Y-96324956D01*
X150688500Y-96302779D01*
X150693901Y-96331483D01*
X150734966Y-96395299D01*
X150797623Y-96438111D01*
X150872000Y-96453173D01*
X151171231Y-96453173D01*
X151702062Y-96984004D01*
X151633517Y-96996901D01*
X151570425Y-97037500D01*
X151191000Y-97037500D01*
X151135677Y-97048505D01*
X151033456Y-97048415D01*
X150854214Y-97122476D01*
X150716958Y-97259493D01*
X150642585Y-97438605D01*
X150642415Y-97632544D01*
X150692500Y-97753759D01*
X150692500Y-98080395D01*
X150642585Y-98200605D01*
X150642415Y-98394544D01*
X150716476Y-98573786D01*
X150853493Y-98711042D01*
X151032605Y-98785415D01*
X151226544Y-98785585D01*
X151405786Y-98711524D01*
X151543042Y-98574507D01*
X151617415Y-98395395D01*
X151617585Y-98201456D01*
X151567500Y-98080241D01*
X151567500Y-97912500D01*
X151572114Y-97912500D01*
X151628623Y-97951111D01*
X151703000Y-97966173D01*
X152703000Y-97966173D01*
X152772483Y-97953099D01*
X152836299Y-97912034D01*
X152879111Y-97849377D01*
X152894173Y-97775000D01*
X152894173Y-97175000D01*
X152881099Y-97105517D01*
X152840034Y-97041701D01*
X152777377Y-96998889D01*
X152703000Y-96983827D01*
X152515500Y-96983827D01*
X152515500Y-96877442D01*
X152762769Y-96630173D01*
X152912000Y-96630173D01*
X152981483Y-96617099D01*
X153045299Y-96576034D01*
X153088111Y-96513377D01*
X153103173Y-96439000D01*
X153103173Y-95839000D01*
X153090099Y-95769517D01*
X153049034Y-95705701D01*
X153024500Y-95688938D01*
X153024500Y-95065418D01*
X153045299Y-95052034D01*
X153088111Y-94989377D01*
X153103173Y-94915000D01*
X153103173Y-94315000D01*
X153090099Y-94245517D01*
X153049034Y-94181701D01*
X153024500Y-94164938D01*
X153024500Y-92358442D01*
X153288623Y-92094319D01*
X153283827Y-92118000D01*
X153283827Y-93168000D01*
X153296901Y-93237483D01*
X153337966Y-93301299D01*
X153400623Y-93344111D01*
X153475000Y-93359173D01*
X154125000Y-93359173D01*
X154194483Y-93346099D01*
X154258299Y-93305034D01*
X154301111Y-93242377D01*
X154316173Y-93168000D01*
X154316173Y-92118000D01*
X154303099Y-92048517D01*
X154262034Y-91984701D01*
X154199377Y-91941889D01*
X154125000Y-91926827D01*
X153475000Y-91926827D01*
X153451738Y-91931204D01*
X155136273Y-90246669D01*
X155137966Y-90249299D01*
X155200623Y-90292111D01*
X155275000Y-90307173D01*
X155875000Y-90307173D01*
X155944483Y-90294099D01*
X156008299Y-90253034D01*
X156051111Y-90190377D01*
X156066173Y-90116000D01*
X156066173Y-89716000D01*
X156053099Y-89646517D01*
X156012034Y-89582701D01*
X155949377Y-89539889D01*
X155922761Y-89534499D01*
X156549124Y-89534499D01*
X156611625Y-89597000D01*
X156974000Y-89597000D01*
X156974000Y-89535500D01*
X157224000Y-89535500D01*
X157224000Y-89597000D01*
X157310500Y-89597000D01*
X157310500Y-89897000D01*
X157224000Y-89897000D01*
X157224000Y-89958500D01*
X156974000Y-89958500D01*
X156974000Y-89897000D01*
X156611625Y-89897000D01*
X156532500Y-89976125D01*
X156532500Y-90109956D01*
X156580684Y-90226283D01*
X156669717Y-90315316D01*
X156786044Y-90363500D01*
X156808221Y-90363500D01*
X156779517Y-90368901D01*
X156715701Y-90409966D01*
X156672889Y-90472623D01*
X156666636Y-90503500D01*
X156025418Y-90503500D01*
X156012034Y-90482701D01*
X155949377Y-90439889D01*
X155875000Y-90424827D01*
X155275000Y-90424827D01*
X155205517Y-90437901D01*
X155141701Y-90478966D01*
X155098889Y-90541623D01*
X155083827Y-90616000D01*
X155083827Y-91016000D01*
X155096901Y-91085483D01*
X155137966Y-91149299D01*
X155200623Y-91192111D01*
X155275000Y-91207173D01*
X155875000Y-91207173D01*
X155944483Y-91194099D01*
X156008299Y-91153034D01*
X156025062Y-91128500D01*
X156657827Y-91128500D01*
X156657827Y-91147000D01*
X156670901Y-91216483D01*
X156711966Y-91280299D01*
X156774623Y-91323111D01*
X156849000Y-91338173D01*
X157000231Y-91338173D01*
X158230827Y-92568769D01*
X158230827Y-93168000D01*
X158243901Y-93237483D01*
X158284966Y-93301299D01*
X158347623Y-93344111D01*
X158422000Y-93359173D01*
X158434500Y-93359173D01*
X158434500Y-93526867D01*
X157963253Y-93055620D01*
X157861871Y-92987879D01*
X157742282Y-92964091D01*
X157279744Y-92964091D01*
X157241541Y-92925821D01*
X157062429Y-92851448D01*
X156868490Y-92851278D01*
X156689248Y-92925339D01*
X156551992Y-93062356D01*
X156502791Y-93180847D01*
X155536789Y-92214845D01*
X155554415Y-92172395D01*
X155554585Y-91978456D01*
X155480524Y-91799214D01*
X155343507Y-91661958D01*
X155164395Y-91587585D01*
X154970456Y-91587415D01*
X154791214Y-91661476D01*
X154653958Y-91798493D01*
X154579585Y-91977605D01*
X154579415Y-92171544D01*
X154653476Y-92350786D01*
X154790493Y-92488042D01*
X154969605Y-92562415D01*
X155000502Y-92562442D01*
X156327843Y-93889783D01*
X156188214Y-93947476D01*
X156050958Y-94084493D01*
X155976585Y-94263605D01*
X155976415Y-94457544D01*
X156050476Y-94636786D01*
X156187493Y-94774042D01*
X156366605Y-94848415D01*
X156452000Y-94848490D01*
X156452000Y-95141984D01*
X156390464Y-95129522D01*
X155654971Y-94394029D01*
X155616632Y-94368412D01*
X155553589Y-94326288D01*
X155434000Y-94302500D01*
X155300552Y-94302500D01*
X155300585Y-94264456D01*
X155226524Y-94085214D01*
X155089507Y-93947958D01*
X154910395Y-93873585D01*
X154716456Y-93873415D01*
X154537214Y-93947476D01*
X154399958Y-94084493D01*
X154325585Y-94263605D01*
X154325551Y-94302500D01*
X154000821Y-94302500D01*
X153990099Y-94245517D01*
X153949034Y-94181701D01*
X153886377Y-94138889D01*
X153812000Y-94123827D01*
X153412000Y-94123827D01*
X153342517Y-94136901D01*
X153278701Y-94177966D01*
X153235889Y-94240623D01*
X153220827Y-94315000D01*
X153220827Y-94915000D01*
X153233901Y-94984483D01*
X153274966Y-95048299D01*
X153337623Y-95091111D01*
X153383958Y-95100494D01*
X153309585Y-95279605D01*
X153309415Y-95473544D01*
X153383476Y-95652786D01*
X153383819Y-95653130D01*
X153342517Y-95660901D01*
X153278701Y-95701966D01*
X153235889Y-95764623D01*
X153220827Y-95839000D01*
X153220827Y-96439000D01*
X153233901Y-96508483D01*
X153274966Y-96572299D01*
X153337623Y-96615111D01*
X153412000Y-96630173D01*
X153779287Y-96630173D01*
X153793500Y-96633000D01*
X155085984Y-96633000D01*
X155073327Y-96695500D01*
X155073327Y-96945500D01*
X155086401Y-97014983D01*
X155122539Y-97071143D01*
X155088389Y-97121123D01*
X155073327Y-97195500D01*
X155073327Y-97445500D01*
X155086401Y-97514983D01*
X155122539Y-97571143D01*
X155088389Y-97621123D01*
X155073327Y-97695500D01*
X155073327Y-97945500D01*
X155086401Y-98014983D01*
X155122539Y-98071143D01*
X155088389Y-98121123D01*
X155073327Y-98195500D01*
X155073327Y-98445500D01*
X155086401Y-98514983D01*
X155122539Y-98571143D01*
X155088389Y-98621123D01*
X155073327Y-98695500D01*
X155073327Y-98945500D01*
X155086401Y-99014983D01*
X155122539Y-99071143D01*
X155088389Y-99121123D01*
X155073327Y-99195500D01*
X155073327Y-99445500D01*
X155086401Y-99514983D01*
X155122539Y-99571143D01*
X155088389Y-99621123D01*
X155073327Y-99695500D01*
X155073327Y-99945500D01*
X155081288Y-99987811D01*
X155037395Y-99969585D01*
X154843456Y-99969415D01*
X154664214Y-100043476D01*
X154604132Y-100103454D01*
X154245708Y-99745030D01*
X154205892Y-99718426D01*
X154144326Y-99677289D01*
X154024737Y-99653501D01*
X152894173Y-99653501D01*
X152894173Y-99075000D01*
X152881099Y-99005517D01*
X152840034Y-98941701D01*
X152777377Y-98898889D01*
X152703000Y-98883827D01*
X151703000Y-98883827D01*
X151633517Y-98896901D01*
X151569701Y-98937966D01*
X151526889Y-99000623D01*
X151511827Y-99075000D01*
X151511827Y-99653501D01*
X150494173Y-99653501D01*
X150494173Y-99075000D01*
X150481099Y-99005517D01*
X150475149Y-98996271D01*
X150482283Y-98993316D01*
X150571316Y-98904283D01*
X150619500Y-98787956D01*
X150619500Y-98654125D01*
X150540375Y-98575000D01*
X149994500Y-98575000D01*
X149994500Y-98636500D01*
X149611500Y-98636500D01*
X149611500Y-98575000D01*
X149065625Y-98575000D01*
X148986500Y-98654125D01*
X148986500Y-98787956D01*
X149034684Y-98904283D01*
X149123717Y-98993316D01*
X149130081Y-98995952D01*
X149126889Y-99000623D01*
X149114358Y-99062500D01*
X148777297Y-99062500D01*
X148742034Y-99007701D01*
X148679377Y-98964889D01*
X148605000Y-98949827D01*
X148205000Y-98949827D01*
X148135517Y-98962901D01*
X148071701Y-99003966D01*
X148028889Y-99066623D01*
X148013827Y-99141000D01*
X148013827Y-99653501D01*
X147896173Y-99653501D01*
X147896173Y-99141000D01*
X147883099Y-99071517D01*
X147842034Y-99007701D01*
X147817500Y-98990938D01*
X147817500Y-97719500D01*
X149111827Y-97719500D01*
X149111827Y-97775000D01*
X149124901Y-97844483D01*
X149130851Y-97853729D01*
X149123717Y-97856684D01*
X149034684Y-97945717D01*
X148986500Y-98062044D01*
X148986500Y-98195875D01*
X149065625Y-98275000D01*
X149611500Y-98275000D01*
X149611500Y-98213500D01*
X149994500Y-98213500D01*
X149994500Y-98275000D01*
X150540375Y-98275000D01*
X150619500Y-98195875D01*
X150619500Y-98062044D01*
X150571316Y-97945717D01*
X150482283Y-97856684D01*
X150475919Y-97854048D01*
X150479111Y-97849377D01*
X150494173Y-97775000D01*
X150494173Y-97175000D01*
X150481099Y-97105517D01*
X150440034Y-97041701D01*
X150377377Y-96998889D01*
X150303000Y-96983827D01*
X149930545Y-96983827D01*
X149919359Y-96972641D01*
X149777424Y-96877803D01*
X149610000Y-96844500D01*
X148777173Y-96844500D01*
X148777173Y-96770000D01*
X148764099Y-96700517D01*
X148723034Y-96636701D01*
X148660377Y-96593889D01*
X148623890Y-96586500D01*
X148648956Y-96586500D01*
X148765283Y-96538316D01*
X148854316Y-96449283D01*
X148902500Y-96332956D01*
X148902500Y-96216125D01*
X149455500Y-96216125D01*
X149455500Y-96324956D01*
X149503684Y-96441283D01*
X149592717Y-96530316D01*
X149709044Y-96578500D01*
X149842875Y-96578500D01*
X149922000Y-96499375D01*
X149922000Y-96137000D01*
X149534625Y-96137000D01*
X149455500Y-96216125D01*
X148902500Y-96216125D01*
X148902500Y-96199125D01*
X148823375Y-96120000D01*
X148461000Y-96120000D01*
X148461000Y-96181500D01*
X148211000Y-96181500D01*
X148211000Y-96120000D01*
X147848625Y-96120000D01*
X147769500Y-96199125D01*
X147769500Y-96332956D01*
X147817684Y-96449283D01*
X147906717Y-96538316D01*
X148023044Y-96586500D01*
X148045221Y-96586500D01*
X148016517Y-96591901D01*
X147952701Y-96632966D01*
X147909889Y-96695623D01*
X147894827Y-96770000D01*
X147894827Y-96844500D01*
X147757500Y-96844500D01*
X147757500Y-95607044D01*
X147769500Y-95607044D01*
X147769500Y-95740875D01*
X147848625Y-95820000D01*
X148211000Y-95820000D01*
X148211000Y-95432625D01*
X148461000Y-95432625D01*
X148461000Y-95820000D01*
X148823375Y-95820000D01*
X148902500Y-95740875D01*
X148902500Y-95699044D01*
X149455500Y-95699044D01*
X149455500Y-95807875D01*
X149534625Y-95887000D01*
X149922000Y-95887000D01*
X149922000Y-95524625D01*
X149842875Y-95445500D01*
X149709044Y-95445500D01*
X149592717Y-95493684D01*
X149503684Y-95582717D01*
X149455500Y-95699044D01*
X148902500Y-95699044D01*
X148902500Y-95607044D01*
X148854316Y-95490717D01*
X148765283Y-95401684D01*
X148648956Y-95353500D01*
X148540125Y-95353500D01*
X148461000Y-95432625D01*
X148211000Y-95432625D01*
X148131875Y-95353500D01*
X148023044Y-95353500D01*
X147906717Y-95401684D01*
X147817684Y-95490717D01*
X147769500Y-95607044D01*
X147757500Y-95607044D01*
X147757500Y-95063998D01*
X147724197Y-94896574D01*
X147629359Y-94754639D01*
X146575845Y-93701125D01*
X147642500Y-93701125D01*
X147642500Y-93834956D01*
X147690684Y-93951283D01*
X147779717Y-94040316D01*
X147896044Y-94088500D01*
X148004875Y-94088500D01*
X148084000Y-94009375D01*
X148084000Y-93622000D01*
X148334000Y-93622000D01*
X148334000Y-94009375D01*
X148413125Y-94088500D01*
X148521956Y-94088500D01*
X148638283Y-94040316D01*
X148727316Y-93951283D01*
X148775500Y-93834956D01*
X148775500Y-93701125D01*
X148696375Y-93622000D01*
X148334000Y-93622000D01*
X148084000Y-93622000D01*
X147721625Y-93622000D01*
X147642500Y-93701125D01*
X146575845Y-93701125D01*
X144583360Y-91708640D01*
X144441425Y-91613802D01*
X144274001Y-91580499D01*
X138935217Y-91580499D01*
X138510262Y-91155544D01*
X146578415Y-91155544D01*
X146652476Y-91334786D01*
X146789493Y-91472042D01*
X146968605Y-91546415D01*
X147162544Y-91546585D01*
X147341786Y-91472524D01*
X147479042Y-91335507D01*
X147553415Y-91156395D01*
X147553418Y-91153224D01*
X148073689Y-90632953D01*
X148620480Y-90632953D01*
X148689963Y-90619879D01*
X148753779Y-90578814D01*
X148796591Y-90516157D01*
X148811653Y-90441780D01*
X148811653Y-89644220D01*
X148798579Y-89574737D01*
X148757514Y-89510921D01*
X148694857Y-89468109D01*
X148620480Y-89453047D01*
X147822920Y-89453047D01*
X147753437Y-89466121D01*
X147689621Y-89507186D01*
X147646809Y-89569843D01*
X147631747Y-89644220D01*
X147631747Y-90191011D01*
X147225419Y-90597339D01*
X147163395Y-90571585D01*
X146969456Y-90571415D01*
X146790214Y-90645476D01*
X146652958Y-90782493D01*
X146578585Y-90961605D01*
X146578415Y-91155544D01*
X138510262Y-91155544D01*
X137597500Y-90242782D01*
X137597500Y-88900000D01*
X137564197Y-88732576D01*
X137469359Y-88590641D01*
X136580359Y-87701641D01*
X136438424Y-87606803D01*
X136271000Y-87573500D01*
X131763173Y-87573500D01*
X131763173Y-87003500D01*
X138002827Y-87003500D01*
X138002827Y-90268000D01*
G36*
X136722500Y-89081218D02*
X136722500Y-90424000D01*
X136755803Y-90591424D01*
X136850641Y-90733359D01*
X138444640Y-92327358D01*
X138586575Y-92422196D01*
X138753999Y-92455499D01*
X140677500Y-92455499D01*
X140677500Y-93847375D01*
X140756625Y-93926500D01*
X141302500Y-93926500D01*
X141302500Y-93906500D01*
X141685500Y-93906500D01*
X141685500Y-93926500D01*
X142231375Y-93926500D01*
X142310500Y-93847375D01*
X142310500Y-92455499D01*
X142802827Y-92455499D01*
X142802827Y-95868000D01*
X142815901Y-95937483D01*
X142856966Y-96001299D01*
X142919623Y-96044111D01*
X142994000Y-96059173D01*
X143056500Y-96059173D01*
X143056500Y-96675500D01*
X143001886Y-96675500D01*
X142945377Y-96636889D01*
X142871000Y-96621827D01*
X142371000Y-96621827D01*
X142301517Y-96634901D01*
X142238425Y-96675500D01*
X141135000Y-96675500D01*
X140967576Y-96708803D01*
X140936111Y-96729827D01*
X140527000Y-96729827D01*
X140520500Y-96731050D01*
X140520500Y-95261000D01*
X140496712Y-95141411D01*
X140428971Y-95040029D01*
X139777567Y-94388625D01*
X140677500Y-94388625D01*
X140677500Y-95930956D01*
X140725684Y-96047283D01*
X140814717Y-96136316D01*
X140931044Y-96184500D01*
X141223375Y-96184500D01*
X141302500Y-96105375D01*
X141302500Y-94309500D01*
X141685500Y-94309500D01*
X141685500Y-96105375D01*
X141764625Y-96184500D01*
X142056956Y-96184500D01*
X142173283Y-96136316D01*
X142262316Y-96047283D01*
X142310500Y-95930956D01*
X142310500Y-94388625D01*
X142231375Y-94309500D01*
X141685500Y-94309500D01*
X141302500Y-94309500D01*
X140756625Y-94309500D01*
X140677500Y-94388625D01*
X139777567Y-94388625D01*
X136259823Y-90870881D01*
X136323299Y-90830034D01*
X136366111Y-90767377D01*
X136381173Y-90693000D01*
X136381173Y-90293000D01*
X136368099Y-90223517D01*
X136327034Y-90159701D01*
X136264377Y-90116889D01*
X136190000Y-90101827D01*
X135590000Y-90101827D01*
X135520517Y-90114901D01*
X135456701Y-90155966D01*
X135413889Y-90218623D01*
X135398827Y-90293000D01*
X135398827Y-90693000D01*
X135411901Y-90762483D01*
X135452966Y-90826299D01*
X135515623Y-90869111D01*
X135577500Y-90881642D01*
X135577500Y-90943000D01*
X135601288Y-91062589D01*
X135659226Y-91149299D01*
X135669029Y-91163971D01*
X139895500Y-95390442D01*
X139895500Y-97670782D01*
X139318173Y-97093455D01*
X139318173Y-96921000D01*
X139305099Y-96851517D01*
X139264034Y-96787701D01*
X139201377Y-96744889D01*
X139127000Y-96729827D01*
X138127000Y-96729827D01*
X138057517Y-96742901D01*
X137993701Y-96783966D01*
X137950889Y-96846623D01*
X137938358Y-96908500D01*
X137693173Y-96908500D01*
X137693173Y-96778000D01*
X137680099Y-96708517D01*
X137639034Y-96644701D01*
X137576377Y-96601889D01*
X137514500Y-96589358D01*
X137514500Y-94531080D01*
X137490712Y-94411491D01*
X137422971Y-94310109D01*
X134495115Y-91382253D01*
X134510780Y-91382253D01*
X134580263Y-91369179D01*
X134644079Y-91328114D01*
X134686891Y-91265457D01*
X134701953Y-91191080D01*
X134701953Y-90393520D01*
X134688879Y-90324037D01*
X134647814Y-90260221D01*
X134585157Y-90217409D01*
X134510780Y-90202347D01*
X133713220Y-90202347D01*
X133643737Y-90215421D01*
X133579921Y-90256486D01*
X133537109Y-90319143D01*
X133522047Y-90393520D01*
X133522047Y-91191080D01*
X133535121Y-91260563D01*
X133576186Y-91324379D01*
X133638843Y-91367191D01*
X133713220Y-91382253D01*
X133799500Y-91382253D01*
X133799500Y-91441080D01*
X133823288Y-91560669D01*
X133890645Y-91661476D01*
X133891029Y-91662051D01*
X136889500Y-94660522D01*
X136889500Y-96589179D01*
X136832517Y-96599901D01*
X136768701Y-96640966D01*
X136725889Y-96703623D01*
X136718500Y-96740110D01*
X136718500Y-96715044D01*
X136670316Y-96598717D01*
X136581283Y-96509684D01*
X136464956Y-96461500D01*
X136331125Y-96461500D01*
X136252000Y-96540625D01*
X136252000Y-96903000D01*
X136313500Y-96903000D01*
X136313500Y-97153000D01*
X136252000Y-97153000D01*
X136252000Y-97515375D01*
X136331125Y-97594500D01*
X136464956Y-97594500D01*
X136581283Y-97546316D01*
X136670316Y-97457283D01*
X136718500Y-97340956D01*
X136718500Y-97318779D01*
X136723901Y-97347483D01*
X136764966Y-97411299D01*
X136827623Y-97454111D01*
X136902000Y-97469173D01*
X137214740Y-97469173D01*
X137275411Y-97509712D01*
X137395000Y-97533500D01*
X137938179Y-97533500D01*
X137948901Y-97590483D01*
X137989966Y-97654299D01*
X138052623Y-97697111D01*
X138127000Y-97712173D01*
X138699455Y-97712173D01*
X139189500Y-98202218D01*
X139189500Y-98642484D01*
X139127000Y-98629827D01*
X138127000Y-98629827D01*
X138057517Y-98642901D01*
X137993701Y-98683966D01*
X137950889Y-98746623D01*
X137938358Y-98808500D01*
X137295000Y-98808500D01*
X137222974Y-98822827D01*
X136902000Y-98822827D01*
X136832517Y-98835901D01*
X136768701Y-98876966D01*
X136725889Y-98939623D01*
X136718500Y-98976110D01*
X136718500Y-98951044D01*
X136670316Y-98834717D01*
X136581283Y-98745684D01*
X136464956Y-98697500D01*
X136381125Y-98697500D01*
X136302000Y-98776625D01*
X136302000Y-99164000D01*
X136402000Y-99164000D01*
X136402000Y-99464000D01*
X136302000Y-99464000D01*
X136302000Y-99851375D01*
X136381125Y-99930500D01*
X136464956Y-99930500D01*
X136581283Y-99882316D01*
X136670316Y-99793283D01*
X136718500Y-99676956D01*
X136718500Y-99654779D01*
X136723901Y-99683483D01*
X136764966Y-99747299D01*
X136827623Y-99790111D01*
X136902000Y-99805173D01*
X137302000Y-99805173D01*
X137371483Y-99792099D01*
X137435299Y-99751034D01*
X137478111Y-99688377D01*
X137493173Y-99614000D01*
X137493173Y-99433500D01*
X137801757Y-99433500D01*
X137759640Y-99461642D01*
X136868071Y-100353211D01*
X136832517Y-100359901D01*
X136768701Y-100400966D01*
X136725889Y-100463623D01*
X136710827Y-100538000D01*
X136710827Y-100551084D01*
X136697803Y-100570576D01*
X136664500Y-100738000D01*
X136664500Y-100838000D01*
X136697803Y-101005424D01*
X136710827Y-101024916D01*
X136710827Y-101138000D01*
X136723901Y-101207483D01*
X136764966Y-101271299D01*
X136827623Y-101314111D01*
X136902000Y-101329173D01*
X137180520Y-101329173D01*
X137289500Y-101438153D01*
X137289500Y-103305848D01*
X137082173Y-103513175D01*
X137082173Y-103017000D01*
X137069099Y-102947517D01*
X137028034Y-102883701D01*
X136965377Y-102840889D01*
X136891000Y-102825827D01*
X136679043Y-102825827D01*
X136800786Y-102775524D01*
X136938042Y-102638507D01*
X137012415Y-102459395D01*
X137012585Y-102265456D01*
X136938524Y-102086214D01*
X136801507Y-101948958D01*
X136622395Y-101874585D01*
X136428456Y-101874415D01*
X136249214Y-101948476D01*
X136148014Y-102049500D01*
X135638442Y-102049500D01*
X135059500Y-101470558D01*
X135059500Y-101014218D01*
X135192641Y-101147359D01*
X135334576Y-101242197D01*
X135502000Y-101275500D01*
X135871114Y-101275500D01*
X135927623Y-101314111D01*
X136002000Y-101329173D01*
X136402000Y-101329173D01*
X136471483Y-101316099D01*
X136535299Y-101275034D01*
X136578111Y-101212377D01*
X136593173Y-101138000D01*
X136593173Y-101024916D01*
X136606197Y-101005424D01*
X136639500Y-100838000D01*
X136606197Y-100670576D01*
X136593173Y-100651084D01*
X136593173Y-100538000D01*
X136580099Y-100468517D01*
X136539034Y-100404701D01*
X136476377Y-100361889D01*
X136402000Y-100346827D01*
X136002000Y-100346827D01*
X135932517Y-100359901D01*
X135869425Y-100400500D01*
X135692500Y-100400500D01*
X135692500Y-99693856D01*
X135733684Y-99793283D01*
X135822717Y-99882316D01*
X135939044Y-99930500D01*
X136022875Y-99930500D01*
X136102000Y-99851375D01*
X136102000Y-99464000D01*
X136002000Y-99464000D01*
X136002000Y-99164000D01*
X136102000Y-99164000D01*
X136102000Y-98776625D01*
X136022875Y-98697500D01*
X135939044Y-98697500D01*
X135822717Y-98745684D01*
X135733684Y-98834717D01*
X135692500Y-98934144D01*
X135692500Y-97704736D01*
X135664424Y-97563592D01*
X135739044Y-97594500D01*
X135872875Y-97594500D01*
X135952000Y-97515375D01*
X135952000Y-97153000D01*
X135564625Y-97153000D01*
X135485500Y-97232125D01*
X135485500Y-97316518D01*
X134884026Y-96715044D01*
X135485500Y-96715044D01*
X135485500Y-96823875D01*
X135564625Y-96903000D01*
X135952000Y-96903000D01*
X135952000Y-96540625D01*
X135872875Y-96461500D01*
X135739044Y-96461500D01*
X135622717Y-96509684D01*
X135533684Y-96598717D01*
X135485500Y-96715044D01*
X134884026Y-96715044D01*
X134667123Y-96498141D01*
X134525188Y-96403303D01*
X134357764Y-96370000D01*
X134165113Y-96370000D01*
X134271783Y-96325816D01*
X134360816Y-96236783D01*
X134409000Y-96120456D01*
X134409000Y-95278125D01*
X134329875Y-95199000D01*
X133284000Y-95199000D01*
X133284000Y-96294875D01*
X133363125Y-96374000D01*
X133390891Y-96374000D01*
X133243576Y-96403303D01*
X133224084Y-96416327D01*
X132742500Y-96416327D01*
X132673017Y-96429401D01*
X132609201Y-96470466D01*
X132566389Y-96533123D01*
X132551327Y-96607500D01*
X132551327Y-97007500D01*
X132564401Y-97076983D01*
X132600539Y-97133143D01*
X132566389Y-97183123D01*
X132551327Y-97257500D01*
X132551327Y-97657500D01*
X132564401Y-97726983D01*
X132600539Y-97783143D01*
X132566389Y-97833123D01*
X132551327Y-97907500D01*
X132551327Y-98307500D01*
X132564401Y-98376983D01*
X132600539Y-98433143D01*
X132566389Y-98483123D01*
X132551327Y-98557500D01*
X132551327Y-98951074D01*
X132474184Y-99028217D01*
X132426000Y-99144544D01*
X132426000Y-99228375D01*
X132505125Y-99307500D01*
X133226000Y-99307500D01*
X133226000Y-99207500D01*
X133609000Y-99207500D01*
X133609000Y-99307500D01*
X133629000Y-99307500D01*
X133629000Y-99507500D01*
X133609000Y-99507500D01*
X133609000Y-99607500D01*
X133226000Y-99607500D01*
X133226000Y-99507500D01*
X132505125Y-99507500D01*
X132426000Y-99586625D01*
X132426000Y-99670456D01*
X132474184Y-99786783D01*
X132528401Y-99841000D01*
X132029544Y-99841000D01*
X131913217Y-99889184D01*
X131824184Y-99978217D01*
X131776000Y-100094544D01*
X131776000Y-100936875D01*
X131855123Y-101015998D01*
X131776000Y-101015998D01*
X131776000Y-101099510D01*
X131755456Y-101091000D01*
X131013125Y-101091000D01*
X130934000Y-101170125D01*
X130934000Y-102016000D01*
X130954000Y-102016000D01*
X130954000Y-102399000D01*
X130934000Y-102399000D01*
X130934000Y-103244875D01*
X131013125Y-103324000D01*
X131755456Y-103324000D01*
X131871783Y-103275816D01*
X131960816Y-103186783D01*
X132009000Y-103070456D01*
X132009000Y-102565490D01*
X132029544Y-102574000D01*
X132821875Y-102574000D01*
X132901000Y-102494875D01*
X132901000Y-101399000D01*
X132881000Y-101399000D01*
X132881000Y-101016000D01*
X132901000Y-101016000D01*
X132901000Y-100996000D01*
X133284000Y-100996000D01*
X133284000Y-101016000D01*
X133304000Y-101016000D01*
X133304000Y-101399000D01*
X133284000Y-101399000D01*
X133284000Y-102494875D01*
X133363125Y-102574000D01*
X134155456Y-102574000D01*
X134271783Y-102525816D01*
X134360816Y-102436783D01*
X134366388Y-102423330D01*
X134879787Y-102936729D01*
X134841958Y-102974493D01*
X134767585Y-103153605D01*
X134767415Y-103347544D01*
X134841476Y-103526786D01*
X134978493Y-103664042D01*
X135157605Y-103738415D01*
X135351544Y-103738585D01*
X135530786Y-103664524D01*
X135588489Y-103606921D01*
X135702000Y-103629500D01*
X136002179Y-103629500D01*
X136012901Y-103686483D01*
X136053966Y-103750299D01*
X136116623Y-103793111D01*
X136191000Y-103808173D01*
X136787175Y-103808173D01*
X136284674Y-104310674D01*
X136206094Y-104428277D01*
X136178500Y-104567000D01*
X136178500Y-104728179D01*
X136121517Y-104738901D01*
X136057701Y-104779966D01*
X136014889Y-104842623D01*
X135999827Y-104917000D01*
X135999827Y-105517000D01*
X136012901Y-105586483D01*
X136053966Y-105650299D01*
X136116623Y-105693111D01*
X136191000Y-105708173D01*
X136891000Y-105708173D01*
X136960483Y-105695099D01*
X137024299Y-105654034D01*
X137067111Y-105591377D01*
X137068176Y-105586118D01*
X140093030Y-108610972D01*
X140194412Y-108678713D01*
X140314001Y-108702501D01*
X143051001Y-108702501D01*
X143170590Y-108678713D01*
X143271972Y-108610972D01*
X143316972Y-108565972D01*
X143384714Y-108464589D01*
X143408501Y-108345001D01*
X143408501Y-107290001D01*
X143407526Y-107285099D01*
X143384714Y-107170413D01*
X143316972Y-107069030D01*
X143062173Y-106814231D01*
X143062173Y-106465000D01*
X143049099Y-106395517D01*
X143008034Y-106331701D01*
X142945377Y-106288889D01*
X142933500Y-106286484D01*
X142933500Y-105823566D01*
X142976000Y-105832173D01*
X143276000Y-105832173D01*
X143313500Y-105825117D01*
X143313500Y-106473000D01*
X143337288Y-106592589D01*
X143372583Y-106645412D01*
X143405029Y-106693971D01*
X143526827Y-106815769D01*
X143526827Y-107065000D01*
X143539901Y-107134483D01*
X143580966Y-107198299D01*
X143643623Y-107241111D01*
X143718000Y-107256173D01*
X144318000Y-107256173D01*
X144387483Y-107243099D01*
X144451299Y-107202034D01*
X144494111Y-107139377D01*
X144509173Y-107065000D01*
X144509173Y-107036125D01*
X149020500Y-107036125D01*
X149020500Y-107169956D01*
X149068684Y-107286283D01*
X149157717Y-107375316D01*
X149274044Y-107423500D01*
X149357875Y-107423500D01*
X149437000Y-107344375D01*
X149437000Y-106957000D01*
X149099625Y-106957000D01*
X149020500Y-107036125D01*
X144509173Y-107036125D01*
X144509173Y-106665000D01*
X144496099Y-106595517D01*
X144455034Y-106531701D01*
X144392377Y-106488889D01*
X144318000Y-106473827D01*
X144068769Y-106473827D01*
X144038986Y-106444044D01*
X149020500Y-106444044D01*
X149020500Y-106577875D01*
X149099625Y-106657000D01*
X149437000Y-106657000D01*
X149437000Y-106269625D01*
X149357875Y-106190500D01*
X149274044Y-106190500D01*
X149157717Y-106238684D01*
X149068684Y-106327717D01*
X149020500Y-106444044D01*
X144038986Y-106444044D01*
X143938500Y-106343558D01*
X143938500Y-105824579D01*
X143976000Y-105832173D01*
X144276000Y-105832173D01*
X144345483Y-105819099D01*
X144375893Y-105799530D01*
X144401623Y-105817111D01*
X144476000Y-105832173D01*
X144776000Y-105832173D01*
X144845483Y-105819099D01*
X144875893Y-105799530D01*
X144901623Y-105817111D01*
X144976000Y-105832173D01*
X145276000Y-105832173D01*
X145345483Y-105819099D01*
X145409299Y-105778034D01*
X145452111Y-105715377D01*
X145467173Y-105641000D01*
X145467173Y-104857173D01*
X146251000Y-104857173D01*
X146320483Y-104844099D01*
X146384299Y-104803034D01*
X146427111Y-104740377D01*
X146442173Y-104666000D01*
X146442173Y-104366000D01*
X146429099Y-104296517D01*
X146421125Y-104284125D01*
X146880500Y-104284125D01*
X146880500Y-104417956D01*
X146928684Y-104534283D01*
X147017717Y-104623316D01*
X147134044Y-104671500D01*
X147242875Y-104671500D01*
X147322000Y-104592375D01*
X147322000Y-104205000D01*
X147572000Y-104205000D01*
X147572000Y-104592375D01*
X147651125Y-104671500D01*
X147759956Y-104671500D01*
X147876283Y-104623316D01*
X147965316Y-104534283D01*
X148013500Y-104417956D01*
X148013500Y-104284125D01*
X147934375Y-104205000D01*
X147572000Y-104205000D01*
X147322000Y-104205000D01*
X146959625Y-104205000D01*
X146880500Y-104284125D01*
X146421125Y-104284125D01*
X146409530Y-104266107D01*
X146427111Y-104240377D01*
X146442173Y-104166000D01*
X146442173Y-103866000D01*
X146429099Y-103796517D01*
X146409530Y-103766107D01*
X146427111Y-103740377D01*
X146442173Y-103666000D01*
X146442173Y-103366000D01*
X146435117Y-103328500D01*
X147021486Y-103328500D01*
X147059966Y-103388299D01*
X147122623Y-103431111D01*
X147159110Y-103438500D01*
X147134044Y-103438500D01*
X147017717Y-103486684D01*
X146928684Y-103575717D01*
X146880500Y-103692044D01*
X146880500Y-103825875D01*
X146959625Y-103905000D01*
X147322000Y-103905000D01*
X147322000Y-103843500D01*
X147572000Y-103843500D01*
X147572000Y-103905000D01*
X147934375Y-103905000D01*
X148013500Y-103825875D01*
X148013500Y-103692044D01*
X147965316Y-103575717D01*
X147876283Y-103486684D01*
X147759956Y-103438500D01*
X147737779Y-103438500D01*
X147766483Y-103433099D01*
X147830299Y-103392034D01*
X147873111Y-103329377D01*
X147888173Y-103255000D01*
X147888173Y-102655000D01*
X147875099Y-102585517D01*
X147834034Y-102521701D01*
X147771377Y-102478889D01*
X147697000Y-102463827D01*
X147197000Y-102463827D01*
X147127517Y-102476901D01*
X147063701Y-102517966D01*
X147020889Y-102580623D01*
X147005827Y-102655000D01*
X147005827Y-102703500D01*
X146434579Y-102703500D01*
X146442173Y-102666000D01*
X146442173Y-102366000D01*
X146429099Y-102296517D01*
X146409530Y-102266107D01*
X146427111Y-102240377D01*
X146442173Y-102166000D01*
X146442173Y-101866000D01*
X146429099Y-101796517D01*
X146388034Y-101732701D01*
X146325377Y-101689889D01*
X146251000Y-101674827D01*
X145467173Y-101674827D01*
X145467173Y-100896500D01*
X147080031Y-100896500D01*
X147033958Y-100942493D01*
X146959585Y-101121605D01*
X146959415Y-101315544D01*
X147033476Y-101494786D01*
X147170493Y-101632042D01*
X147349605Y-101706415D01*
X147492598Y-101706540D01*
X149224500Y-103438442D01*
X149224500Y-104832582D01*
X149203701Y-104845966D01*
X149160889Y-104908623D01*
X149145827Y-104983000D01*
X149145827Y-105583000D01*
X149158901Y-105652483D01*
X149199966Y-105716299D01*
X149262623Y-105759111D01*
X149337000Y-105774173D01*
X149737000Y-105774173D01*
X149806483Y-105761099D01*
X149870299Y-105720034D01*
X149913111Y-105657377D01*
X149928173Y-105583000D01*
X149928173Y-104983000D01*
X149915099Y-104913517D01*
X149874034Y-104849701D01*
X149849500Y-104832938D01*
X149849500Y-103309000D01*
X149825712Y-103189411D01*
X149757971Y-103088029D01*
X149007986Y-102338044D01*
X151579500Y-102338044D01*
X151579500Y-102471875D01*
X151658625Y-102551000D01*
X152021000Y-102551000D01*
X152021000Y-102163625D01*
X151941875Y-102084500D01*
X151833044Y-102084500D01*
X151716717Y-102132684D01*
X151627684Y-102221717D01*
X151579500Y-102338044D01*
X149007986Y-102338044D01*
X147934460Y-101264518D01*
X147934585Y-101122456D01*
X147860524Y-100943214D01*
X147813891Y-100896500D01*
X152150126Y-100896500D01*
X152250493Y-100997042D01*
X152429605Y-101071415D01*
X152623544Y-101071585D01*
X152802786Y-100997524D01*
X152940042Y-100860507D01*
X153014415Y-100681395D01*
X153014585Y-100487456D01*
X152940524Y-100308214D01*
X152910863Y-100278501D01*
X153895295Y-100278501D01*
X154294765Y-100677971D01*
X154396147Y-100745712D01*
X154515736Y-100769500D01*
X154563126Y-100769500D01*
X154663493Y-100870042D01*
X154751295Y-100906500D01*
X153366998Y-100906500D01*
X153247409Y-100930288D01*
X153184366Y-100972412D01*
X153146027Y-100998029D01*
X152694028Y-101450028D01*
X152626287Y-101551410D01*
X152602499Y-101670999D01*
X152602499Y-102159900D01*
X152575283Y-102132684D01*
X152458956Y-102084500D01*
X152350125Y-102084500D01*
X152271000Y-102163625D01*
X152271000Y-102551000D01*
X152357500Y-102551000D01*
X152357500Y-102851000D01*
X152271000Y-102851000D01*
X152271000Y-102912500D01*
X152021000Y-102912500D01*
X152021000Y-102851000D01*
X151658625Y-102851000D01*
X151579500Y-102930125D01*
X151579500Y-103063956D01*
X151627684Y-103180283D01*
X151716717Y-103269316D01*
X151833044Y-103317500D01*
X151855221Y-103317500D01*
X151826517Y-103322901D01*
X151762701Y-103363966D01*
X151719889Y-103426623D01*
X151704827Y-103501000D01*
X151704827Y-104101000D01*
X151717901Y-104170483D01*
X151758966Y-104234299D01*
X151821623Y-104277111D01*
X151896000Y-104292173D01*
X152205264Y-104292173D01*
X152276411Y-104339712D01*
X152396000Y-104363500D01*
X152948827Y-104363500D01*
X152948827Y-104651000D01*
X152961901Y-104720483D01*
X152972500Y-104736954D01*
X152972500Y-104775000D01*
X152976774Y-104797716D01*
X152990200Y-104818579D01*
X153010684Y-104832576D01*
X153035000Y-104837500D01*
X153116924Y-104837500D01*
X153140000Y-104842173D01*
X154540000Y-104842173D01*
X154564835Y-104837500D01*
X155316924Y-104837500D01*
X155340000Y-104842173D01*
X156740000Y-104842173D01*
X156764835Y-104837500D01*
X156845000Y-104837500D01*
X156867716Y-104833226D01*
X156888579Y-104819800D01*
X156902576Y-104799316D01*
X156907500Y-104775000D01*
X156907500Y-104737980D01*
X156916111Y-104725377D01*
X156931173Y-104651000D01*
X156931173Y-104072125D01*
X157167500Y-104072125D01*
X157167500Y-104205956D01*
X157215684Y-104322283D01*
X157304717Y-104411316D01*
X157421044Y-104459500D01*
X157529875Y-104459500D01*
X157609000Y-104380375D01*
X157609000Y-103993000D01*
X157859000Y-103993000D01*
X157859000Y-104380375D01*
X157938125Y-104459500D01*
X158046956Y-104459500D01*
X158163283Y-104411316D01*
X158252316Y-104322283D01*
X158300500Y-104205956D01*
X158300500Y-104072125D01*
X158221375Y-103993000D01*
X157859000Y-103993000D01*
X157609000Y-103993000D01*
X157246625Y-103993000D01*
X157167500Y-104072125D01*
X156931173Y-104072125D01*
X156931173Y-103451000D01*
X156918099Y-103381517D01*
X156907500Y-103365046D01*
X156907500Y-103137980D01*
X156916111Y-103125377D01*
X156930262Y-103055500D01*
X157295179Y-103055500D01*
X157305901Y-103112483D01*
X157346966Y-103176299D01*
X157409623Y-103219111D01*
X157446110Y-103226500D01*
X157421044Y-103226500D01*
X157304717Y-103274684D01*
X157215684Y-103363717D01*
X157167500Y-103480044D01*
X157167500Y-103613875D01*
X157246625Y-103693000D01*
X157609000Y-103693000D01*
X157609000Y-103631500D01*
X157859000Y-103631500D01*
X157859000Y-103693000D01*
X158221375Y-103693000D01*
X158300500Y-103613875D01*
X158300500Y-103480044D01*
X158252316Y-103363717D01*
X158163283Y-103274684D01*
X158046956Y-103226500D01*
X158024779Y-103226500D01*
X158053483Y-103221099D01*
X158117299Y-103180034D01*
X158160111Y-103117377D01*
X158175173Y-103043000D01*
X158175173Y-102443000D01*
X158162099Y-102373517D01*
X158121034Y-102309701D01*
X158058377Y-102266889D01*
X157984000Y-102251827D01*
X157484000Y-102251827D01*
X157414517Y-102264901D01*
X157350701Y-102305966D01*
X157307889Y-102368623D01*
X157295358Y-102430500D01*
X156931173Y-102430500D01*
X156931173Y-102001769D01*
X156985471Y-101947471D01*
X157053213Y-101846088D01*
X157077000Y-101726500D01*
X157077000Y-101324942D01*
X157130529Y-101378471D01*
X157231912Y-101446213D01*
X157351500Y-101470000D01*
X157627502Y-101470000D01*
X157627415Y-101569544D01*
X157701476Y-101748786D01*
X157838493Y-101886042D01*
X158017605Y-101960415D01*
X158211544Y-101960585D01*
X158390786Y-101886524D01*
X158471254Y-101806196D01*
X158907754Y-102242696D01*
X158874701Y-102263966D01*
X158831889Y-102326623D01*
X158816827Y-102401000D01*
X158816827Y-103001000D01*
X158829901Y-103070483D01*
X158870966Y-103134299D01*
X158933623Y-103177111D01*
X158970110Y-103184500D01*
X158945044Y-103184500D01*
X158828717Y-103232684D01*
X158739684Y-103321717D01*
X158691500Y-103438044D01*
X158691500Y-103571875D01*
X158770625Y-103651000D01*
X159133000Y-103651000D01*
X159133000Y-103589500D01*
X159383000Y-103589500D01*
X159383000Y-103651000D01*
X159420501Y-103651000D01*
X159420501Y-103951000D01*
X159383000Y-103951000D01*
X159383000Y-104012500D01*
X159133000Y-104012500D01*
X159133000Y-103951000D01*
X158770625Y-103951000D01*
X158691500Y-104030125D01*
X158691500Y-104163956D01*
X158739684Y-104280283D01*
X158828717Y-104369316D01*
X158945044Y-104417500D01*
X159053875Y-104417500D01*
X159066498Y-104404877D01*
X159066498Y-104417500D01*
X159154560Y-104417500D01*
X158601560Y-104970500D01*
X150825821Y-104970500D01*
X150815099Y-104913517D01*
X150774034Y-104849701D01*
X150711377Y-104806889D01*
X150637000Y-104791827D01*
X150237000Y-104791827D01*
X150167517Y-104804901D01*
X150103701Y-104845966D01*
X150060889Y-104908623D01*
X150045827Y-104983000D01*
X150045827Y-105583000D01*
X150058901Y-105652483D01*
X150099966Y-105716299D01*
X150124500Y-105733062D01*
X150124500Y-106356582D01*
X150103701Y-106369966D01*
X150060889Y-106432623D01*
X150053500Y-106469110D01*
X150053500Y-106444044D01*
X150005316Y-106327717D01*
X149916283Y-106238684D01*
X149799956Y-106190500D01*
X149716125Y-106190500D01*
X149637000Y-106269625D01*
X149637000Y-106657000D01*
X149737000Y-106657000D01*
X149737000Y-106957000D01*
X149637000Y-106957000D01*
X149637000Y-107344375D01*
X149716125Y-107423500D01*
X149799956Y-107423500D01*
X149916283Y-107375316D01*
X150005316Y-107286283D01*
X150053500Y-107169956D01*
X150053500Y-107147779D01*
X150058901Y-107176483D01*
X150099966Y-107240299D01*
X150162623Y-107283111D01*
X150224500Y-107295642D01*
X150224500Y-107765179D01*
X150167517Y-107775901D01*
X150103701Y-107816966D01*
X150060889Y-107879623D01*
X150053500Y-107916110D01*
X150053500Y-107891044D01*
X150005316Y-107774717D01*
X149916283Y-107685684D01*
X149799956Y-107637500D01*
X149666125Y-107637500D01*
X149587000Y-107716625D01*
X149587000Y-108079000D01*
X149648500Y-108079000D01*
X149648500Y-108329000D01*
X149587000Y-108329000D01*
X149587000Y-108415500D01*
X149287000Y-108415500D01*
X149287000Y-108329000D01*
X148899625Y-108329000D01*
X148820500Y-108408125D01*
X148820500Y-108516956D01*
X148863390Y-108620501D01*
X145865443Y-108620501D01*
X145395701Y-108150759D01*
X145447042Y-108099507D01*
X145521415Y-107920395D01*
X145521440Y-107891044D01*
X148820500Y-107891044D01*
X148820500Y-107999875D01*
X148899625Y-108079000D01*
X149287000Y-108079000D01*
X149287000Y-107716625D01*
X149207875Y-107637500D01*
X149074044Y-107637500D01*
X148957717Y-107685684D01*
X148868684Y-107774717D01*
X148820500Y-107891044D01*
X145521440Y-107891044D01*
X145521585Y-107726456D01*
X145447524Y-107547214D01*
X145310507Y-107409958D01*
X145131395Y-107335585D01*
X144937456Y-107335415D01*
X144758214Y-107409476D01*
X144689803Y-107477768D01*
X144687589Y-107476288D01*
X144568000Y-107452500D01*
X144468418Y-107452500D01*
X144455034Y-107431701D01*
X144392377Y-107388889D01*
X144318000Y-107373827D01*
X143718000Y-107373827D01*
X143648517Y-107386901D01*
X143584701Y-107427966D01*
X143541889Y-107490623D01*
X143526827Y-107565000D01*
X143526827Y-107965000D01*
X143539901Y-108034483D01*
X143580966Y-108098299D01*
X143643623Y-108141111D01*
X143718000Y-108156173D01*
X144318000Y-108156173D01*
X144387483Y-108143099D01*
X144451299Y-108102034D01*
X144456086Y-108095028D01*
X145515030Y-109153972D01*
X145601127Y-109211500D01*
X129548500Y-109211500D01*
X129548500Y-108605512D01*
X130425310Y-108605512D01*
X130657355Y-108868302D01*
X131486538Y-109168283D01*
X132367401Y-109128115D01*
X132994645Y-108868302D01*
X133226690Y-108605512D01*
X131826000Y-107204822D01*
X130425310Y-108605512D01*
X129548500Y-108605512D01*
X129548500Y-106594538D01*
X129591717Y-106594538D01*
X129631885Y-107475401D01*
X129891698Y-108102645D01*
X130154488Y-108334690D01*
X131555178Y-106934000D01*
X132096822Y-106934000D01*
X133497512Y-108334690D01*
X133760302Y-108102645D01*
X134060283Y-107273462D01*
X134020115Y-106392599D01*
X133760302Y-105765355D01*
X133497512Y-105533310D01*
X132096822Y-106934000D01*
X131555178Y-106934000D01*
X130154488Y-105533310D01*
X129891698Y-105765355D01*
X129591717Y-106594538D01*
X129548500Y-106594538D01*
X129548500Y-105262488D01*
X130425310Y-105262488D01*
X131826000Y-106663178D01*
X133226690Y-105262488D01*
X132994645Y-104999698D01*
X132165462Y-104699717D01*
X131284599Y-104739885D01*
X130657355Y-104999698D01*
X130425310Y-105262488D01*
X129548500Y-105262488D01*
X129548500Y-103211099D01*
X129613217Y-103275816D01*
X129729544Y-103324000D01*
X130471875Y-103324000D01*
X130551000Y-103244875D01*
X130551000Y-102399000D01*
X130531000Y-102399000D01*
X130531000Y-102016000D01*
X130551000Y-102016000D01*
X130551000Y-101170125D01*
X130471875Y-101091000D01*
X129729544Y-101091000D01*
X129613217Y-101139184D01*
X129548500Y-101203901D01*
X129548500Y-99761099D01*
X129613217Y-99825816D01*
X129729544Y-99874000D01*
X130471875Y-99874000D01*
X130551000Y-99794875D01*
X130551000Y-99149000D01*
X130934000Y-99149000D01*
X130934000Y-99794875D01*
X131013125Y-99874000D01*
X131755456Y-99874000D01*
X131871783Y-99825816D01*
X131960816Y-99736783D01*
X132009000Y-99620456D01*
X132009000Y-99228125D01*
X131929875Y-99149000D01*
X130934000Y-99149000D01*
X130551000Y-99149000D01*
X130531000Y-99149000D01*
X130531000Y-98766000D01*
X130551000Y-98766000D01*
X130551000Y-98120125D01*
X130538375Y-98107500D01*
X130551000Y-98094875D01*
X130551000Y-97449000D01*
X130934000Y-97449000D01*
X130934000Y-98094875D01*
X130946625Y-98107500D01*
X130934000Y-98120125D01*
X130934000Y-98766000D01*
X131929875Y-98766000D01*
X132009000Y-98686875D01*
X132009000Y-98294544D01*
X131960816Y-98178217D01*
X131890099Y-98107500D01*
X131960816Y-98036783D01*
X132009000Y-97920456D01*
X132009000Y-97528125D01*
X131929875Y-97449000D01*
X130934000Y-97449000D01*
X130551000Y-97449000D01*
X130531000Y-97449000D01*
X130531000Y-97066000D01*
X130551000Y-97066000D01*
X130551000Y-96420125D01*
X130934000Y-96420125D01*
X130934000Y-97066000D01*
X131929875Y-97066000D01*
X132009000Y-96986875D01*
X132009000Y-96594544D01*
X131960816Y-96478217D01*
X131871783Y-96389184D01*
X131755456Y-96341000D01*
X131013125Y-96341000D01*
X130934000Y-96420125D01*
X130551000Y-96420125D01*
X130471875Y-96341000D01*
X129729544Y-96341000D01*
X129613217Y-96389184D01*
X129548500Y-96453901D01*
X129548500Y-95011099D01*
X129613217Y-95075816D01*
X129729544Y-95124000D01*
X130471875Y-95124000D01*
X130551000Y-95044875D01*
X130551000Y-94199000D01*
X130531000Y-94199000D01*
X130531000Y-93816000D01*
X130551000Y-93816000D01*
X130551000Y-92970125D01*
X130934000Y-92970125D01*
X130934000Y-93816000D01*
X130954000Y-93816000D01*
X130954000Y-94199000D01*
X130934000Y-94199000D01*
X130934000Y-95044875D01*
X131013125Y-95124000D01*
X131755456Y-95124000D01*
X131776000Y-95115490D01*
X131776000Y-95199002D01*
X131855123Y-95199002D01*
X131776000Y-95278125D01*
X131776000Y-96120456D01*
X131824184Y-96236783D01*
X131913217Y-96325816D01*
X132029544Y-96374000D01*
X132821875Y-96374000D01*
X132901000Y-96294875D01*
X132901000Y-95199000D01*
X132881000Y-95199000D01*
X132881000Y-94816000D01*
X132901000Y-94816000D01*
X132901000Y-93720125D01*
X133284000Y-93720125D01*
X133284000Y-94816000D01*
X134329875Y-94816000D01*
X134409000Y-94736875D01*
X134409000Y-93894544D01*
X134360816Y-93778217D01*
X134271783Y-93689184D01*
X134155456Y-93641000D01*
X133363125Y-93641000D01*
X133284000Y-93720125D01*
X132901000Y-93720125D01*
X132821875Y-93641000D01*
X132029544Y-93641000D01*
X132009000Y-93649510D01*
X132009000Y-93144544D01*
X131960816Y-93028217D01*
X131871783Y-92939184D01*
X131755456Y-92891000D01*
X131013125Y-92891000D01*
X130934000Y-92970125D01*
X130551000Y-92970125D01*
X130471875Y-92891000D01*
X129729544Y-92891000D01*
X129613217Y-92939184D01*
X129548500Y-93003901D01*
X129548500Y-91416893D01*
X129935823Y-91730399D01*
X130160573Y-91823476D01*
X130364500Y-91789659D01*
X130364500Y-90742500D01*
X130747500Y-90742500D01*
X130747500Y-91789659D01*
X130951427Y-91823476D01*
X131176177Y-91730399D01*
X131580305Y-91403291D01*
X131828492Y-90946430D01*
X131795559Y-90742500D01*
X130747500Y-90742500D01*
X130364500Y-90742500D01*
X130344500Y-90742500D01*
X130344500Y-90359500D01*
X130364500Y-90359500D01*
X130364500Y-89312341D01*
X130747500Y-89312341D01*
X130747500Y-90359500D01*
X131795559Y-90359500D01*
X131828492Y-90155570D01*
X131580305Y-89698709D01*
X131176177Y-89371601D01*
X130951427Y-89278524D01*
X130747500Y-89312341D01*
X130364500Y-89312341D01*
X130160573Y-89278524D01*
X129935823Y-89371601D01*
X129548500Y-89685107D01*
X129548500Y-89218173D01*
X131572000Y-89218173D01*
X131641483Y-89205099D01*
X131705299Y-89164034D01*
X131748111Y-89101377D01*
X131763173Y-89027000D01*
X131763173Y-88894920D01*
X133522047Y-88894920D01*
X133522047Y-89692480D01*
X133535121Y-89761963D01*
X133576186Y-89825779D01*
X133638843Y-89868591D01*
X133713220Y-89883653D01*
X134510780Y-89883653D01*
X134580263Y-89870579D01*
X134644079Y-89829514D01*
X134686891Y-89766857D01*
X134701953Y-89692480D01*
X134701953Y-89606200D01*
X135398827Y-89606200D01*
X135398827Y-89793000D01*
X135411901Y-89862483D01*
X135452966Y-89926299D01*
X135515623Y-89969111D01*
X135590000Y-89984173D01*
X136190000Y-89984173D01*
X136259483Y-89971099D01*
X136323299Y-89930034D01*
X136366111Y-89867377D01*
X136381173Y-89793000D01*
X136381173Y-89393000D01*
X136368099Y-89323517D01*
X136327034Y-89259701D01*
X136264377Y-89216889D01*
X136190000Y-89201827D01*
X135940769Y-89201827D01*
X135811671Y-89072729D01*
X135743232Y-89027000D01*
X135710289Y-89004988D01*
X135590700Y-88981200D01*
X134701953Y-88981200D01*
X134701953Y-88894920D01*
X134688879Y-88825437D01*
X134647814Y-88761621D01*
X134585157Y-88718809D01*
X134510780Y-88703747D01*
X133713220Y-88703747D01*
X133643737Y-88716821D01*
X133579921Y-88757886D01*
X133537109Y-88820543D01*
X133522047Y-88894920D01*
X131763173Y-88894920D01*
X131763173Y-88448500D01*
X136089782Y-88448500D01*
X136722500Y-89081218D01*
X136722500Y-89081218D01*
G37*
X136722500Y-89081218D02*
X136722500Y-90424000D01*
X136755803Y-90591424D01*
X136850641Y-90733359D01*
X138444640Y-92327358D01*
X138586575Y-92422196D01*
X138753999Y-92455499D01*
X140677500Y-92455499D01*
X140677500Y-93847375D01*
X140756625Y-93926500D01*
X141302500Y-93926500D01*
X141302500Y-93906500D01*
X141685500Y-93906500D01*
X141685500Y-93926500D01*
X142231375Y-93926500D01*
X142310500Y-93847375D01*
X142310500Y-92455499D01*
X142802827Y-92455499D01*
X142802827Y-95868000D01*
X142815901Y-95937483D01*
X142856966Y-96001299D01*
X142919623Y-96044111D01*
X142994000Y-96059173D01*
X143056500Y-96059173D01*
X143056500Y-96675500D01*
X143001886Y-96675500D01*
X142945377Y-96636889D01*
X142871000Y-96621827D01*
X142371000Y-96621827D01*
X142301517Y-96634901D01*
X142238425Y-96675500D01*
X141135000Y-96675500D01*
X140967576Y-96708803D01*
X140936111Y-96729827D01*
X140527000Y-96729827D01*
X140520500Y-96731050D01*
X140520500Y-95261000D01*
X140496712Y-95141411D01*
X140428971Y-95040029D01*
X139777567Y-94388625D01*
X140677500Y-94388625D01*
X140677500Y-95930956D01*
X140725684Y-96047283D01*
X140814717Y-96136316D01*
X140931044Y-96184500D01*
X141223375Y-96184500D01*
X141302500Y-96105375D01*
X141302500Y-94309500D01*
X141685500Y-94309500D01*
X141685500Y-96105375D01*
X141764625Y-96184500D01*
X142056956Y-96184500D01*
X142173283Y-96136316D01*
X142262316Y-96047283D01*
X142310500Y-95930956D01*
X142310500Y-94388625D01*
X142231375Y-94309500D01*
X141685500Y-94309500D01*
X141302500Y-94309500D01*
X140756625Y-94309500D01*
X140677500Y-94388625D01*
X139777567Y-94388625D01*
X136259823Y-90870881D01*
X136323299Y-90830034D01*
X136366111Y-90767377D01*
X136381173Y-90693000D01*
X136381173Y-90293000D01*
X136368099Y-90223517D01*
X136327034Y-90159701D01*
X136264377Y-90116889D01*
X136190000Y-90101827D01*
X135590000Y-90101827D01*
X135520517Y-90114901D01*
X135456701Y-90155966D01*
X135413889Y-90218623D01*
X135398827Y-90293000D01*
X135398827Y-90693000D01*
X135411901Y-90762483D01*
X135452966Y-90826299D01*
X135515623Y-90869111D01*
X135577500Y-90881642D01*
X135577500Y-90943000D01*
X135601288Y-91062589D01*
X135659226Y-91149299D01*
X135669029Y-91163971D01*
X139895500Y-95390442D01*
X139895500Y-97670782D01*
X139318173Y-97093455D01*
X139318173Y-96921000D01*
X139305099Y-96851517D01*
X139264034Y-96787701D01*
X139201377Y-96744889D01*
X139127000Y-96729827D01*
X138127000Y-96729827D01*
X138057517Y-96742901D01*
X137993701Y-96783966D01*
X137950889Y-96846623D01*
X137938358Y-96908500D01*
X137693173Y-96908500D01*
X137693173Y-96778000D01*
X137680099Y-96708517D01*
X137639034Y-96644701D01*
X137576377Y-96601889D01*
X137514500Y-96589358D01*
X137514500Y-94531080D01*
X137490712Y-94411491D01*
X137422971Y-94310109D01*
X134495115Y-91382253D01*
X134510780Y-91382253D01*
X134580263Y-91369179D01*
X134644079Y-91328114D01*
X134686891Y-91265457D01*
X134701953Y-91191080D01*
X134701953Y-90393520D01*
X134688879Y-90324037D01*
X134647814Y-90260221D01*
X134585157Y-90217409D01*
X134510780Y-90202347D01*
X133713220Y-90202347D01*
X133643737Y-90215421D01*
X133579921Y-90256486D01*
X133537109Y-90319143D01*
X133522047Y-90393520D01*
X133522047Y-91191080D01*
X133535121Y-91260563D01*
X133576186Y-91324379D01*
X133638843Y-91367191D01*
X133713220Y-91382253D01*
X133799500Y-91382253D01*
X133799500Y-91441080D01*
X133823288Y-91560669D01*
X133890645Y-91661476D01*
X133891029Y-91662051D01*
X136889500Y-94660522D01*
X136889500Y-96589179D01*
X136832517Y-96599901D01*
X136768701Y-96640966D01*
X136725889Y-96703623D01*
X136718500Y-96740110D01*
X136718500Y-96715044D01*
X136670316Y-96598717D01*
X136581283Y-96509684D01*
X136464956Y-96461500D01*
X136331125Y-96461500D01*
X136252000Y-96540625D01*
X136252000Y-96903000D01*
X136313500Y-96903000D01*
X136313500Y-97153000D01*
X136252000Y-97153000D01*
X136252000Y-97515375D01*
X136331125Y-97594500D01*
X136464956Y-97594500D01*
X136581283Y-97546316D01*
X136670316Y-97457283D01*
X136718500Y-97340956D01*
X136718500Y-97318779D01*
X136723901Y-97347483D01*
X136764966Y-97411299D01*
X136827623Y-97454111D01*
X136902000Y-97469173D01*
X137214740Y-97469173D01*
X137275411Y-97509712D01*
X137395000Y-97533500D01*
X137938179Y-97533500D01*
X137948901Y-97590483D01*
X137989966Y-97654299D01*
X138052623Y-97697111D01*
X138127000Y-97712173D01*
X138699455Y-97712173D01*
X139189500Y-98202218D01*
X139189500Y-98642484D01*
X139127000Y-98629827D01*
X138127000Y-98629827D01*
X138057517Y-98642901D01*
X137993701Y-98683966D01*
X137950889Y-98746623D01*
X137938358Y-98808500D01*
X137295000Y-98808500D01*
X137222974Y-98822827D01*
X136902000Y-98822827D01*
X136832517Y-98835901D01*
X136768701Y-98876966D01*
X136725889Y-98939623D01*
X136718500Y-98976110D01*
X136718500Y-98951044D01*
X136670316Y-98834717D01*
X136581283Y-98745684D01*
X136464956Y-98697500D01*
X136381125Y-98697500D01*
X136302000Y-98776625D01*
X136302000Y-99164000D01*
X136402000Y-99164000D01*
X136402000Y-99464000D01*
X136302000Y-99464000D01*
X136302000Y-99851375D01*
X136381125Y-99930500D01*
X136464956Y-99930500D01*
X136581283Y-99882316D01*
X136670316Y-99793283D01*
X136718500Y-99676956D01*
X136718500Y-99654779D01*
X136723901Y-99683483D01*
X136764966Y-99747299D01*
X136827623Y-99790111D01*
X136902000Y-99805173D01*
X137302000Y-99805173D01*
X137371483Y-99792099D01*
X137435299Y-99751034D01*
X137478111Y-99688377D01*
X137493173Y-99614000D01*
X137493173Y-99433500D01*
X137801757Y-99433500D01*
X137759640Y-99461642D01*
X136868071Y-100353211D01*
X136832517Y-100359901D01*
X136768701Y-100400966D01*
X136725889Y-100463623D01*
X136710827Y-100538000D01*
X136710827Y-100551084D01*
X136697803Y-100570576D01*
X136664500Y-100738000D01*
X136664500Y-100838000D01*
X136697803Y-101005424D01*
X136710827Y-101024916D01*
X136710827Y-101138000D01*
X136723901Y-101207483D01*
X136764966Y-101271299D01*
X136827623Y-101314111D01*
X136902000Y-101329173D01*
X137180520Y-101329173D01*
X137289500Y-101438153D01*
X137289500Y-103305848D01*
X137082173Y-103513175D01*
X137082173Y-103017000D01*
X137069099Y-102947517D01*
X137028034Y-102883701D01*
X136965377Y-102840889D01*
X136891000Y-102825827D01*
X136679043Y-102825827D01*
X136800786Y-102775524D01*
X136938042Y-102638507D01*
X137012415Y-102459395D01*
X137012585Y-102265456D01*
X136938524Y-102086214D01*
X136801507Y-101948958D01*
X136622395Y-101874585D01*
X136428456Y-101874415D01*
X136249214Y-101948476D01*
X136148014Y-102049500D01*
X135638442Y-102049500D01*
X135059500Y-101470558D01*
X135059500Y-101014218D01*
X135192641Y-101147359D01*
X135334576Y-101242197D01*
X135502000Y-101275500D01*
X135871114Y-101275500D01*
X135927623Y-101314111D01*
X136002000Y-101329173D01*
X136402000Y-101329173D01*
X136471483Y-101316099D01*
X136535299Y-101275034D01*
X136578111Y-101212377D01*
X136593173Y-101138000D01*
X136593173Y-101024916D01*
X136606197Y-101005424D01*
X136639500Y-100838000D01*
X136606197Y-100670576D01*
X136593173Y-100651084D01*
X136593173Y-100538000D01*
X136580099Y-100468517D01*
X136539034Y-100404701D01*
X136476377Y-100361889D01*
X136402000Y-100346827D01*
X136002000Y-100346827D01*
X135932517Y-100359901D01*
X135869425Y-100400500D01*
X135692500Y-100400500D01*
X135692500Y-99693856D01*
X135733684Y-99793283D01*
X135822717Y-99882316D01*
X135939044Y-99930500D01*
X136022875Y-99930500D01*
X136102000Y-99851375D01*
X136102000Y-99464000D01*
X136002000Y-99464000D01*
X136002000Y-99164000D01*
X136102000Y-99164000D01*
X136102000Y-98776625D01*
X136022875Y-98697500D01*
X135939044Y-98697500D01*
X135822717Y-98745684D01*
X135733684Y-98834717D01*
X135692500Y-98934144D01*
X135692500Y-97704736D01*
X135664424Y-97563592D01*
X135739044Y-97594500D01*
X135872875Y-97594500D01*
X135952000Y-97515375D01*
X135952000Y-97153000D01*
X135564625Y-97153000D01*
X135485500Y-97232125D01*
X135485500Y-97316518D01*
X134884026Y-96715044D01*
X135485500Y-96715044D01*
X135485500Y-96823875D01*
X135564625Y-96903000D01*
X135952000Y-96903000D01*
X135952000Y-96540625D01*
X135872875Y-96461500D01*
X135739044Y-96461500D01*
X135622717Y-96509684D01*
X135533684Y-96598717D01*
X135485500Y-96715044D01*
X134884026Y-96715044D01*
X134667123Y-96498141D01*
X134525188Y-96403303D01*
X134357764Y-96370000D01*
X134165113Y-96370000D01*
X134271783Y-96325816D01*
X134360816Y-96236783D01*
X134409000Y-96120456D01*
X134409000Y-95278125D01*
X134329875Y-95199000D01*
X133284000Y-95199000D01*
X133284000Y-96294875D01*
X133363125Y-96374000D01*
X133390891Y-96374000D01*
X133243576Y-96403303D01*
X133224084Y-96416327D01*
X132742500Y-96416327D01*
X132673017Y-96429401D01*
X132609201Y-96470466D01*
X132566389Y-96533123D01*
X132551327Y-96607500D01*
X132551327Y-97007500D01*
X132564401Y-97076983D01*
X132600539Y-97133143D01*
X132566389Y-97183123D01*
X132551327Y-97257500D01*
X132551327Y-97657500D01*
X132564401Y-97726983D01*
X132600539Y-97783143D01*
X132566389Y-97833123D01*
X132551327Y-97907500D01*
X132551327Y-98307500D01*
X132564401Y-98376983D01*
X132600539Y-98433143D01*
X132566389Y-98483123D01*
X132551327Y-98557500D01*
X132551327Y-98951074D01*
X132474184Y-99028217D01*
X132426000Y-99144544D01*
X132426000Y-99228375D01*
X132505125Y-99307500D01*
X133226000Y-99307500D01*
X133226000Y-99207500D01*
X133609000Y-99207500D01*
X133609000Y-99307500D01*
X133629000Y-99307500D01*
X133629000Y-99507500D01*
X133609000Y-99507500D01*
X133609000Y-99607500D01*
X133226000Y-99607500D01*
X133226000Y-99507500D01*
X132505125Y-99507500D01*
X132426000Y-99586625D01*
X132426000Y-99670456D01*
X132474184Y-99786783D01*
X132528401Y-99841000D01*
X132029544Y-99841000D01*
X131913217Y-99889184D01*
X131824184Y-99978217D01*
X131776000Y-100094544D01*
X131776000Y-100936875D01*
X131855123Y-101015998D01*
X131776000Y-101015998D01*
X131776000Y-101099510D01*
X131755456Y-101091000D01*
X131013125Y-101091000D01*
X130934000Y-101170125D01*
X130934000Y-102016000D01*
X130954000Y-102016000D01*
X130954000Y-102399000D01*
X130934000Y-102399000D01*
X130934000Y-103244875D01*
X131013125Y-103324000D01*
X131755456Y-103324000D01*
X131871783Y-103275816D01*
X131960816Y-103186783D01*
X132009000Y-103070456D01*
X132009000Y-102565490D01*
X132029544Y-102574000D01*
X132821875Y-102574000D01*
X132901000Y-102494875D01*
X132901000Y-101399000D01*
X132881000Y-101399000D01*
X132881000Y-101016000D01*
X132901000Y-101016000D01*
X132901000Y-100996000D01*
X133284000Y-100996000D01*
X133284000Y-101016000D01*
X133304000Y-101016000D01*
X133304000Y-101399000D01*
X133284000Y-101399000D01*
X133284000Y-102494875D01*
X133363125Y-102574000D01*
X134155456Y-102574000D01*
X134271783Y-102525816D01*
X134360816Y-102436783D01*
X134366388Y-102423330D01*
X134879787Y-102936729D01*
X134841958Y-102974493D01*
X134767585Y-103153605D01*
X134767415Y-103347544D01*
X134841476Y-103526786D01*
X134978493Y-103664042D01*
X135157605Y-103738415D01*
X135351544Y-103738585D01*
X135530786Y-103664524D01*
X135588489Y-103606921D01*
X135702000Y-103629500D01*
X136002179Y-103629500D01*
X136012901Y-103686483D01*
X136053966Y-103750299D01*
X136116623Y-103793111D01*
X136191000Y-103808173D01*
X136787175Y-103808173D01*
X136284674Y-104310674D01*
X136206094Y-104428277D01*
X136178500Y-104567000D01*
X136178500Y-104728179D01*
X136121517Y-104738901D01*
X136057701Y-104779966D01*
X136014889Y-104842623D01*
X135999827Y-104917000D01*
X135999827Y-105517000D01*
X136012901Y-105586483D01*
X136053966Y-105650299D01*
X136116623Y-105693111D01*
X136191000Y-105708173D01*
X136891000Y-105708173D01*
X136960483Y-105695099D01*
X137024299Y-105654034D01*
X137067111Y-105591377D01*
X137068176Y-105586118D01*
X140093030Y-108610972D01*
X140194412Y-108678713D01*
X140314001Y-108702501D01*
X143051001Y-108702501D01*
X143170590Y-108678713D01*
X143271972Y-108610972D01*
X143316972Y-108565972D01*
X143384714Y-108464589D01*
X143408501Y-108345001D01*
X143408501Y-107290001D01*
X143407526Y-107285099D01*
X143384714Y-107170413D01*
X143316972Y-107069030D01*
X143062173Y-106814231D01*
X143062173Y-106465000D01*
X143049099Y-106395517D01*
X143008034Y-106331701D01*
X142945377Y-106288889D01*
X142933500Y-106286484D01*
X142933500Y-105823566D01*
X142976000Y-105832173D01*
X143276000Y-105832173D01*
X143313500Y-105825117D01*
X143313500Y-106473000D01*
X143337288Y-106592589D01*
X143372583Y-106645412D01*
X143405029Y-106693971D01*
X143526827Y-106815769D01*
X143526827Y-107065000D01*
X143539901Y-107134483D01*
X143580966Y-107198299D01*
X143643623Y-107241111D01*
X143718000Y-107256173D01*
X144318000Y-107256173D01*
X144387483Y-107243099D01*
X144451299Y-107202034D01*
X144494111Y-107139377D01*
X144509173Y-107065000D01*
X144509173Y-107036125D01*
X149020500Y-107036125D01*
X149020500Y-107169956D01*
X149068684Y-107286283D01*
X149157717Y-107375316D01*
X149274044Y-107423500D01*
X149357875Y-107423500D01*
X149437000Y-107344375D01*
X149437000Y-106957000D01*
X149099625Y-106957000D01*
X149020500Y-107036125D01*
X144509173Y-107036125D01*
X144509173Y-106665000D01*
X144496099Y-106595517D01*
X144455034Y-106531701D01*
X144392377Y-106488889D01*
X144318000Y-106473827D01*
X144068769Y-106473827D01*
X144038986Y-106444044D01*
X149020500Y-106444044D01*
X149020500Y-106577875D01*
X149099625Y-106657000D01*
X149437000Y-106657000D01*
X149437000Y-106269625D01*
X149357875Y-106190500D01*
X149274044Y-106190500D01*
X149157717Y-106238684D01*
X149068684Y-106327717D01*
X149020500Y-106444044D01*
X144038986Y-106444044D01*
X143938500Y-106343558D01*
X143938500Y-105824579D01*
X143976000Y-105832173D01*
X144276000Y-105832173D01*
X144345483Y-105819099D01*
X144375893Y-105799530D01*
X144401623Y-105817111D01*
X144476000Y-105832173D01*
X144776000Y-105832173D01*
X144845483Y-105819099D01*
X144875893Y-105799530D01*
X144901623Y-105817111D01*
X144976000Y-105832173D01*
X145276000Y-105832173D01*
X145345483Y-105819099D01*
X145409299Y-105778034D01*
X145452111Y-105715377D01*
X145467173Y-105641000D01*
X145467173Y-104857173D01*
X146251000Y-104857173D01*
X146320483Y-104844099D01*
X146384299Y-104803034D01*
X146427111Y-104740377D01*
X146442173Y-104666000D01*
X146442173Y-104366000D01*
X146429099Y-104296517D01*
X146421125Y-104284125D01*
X146880500Y-104284125D01*
X146880500Y-104417956D01*
X146928684Y-104534283D01*
X147017717Y-104623316D01*
X147134044Y-104671500D01*
X147242875Y-104671500D01*
X147322000Y-104592375D01*
X147322000Y-104205000D01*
X147572000Y-104205000D01*
X147572000Y-104592375D01*
X147651125Y-104671500D01*
X147759956Y-104671500D01*
X147876283Y-104623316D01*
X147965316Y-104534283D01*
X148013500Y-104417956D01*
X148013500Y-104284125D01*
X147934375Y-104205000D01*
X147572000Y-104205000D01*
X147322000Y-104205000D01*
X146959625Y-104205000D01*
X146880500Y-104284125D01*
X146421125Y-104284125D01*
X146409530Y-104266107D01*
X146427111Y-104240377D01*
X146442173Y-104166000D01*
X146442173Y-103866000D01*
X146429099Y-103796517D01*
X146409530Y-103766107D01*
X146427111Y-103740377D01*
X146442173Y-103666000D01*
X146442173Y-103366000D01*
X146435117Y-103328500D01*
X147021486Y-103328500D01*
X147059966Y-103388299D01*
X147122623Y-103431111D01*
X147159110Y-103438500D01*
X147134044Y-103438500D01*
X147017717Y-103486684D01*
X146928684Y-103575717D01*
X146880500Y-103692044D01*
X146880500Y-103825875D01*
X146959625Y-103905000D01*
X147322000Y-103905000D01*
X147322000Y-103843500D01*
X147572000Y-103843500D01*
X147572000Y-103905000D01*
X147934375Y-103905000D01*
X148013500Y-103825875D01*
X148013500Y-103692044D01*
X147965316Y-103575717D01*
X147876283Y-103486684D01*
X147759956Y-103438500D01*
X147737779Y-103438500D01*
X147766483Y-103433099D01*
X147830299Y-103392034D01*
X147873111Y-103329377D01*
X147888173Y-103255000D01*
X147888173Y-102655000D01*
X147875099Y-102585517D01*
X147834034Y-102521701D01*
X147771377Y-102478889D01*
X147697000Y-102463827D01*
X147197000Y-102463827D01*
X147127517Y-102476901D01*
X147063701Y-102517966D01*
X147020889Y-102580623D01*
X147005827Y-102655000D01*
X147005827Y-102703500D01*
X146434579Y-102703500D01*
X146442173Y-102666000D01*
X146442173Y-102366000D01*
X146429099Y-102296517D01*
X146409530Y-102266107D01*
X146427111Y-102240377D01*
X146442173Y-102166000D01*
X146442173Y-101866000D01*
X146429099Y-101796517D01*
X146388034Y-101732701D01*
X146325377Y-101689889D01*
X146251000Y-101674827D01*
X145467173Y-101674827D01*
X145467173Y-100896500D01*
X147080031Y-100896500D01*
X147033958Y-100942493D01*
X146959585Y-101121605D01*
X146959415Y-101315544D01*
X147033476Y-101494786D01*
X147170493Y-101632042D01*
X147349605Y-101706415D01*
X147492598Y-101706540D01*
X149224500Y-103438442D01*
X149224500Y-104832582D01*
X149203701Y-104845966D01*
X149160889Y-104908623D01*
X149145827Y-104983000D01*
X149145827Y-105583000D01*
X149158901Y-105652483D01*
X149199966Y-105716299D01*
X149262623Y-105759111D01*
X149337000Y-105774173D01*
X149737000Y-105774173D01*
X149806483Y-105761099D01*
X149870299Y-105720034D01*
X149913111Y-105657377D01*
X149928173Y-105583000D01*
X149928173Y-104983000D01*
X149915099Y-104913517D01*
X149874034Y-104849701D01*
X149849500Y-104832938D01*
X149849500Y-103309000D01*
X149825712Y-103189411D01*
X149757971Y-103088029D01*
X149007986Y-102338044D01*
X151579500Y-102338044D01*
X151579500Y-102471875D01*
X151658625Y-102551000D01*
X152021000Y-102551000D01*
X152021000Y-102163625D01*
X151941875Y-102084500D01*
X151833044Y-102084500D01*
X151716717Y-102132684D01*
X151627684Y-102221717D01*
X151579500Y-102338044D01*
X149007986Y-102338044D01*
X147934460Y-101264518D01*
X147934585Y-101122456D01*
X147860524Y-100943214D01*
X147813891Y-100896500D01*
X152150126Y-100896500D01*
X152250493Y-100997042D01*
X152429605Y-101071415D01*
X152623544Y-101071585D01*
X152802786Y-100997524D01*
X152940042Y-100860507D01*
X153014415Y-100681395D01*
X153014585Y-100487456D01*
X152940524Y-100308214D01*
X152910863Y-100278501D01*
X153895295Y-100278501D01*
X154294765Y-100677971D01*
X154396147Y-100745712D01*
X154515736Y-100769500D01*
X154563126Y-100769500D01*
X154663493Y-100870042D01*
X154751295Y-100906500D01*
X153366998Y-100906500D01*
X153247409Y-100930288D01*
X153184366Y-100972412D01*
X153146027Y-100998029D01*
X152694028Y-101450028D01*
X152626287Y-101551410D01*
X152602499Y-101670999D01*
X152602499Y-102159900D01*
X152575283Y-102132684D01*
X152458956Y-102084500D01*
X152350125Y-102084500D01*
X152271000Y-102163625D01*
X152271000Y-102551000D01*
X152357500Y-102551000D01*
X152357500Y-102851000D01*
X152271000Y-102851000D01*
X152271000Y-102912500D01*
X152021000Y-102912500D01*
X152021000Y-102851000D01*
X151658625Y-102851000D01*
X151579500Y-102930125D01*
X151579500Y-103063956D01*
X151627684Y-103180283D01*
X151716717Y-103269316D01*
X151833044Y-103317500D01*
X151855221Y-103317500D01*
X151826517Y-103322901D01*
X151762701Y-103363966D01*
X151719889Y-103426623D01*
X151704827Y-103501000D01*
X151704827Y-104101000D01*
X151717901Y-104170483D01*
X151758966Y-104234299D01*
X151821623Y-104277111D01*
X151896000Y-104292173D01*
X152205264Y-104292173D01*
X152276411Y-104339712D01*
X152396000Y-104363500D01*
X152948827Y-104363500D01*
X152948827Y-104651000D01*
X152961901Y-104720483D01*
X152972500Y-104736954D01*
X152972500Y-104775000D01*
X152976774Y-104797716D01*
X152990200Y-104818579D01*
X153010684Y-104832576D01*
X153035000Y-104837500D01*
X153116924Y-104837500D01*
X153140000Y-104842173D01*
X154540000Y-104842173D01*
X154564835Y-104837500D01*
X155316924Y-104837500D01*
X155340000Y-104842173D01*
X156740000Y-104842173D01*
X156764835Y-104837500D01*
X156845000Y-104837500D01*
X156867716Y-104833226D01*
X156888579Y-104819800D01*
X156902576Y-104799316D01*
X156907500Y-104775000D01*
X156907500Y-104737980D01*
X156916111Y-104725377D01*
X156931173Y-104651000D01*
X156931173Y-104072125D01*
X157167500Y-104072125D01*
X157167500Y-104205956D01*
X157215684Y-104322283D01*
X157304717Y-104411316D01*
X157421044Y-104459500D01*
X157529875Y-104459500D01*
X157609000Y-104380375D01*
X157609000Y-103993000D01*
X157859000Y-103993000D01*
X157859000Y-104380375D01*
X157938125Y-104459500D01*
X158046956Y-104459500D01*
X158163283Y-104411316D01*
X158252316Y-104322283D01*
X158300500Y-104205956D01*
X158300500Y-104072125D01*
X158221375Y-103993000D01*
X157859000Y-103993000D01*
X157609000Y-103993000D01*
X157246625Y-103993000D01*
X157167500Y-104072125D01*
X156931173Y-104072125D01*
X156931173Y-103451000D01*
X156918099Y-103381517D01*
X156907500Y-103365046D01*
X156907500Y-103137980D01*
X156916111Y-103125377D01*
X156930262Y-103055500D01*
X157295179Y-103055500D01*
X157305901Y-103112483D01*
X157346966Y-103176299D01*
X157409623Y-103219111D01*
X157446110Y-103226500D01*
X157421044Y-103226500D01*
X157304717Y-103274684D01*
X157215684Y-103363717D01*
X157167500Y-103480044D01*
X157167500Y-103613875D01*
X157246625Y-103693000D01*
X157609000Y-103693000D01*
X157609000Y-103631500D01*
X157859000Y-103631500D01*
X157859000Y-103693000D01*
X158221375Y-103693000D01*
X158300500Y-103613875D01*
X158300500Y-103480044D01*
X158252316Y-103363717D01*
X158163283Y-103274684D01*
X158046956Y-103226500D01*
X158024779Y-103226500D01*
X158053483Y-103221099D01*
X158117299Y-103180034D01*
X158160111Y-103117377D01*
X158175173Y-103043000D01*
X158175173Y-102443000D01*
X158162099Y-102373517D01*
X158121034Y-102309701D01*
X158058377Y-102266889D01*
X157984000Y-102251827D01*
X157484000Y-102251827D01*
X157414517Y-102264901D01*
X157350701Y-102305966D01*
X157307889Y-102368623D01*
X157295358Y-102430500D01*
X156931173Y-102430500D01*
X156931173Y-102001769D01*
X156985471Y-101947471D01*
X157053213Y-101846088D01*
X157077000Y-101726500D01*
X157077000Y-101324942D01*
X157130529Y-101378471D01*
X157231912Y-101446213D01*
X157351500Y-101470000D01*
X157627502Y-101470000D01*
X157627415Y-101569544D01*
X157701476Y-101748786D01*
X157838493Y-101886042D01*
X158017605Y-101960415D01*
X158211544Y-101960585D01*
X158390786Y-101886524D01*
X158471254Y-101806196D01*
X158907754Y-102242696D01*
X158874701Y-102263966D01*
X158831889Y-102326623D01*
X158816827Y-102401000D01*
X158816827Y-103001000D01*
X158829901Y-103070483D01*
X158870966Y-103134299D01*
X158933623Y-103177111D01*
X158970110Y-103184500D01*
X158945044Y-103184500D01*
X158828717Y-103232684D01*
X158739684Y-103321717D01*
X158691500Y-103438044D01*
X158691500Y-103571875D01*
X158770625Y-103651000D01*
X159133000Y-103651000D01*
X159133000Y-103589500D01*
X159383000Y-103589500D01*
X159383000Y-103651000D01*
X159420501Y-103651000D01*
X159420501Y-103951000D01*
X159383000Y-103951000D01*
X159383000Y-104012500D01*
X159133000Y-104012500D01*
X159133000Y-103951000D01*
X158770625Y-103951000D01*
X158691500Y-104030125D01*
X158691500Y-104163956D01*
X158739684Y-104280283D01*
X158828717Y-104369316D01*
X158945044Y-104417500D01*
X159053875Y-104417500D01*
X159066498Y-104404877D01*
X159066498Y-104417500D01*
X159154560Y-104417500D01*
X158601560Y-104970500D01*
X150825821Y-104970500D01*
X150815099Y-104913517D01*
X150774034Y-104849701D01*
X150711377Y-104806889D01*
X150637000Y-104791827D01*
X150237000Y-104791827D01*
X150167517Y-104804901D01*
X150103701Y-104845966D01*
X150060889Y-104908623D01*
X150045827Y-104983000D01*
X150045827Y-105583000D01*
X150058901Y-105652483D01*
X150099966Y-105716299D01*
X150124500Y-105733062D01*
X150124500Y-106356582D01*
X150103701Y-106369966D01*
X150060889Y-106432623D01*
X150053500Y-106469110D01*
X150053500Y-106444044D01*
X150005316Y-106327717D01*
X149916283Y-106238684D01*
X149799956Y-106190500D01*
X149716125Y-106190500D01*
X149637000Y-106269625D01*
X149637000Y-106657000D01*
X149737000Y-106657000D01*
X149737000Y-106957000D01*
X149637000Y-106957000D01*
X149637000Y-107344375D01*
X149716125Y-107423500D01*
X149799956Y-107423500D01*
X149916283Y-107375316D01*
X150005316Y-107286283D01*
X150053500Y-107169956D01*
X150053500Y-107147779D01*
X150058901Y-107176483D01*
X150099966Y-107240299D01*
X150162623Y-107283111D01*
X150224500Y-107295642D01*
X150224500Y-107765179D01*
X150167517Y-107775901D01*
X150103701Y-107816966D01*
X150060889Y-107879623D01*
X150053500Y-107916110D01*
X150053500Y-107891044D01*
X150005316Y-107774717D01*
X149916283Y-107685684D01*
X149799956Y-107637500D01*
X149666125Y-107637500D01*
X149587000Y-107716625D01*
X149587000Y-108079000D01*
X149648500Y-108079000D01*
X149648500Y-108329000D01*
X149587000Y-108329000D01*
X149587000Y-108415500D01*
X149287000Y-108415500D01*
X149287000Y-108329000D01*
X148899625Y-108329000D01*
X148820500Y-108408125D01*
X148820500Y-108516956D01*
X148863390Y-108620501D01*
X145865443Y-108620501D01*
X145395701Y-108150759D01*
X145447042Y-108099507D01*
X145521415Y-107920395D01*
X145521440Y-107891044D01*
X148820500Y-107891044D01*
X148820500Y-107999875D01*
X148899625Y-108079000D01*
X149287000Y-108079000D01*
X149287000Y-107716625D01*
X149207875Y-107637500D01*
X149074044Y-107637500D01*
X148957717Y-107685684D01*
X148868684Y-107774717D01*
X148820500Y-107891044D01*
X145521440Y-107891044D01*
X145521585Y-107726456D01*
X145447524Y-107547214D01*
X145310507Y-107409958D01*
X145131395Y-107335585D01*
X144937456Y-107335415D01*
X144758214Y-107409476D01*
X144689803Y-107477768D01*
X144687589Y-107476288D01*
X144568000Y-107452500D01*
X144468418Y-107452500D01*
X144455034Y-107431701D01*
X144392377Y-107388889D01*
X144318000Y-107373827D01*
X143718000Y-107373827D01*
X143648517Y-107386901D01*
X143584701Y-107427966D01*
X143541889Y-107490623D01*
X143526827Y-107565000D01*
X143526827Y-107965000D01*
X143539901Y-108034483D01*
X143580966Y-108098299D01*
X143643623Y-108141111D01*
X143718000Y-108156173D01*
X144318000Y-108156173D01*
X144387483Y-108143099D01*
X144451299Y-108102034D01*
X144456086Y-108095028D01*
X145515030Y-109153972D01*
X145601127Y-109211500D01*
X129548500Y-109211500D01*
X129548500Y-108605512D01*
X130425310Y-108605512D01*
X130657355Y-108868302D01*
X131486538Y-109168283D01*
X132367401Y-109128115D01*
X132994645Y-108868302D01*
X133226690Y-108605512D01*
X131826000Y-107204822D01*
X130425310Y-108605512D01*
X129548500Y-108605512D01*
X129548500Y-106594538D01*
X129591717Y-106594538D01*
X129631885Y-107475401D01*
X129891698Y-108102645D01*
X130154488Y-108334690D01*
X131555178Y-106934000D01*
X132096822Y-106934000D01*
X133497512Y-108334690D01*
X133760302Y-108102645D01*
X134060283Y-107273462D01*
X134020115Y-106392599D01*
X133760302Y-105765355D01*
X133497512Y-105533310D01*
X132096822Y-106934000D01*
X131555178Y-106934000D01*
X130154488Y-105533310D01*
X129891698Y-105765355D01*
X129591717Y-106594538D01*
X129548500Y-106594538D01*
X129548500Y-105262488D01*
X130425310Y-105262488D01*
X131826000Y-106663178D01*
X133226690Y-105262488D01*
X132994645Y-104999698D01*
X132165462Y-104699717D01*
X131284599Y-104739885D01*
X130657355Y-104999698D01*
X130425310Y-105262488D01*
X129548500Y-105262488D01*
X129548500Y-103211099D01*
X129613217Y-103275816D01*
X129729544Y-103324000D01*
X130471875Y-103324000D01*
X130551000Y-103244875D01*
X130551000Y-102399000D01*
X130531000Y-102399000D01*
X130531000Y-102016000D01*
X130551000Y-102016000D01*
X130551000Y-101170125D01*
X130471875Y-101091000D01*
X129729544Y-101091000D01*
X129613217Y-101139184D01*
X129548500Y-101203901D01*
X129548500Y-99761099D01*
X129613217Y-99825816D01*
X129729544Y-99874000D01*
X130471875Y-99874000D01*
X130551000Y-99794875D01*
X130551000Y-99149000D01*
X130934000Y-99149000D01*
X130934000Y-99794875D01*
X131013125Y-99874000D01*
X131755456Y-99874000D01*
X131871783Y-99825816D01*
X131960816Y-99736783D01*
X132009000Y-99620456D01*
X132009000Y-99228125D01*
X131929875Y-99149000D01*
X130934000Y-99149000D01*
X130551000Y-99149000D01*
X130531000Y-99149000D01*
X130531000Y-98766000D01*
X130551000Y-98766000D01*
X130551000Y-98120125D01*
X130538375Y-98107500D01*
X130551000Y-98094875D01*
X130551000Y-97449000D01*
X130934000Y-97449000D01*
X130934000Y-98094875D01*
X130946625Y-98107500D01*
X130934000Y-98120125D01*
X130934000Y-98766000D01*
X131929875Y-98766000D01*
X132009000Y-98686875D01*
X132009000Y-98294544D01*
X131960816Y-98178217D01*
X131890099Y-98107500D01*
X131960816Y-98036783D01*
X132009000Y-97920456D01*
X132009000Y-97528125D01*
X131929875Y-97449000D01*
X130934000Y-97449000D01*
X130551000Y-97449000D01*
X130531000Y-97449000D01*
X130531000Y-97066000D01*
X130551000Y-97066000D01*
X130551000Y-96420125D01*
X130934000Y-96420125D01*
X130934000Y-97066000D01*
X131929875Y-97066000D01*
X132009000Y-96986875D01*
X132009000Y-96594544D01*
X131960816Y-96478217D01*
X131871783Y-96389184D01*
X131755456Y-96341000D01*
X131013125Y-96341000D01*
X130934000Y-96420125D01*
X130551000Y-96420125D01*
X130471875Y-96341000D01*
X129729544Y-96341000D01*
X129613217Y-96389184D01*
X129548500Y-96453901D01*
X129548500Y-95011099D01*
X129613217Y-95075816D01*
X129729544Y-95124000D01*
X130471875Y-95124000D01*
X130551000Y-95044875D01*
X130551000Y-94199000D01*
X130531000Y-94199000D01*
X130531000Y-93816000D01*
X130551000Y-93816000D01*
X130551000Y-92970125D01*
X130934000Y-92970125D01*
X130934000Y-93816000D01*
X130954000Y-93816000D01*
X130954000Y-94199000D01*
X130934000Y-94199000D01*
X130934000Y-95044875D01*
X131013125Y-95124000D01*
X131755456Y-95124000D01*
X131776000Y-95115490D01*
X131776000Y-95199002D01*
X131855123Y-95199002D01*
X131776000Y-95278125D01*
X131776000Y-96120456D01*
X131824184Y-96236783D01*
X131913217Y-96325816D01*
X132029544Y-96374000D01*
X132821875Y-96374000D01*
X132901000Y-96294875D01*
X132901000Y-95199000D01*
X132881000Y-95199000D01*
X132881000Y-94816000D01*
X132901000Y-94816000D01*
X132901000Y-93720125D01*
X133284000Y-93720125D01*
X133284000Y-94816000D01*
X134329875Y-94816000D01*
X134409000Y-94736875D01*
X134409000Y-93894544D01*
X134360816Y-93778217D01*
X134271783Y-93689184D01*
X134155456Y-93641000D01*
X133363125Y-93641000D01*
X133284000Y-93720125D01*
X132901000Y-93720125D01*
X132821875Y-93641000D01*
X132029544Y-93641000D01*
X132009000Y-93649510D01*
X132009000Y-93144544D01*
X131960816Y-93028217D01*
X131871783Y-92939184D01*
X131755456Y-92891000D01*
X131013125Y-92891000D01*
X130934000Y-92970125D01*
X130551000Y-92970125D01*
X130471875Y-92891000D01*
X129729544Y-92891000D01*
X129613217Y-92939184D01*
X129548500Y-93003901D01*
X129548500Y-91416893D01*
X129935823Y-91730399D01*
X130160573Y-91823476D01*
X130364500Y-91789659D01*
X130364500Y-90742500D01*
X130747500Y-90742500D01*
X130747500Y-91789659D01*
X130951427Y-91823476D01*
X131176177Y-91730399D01*
X131580305Y-91403291D01*
X131828492Y-90946430D01*
X131795559Y-90742500D01*
X130747500Y-90742500D01*
X130364500Y-90742500D01*
X130344500Y-90742500D01*
X130344500Y-90359500D01*
X130364500Y-90359500D01*
X130364500Y-89312341D01*
X130747500Y-89312341D01*
X130747500Y-90359500D01*
X131795559Y-90359500D01*
X131828492Y-90155570D01*
X131580305Y-89698709D01*
X131176177Y-89371601D01*
X130951427Y-89278524D01*
X130747500Y-89312341D01*
X130364500Y-89312341D01*
X130160573Y-89278524D01*
X129935823Y-89371601D01*
X129548500Y-89685107D01*
X129548500Y-89218173D01*
X131572000Y-89218173D01*
X131641483Y-89205099D01*
X131705299Y-89164034D01*
X131748111Y-89101377D01*
X131763173Y-89027000D01*
X131763173Y-88894920D01*
X133522047Y-88894920D01*
X133522047Y-89692480D01*
X133535121Y-89761963D01*
X133576186Y-89825779D01*
X133638843Y-89868591D01*
X133713220Y-89883653D01*
X134510780Y-89883653D01*
X134580263Y-89870579D01*
X134644079Y-89829514D01*
X134686891Y-89766857D01*
X134701953Y-89692480D01*
X134701953Y-89606200D01*
X135398827Y-89606200D01*
X135398827Y-89793000D01*
X135411901Y-89862483D01*
X135452966Y-89926299D01*
X135515623Y-89969111D01*
X135590000Y-89984173D01*
X136190000Y-89984173D01*
X136259483Y-89971099D01*
X136323299Y-89930034D01*
X136366111Y-89867377D01*
X136381173Y-89793000D01*
X136381173Y-89393000D01*
X136368099Y-89323517D01*
X136327034Y-89259701D01*
X136264377Y-89216889D01*
X136190000Y-89201827D01*
X135940769Y-89201827D01*
X135811671Y-89072729D01*
X135743232Y-89027000D01*
X135710289Y-89004988D01*
X135590700Y-88981200D01*
X134701953Y-88981200D01*
X134701953Y-88894920D01*
X134688879Y-88825437D01*
X134647814Y-88761621D01*
X134585157Y-88718809D01*
X134510780Y-88703747D01*
X133713220Y-88703747D01*
X133643737Y-88716821D01*
X133579921Y-88757886D01*
X133537109Y-88820543D01*
X133522047Y-88894920D01*
X131763173Y-88894920D01*
X131763173Y-88448500D01*
X136089782Y-88448500D01*
X136722500Y-89081218D01*
G36*
X137999827Y-103617000D02*
X138012901Y-103686483D01*
X138053966Y-103750299D01*
X138116623Y-103793111D01*
X138191000Y-103808173D01*
X138637810Y-103808173D01*
X138740000Y-103828500D01*
X139069126Y-103828500D01*
X139169493Y-103929042D01*
X139348605Y-104003415D01*
X139542544Y-104003585D01*
X139721786Y-103929524D01*
X139777091Y-103874315D01*
X139766827Y-103925000D01*
X139766827Y-104525000D01*
X139779901Y-104594483D01*
X139820966Y-104658299D01*
X139883623Y-104701111D01*
X139920110Y-104708500D01*
X139895044Y-104708500D01*
X139778717Y-104756684D01*
X139689684Y-104845717D01*
X139641500Y-104962044D01*
X139641500Y-105095875D01*
X139720625Y-105175000D01*
X140083000Y-105175000D01*
X140083000Y-105113500D01*
X140333000Y-105113500D01*
X140333000Y-105175000D01*
X140695375Y-105175000D01*
X140774500Y-105095875D01*
X140774500Y-104962044D01*
X140726316Y-104845717D01*
X140637283Y-104756684D01*
X140520956Y-104708500D01*
X140498779Y-104708500D01*
X140527483Y-104703099D01*
X140591299Y-104662034D01*
X140634111Y-104599377D01*
X140649173Y-104525000D01*
X140649173Y-104409655D01*
X140693493Y-104454052D01*
X140872605Y-104528425D01*
X141066544Y-104528595D01*
X141245786Y-104454534D01*
X141309827Y-104390605D01*
X141309827Y-104666000D01*
X141322901Y-104735483D01*
X141363966Y-104799299D01*
X141426623Y-104842111D01*
X141501000Y-104857173D01*
X141613500Y-104857173D01*
X141613500Y-106335533D01*
X141611034Y-106331701D01*
X141548377Y-106288889D01*
X141474000Y-106273827D01*
X140974000Y-106273827D01*
X140904517Y-106286901D01*
X140840701Y-106327966D01*
X140797889Y-106390623D01*
X140782827Y-106465000D01*
X140782827Y-107065000D01*
X140795901Y-107134483D01*
X140836966Y-107198299D01*
X140899623Y-107241111D01*
X140936110Y-107248500D01*
X140911044Y-107248500D01*
X140794717Y-107296684D01*
X140705684Y-107385717D01*
X140657500Y-107502044D01*
X140657500Y-107635875D01*
X140736625Y-107715000D01*
X141099000Y-107715000D01*
X141099000Y-107653500D01*
X141349000Y-107653500D01*
X141349000Y-107715000D01*
X141711375Y-107715000D01*
X141790500Y-107635875D01*
X141790500Y-107502044D01*
X141742316Y-107385717D01*
X141653283Y-107296684D01*
X141536956Y-107248500D01*
X141514779Y-107248500D01*
X141543483Y-107243099D01*
X141607299Y-107202034D01*
X141650111Y-107139377D01*
X141662642Y-107077500D01*
X141724000Y-107077500D01*
X141843589Y-107053712D01*
X141944971Y-106985971D01*
X142146971Y-106783971D01*
X142175749Y-106740901D01*
X142179827Y-106734798D01*
X142179827Y-107065000D01*
X142192901Y-107134483D01*
X142233966Y-107198299D01*
X142296623Y-107241111D01*
X142333110Y-107248500D01*
X142308044Y-107248500D01*
X142191717Y-107296684D01*
X142102684Y-107385717D01*
X142054500Y-107502044D01*
X142054500Y-107635875D01*
X142133625Y-107715000D01*
X142496000Y-107715000D01*
X142496000Y-107653500D01*
X142746000Y-107653500D01*
X142746000Y-107715000D01*
X142783501Y-107715000D01*
X142783501Y-108015000D01*
X142746000Y-108015000D01*
X142746000Y-108076500D01*
X142496000Y-108076500D01*
X142496000Y-108015000D01*
X142133625Y-108015000D01*
X142071124Y-108077501D01*
X141773876Y-108077501D01*
X141711375Y-108015000D01*
X141349000Y-108015000D01*
X141349000Y-108076500D01*
X141099000Y-108076500D01*
X141099000Y-108015000D01*
X140736625Y-108015000D01*
X140674124Y-108077501D01*
X140443443Y-108077501D01*
X138199442Y-105833500D01*
X138286875Y-105833500D01*
X138366000Y-105754375D01*
X138366000Y-105208500D01*
X138716000Y-105208500D01*
X138716000Y-105754375D01*
X138795125Y-105833500D01*
X138953956Y-105833500D01*
X139070283Y-105785316D01*
X139159316Y-105696283D01*
X139207500Y-105579956D01*
X139207500Y-105554125D01*
X139641500Y-105554125D01*
X139641500Y-105687956D01*
X139689684Y-105804283D01*
X139778717Y-105893316D01*
X139895044Y-105941500D01*
X140003875Y-105941500D01*
X140083000Y-105862375D01*
X140083000Y-105475000D01*
X140333000Y-105475000D01*
X140333000Y-105862375D01*
X140412125Y-105941500D01*
X140520956Y-105941500D01*
X140637283Y-105893316D01*
X140726316Y-105804283D01*
X140774500Y-105687956D01*
X140774500Y-105554125D01*
X140695375Y-105475000D01*
X140333000Y-105475000D01*
X140083000Y-105475000D01*
X139720625Y-105475000D01*
X139641500Y-105554125D01*
X139207500Y-105554125D01*
X139207500Y-105287625D01*
X139128375Y-105208500D01*
X138716000Y-105208500D01*
X138366000Y-105208500D01*
X137953625Y-105208500D01*
X137874500Y-105287625D01*
X137874500Y-105508558D01*
X137361971Y-104996029D01*
X137359365Y-104994288D01*
X137260589Y-104928288D01*
X137141000Y-104904500D01*
X137079821Y-104904500D01*
X137069099Y-104847517D01*
X137028034Y-104783701D01*
X136965377Y-104740889D01*
X136903500Y-104728358D01*
X136903500Y-104717152D01*
X137166608Y-104454044D01*
X137874500Y-104454044D01*
X137874500Y-104746375D01*
X137953625Y-104825500D01*
X138366000Y-104825500D01*
X138366000Y-104279625D01*
X138716000Y-104279625D01*
X138716000Y-104825500D01*
X139128375Y-104825500D01*
X139207500Y-104746375D01*
X139207500Y-104454044D01*
X139159316Y-104337717D01*
X139070283Y-104248684D01*
X138953956Y-104200500D01*
X138795125Y-104200500D01*
X138716000Y-104279625D01*
X138366000Y-104279625D01*
X138286875Y-104200500D01*
X138128044Y-104200500D01*
X138011717Y-104248684D01*
X137922684Y-104337717D01*
X137874500Y-104454044D01*
X137166608Y-104454044D01*
X137908326Y-103712326D01*
X137986906Y-103594723D01*
X137999827Y-103529765D01*
X137999827Y-103617000D01*
X137999827Y-103617000D01*
G37*
X137999827Y-103617000D02*
X138012901Y-103686483D01*
X138053966Y-103750299D01*
X138116623Y-103793111D01*
X138191000Y-103808173D01*
X138637810Y-103808173D01*
X138740000Y-103828500D01*
X139069126Y-103828500D01*
X139169493Y-103929042D01*
X139348605Y-104003415D01*
X139542544Y-104003585D01*
X139721786Y-103929524D01*
X139777091Y-103874315D01*
X139766827Y-103925000D01*
X139766827Y-104525000D01*
X139779901Y-104594483D01*
X139820966Y-104658299D01*
X139883623Y-104701111D01*
X139920110Y-104708500D01*
X139895044Y-104708500D01*
X139778717Y-104756684D01*
X139689684Y-104845717D01*
X139641500Y-104962044D01*
X139641500Y-105095875D01*
X139720625Y-105175000D01*
X140083000Y-105175000D01*
X140083000Y-105113500D01*
X140333000Y-105113500D01*
X140333000Y-105175000D01*
X140695375Y-105175000D01*
X140774500Y-105095875D01*
X140774500Y-104962044D01*
X140726316Y-104845717D01*
X140637283Y-104756684D01*
X140520956Y-104708500D01*
X140498779Y-104708500D01*
X140527483Y-104703099D01*
X140591299Y-104662034D01*
X140634111Y-104599377D01*
X140649173Y-104525000D01*
X140649173Y-104409655D01*
X140693493Y-104454052D01*
X140872605Y-104528425D01*
X141066544Y-104528595D01*
X141245786Y-104454534D01*
X141309827Y-104390605D01*
X141309827Y-104666000D01*
X141322901Y-104735483D01*
X141363966Y-104799299D01*
X141426623Y-104842111D01*
X141501000Y-104857173D01*
X141613500Y-104857173D01*
X141613500Y-106335533D01*
X141611034Y-106331701D01*
X141548377Y-106288889D01*
X141474000Y-106273827D01*
X140974000Y-106273827D01*
X140904517Y-106286901D01*
X140840701Y-106327966D01*
X140797889Y-106390623D01*
X140782827Y-106465000D01*
X140782827Y-107065000D01*
X140795901Y-107134483D01*
X140836966Y-107198299D01*
X140899623Y-107241111D01*
X140936110Y-107248500D01*
X140911044Y-107248500D01*
X140794717Y-107296684D01*
X140705684Y-107385717D01*
X140657500Y-107502044D01*
X140657500Y-107635875D01*
X140736625Y-107715000D01*
X141099000Y-107715000D01*
X141099000Y-107653500D01*
X141349000Y-107653500D01*
X141349000Y-107715000D01*
X141711375Y-107715000D01*
X141790500Y-107635875D01*
X141790500Y-107502044D01*
X141742316Y-107385717D01*
X141653283Y-107296684D01*
X141536956Y-107248500D01*
X141514779Y-107248500D01*
X141543483Y-107243099D01*
X141607299Y-107202034D01*
X141650111Y-107139377D01*
X141662642Y-107077500D01*
X141724000Y-107077500D01*
X141843589Y-107053712D01*
X141944971Y-106985971D01*
X142146971Y-106783971D01*
X142175749Y-106740901D01*
X142179827Y-106734798D01*
X142179827Y-107065000D01*
X142192901Y-107134483D01*
X142233966Y-107198299D01*
X142296623Y-107241111D01*
X142333110Y-107248500D01*
X142308044Y-107248500D01*
X142191717Y-107296684D01*
X142102684Y-107385717D01*
X142054500Y-107502044D01*
X142054500Y-107635875D01*
X142133625Y-107715000D01*
X142496000Y-107715000D01*
X142496000Y-107653500D01*
X142746000Y-107653500D01*
X142746000Y-107715000D01*
X142783501Y-107715000D01*
X142783501Y-108015000D01*
X142746000Y-108015000D01*
X142746000Y-108076500D01*
X142496000Y-108076500D01*
X142496000Y-108015000D01*
X142133625Y-108015000D01*
X142071124Y-108077501D01*
X141773876Y-108077501D01*
X141711375Y-108015000D01*
X141349000Y-108015000D01*
X141349000Y-108076500D01*
X141099000Y-108076500D01*
X141099000Y-108015000D01*
X140736625Y-108015000D01*
X140674124Y-108077501D01*
X140443443Y-108077501D01*
X138199442Y-105833500D01*
X138286875Y-105833500D01*
X138366000Y-105754375D01*
X138366000Y-105208500D01*
X138716000Y-105208500D01*
X138716000Y-105754375D01*
X138795125Y-105833500D01*
X138953956Y-105833500D01*
X139070283Y-105785316D01*
X139159316Y-105696283D01*
X139207500Y-105579956D01*
X139207500Y-105554125D01*
X139641500Y-105554125D01*
X139641500Y-105687956D01*
X139689684Y-105804283D01*
X139778717Y-105893316D01*
X139895044Y-105941500D01*
X140003875Y-105941500D01*
X140083000Y-105862375D01*
X140083000Y-105475000D01*
X140333000Y-105475000D01*
X140333000Y-105862375D01*
X140412125Y-105941500D01*
X140520956Y-105941500D01*
X140637283Y-105893316D01*
X140726316Y-105804283D01*
X140774500Y-105687956D01*
X140774500Y-105554125D01*
X140695375Y-105475000D01*
X140333000Y-105475000D01*
X140083000Y-105475000D01*
X139720625Y-105475000D01*
X139641500Y-105554125D01*
X139207500Y-105554125D01*
X139207500Y-105287625D01*
X139128375Y-105208500D01*
X138716000Y-105208500D01*
X138366000Y-105208500D01*
X137953625Y-105208500D01*
X137874500Y-105287625D01*
X137874500Y-105508558D01*
X137361971Y-104996029D01*
X137359365Y-104994288D01*
X137260589Y-104928288D01*
X137141000Y-104904500D01*
X137079821Y-104904500D01*
X137069099Y-104847517D01*
X137028034Y-104783701D01*
X136965377Y-104740889D01*
X136903500Y-104728358D01*
X136903500Y-104717152D01*
X137166608Y-104454044D01*
X137874500Y-104454044D01*
X137874500Y-104746375D01*
X137953625Y-104825500D01*
X138366000Y-104825500D01*
X138366000Y-104279625D01*
X138716000Y-104279625D01*
X138716000Y-104825500D01*
X139128375Y-104825500D01*
X139207500Y-104746375D01*
X139207500Y-104454044D01*
X139159316Y-104337717D01*
X139070283Y-104248684D01*
X138953956Y-104200500D01*
X138795125Y-104200500D01*
X138716000Y-104279625D01*
X138366000Y-104279625D01*
X138286875Y-104200500D01*
X138128044Y-104200500D01*
X138011717Y-104248684D01*
X137922684Y-104337717D01*
X137874500Y-104454044D01*
X137166608Y-104454044D01*
X137908326Y-103712326D01*
X137986906Y-103594723D01*
X137999827Y-103529765D01*
X137999827Y-103617000D01*
G36*
X143417500Y-102424500D02*
X144334500Y-102424500D01*
X144334500Y-102404500D01*
X144717500Y-102404500D01*
X144717500Y-102424500D01*
X144737500Y-102424500D01*
X144737500Y-102807500D01*
X144717500Y-102807500D01*
X144717500Y-103724500D01*
X144737500Y-103724500D01*
X144737500Y-104107500D01*
X144717500Y-104107500D01*
X144717500Y-104127500D01*
X144334500Y-104127500D01*
X144334500Y-104107500D01*
X143417500Y-104107500D01*
X143417500Y-104127500D01*
X143034500Y-104127500D01*
X143034500Y-104107500D01*
X143014500Y-104107500D01*
X143014500Y-103724500D01*
X143034500Y-103724500D01*
X143034500Y-102807500D01*
X143417500Y-102807500D01*
X143417500Y-103724500D01*
X144334500Y-103724500D01*
X144334500Y-102807500D01*
X143417500Y-102807500D01*
X143034500Y-102807500D01*
X143014500Y-102807500D01*
X143014500Y-102424500D01*
X143034500Y-102424500D01*
X143034500Y-102404500D01*
X143417500Y-102404500D01*
X143417500Y-102424500D01*
X143417500Y-102424500D01*
G37*
X143417500Y-102424500D02*
X144334500Y-102424500D01*
X144334500Y-102404500D01*
X144717500Y-102404500D01*
X144717500Y-102424500D01*
X144737500Y-102424500D01*
X144737500Y-102807500D01*
X144717500Y-102807500D01*
X144717500Y-103724500D01*
X144737500Y-103724500D01*
X144737500Y-104107500D01*
X144717500Y-104107500D01*
X144717500Y-104127500D01*
X144334500Y-104127500D01*
X144334500Y-104107500D01*
X143417500Y-104107500D01*
X143417500Y-104127500D01*
X143034500Y-104127500D01*
X143034500Y-104107500D01*
X143014500Y-104107500D01*
X143014500Y-103724500D01*
X143034500Y-103724500D01*
X143034500Y-102807500D01*
X143417500Y-102807500D01*
X143417500Y-103724500D01*
X144334500Y-103724500D01*
X144334500Y-102807500D01*
X143417500Y-102807500D01*
X143034500Y-102807500D01*
X143014500Y-102807500D01*
X143014500Y-102424500D01*
X143034500Y-102424500D01*
X143034500Y-102404500D01*
X143417500Y-102404500D01*
X143417500Y-102424500D01*
G36*
X142296623Y-97589111D02*
X142333110Y-97596500D01*
X142308044Y-97596500D01*
X142191717Y-97644684D01*
X142102684Y-97733717D01*
X142054500Y-97850044D01*
X142054500Y-97983875D01*
X142133625Y-98063000D01*
X142496000Y-98063000D01*
X142496000Y-98001500D01*
X142746000Y-98001500D01*
X142746000Y-98063000D01*
X143108375Y-98063000D01*
X143187500Y-97983875D01*
X143187500Y-97850044D01*
X143139316Y-97733717D01*
X143050283Y-97644684D01*
X142933956Y-97596500D01*
X142911779Y-97596500D01*
X142940483Y-97591099D01*
X143003575Y-97550500D01*
X144263012Y-97550500D01*
X144267901Y-97576483D01*
X144308966Y-97640299D01*
X144371623Y-97683111D01*
X144446000Y-97698173D01*
X144633783Y-97698173D01*
X144735455Y-97718397D01*
X144975500Y-97958442D01*
X144975500Y-98937126D01*
X144874958Y-99037493D01*
X144800585Y-99216605D01*
X144800415Y-99410544D01*
X144874476Y-99589786D01*
X144938080Y-99653501D01*
X144800999Y-99653501D01*
X144681411Y-99677288D01*
X144580028Y-99745030D01*
X143905029Y-100420029D01*
X143837288Y-100521411D01*
X143813500Y-100641000D01*
X143813500Y-100707421D01*
X143776000Y-100699827D01*
X143476000Y-100699827D01*
X143406517Y-100712901D01*
X143376107Y-100732470D01*
X143350377Y-100714889D01*
X143276000Y-100699827D01*
X142976000Y-100699827D01*
X142906517Y-100712901D01*
X142876107Y-100732470D01*
X142850377Y-100714889D01*
X142776000Y-100699827D01*
X142476000Y-100699827D01*
X142406517Y-100712901D01*
X142342701Y-100753966D01*
X142299889Y-100816623D01*
X142284827Y-100891000D01*
X142284827Y-101674827D01*
X141501000Y-101674827D01*
X141431517Y-101687901D01*
X141367701Y-101728966D01*
X141324889Y-101791623D01*
X141309827Y-101866000D01*
X141309827Y-102109574D01*
X141232684Y-102186717D01*
X141184500Y-102303044D01*
X141184500Y-102361875D01*
X141263625Y-102441000D01*
X141734500Y-102441000D01*
X141734500Y-102366000D01*
X142117500Y-102366000D01*
X142117500Y-102441000D01*
X142259500Y-102441000D01*
X142259500Y-102591000D01*
X142117500Y-102591000D01*
X142117500Y-102666000D01*
X141734500Y-102666000D01*
X141734500Y-102591000D01*
X141263625Y-102591000D01*
X141184500Y-102670125D01*
X141184500Y-102703500D01*
X140102442Y-102703500D01*
X139552460Y-102153518D01*
X139552585Y-102011456D01*
X139478524Y-101832214D01*
X139341507Y-101694958D01*
X139162395Y-101620585D01*
X138968456Y-101620415D01*
X138789214Y-101694476D01*
X138651958Y-101831493D01*
X138577585Y-102010605D01*
X138577415Y-102204544D01*
X138651476Y-102383786D01*
X138788493Y-102521042D01*
X138967605Y-102595415D01*
X139110598Y-102595540D01*
X139543819Y-103028761D01*
X139543395Y-103028585D01*
X139349456Y-103028415D01*
X139170214Y-103102476D01*
X139082173Y-103190364D01*
X139082173Y-103017000D01*
X139069099Y-102947517D01*
X139028034Y-102883701D01*
X138965377Y-102840889D01*
X138891000Y-102825827D01*
X138191000Y-102825827D01*
X138121517Y-102838901D01*
X138057701Y-102879966D01*
X138014889Y-102942623D01*
X138014500Y-102944544D01*
X138014500Y-101288000D01*
X137986906Y-101149277D01*
X137968416Y-101121605D01*
X137908326Y-101031673D01*
X137667685Y-100791033D01*
X138250217Y-100208501D01*
X139407001Y-100208501D01*
X139574425Y-100175198D01*
X139716360Y-100080360D01*
X139936360Y-99860361D01*
X139996067Y-99771001D01*
X140031197Y-99718426D01*
X140064500Y-99551002D01*
X140064500Y-98800442D01*
X140335827Y-99071769D01*
X140335827Y-99421000D01*
X140348901Y-99490483D01*
X140389966Y-99554299D01*
X140452623Y-99597111D01*
X140527000Y-99612173D01*
X141527000Y-99612173D01*
X141596483Y-99599099D01*
X141660299Y-99558034D01*
X141703111Y-99495377D01*
X141718173Y-99421000D01*
X141718173Y-98821000D01*
X141705099Y-98751517D01*
X141699149Y-98742271D01*
X141706283Y-98739316D01*
X141795316Y-98650283D01*
X141843500Y-98533956D01*
X141843500Y-98442125D01*
X142054500Y-98442125D01*
X142054500Y-98575956D01*
X142102684Y-98692283D01*
X142191717Y-98781316D01*
X142308044Y-98829500D01*
X142416875Y-98829500D01*
X142496000Y-98750375D01*
X142496000Y-98363000D01*
X142746000Y-98363000D01*
X142746000Y-98750375D01*
X142825125Y-98829500D01*
X142933956Y-98829500D01*
X143050283Y-98781316D01*
X143139316Y-98692283D01*
X143187500Y-98575956D01*
X143187500Y-98442125D01*
X143108375Y-98363000D01*
X142746000Y-98363000D01*
X142496000Y-98363000D01*
X142133625Y-98363000D01*
X142054500Y-98442125D01*
X141843500Y-98442125D01*
X141843500Y-98400125D01*
X141764375Y-98321000D01*
X141218500Y-98321000D01*
X141218500Y-98382500D01*
X140835500Y-98382500D01*
X140835500Y-98321000D01*
X140815500Y-98321000D01*
X140815500Y-98021000D01*
X140835500Y-98021000D01*
X140835500Y-97959500D01*
X141218500Y-97959500D01*
X141218500Y-98021000D01*
X141764375Y-98021000D01*
X141843500Y-97941875D01*
X141843500Y-97808044D01*
X141795316Y-97691717D01*
X141706283Y-97602684D01*
X141699919Y-97600048D01*
X141703111Y-97595377D01*
X141712199Y-97550500D01*
X142240114Y-97550500D01*
X142296623Y-97589111D01*
X142296623Y-97589111D01*
G37*
X142296623Y-97589111D02*
X142333110Y-97596500D01*
X142308044Y-97596500D01*
X142191717Y-97644684D01*
X142102684Y-97733717D01*
X142054500Y-97850044D01*
X142054500Y-97983875D01*
X142133625Y-98063000D01*
X142496000Y-98063000D01*
X142496000Y-98001500D01*
X142746000Y-98001500D01*
X142746000Y-98063000D01*
X143108375Y-98063000D01*
X143187500Y-97983875D01*
X143187500Y-97850044D01*
X143139316Y-97733717D01*
X143050283Y-97644684D01*
X142933956Y-97596500D01*
X142911779Y-97596500D01*
X142940483Y-97591099D01*
X143003575Y-97550500D01*
X144263012Y-97550500D01*
X144267901Y-97576483D01*
X144308966Y-97640299D01*
X144371623Y-97683111D01*
X144446000Y-97698173D01*
X144633783Y-97698173D01*
X144735455Y-97718397D01*
X144975500Y-97958442D01*
X144975500Y-98937126D01*
X144874958Y-99037493D01*
X144800585Y-99216605D01*
X144800415Y-99410544D01*
X144874476Y-99589786D01*
X144938080Y-99653501D01*
X144800999Y-99653501D01*
X144681411Y-99677288D01*
X144580028Y-99745030D01*
X143905029Y-100420029D01*
X143837288Y-100521411D01*
X143813500Y-100641000D01*
X143813500Y-100707421D01*
X143776000Y-100699827D01*
X143476000Y-100699827D01*
X143406517Y-100712901D01*
X143376107Y-100732470D01*
X143350377Y-100714889D01*
X143276000Y-100699827D01*
X142976000Y-100699827D01*
X142906517Y-100712901D01*
X142876107Y-100732470D01*
X142850377Y-100714889D01*
X142776000Y-100699827D01*
X142476000Y-100699827D01*
X142406517Y-100712901D01*
X142342701Y-100753966D01*
X142299889Y-100816623D01*
X142284827Y-100891000D01*
X142284827Y-101674827D01*
X141501000Y-101674827D01*
X141431517Y-101687901D01*
X141367701Y-101728966D01*
X141324889Y-101791623D01*
X141309827Y-101866000D01*
X141309827Y-102109574D01*
X141232684Y-102186717D01*
X141184500Y-102303044D01*
X141184500Y-102361875D01*
X141263625Y-102441000D01*
X141734500Y-102441000D01*
X141734500Y-102366000D01*
X142117500Y-102366000D01*
X142117500Y-102441000D01*
X142259500Y-102441000D01*
X142259500Y-102591000D01*
X142117500Y-102591000D01*
X142117500Y-102666000D01*
X141734500Y-102666000D01*
X141734500Y-102591000D01*
X141263625Y-102591000D01*
X141184500Y-102670125D01*
X141184500Y-102703500D01*
X140102442Y-102703500D01*
X139552460Y-102153518D01*
X139552585Y-102011456D01*
X139478524Y-101832214D01*
X139341507Y-101694958D01*
X139162395Y-101620585D01*
X138968456Y-101620415D01*
X138789214Y-101694476D01*
X138651958Y-101831493D01*
X138577585Y-102010605D01*
X138577415Y-102204544D01*
X138651476Y-102383786D01*
X138788493Y-102521042D01*
X138967605Y-102595415D01*
X139110598Y-102595540D01*
X139543819Y-103028761D01*
X139543395Y-103028585D01*
X139349456Y-103028415D01*
X139170214Y-103102476D01*
X139082173Y-103190364D01*
X139082173Y-103017000D01*
X139069099Y-102947517D01*
X139028034Y-102883701D01*
X138965377Y-102840889D01*
X138891000Y-102825827D01*
X138191000Y-102825827D01*
X138121517Y-102838901D01*
X138057701Y-102879966D01*
X138014889Y-102942623D01*
X138014500Y-102944544D01*
X138014500Y-101288000D01*
X137986906Y-101149277D01*
X137968416Y-101121605D01*
X137908326Y-101031673D01*
X137667685Y-100791033D01*
X138250217Y-100208501D01*
X139407001Y-100208501D01*
X139574425Y-100175198D01*
X139716360Y-100080360D01*
X139936360Y-99860361D01*
X139996067Y-99771001D01*
X140031197Y-99718426D01*
X140064500Y-99551002D01*
X140064500Y-98800442D01*
X140335827Y-99071769D01*
X140335827Y-99421000D01*
X140348901Y-99490483D01*
X140389966Y-99554299D01*
X140452623Y-99597111D01*
X140527000Y-99612173D01*
X141527000Y-99612173D01*
X141596483Y-99599099D01*
X141660299Y-99558034D01*
X141703111Y-99495377D01*
X141718173Y-99421000D01*
X141718173Y-98821000D01*
X141705099Y-98751517D01*
X141699149Y-98742271D01*
X141706283Y-98739316D01*
X141795316Y-98650283D01*
X141843500Y-98533956D01*
X141843500Y-98442125D01*
X142054500Y-98442125D01*
X142054500Y-98575956D01*
X142102684Y-98692283D01*
X142191717Y-98781316D01*
X142308044Y-98829500D01*
X142416875Y-98829500D01*
X142496000Y-98750375D01*
X142496000Y-98363000D01*
X142746000Y-98363000D01*
X142746000Y-98750375D01*
X142825125Y-98829500D01*
X142933956Y-98829500D01*
X143050283Y-98781316D01*
X143139316Y-98692283D01*
X143187500Y-98575956D01*
X143187500Y-98442125D01*
X143108375Y-98363000D01*
X142746000Y-98363000D01*
X142496000Y-98363000D01*
X142133625Y-98363000D01*
X142054500Y-98442125D01*
X141843500Y-98442125D01*
X141843500Y-98400125D01*
X141764375Y-98321000D01*
X141218500Y-98321000D01*
X141218500Y-98382500D01*
X140835500Y-98382500D01*
X140835500Y-98321000D01*
X140815500Y-98321000D01*
X140815500Y-98021000D01*
X140835500Y-98021000D01*
X140835500Y-97959500D01*
X141218500Y-97959500D01*
X141218500Y-98021000D01*
X141764375Y-98021000D01*
X141843500Y-97941875D01*
X141843500Y-97808044D01*
X141795316Y-97691717D01*
X141706283Y-97602684D01*
X141699919Y-97600048D01*
X141703111Y-97595377D01*
X141712199Y-97550500D01*
X142240114Y-97550500D01*
X142296623Y-97589111D01*
G36*
X157827000Y-100295500D02*
X157889500Y-100295500D01*
X157889500Y-100645500D01*
X157827000Y-100645500D01*
X157827000Y-100682000D01*
X157702000Y-100682000D01*
X157702000Y-100645500D01*
X157639500Y-100645500D01*
X157639500Y-100295500D01*
X157702000Y-100295500D01*
X157702000Y-100259000D01*
X157827000Y-100259000D01*
X157827000Y-100295500D01*
X157827000Y-100295500D01*
G37*
X157827000Y-100295500D02*
X157889500Y-100295500D01*
X157889500Y-100645500D01*
X157827000Y-100645500D01*
X157827000Y-100682000D01*
X157702000Y-100682000D01*
X157702000Y-100645500D01*
X157639500Y-100645500D01*
X157639500Y-100295500D01*
X157702000Y-100295500D01*
X157702000Y-100259000D01*
X157827000Y-100259000D01*
X157827000Y-100295500D01*
G36*
X157343500Y-97016500D02*
X158685500Y-97016500D01*
X158685500Y-96996500D01*
X159068500Y-96996500D01*
X159068500Y-97016500D01*
X159088500Y-97016500D01*
X159088500Y-97399500D01*
X159068500Y-97399500D01*
X159068500Y-98741500D01*
X159088500Y-98741500D01*
X159088500Y-99124500D01*
X159068500Y-99124500D01*
X159068500Y-99144500D01*
X158685500Y-99144500D01*
X158685500Y-99124500D01*
X157343500Y-99124500D01*
X157343500Y-99144500D01*
X156960500Y-99144500D01*
X156960500Y-99124500D01*
X156940500Y-99124500D01*
X156940500Y-98741500D01*
X156960500Y-98741500D01*
X156960500Y-97399500D01*
X157343500Y-97399500D01*
X157343500Y-98741500D01*
X158685500Y-98741500D01*
X158685500Y-97399500D01*
X157343500Y-97399500D01*
X156960500Y-97399500D01*
X156940500Y-97399500D01*
X156940500Y-97016500D01*
X156960500Y-97016500D01*
X156960500Y-96996500D01*
X157343500Y-96996500D01*
X157343500Y-97016500D01*
X157343500Y-97016500D01*
G37*
X157343500Y-97016500D02*
X158685500Y-97016500D01*
X158685500Y-96996500D01*
X159068500Y-96996500D01*
X159068500Y-97016500D01*
X159088500Y-97016500D01*
X159088500Y-97399500D01*
X159068500Y-97399500D01*
X159068500Y-98741500D01*
X159088500Y-98741500D01*
X159088500Y-99124500D01*
X159068500Y-99124500D01*
X159068500Y-99144500D01*
X158685500Y-99144500D01*
X158685500Y-99124500D01*
X157343500Y-99124500D01*
X157343500Y-99144500D01*
X156960500Y-99144500D01*
X156960500Y-99124500D01*
X156940500Y-99124500D01*
X156940500Y-98741500D01*
X156960500Y-98741500D01*
X156960500Y-97399500D01*
X157343500Y-97399500D01*
X157343500Y-98741500D01*
X158685500Y-98741500D01*
X158685500Y-97399500D01*
X157343500Y-97399500D01*
X156960500Y-97399500D01*
X156940500Y-97399500D01*
X156940500Y-97016500D01*
X156960500Y-97016500D01*
X156960500Y-96996500D01*
X157343500Y-96996500D01*
X157343500Y-97016500D01*
M02*
