M48
;DRILL file {KiCad 0.201512051502+6347~38~ubuntu15.10.1-stable} date Sun 06 Dec 2015 06:25:29 PM EST
;FORMAT={-:-/ absolute / inch / decimal}
FMAT,2
INCH,TZ
T1C0.016
T2C0.020
T3C0.022
T4C0.026
T5C0.030
T6C0.040
%
G90
G05
M72
T1
X5.265Y-3.435
X5.29Y-3.435
X5.315Y-3.435
X5.3546Y-4.025
X5.475Y-4.03
X5.49Y-3.68
X5.515Y-3.67
X5.52Y-3.695
X5.545Y-4.03
X5.55Y-4.0961
X5.605Y-3.91
X5.605Y-3.94
X5.635Y-3.91
X5.6388Y-4.04
X5.6388Y-4.0912
X5.69Y-4.04
X5.69Y-4.0912
X5.71Y-4.245
X5.72Y-3.91
X5.775Y-4.145
X5.795Y-4.175
X5.805Y-3.985
X5.805Y-4.145
X5.835Y-3.87
X5.855Y-3.44
X5.86Y-3.87
X5.875Y-3.71
X5.875Y-3.74
X5.88Y-3.44
X5.88Y-4.02
X5.9Y-4.04
X5.905Y-3.44
X5.915Y-4.065
X5.93Y-3.44
X5.95Y-3.84
X5.95Y-3.87
X5.98Y-3.985
X5.995Y-4.01
X6.005Y-3.9607
X6.005Y-4.29
X6.03Y-4.29
X6.055Y-3.755
X6.055Y-4.29
X6.08Y-4.29
X6.09Y-3.955
X6.095Y-3.715
X6.16Y-3.715
X6.1797Y-3.6748
X6.1871Y-3.8271
X6.1871Y-3.895
X6.195Y-3.72
X6.2004Y-3.693
X6.235Y-3.995
X6.2506Y-3.68
X6.255Y-3.8271
X6.255Y-3.895
X6.31Y-3.98
X6.32Y-3.53
X6.335Y-3.565
X6.345Y-3.72
X6.3484Y-4.0866
X6.365Y-3.735
X6.44Y-3.59
X6.465Y-3.44
X6.49Y-3.44
X6.515Y-3.44
X6.54Y-3.44
X6.555Y-3.685
X6.555Y-3.71
X6.555Y-3.735
T4
X6.15Y-4.19
X6.15Y-4.24
X6.2Y-4.19
X6.2Y-4.24
X6.25Y-4.19
X6.25Y-4.24
X6.3Y-4.19
X6.3Y-4.24
X6.35Y-4.19
X6.35Y-4.24
T5
X6.445Y-3.7763
X6.445Y-3.855
X6.445Y-3.9338
X6.445Y-4.0125
X6.445Y-4.0913
X6.445Y-4.17
X6.445Y-4.2487
X6.5237Y-3.7763
X6.5237Y-3.855
X6.5237Y-3.9338
X6.5237Y-4.0125
X6.5237Y-4.0913
X6.5237Y-4.17
X6.5237Y-4.2487
T6
X5.14Y-3.545
X5.14Y-3.645
T2
X5.1374Y-3.8872G85X5.163Y-3.8872
G05
X5.1374Y-4.1628G85X5.163Y-4.1628
G05
T3
X5.2565Y-3.9206G85X5.2565Y-3.9324
G05
X5.2565Y-4.1175G85X5.2565Y-4.1293
G05
T0
M30
