G04 #@! TF.FileFunction,Copper,L4,Bot,Signal*
%FSLAX46Y46*%
G04 Gerber Fmt 4.6, Leading zero omitted, Abs format (unit mm)*
G04 Created by KiCad (PCBNEW 0.201512021501+6340~38~ubuntu15.10.1-stable) date Sun 06 Dec 2015 12:21:56 AM EST*
%MOMM*%
G01*
G04 APERTURE LIST*
%ADD10C,0.100000*%
%ADD11C,1.250000*%
%ADD12R,1.050000X1.050000*%
%ADD13C,1.050000*%
%ADD14R,2.032000X2.032000*%
%ADD15O,2.032000X2.032000*%
%ADD16O,0.950000X1.250000*%
%ADD17O,1.550000X1.000000*%
%ADD18C,0.600000*%
%ADD19C,0.250000*%
G04 APERTURE END LIST*
D10*
D11*
X167354000Y-110108000D03*
X165354000Y-110108000D03*
X167354000Y-108108000D03*
X165354000Y-108108000D03*
X167354000Y-106108000D03*
X165354000Y-106108000D03*
X167354000Y-104108000D03*
X165354000Y-104108000D03*
X167354000Y-102108000D03*
X165354000Y-102108000D03*
X167354000Y-100108000D03*
X165354000Y-100108000D03*
X167354000Y-98108000D03*
X165354000Y-98108000D03*
X167354000Y-96108000D03*
X165354000Y-96108000D03*
D12*
X156845000Y-109601000D03*
D13*
X158115000Y-109601000D03*
X159385000Y-109601000D03*
X160655000Y-109601000D03*
X161925000Y-109601000D03*
X158115000Y-108331000D03*
X159385000Y-108331000D03*
X160655000Y-108331000D03*
X161925000Y-108331000D03*
X156845000Y-108331000D03*
D14*
X128778000Y-94615000D03*
D15*
X128778000Y-97155000D03*
D16*
X131102540Y-103036100D03*
X131102540Y-108036100D03*
D17*
X128402540Y-102036100D03*
X128402540Y-109036100D03*
D18*
X134747000Y-108585000D03*
X134747000Y-109347000D03*
X133096000Y-102235000D03*
X133096000Y-109855000D03*
X165227000Y-91694000D03*
X160655000Y-105579000D03*
X159004000Y-105579000D03*
X156319990Y-100058990D03*
X158640010Y-100460904D03*
X158640010Y-98832500D03*
X156319990Y-98832500D03*
X150368000Y-102870000D03*
X151257000Y-105283000D03*
X138684000Y-110744000D03*
X150749000Y-89154000D03*
X154305000Y-93599000D03*
X156972000Y-92837000D03*
X159385000Y-90212000D03*
X143891000Y-98186010D03*
X146558000Y-100584000D03*
X145796000Y-100584000D03*
X145288000Y-100076000D03*
X145161000Y-94478000D03*
X138430000Y-97536000D03*
X139192000Y-97536000D03*
X140081000Y-101346000D03*
X140843000Y-101346000D03*
X141112000Y-106441000D03*
X139812000Y-106441000D03*
X139812000Y-105141000D03*
X141112000Y-105141000D03*
X143256000Y-103251000D03*
X148717000Y-98552000D03*
X149479000Y-98552000D03*
X149733000Y-97917000D03*
X144780000Y-102743000D03*
X160316000Y-94107000D03*
X157480000Y-102997000D03*
X144272000Y-110490000D03*
X137541000Y-106566010D03*
X157480000Y-90170000D03*
X155448000Y-89789000D03*
X164084000Y-89535000D03*
X155067000Y-89027000D03*
X150368000Y-92075000D03*
X160147000Y-95123000D03*
X159893000Y-96647000D03*
X154051000Y-99949000D03*
X167767000Y-89154000D03*
X161417000Y-93218000D03*
X146812000Y-105156000D03*
X154457459Y-96147940D03*
X148209000Y-105156000D03*
X152884257Y-98298000D03*
X155904592Y-96403281D03*
X156591000Y-96266000D03*
X158496000Y-93980000D03*
X162306000Y-92964000D03*
X153797000Y-95915999D03*
X141478000Y-102743000D03*
X140716000Y-102616000D03*
X159893000Y-101981000D03*
X153409267Y-97542733D03*
X153670000Y-101109010D03*
X152527000Y-105664000D03*
X132715000Y-95377000D03*
X139192000Y-101473000D03*
X142240000Y-99822000D03*
X135763000Y-96520000D03*
X160909000Y-103378000D03*
X152400000Y-100584000D03*
D19*
X133096000Y-109855000D02*
X133096000Y-102235000D01*
X155448000Y-89789000D02*
X157099000Y-89789000D01*
X157099000Y-89789000D02*
X157480000Y-90170000D01*
X163785761Y-89236761D02*
X164084000Y-89535000D01*
X155067000Y-89027000D02*
X163576000Y-89027000D01*
X163576000Y-89027000D02*
X163785761Y-89236761D01*
X160147000Y-95123000D02*
X160147000Y-94698736D01*
X160147000Y-94698736D02*
X157523264Y-92075000D01*
X157523264Y-92075000D02*
X150368000Y-92075000D01*
X160020000Y-96774000D02*
X159893000Y-96647000D01*
X161574990Y-98328990D02*
X160020000Y-96774000D01*
X154051000Y-99949000D02*
X154051000Y-97479871D01*
X154051000Y-97479871D02*
X155789872Y-95740999D01*
X161574990Y-101076012D02*
X161574990Y-98328990D01*
X155789872Y-95740999D02*
X157335003Y-95740999D01*
X157335003Y-95740999D02*
X159367999Y-97773995D01*
X159367999Y-97773995D02*
X159367999Y-102233001D01*
X159367999Y-102233001D02*
X159640999Y-102506001D01*
X159640999Y-102506001D02*
X160145001Y-102506001D01*
X160145001Y-102506001D02*
X161574990Y-101076012D01*
X163068000Y-92202000D02*
X166116000Y-89154000D01*
X166116000Y-89154000D02*
X167767000Y-89154000D01*
X162290998Y-92202000D02*
X163068000Y-92202000D01*
X161417000Y-93218000D02*
X161716999Y-92918001D01*
X161716999Y-92918001D02*
X161716999Y-92775999D01*
X161716999Y-92775999D02*
X162290998Y-92202000D01*
X166204001Y-109257999D02*
X166204001Y-95699999D01*
X166204001Y-95699999D02*
X164022001Y-93517999D01*
X164022001Y-93517999D02*
X161716999Y-93517999D01*
X161716999Y-93517999D02*
X161417000Y-93218000D01*
X165354000Y-110108000D02*
X166204001Y-109257999D01*
X154457459Y-96147940D02*
X153587667Y-97017732D01*
X153587667Y-97017732D02*
X153157266Y-97017732D01*
X153157266Y-97017732D02*
X146812000Y-103362998D01*
X146812000Y-103362998D02*
X146812000Y-105156000D01*
X152884257Y-98298000D02*
X148209000Y-102973257D01*
X148209000Y-102973257D02*
X148209000Y-105156000D01*
X156845000Y-108331000D02*
X156845000Y-97343689D01*
X156845000Y-97343689D02*
X155904592Y-96403281D01*
X156591000Y-96266000D02*
X158115000Y-97790000D01*
X158115000Y-97790000D02*
X158115000Y-108331000D01*
X161925000Y-97833264D02*
X161925000Y-100088000D01*
X158496000Y-93980000D02*
X158496000Y-94404264D01*
X158496000Y-94404264D02*
X161925000Y-97833264D01*
X161925000Y-108331000D02*
X161925000Y-100088000D01*
X168204001Y-95699999D02*
X165468002Y-92964000D01*
X165468002Y-92964000D02*
X162306000Y-92964000D01*
X167354000Y-110108000D02*
X168204001Y-109257999D01*
X168204001Y-109257999D02*
X168204001Y-95699999D01*
X153797000Y-95915999D02*
X148305001Y-95915999D01*
X148305001Y-95915999D02*
X141478000Y-102743000D01*
X159893000Y-101981000D02*
X159893000Y-97804008D01*
X159893000Y-97804008D02*
X157479981Y-95390989D01*
X157479981Y-95390989D02*
X147941011Y-95390989D01*
X147941011Y-95390989D02*
X140716000Y-102616000D01*
X165354000Y-108108000D02*
X163110999Y-110351001D01*
X163110999Y-110351001D02*
X156139999Y-110351001D01*
X153136258Y-107347260D02*
X153136258Y-98823001D01*
X156139999Y-110351001D02*
X153136258Y-107347260D01*
X153136258Y-98823001D02*
X153409267Y-98549992D01*
X153409267Y-98549992D02*
X153409267Y-97966997D01*
X153409267Y-97966997D02*
X153409267Y-97542733D01*
X139192000Y-101473000D02*
X133096000Y-95377000D01*
X133096000Y-95377000D02*
X132715000Y-95377000D01*
X135763000Y-96520000D02*
X138938000Y-96520000D01*
X138938000Y-96520000D02*
X142240000Y-99822000D01*
M02*
