G04 #@! TF.FileFunction,Copper,L2,Inr,Signal*
%FSLAX46Y46*%
G04 Gerber Fmt 4.6, Leading zero omitted, Abs format (unit mm)*
G04 Created by KiCad (PCBNEW 0.201512021501+6340~38~ubuntu15.10.1-stable) date Sun 06 Dec 2015 12:21:56 AM EST*
%MOMM*%
G01*
G04 APERTURE LIST*
%ADD10C,0.100000*%
%ADD11C,1.250000*%
%ADD12R,1.050000X1.050000*%
%ADD13C,1.050000*%
%ADD14R,2.032000X2.032000*%
%ADD15O,2.032000X2.032000*%
%ADD16O,0.950000X1.250000*%
%ADD17O,1.550000X1.000000*%
%ADD18C,0.600000*%
%ADD19C,0.254000*%
G04 APERTURE END LIST*
D10*
D11*
X167354000Y-110108000D03*
X165354000Y-110108000D03*
X167354000Y-108108000D03*
X165354000Y-108108000D03*
X167354000Y-106108000D03*
X165354000Y-106108000D03*
X167354000Y-104108000D03*
X165354000Y-104108000D03*
X167354000Y-102108000D03*
X165354000Y-102108000D03*
X167354000Y-100108000D03*
X165354000Y-100108000D03*
X167354000Y-98108000D03*
X165354000Y-98108000D03*
X167354000Y-96108000D03*
X165354000Y-96108000D03*
D12*
X156845000Y-109601000D03*
D13*
X158115000Y-109601000D03*
X159385000Y-109601000D03*
X160655000Y-109601000D03*
X161925000Y-109601000D03*
X158115000Y-108331000D03*
X159385000Y-108331000D03*
X160655000Y-108331000D03*
X161925000Y-108331000D03*
X156845000Y-108331000D03*
D14*
X128778000Y-94615000D03*
D15*
X128778000Y-97155000D03*
D16*
X131102540Y-103036100D03*
X131102540Y-108036100D03*
D17*
X128402540Y-102036100D03*
X128402540Y-109036100D03*
D18*
X134747000Y-108585000D03*
X134747000Y-109347000D03*
X133096000Y-102235000D03*
X133096000Y-109855000D03*
X165227000Y-91694000D03*
X160655000Y-105579000D03*
X159004000Y-105579000D03*
X156319990Y-100058990D03*
X158640010Y-100460904D03*
X158640010Y-98832500D03*
X156319990Y-98832500D03*
X150368000Y-102870000D03*
X151257000Y-105283000D03*
X138684000Y-110744000D03*
X150749000Y-89154000D03*
X154305000Y-93599000D03*
X156972000Y-92837000D03*
X159385000Y-90212000D03*
X143891000Y-98186010D03*
X146558000Y-100584000D03*
X145796000Y-100584000D03*
X145288000Y-100076000D03*
X145161000Y-94478000D03*
X138430000Y-97536000D03*
X139192000Y-97536000D03*
X140081000Y-101346000D03*
X140843000Y-101346000D03*
X141112000Y-106441000D03*
X139812000Y-106441000D03*
X139812000Y-105141000D03*
X141112000Y-105141000D03*
X143256000Y-103251000D03*
X148717000Y-98552000D03*
X149479000Y-98552000D03*
X149733000Y-97917000D03*
X144780000Y-102743000D03*
X160316000Y-94107000D03*
X157480000Y-102997000D03*
X144272000Y-110490000D03*
X137541000Y-106566010D03*
X157480000Y-90170000D03*
X155448000Y-89789000D03*
X164084000Y-89535000D03*
X155067000Y-89027000D03*
X150368000Y-92075000D03*
X160147000Y-95123000D03*
X159893000Y-96647000D03*
X154051000Y-99949000D03*
X167767000Y-89154000D03*
X161417000Y-93218000D03*
X146812000Y-105156000D03*
X154457459Y-96147940D03*
X148209000Y-105156000D03*
X152884257Y-98298000D03*
X155904592Y-96403281D03*
X156591000Y-96266000D03*
X158496000Y-93980000D03*
X162306000Y-92964000D03*
X153797000Y-95915999D03*
X141478000Y-102743000D03*
X140716000Y-102616000D03*
X159893000Y-101981000D03*
X153409267Y-97542733D03*
X153670000Y-101109010D03*
X152527000Y-105664000D03*
X132715000Y-95377000D03*
X139192000Y-101473000D03*
X142240000Y-99822000D03*
X135763000Y-96520000D03*
X160909000Y-103378000D03*
X152400000Y-100584000D03*
D19*
G36*
X162579308Y-88374524D02*
X162579307Y-88374526D01*
X162579306Y-88374527D01*
X162551776Y-88415729D01*
X162551775Y-88415730D01*
X162535423Y-88455208D01*
X162502950Y-88533605D01*
X162502950Y-88533607D01*
X162493283Y-88582208D01*
X162493283Y-88614413D01*
X162487000Y-88646000D01*
X162487000Y-91694000D01*
X162493283Y-91725587D01*
X162493283Y-91757792D01*
X162502950Y-91806393D01*
X162502950Y-91806395D01*
X162531367Y-91875000D01*
X162551775Y-91924270D01*
X162551776Y-91924271D01*
X162579306Y-91965473D01*
X162579307Y-91965474D01*
X162579308Y-91965476D01*
X162669524Y-92055692D01*
X162669526Y-92055693D01*
X162669527Y-92055694D01*
X162710729Y-92083224D01*
X162710730Y-92083225D01*
X162759556Y-92103449D01*
X162828605Y-92132050D01*
X162828607Y-92132050D01*
X162877200Y-92141715D01*
X162877204Y-92141717D01*
X163004796Y-92141717D01*
X163004800Y-92141715D01*
X163053393Y-92132050D01*
X163053395Y-92132050D01*
X163122444Y-92103449D01*
X163171270Y-92083225D01*
X163171271Y-92083224D01*
X163212473Y-92055694D01*
X163212474Y-92055693D01*
X163212476Y-92055692D01*
X163302692Y-91965476D01*
X163302693Y-91965474D01*
X163302694Y-91965473D01*
X163330224Y-91924271D01*
X163330225Y-91924270D01*
X163350633Y-91875000D01*
X163379050Y-91806395D01*
X163379050Y-91806393D01*
X163388717Y-91757792D01*
X163388717Y-91725587D01*
X163395000Y-91694000D01*
X163395000Y-89644318D01*
X163531905Y-89644318D01*
X163615765Y-89847274D01*
X163770909Y-90002690D01*
X163973719Y-90086904D01*
X164193318Y-90087095D01*
X164396274Y-90003235D01*
X164551690Y-89848091D01*
X164635904Y-89645281D01*
X164636095Y-89425682D01*
X164552235Y-89222726D01*
X164397091Y-89067310D01*
X164194281Y-88983096D01*
X163974682Y-88982905D01*
X163771726Y-89066765D01*
X163616310Y-89221909D01*
X163532096Y-89424719D01*
X163531905Y-89644318D01*
X163395000Y-89644318D01*
X163395000Y-88646000D01*
X163388717Y-88614413D01*
X163388717Y-88582208D01*
X163379050Y-88533607D01*
X163379050Y-88533605D01*
X163346577Y-88455208D01*
X163330225Y-88415730D01*
X163330224Y-88415729D01*
X163302694Y-88374527D01*
X163302693Y-88374526D01*
X163302692Y-88374524D01*
X163266168Y-88338000D01*
X168202000Y-88338000D01*
X168202000Y-88808433D01*
X168080091Y-88686310D01*
X167877281Y-88602096D01*
X167657682Y-88601905D01*
X167454726Y-88685765D01*
X167299310Y-88840909D01*
X167215096Y-89043719D01*
X167214905Y-89263318D01*
X167298765Y-89466274D01*
X167453909Y-89621690D01*
X167656719Y-89705904D01*
X167876318Y-89706095D01*
X168079274Y-89622235D01*
X168202000Y-89499724D01*
X168202000Y-92003832D01*
X168165476Y-91967308D01*
X168165474Y-91967307D01*
X168165473Y-91967306D01*
X168124271Y-91939776D01*
X168124270Y-91939775D01*
X168072858Y-91918480D01*
X168006395Y-91890950D01*
X168006393Y-91890950D01*
X167957792Y-91881283D01*
X167925587Y-91881283D01*
X167894000Y-91875000D01*
X163576000Y-91875000D01*
X163544413Y-91881283D01*
X163512208Y-91881283D01*
X163463607Y-91890950D01*
X163463605Y-91890950D01*
X163397142Y-91918480D01*
X163345730Y-91939775D01*
X163345729Y-91939776D01*
X163304527Y-91967306D01*
X163304526Y-91967307D01*
X163304524Y-91967308D01*
X163214308Y-92057524D01*
X163214307Y-92057526D01*
X163214306Y-92057527D01*
X163186776Y-92098729D01*
X163186775Y-92098730D01*
X163175639Y-92125616D01*
X163137950Y-92216605D01*
X163137950Y-92216607D01*
X163128285Y-92265200D01*
X163128283Y-92265204D01*
X163128283Y-92392796D01*
X163128285Y-92392800D01*
X163137950Y-92441393D01*
X163137950Y-92441395D01*
X163155414Y-92483556D01*
X163186775Y-92559270D01*
X163186776Y-92559271D01*
X163214306Y-92600473D01*
X163214307Y-92600474D01*
X163214308Y-92600476D01*
X163304524Y-92690692D01*
X163304526Y-92690693D01*
X163304527Y-92690694D01*
X163345729Y-92718224D01*
X163345730Y-92718225D01*
X163369062Y-92727889D01*
X163463605Y-92767050D01*
X163463607Y-92767050D01*
X163512208Y-92776717D01*
X163544413Y-92776717D01*
X163576000Y-92783000D01*
X167894000Y-92783000D01*
X167925587Y-92776717D01*
X167957792Y-92776717D01*
X168006393Y-92767050D01*
X168006395Y-92767050D01*
X168100938Y-92727889D01*
X168124270Y-92718225D01*
X168124271Y-92718224D01*
X168165473Y-92690694D01*
X168165474Y-92690693D01*
X168165476Y-92690692D01*
X168202000Y-92654168D01*
X168202000Y-95863768D01*
X168097918Y-95611869D01*
X167851429Y-95364949D01*
X167529211Y-95231153D01*
X167180319Y-95230849D01*
X166857869Y-95364082D01*
X166610949Y-95610571D01*
X166568190Y-95713546D01*
X166462890Y-95459325D01*
X166234878Y-95406727D01*
X165533605Y-96108000D01*
X166234878Y-96809273D01*
X166462890Y-96756675D01*
X166558672Y-96479708D01*
X166610082Y-96604131D01*
X166856571Y-96851051D01*
X167178789Y-96984847D01*
X167527681Y-96985151D01*
X167850131Y-96851918D01*
X168097051Y-96605429D01*
X168202000Y-96352683D01*
X168202000Y-97863768D01*
X168097918Y-97611869D01*
X167851429Y-97364949D01*
X167529211Y-97231153D01*
X167180319Y-97230849D01*
X166857869Y-97364082D01*
X166610949Y-97610571D01*
X166477153Y-97932789D01*
X166476849Y-98281681D01*
X166610082Y-98604131D01*
X166856571Y-98851051D01*
X167178789Y-98984847D01*
X167527681Y-98985151D01*
X167850131Y-98851918D01*
X168097051Y-98605429D01*
X168202000Y-98352683D01*
X168202000Y-99863768D01*
X168097918Y-99611869D01*
X167851429Y-99364949D01*
X167529211Y-99231153D01*
X167180319Y-99230849D01*
X166857869Y-99364082D01*
X166610949Y-99610571D01*
X166477153Y-99932789D01*
X166476849Y-100281681D01*
X166610082Y-100604131D01*
X166856571Y-100851051D01*
X167178789Y-100984847D01*
X167527681Y-100985151D01*
X167850131Y-100851918D01*
X168097051Y-100605429D01*
X168202000Y-100352683D01*
X168202000Y-101863768D01*
X168097918Y-101611869D01*
X167851429Y-101364949D01*
X167529211Y-101231153D01*
X167180319Y-101230849D01*
X166857869Y-101364082D01*
X166610949Y-101610571D01*
X166477153Y-101932789D01*
X166476849Y-102281681D01*
X166610082Y-102604131D01*
X166856571Y-102851051D01*
X167178789Y-102984847D01*
X167527681Y-102985151D01*
X167850131Y-102851918D01*
X168097051Y-102605429D01*
X168202000Y-102352683D01*
X168202000Y-103863768D01*
X168097918Y-103611869D01*
X167851429Y-103364949D01*
X167529211Y-103231153D01*
X167180319Y-103230849D01*
X166857869Y-103364082D01*
X166610949Y-103610571D01*
X166477153Y-103932789D01*
X166476849Y-104281681D01*
X166610082Y-104604131D01*
X166856571Y-104851051D01*
X167178789Y-104984847D01*
X167527681Y-104985151D01*
X167850131Y-104851918D01*
X168097051Y-104605429D01*
X168202000Y-104352683D01*
X168202000Y-105863768D01*
X168097918Y-105611869D01*
X167851429Y-105364949D01*
X167529211Y-105231153D01*
X167180319Y-105230849D01*
X166857869Y-105364082D01*
X166610949Y-105610571D01*
X166477153Y-105932789D01*
X166476849Y-106281681D01*
X166610082Y-106604131D01*
X166856571Y-106851051D01*
X167178789Y-106984847D01*
X167527681Y-106985151D01*
X167850131Y-106851918D01*
X168097051Y-106605429D01*
X168202000Y-106352683D01*
X168202000Y-107863768D01*
X168097918Y-107611869D01*
X167851429Y-107364949D01*
X167529211Y-107231153D01*
X167180319Y-107230849D01*
X166857869Y-107364082D01*
X166610949Y-107610571D01*
X166477153Y-107932789D01*
X166476849Y-108281681D01*
X166610082Y-108604131D01*
X166856571Y-108851051D01*
X167178789Y-108984847D01*
X167527681Y-108985151D01*
X167850131Y-108851918D01*
X168097051Y-108605429D01*
X168202000Y-108352683D01*
X168202000Y-109863768D01*
X168097918Y-109611869D01*
X167851429Y-109364949D01*
X167529211Y-109231153D01*
X167180319Y-109230849D01*
X166857869Y-109364082D01*
X166610949Y-109610571D01*
X166477153Y-109932789D01*
X166476849Y-110281681D01*
X166610082Y-110604131D01*
X166856571Y-110851051D01*
X167034661Y-110925000D01*
X165673258Y-110925000D01*
X165850131Y-110851918D01*
X166097051Y-110605429D01*
X166230847Y-110283211D01*
X166231151Y-109934319D01*
X166097918Y-109611869D01*
X165851429Y-109364949D01*
X165529211Y-109231153D01*
X165180319Y-109230849D01*
X164857869Y-109364082D01*
X164610949Y-109610571D01*
X164477153Y-109932789D01*
X164476849Y-110281681D01*
X164610082Y-110604131D01*
X164856571Y-110851051D01*
X165034661Y-110925000D01*
X144617567Y-110925000D01*
X144739690Y-110803091D01*
X144823904Y-110600281D01*
X144824095Y-110380682D01*
X144740235Y-110177726D01*
X144585091Y-110022310D01*
X144382281Y-109938096D01*
X144162682Y-109937905D01*
X143959726Y-110021765D01*
X143804310Y-110176909D01*
X143720096Y-110379719D01*
X143719905Y-110599318D01*
X143803765Y-110802274D01*
X143926276Y-110925000D01*
X127327000Y-110925000D01*
X127327000Y-109826284D01*
X127575862Y-110036102D01*
X128000540Y-110171100D01*
X128275540Y-110171100D01*
X128275540Y-109163100D01*
X128529540Y-109163100D01*
X128529540Y-110171100D01*
X128804540Y-110171100D01*
X129229218Y-110036102D01*
X129314359Y-109964318D01*
X132543905Y-109964318D01*
X132627765Y-110167274D01*
X132782909Y-110322690D01*
X132985719Y-110406904D01*
X133205318Y-110407095D01*
X133408274Y-110323235D01*
X133563690Y-110168091D01*
X133647904Y-109965281D01*
X133648095Y-109745682D01*
X133564235Y-109542726D01*
X133409091Y-109387310D01*
X133206281Y-109303096D01*
X132986682Y-109302905D01*
X132783726Y-109386765D01*
X132628310Y-109541909D01*
X132544096Y-109744719D01*
X132543905Y-109964318D01*
X129314359Y-109964318D01*
X129569908Y-109748863D01*
X129771659Y-109337974D01*
X129645494Y-109163100D01*
X128529540Y-109163100D01*
X128275540Y-109163100D01*
X128255540Y-109163100D01*
X128255540Y-108909100D01*
X128275540Y-108909100D01*
X128275540Y-107901100D01*
X128529540Y-107901100D01*
X128529540Y-108909100D01*
X129645494Y-108909100D01*
X129771659Y-108734226D01*
X129576731Y-108337231D01*
X130001311Y-108337231D01*
X130142972Y-108747149D01*
X130430719Y-109071652D01*
X130804602Y-109255368D01*
X130975540Y-109128834D01*
X130975540Y-108163100D01*
X131229540Y-108163100D01*
X131229540Y-109128834D01*
X131400478Y-109255368D01*
X131774361Y-109071652D01*
X132062108Y-108747149D01*
X132080365Y-108694318D01*
X134194905Y-108694318D01*
X134278765Y-108897274D01*
X134347354Y-108965984D01*
X134279310Y-109033909D01*
X134195096Y-109236719D01*
X134194905Y-109456318D01*
X134278765Y-109659274D01*
X134433909Y-109814690D01*
X134636719Y-109898904D01*
X134856318Y-109899095D01*
X135059274Y-109815235D01*
X135214690Y-109660091D01*
X135298904Y-109457281D01*
X135299095Y-109237682D01*
X135232290Y-109076000D01*
X156063064Y-109076000D01*
X156063064Y-110126000D01*
X156080636Y-110219385D01*
X156135826Y-110305154D01*
X156220038Y-110362693D01*
X156320000Y-110382936D01*
X157370000Y-110382936D01*
X157463385Y-110365364D01*
X157549154Y-110310174D01*
X157606693Y-110225962D01*
X157626936Y-110126000D01*
X157626936Y-109909459D01*
X157935395Y-109601000D01*
X157921253Y-109586858D01*
X158100858Y-109407252D01*
X158115000Y-109421395D01*
X158129143Y-109407253D01*
X158214898Y-109493008D01*
X158228730Y-109695160D01*
X158129143Y-109794748D01*
X158115000Y-109780605D01*
X157486333Y-110409273D01*
X157526575Y-110626962D01*
X157963985Y-110774046D01*
X158424386Y-110742543D01*
X158703425Y-110626962D01*
X158740794Y-110424814D01*
X158750000Y-110415608D01*
X158759206Y-110424814D01*
X158796575Y-110626962D01*
X159233985Y-110774046D01*
X159694386Y-110742543D01*
X159973425Y-110626962D01*
X160013667Y-110409273D01*
X161296333Y-110409273D01*
X161336575Y-110626962D01*
X161773985Y-110774046D01*
X162234386Y-110742543D01*
X162513425Y-110626962D01*
X162553667Y-110409273D01*
X161925000Y-109780605D01*
X161296333Y-110409273D01*
X160013667Y-110409273D01*
X159385000Y-109780605D01*
X159370858Y-109794748D01*
X159285102Y-109708992D01*
X159271270Y-109506840D01*
X159370858Y-109407253D01*
X159385000Y-109421395D01*
X159399143Y-109407253D01*
X159578748Y-109586858D01*
X159564605Y-109601000D01*
X159990093Y-110026488D01*
X159995908Y-110040560D01*
X160214290Y-110259324D01*
X160499767Y-110377865D01*
X160808877Y-110378134D01*
X161094560Y-110260092D01*
X161313324Y-110041710D01*
X161319459Y-110026935D01*
X161745395Y-109601000D01*
X162104605Y-109601000D01*
X162733273Y-110229667D01*
X162950962Y-110189425D01*
X163098046Y-109752015D01*
X163066543Y-109291614D01*
X162950962Y-109012575D01*
X162733273Y-108972333D01*
X162104605Y-109601000D01*
X161745395Y-109601000D01*
X161731253Y-109586858D01*
X161910858Y-109407252D01*
X161925000Y-109421395D01*
X162350488Y-108995907D01*
X162364560Y-108990092D01*
X162583324Y-108771710D01*
X162701865Y-108486233D01*
X162702043Y-108281681D01*
X164476849Y-108281681D01*
X164610082Y-108604131D01*
X164856571Y-108851051D01*
X165178789Y-108984847D01*
X165527681Y-108985151D01*
X165850131Y-108851918D01*
X166097051Y-108605429D01*
X166230847Y-108283211D01*
X166231151Y-107934319D01*
X166097918Y-107611869D01*
X165851429Y-107364949D01*
X165529211Y-107231153D01*
X165180319Y-107230849D01*
X164857869Y-107364082D01*
X164610949Y-107610571D01*
X164477153Y-107932789D01*
X164476849Y-108281681D01*
X162702043Y-108281681D01*
X162702134Y-108177123D01*
X162584092Y-107891440D01*
X162365710Y-107672676D01*
X162080233Y-107554135D01*
X161771123Y-107553866D01*
X161485440Y-107671908D01*
X161289850Y-107867156D01*
X161095710Y-107672676D01*
X160810233Y-107554135D01*
X160501123Y-107553866D01*
X160215440Y-107671908D01*
X160019850Y-107867156D01*
X159825710Y-107672676D01*
X159540233Y-107554135D01*
X159231123Y-107553866D01*
X158945440Y-107671908D01*
X158749850Y-107867156D01*
X158555710Y-107672676D01*
X158270233Y-107554135D01*
X157961123Y-107553866D01*
X157675440Y-107671908D01*
X157479850Y-107867156D01*
X157285710Y-107672676D01*
X157000233Y-107554135D01*
X156691123Y-107553866D01*
X156405440Y-107671908D01*
X156186676Y-107890290D01*
X156068135Y-108175767D01*
X156067866Y-108484877D01*
X156185908Y-108770560D01*
X156247875Y-108832636D01*
X156226615Y-108836636D01*
X156140846Y-108891826D01*
X156083307Y-108976038D01*
X156063064Y-109076000D01*
X135232290Y-109076000D01*
X135215235Y-109034726D01*
X135146646Y-108966016D01*
X135214690Y-108898091D01*
X135298904Y-108695281D01*
X135299095Y-108475682D01*
X135215235Y-108272726D01*
X135060091Y-108117310D01*
X134857281Y-108033096D01*
X134637682Y-108032905D01*
X134434726Y-108116765D01*
X134279310Y-108271909D01*
X134195096Y-108474719D01*
X134194905Y-108694318D01*
X132080365Y-108694318D01*
X132203769Y-108337231D01*
X132055103Y-108163100D01*
X131229540Y-108163100D01*
X130975540Y-108163100D01*
X130149977Y-108163100D01*
X130001311Y-108337231D01*
X129576731Y-108337231D01*
X129569908Y-108323337D01*
X129229218Y-108036098D01*
X128804540Y-107901100D01*
X128529540Y-107901100D01*
X128275540Y-107901100D01*
X128000540Y-107901100D01*
X127575862Y-108036098D01*
X127327000Y-108245916D01*
X127327000Y-107734969D01*
X130001311Y-107734969D01*
X130149977Y-107909100D01*
X130975540Y-107909100D01*
X130975540Y-106943366D01*
X131229540Y-106943366D01*
X131229540Y-107909100D01*
X132055103Y-107909100D01*
X132203769Y-107734969D01*
X132062108Y-107325051D01*
X131774361Y-107000548D01*
X131400478Y-106816832D01*
X131229540Y-106943366D01*
X130975540Y-106943366D01*
X130804602Y-106816832D01*
X130430719Y-107000548D01*
X130142972Y-107325051D01*
X130001311Y-107734969D01*
X127327000Y-107734969D01*
X127327000Y-106675328D01*
X136988905Y-106675328D01*
X137072765Y-106878284D01*
X137227909Y-107033700D01*
X137430719Y-107117914D01*
X137650318Y-107118105D01*
X137853274Y-107034245D01*
X138008690Y-106879101D01*
X138092904Y-106676291D01*
X138093095Y-106456692D01*
X138020782Y-106281681D01*
X164476849Y-106281681D01*
X164610082Y-106604131D01*
X164856571Y-106851051D01*
X165178789Y-106984847D01*
X165527681Y-106985151D01*
X165850131Y-106851918D01*
X166097051Y-106605429D01*
X166230847Y-106283211D01*
X166231151Y-105934319D01*
X166097918Y-105611869D01*
X165851429Y-105364949D01*
X165529211Y-105231153D01*
X165180319Y-105230849D01*
X164857869Y-105364082D01*
X164610949Y-105610571D01*
X164477153Y-105932789D01*
X164476849Y-106281681D01*
X138020782Y-106281681D01*
X138009235Y-106253736D01*
X137854091Y-106098320D01*
X137651281Y-106014106D01*
X137431682Y-106013915D01*
X137228726Y-106097775D01*
X137073310Y-106252919D01*
X136989096Y-106455729D01*
X136988905Y-106675328D01*
X127327000Y-106675328D01*
X127327000Y-105773318D01*
X151974905Y-105773318D01*
X152058765Y-105976274D01*
X152213909Y-106131690D01*
X152416719Y-106215904D01*
X152636318Y-106216095D01*
X152839274Y-106132235D01*
X152994690Y-105977091D01*
X153078904Y-105774281D01*
X153079095Y-105554682D01*
X152995235Y-105351726D01*
X152840091Y-105196310D01*
X152637281Y-105112096D01*
X152417682Y-105111905D01*
X152214726Y-105195765D01*
X152059310Y-105350909D01*
X151975096Y-105553719D01*
X151974905Y-105773318D01*
X127327000Y-105773318D01*
X127327000Y-105265318D01*
X146259905Y-105265318D01*
X146343765Y-105468274D01*
X146498909Y-105623690D01*
X146701719Y-105707904D01*
X146921318Y-105708095D01*
X147124274Y-105624235D01*
X147279690Y-105469091D01*
X147363904Y-105266281D01*
X147363904Y-105265318D01*
X147656905Y-105265318D01*
X147740765Y-105468274D01*
X147895909Y-105623690D01*
X148098719Y-105707904D01*
X148318318Y-105708095D01*
X148521274Y-105624235D01*
X148676690Y-105469091D01*
X148760904Y-105266281D01*
X148761095Y-105046682D01*
X148677235Y-104843726D01*
X148522091Y-104688310D01*
X148319281Y-104604096D01*
X148099682Y-104603905D01*
X147896726Y-104687765D01*
X147741310Y-104842909D01*
X147657096Y-105045719D01*
X147656905Y-105265318D01*
X147363904Y-105265318D01*
X147364095Y-105046682D01*
X147280235Y-104843726D01*
X147125091Y-104688310D01*
X146922281Y-104604096D01*
X146702682Y-104603905D01*
X146499726Y-104687765D01*
X146344310Y-104842909D01*
X146260096Y-105045719D01*
X146259905Y-105265318D01*
X127327000Y-105265318D01*
X127327000Y-104281681D01*
X164476849Y-104281681D01*
X164610082Y-104604131D01*
X164856571Y-104851051D01*
X165178789Y-104984847D01*
X165527681Y-104985151D01*
X165850131Y-104851918D01*
X166097051Y-104605429D01*
X166230847Y-104283211D01*
X166231151Y-103934319D01*
X166097918Y-103611869D01*
X165851429Y-103364949D01*
X165529211Y-103231153D01*
X165180319Y-103230849D01*
X164857869Y-103364082D01*
X164610949Y-103610571D01*
X164477153Y-103932789D01*
X164476849Y-104281681D01*
X127327000Y-104281681D01*
X127327000Y-103337231D01*
X130001311Y-103337231D01*
X130142972Y-103747149D01*
X130430719Y-104071652D01*
X130804602Y-104255368D01*
X130975540Y-104128834D01*
X130975540Y-103163100D01*
X131229540Y-103163100D01*
X131229540Y-104128834D01*
X131400478Y-104255368D01*
X131774361Y-104071652D01*
X132062108Y-103747149D01*
X132203769Y-103337231D01*
X132055103Y-103163100D01*
X131229540Y-103163100D01*
X130975540Y-103163100D01*
X130149977Y-103163100D01*
X130001311Y-103337231D01*
X127327000Y-103337231D01*
X127327000Y-102826284D01*
X127575862Y-103036102D01*
X128000540Y-103171100D01*
X128275540Y-103171100D01*
X128275540Y-102163100D01*
X128529540Y-102163100D01*
X128529540Y-103171100D01*
X128804540Y-103171100D01*
X129229218Y-103036102D01*
X129569908Y-102748863D01*
X129576730Y-102734969D01*
X130001311Y-102734969D01*
X130149977Y-102909100D01*
X130975540Y-102909100D01*
X130975540Y-101943366D01*
X131229540Y-101943366D01*
X131229540Y-102909100D01*
X132055103Y-102909100D01*
X132203769Y-102734969D01*
X132068767Y-102344318D01*
X132543905Y-102344318D01*
X132627765Y-102547274D01*
X132782909Y-102702690D01*
X132985719Y-102786904D01*
X133205318Y-102787095D01*
X133354829Y-102725318D01*
X140163905Y-102725318D01*
X140247765Y-102928274D01*
X140402909Y-103083690D01*
X140605719Y-103167904D01*
X140825318Y-103168095D01*
X141028274Y-103084235D01*
X141033484Y-103079034D01*
X141164909Y-103210690D01*
X141367719Y-103294904D01*
X141587318Y-103295095D01*
X141790274Y-103211235D01*
X141945690Y-103056091D01*
X142029904Y-102853281D01*
X142029904Y-102852318D01*
X144227905Y-102852318D01*
X144311765Y-103055274D01*
X144466909Y-103210690D01*
X144669719Y-103294904D01*
X144889318Y-103295095D01*
X145092274Y-103211235D01*
X145197374Y-103106318D01*
X156927905Y-103106318D01*
X157011765Y-103309274D01*
X157166909Y-103464690D01*
X157369719Y-103548904D01*
X157589318Y-103549095D01*
X157738829Y-103487318D01*
X160356905Y-103487318D01*
X160440765Y-103690274D01*
X160595909Y-103845690D01*
X160798719Y-103929904D01*
X161018318Y-103930095D01*
X161221274Y-103846235D01*
X161376690Y-103691091D01*
X161460904Y-103488281D01*
X161461095Y-103268682D01*
X161377235Y-103065726D01*
X161222091Y-102910310D01*
X161019281Y-102826096D01*
X160799682Y-102825905D01*
X160596726Y-102909765D01*
X160441310Y-103064909D01*
X160357096Y-103267719D01*
X160356905Y-103487318D01*
X157738829Y-103487318D01*
X157792274Y-103465235D01*
X157947690Y-103310091D01*
X158031904Y-103107281D01*
X158032095Y-102887682D01*
X157948235Y-102684726D01*
X157793091Y-102529310D01*
X157590281Y-102445096D01*
X157370682Y-102444905D01*
X157167726Y-102528765D01*
X157012310Y-102683909D01*
X156928096Y-102886719D01*
X156927905Y-103106318D01*
X145197374Y-103106318D01*
X145247690Y-103056091D01*
X145331904Y-102853281D01*
X145332095Y-102633682D01*
X145248235Y-102430726D01*
X145093091Y-102275310D01*
X144890281Y-102191096D01*
X144670682Y-102190905D01*
X144467726Y-102274765D01*
X144312310Y-102429909D01*
X144228096Y-102632719D01*
X144227905Y-102852318D01*
X142029904Y-102852318D01*
X142030095Y-102633682D01*
X141946235Y-102430726D01*
X141791091Y-102275310D01*
X141588281Y-102191096D01*
X141368682Y-102190905D01*
X141165726Y-102274765D01*
X141160516Y-102279966D01*
X141029091Y-102148310D01*
X140889431Y-102090318D01*
X159340905Y-102090318D01*
X159424765Y-102293274D01*
X159579909Y-102448690D01*
X159782719Y-102532904D01*
X160002318Y-102533095D01*
X160205274Y-102449235D01*
X160360690Y-102294091D01*
X160365843Y-102281681D01*
X164476849Y-102281681D01*
X164610082Y-102604131D01*
X164856571Y-102851051D01*
X165178789Y-102984847D01*
X165527681Y-102985151D01*
X165850131Y-102851918D01*
X166097051Y-102605429D01*
X166230847Y-102283211D01*
X166231151Y-101934319D01*
X166097918Y-101611869D01*
X165851429Y-101364949D01*
X165529211Y-101231153D01*
X165180319Y-101230849D01*
X164857869Y-101364082D01*
X164610949Y-101610571D01*
X164477153Y-101932789D01*
X164476849Y-102281681D01*
X160365843Y-102281681D01*
X160444904Y-102091281D01*
X160445095Y-101871682D01*
X160361235Y-101668726D01*
X160206091Y-101513310D01*
X160003281Y-101429096D01*
X159783682Y-101428905D01*
X159580726Y-101512765D01*
X159425310Y-101667909D01*
X159341096Y-101870719D01*
X159340905Y-102090318D01*
X140889431Y-102090318D01*
X140826281Y-102064096D01*
X140606682Y-102063905D01*
X140403726Y-102147765D01*
X140248310Y-102302909D01*
X140164096Y-102505719D01*
X140163905Y-102725318D01*
X133354829Y-102725318D01*
X133408274Y-102703235D01*
X133563690Y-102548091D01*
X133647904Y-102345281D01*
X133648095Y-102125682D01*
X133564235Y-101922726D01*
X133409091Y-101767310D01*
X133206281Y-101683096D01*
X132986682Y-101682905D01*
X132783726Y-101766765D01*
X132628310Y-101921909D01*
X132544096Y-102124719D01*
X132543905Y-102344318D01*
X132068767Y-102344318D01*
X132062108Y-102325051D01*
X131774361Y-102000548D01*
X131400478Y-101816832D01*
X131229540Y-101943366D01*
X130975540Y-101943366D01*
X130804602Y-101816832D01*
X130430719Y-102000548D01*
X130142972Y-102325051D01*
X130001311Y-102734969D01*
X129576730Y-102734969D01*
X129771659Y-102337974D01*
X129645494Y-102163100D01*
X128529540Y-102163100D01*
X128275540Y-102163100D01*
X128255540Y-102163100D01*
X128255540Y-101909100D01*
X128275540Y-101909100D01*
X128275540Y-100901100D01*
X128529540Y-100901100D01*
X128529540Y-101909100D01*
X129645494Y-101909100D01*
X129771659Y-101734226D01*
X129697071Y-101582318D01*
X138639905Y-101582318D01*
X138723765Y-101785274D01*
X138878909Y-101940690D01*
X139081719Y-102024904D01*
X139301318Y-102025095D01*
X139504274Y-101941235D01*
X139659690Y-101786091D01*
X139743904Y-101583281D01*
X139744095Y-101363682D01*
X139684036Y-101218328D01*
X153117905Y-101218328D01*
X153201765Y-101421284D01*
X153356909Y-101576700D01*
X153559719Y-101660914D01*
X153779318Y-101661105D01*
X153982274Y-101577245D01*
X154137690Y-101422101D01*
X154221904Y-101219291D01*
X154222095Y-100999692D01*
X154138235Y-100796736D01*
X153983091Y-100641320D01*
X153780281Y-100557106D01*
X153560682Y-100556915D01*
X153357726Y-100640775D01*
X153202310Y-100795919D01*
X153118096Y-100998729D01*
X153117905Y-101218328D01*
X139684036Y-101218328D01*
X139660235Y-101160726D01*
X139505091Y-101005310D01*
X139302281Y-100921096D01*
X139082682Y-100920905D01*
X138879726Y-101004765D01*
X138724310Y-101159909D01*
X138640096Y-101362719D01*
X138639905Y-101582318D01*
X129697071Y-101582318D01*
X129569908Y-101323337D01*
X129229218Y-101036098D01*
X128804540Y-100901100D01*
X128529540Y-100901100D01*
X128275540Y-100901100D01*
X128000540Y-100901100D01*
X127575862Y-101036098D01*
X127327000Y-101245916D01*
X127327000Y-100693318D01*
X151847905Y-100693318D01*
X151931765Y-100896274D01*
X152086909Y-101051690D01*
X152289719Y-101135904D01*
X152509318Y-101136095D01*
X152712274Y-101052235D01*
X152867690Y-100897091D01*
X152951904Y-100694281D01*
X152952095Y-100474682D01*
X152868235Y-100271726D01*
X152713091Y-100116310D01*
X152573431Y-100058318D01*
X153498905Y-100058318D01*
X153582765Y-100261274D01*
X153737909Y-100416690D01*
X153940719Y-100500904D01*
X154160318Y-100501095D01*
X154363274Y-100417235D01*
X154499065Y-100281681D01*
X164476849Y-100281681D01*
X164610082Y-100604131D01*
X164856571Y-100851051D01*
X165178789Y-100984847D01*
X165527681Y-100985151D01*
X165850131Y-100851918D01*
X166097051Y-100605429D01*
X166230847Y-100283211D01*
X166231151Y-99934319D01*
X166097918Y-99611869D01*
X165851429Y-99364949D01*
X165529211Y-99231153D01*
X165180319Y-99230849D01*
X164857869Y-99364082D01*
X164610949Y-99610571D01*
X164477153Y-99932789D01*
X164476849Y-100281681D01*
X154499065Y-100281681D01*
X154518690Y-100262091D01*
X154602904Y-100059281D01*
X154603095Y-99839682D01*
X154519235Y-99636726D01*
X154364091Y-99481310D01*
X154161281Y-99397096D01*
X153941682Y-99396905D01*
X153738726Y-99480765D01*
X153583310Y-99635909D01*
X153499096Y-99838719D01*
X153498905Y-100058318D01*
X152573431Y-100058318D01*
X152510281Y-100032096D01*
X152290682Y-100031905D01*
X152087726Y-100115765D01*
X151932310Y-100270909D01*
X151848096Y-100473719D01*
X151847905Y-100693318D01*
X127327000Y-100693318D01*
X127327000Y-99931318D01*
X141687905Y-99931318D01*
X141771765Y-100134274D01*
X141926909Y-100289690D01*
X142129719Y-100373904D01*
X142349318Y-100374095D01*
X142552274Y-100290235D01*
X142707690Y-100135091D01*
X142791904Y-99932281D01*
X142792095Y-99712682D01*
X142708235Y-99509726D01*
X142553091Y-99354310D01*
X142350281Y-99270096D01*
X142130682Y-99269905D01*
X141927726Y-99353765D01*
X141772310Y-99508909D01*
X141688096Y-99711719D01*
X141687905Y-99931318D01*
X127327000Y-99931318D01*
X127327000Y-97875498D01*
X127440812Y-98123379D01*
X127913182Y-98561385D01*
X128395056Y-98760975D01*
X128651000Y-98641836D01*
X128651000Y-97282000D01*
X128905000Y-97282000D01*
X128905000Y-98641836D01*
X129160944Y-98760975D01*
X129401547Y-98661318D01*
X148164905Y-98661318D01*
X148248765Y-98864274D01*
X148403909Y-99019690D01*
X148606719Y-99103904D01*
X148826318Y-99104095D01*
X149029274Y-99020235D01*
X149097984Y-98951646D01*
X149165909Y-99019690D01*
X149368719Y-99103904D01*
X149588318Y-99104095D01*
X149791274Y-99020235D01*
X149946690Y-98865091D01*
X150030904Y-98662281D01*
X150031095Y-98442682D01*
X150016484Y-98407318D01*
X152332162Y-98407318D01*
X152416022Y-98610274D01*
X152571166Y-98765690D01*
X152773976Y-98849904D01*
X152993575Y-98850095D01*
X153196531Y-98766235D01*
X153351947Y-98611091D01*
X153436161Y-98408281D01*
X153436271Y-98281681D01*
X164476849Y-98281681D01*
X164610082Y-98604131D01*
X164856571Y-98851051D01*
X165178789Y-98984847D01*
X165527681Y-98985151D01*
X165850131Y-98851918D01*
X166097051Y-98605429D01*
X166230847Y-98283211D01*
X166231151Y-97934319D01*
X166097918Y-97611869D01*
X165851429Y-97364949D01*
X165748454Y-97322190D01*
X166002675Y-97216890D01*
X166055273Y-96988878D01*
X165354000Y-96287605D01*
X164652727Y-96988878D01*
X164705325Y-97216890D01*
X164982292Y-97312672D01*
X164857869Y-97364082D01*
X164610949Y-97610571D01*
X164477153Y-97932789D01*
X164476849Y-98281681D01*
X153436271Y-98281681D01*
X153436352Y-98188682D01*
X153397529Y-98094723D01*
X153518585Y-98094828D01*
X153721541Y-98010968D01*
X153876957Y-97855824D01*
X153961171Y-97653014D01*
X153961362Y-97433415D01*
X153877502Y-97230459D01*
X153722358Y-97075043D01*
X153519548Y-96990829D01*
X153299949Y-96990638D01*
X153096993Y-97074498D01*
X152941577Y-97229642D01*
X152857363Y-97432452D01*
X152857172Y-97652051D01*
X152895995Y-97746010D01*
X152774939Y-97745905D01*
X152571983Y-97829765D01*
X152416567Y-97984909D01*
X152332353Y-98187719D01*
X152332162Y-98407318D01*
X150016484Y-98407318D01*
X150012888Y-98398617D01*
X150045274Y-98385235D01*
X150200690Y-98230091D01*
X150284904Y-98027281D01*
X150285095Y-97807682D01*
X150201235Y-97604726D01*
X150046091Y-97449310D01*
X149843281Y-97365096D01*
X149623682Y-97364905D01*
X149420726Y-97448765D01*
X149265310Y-97603909D01*
X149181096Y-97806719D01*
X149180905Y-98026318D01*
X149199112Y-98070383D01*
X149166726Y-98083765D01*
X149098016Y-98152354D01*
X149030091Y-98084310D01*
X148827281Y-98000096D01*
X148607682Y-97999905D01*
X148404726Y-98083765D01*
X148249310Y-98238909D01*
X148165096Y-98441719D01*
X148164905Y-98661318D01*
X129401547Y-98661318D01*
X129642818Y-98561385D01*
X130115188Y-98123379D01*
X130383983Y-97537946D01*
X130265367Y-97282000D01*
X128905000Y-97282000D01*
X128651000Y-97282000D01*
X128631000Y-97282000D01*
X128631000Y-97028000D01*
X128651000Y-97028000D01*
X128651000Y-97008000D01*
X128905000Y-97008000D01*
X128905000Y-97028000D01*
X130265367Y-97028000D01*
X130383983Y-96772054D01*
X130318448Y-96629318D01*
X135210905Y-96629318D01*
X135294765Y-96832274D01*
X135449909Y-96987690D01*
X135652719Y-97071904D01*
X135872318Y-97072095D01*
X136075274Y-96988235D01*
X136230690Y-96833091D01*
X136314904Y-96630281D01*
X136315095Y-96410682D01*
X136231235Y-96207726D01*
X136076091Y-96052310D01*
X136011085Y-96025317D01*
X153244905Y-96025317D01*
X153328765Y-96228273D01*
X153483909Y-96383689D01*
X153686719Y-96467903D01*
X153906318Y-96468094D01*
X153979915Y-96437684D01*
X153989224Y-96460214D01*
X154144368Y-96615630D01*
X154347178Y-96699844D01*
X154566777Y-96700035D01*
X154769733Y-96616175D01*
X154873490Y-96512599D01*
X155352497Y-96512599D01*
X155436357Y-96715555D01*
X155591501Y-96870971D01*
X155794311Y-96955185D01*
X156013910Y-96955376D01*
X156216866Y-96871516D01*
X156332306Y-96756278D01*
X156480719Y-96817904D01*
X156700318Y-96818095D01*
X156849829Y-96756318D01*
X159340905Y-96756318D01*
X159424765Y-96959274D01*
X159579909Y-97114690D01*
X159782719Y-97198904D01*
X160002318Y-97199095D01*
X160205274Y-97115235D01*
X160360690Y-96960091D01*
X160444904Y-96757281D01*
X160445095Y-96537682D01*
X160361235Y-96334726D01*
X160206091Y-96179310D01*
X160003281Y-96095096D01*
X159783682Y-96094905D01*
X159580726Y-96178765D01*
X159425310Y-96333909D01*
X159341096Y-96536719D01*
X159340905Y-96756318D01*
X156849829Y-96756318D01*
X156903274Y-96734235D01*
X157058690Y-96579091D01*
X157142904Y-96376281D01*
X157143095Y-96156682D01*
X157059235Y-95953726D01*
X157038602Y-95933056D01*
X164081283Y-95933056D01*
X164111215Y-96433420D01*
X164245110Y-96756675D01*
X164473122Y-96809273D01*
X165174395Y-96108000D01*
X164473122Y-95406727D01*
X164245110Y-95459325D01*
X164081283Y-95933056D01*
X157038602Y-95933056D01*
X156904091Y-95798310D01*
X156701281Y-95714096D01*
X156481682Y-95713905D01*
X156278726Y-95797765D01*
X156163286Y-95913003D01*
X156014873Y-95851377D01*
X155795274Y-95851186D01*
X155592318Y-95935046D01*
X155436902Y-96090190D01*
X155352688Y-96293000D01*
X155352497Y-96512599D01*
X154873490Y-96512599D01*
X154925149Y-96461031D01*
X155009363Y-96258221D01*
X155009554Y-96038622D01*
X154925694Y-95835666D01*
X154770550Y-95680250D01*
X154567740Y-95596036D01*
X154348141Y-95595845D01*
X154274544Y-95626255D01*
X154265235Y-95603725D01*
X154110091Y-95448309D01*
X153907281Y-95364095D01*
X153687682Y-95363904D01*
X153484726Y-95447764D01*
X153329310Y-95602908D01*
X153245096Y-95805718D01*
X153244905Y-96025317D01*
X136011085Y-96025317D01*
X135873281Y-95968096D01*
X135653682Y-95967905D01*
X135450726Y-96051765D01*
X135295310Y-96206909D01*
X135211096Y-96409719D01*
X135210905Y-96629318D01*
X130318448Y-96629318D01*
X130115188Y-96186621D01*
X129793070Y-95887936D01*
X129794000Y-95887936D01*
X129887385Y-95870364D01*
X129973154Y-95815174D01*
X130030693Y-95730962D01*
X130050936Y-95631000D01*
X130050936Y-95486318D01*
X132162905Y-95486318D01*
X132246765Y-95689274D01*
X132401909Y-95844690D01*
X132604719Y-95928904D01*
X132824318Y-95929095D01*
X133027274Y-95845235D01*
X133182690Y-95690091D01*
X133266904Y-95487281D01*
X133267095Y-95267682D01*
X133252483Y-95232318D01*
X159594905Y-95232318D01*
X159678765Y-95435274D01*
X159833909Y-95590690D01*
X160036719Y-95674904D01*
X160256318Y-95675095D01*
X160459274Y-95591235D01*
X160614690Y-95436091D01*
X160698904Y-95233281D01*
X160698909Y-95227122D01*
X164652727Y-95227122D01*
X165354000Y-95928395D01*
X166055273Y-95227122D01*
X166002675Y-94999110D01*
X165528944Y-94835283D01*
X165028580Y-94865215D01*
X164705325Y-94999110D01*
X164652727Y-95227122D01*
X160698909Y-95227122D01*
X160699095Y-95013682D01*
X160615235Y-94810726D01*
X160460091Y-94655310D01*
X160447316Y-94650005D01*
X160628274Y-94575235D01*
X160783690Y-94420091D01*
X160867904Y-94217281D01*
X160868095Y-93997682D01*
X160784235Y-93794726D01*
X160629091Y-93639310D01*
X160426281Y-93555096D01*
X160206682Y-93554905D01*
X160003726Y-93638765D01*
X159848310Y-93793909D01*
X159764096Y-93996719D01*
X159763905Y-94216318D01*
X159847765Y-94419274D01*
X160002909Y-94574690D01*
X160015684Y-94579995D01*
X159834726Y-94654765D01*
X159679310Y-94809909D01*
X159595096Y-95012719D01*
X159594905Y-95232318D01*
X133252483Y-95232318D01*
X133183235Y-95064726D01*
X133028091Y-94909310D01*
X132825281Y-94825096D01*
X132605682Y-94824905D01*
X132402726Y-94908765D01*
X132247310Y-95063909D01*
X132163096Y-95266719D01*
X132162905Y-95486318D01*
X130050936Y-95486318D01*
X130050936Y-94089318D01*
X157943905Y-94089318D01*
X158027765Y-94292274D01*
X158182909Y-94447690D01*
X158385719Y-94531904D01*
X158605318Y-94532095D01*
X158808274Y-94448235D01*
X158963690Y-94293091D01*
X159047904Y-94090281D01*
X159048095Y-93870682D01*
X158964235Y-93667726D01*
X158809091Y-93512310D01*
X158606281Y-93428096D01*
X158386682Y-93427905D01*
X158183726Y-93511765D01*
X158028310Y-93666909D01*
X157944096Y-93869719D01*
X157943905Y-94089318D01*
X130050936Y-94089318D01*
X130050936Y-93599000D01*
X130033364Y-93505615D01*
X129978174Y-93419846D01*
X129893962Y-93362307D01*
X129794000Y-93342064D01*
X127762000Y-93342064D01*
X127668615Y-93359636D01*
X127582846Y-93414826D01*
X127525307Y-93499038D01*
X127505064Y-93599000D01*
X127505064Y-95631000D01*
X127522636Y-95724385D01*
X127577826Y-95810154D01*
X127662038Y-95867693D01*
X127762000Y-95887936D01*
X127762930Y-95887936D01*
X127440812Y-96186621D01*
X127327000Y-96434502D01*
X127327000Y-93327318D01*
X160864905Y-93327318D01*
X160948765Y-93530274D01*
X161103909Y-93685690D01*
X161306719Y-93769904D01*
X161526318Y-93770095D01*
X161729274Y-93686235D01*
X161884690Y-93531091D01*
X161945631Y-93384329D01*
X161992909Y-93431690D01*
X162195719Y-93515904D01*
X162415318Y-93516095D01*
X162618274Y-93432235D01*
X162773690Y-93277091D01*
X162857904Y-93074281D01*
X162858095Y-92854682D01*
X162774235Y-92651726D01*
X162619091Y-92496310D01*
X162416281Y-92412096D01*
X162196682Y-92411905D01*
X161993726Y-92495765D01*
X161838310Y-92650909D01*
X161777369Y-92797671D01*
X161730091Y-92750310D01*
X161527281Y-92666096D01*
X161307682Y-92665905D01*
X161104726Y-92749765D01*
X160949310Y-92904909D01*
X160865096Y-93107719D01*
X160864905Y-93327318D01*
X127327000Y-93327318D01*
X127327000Y-92184318D01*
X149815905Y-92184318D01*
X149899765Y-92387274D01*
X150054909Y-92542690D01*
X150257719Y-92626904D01*
X150477318Y-92627095D01*
X150680274Y-92543235D01*
X150835690Y-92388091D01*
X150919904Y-92185281D01*
X150920095Y-91965682D01*
X150836235Y-91762726D01*
X150681091Y-91607310D01*
X150478281Y-91523096D01*
X150258682Y-91522905D01*
X150055726Y-91606765D01*
X149900310Y-91761909D01*
X149816096Y-91964719D01*
X149815905Y-92184318D01*
X127327000Y-92184318D01*
X127327000Y-89136318D01*
X154514905Y-89136318D01*
X154598765Y-89339274D01*
X154753909Y-89494690D01*
X154940363Y-89572112D01*
X154896096Y-89678719D01*
X154895905Y-89898318D01*
X154979765Y-90101274D01*
X155134909Y-90256690D01*
X155337719Y-90340904D01*
X155557318Y-90341095D01*
X155706829Y-90279318D01*
X156927905Y-90279318D01*
X157011765Y-90482274D01*
X157166909Y-90637690D01*
X157369719Y-90721904D01*
X157589318Y-90722095D01*
X157792274Y-90638235D01*
X157947690Y-90483091D01*
X158031904Y-90280281D01*
X158032095Y-90060682D01*
X157948235Y-89857726D01*
X157793091Y-89702310D01*
X157590281Y-89618096D01*
X157370682Y-89617905D01*
X157167726Y-89701765D01*
X157012310Y-89856909D01*
X156928096Y-90059719D01*
X156927905Y-90279318D01*
X155706829Y-90279318D01*
X155760274Y-90257235D01*
X155915690Y-90102091D01*
X155999904Y-89899281D01*
X156000095Y-89679682D01*
X155916235Y-89476726D01*
X155761091Y-89321310D01*
X155574637Y-89243888D01*
X155618904Y-89137281D01*
X155619095Y-88917682D01*
X155535235Y-88714726D01*
X155380091Y-88559310D01*
X155177281Y-88475096D01*
X154957682Y-88474905D01*
X154754726Y-88558765D01*
X154599310Y-88713909D01*
X154515096Y-88916719D01*
X154514905Y-89136318D01*
X127327000Y-89136318D01*
X127327000Y-88338000D01*
X162615832Y-88338000D01*
X162579308Y-88374524D01*
X162579308Y-88374524D01*
G37*
X162579308Y-88374524D02*
X162579307Y-88374526D01*
X162579306Y-88374527D01*
X162551776Y-88415729D01*
X162551775Y-88415730D01*
X162535423Y-88455208D01*
X162502950Y-88533605D01*
X162502950Y-88533607D01*
X162493283Y-88582208D01*
X162493283Y-88614413D01*
X162487000Y-88646000D01*
X162487000Y-91694000D01*
X162493283Y-91725587D01*
X162493283Y-91757792D01*
X162502950Y-91806393D01*
X162502950Y-91806395D01*
X162531367Y-91875000D01*
X162551775Y-91924270D01*
X162551776Y-91924271D01*
X162579306Y-91965473D01*
X162579307Y-91965474D01*
X162579308Y-91965476D01*
X162669524Y-92055692D01*
X162669526Y-92055693D01*
X162669527Y-92055694D01*
X162710729Y-92083224D01*
X162710730Y-92083225D01*
X162759556Y-92103449D01*
X162828605Y-92132050D01*
X162828607Y-92132050D01*
X162877200Y-92141715D01*
X162877204Y-92141717D01*
X163004796Y-92141717D01*
X163004800Y-92141715D01*
X163053393Y-92132050D01*
X163053395Y-92132050D01*
X163122444Y-92103449D01*
X163171270Y-92083225D01*
X163171271Y-92083224D01*
X163212473Y-92055694D01*
X163212474Y-92055693D01*
X163212476Y-92055692D01*
X163302692Y-91965476D01*
X163302693Y-91965474D01*
X163302694Y-91965473D01*
X163330224Y-91924271D01*
X163330225Y-91924270D01*
X163350633Y-91875000D01*
X163379050Y-91806395D01*
X163379050Y-91806393D01*
X163388717Y-91757792D01*
X163388717Y-91725587D01*
X163395000Y-91694000D01*
X163395000Y-89644318D01*
X163531905Y-89644318D01*
X163615765Y-89847274D01*
X163770909Y-90002690D01*
X163973719Y-90086904D01*
X164193318Y-90087095D01*
X164396274Y-90003235D01*
X164551690Y-89848091D01*
X164635904Y-89645281D01*
X164636095Y-89425682D01*
X164552235Y-89222726D01*
X164397091Y-89067310D01*
X164194281Y-88983096D01*
X163974682Y-88982905D01*
X163771726Y-89066765D01*
X163616310Y-89221909D01*
X163532096Y-89424719D01*
X163531905Y-89644318D01*
X163395000Y-89644318D01*
X163395000Y-88646000D01*
X163388717Y-88614413D01*
X163388717Y-88582208D01*
X163379050Y-88533607D01*
X163379050Y-88533605D01*
X163346577Y-88455208D01*
X163330225Y-88415730D01*
X163330224Y-88415729D01*
X163302694Y-88374527D01*
X163302693Y-88374526D01*
X163302692Y-88374524D01*
X163266168Y-88338000D01*
X168202000Y-88338000D01*
X168202000Y-88808433D01*
X168080091Y-88686310D01*
X167877281Y-88602096D01*
X167657682Y-88601905D01*
X167454726Y-88685765D01*
X167299310Y-88840909D01*
X167215096Y-89043719D01*
X167214905Y-89263318D01*
X167298765Y-89466274D01*
X167453909Y-89621690D01*
X167656719Y-89705904D01*
X167876318Y-89706095D01*
X168079274Y-89622235D01*
X168202000Y-89499724D01*
X168202000Y-92003832D01*
X168165476Y-91967308D01*
X168165474Y-91967307D01*
X168165473Y-91967306D01*
X168124271Y-91939776D01*
X168124270Y-91939775D01*
X168072858Y-91918480D01*
X168006395Y-91890950D01*
X168006393Y-91890950D01*
X167957792Y-91881283D01*
X167925587Y-91881283D01*
X167894000Y-91875000D01*
X163576000Y-91875000D01*
X163544413Y-91881283D01*
X163512208Y-91881283D01*
X163463607Y-91890950D01*
X163463605Y-91890950D01*
X163397142Y-91918480D01*
X163345730Y-91939775D01*
X163345729Y-91939776D01*
X163304527Y-91967306D01*
X163304526Y-91967307D01*
X163304524Y-91967308D01*
X163214308Y-92057524D01*
X163214307Y-92057526D01*
X163214306Y-92057527D01*
X163186776Y-92098729D01*
X163186775Y-92098730D01*
X163175639Y-92125616D01*
X163137950Y-92216605D01*
X163137950Y-92216607D01*
X163128285Y-92265200D01*
X163128283Y-92265204D01*
X163128283Y-92392796D01*
X163128285Y-92392800D01*
X163137950Y-92441393D01*
X163137950Y-92441395D01*
X163155414Y-92483556D01*
X163186775Y-92559270D01*
X163186776Y-92559271D01*
X163214306Y-92600473D01*
X163214307Y-92600474D01*
X163214308Y-92600476D01*
X163304524Y-92690692D01*
X163304526Y-92690693D01*
X163304527Y-92690694D01*
X163345729Y-92718224D01*
X163345730Y-92718225D01*
X163369062Y-92727889D01*
X163463605Y-92767050D01*
X163463607Y-92767050D01*
X163512208Y-92776717D01*
X163544413Y-92776717D01*
X163576000Y-92783000D01*
X167894000Y-92783000D01*
X167925587Y-92776717D01*
X167957792Y-92776717D01*
X168006393Y-92767050D01*
X168006395Y-92767050D01*
X168100938Y-92727889D01*
X168124270Y-92718225D01*
X168124271Y-92718224D01*
X168165473Y-92690694D01*
X168165474Y-92690693D01*
X168165476Y-92690692D01*
X168202000Y-92654168D01*
X168202000Y-95863768D01*
X168097918Y-95611869D01*
X167851429Y-95364949D01*
X167529211Y-95231153D01*
X167180319Y-95230849D01*
X166857869Y-95364082D01*
X166610949Y-95610571D01*
X166568190Y-95713546D01*
X166462890Y-95459325D01*
X166234878Y-95406727D01*
X165533605Y-96108000D01*
X166234878Y-96809273D01*
X166462890Y-96756675D01*
X166558672Y-96479708D01*
X166610082Y-96604131D01*
X166856571Y-96851051D01*
X167178789Y-96984847D01*
X167527681Y-96985151D01*
X167850131Y-96851918D01*
X168097051Y-96605429D01*
X168202000Y-96352683D01*
X168202000Y-97863768D01*
X168097918Y-97611869D01*
X167851429Y-97364949D01*
X167529211Y-97231153D01*
X167180319Y-97230849D01*
X166857869Y-97364082D01*
X166610949Y-97610571D01*
X166477153Y-97932789D01*
X166476849Y-98281681D01*
X166610082Y-98604131D01*
X166856571Y-98851051D01*
X167178789Y-98984847D01*
X167527681Y-98985151D01*
X167850131Y-98851918D01*
X168097051Y-98605429D01*
X168202000Y-98352683D01*
X168202000Y-99863768D01*
X168097918Y-99611869D01*
X167851429Y-99364949D01*
X167529211Y-99231153D01*
X167180319Y-99230849D01*
X166857869Y-99364082D01*
X166610949Y-99610571D01*
X166477153Y-99932789D01*
X166476849Y-100281681D01*
X166610082Y-100604131D01*
X166856571Y-100851051D01*
X167178789Y-100984847D01*
X167527681Y-100985151D01*
X167850131Y-100851918D01*
X168097051Y-100605429D01*
X168202000Y-100352683D01*
X168202000Y-101863768D01*
X168097918Y-101611869D01*
X167851429Y-101364949D01*
X167529211Y-101231153D01*
X167180319Y-101230849D01*
X166857869Y-101364082D01*
X166610949Y-101610571D01*
X166477153Y-101932789D01*
X166476849Y-102281681D01*
X166610082Y-102604131D01*
X166856571Y-102851051D01*
X167178789Y-102984847D01*
X167527681Y-102985151D01*
X167850131Y-102851918D01*
X168097051Y-102605429D01*
X168202000Y-102352683D01*
X168202000Y-103863768D01*
X168097918Y-103611869D01*
X167851429Y-103364949D01*
X167529211Y-103231153D01*
X167180319Y-103230849D01*
X166857869Y-103364082D01*
X166610949Y-103610571D01*
X166477153Y-103932789D01*
X166476849Y-104281681D01*
X166610082Y-104604131D01*
X166856571Y-104851051D01*
X167178789Y-104984847D01*
X167527681Y-104985151D01*
X167850131Y-104851918D01*
X168097051Y-104605429D01*
X168202000Y-104352683D01*
X168202000Y-105863768D01*
X168097918Y-105611869D01*
X167851429Y-105364949D01*
X167529211Y-105231153D01*
X167180319Y-105230849D01*
X166857869Y-105364082D01*
X166610949Y-105610571D01*
X166477153Y-105932789D01*
X166476849Y-106281681D01*
X166610082Y-106604131D01*
X166856571Y-106851051D01*
X167178789Y-106984847D01*
X167527681Y-106985151D01*
X167850131Y-106851918D01*
X168097051Y-106605429D01*
X168202000Y-106352683D01*
X168202000Y-107863768D01*
X168097918Y-107611869D01*
X167851429Y-107364949D01*
X167529211Y-107231153D01*
X167180319Y-107230849D01*
X166857869Y-107364082D01*
X166610949Y-107610571D01*
X166477153Y-107932789D01*
X166476849Y-108281681D01*
X166610082Y-108604131D01*
X166856571Y-108851051D01*
X167178789Y-108984847D01*
X167527681Y-108985151D01*
X167850131Y-108851918D01*
X168097051Y-108605429D01*
X168202000Y-108352683D01*
X168202000Y-109863768D01*
X168097918Y-109611869D01*
X167851429Y-109364949D01*
X167529211Y-109231153D01*
X167180319Y-109230849D01*
X166857869Y-109364082D01*
X166610949Y-109610571D01*
X166477153Y-109932789D01*
X166476849Y-110281681D01*
X166610082Y-110604131D01*
X166856571Y-110851051D01*
X167034661Y-110925000D01*
X165673258Y-110925000D01*
X165850131Y-110851918D01*
X166097051Y-110605429D01*
X166230847Y-110283211D01*
X166231151Y-109934319D01*
X166097918Y-109611869D01*
X165851429Y-109364949D01*
X165529211Y-109231153D01*
X165180319Y-109230849D01*
X164857869Y-109364082D01*
X164610949Y-109610571D01*
X164477153Y-109932789D01*
X164476849Y-110281681D01*
X164610082Y-110604131D01*
X164856571Y-110851051D01*
X165034661Y-110925000D01*
X144617567Y-110925000D01*
X144739690Y-110803091D01*
X144823904Y-110600281D01*
X144824095Y-110380682D01*
X144740235Y-110177726D01*
X144585091Y-110022310D01*
X144382281Y-109938096D01*
X144162682Y-109937905D01*
X143959726Y-110021765D01*
X143804310Y-110176909D01*
X143720096Y-110379719D01*
X143719905Y-110599318D01*
X143803765Y-110802274D01*
X143926276Y-110925000D01*
X127327000Y-110925000D01*
X127327000Y-109826284D01*
X127575862Y-110036102D01*
X128000540Y-110171100D01*
X128275540Y-110171100D01*
X128275540Y-109163100D01*
X128529540Y-109163100D01*
X128529540Y-110171100D01*
X128804540Y-110171100D01*
X129229218Y-110036102D01*
X129314359Y-109964318D01*
X132543905Y-109964318D01*
X132627765Y-110167274D01*
X132782909Y-110322690D01*
X132985719Y-110406904D01*
X133205318Y-110407095D01*
X133408274Y-110323235D01*
X133563690Y-110168091D01*
X133647904Y-109965281D01*
X133648095Y-109745682D01*
X133564235Y-109542726D01*
X133409091Y-109387310D01*
X133206281Y-109303096D01*
X132986682Y-109302905D01*
X132783726Y-109386765D01*
X132628310Y-109541909D01*
X132544096Y-109744719D01*
X132543905Y-109964318D01*
X129314359Y-109964318D01*
X129569908Y-109748863D01*
X129771659Y-109337974D01*
X129645494Y-109163100D01*
X128529540Y-109163100D01*
X128275540Y-109163100D01*
X128255540Y-109163100D01*
X128255540Y-108909100D01*
X128275540Y-108909100D01*
X128275540Y-107901100D01*
X128529540Y-107901100D01*
X128529540Y-108909100D01*
X129645494Y-108909100D01*
X129771659Y-108734226D01*
X129576731Y-108337231D01*
X130001311Y-108337231D01*
X130142972Y-108747149D01*
X130430719Y-109071652D01*
X130804602Y-109255368D01*
X130975540Y-109128834D01*
X130975540Y-108163100D01*
X131229540Y-108163100D01*
X131229540Y-109128834D01*
X131400478Y-109255368D01*
X131774361Y-109071652D01*
X132062108Y-108747149D01*
X132080365Y-108694318D01*
X134194905Y-108694318D01*
X134278765Y-108897274D01*
X134347354Y-108965984D01*
X134279310Y-109033909D01*
X134195096Y-109236719D01*
X134194905Y-109456318D01*
X134278765Y-109659274D01*
X134433909Y-109814690D01*
X134636719Y-109898904D01*
X134856318Y-109899095D01*
X135059274Y-109815235D01*
X135214690Y-109660091D01*
X135298904Y-109457281D01*
X135299095Y-109237682D01*
X135232290Y-109076000D01*
X156063064Y-109076000D01*
X156063064Y-110126000D01*
X156080636Y-110219385D01*
X156135826Y-110305154D01*
X156220038Y-110362693D01*
X156320000Y-110382936D01*
X157370000Y-110382936D01*
X157463385Y-110365364D01*
X157549154Y-110310174D01*
X157606693Y-110225962D01*
X157626936Y-110126000D01*
X157626936Y-109909459D01*
X157935395Y-109601000D01*
X157921253Y-109586858D01*
X158100858Y-109407252D01*
X158115000Y-109421395D01*
X158129143Y-109407253D01*
X158214898Y-109493008D01*
X158228730Y-109695160D01*
X158129143Y-109794748D01*
X158115000Y-109780605D01*
X157486333Y-110409273D01*
X157526575Y-110626962D01*
X157963985Y-110774046D01*
X158424386Y-110742543D01*
X158703425Y-110626962D01*
X158740794Y-110424814D01*
X158750000Y-110415608D01*
X158759206Y-110424814D01*
X158796575Y-110626962D01*
X159233985Y-110774046D01*
X159694386Y-110742543D01*
X159973425Y-110626962D01*
X160013667Y-110409273D01*
X161296333Y-110409273D01*
X161336575Y-110626962D01*
X161773985Y-110774046D01*
X162234386Y-110742543D01*
X162513425Y-110626962D01*
X162553667Y-110409273D01*
X161925000Y-109780605D01*
X161296333Y-110409273D01*
X160013667Y-110409273D01*
X159385000Y-109780605D01*
X159370858Y-109794748D01*
X159285102Y-109708992D01*
X159271270Y-109506840D01*
X159370858Y-109407253D01*
X159385000Y-109421395D01*
X159399143Y-109407253D01*
X159578748Y-109586858D01*
X159564605Y-109601000D01*
X159990093Y-110026488D01*
X159995908Y-110040560D01*
X160214290Y-110259324D01*
X160499767Y-110377865D01*
X160808877Y-110378134D01*
X161094560Y-110260092D01*
X161313324Y-110041710D01*
X161319459Y-110026935D01*
X161745395Y-109601000D01*
X162104605Y-109601000D01*
X162733273Y-110229667D01*
X162950962Y-110189425D01*
X163098046Y-109752015D01*
X163066543Y-109291614D01*
X162950962Y-109012575D01*
X162733273Y-108972333D01*
X162104605Y-109601000D01*
X161745395Y-109601000D01*
X161731253Y-109586858D01*
X161910858Y-109407252D01*
X161925000Y-109421395D01*
X162350488Y-108995907D01*
X162364560Y-108990092D01*
X162583324Y-108771710D01*
X162701865Y-108486233D01*
X162702043Y-108281681D01*
X164476849Y-108281681D01*
X164610082Y-108604131D01*
X164856571Y-108851051D01*
X165178789Y-108984847D01*
X165527681Y-108985151D01*
X165850131Y-108851918D01*
X166097051Y-108605429D01*
X166230847Y-108283211D01*
X166231151Y-107934319D01*
X166097918Y-107611869D01*
X165851429Y-107364949D01*
X165529211Y-107231153D01*
X165180319Y-107230849D01*
X164857869Y-107364082D01*
X164610949Y-107610571D01*
X164477153Y-107932789D01*
X164476849Y-108281681D01*
X162702043Y-108281681D01*
X162702134Y-108177123D01*
X162584092Y-107891440D01*
X162365710Y-107672676D01*
X162080233Y-107554135D01*
X161771123Y-107553866D01*
X161485440Y-107671908D01*
X161289850Y-107867156D01*
X161095710Y-107672676D01*
X160810233Y-107554135D01*
X160501123Y-107553866D01*
X160215440Y-107671908D01*
X160019850Y-107867156D01*
X159825710Y-107672676D01*
X159540233Y-107554135D01*
X159231123Y-107553866D01*
X158945440Y-107671908D01*
X158749850Y-107867156D01*
X158555710Y-107672676D01*
X158270233Y-107554135D01*
X157961123Y-107553866D01*
X157675440Y-107671908D01*
X157479850Y-107867156D01*
X157285710Y-107672676D01*
X157000233Y-107554135D01*
X156691123Y-107553866D01*
X156405440Y-107671908D01*
X156186676Y-107890290D01*
X156068135Y-108175767D01*
X156067866Y-108484877D01*
X156185908Y-108770560D01*
X156247875Y-108832636D01*
X156226615Y-108836636D01*
X156140846Y-108891826D01*
X156083307Y-108976038D01*
X156063064Y-109076000D01*
X135232290Y-109076000D01*
X135215235Y-109034726D01*
X135146646Y-108966016D01*
X135214690Y-108898091D01*
X135298904Y-108695281D01*
X135299095Y-108475682D01*
X135215235Y-108272726D01*
X135060091Y-108117310D01*
X134857281Y-108033096D01*
X134637682Y-108032905D01*
X134434726Y-108116765D01*
X134279310Y-108271909D01*
X134195096Y-108474719D01*
X134194905Y-108694318D01*
X132080365Y-108694318D01*
X132203769Y-108337231D01*
X132055103Y-108163100D01*
X131229540Y-108163100D01*
X130975540Y-108163100D01*
X130149977Y-108163100D01*
X130001311Y-108337231D01*
X129576731Y-108337231D01*
X129569908Y-108323337D01*
X129229218Y-108036098D01*
X128804540Y-107901100D01*
X128529540Y-107901100D01*
X128275540Y-107901100D01*
X128000540Y-107901100D01*
X127575862Y-108036098D01*
X127327000Y-108245916D01*
X127327000Y-107734969D01*
X130001311Y-107734969D01*
X130149977Y-107909100D01*
X130975540Y-107909100D01*
X130975540Y-106943366D01*
X131229540Y-106943366D01*
X131229540Y-107909100D01*
X132055103Y-107909100D01*
X132203769Y-107734969D01*
X132062108Y-107325051D01*
X131774361Y-107000548D01*
X131400478Y-106816832D01*
X131229540Y-106943366D01*
X130975540Y-106943366D01*
X130804602Y-106816832D01*
X130430719Y-107000548D01*
X130142972Y-107325051D01*
X130001311Y-107734969D01*
X127327000Y-107734969D01*
X127327000Y-106675328D01*
X136988905Y-106675328D01*
X137072765Y-106878284D01*
X137227909Y-107033700D01*
X137430719Y-107117914D01*
X137650318Y-107118105D01*
X137853274Y-107034245D01*
X138008690Y-106879101D01*
X138092904Y-106676291D01*
X138093095Y-106456692D01*
X138020782Y-106281681D01*
X164476849Y-106281681D01*
X164610082Y-106604131D01*
X164856571Y-106851051D01*
X165178789Y-106984847D01*
X165527681Y-106985151D01*
X165850131Y-106851918D01*
X166097051Y-106605429D01*
X166230847Y-106283211D01*
X166231151Y-105934319D01*
X166097918Y-105611869D01*
X165851429Y-105364949D01*
X165529211Y-105231153D01*
X165180319Y-105230849D01*
X164857869Y-105364082D01*
X164610949Y-105610571D01*
X164477153Y-105932789D01*
X164476849Y-106281681D01*
X138020782Y-106281681D01*
X138009235Y-106253736D01*
X137854091Y-106098320D01*
X137651281Y-106014106D01*
X137431682Y-106013915D01*
X137228726Y-106097775D01*
X137073310Y-106252919D01*
X136989096Y-106455729D01*
X136988905Y-106675328D01*
X127327000Y-106675328D01*
X127327000Y-105773318D01*
X151974905Y-105773318D01*
X152058765Y-105976274D01*
X152213909Y-106131690D01*
X152416719Y-106215904D01*
X152636318Y-106216095D01*
X152839274Y-106132235D01*
X152994690Y-105977091D01*
X153078904Y-105774281D01*
X153079095Y-105554682D01*
X152995235Y-105351726D01*
X152840091Y-105196310D01*
X152637281Y-105112096D01*
X152417682Y-105111905D01*
X152214726Y-105195765D01*
X152059310Y-105350909D01*
X151975096Y-105553719D01*
X151974905Y-105773318D01*
X127327000Y-105773318D01*
X127327000Y-105265318D01*
X146259905Y-105265318D01*
X146343765Y-105468274D01*
X146498909Y-105623690D01*
X146701719Y-105707904D01*
X146921318Y-105708095D01*
X147124274Y-105624235D01*
X147279690Y-105469091D01*
X147363904Y-105266281D01*
X147363904Y-105265318D01*
X147656905Y-105265318D01*
X147740765Y-105468274D01*
X147895909Y-105623690D01*
X148098719Y-105707904D01*
X148318318Y-105708095D01*
X148521274Y-105624235D01*
X148676690Y-105469091D01*
X148760904Y-105266281D01*
X148761095Y-105046682D01*
X148677235Y-104843726D01*
X148522091Y-104688310D01*
X148319281Y-104604096D01*
X148099682Y-104603905D01*
X147896726Y-104687765D01*
X147741310Y-104842909D01*
X147657096Y-105045719D01*
X147656905Y-105265318D01*
X147363904Y-105265318D01*
X147364095Y-105046682D01*
X147280235Y-104843726D01*
X147125091Y-104688310D01*
X146922281Y-104604096D01*
X146702682Y-104603905D01*
X146499726Y-104687765D01*
X146344310Y-104842909D01*
X146260096Y-105045719D01*
X146259905Y-105265318D01*
X127327000Y-105265318D01*
X127327000Y-104281681D01*
X164476849Y-104281681D01*
X164610082Y-104604131D01*
X164856571Y-104851051D01*
X165178789Y-104984847D01*
X165527681Y-104985151D01*
X165850131Y-104851918D01*
X166097051Y-104605429D01*
X166230847Y-104283211D01*
X166231151Y-103934319D01*
X166097918Y-103611869D01*
X165851429Y-103364949D01*
X165529211Y-103231153D01*
X165180319Y-103230849D01*
X164857869Y-103364082D01*
X164610949Y-103610571D01*
X164477153Y-103932789D01*
X164476849Y-104281681D01*
X127327000Y-104281681D01*
X127327000Y-103337231D01*
X130001311Y-103337231D01*
X130142972Y-103747149D01*
X130430719Y-104071652D01*
X130804602Y-104255368D01*
X130975540Y-104128834D01*
X130975540Y-103163100D01*
X131229540Y-103163100D01*
X131229540Y-104128834D01*
X131400478Y-104255368D01*
X131774361Y-104071652D01*
X132062108Y-103747149D01*
X132203769Y-103337231D01*
X132055103Y-103163100D01*
X131229540Y-103163100D01*
X130975540Y-103163100D01*
X130149977Y-103163100D01*
X130001311Y-103337231D01*
X127327000Y-103337231D01*
X127327000Y-102826284D01*
X127575862Y-103036102D01*
X128000540Y-103171100D01*
X128275540Y-103171100D01*
X128275540Y-102163100D01*
X128529540Y-102163100D01*
X128529540Y-103171100D01*
X128804540Y-103171100D01*
X129229218Y-103036102D01*
X129569908Y-102748863D01*
X129576730Y-102734969D01*
X130001311Y-102734969D01*
X130149977Y-102909100D01*
X130975540Y-102909100D01*
X130975540Y-101943366D01*
X131229540Y-101943366D01*
X131229540Y-102909100D01*
X132055103Y-102909100D01*
X132203769Y-102734969D01*
X132068767Y-102344318D01*
X132543905Y-102344318D01*
X132627765Y-102547274D01*
X132782909Y-102702690D01*
X132985719Y-102786904D01*
X133205318Y-102787095D01*
X133354829Y-102725318D01*
X140163905Y-102725318D01*
X140247765Y-102928274D01*
X140402909Y-103083690D01*
X140605719Y-103167904D01*
X140825318Y-103168095D01*
X141028274Y-103084235D01*
X141033484Y-103079034D01*
X141164909Y-103210690D01*
X141367719Y-103294904D01*
X141587318Y-103295095D01*
X141790274Y-103211235D01*
X141945690Y-103056091D01*
X142029904Y-102853281D01*
X142029904Y-102852318D01*
X144227905Y-102852318D01*
X144311765Y-103055274D01*
X144466909Y-103210690D01*
X144669719Y-103294904D01*
X144889318Y-103295095D01*
X145092274Y-103211235D01*
X145197374Y-103106318D01*
X156927905Y-103106318D01*
X157011765Y-103309274D01*
X157166909Y-103464690D01*
X157369719Y-103548904D01*
X157589318Y-103549095D01*
X157738829Y-103487318D01*
X160356905Y-103487318D01*
X160440765Y-103690274D01*
X160595909Y-103845690D01*
X160798719Y-103929904D01*
X161018318Y-103930095D01*
X161221274Y-103846235D01*
X161376690Y-103691091D01*
X161460904Y-103488281D01*
X161461095Y-103268682D01*
X161377235Y-103065726D01*
X161222091Y-102910310D01*
X161019281Y-102826096D01*
X160799682Y-102825905D01*
X160596726Y-102909765D01*
X160441310Y-103064909D01*
X160357096Y-103267719D01*
X160356905Y-103487318D01*
X157738829Y-103487318D01*
X157792274Y-103465235D01*
X157947690Y-103310091D01*
X158031904Y-103107281D01*
X158032095Y-102887682D01*
X157948235Y-102684726D01*
X157793091Y-102529310D01*
X157590281Y-102445096D01*
X157370682Y-102444905D01*
X157167726Y-102528765D01*
X157012310Y-102683909D01*
X156928096Y-102886719D01*
X156927905Y-103106318D01*
X145197374Y-103106318D01*
X145247690Y-103056091D01*
X145331904Y-102853281D01*
X145332095Y-102633682D01*
X145248235Y-102430726D01*
X145093091Y-102275310D01*
X144890281Y-102191096D01*
X144670682Y-102190905D01*
X144467726Y-102274765D01*
X144312310Y-102429909D01*
X144228096Y-102632719D01*
X144227905Y-102852318D01*
X142029904Y-102852318D01*
X142030095Y-102633682D01*
X141946235Y-102430726D01*
X141791091Y-102275310D01*
X141588281Y-102191096D01*
X141368682Y-102190905D01*
X141165726Y-102274765D01*
X141160516Y-102279966D01*
X141029091Y-102148310D01*
X140889431Y-102090318D01*
X159340905Y-102090318D01*
X159424765Y-102293274D01*
X159579909Y-102448690D01*
X159782719Y-102532904D01*
X160002318Y-102533095D01*
X160205274Y-102449235D01*
X160360690Y-102294091D01*
X160365843Y-102281681D01*
X164476849Y-102281681D01*
X164610082Y-102604131D01*
X164856571Y-102851051D01*
X165178789Y-102984847D01*
X165527681Y-102985151D01*
X165850131Y-102851918D01*
X166097051Y-102605429D01*
X166230847Y-102283211D01*
X166231151Y-101934319D01*
X166097918Y-101611869D01*
X165851429Y-101364949D01*
X165529211Y-101231153D01*
X165180319Y-101230849D01*
X164857869Y-101364082D01*
X164610949Y-101610571D01*
X164477153Y-101932789D01*
X164476849Y-102281681D01*
X160365843Y-102281681D01*
X160444904Y-102091281D01*
X160445095Y-101871682D01*
X160361235Y-101668726D01*
X160206091Y-101513310D01*
X160003281Y-101429096D01*
X159783682Y-101428905D01*
X159580726Y-101512765D01*
X159425310Y-101667909D01*
X159341096Y-101870719D01*
X159340905Y-102090318D01*
X140889431Y-102090318D01*
X140826281Y-102064096D01*
X140606682Y-102063905D01*
X140403726Y-102147765D01*
X140248310Y-102302909D01*
X140164096Y-102505719D01*
X140163905Y-102725318D01*
X133354829Y-102725318D01*
X133408274Y-102703235D01*
X133563690Y-102548091D01*
X133647904Y-102345281D01*
X133648095Y-102125682D01*
X133564235Y-101922726D01*
X133409091Y-101767310D01*
X133206281Y-101683096D01*
X132986682Y-101682905D01*
X132783726Y-101766765D01*
X132628310Y-101921909D01*
X132544096Y-102124719D01*
X132543905Y-102344318D01*
X132068767Y-102344318D01*
X132062108Y-102325051D01*
X131774361Y-102000548D01*
X131400478Y-101816832D01*
X131229540Y-101943366D01*
X130975540Y-101943366D01*
X130804602Y-101816832D01*
X130430719Y-102000548D01*
X130142972Y-102325051D01*
X130001311Y-102734969D01*
X129576730Y-102734969D01*
X129771659Y-102337974D01*
X129645494Y-102163100D01*
X128529540Y-102163100D01*
X128275540Y-102163100D01*
X128255540Y-102163100D01*
X128255540Y-101909100D01*
X128275540Y-101909100D01*
X128275540Y-100901100D01*
X128529540Y-100901100D01*
X128529540Y-101909100D01*
X129645494Y-101909100D01*
X129771659Y-101734226D01*
X129697071Y-101582318D01*
X138639905Y-101582318D01*
X138723765Y-101785274D01*
X138878909Y-101940690D01*
X139081719Y-102024904D01*
X139301318Y-102025095D01*
X139504274Y-101941235D01*
X139659690Y-101786091D01*
X139743904Y-101583281D01*
X139744095Y-101363682D01*
X139684036Y-101218328D01*
X153117905Y-101218328D01*
X153201765Y-101421284D01*
X153356909Y-101576700D01*
X153559719Y-101660914D01*
X153779318Y-101661105D01*
X153982274Y-101577245D01*
X154137690Y-101422101D01*
X154221904Y-101219291D01*
X154222095Y-100999692D01*
X154138235Y-100796736D01*
X153983091Y-100641320D01*
X153780281Y-100557106D01*
X153560682Y-100556915D01*
X153357726Y-100640775D01*
X153202310Y-100795919D01*
X153118096Y-100998729D01*
X153117905Y-101218328D01*
X139684036Y-101218328D01*
X139660235Y-101160726D01*
X139505091Y-101005310D01*
X139302281Y-100921096D01*
X139082682Y-100920905D01*
X138879726Y-101004765D01*
X138724310Y-101159909D01*
X138640096Y-101362719D01*
X138639905Y-101582318D01*
X129697071Y-101582318D01*
X129569908Y-101323337D01*
X129229218Y-101036098D01*
X128804540Y-100901100D01*
X128529540Y-100901100D01*
X128275540Y-100901100D01*
X128000540Y-100901100D01*
X127575862Y-101036098D01*
X127327000Y-101245916D01*
X127327000Y-100693318D01*
X151847905Y-100693318D01*
X151931765Y-100896274D01*
X152086909Y-101051690D01*
X152289719Y-101135904D01*
X152509318Y-101136095D01*
X152712274Y-101052235D01*
X152867690Y-100897091D01*
X152951904Y-100694281D01*
X152952095Y-100474682D01*
X152868235Y-100271726D01*
X152713091Y-100116310D01*
X152573431Y-100058318D01*
X153498905Y-100058318D01*
X153582765Y-100261274D01*
X153737909Y-100416690D01*
X153940719Y-100500904D01*
X154160318Y-100501095D01*
X154363274Y-100417235D01*
X154499065Y-100281681D01*
X164476849Y-100281681D01*
X164610082Y-100604131D01*
X164856571Y-100851051D01*
X165178789Y-100984847D01*
X165527681Y-100985151D01*
X165850131Y-100851918D01*
X166097051Y-100605429D01*
X166230847Y-100283211D01*
X166231151Y-99934319D01*
X166097918Y-99611869D01*
X165851429Y-99364949D01*
X165529211Y-99231153D01*
X165180319Y-99230849D01*
X164857869Y-99364082D01*
X164610949Y-99610571D01*
X164477153Y-99932789D01*
X164476849Y-100281681D01*
X154499065Y-100281681D01*
X154518690Y-100262091D01*
X154602904Y-100059281D01*
X154603095Y-99839682D01*
X154519235Y-99636726D01*
X154364091Y-99481310D01*
X154161281Y-99397096D01*
X153941682Y-99396905D01*
X153738726Y-99480765D01*
X153583310Y-99635909D01*
X153499096Y-99838719D01*
X153498905Y-100058318D01*
X152573431Y-100058318D01*
X152510281Y-100032096D01*
X152290682Y-100031905D01*
X152087726Y-100115765D01*
X151932310Y-100270909D01*
X151848096Y-100473719D01*
X151847905Y-100693318D01*
X127327000Y-100693318D01*
X127327000Y-99931318D01*
X141687905Y-99931318D01*
X141771765Y-100134274D01*
X141926909Y-100289690D01*
X142129719Y-100373904D01*
X142349318Y-100374095D01*
X142552274Y-100290235D01*
X142707690Y-100135091D01*
X142791904Y-99932281D01*
X142792095Y-99712682D01*
X142708235Y-99509726D01*
X142553091Y-99354310D01*
X142350281Y-99270096D01*
X142130682Y-99269905D01*
X141927726Y-99353765D01*
X141772310Y-99508909D01*
X141688096Y-99711719D01*
X141687905Y-99931318D01*
X127327000Y-99931318D01*
X127327000Y-97875498D01*
X127440812Y-98123379D01*
X127913182Y-98561385D01*
X128395056Y-98760975D01*
X128651000Y-98641836D01*
X128651000Y-97282000D01*
X128905000Y-97282000D01*
X128905000Y-98641836D01*
X129160944Y-98760975D01*
X129401547Y-98661318D01*
X148164905Y-98661318D01*
X148248765Y-98864274D01*
X148403909Y-99019690D01*
X148606719Y-99103904D01*
X148826318Y-99104095D01*
X149029274Y-99020235D01*
X149097984Y-98951646D01*
X149165909Y-99019690D01*
X149368719Y-99103904D01*
X149588318Y-99104095D01*
X149791274Y-99020235D01*
X149946690Y-98865091D01*
X150030904Y-98662281D01*
X150031095Y-98442682D01*
X150016484Y-98407318D01*
X152332162Y-98407318D01*
X152416022Y-98610274D01*
X152571166Y-98765690D01*
X152773976Y-98849904D01*
X152993575Y-98850095D01*
X153196531Y-98766235D01*
X153351947Y-98611091D01*
X153436161Y-98408281D01*
X153436271Y-98281681D01*
X164476849Y-98281681D01*
X164610082Y-98604131D01*
X164856571Y-98851051D01*
X165178789Y-98984847D01*
X165527681Y-98985151D01*
X165850131Y-98851918D01*
X166097051Y-98605429D01*
X166230847Y-98283211D01*
X166231151Y-97934319D01*
X166097918Y-97611869D01*
X165851429Y-97364949D01*
X165748454Y-97322190D01*
X166002675Y-97216890D01*
X166055273Y-96988878D01*
X165354000Y-96287605D01*
X164652727Y-96988878D01*
X164705325Y-97216890D01*
X164982292Y-97312672D01*
X164857869Y-97364082D01*
X164610949Y-97610571D01*
X164477153Y-97932789D01*
X164476849Y-98281681D01*
X153436271Y-98281681D01*
X153436352Y-98188682D01*
X153397529Y-98094723D01*
X153518585Y-98094828D01*
X153721541Y-98010968D01*
X153876957Y-97855824D01*
X153961171Y-97653014D01*
X153961362Y-97433415D01*
X153877502Y-97230459D01*
X153722358Y-97075043D01*
X153519548Y-96990829D01*
X153299949Y-96990638D01*
X153096993Y-97074498D01*
X152941577Y-97229642D01*
X152857363Y-97432452D01*
X152857172Y-97652051D01*
X152895995Y-97746010D01*
X152774939Y-97745905D01*
X152571983Y-97829765D01*
X152416567Y-97984909D01*
X152332353Y-98187719D01*
X152332162Y-98407318D01*
X150016484Y-98407318D01*
X150012888Y-98398617D01*
X150045274Y-98385235D01*
X150200690Y-98230091D01*
X150284904Y-98027281D01*
X150285095Y-97807682D01*
X150201235Y-97604726D01*
X150046091Y-97449310D01*
X149843281Y-97365096D01*
X149623682Y-97364905D01*
X149420726Y-97448765D01*
X149265310Y-97603909D01*
X149181096Y-97806719D01*
X149180905Y-98026318D01*
X149199112Y-98070383D01*
X149166726Y-98083765D01*
X149098016Y-98152354D01*
X149030091Y-98084310D01*
X148827281Y-98000096D01*
X148607682Y-97999905D01*
X148404726Y-98083765D01*
X148249310Y-98238909D01*
X148165096Y-98441719D01*
X148164905Y-98661318D01*
X129401547Y-98661318D01*
X129642818Y-98561385D01*
X130115188Y-98123379D01*
X130383983Y-97537946D01*
X130265367Y-97282000D01*
X128905000Y-97282000D01*
X128651000Y-97282000D01*
X128631000Y-97282000D01*
X128631000Y-97028000D01*
X128651000Y-97028000D01*
X128651000Y-97008000D01*
X128905000Y-97008000D01*
X128905000Y-97028000D01*
X130265367Y-97028000D01*
X130383983Y-96772054D01*
X130318448Y-96629318D01*
X135210905Y-96629318D01*
X135294765Y-96832274D01*
X135449909Y-96987690D01*
X135652719Y-97071904D01*
X135872318Y-97072095D01*
X136075274Y-96988235D01*
X136230690Y-96833091D01*
X136314904Y-96630281D01*
X136315095Y-96410682D01*
X136231235Y-96207726D01*
X136076091Y-96052310D01*
X136011085Y-96025317D01*
X153244905Y-96025317D01*
X153328765Y-96228273D01*
X153483909Y-96383689D01*
X153686719Y-96467903D01*
X153906318Y-96468094D01*
X153979915Y-96437684D01*
X153989224Y-96460214D01*
X154144368Y-96615630D01*
X154347178Y-96699844D01*
X154566777Y-96700035D01*
X154769733Y-96616175D01*
X154873490Y-96512599D01*
X155352497Y-96512599D01*
X155436357Y-96715555D01*
X155591501Y-96870971D01*
X155794311Y-96955185D01*
X156013910Y-96955376D01*
X156216866Y-96871516D01*
X156332306Y-96756278D01*
X156480719Y-96817904D01*
X156700318Y-96818095D01*
X156849829Y-96756318D01*
X159340905Y-96756318D01*
X159424765Y-96959274D01*
X159579909Y-97114690D01*
X159782719Y-97198904D01*
X160002318Y-97199095D01*
X160205274Y-97115235D01*
X160360690Y-96960091D01*
X160444904Y-96757281D01*
X160445095Y-96537682D01*
X160361235Y-96334726D01*
X160206091Y-96179310D01*
X160003281Y-96095096D01*
X159783682Y-96094905D01*
X159580726Y-96178765D01*
X159425310Y-96333909D01*
X159341096Y-96536719D01*
X159340905Y-96756318D01*
X156849829Y-96756318D01*
X156903274Y-96734235D01*
X157058690Y-96579091D01*
X157142904Y-96376281D01*
X157143095Y-96156682D01*
X157059235Y-95953726D01*
X157038602Y-95933056D01*
X164081283Y-95933056D01*
X164111215Y-96433420D01*
X164245110Y-96756675D01*
X164473122Y-96809273D01*
X165174395Y-96108000D01*
X164473122Y-95406727D01*
X164245110Y-95459325D01*
X164081283Y-95933056D01*
X157038602Y-95933056D01*
X156904091Y-95798310D01*
X156701281Y-95714096D01*
X156481682Y-95713905D01*
X156278726Y-95797765D01*
X156163286Y-95913003D01*
X156014873Y-95851377D01*
X155795274Y-95851186D01*
X155592318Y-95935046D01*
X155436902Y-96090190D01*
X155352688Y-96293000D01*
X155352497Y-96512599D01*
X154873490Y-96512599D01*
X154925149Y-96461031D01*
X155009363Y-96258221D01*
X155009554Y-96038622D01*
X154925694Y-95835666D01*
X154770550Y-95680250D01*
X154567740Y-95596036D01*
X154348141Y-95595845D01*
X154274544Y-95626255D01*
X154265235Y-95603725D01*
X154110091Y-95448309D01*
X153907281Y-95364095D01*
X153687682Y-95363904D01*
X153484726Y-95447764D01*
X153329310Y-95602908D01*
X153245096Y-95805718D01*
X153244905Y-96025317D01*
X136011085Y-96025317D01*
X135873281Y-95968096D01*
X135653682Y-95967905D01*
X135450726Y-96051765D01*
X135295310Y-96206909D01*
X135211096Y-96409719D01*
X135210905Y-96629318D01*
X130318448Y-96629318D01*
X130115188Y-96186621D01*
X129793070Y-95887936D01*
X129794000Y-95887936D01*
X129887385Y-95870364D01*
X129973154Y-95815174D01*
X130030693Y-95730962D01*
X130050936Y-95631000D01*
X130050936Y-95486318D01*
X132162905Y-95486318D01*
X132246765Y-95689274D01*
X132401909Y-95844690D01*
X132604719Y-95928904D01*
X132824318Y-95929095D01*
X133027274Y-95845235D01*
X133182690Y-95690091D01*
X133266904Y-95487281D01*
X133267095Y-95267682D01*
X133252483Y-95232318D01*
X159594905Y-95232318D01*
X159678765Y-95435274D01*
X159833909Y-95590690D01*
X160036719Y-95674904D01*
X160256318Y-95675095D01*
X160459274Y-95591235D01*
X160614690Y-95436091D01*
X160698904Y-95233281D01*
X160698909Y-95227122D01*
X164652727Y-95227122D01*
X165354000Y-95928395D01*
X166055273Y-95227122D01*
X166002675Y-94999110D01*
X165528944Y-94835283D01*
X165028580Y-94865215D01*
X164705325Y-94999110D01*
X164652727Y-95227122D01*
X160698909Y-95227122D01*
X160699095Y-95013682D01*
X160615235Y-94810726D01*
X160460091Y-94655310D01*
X160447316Y-94650005D01*
X160628274Y-94575235D01*
X160783690Y-94420091D01*
X160867904Y-94217281D01*
X160868095Y-93997682D01*
X160784235Y-93794726D01*
X160629091Y-93639310D01*
X160426281Y-93555096D01*
X160206682Y-93554905D01*
X160003726Y-93638765D01*
X159848310Y-93793909D01*
X159764096Y-93996719D01*
X159763905Y-94216318D01*
X159847765Y-94419274D01*
X160002909Y-94574690D01*
X160015684Y-94579995D01*
X159834726Y-94654765D01*
X159679310Y-94809909D01*
X159595096Y-95012719D01*
X159594905Y-95232318D01*
X133252483Y-95232318D01*
X133183235Y-95064726D01*
X133028091Y-94909310D01*
X132825281Y-94825096D01*
X132605682Y-94824905D01*
X132402726Y-94908765D01*
X132247310Y-95063909D01*
X132163096Y-95266719D01*
X132162905Y-95486318D01*
X130050936Y-95486318D01*
X130050936Y-94089318D01*
X157943905Y-94089318D01*
X158027765Y-94292274D01*
X158182909Y-94447690D01*
X158385719Y-94531904D01*
X158605318Y-94532095D01*
X158808274Y-94448235D01*
X158963690Y-94293091D01*
X159047904Y-94090281D01*
X159048095Y-93870682D01*
X158964235Y-93667726D01*
X158809091Y-93512310D01*
X158606281Y-93428096D01*
X158386682Y-93427905D01*
X158183726Y-93511765D01*
X158028310Y-93666909D01*
X157944096Y-93869719D01*
X157943905Y-94089318D01*
X130050936Y-94089318D01*
X130050936Y-93599000D01*
X130033364Y-93505615D01*
X129978174Y-93419846D01*
X129893962Y-93362307D01*
X129794000Y-93342064D01*
X127762000Y-93342064D01*
X127668615Y-93359636D01*
X127582846Y-93414826D01*
X127525307Y-93499038D01*
X127505064Y-93599000D01*
X127505064Y-95631000D01*
X127522636Y-95724385D01*
X127577826Y-95810154D01*
X127662038Y-95867693D01*
X127762000Y-95887936D01*
X127762930Y-95887936D01*
X127440812Y-96186621D01*
X127327000Y-96434502D01*
X127327000Y-93327318D01*
X160864905Y-93327318D01*
X160948765Y-93530274D01*
X161103909Y-93685690D01*
X161306719Y-93769904D01*
X161526318Y-93770095D01*
X161729274Y-93686235D01*
X161884690Y-93531091D01*
X161945631Y-93384329D01*
X161992909Y-93431690D01*
X162195719Y-93515904D01*
X162415318Y-93516095D01*
X162618274Y-93432235D01*
X162773690Y-93277091D01*
X162857904Y-93074281D01*
X162858095Y-92854682D01*
X162774235Y-92651726D01*
X162619091Y-92496310D01*
X162416281Y-92412096D01*
X162196682Y-92411905D01*
X161993726Y-92495765D01*
X161838310Y-92650909D01*
X161777369Y-92797671D01*
X161730091Y-92750310D01*
X161527281Y-92666096D01*
X161307682Y-92665905D01*
X161104726Y-92749765D01*
X160949310Y-92904909D01*
X160865096Y-93107719D01*
X160864905Y-93327318D01*
X127327000Y-93327318D01*
X127327000Y-92184318D01*
X149815905Y-92184318D01*
X149899765Y-92387274D01*
X150054909Y-92542690D01*
X150257719Y-92626904D01*
X150477318Y-92627095D01*
X150680274Y-92543235D01*
X150835690Y-92388091D01*
X150919904Y-92185281D01*
X150920095Y-91965682D01*
X150836235Y-91762726D01*
X150681091Y-91607310D01*
X150478281Y-91523096D01*
X150258682Y-91522905D01*
X150055726Y-91606765D01*
X149900310Y-91761909D01*
X149816096Y-91964719D01*
X149815905Y-92184318D01*
X127327000Y-92184318D01*
X127327000Y-89136318D01*
X154514905Y-89136318D01*
X154598765Y-89339274D01*
X154753909Y-89494690D01*
X154940363Y-89572112D01*
X154896096Y-89678719D01*
X154895905Y-89898318D01*
X154979765Y-90101274D01*
X155134909Y-90256690D01*
X155337719Y-90340904D01*
X155557318Y-90341095D01*
X155706829Y-90279318D01*
X156927905Y-90279318D01*
X157011765Y-90482274D01*
X157166909Y-90637690D01*
X157369719Y-90721904D01*
X157589318Y-90722095D01*
X157792274Y-90638235D01*
X157947690Y-90483091D01*
X158031904Y-90280281D01*
X158032095Y-90060682D01*
X157948235Y-89857726D01*
X157793091Y-89702310D01*
X157590281Y-89618096D01*
X157370682Y-89617905D01*
X157167726Y-89701765D01*
X157012310Y-89856909D01*
X156928096Y-90059719D01*
X156927905Y-90279318D01*
X155706829Y-90279318D01*
X155760274Y-90257235D01*
X155915690Y-90102091D01*
X155999904Y-89899281D01*
X156000095Y-89679682D01*
X155916235Y-89476726D01*
X155761091Y-89321310D01*
X155574637Y-89243888D01*
X155618904Y-89137281D01*
X155619095Y-88917682D01*
X155535235Y-88714726D01*
X155380091Y-88559310D01*
X155177281Y-88475096D01*
X154957682Y-88474905D01*
X154754726Y-88558765D01*
X154599310Y-88713909D01*
X154515096Y-88916719D01*
X154514905Y-89136318D01*
X127327000Y-89136318D01*
X127327000Y-88338000D01*
X162615832Y-88338000D01*
X162579308Y-88374524D01*
M02*
