G04 #@! TF.FileFunction,Soldermask,Top*
%FSLAX46Y46*%
G04 Gerber Fmt 4.6, Leading zero omitted, Abs format (unit mm)*
G04 Created by KiCad (PCBNEW 0.201512021501+6340~38~ubuntu15.10.1-stable) date Sun 06 Dec 2015 12:21:56 AM EST*
%MOMM*%
G01*
G04 APERTURE LIST*
%ADD10C,0.100000*%
%ADD11R,1.600000X1.000000*%
%ADD12R,0.350000X0.800000*%
%ADD13R,0.800000X0.350000*%
%ADD14R,1.825000X1.825000*%
%ADD15R,0.600000X0.700000*%
%ADD16C,1.350000*%
%ADD17R,0.500000X0.700000*%
%ADD18R,0.800000X0.330000*%
%ADD19R,1.000000X1.600000*%
%ADD20R,0.700000X0.600000*%
%ADD21R,0.550000X0.690000*%
%ADD22R,0.897560X0.897560*%
%ADD23R,1.100000X0.700000*%
%ADD24R,0.800000X1.100000*%
%ADD25R,0.800000X0.700000*%
%ADD26R,0.950000X0.400000*%
%ADD27R,0.400000X0.950000*%
%ADD28R,1.400000X1.400000*%
%ADD29C,0.363000*%
%ADD30R,1.150000X1.150000*%
%ADD31C,1.150000*%
%ADD32R,0.700000X0.500000*%
%ADD33R,0.800000X0.950000*%
%ADD34R,1.050000X0.650000*%
%ADD35R,2.132000X2.132000*%
%ADD36O,2.132000X2.132000*%
%ADD37R,1.100000X3.600000*%
%ADD38R,1.800000X3.500000*%
%ADD39R,1.450000X0.500000*%
%ADD40O,1.050000X1.350000*%
%ADD41O,1.650000X1.100000*%
%ADD42R,0.750000X1.150000*%
%ADD43R,1.500000X1.300000*%
G04 APERTURE END LIST*
D10*
D11*
X146024000Y-108597000D03*
X146024000Y-110097000D03*
X149124000Y-110097000D03*
X149124000Y-108597000D03*
D12*
X159103000Y-97295000D03*
X158603000Y-97295000D03*
X158103000Y-97295000D03*
X157603000Y-97295000D03*
X157103000Y-97295000D03*
X156603000Y-97295000D03*
X156103000Y-97295000D03*
X155603000Y-97295000D03*
D13*
X154953000Y-97945000D03*
X154953000Y-98445000D03*
X154953000Y-98945000D03*
X154953000Y-99445000D03*
X154953000Y-99945000D03*
X154953000Y-100445000D03*
X154953000Y-100945000D03*
X154953000Y-101445000D03*
D12*
X155603000Y-102095000D03*
X156103000Y-102095000D03*
X156603000Y-102095000D03*
X157103000Y-102095000D03*
X157603000Y-102095000D03*
X158103000Y-102095000D03*
X158603000Y-102095000D03*
X159103000Y-102095000D03*
D13*
X159753000Y-101445000D03*
X159753000Y-100945000D03*
X159753000Y-100445000D03*
X159753000Y-99945000D03*
X159753000Y-99445000D03*
X159753000Y-98945000D03*
X159753000Y-98445000D03*
X159753000Y-97945000D03*
D14*
X156490500Y-100557500D03*
X158215500Y-100557500D03*
X156490500Y-98832500D03*
X158215500Y-98832500D03*
D15*
X158115000Y-105579000D03*
X158115000Y-104479000D03*
D16*
X167354000Y-110108000D03*
X165354000Y-110108000D03*
X167354000Y-108108000D03*
X165354000Y-108108000D03*
X167354000Y-106108000D03*
X165354000Y-106108000D03*
X167354000Y-104108000D03*
X165354000Y-104108000D03*
X167354000Y-102108000D03*
X165354000Y-102108000D03*
X167354000Y-100108000D03*
X165354000Y-100108000D03*
X167354000Y-98108000D03*
X165354000Y-98108000D03*
X167354000Y-96108000D03*
X165354000Y-96108000D03*
D15*
X159766000Y-104479000D03*
X159766000Y-105579000D03*
D17*
X167582000Y-93726000D03*
X166682000Y-93726000D03*
X131630000Y-94107000D03*
X132530000Y-94107000D03*
D18*
X139158000Y-99149000D03*
X139158000Y-99549000D03*
X139158000Y-99949000D03*
X139158000Y-100349000D03*
X139158000Y-100749000D03*
X141258000Y-100749000D03*
X141258000Y-100349000D03*
X141258000Y-99949000D03*
X141258000Y-99549000D03*
X141258000Y-99149000D03*
D19*
X140208000Y-99949000D03*
D20*
X136356000Y-97663000D03*
X137456000Y-97663000D03*
D15*
X145161000Y-97070000D03*
X145161000Y-95970000D03*
X149352000Y-96689000D03*
X149352000Y-95589000D03*
X139700000Y-109559000D03*
X139700000Y-110659000D03*
X136906000Y-107019000D03*
X136906000Y-108119000D03*
D20*
X136864000Y-109601000D03*
X137964000Y-109601000D03*
D15*
X158750000Y-89112000D03*
X158750000Y-90212000D03*
X164719000Y-90001000D03*
X164719000Y-91101000D03*
X161417000Y-104479000D03*
X161417000Y-105579000D03*
D20*
X151342000Y-104267000D03*
X152442000Y-104267000D03*
D15*
X150368000Y-91101000D03*
X150368000Y-90001000D03*
D21*
X133096000Y-98464000D03*
X133096000Y-96354000D03*
D22*
X129540000Y-90043000D03*
X129540000Y-91541600D03*
X133604000Y-90043000D03*
X133604000Y-91541600D03*
D23*
X146374000Y-97856000D03*
X146374000Y-98806000D03*
X146374000Y-99756000D03*
X148774000Y-99756000D03*
X148774000Y-97856000D03*
D24*
X135620000Y-108827000D03*
D25*
X135620000Y-107127000D03*
X133620000Y-107127000D03*
X133620000Y-109027000D03*
D26*
X138512000Y-104541000D03*
X138512000Y-105041000D03*
X138512000Y-105541000D03*
X138512000Y-106041000D03*
X138512000Y-106541000D03*
X138512000Y-107041000D03*
D27*
X139212000Y-107741000D03*
X139712000Y-107741000D03*
X140212000Y-107741000D03*
X140712000Y-107741000D03*
X141212000Y-107741000D03*
X141712000Y-107741000D03*
D26*
X142412000Y-107041000D03*
X142412000Y-106541000D03*
X142412000Y-106041000D03*
X142412000Y-105541000D03*
X142412000Y-105041000D03*
X142412000Y-104541000D03*
D27*
X141712000Y-103841000D03*
X141212000Y-103841000D03*
X140712000Y-103841000D03*
X140212000Y-103841000D03*
X139712000Y-103841000D03*
X139212000Y-103841000D03*
D28*
X141112000Y-106441000D03*
X141112000Y-105141000D03*
X139812000Y-106441000D03*
X139812000Y-105141000D03*
D29*
X165997000Y-89797000D03*
X166997000Y-89797000D03*
X165997000Y-90297000D03*
X166997000Y-90297000D03*
X165997000Y-90797000D03*
X166997000Y-90797000D03*
X165997000Y-91297000D03*
X166997000Y-91297000D03*
D30*
X156845000Y-109601000D03*
D31*
X158115000Y-109601000D03*
X159385000Y-109601000D03*
X160655000Y-109601000D03*
X161925000Y-109601000D03*
X158115000Y-108331000D03*
X159385000Y-108331000D03*
X160655000Y-108331000D03*
X161925000Y-108331000D03*
X156845000Y-108331000D03*
D17*
X137864000Y-100203000D03*
X136964000Y-100203000D03*
X137864000Y-101727000D03*
X136964000Y-101727000D03*
X142806000Y-100457000D03*
X143706000Y-100457000D03*
X143706000Y-98933000D03*
X142806000Y-98933000D03*
X143706000Y-101981000D03*
X142806000Y-101981000D03*
D32*
X134112000Y-93403000D03*
X134112000Y-94303000D03*
D17*
X146997000Y-101727000D03*
X147897000Y-101727000D03*
D32*
X142240000Y-110501000D03*
X142240000Y-109601000D03*
X146050000Y-105849000D03*
X146050000Y-106749000D03*
X149098000Y-105849000D03*
X149098000Y-106749000D03*
X147574000Y-105849000D03*
X147574000Y-106749000D03*
X150114000Y-102050000D03*
X150114000Y-101150000D03*
X151638000Y-101150000D03*
X151638000Y-102050000D03*
X154940000Y-110178000D03*
X154940000Y-109278000D03*
X153416000Y-110178000D03*
X153416000Y-109278000D03*
X159258000Y-93149000D03*
X159258000Y-94049000D03*
X162941000Y-95065000D03*
X162941000Y-94165000D03*
X161417000Y-95065000D03*
X161417000Y-94165000D03*
X150368000Y-94049000D03*
X150368000Y-93149000D03*
D33*
X160234000Y-89189000D03*
D34*
X160359000Y-89189000D03*
D33*
X160234000Y-90389000D03*
X161584000Y-90389000D03*
X161584000Y-89189000D03*
D32*
X133662000Y-103113000D03*
X133662000Y-104013000D03*
D35*
X128778000Y-94615000D03*
D36*
X128778000Y-97155000D03*
D37*
X141192000Y-95261000D03*
X139192000Y-95261000D03*
D38*
X143642000Y-89711000D03*
X136742000Y-89711000D03*
D39*
X131102540Y-104236100D03*
X131102540Y-104886100D03*
X131102540Y-105536100D03*
X131102540Y-106186100D03*
X131102540Y-106836100D03*
D40*
X131102540Y-103036100D03*
X131102540Y-108036100D03*
D41*
X128402540Y-102036100D03*
X128402540Y-109036100D03*
D15*
X144018000Y-104817000D03*
X144018000Y-103717000D03*
D42*
X148847000Y-88967000D03*
X148847000Y-94167000D03*
X146047000Y-88967000D03*
X146047000Y-94167000D03*
X156340000Y-88840000D03*
X156340000Y-94040000D03*
X153540000Y-88840000D03*
X153540000Y-94040000D03*
D43*
X154094000Y-105829000D03*
X156294000Y-105829000D03*
X154094000Y-104229000D03*
X156294000Y-104229000D03*
D15*
X157734000Y-94022000D03*
X157734000Y-92922000D03*
M02*
