G04 #@! TF.FileFunction,Paste,Top*
%FSLAX46Y46*%
G04 Gerber Fmt 4.6, Leading zero omitted, Abs format (unit mm)*
G04 Created by KiCad (PCBNEW 0.201602050916+6538~42~ubuntu15.10.1-product) date Fri 05 Feb 2016 02:22:28 PM EST*
%MOMM*%
G01*
G04 APERTURE LIST*
%ADD10C,0.100000*%
%ADD11R,0.600000X0.500000*%
%ADD12R,0.850000X0.300000*%
%ADD13R,0.300000X0.850000*%
%ADD14R,0.780000X0.780000*%
%ADD15R,0.600000X0.400000*%
%ADD16R,0.400000X0.600000*%
%ADD17R,1.000000X0.600000*%
%ADD18R,0.700000X1.000000*%
%ADD19R,0.700000X0.600000*%
%ADD20R,1.000000X3.500000*%
%ADD21R,1.700000X3.400000*%
%ADD22R,0.500000X0.600000*%
%ADD23R,0.797560X0.797560*%
%ADD24R,0.590000X0.450000*%
%ADD25R,0.250000X0.700000*%
%ADD26R,0.700000X0.250000*%
%ADD27R,1.035000X1.035000*%
%ADD28R,1.400000X1.200000*%
%ADD29R,0.650000X1.050000*%
%ADD30R,1.350000X0.400000*%
%ADD31R,0.500000X0.300000*%
%ADD32R,0.636000X0.528000*%
G04 APERTURE END LIST*
D10*
D11*
X151511000Y-96012000D03*
X150411000Y-96012000D03*
D12*
X141926000Y-102016000D03*
X141926000Y-102516000D03*
X141926000Y-103016000D03*
X141926000Y-103516000D03*
X141926000Y-104016000D03*
X141926000Y-104516000D03*
D13*
X142626000Y-105216000D03*
X143126000Y-105216000D03*
X143626000Y-105216000D03*
X144126000Y-105216000D03*
X144626000Y-105216000D03*
X145126000Y-105216000D03*
D12*
X145826000Y-104516000D03*
X145826000Y-104016000D03*
X145826000Y-103516000D03*
X145826000Y-103016000D03*
X145826000Y-102516000D03*
X145826000Y-102016000D03*
D13*
X145126000Y-101316000D03*
X144626000Y-101316000D03*
X144126000Y-101316000D03*
X143626000Y-101316000D03*
X143126000Y-101316000D03*
X142626000Y-101316000D03*
D14*
X144526000Y-103916000D03*
X144526000Y-102616000D03*
X143226000Y-103916000D03*
X143226000Y-102616000D03*
D15*
X151257000Y-93276000D03*
X151257000Y-94176000D03*
D16*
X162560000Y-92964000D03*
X163460000Y-92964000D03*
D11*
X149775000Y-91694000D03*
X148675000Y-91694000D03*
D17*
X141027000Y-99121000D03*
X141027000Y-98171000D03*
X141027000Y-97221000D03*
X138627000Y-97221000D03*
X138627000Y-99121000D03*
D16*
X137096500Y-96774000D03*
X136196500Y-96774000D03*
D18*
X138541000Y-105017000D03*
D19*
X138541000Y-103317000D03*
X136541000Y-103317000D03*
X136541000Y-105217000D03*
D20*
X143494000Y-94118000D03*
X141494000Y-94118000D03*
D21*
X145944000Y-88568000D03*
X139044000Y-88568000D03*
D11*
X137202000Y-98171000D03*
X136102000Y-98171000D03*
D22*
X142621000Y-97113000D03*
X142621000Y-98213000D03*
X148336000Y-97070000D03*
X148336000Y-95970000D03*
X142621000Y-106765000D03*
X142621000Y-107865000D03*
X140208000Y-104225000D03*
X140208000Y-105325000D03*
X147447000Y-102955000D03*
X147447000Y-104055000D03*
X141224000Y-107865000D03*
X141224000Y-106765000D03*
D11*
X150537000Y-107823000D03*
X149437000Y-107823000D03*
D22*
X152146000Y-102701000D03*
X152146000Y-103801000D03*
X157734000Y-103843000D03*
X157734000Y-102743000D03*
X159258000Y-102701000D03*
X159258000Y-103801000D03*
D23*
X134112000Y-90792300D03*
X134112000Y-89293700D03*
D24*
X146851000Y-97282000D03*
X144741000Y-97282000D03*
D23*
X148221700Y-90043000D03*
X149720300Y-90043000D03*
D17*
X149803000Y-97475000D03*
X149803000Y-98425000D03*
X149803000Y-99375000D03*
X152203000Y-99375000D03*
X152203000Y-97475000D03*
D25*
X159764500Y-95670500D03*
X159264500Y-95670500D03*
X158764500Y-95670500D03*
X158264500Y-95670500D03*
X157764500Y-95670500D03*
X157264500Y-95670500D03*
X156764500Y-95670500D03*
X156264500Y-95670500D03*
D26*
X155614500Y-96320500D03*
X155614500Y-96820500D03*
X155614500Y-97320500D03*
X155614500Y-97820500D03*
X155614500Y-98320500D03*
X155614500Y-98820500D03*
X155614500Y-99320500D03*
X155614500Y-99820500D03*
D25*
X156264500Y-100470500D03*
X156764500Y-100470500D03*
X157264500Y-100470500D03*
X157764500Y-100470500D03*
X158264500Y-100470500D03*
X158764500Y-100470500D03*
X159264500Y-100470500D03*
X159764500Y-100470500D03*
D26*
X160414500Y-99820500D03*
X160414500Y-99320500D03*
X160414500Y-98820500D03*
X160414500Y-98320500D03*
X160414500Y-97820500D03*
X160414500Y-97320500D03*
X160414500Y-96820500D03*
X160414500Y-96320500D03*
D27*
X157152000Y-98933000D03*
X158877000Y-98933000D03*
X157152000Y-97208000D03*
X158877000Y-97208000D03*
D16*
X136588500Y-89535000D03*
X135688500Y-89535000D03*
X137408500Y-100457000D03*
X138308500Y-100457000D03*
X148405000Y-99441000D03*
X147505000Y-99441000D03*
D15*
X144018000Y-107765000D03*
X144018000Y-106865000D03*
D16*
X149744000Y-88392000D03*
X148844000Y-88392000D03*
X149537000Y-105029000D03*
X150437000Y-105029000D03*
X150437000Y-106426000D03*
X149537000Y-106426000D03*
D15*
X153797000Y-108019000D03*
X153797000Y-107119000D03*
X152273000Y-108019000D03*
X152273000Y-107119000D03*
X157099000Y-90736000D03*
X157099000Y-91636000D03*
D16*
X152712000Y-96139000D03*
X153612000Y-96139000D03*
X152712000Y-94488000D03*
X153612000Y-94488000D03*
D28*
X153840000Y-104051000D03*
X156040000Y-104051000D03*
X153840000Y-102451000D03*
X156040000Y-102451000D03*
D29*
X151325000Y-92118000D03*
X151325000Y-87968000D03*
X153475000Y-92118000D03*
X153475000Y-87968000D03*
X159072000Y-92118000D03*
X159072000Y-87968000D03*
X161222000Y-92118000D03*
X161222000Y-87968000D03*
D24*
X137707000Y-94234000D03*
X135597000Y-94234000D03*
X137707000Y-92011500D03*
X135597000Y-92011500D03*
D30*
X133388540Y-96806600D03*
X133388540Y-97456600D03*
X133388540Y-98106600D03*
X133388540Y-98756600D03*
X133388540Y-99406600D03*
D31*
X148071000Y-93044000D03*
X148071000Y-93544000D03*
X148071000Y-94044000D03*
X148071000Y-94544000D03*
X149871000Y-94544000D03*
X149871000Y-94044000D03*
X149871000Y-93544000D03*
X149871000Y-93044000D03*
D32*
X148971000Y-94234000D03*
X148971000Y-93354000D03*
D16*
X146500000Y-106807000D03*
X145600000Y-106807000D03*
X147124000Y-105537000D03*
X148024000Y-105537000D03*
M02*
