M48
;DRILL file {KiCad 0.201602050916+6538~42~ubuntu15.10.1-product} date Fri 05 Feb 2016 02:22:34 PM EST
;FORMAT={-:-/ absolute / inch / decimal}
FMAT,2
INCH,TZ
T1C0.016
T2C0.020
T3C0.022
T4C0.026
T5C0.030
T6C0.040
T7C0.094
%
G90
G05
M72
T1
X5.315Y-3.8525
X5.3756Y-4.03
X5.41Y-3.905
X5.41Y-4.
X5.435Y-3.87
X5.44Y-3.995
X5.4825Y-4.04
X5.4825Y-4.1
X5.485Y-4.185
X5.505Y-4.21
X5.515Y-4.185
X5.525Y-3.705
X5.525Y-3.73
X5.525Y-3.755
X5.55Y-4.0961
X5.57Y-3.795
X5.6Y-3.91
X5.61Y-3.705
X5.61Y-3.73
X5.61Y-3.755
X5.615Y-3.935
X5.63Y-3.91
X5.6388Y-4.04
X5.6388Y-4.0912
X5.65Y-3.47
X5.665Y-3.495
X5.675Y-3.47
X5.69Y-4.04
X5.69Y-4.09
X5.71Y-4.245
X5.72Y-3.595
X5.72Y-3.91
X5.745Y-3.585
X5.79Y-3.585
X5.8Y-3.665
X5.805Y-3.985
X5.81Y-4.255
X5.815Y-3.435
X5.825Y-4.23
X5.835Y-3.87
X5.835Y-4.255
X5.84Y-3.435
X5.855Y-4.115
X5.86Y-3.87
X5.865Y-3.435
X5.89Y-3.435
X5.89Y-3.985
X5.905Y-4.01
X5.92Y-3.985
X5.93Y-3.725
X5.95Y-3.84
X5.95Y-3.87
X5.975Y-3.715
X5.9843Y-3.88
X5.995Y-4.01
X6.Y-3.6457
X6.Y-4.29
X6.005Y-3.965
X6.025Y-4.29
X6.05Y-4.29
X6.055Y-3.755
X6.07Y-3.675
X6.08Y-3.595
X6.08Y-3.65
X6.09Y-3.86
X6.09Y-3.915
X6.095Y-3.715
X6.1Y-3.955
X6.105Y-3.625
X6.16Y-3.715
X6.1797Y-3.6748
X6.1871Y-3.8271
X6.1871Y-3.895
X6.195Y-3.72
X6.225Y-3.995
X6.24Y-4.06
X6.24Y-4.09
X6.255Y-3.8271
X6.255Y-3.895
X6.2637Y-3.715
X6.31Y-3.605
X6.31Y-3.98
X6.3484Y-4.0866
X6.37Y-3.74
X6.3839Y-3.6161
X6.41Y-3.705
X6.43Y-3.725
T4
X6.125Y-4.19
X6.125Y-4.24
X6.175Y-4.19
X6.175Y-4.24
X6.225Y-4.19
X6.225Y-4.24
X6.275Y-4.19
X6.275Y-4.24
X6.325Y-4.19
X6.325Y-4.24
T5
X6.445Y-3.7763
X6.445Y-3.855
X6.445Y-3.9338
X6.445Y-4.0125
X6.445Y-4.0913
X6.445Y-4.17
X6.445Y-4.2487
X6.5237Y-3.7763
X6.5237Y-3.855
X6.5237Y-3.9338
X6.5237Y-4.0125
X6.5237Y-4.0913
X6.5237Y-4.17
X6.5237Y-4.2487
T6
X5.14Y-3.465
X5.14Y-3.565
T7
X5.19Y-4.21
X6.48Y-3.515
T2
X5.1324Y-3.7247G85X5.158Y-3.7247
G05
X5.1324Y-4.0003G85X5.158Y-4.0003
G05
T3
X5.2515Y-3.7581G85X5.2515Y-3.7699
G05
X5.2515Y-3.955G85X5.2515Y-3.9668
G05
T0
M30
