G04 #@! TF.FileFunction,Copper,L2,Bot,Signal*
%FSLAX46Y46*%
G04 Gerber Fmt 4.6, Leading zero omitted, Abs format (unit mm)*
G04 Created by KiCad (PCBNEW 0.201602050916+6538~42~ubuntu15.10.1-product) date Fri 05 Feb 2016 02:22:28 PM EST*
%MOMM*%
G01*
G04 APERTURE LIST*
%ADD10C,0.100000*%
%ADD11R,1.050000X1.050000*%
%ADD12C,1.050000*%
%ADD13C,0.600000*%
%ADD14R,2.032000X2.032000*%
%ADD15O,2.032000X2.032000*%
%ADD16C,3.800000*%
%ADD17O,0.950000X1.250000*%
%ADD18O,1.550000X1.000000*%
%ADD19C,1.250000*%
%ADD20C,0.250000*%
%ADD21C,0.500000*%
%ADD22C,0.125000*%
G04 APERTURE END LIST*
D10*
D11*
X155575000Y-107696000D03*
D12*
X156845000Y-107696000D03*
X158115000Y-107696000D03*
X159385000Y-107696000D03*
X160655000Y-107696000D03*
X156845000Y-106426000D03*
X158115000Y-106426000D03*
X159385000Y-106426000D03*
X160655000Y-106426000D03*
X155575000Y-106426000D03*
D13*
X154432000Y-91313000D03*
X160274000Y-91567000D03*
X154686000Y-99441000D03*
X147955000Y-107442000D03*
X145288000Y-91313000D03*
X147320000Y-93091000D03*
X145923000Y-91059000D03*
X158496000Y-103886000D03*
X158496000Y-103124000D03*
X152273000Y-101854000D03*
X138176000Y-101473000D03*
X137414000Y-101600000D03*
X138049000Y-98298000D03*
X137414000Y-99187000D03*
X142621000Y-99949000D03*
X143002000Y-99314000D03*
X142240000Y-99314000D03*
X143891000Y-88773000D03*
X143510000Y-88138000D03*
X144145000Y-88138000D03*
X162814000Y-94107000D03*
X163322000Y-94615000D03*
X161798000Y-94996000D03*
X154178000Y-93345000D03*
X154432000Y-92710000D03*
X142494000Y-95377000D03*
X142494000Y-94742000D03*
X142494000Y-94107000D03*
X141478000Y-96393000D03*
X140335000Y-95377000D03*
X140335000Y-94742000D03*
X140335000Y-94107000D03*
X148209000Y-108077000D03*
X147574000Y-108077000D03*
X153670000Y-108966000D03*
X153035000Y-108966000D03*
X152400000Y-108966000D03*
X149606000Y-87249000D03*
X148971000Y-87249000D03*
X148336000Y-87249000D03*
X147701000Y-87249000D03*
X139827000Y-106934000D03*
X140081000Y-106299000D03*
X139319000Y-106299000D03*
X143226000Y-103916000D03*
X144526000Y-103886000D03*
X144526000Y-102616000D03*
X143226000Y-102616000D03*
X149606000Y-101219000D03*
X150368000Y-101219000D03*
X149987000Y-101854000D03*
X154686000Y-98044000D03*
X157152000Y-98933000D03*
X158877000Y-98933000D03*
X158877000Y-97208000D03*
D14*
X130556000Y-88011000D03*
D15*
X130556000Y-90551000D03*
D16*
X131826000Y-106934000D03*
X164592000Y-89281000D03*
D17*
X133388540Y-95606600D03*
X133388540Y-100606600D03*
D18*
X130688540Y-94606600D03*
X130688540Y-101606600D03*
D13*
X157152000Y-97208000D03*
D19*
X165703000Y-107918000D03*
X163703000Y-107918000D03*
X165703000Y-105918000D03*
X163703000Y-105918000D03*
X165703000Y-103918000D03*
X163703000Y-103918000D03*
X165703000Y-101918000D03*
X163703000Y-101918000D03*
X165703000Y-99918000D03*
X163703000Y-99918000D03*
X165703000Y-97918000D03*
X163703000Y-97918000D03*
X165703000Y-95918000D03*
X163703000Y-95918000D03*
D13*
X148209000Y-98298000D03*
X148844000Y-98298000D03*
X145288000Y-99314000D03*
X147447000Y-101219000D03*
X152400000Y-92600010D03*
X151130000Y-98298000D03*
X151130000Y-97536000D03*
X158115000Y-101473000D03*
X145034000Y-107823000D03*
X140970000Y-104041010D03*
X154813000Y-94361000D03*
X156464000Y-94361000D03*
X157353000Y-94488000D03*
X161250262Y-103798738D03*
X159096991Y-94361000D03*
X150622000Y-94615000D03*
X153797000Y-95377000D03*
X152527000Y-100711000D03*
X156965034Y-93338863D03*
X154940000Y-100457000D03*
X160274000Y-101092000D03*
X139255500Y-104140000D03*
X135001000Y-97853500D03*
X136541000Y-102362000D03*
X139255500Y-102616000D03*
X147066000Y-91059000D03*
X155067000Y-92075000D03*
X152001990Y-98552000D03*
X151765000Y-94361000D03*
X162151762Y-91848238D03*
X148717000Y-104521000D03*
D20*
X147447000Y-101219000D02*
X145542000Y-99314000D01*
X145542000Y-99314000D02*
X145288000Y-99314000D01*
D21*
X155575000Y-107696000D02*
X154550000Y-107696000D01*
X154550000Y-107696000D02*
X151130000Y-104276000D01*
X151130000Y-104276000D02*
X151130000Y-104149000D01*
X155575000Y-107696000D02*
X155575000Y-107721002D01*
X155575000Y-107721002D02*
X156932999Y-109079001D01*
X156932999Y-109079001D02*
X164541999Y-109079001D01*
X164541999Y-109079001D02*
X165078001Y-108542999D01*
X165078001Y-108542999D02*
X165703000Y-107918000D01*
D20*
X151130000Y-97536000D02*
X149746989Y-96152989D01*
X149746989Y-96152989D02*
X149746989Y-94218021D01*
X149746989Y-94218021D02*
X151365000Y-92600010D01*
X151365000Y-92600010D02*
X152400000Y-92600010D01*
D21*
X151130000Y-97536000D02*
X151130000Y-98298000D01*
D20*
X158115000Y-101473000D02*
X158369000Y-101473000D01*
D21*
X151130000Y-98298000D02*
X151130000Y-104149000D01*
D20*
X158369000Y-101473000D02*
X158668999Y-101772999D01*
X158668999Y-101772999D02*
X158668999Y-102142001D01*
X158668999Y-102142001D02*
X163333998Y-106807000D01*
X163333998Y-106807000D02*
X164592000Y-106807000D01*
X164592000Y-106807000D02*
X165078001Y-107293001D01*
X165078001Y-107293001D02*
X165703000Y-107918000D01*
X140970000Y-104041010D02*
X144751990Y-107823000D01*
X144751990Y-107823000D02*
X145034000Y-107823000D01*
X156360138Y-92813862D02*
X160598862Y-92813862D01*
X160598862Y-92813862D02*
X163703000Y-95918000D01*
X154813000Y-94361000D02*
X156360138Y-92813862D01*
X156464000Y-94361000D02*
X153683989Y-97141011D01*
X153683989Y-97141011D02*
X153683989Y-104534989D01*
X153683989Y-104534989D02*
X155575000Y-106426000D01*
X157353000Y-94488000D02*
X154033999Y-97807001D01*
X154033999Y-97807001D02*
X154033999Y-103614999D01*
X154033999Y-103614999D02*
X156845000Y-106426000D01*
X161250262Y-103798738D02*
X161250262Y-94560260D01*
X161250262Y-94560260D02*
X160751003Y-94061001D01*
X159396990Y-94061001D02*
X159096991Y-94361000D01*
X160751003Y-94061001D02*
X159396990Y-94061001D01*
X150622000Y-94615000D02*
X150622000Y-95039264D01*
X150622000Y-95039264D02*
X150959736Y-95377000D01*
X150959736Y-95377000D02*
X151130000Y-95377000D01*
X153797000Y-95377000D02*
X151130000Y-95377000D01*
X155933146Y-92463852D02*
X162248852Y-92463852D01*
X162248852Y-92463852D02*
X165703000Y-95918000D01*
X153797000Y-95377000D02*
X153797000Y-94599998D01*
X153797000Y-94599998D02*
X155933146Y-92463852D01*
X152527000Y-100711000D02*
X152527000Y-97520998D01*
X152527000Y-97520998D02*
X156211999Y-93835999D01*
X156467898Y-93835999D02*
X156965034Y-93338863D01*
X156211999Y-93835999D02*
X156467898Y-93835999D01*
X159639000Y-100457000D02*
X154940000Y-100457000D01*
X160274000Y-101092000D02*
X159639000Y-100457000D01*
X135001000Y-97853500D02*
X135001000Y-101599002D01*
X135001000Y-101599002D02*
X137541998Y-104140000D01*
X137541998Y-104140000D02*
X139255500Y-104140000D01*
X139255500Y-102616000D02*
X136795000Y-102616000D01*
X136795000Y-102616000D02*
X136541000Y-102362000D01*
X155067000Y-92075000D02*
X148082000Y-92075000D01*
X148082000Y-92075000D02*
X147066000Y-91059000D01*
X151765000Y-94361000D02*
X151465001Y-94061001D01*
X151465001Y-94061001D02*
X150398997Y-94061001D01*
X150398997Y-94061001D02*
X150096999Y-94362999D01*
X150096999Y-94362999D02*
X150096999Y-95009251D01*
X150096999Y-95009251D02*
X152001990Y-96914242D01*
X152001990Y-96914242D02*
X152001990Y-98552000D01*
X148717000Y-104521000D02*
X148318999Y-104122999D01*
X148318999Y-104122999D02*
X148318999Y-101093999D01*
X146540999Y-90806999D02*
X146813999Y-90533999D01*
X148318999Y-101093999D02*
X146540999Y-99315999D01*
X160837523Y-90533999D02*
X162151762Y-91848238D01*
X146540999Y-99315999D02*
X146540999Y-90806999D01*
X146813999Y-90533999D02*
X160837523Y-90533999D01*
D22*
G36*
X166869500Y-109211500D02*
X165028218Y-109211500D01*
X165518547Y-108721171D01*
X165540675Y-108730359D01*
X165863907Y-108730641D01*
X166162643Y-108607206D01*
X166391402Y-108378845D01*
X166515359Y-108080325D01*
X166515641Y-107757093D01*
X166392206Y-107458357D01*
X166163845Y-107229598D01*
X165865325Y-107105641D01*
X165542093Y-107105359D01*
X165393640Y-107166698D01*
X164812971Y-106586029D01*
X164784646Y-106567103D01*
X164711589Y-106518288D01*
X164592000Y-106494500D01*
X164275545Y-106494500D01*
X164391402Y-106378845D01*
X164515359Y-106080325D01*
X164515360Y-106078907D01*
X164890359Y-106078907D01*
X165013794Y-106377643D01*
X165242155Y-106606402D01*
X165540675Y-106730359D01*
X165863907Y-106730641D01*
X166162643Y-106607206D01*
X166391402Y-106378845D01*
X166515359Y-106080325D01*
X166515641Y-105757093D01*
X166392206Y-105458357D01*
X166163845Y-105229598D01*
X165865325Y-105105641D01*
X165542093Y-105105359D01*
X165243357Y-105228794D01*
X165014598Y-105457155D01*
X164890641Y-105755675D01*
X164890359Y-106078907D01*
X164515360Y-106078907D01*
X164515641Y-105757093D01*
X164392206Y-105458357D01*
X164163845Y-105229598D01*
X163865325Y-105105641D01*
X163542093Y-105105359D01*
X163243357Y-105228794D01*
X163014598Y-105457155D01*
X162890641Y-105755675D01*
X162890496Y-105921556D01*
X161255183Y-104286243D01*
X161346806Y-104286323D01*
X161526048Y-104212262D01*
X161659635Y-104078907D01*
X162890359Y-104078907D01*
X163013794Y-104377643D01*
X163242155Y-104606402D01*
X163540675Y-104730359D01*
X163863907Y-104730641D01*
X164162643Y-104607206D01*
X164391402Y-104378845D01*
X164515359Y-104080325D01*
X164515360Y-104078907D01*
X164890359Y-104078907D01*
X165013794Y-104377643D01*
X165242155Y-104606402D01*
X165540675Y-104730359D01*
X165863907Y-104730641D01*
X166162643Y-104607206D01*
X166391402Y-104378845D01*
X166515359Y-104080325D01*
X166515641Y-103757093D01*
X166392206Y-103458357D01*
X166163845Y-103229598D01*
X165865325Y-103105641D01*
X165542093Y-103105359D01*
X165243357Y-103228794D01*
X165014598Y-103457155D01*
X164890641Y-103755675D01*
X164890359Y-104078907D01*
X164515360Y-104078907D01*
X164515641Y-103757093D01*
X164392206Y-103458357D01*
X164163845Y-103229598D01*
X163865325Y-103105641D01*
X163542093Y-103105359D01*
X163243357Y-103228794D01*
X163014598Y-103457155D01*
X162890641Y-103755675D01*
X162890359Y-104078907D01*
X161659635Y-104078907D01*
X161663304Y-104075245D01*
X161737677Y-103896133D01*
X161737847Y-103702194D01*
X161663786Y-103522952D01*
X161562762Y-103421752D01*
X161562762Y-102078907D01*
X162890359Y-102078907D01*
X163013794Y-102377643D01*
X163242155Y-102606402D01*
X163540675Y-102730359D01*
X163863907Y-102730641D01*
X164162643Y-102607206D01*
X164391402Y-102378845D01*
X164515359Y-102080325D01*
X164515360Y-102078907D01*
X164890359Y-102078907D01*
X165013794Y-102377643D01*
X165242155Y-102606402D01*
X165540675Y-102730359D01*
X165863907Y-102730641D01*
X166162643Y-102607206D01*
X166391402Y-102378845D01*
X166515359Y-102080325D01*
X166515641Y-101757093D01*
X166392206Y-101458357D01*
X166163845Y-101229598D01*
X165865325Y-101105641D01*
X165542093Y-101105359D01*
X165243357Y-101228794D01*
X165014598Y-101457155D01*
X164890641Y-101755675D01*
X164890359Y-102078907D01*
X164515360Y-102078907D01*
X164515641Y-101757093D01*
X164392206Y-101458357D01*
X164163845Y-101229598D01*
X163865325Y-101105641D01*
X163542093Y-101105359D01*
X163243357Y-101228794D01*
X163014598Y-101457155D01*
X162890641Y-101755675D01*
X162890359Y-102078907D01*
X161562762Y-102078907D01*
X161562762Y-100078907D01*
X162890359Y-100078907D01*
X163013794Y-100377643D01*
X163242155Y-100606402D01*
X163540675Y-100730359D01*
X163863907Y-100730641D01*
X164162643Y-100607206D01*
X164391402Y-100378845D01*
X164515359Y-100080325D01*
X164515360Y-100078907D01*
X164890359Y-100078907D01*
X165013794Y-100377643D01*
X165242155Y-100606402D01*
X165540675Y-100730359D01*
X165863907Y-100730641D01*
X166162643Y-100607206D01*
X166391402Y-100378845D01*
X166515359Y-100080325D01*
X166515641Y-99757093D01*
X166392206Y-99458357D01*
X166163845Y-99229598D01*
X165865325Y-99105641D01*
X165542093Y-99105359D01*
X165243357Y-99228794D01*
X165014598Y-99457155D01*
X164890641Y-99755675D01*
X164890359Y-100078907D01*
X164515360Y-100078907D01*
X164515641Y-99757093D01*
X164392206Y-99458357D01*
X164163845Y-99229598D01*
X163865325Y-99105641D01*
X163542093Y-99105359D01*
X163243357Y-99228794D01*
X163014598Y-99457155D01*
X162890641Y-99755675D01*
X162890359Y-100078907D01*
X161562762Y-100078907D01*
X161562762Y-98078907D01*
X162890359Y-98078907D01*
X163013794Y-98377643D01*
X163242155Y-98606402D01*
X163540675Y-98730359D01*
X163863907Y-98730641D01*
X164162643Y-98607206D01*
X164391402Y-98378845D01*
X164515359Y-98080325D01*
X164515360Y-98078907D01*
X164890359Y-98078907D01*
X165013794Y-98377643D01*
X165242155Y-98606402D01*
X165540675Y-98730359D01*
X165863907Y-98730641D01*
X166162643Y-98607206D01*
X166391402Y-98378845D01*
X166515359Y-98080325D01*
X166515641Y-97757093D01*
X166392206Y-97458357D01*
X166163845Y-97229598D01*
X165865325Y-97105641D01*
X165542093Y-97105359D01*
X165243357Y-97228794D01*
X165014598Y-97457155D01*
X164890641Y-97755675D01*
X164890359Y-98078907D01*
X164515360Y-98078907D01*
X164515641Y-97757093D01*
X164392206Y-97458357D01*
X164163845Y-97229598D01*
X163865325Y-97105641D01*
X163542093Y-97105359D01*
X163243357Y-97228794D01*
X163014598Y-97457155D01*
X162890641Y-97755675D01*
X162890359Y-98078907D01*
X161562762Y-98078907D01*
X161562762Y-94560260D01*
X161538975Y-94440672D01*
X161471233Y-94339289D01*
X160971974Y-93840030D01*
X160951647Y-93826448D01*
X160870592Y-93772289D01*
X160751003Y-93748501D01*
X159396990Y-93748501D01*
X159277402Y-93772288D01*
X159176019Y-93840030D01*
X159142509Y-93873540D01*
X159000447Y-93873415D01*
X158821205Y-93947476D01*
X158683949Y-94084493D01*
X158609576Y-94263605D01*
X158609406Y-94457544D01*
X158683467Y-94636786D01*
X158820484Y-94774042D01*
X158999596Y-94848415D01*
X159193535Y-94848585D01*
X159372777Y-94774524D01*
X159510033Y-94637507D01*
X159584406Y-94458395D01*
X159584480Y-94373501D01*
X160621561Y-94373501D01*
X160937762Y-94689702D01*
X160937762Y-103421864D01*
X160837220Y-103522231D01*
X160762847Y-103701343D01*
X160762766Y-103793826D01*
X158981499Y-102012559D01*
X158981499Y-101772999D01*
X158976683Y-101748786D01*
X158957712Y-101653411D01*
X158889970Y-101552028D01*
X158589971Y-101252029D01*
X158536377Y-101216219D01*
X158528524Y-101197214D01*
X158391507Y-101059958D01*
X158212395Y-100985585D01*
X158018456Y-100985415D01*
X157839214Y-101059476D01*
X157701958Y-101196493D01*
X157627585Y-101375605D01*
X157627415Y-101569544D01*
X157701476Y-101748786D01*
X157838493Y-101886042D01*
X158017605Y-101960415D01*
X158211544Y-101960585D01*
X158355261Y-101901203D01*
X158356499Y-101902441D01*
X158356499Y-102142001D01*
X158380287Y-102261590D01*
X158424185Y-102327288D01*
X158448028Y-102362972D01*
X163113027Y-107027971D01*
X163214410Y-107095713D01*
X163269407Y-107106652D01*
X163230475Y-107174653D01*
X163703000Y-107647178D01*
X164175525Y-107174653D01*
X164143949Y-107119500D01*
X164462558Y-107119500D01*
X164951696Y-107608638D01*
X164890641Y-107755675D01*
X164890359Y-108078907D01*
X164900012Y-108102270D01*
X164360781Y-108641501D01*
X164155679Y-108641501D01*
X163703000Y-108188822D01*
X163250321Y-108641501D01*
X157114217Y-108641501D01*
X156996480Y-108523764D01*
X157164976Y-108492088D01*
X157181663Y-108485176D01*
X157243421Y-108365243D01*
X157716579Y-108365243D01*
X157778337Y-108485176D01*
X158105969Y-108553938D01*
X158434976Y-108492088D01*
X158451663Y-108485176D01*
X158513421Y-108365243D01*
X158115000Y-107966822D01*
X157716579Y-108365243D01*
X157243421Y-108365243D01*
X156845000Y-107966822D01*
X156830858Y-107980964D01*
X156560036Y-107710142D01*
X156574178Y-107696000D01*
X157115822Y-107696000D01*
X157291852Y-107872030D01*
X157318912Y-108015976D01*
X157325824Y-108032663D01*
X157445757Y-108094421D01*
X157480000Y-108060178D01*
X157514243Y-108094421D01*
X157634176Y-108032663D01*
X157667820Y-107872358D01*
X157844178Y-107696000D01*
X157668148Y-107519970D01*
X157641088Y-107376024D01*
X157634176Y-107359337D01*
X157514243Y-107297579D01*
X157480000Y-107331822D01*
X157445757Y-107297579D01*
X157325824Y-107359337D01*
X157292180Y-107519642D01*
X157115822Y-107696000D01*
X156574178Y-107696000D01*
X156560036Y-107681858D01*
X156830858Y-107411036D01*
X156845000Y-107425178D01*
X157233970Y-107036208D01*
X157248072Y-107030381D01*
X157448676Y-106830126D01*
X157479942Y-106754828D01*
X157510619Y-106829072D01*
X157710874Y-107029676D01*
X157725622Y-107035800D01*
X158115000Y-107425178D01*
X158503970Y-107036208D01*
X158518072Y-107030381D01*
X158718676Y-106830126D01*
X158749942Y-106754828D01*
X158780619Y-106829072D01*
X158980874Y-107029676D01*
X159056172Y-107060942D01*
X158981928Y-107091619D01*
X158781324Y-107291874D01*
X158775200Y-107306622D01*
X158385822Y-107696000D01*
X158774792Y-108084970D01*
X158780619Y-108099072D01*
X158980874Y-108299676D01*
X159242653Y-108408376D01*
X159526103Y-108408624D01*
X159631093Y-108365243D01*
X160256579Y-108365243D01*
X160318337Y-108485176D01*
X160645969Y-108553938D01*
X160974976Y-108492088D01*
X160991663Y-108485176D01*
X161053421Y-108365243D01*
X160655000Y-107966822D01*
X160256579Y-108365243D01*
X159631093Y-108365243D01*
X159788072Y-108300381D01*
X159988676Y-108100126D01*
X159994800Y-108085378D01*
X160384178Y-107696000D01*
X160925822Y-107696000D01*
X161324243Y-108094421D01*
X161444176Y-108032663D01*
X161475247Y-107884618D01*
X162743635Y-107884618D01*
X162803888Y-108254292D01*
X162829437Y-108315974D01*
X162959653Y-108390525D01*
X163432178Y-107918000D01*
X163973822Y-107918000D01*
X164446347Y-108390525D01*
X164576563Y-108315974D01*
X164662365Y-107951382D01*
X164602112Y-107581708D01*
X164576563Y-107520026D01*
X164446347Y-107445475D01*
X163973822Y-107918000D01*
X163432178Y-107918000D01*
X162959653Y-107445475D01*
X162829437Y-107520026D01*
X162743635Y-107884618D01*
X161475247Y-107884618D01*
X161512938Y-107705031D01*
X161451088Y-107376024D01*
X161444176Y-107359337D01*
X161324243Y-107297579D01*
X160925822Y-107696000D01*
X160384178Y-107696000D01*
X159995208Y-107307030D01*
X159989381Y-107292928D01*
X159789126Y-107092324D01*
X159713828Y-107061058D01*
X159788072Y-107030381D01*
X159988676Y-106830126D01*
X160019942Y-106754828D01*
X160050619Y-106829072D01*
X160250874Y-107029676D01*
X160265622Y-107035800D01*
X160655000Y-107425178D01*
X161043970Y-107036208D01*
X161058072Y-107030381D01*
X161258676Y-106830126D01*
X161367376Y-106568347D01*
X161367624Y-106284897D01*
X161259381Y-106022928D01*
X161059126Y-105822324D01*
X160797347Y-105713624D01*
X160513897Y-105713376D01*
X160251928Y-105821619D01*
X160051324Y-106021874D01*
X160020058Y-106097172D01*
X159989381Y-106022928D01*
X159789126Y-105822324D01*
X159527347Y-105713624D01*
X159243897Y-105713376D01*
X158981928Y-105821619D01*
X158781324Y-106021874D01*
X158750058Y-106097172D01*
X158719381Y-106022928D01*
X158519126Y-105822324D01*
X158257347Y-105713624D01*
X157973897Y-105713376D01*
X157711928Y-105821619D01*
X157511324Y-106021874D01*
X157480058Y-106097172D01*
X157449381Y-106022928D01*
X157249126Y-105822324D01*
X156987347Y-105713624D01*
X156703897Y-105713376D01*
X156612204Y-105751262D01*
X154346499Y-103485557D01*
X154346499Y-100553544D01*
X154452415Y-100553544D01*
X154526476Y-100732786D01*
X154663493Y-100870042D01*
X154842605Y-100944415D01*
X155036544Y-100944585D01*
X155215786Y-100870524D01*
X155316986Y-100769500D01*
X159509558Y-100769500D01*
X159786540Y-101046482D01*
X159786415Y-101188544D01*
X159860476Y-101367786D01*
X159997493Y-101505042D01*
X160176605Y-101579415D01*
X160370544Y-101579585D01*
X160549786Y-101505524D01*
X160687042Y-101368507D01*
X160761415Y-101189395D01*
X160761585Y-100995456D01*
X160687524Y-100816214D01*
X160550507Y-100678958D01*
X160371395Y-100604585D01*
X160228402Y-100604460D01*
X159859971Y-100236029D01*
X159841093Y-100223415D01*
X159758589Y-100168288D01*
X159639000Y-100144500D01*
X155316874Y-100144500D01*
X155216507Y-100043958D01*
X155037395Y-99969585D01*
X154843456Y-99969415D01*
X154664214Y-100043476D01*
X154526958Y-100180493D01*
X154452585Y-100359605D01*
X154452415Y-100553544D01*
X154346499Y-100553544D01*
X154346499Y-97936443D01*
X157307482Y-94975460D01*
X157449544Y-94975585D01*
X157628786Y-94901524D01*
X157766042Y-94764507D01*
X157840415Y-94585395D01*
X157840585Y-94391456D01*
X157766524Y-94212214D01*
X157629507Y-94074958D01*
X157450395Y-94000585D01*
X157256456Y-94000415D01*
X157077214Y-94074476D01*
X156939958Y-94211493D01*
X156934817Y-94223874D01*
X156877524Y-94085214D01*
X156769169Y-93976670D01*
X156919516Y-93826323D01*
X157061578Y-93826448D01*
X157240820Y-93752387D01*
X157378076Y-93615370D01*
X157452449Y-93436258D01*
X157452619Y-93242319D01*
X157404707Y-93126362D01*
X160469420Y-93126362D01*
X162951696Y-95608638D01*
X162890641Y-95755675D01*
X162890359Y-96078907D01*
X163013794Y-96377643D01*
X163242155Y-96606402D01*
X163540675Y-96730359D01*
X163863907Y-96730641D01*
X164162643Y-96607206D01*
X164391402Y-96378845D01*
X164515359Y-96080325D01*
X164515641Y-95757093D01*
X164392206Y-95458357D01*
X164163845Y-95229598D01*
X163865325Y-95105641D01*
X163542093Y-95105359D01*
X163393640Y-95166698D01*
X161003294Y-92776352D01*
X162119410Y-92776352D01*
X164951696Y-95608638D01*
X164890641Y-95755675D01*
X164890359Y-96078907D01*
X165013794Y-96377643D01*
X165242155Y-96606402D01*
X165540675Y-96730359D01*
X165863907Y-96730641D01*
X166162643Y-96607206D01*
X166391402Y-96378845D01*
X166515359Y-96080325D01*
X166515641Y-95757093D01*
X166392206Y-95458357D01*
X166163845Y-95229598D01*
X165865325Y-95105641D01*
X165542093Y-95105359D01*
X165393640Y-95166698D01*
X162469823Y-92242881D01*
X162455829Y-92233530D01*
X162564804Y-92124745D01*
X162639177Y-91945633D01*
X162639347Y-91751694D01*
X162565286Y-91572452D01*
X162428269Y-91435196D01*
X162249157Y-91360823D01*
X162106164Y-91360698D01*
X161697978Y-90952512D01*
X163191310Y-90952512D01*
X163423355Y-91215302D01*
X164252538Y-91515283D01*
X165133401Y-91475115D01*
X165760645Y-91215302D01*
X165992690Y-90952512D01*
X164592000Y-89551822D01*
X163191310Y-90952512D01*
X161697978Y-90952512D01*
X161058494Y-90313028D01*
X160957112Y-90245287D01*
X160837523Y-90221499D01*
X146813999Y-90221499D01*
X146694410Y-90245287D01*
X146593028Y-90313028D01*
X146320028Y-90586028D01*
X146252287Y-90687410D01*
X146228499Y-90806999D01*
X146228499Y-99315999D01*
X146252287Y-99435588D01*
X146266698Y-99457155D01*
X146320028Y-99536970D01*
X147514617Y-100731559D01*
X147401402Y-100731460D01*
X145762971Y-99093029D01*
X145709376Y-99057218D01*
X145701524Y-99038214D01*
X145564507Y-98900958D01*
X145385395Y-98826585D01*
X145191456Y-98826415D01*
X145012214Y-98900476D01*
X144874958Y-99037493D01*
X144800585Y-99216605D01*
X144800415Y-99410544D01*
X144874476Y-99589786D01*
X145011493Y-99727042D01*
X145190605Y-99801415D01*
X145384544Y-99801585D01*
X145528261Y-99742203D01*
X146959540Y-101173482D01*
X146959415Y-101315544D01*
X147033476Y-101494786D01*
X147170493Y-101632042D01*
X147349605Y-101706415D01*
X147543544Y-101706585D01*
X147722786Y-101632524D01*
X147860042Y-101495507D01*
X147934415Y-101316395D01*
X147934560Y-101151502D01*
X148006499Y-101223441D01*
X148006499Y-104122999D01*
X148030287Y-104242588D01*
X148079871Y-104316796D01*
X148098028Y-104343970D01*
X148229540Y-104475482D01*
X148229415Y-104617544D01*
X148303476Y-104796786D01*
X148440493Y-104934042D01*
X148619605Y-105008415D01*
X148813544Y-105008585D01*
X148992786Y-104934524D01*
X149130042Y-104797507D01*
X149204415Y-104618395D01*
X149204585Y-104424456D01*
X149130524Y-104245214D01*
X148993507Y-104107958D01*
X148814395Y-104033585D01*
X148671402Y-104033460D01*
X148631499Y-103993557D01*
X148631499Y-101093999D01*
X148624632Y-101059476D01*
X148607712Y-100974411D01*
X148539970Y-100873028D01*
X146853499Y-99186557D01*
X146853499Y-91498619D01*
X146968605Y-91546415D01*
X147111598Y-91546540D01*
X147861029Y-92295971D01*
X147962411Y-92363712D01*
X148082000Y-92387500D01*
X151135568Y-92387500D01*
X149526018Y-93997050D01*
X149458277Y-94098432D01*
X149434489Y-94218021D01*
X149434489Y-96152989D01*
X149458277Y-96272578D01*
X149526018Y-96373960D01*
X150642540Y-97490482D01*
X150642415Y-97632544D01*
X150692500Y-97753759D01*
X150692500Y-98080395D01*
X150642585Y-98200605D01*
X150642415Y-98394544D01*
X150692500Y-98515759D01*
X150692500Y-104276000D01*
X150725803Y-104443424D01*
X150820641Y-104585359D01*
X154240641Y-108005359D01*
X154382576Y-108100197D01*
X154550000Y-108133500D01*
X154858827Y-108133500D01*
X154858827Y-108221000D01*
X154873379Y-108294159D01*
X154914820Y-108356180D01*
X154976841Y-108397621D01*
X155050000Y-108412173D01*
X155647453Y-108412173D01*
X156446780Y-109211500D01*
X129548500Y-109211500D01*
X129548500Y-108605512D01*
X130425310Y-108605512D01*
X130657355Y-108868302D01*
X131486538Y-109168283D01*
X132367401Y-109128115D01*
X132994645Y-108868302D01*
X133226690Y-108605512D01*
X131826000Y-107204822D01*
X130425310Y-108605512D01*
X129548500Y-108605512D01*
X129548500Y-106594538D01*
X129591717Y-106594538D01*
X129631885Y-107475401D01*
X129891698Y-108102645D01*
X130154488Y-108334690D01*
X131555178Y-106934000D01*
X132096822Y-106934000D01*
X133497512Y-108334690D01*
X133760302Y-108102645D01*
X134060283Y-107273462D01*
X134020115Y-106392599D01*
X133760302Y-105765355D01*
X133497512Y-105533310D01*
X132096822Y-106934000D01*
X131555178Y-106934000D01*
X130154488Y-105533310D01*
X129891698Y-105765355D01*
X129591717Y-106594538D01*
X129548500Y-106594538D01*
X129548500Y-105262488D01*
X130425310Y-105262488D01*
X131826000Y-106663178D01*
X133226690Y-105262488D01*
X132994645Y-104999698D01*
X132165462Y-104699717D01*
X131284599Y-104739885D01*
X130657355Y-104999698D01*
X130425310Y-105262488D01*
X129548500Y-105262488D01*
X129548500Y-101919908D01*
X129659544Y-101919908D01*
X129794192Y-102159794D01*
X130053035Y-102354699D01*
X130366762Y-102435713D01*
X130497040Y-102353698D01*
X130497040Y-101798100D01*
X130880040Y-101798100D01*
X130880040Y-102353698D01*
X131010318Y-102435713D01*
X131324045Y-102354699D01*
X131582888Y-102159794D01*
X131717536Y-101919908D01*
X131675614Y-101798100D01*
X130880040Y-101798100D01*
X130497040Y-101798100D01*
X129701466Y-101798100D01*
X129659544Y-101919908D01*
X129548500Y-101919908D01*
X129548500Y-101293292D01*
X129659544Y-101293292D01*
X129701466Y-101415100D01*
X130497040Y-101415100D01*
X130497040Y-100859502D01*
X130880040Y-100859502D01*
X130880040Y-101415100D01*
X131675614Y-101415100D01*
X131717536Y-101293292D01*
X131582888Y-101053406D01*
X131406542Y-100920620D01*
X132618245Y-100920620D01*
X132739648Y-101202914D01*
X132959839Y-101417261D01*
X133079259Y-101485172D01*
X133197040Y-101442753D01*
X133197040Y-100798100D01*
X133580040Y-100798100D01*
X133580040Y-101442753D01*
X133697821Y-101485172D01*
X133817241Y-101417261D01*
X134037432Y-101202914D01*
X134158835Y-100920620D01*
X134095885Y-100798100D01*
X133580040Y-100798100D01*
X133197040Y-100798100D01*
X132681195Y-100798100D01*
X132618245Y-100920620D01*
X131406542Y-100920620D01*
X131324045Y-100858501D01*
X131010318Y-100777487D01*
X130880040Y-100859502D01*
X130497040Y-100859502D01*
X130366762Y-100777487D01*
X130053035Y-100858501D01*
X129794192Y-101053406D01*
X129659544Y-101293292D01*
X129548500Y-101293292D01*
X129548500Y-100292580D01*
X132618245Y-100292580D01*
X132681195Y-100415100D01*
X133197040Y-100415100D01*
X133197040Y-99770447D01*
X133580040Y-99770447D01*
X133580040Y-100415100D01*
X134095885Y-100415100D01*
X134158835Y-100292580D01*
X134037432Y-100010286D01*
X133817241Y-99795939D01*
X133697821Y-99728028D01*
X133580040Y-99770447D01*
X133197040Y-99770447D01*
X133079259Y-99728028D01*
X132959839Y-99795939D01*
X132739648Y-100010286D01*
X132618245Y-100292580D01*
X129548500Y-100292580D01*
X129548500Y-97950044D01*
X134513415Y-97950044D01*
X134587476Y-98129286D01*
X134688500Y-98230486D01*
X134688500Y-101599002D01*
X134712288Y-101718591D01*
X134748642Y-101772999D01*
X134780029Y-101819973D01*
X137321027Y-104360971D01*
X137422410Y-104428713D01*
X137541998Y-104452500D01*
X138878626Y-104452500D01*
X138978993Y-104553042D01*
X139158105Y-104627415D01*
X139352044Y-104627585D01*
X139531286Y-104553524D01*
X139668542Y-104416507D01*
X139742915Y-104237395D01*
X139743002Y-104137554D01*
X140482415Y-104137554D01*
X140556476Y-104316796D01*
X140693493Y-104454052D01*
X140872605Y-104528425D01*
X141015598Y-104528550D01*
X144531019Y-108043971D01*
X144632402Y-108111713D01*
X144633623Y-108111956D01*
X144757493Y-108236042D01*
X144936605Y-108310415D01*
X145130544Y-108310585D01*
X145309786Y-108236524D01*
X145447042Y-108099507D01*
X145521415Y-107920395D01*
X145521585Y-107726456D01*
X145447524Y-107547214D01*
X145310507Y-107409958D01*
X145131395Y-107335585D01*
X144937456Y-107335415D01*
X144773919Y-107402987D01*
X141457460Y-104086528D01*
X141457585Y-103944466D01*
X141383524Y-103765224D01*
X141246507Y-103627968D01*
X141067395Y-103553595D01*
X140873456Y-103553425D01*
X140694214Y-103627486D01*
X140556958Y-103764503D01*
X140482585Y-103943615D01*
X140482415Y-104137554D01*
X139743002Y-104137554D01*
X139743085Y-104043456D01*
X139669024Y-103864214D01*
X139532007Y-103726958D01*
X139352895Y-103652585D01*
X139158956Y-103652415D01*
X138979714Y-103726476D01*
X138878514Y-103827500D01*
X137671440Y-103827500D01*
X136766838Y-102922898D01*
X136795000Y-102928500D01*
X138878626Y-102928500D01*
X138978993Y-103029042D01*
X139158105Y-103103415D01*
X139352044Y-103103585D01*
X139531286Y-103029524D01*
X139668542Y-102892507D01*
X139742915Y-102713395D01*
X139743085Y-102519456D01*
X139669024Y-102340214D01*
X139532007Y-102202958D01*
X139352895Y-102128585D01*
X139158956Y-102128415D01*
X138979714Y-102202476D01*
X138878514Y-102303500D01*
X137028552Y-102303500D01*
X137028585Y-102265456D01*
X136954524Y-102086214D01*
X136817507Y-101948958D01*
X136638395Y-101874585D01*
X136444456Y-101874415D01*
X136265214Y-101948476D01*
X136127958Y-102085493D01*
X136069710Y-102225770D01*
X135313500Y-101469560D01*
X135313500Y-98230374D01*
X135414042Y-98130007D01*
X135488415Y-97950895D01*
X135488585Y-97756956D01*
X135414524Y-97577714D01*
X135277507Y-97440458D01*
X135098395Y-97366085D01*
X134904456Y-97365915D01*
X134725214Y-97439976D01*
X134587958Y-97576993D01*
X134513585Y-97756105D01*
X134513415Y-97950044D01*
X129548500Y-97950044D01*
X129548500Y-95920620D01*
X132618245Y-95920620D01*
X132739648Y-96202914D01*
X132959839Y-96417261D01*
X133079259Y-96485172D01*
X133197040Y-96442753D01*
X133197040Y-95798100D01*
X133580040Y-95798100D01*
X133580040Y-96442753D01*
X133697821Y-96485172D01*
X133817241Y-96417261D01*
X134037432Y-96202914D01*
X134158835Y-95920620D01*
X134095885Y-95798100D01*
X133580040Y-95798100D01*
X133197040Y-95798100D01*
X132681195Y-95798100D01*
X132618245Y-95920620D01*
X129548500Y-95920620D01*
X129548500Y-94919908D01*
X129659544Y-94919908D01*
X129794192Y-95159794D01*
X130053035Y-95354699D01*
X130366762Y-95435713D01*
X130497040Y-95353698D01*
X130497040Y-94798100D01*
X130880040Y-94798100D01*
X130880040Y-95353698D01*
X131010318Y-95435713D01*
X131324045Y-95354699D01*
X131406541Y-95292580D01*
X132618245Y-95292580D01*
X132681195Y-95415100D01*
X133197040Y-95415100D01*
X133197040Y-94770447D01*
X133580040Y-94770447D01*
X133580040Y-95415100D01*
X134095885Y-95415100D01*
X134158835Y-95292580D01*
X134037432Y-95010286D01*
X133817241Y-94795939D01*
X133697821Y-94728028D01*
X133580040Y-94770447D01*
X133197040Y-94770447D01*
X133079259Y-94728028D01*
X132959839Y-94795939D01*
X132739648Y-95010286D01*
X132618245Y-95292580D01*
X131406541Y-95292580D01*
X131582888Y-95159794D01*
X131717536Y-94919908D01*
X131675614Y-94798100D01*
X130880040Y-94798100D01*
X130497040Y-94798100D01*
X129701466Y-94798100D01*
X129659544Y-94919908D01*
X129548500Y-94919908D01*
X129548500Y-94293292D01*
X129659544Y-94293292D01*
X129701466Y-94415100D01*
X130497040Y-94415100D01*
X130497040Y-93859502D01*
X130880040Y-93859502D01*
X130880040Y-94415100D01*
X131675614Y-94415100D01*
X131717536Y-94293292D01*
X131582888Y-94053406D01*
X131324045Y-93858501D01*
X131010318Y-93777487D01*
X130880040Y-93859502D01*
X130497040Y-93859502D01*
X130366762Y-93777487D01*
X130053035Y-93858501D01*
X129794192Y-94053406D01*
X129659544Y-94293292D01*
X129548500Y-94293292D01*
X129548500Y-91416893D01*
X129935823Y-91730399D01*
X130160573Y-91823476D01*
X130364500Y-91789659D01*
X130364500Y-90742500D01*
X130747500Y-90742500D01*
X130747500Y-91789659D01*
X130951427Y-91823476D01*
X131176177Y-91730399D01*
X131580305Y-91403291D01*
X131828492Y-90946430D01*
X131795559Y-90742500D01*
X130747500Y-90742500D01*
X130364500Y-90742500D01*
X130344500Y-90742500D01*
X130344500Y-90359500D01*
X130364500Y-90359500D01*
X130364500Y-89312341D01*
X130747500Y-89312341D01*
X130747500Y-90359500D01*
X131795559Y-90359500D01*
X131828492Y-90155570D01*
X131580305Y-89698709D01*
X131176177Y-89371601D01*
X130951427Y-89278524D01*
X130747500Y-89312341D01*
X130364500Y-89312341D01*
X130160573Y-89278524D01*
X129935823Y-89371601D01*
X129548500Y-89685107D01*
X129548500Y-89218173D01*
X131572000Y-89218173D01*
X131645159Y-89203621D01*
X131707180Y-89162180D01*
X131748621Y-89100159D01*
X131763173Y-89027000D01*
X131763173Y-88941538D01*
X162357717Y-88941538D01*
X162397885Y-89822401D01*
X162657698Y-90449645D01*
X162920488Y-90681690D01*
X164321178Y-89281000D01*
X164862822Y-89281000D01*
X166263512Y-90681690D01*
X166526302Y-90449645D01*
X166826283Y-89620462D01*
X166786115Y-88739599D01*
X166526302Y-88112355D01*
X166263512Y-87880310D01*
X164862822Y-89281000D01*
X164321178Y-89281000D01*
X162920488Y-87880310D01*
X162657698Y-88112355D01*
X162357717Y-88941538D01*
X131763173Y-88941538D01*
X131763173Y-87609488D01*
X163191310Y-87609488D01*
X164592000Y-89010178D01*
X165992690Y-87609488D01*
X165760645Y-87346698D01*
X164931462Y-87046717D01*
X164050599Y-87086885D01*
X163423355Y-87346698D01*
X163191310Y-87609488D01*
X131763173Y-87609488D01*
X131763173Y-87003500D01*
X166869500Y-87003500D01*
X166869500Y-109211500D01*
X166869500Y-109211500D01*
G37*
X166869500Y-109211500D02*
X165028218Y-109211500D01*
X165518547Y-108721171D01*
X165540675Y-108730359D01*
X165863907Y-108730641D01*
X166162643Y-108607206D01*
X166391402Y-108378845D01*
X166515359Y-108080325D01*
X166515641Y-107757093D01*
X166392206Y-107458357D01*
X166163845Y-107229598D01*
X165865325Y-107105641D01*
X165542093Y-107105359D01*
X165393640Y-107166698D01*
X164812971Y-106586029D01*
X164784646Y-106567103D01*
X164711589Y-106518288D01*
X164592000Y-106494500D01*
X164275545Y-106494500D01*
X164391402Y-106378845D01*
X164515359Y-106080325D01*
X164515360Y-106078907D01*
X164890359Y-106078907D01*
X165013794Y-106377643D01*
X165242155Y-106606402D01*
X165540675Y-106730359D01*
X165863907Y-106730641D01*
X166162643Y-106607206D01*
X166391402Y-106378845D01*
X166515359Y-106080325D01*
X166515641Y-105757093D01*
X166392206Y-105458357D01*
X166163845Y-105229598D01*
X165865325Y-105105641D01*
X165542093Y-105105359D01*
X165243357Y-105228794D01*
X165014598Y-105457155D01*
X164890641Y-105755675D01*
X164890359Y-106078907D01*
X164515360Y-106078907D01*
X164515641Y-105757093D01*
X164392206Y-105458357D01*
X164163845Y-105229598D01*
X163865325Y-105105641D01*
X163542093Y-105105359D01*
X163243357Y-105228794D01*
X163014598Y-105457155D01*
X162890641Y-105755675D01*
X162890496Y-105921556D01*
X161255183Y-104286243D01*
X161346806Y-104286323D01*
X161526048Y-104212262D01*
X161659635Y-104078907D01*
X162890359Y-104078907D01*
X163013794Y-104377643D01*
X163242155Y-104606402D01*
X163540675Y-104730359D01*
X163863907Y-104730641D01*
X164162643Y-104607206D01*
X164391402Y-104378845D01*
X164515359Y-104080325D01*
X164515360Y-104078907D01*
X164890359Y-104078907D01*
X165013794Y-104377643D01*
X165242155Y-104606402D01*
X165540675Y-104730359D01*
X165863907Y-104730641D01*
X166162643Y-104607206D01*
X166391402Y-104378845D01*
X166515359Y-104080325D01*
X166515641Y-103757093D01*
X166392206Y-103458357D01*
X166163845Y-103229598D01*
X165865325Y-103105641D01*
X165542093Y-103105359D01*
X165243357Y-103228794D01*
X165014598Y-103457155D01*
X164890641Y-103755675D01*
X164890359Y-104078907D01*
X164515360Y-104078907D01*
X164515641Y-103757093D01*
X164392206Y-103458357D01*
X164163845Y-103229598D01*
X163865325Y-103105641D01*
X163542093Y-103105359D01*
X163243357Y-103228794D01*
X163014598Y-103457155D01*
X162890641Y-103755675D01*
X162890359Y-104078907D01*
X161659635Y-104078907D01*
X161663304Y-104075245D01*
X161737677Y-103896133D01*
X161737847Y-103702194D01*
X161663786Y-103522952D01*
X161562762Y-103421752D01*
X161562762Y-102078907D01*
X162890359Y-102078907D01*
X163013794Y-102377643D01*
X163242155Y-102606402D01*
X163540675Y-102730359D01*
X163863907Y-102730641D01*
X164162643Y-102607206D01*
X164391402Y-102378845D01*
X164515359Y-102080325D01*
X164515360Y-102078907D01*
X164890359Y-102078907D01*
X165013794Y-102377643D01*
X165242155Y-102606402D01*
X165540675Y-102730359D01*
X165863907Y-102730641D01*
X166162643Y-102607206D01*
X166391402Y-102378845D01*
X166515359Y-102080325D01*
X166515641Y-101757093D01*
X166392206Y-101458357D01*
X166163845Y-101229598D01*
X165865325Y-101105641D01*
X165542093Y-101105359D01*
X165243357Y-101228794D01*
X165014598Y-101457155D01*
X164890641Y-101755675D01*
X164890359Y-102078907D01*
X164515360Y-102078907D01*
X164515641Y-101757093D01*
X164392206Y-101458357D01*
X164163845Y-101229598D01*
X163865325Y-101105641D01*
X163542093Y-101105359D01*
X163243357Y-101228794D01*
X163014598Y-101457155D01*
X162890641Y-101755675D01*
X162890359Y-102078907D01*
X161562762Y-102078907D01*
X161562762Y-100078907D01*
X162890359Y-100078907D01*
X163013794Y-100377643D01*
X163242155Y-100606402D01*
X163540675Y-100730359D01*
X163863907Y-100730641D01*
X164162643Y-100607206D01*
X164391402Y-100378845D01*
X164515359Y-100080325D01*
X164515360Y-100078907D01*
X164890359Y-100078907D01*
X165013794Y-100377643D01*
X165242155Y-100606402D01*
X165540675Y-100730359D01*
X165863907Y-100730641D01*
X166162643Y-100607206D01*
X166391402Y-100378845D01*
X166515359Y-100080325D01*
X166515641Y-99757093D01*
X166392206Y-99458357D01*
X166163845Y-99229598D01*
X165865325Y-99105641D01*
X165542093Y-99105359D01*
X165243357Y-99228794D01*
X165014598Y-99457155D01*
X164890641Y-99755675D01*
X164890359Y-100078907D01*
X164515360Y-100078907D01*
X164515641Y-99757093D01*
X164392206Y-99458357D01*
X164163845Y-99229598D01*
X163865325Y-99105641D01*
X163542093Y-99105359D01*
X163243357Y-99228794D01*
X163014598Y-99457155D01*
X162890641Y-99755675D01*
X162890359Y-100078907D01*
X161562762Y-100078907D01*
X161562762Y-98078907D01*
X162890359Y-98078907D01*
X163013794Y-98377643D01*
X163242155Y-98606402D01*
X163540675Y-98730359D01*
X163863907Y-98730641D01*
X164162643Y-98607206D01*
X164391402Y-98378845D01*
X164515359Y-98080325D01*
X164515360Y-98078907D01*
X164890359Y-98078907D01*
X165013794Y-98377643D01*
X165242155Y-98606402D01*
X165540675Y-98730359D01*
X165863907Y-98730641D01*
X166162643Y-98607206D01*
X166391402Y-98378845D01*
X166515359Y-98080325D01*
X166515641Y-97757093D01*
X166392206Y-97458357D01*
X166163845Y-97229598D01*
X165865325Y-97105641D01*
X165542093Y-97105359D01*
X165243357Y-97228794D01*
X165014598Y-97457155D01*
X164890641Y-97755675D01*
X164890359Y-98078907D01*
X164515360Y-98078907D01*
X164515641Y-97757093D01*
X164392206Y-97458357D01*
X164163845Y-97229598D01*
X163865325Y-97105641D01*
X163542093Y-97105359D01*
X163243357Y-97228794D01*
X163014598Y-97457155D01*
X162890641Y-97755675D01*
X162890359Y-98078907D01*
X161562762Y-98078907D01*
X161562762Y-94560260D01*
X161538975Y-94440672D01*
X161471233Y-94339289D01*
X160971974Y-93840030D01*
X160951647Y-93826448D01*
X160870592Y-93772289D01*
X160751003Y-93748501D01*
X159396990Y-93748501D01*
X159277402Y-93772288D01*
X159176019Y-93840030D01*
X159142509Y-93873540D01*
X159000447Y-93873415D01*
X158821205Y-93947476D01*
X158683949Y-94084493D01*
X158609576Y-94263605D01*
X158609406Y-94457544D01*
X158683467Y-94636786D01*
X158820484Y-94774042D01*
X158999596Y-94848415D01*
X159193535Y-94848585D01*
X159372777Y-94774524D01*
X159510033Y-94637507D01*
X159584406Y-94458395D01*
X159584480Y-94373501D01*
X160621561Y-94373501D01*
X160937762Y-94689702D01*
X160937762Y-103421864D01*
X160837220Y-103522231D01*
X160762847Y-103701343D01*
X160762766Y-103793826D01*
X158981499Y-102012559D01*
X158981499Y-101772999D01*
X158976683Y-101748786D01*
X158957712Y-101653411D01*
X158889970Y-101552028D01*
X158589971Y-101252029D01*
X158536377Y-101216219D01*
X158528524Y-101197214D01*
X158391507Y-101059958D01*
X158212395Y-100985585D01*
X158018456Y-100985415D01*
X157839214Y-101059476D01*
X157701958Y-101196493D01*
X157627585Y-101375605D01*
X157627415Y-101569544D01*
X157701476Y-101748786D01*
X157838493Y-101886042D01*
X158017605Y-101960415D01*
X158211544Y-101960585D01*
X158355261Y-101901203D01*
X158356499Y-101902441D01*
X158356499Y-102142001D01*
X158380287Y-102261590D01*
X158424185Y-102327288D01*
X158448028Y-102362972D01*
X163113027Y-107027971D01*
X163214410Y-107095713D01*
X163269407Y-107106652D01*
X163230475Y-107174653D01*
X163703000Y-107647178D01*
X164175525Y-107174653D01*
X164143949Y-107119500D01*
X164462558Y-107119500D01*
X164951696Y-107608638D01*
X164890641Y-107755675D01*
X164890359Y-108078907D01*
X164900012Y-108102270D01*
X164360781Y-108641501D01*
X164155679Y-108641501D01*
X163703000Y-108188822D01*
X163250321Y-108641501D01*
X157114217Y-108641501D01*
X156996480Y-108523764D01*
X157164976Y-108492088D01*
X157181663Y-108485176D01*
X157243421Y-108365243D01*
X157716579Y-108365243D01*
X157778337Y-108485176D01*
X158105969Y-108553938D01*
X158434976Y-108492088D01*
X158451663Y-108485176D01*
X158513421Y-108365243D01*
X158115000Y-107966822D01*
X157716579Y-108365243D01*
X157243421Y-108365243D01*
X156845000Y-107966822D01*
X156830858Y-107980964D01*
X156560036Y-107710142D01*
X156574178Y-107696000D01*
X157115822Y-107696000D01*
X157291852Y-107872030D01*
X157318912Y-108015976D01*
X157325824Y-108032663D01*
X157445757Y-108094421D01*
X157480000Y-108060178D01*
X157514243Y-108094421D01*
X157634176Y-108032663D01*
X157667820Y-107872358D01*
X157844178Y-107696000D01*
X157668148Y-107519970D01*
X157641088Y-107376024D01*
X157634176Y-107359337D01*
X157514243Y-107297579D01*
X157480000Y-107331822D01*
X157445757Y-107297579D01*
X157325824Y-107359337D01*
X157292180Y-107519642D01*
X157115822Y-107696000D01*
X156574178Y-107696000D01*
X156560036Y-107681858D01*
X156830858Y-107411036D01*
X156845000Y-107425178D01*
X157233970Y-107036208D01*
X157248072Y-107030381D01*
X157448676Y-106830126D01*
X157479942Y-106754828D01*
X157510619Y-106829072D01*
X157710874Y-107029676D01*
X157725622Y-107035800D01*
X158115000Y-107425178D01*
X158503970Y-107036208D01*
X158518072Y-107030381D01*
X158718676Y-106830126D01*
X158749942Y-106754828D01*
X158780619Y-106829072D01*
X158980874Y-107029676D01*
X159056172Y-107060942D01*
X158981928Y-107091619D01*
X158781324Y-107291874D01*
X158775200Y-107306622D01*
X158385822Y-107696000D01*
X158774792Y-108084970D01*
X158780619Y-108099072D01*
X158980874Y-108299676D01*
X159242653Y-108408376D01*
X159526103Y-108408624D01*
X159631093Y-108365243D01*
X160256579Y-108365243D01*
X160318337Y-108485176D01*
X160645969Y-108553938D01*
X160974976Y-108492088D01*
X160991663Y-108485176D01*
X161053421Y-108365243D01*
X160655000Y-107966822D01*
X160256579Y-108365243D01*
X159631093Y-108365243D01*
X159788072Y-108300381D01*
X159988676Y-108100126D01*
X159994800Y-108085378D01*
X160384178Y-107696000D01*
X160925822Y-107696000D01*
X161324243Y-108094421D01*
X161444176Y-108032663D01*
X161475247Y-107884618D01*
X162743635Y-107884618D01*
X162803888Y-108254292D01*
X162829437Y-108315974D01*
X162959653Y-108390525D01*
X163432178Y-107918000D01*
X163973822Y-107918000D01*
X164446347Y-108390525D01*
X164576563Y-108315974D01*
X164662365Y-107951382D01*
X164602112Y-107581708D01*
X164576563Y-107520026D01*
X164446347Y-107445475D01*
X163973822Y-107918000D01*
X163432178Y-107918000D01*
X162959653Y-107445475D01*
X162829437Y-107520026D01*
X162743635Y-107884618D01*
X161475247Y-107884618D01*
X161512938Y-107705031D01*
X161451088Y-107376024D01*
X161444176Y-107359337D01*
X161324243Y-107297579D01*
X160925822Y-107696000D01*
X160384178Y-107696000D01*
X159995208Y-107307030D01*
X159989381Y-107292928D01*
X159789126Y-107092324D01*
X159713828Y-107061058D01*
X159788072Y-107030381D01*
X159988676Y-106830126D01*
X160019942Y-106754828D01*
X160050619Y-106829072D01*
X160250874Y-107029676D01*
X160265622Y-107035800D01*
X160655000Y-107425178D01*
X161043970Y-107036208D01*
X161058072Y-107030381D01*
X161258676Y-106830126D01*
X161367376Y-106568347D01*
X161367624Y-106284897D01*
X161259381Y-106022928D01*
X161059126Y-105822324D01*
X160797347Y-105713624D01*
X160513897Y-105713376D01*
X160251928Y-105821619D01*
X160051324Y-106021874D01*
X160020058Y-106097172D01*
X159989381Y-106022928D01*
X159789126Y-105822324D01*
X159527347Y-105713624D01*
X159243897Y-105713376D01*
X158981928Y-105821619D01*
X158781324Y-106021874D01*
X158750058Y-106097172D01*
X158719381Y-106022928D01*
X158519126Y-105822324D01*
X158257347Y-105713624D01*
X157973897Y-105713376D01*
X157711928Y-105821619D01*
X157511324Y-106021874D01*
X157480058Y-106097172D01*
X157449381Y-106022928D01*
X157249126Y-105822324D01*
X156987347Y-105713624D01*
X156703897Y-105713376D01*
X156612204Y-105751262D01*
X154346499Y-103485557D01*
X154346499Y-100553544D01*
X154452415Y-100553544D01*
X154526476Y-100732786D01*
X154663493Y-100870042D01*
X154842605Y-100944415D01*
X155036544Y-100944585D01*
X155215786Y-100870524D01*
X155316986Y-100769500D01*
X159509558Y-100769500D01*
X159786540Y-101046482D01*
X159786415Y-101188544D01*
X159860476Y-101367786D01*
X159997493Y-101505042D01*
X160176605Y-101579415D01*
X160370544Y-101579585D01*
X160549786Y-101505524D01*
X160687042Y-101368507D01*
X160761415Y-101189395D01*
X160761585Y-100995456D01*
X160687524Y-100816214D01*
X160550507Y-100678958D01*
X160371395Y-100604585D01*
X160228402Y-100604460D01*
X159859971Y-100236029D01*
X159841093Y-100223415D01*
X159758589Y-100168288D01*
X159639000Y-100144500D01*
X155316874Y-100144500D01*
X155216507Y-100043958D01*
X155037395Y-99969585D01*
X154843456Y-99969415D01*
X154664214Y-100043476D01*
X154526958Y-100180493D01*
X154452585Y-100359605D01*
X154452415Y-100553544D01*
X154346499Y-100553544D01*
X154346499Y-97936443D01*
X157307482Y-94975460D01*
X157449544Y-94975585D01*
X157628786Y-94901524D01*
X157766042Y-94764507D01*
X157840415Y-94585395D01*
X157840585Y-94391456D01*
X157766524Y-94212214D01*
X157629507Y-94074958D01*
X157450395Y-94000585D01*
X157256456Y-94000415D01*
X157077214Y-94074476D01*
X156939958Y-94211493D01*
X156934817Y-94223874D01*
X156877524Y-94085214D01*
X156769169Y-93976670D01*
X156919516Y-93826323D01*
X157061578Y-93826448D01*
X157240820Y-93752387D01*
X157378076Y-93615370D01*
X157452449Y-93436258D01*
X157452619Y-93242319D01*
X157404707Y-93126362D01*
X160469420Y-93126362D01*
X162951696Y-95608638D01*
X162890641Y-95755675D01*
X162890359Y-96078907D01*
X163013794Y-96377643D01*
X163242155Y-96606402D01*
X163540675Y-96730359D01*
X163863907Y-96730641D01*
X164162643Y-96607206D01*
X164391402Y-96378845D01*
X164515359Y-96080325D01*
X164515641Y-95757093D01*
X164392206Y-95458357D01*
X164163845Y-95229598D01*
X163865325Y-95105641D01*
X163542093Y-95105359D01*
X163393640Y-95166698D01*
X161003294Y-92776352D01*
X162119410Y-92776352D01*
X164951696Y-95608638D01*
X164890641Y-95755675D01*
X164890359Y-96078907D01*
X165013794Y-96377643D01*
X165242155Y-96606402D01*
X165540675Y-96730359D01*
X165863907Y-96730641D01*
X166162643Y-96607206D01*
X166391402Y-96378845D01*
X166515359Y-96080325D01*
X166515641Y-95757093D01*
X166392206Y-95458357D01*
X166163845Y-95229598D01*
X165865325Y-95105641D01*
X165542093Y-95105359D01*
X165393640Y-95166698D01*
X162469823Y-92242881D01*
X162455829Y-92233530D01*
X162564804Y-92124745D01*
X162639177Y-91945633D01*
X162639347Y-91751694D01*
X162565286Y-91572452D01*
X162428269Y-91435196D01*
X162249157Y-91360823D01*
X162106164Y-91360698D01*
X161697978Y-90952512D01*
X163191310Y-90952512D01*
X163423355Y-91215302D01*
X164252538Y-91515283D01*
X165133401Y-91475115D01*
X165760645Y-91215302D01*
X165992690Y-90952512D01*
X164592000Y-89551822D01*
X163191310Y-90952512D01*
X161697978Y-90952512D01*
X161058494Y-90313028D01*
X160957112Y-90245287D01*
X160837523Y-90221499D01*
X146813999Y-90221499D01*
X146694410Y-90245287D01*
X146593028Y-90313028D01*
X146320028Y-90586028D01*
X146252287Y-90687410D01*
X146228499Y-90806999D01*
X146228499Y-99315999D01*
X146252287Y-99435588D01*
X146266698Y-99457155D01*
X146320028Y-99536970D01*
X147514617Y-100731559D01*
X147401402Y-100731460D01*
X145762971Y-99093029D01*
X145709376Y-99057218D01*
X145701524Y-99038214D01*
X145564507Y-98900958D01*
X145385395Y-98826585D01*
X145191456Y-98826415D01*
X145012214Y-98900476D01*
X144874958Y-99037493D01*
X144800585Y-99216605D01*
X144800415Y-99410544D01*
X144874476Y-99589786D01*
X145011493Y-99727042D01*
X145190605Y-99801415D01*
X145384544Y-99801585D01*
X145528261Y-99742203D01*
X146959540Y-101173482D01*
X146959415Y-101315544D01*
X147033476Y-101494786D01*
X147170493Y-101632042D01*
X147349605Y-101706415D01*
X147543544Y-101706585D01*
X147722786Y-101632524D01*
X147860042Y-101495507D01*
X147934415Y-101316395D01*
X147934560Y-101151502D01*
X148006499Y-101223441D01*
X148006499Y-104122999D01*
X148030287Y-104242588D01*
X148079871Y-104316796D01*
X148098028Y-104343970D01*
X148229540Y-104475482D01*
X148229415Y-104617544D01*
X148303476Y-104796786D01*
X148440493Y-104934042D01*
X148619605Y-105008415D01*
X148813544Y-105008585D01*
X148992786Y-104934524D01*
X149130042Y-104797507D01*
X149204415Y-104618395D01*
X149204585Y-104424456D01*
X149130524Y-104245214D01*
X148993507Y-104107958D01*
X148814395Y-104033585D01*
X148671402Y-104033460D01*
X148631499Y-103993557D01*
X148631499Y-101093999D01*
X148624632Y-101059476D01*
X148607712Y-100974411D01*
X148539970Y-100873028D01*
X146853499Y-99186557D01*
X146853499Y-91498619D01*
X146968605Y-91546415D01*
X147111598Y-91546540D01*
X147861029Y-92295971D01*
X147962411Y-92363712D01*
X148082000Y-92387500D01*
X151135568Y-92387500D01*
X149526018Y-93997050D01*
X149458277Y-94098432D01*
X149434489Y-94218021D01*
X149434489Y-96152989D01*
X149458277Y-96272578D01*
X149526018Y-96373960D01*
X150642540Y-97490482D01*
X150642415Y-97632544D01*
X150692500Y-97753759D01*
X150692500Y-98080395D01*
X150642585Y-98200605D01*
X150642415Y-98394544D01*
X150692500Y-98515759D01*
X150692500Y-104276000D01*
X150725803Y-104443424D01*
X150820641Y-104585359D01*
X154240641Y-108005359D01*
X154382576Y-108100197D01*
X154550000Y-108133500D01*
X154858827Y-108133500D01*
X154858827Y-108221000D01*
X154873379Y-108294159D01*
X154914820Y-108356180D01*
X154976841Y-108397621D01*
X155050000Y-108412173D01*
X155647453Y-108412173D01*
X156446780Y-109211500D01*
X129548500Y-109211500D01*
X129548500Y-108605512D01*
X130425310Y-108605512D01*
X130657355Y-108868302D01*
X131486538Y-109168283D01*
X132367401Y-109128115D01*
X132994645Y-108868302D01*
X133226690Y-108605512D01*
X131826000Y-107204822D01*
X130425310Y-108605512D01*
X129548500Y-108605512D01*
X129548500Y-106594538D01*
X129591717Y-106594538D01*
X129631885Y-107475401D01*
X129891698Y-108102645D01*
X130154488Y-108334690D01*
X131555178Y-106934000D01*
X132096822Y-106934000D01*
X133497512Y-108334690D01*
X133760302Y-108102645D01*
X134060283Y-107273462D01*
X134020115Y-106392599D01*
X133760302Y-105765355D01*
X133497512Y-105533310D01*
X132096822Y-106934000D01*
X131555178Y-106934000D01*
X130154488Y-105533310D01*
X129891698Y-105765355D01*
X129591717Y-106594538D01*
X129548500Y-106594538D01*
X129548500Y-105262488D01*
X130425310Y-105262488D01*
X131826000Y-106663178D01*
X133226690Y-105262488D01*
X132994645Y-104999698D01*
X132165462Y-104699717D01*
X131284599Y-104739885D01*
X130657355Y-104999698D01*
X130425310Y-105262488D01*
X129548500Y-105262488D01*
X129548500Y-101919908D01*
X129659544Y-101919908D01*
X129794192Y-102159794D01*
X130053035Y-102354699D01*
X130366762Y-102435713D01*
X130497040Y-102353698D01*
X130497040Y-101798100D01*
X130880040Y-101798100D01*
X130880040Y-102353698D01*
X131010318Y-102435713D01*
X131324045Y-102354699D01*
X131582888Y-102159794D01*
X131717536Y-101919908D01*
X131675614Y-101798100D01*
X130880040Y-101798100D01*
X130497040Y-101798100D01*
X129701466Y-101798100D01*
X129659544Y-101919908D01*
X129548500Y-101919908D01*
X129548500Y-101293292D01*
X129659544Y-101293292D01*
X129701466Y-101415100D01*
X130497040Y-101415100D01*
X130497040Y-100859502D01*
X130880040Y-100859502D01*
X130880040Y-101415100D01*
X131675614Y-101415100D01*
X131717536Y-101293292D01*
X131582888Y-101053406D01*
X131406542Y-100920620D01*
X132618245Y-100920620D01*
X132739648Y-101202914D01*
X132959839Y-101417261D01*
X133079259Y-101485172D01*
X133197040Y-101442753D01*
X133197040Y-100798100D01*
X133580040Y-100798100D01*
X133580040Y-101442753D01*
X133697821Y-101485172D01*
X133817241Y-101417261D01*
X134037432Y-101202914D01*
X134158835Y-100920620D01*
X134095885Y-100798100D01*
X133580040Y-100798100D01*
X133197040Y-100798100D01*
X132681195Y-100798100D01*
X132618245Y-100920620D01*
X131406542Y-100920620D01*
X131324045Y-100858501D01*
X131010318Y-100777487D01*
X130880040Y-100859502D01*
X130497040Y-100859502D01*
X130366762Y-100777487D01*
X130053035Y-100858501D01*
X129794192Y-101053406D01*
X129659544Y-101293292D01*
X129548500Y-101293292D01*
X129548500Y-100292580D01*
X132618245Y-100292580D01*
X132681195Y-100415100D01*
X133197040Y-100415100D01*
X133197040Y-99770447D01*
X133580040Y-99770447D01*
X133580040Y-100415100D01*
X134095885Y-100415100D01*
X134158835Y-100292580D01*
X134037432Y-100010286D01*
X133817241Y-99795939D01*
X133697821Y-99728028D01*
X133580040Y-99770447D01*
X133197040Y-99770447D01*
X133079259Y-99728028D01*
X132959839Y-99795939D01*
X132739648Y-100010286D01*
X132618245Y-100292580D01*
X129548500Y-100292580D01*
X129548500Y-97950044D01*
X134513415Y-97950044D01*
X134587476Y-98129286D01*
X134688500Y-98230486D01*
X134688500Y-101599002D01*
X134712288Y-101718591D01*
X134748642Y-101772999D01*
X134780029Y-101819973D01*
X137321027Y-104360971D01*
X137422410Y-104428713D01*
X137541998Y-104452500D01*
X138878626Y-104452500D01*
X138978993Y-104553042D01*
X139158105Y-104627415D01*
X139352044Y-104627585D01*
X139531286Y-104553524D01*
X139668542Y-104416507D01*
X139742915Y-104237395D01*
X139743002Y-104137554D01*
X140482415Y-104137554D01*
X140556476Y-104316796D01*
X140693493Y-104454052D01*
X140872605Y-104528425D01*
X141015598Y-104528550D01*
X144531019Y-108043971D01*
X144632402Y-108111713D01*
X144633623Y-108111956D01*
X144757493Y-108236042D01*
X144936605Y-108310415D01*
X145130544Y-108310585D01*
X145309786Y-108236524D01*
X145447042Y-108099507D01*
X145521415Y-107920395D01*
X145521585Y-107726456D01*
X145447524Y-107547214D01*
X145310507Y-107409958D01*
X145131395Y-107335585D01*
X144937456Y-107335415D01*
X144773919Y-107402987D01*
X141457460Y-104086528D01*
X141457585Y-103944466D01*
X141383524Y-103765224D01*
X141246507Y-103627968D01*
X141067395Y-103553595D01*
X140873456Y-103553425D01*
X140694214Y-103627486D01*
X140556958Y-103764503D01*
X140482585Y-103943615D01*
X140482415Y-104137554D01*
X139743002Y-104137554D01*
X139743085Y-104043456D01*
X139669024Y-103864214D01*
X139532007Y-103726958D01*
X139352895Y-103652585D01*
X139158956Y-103652415D01*
X138979714Y-103726476D01*
X138878514Y-103827500D01*
X137671440Y-103827500D01*
X136766838Y-102922898D01*
X136795000Y-102928500D01*
X138878626Y-102928500D01*
X138978993Y-103029042D01*
X139158105Y-103103415D01*
X139352044Y-103103585D01*
X139531286Y-103029524D01*
X139668542Y-102892507D01*
X139742915Y-102713395D01*
X139743085Y-102519456D01*
X139669024Y-102340214D01*
X139532007Y-102202958D01*
X139352895Y-102128585D01*
X139158956Y-102128415D01*
X138979714Y-102202476D01*
X138878514Y-102303500D01*
X137028552Y-102303500D01*
X137028585Y-102265456D01*
X136954524Y-102086214D01*
X136817507Y-101948958D01*
X136638395Y-101874585D01*
X136444456Y-101874415D01*
X136265214Y-101948476D01*
X136127958Y-102085493D01*
X136069710Y-102225770D01*
X135313500Y-101469560D01*
X135313500Y-98230374D01*
X135414042Y-98130007D01*
X135488415Y-97950895D01*
X135488585Y-97756956D01*
X135414524Y-97577714D01*
X135277507Y-97440458D01*
X135098395Y-97366085D01*
X134904456Y-97365915D01*
X134725214Y-97439976D01*
X134587958Y-97576993D01*
X134513585Y-97756105D01*
X134513415Y-97950044D01*
X129548500Y-97950044D01*
X129548500Y-95920620D01*
X132618245Y-95920620D01*
X132739648Y-96202914D01*
X132959839Y-96417261D01*
X133079259Y-96485172D01*
X133197040Y-96442753D01*
X133197040Y-95798100D01*
X133580040Y-95798100D01*
X133580040Y-96442753D01*
X133697821Y-96485172D01*
X133817241Y-96417261D01*
X134037432Y-96202914D01*
X134158835Y-95920620D01*
X134095885Y-95798100D01*
X133580040Y-95798100D01*
X133197040Y-95798100D01*
X132681195Y-95798100D01*
X132618245Y-95920620D01*
X129548500Y-95920620D01*
X129548500Y-94919908D01*
X129659544Y-94919908D01*
X129794192Y-95159794D01*
X130053035Y-95354699D01*
X130366762Y-95435713D01*
X130497040Y-95353698D01*
X130497040Y-94798100D01*
X130880040Y-94798100D01*
X130880040Y-95353698D01*
X131010318Y-95435713D01*
X131324045Y-95354699D01*
X131406541Y-95292580D01*
X132618245Y-95292580D01*
X132681195Y-95415100D01*
X133197040Y-95415100D01*
X133197040Y-94770447D01*
X133580040Y-94770447D01*
X133580040Y-95415100D01*
X134095885Y-95415100D01*
X134158835Y-95292580D01*
X134037432Y-95010286D01*
X133817241Y-94795939D01*
X133697821Y-94728028D01*
X133580040Y-94770447D01*
X133197040Y-94770447D01*
X133079259Y-94728028D01*
X132959839Y-94795939D01*
X132739648Y-95010286D01*
X132618245Y-95292580D01*
X131406541Y-95292580D01*
X131582888Y-95159794D01*
X131717536Y-94919908D01*
X131675614Y-94798100D01*
X130880040Y-94798100D01*
X130497040Y-94798100D01*
X129701466Y-94798100D01*
X129659544Y-94919908D01*
X129548500Y-94919908D01*
X129548500Y-94293292D01*
X129659544Y-94293292D01*
X129701466Y-94415100D01*
X130497040Y-94415100D01*
X130497040Y-93859502D01*
X130880040Y-93859502D01*
X130880040Y-94415100D01*
X131675614Y-94415100D01*
X131717536Y-94293292D01*
X131582888Y-94053406D01*
X131324045Y-93858501D01*
X131010318Y-93777487D01*
X130880040Y-93859502D01*
X130497040Y-93859502D01*
X130366762Y-93777487D01*
X130053035Y-93858501D01*
X129794192Y-94053406D01*
X129659544Y-94293292D01*
X129548500Y-94293292D01*
X129548500Y-91416893D01*
X129935823Y-91730399D01*
X130160573Y-91823476D01*
X130364500Y-91789659D01*
X130364500Y-90742500D01*
X130747500Y-90742500D01*
X130747500Y-91789659D01*
X130951427Y-91823476D01*
X131176177Y-91730399D01*
X131580305Y-91403291D01*
X131828492Y-90946430D01*
X131795559Y-90742500D01*
X130747500Y-90742500D01*
X130364500Y-90742500D01*
X130344500Y-90742500D01*
X130344500Y-90359500D01*
X130364500Y-90359500D01*
X130364500Y-89312341D01*
X130747500Y-89312341D01*
X130747500Y-90359500D01*
X131795559Y-90359500D01*
X131828492Y-90155570D01*
X131580305Y-89698709D01*
X131176177Y-89371601D01*
X130951427Y-89278524D01*
X130747500Y-89312341D01*
X130364500Y-89312341D01*
X130160573Y-89278524D01*
X129935823Y-89371601D01*
X129548500Y-89685107D01*
X129548500Y-89218173D01*
X131572000Y-89218173D01*
X131645159Y-89203621D01*
X131707180Y-89162180D01*
X131748621Y-89100159D01*
X131763173Y-89027000D01*
X131763173Y-88941538D01*
X162357717Y-88941538D01*
X162397885Y-89822401D01*
X162657698Y-90449645D01*
X162920488Y-90681690D01*
X164321178Y-89281000D01*
X164862822Y-89281000D01*
X166263512Y-90681690D01*
X166526302Y-90449645D01*
X166826283Y-89620462D01*
X166786115Y-88739599D01*
X166526302Y-88112355D01*
X166263512Y-87880310D01*
X164862822Y-89281000D01*
X164321178Y-89281000D01*
X162920488Y-87880310D01*
X162657698Y-88112355D01*
X162357717Y-88941538D01*
X131763173Y-88941538D01*
X131763173Y-87609488D01*
X163191310Y-87609488D01*
X164592000Y-89010178D01*
X165992690Y-87609488D01*
X165760645Y-87346698D01*
X164931462Y-87046717D01*
X164050599Y-87086885D01*
X163423355Y-87346698D01*
X163191310Y-87609488D01*
X131763173Y-87609488D01*
X131763173Y-87003500D01*
X166869500Y-87003500D01*
X166869500Y-109211500D01*
G36*
X153371489Y-97141011D02*
X153371489Y-104534989D01*
X153395277Y-104654578D01*
X153452277Y-104739885D01*
X153463018Y-104755960D01*
X154900205Y-106193147D01*
X154862624Y-106283653D01*
X154862376Y-106567103D01*
X154970619Y-106829072D01*
X155121112Y-106979827D01*
X155050000Y-106979827D01*
X154976841Y-106994379D01*
X154914820Y-107035820D01*
X154873379Y-107097841D01*
X154858827Y-107171000D01*
X154858827Y-107258500D01*
X154731218Y-107258500D01*
X151567500Y-104094782D01*
X151567500Y-98777044D01*
X151588466Y-98827786D01*
X151725483Y-98965042D01*
X151904595Y-99039415D01*
X152098534Y-99039585D01*
X152214500Y-98991669D01*
X152214500Y-100334126D01*
X152113958Y-100434493D01*
X152039585Y-100613605D01*
X152039415Y-100807544D01*
X152113476Y-100986786D01*
X152250493Y-101124042D01*
X152429605Y-101198415D01*
X152623544Y-101198585D01*
X152802786Y-101124524D01*
X152940042Y-100987507D01*
X153014415Y-100808395D01*
X153014585Y-100614456D01*
X152940524Y-100435214D01*
X152839500Y-100334014D01*
X152839500Y-97650440D01*
X153377091Y-97112849D01*
X153371489Y-97141011D01*
X153371489Y-97141011D01*
G37*
X153371489Y-97141011D02*
X153371489Y-104534989D01*
X153395277Y-104654578D01*
X153452277Y-104739885D01*
X153463018Y-104755960D01*
X154900205Y-106193147D01*
X154862624Y-106283653D01*
X154862376Y-106567103D01*
X154970619Y-106829072D01*
X155121112Y-106979827D01*
X155050000Y-106979827D01*
X154976841Y-106994379D01*
X154914820Y-107035820D01*
X154873379Y-107097841D01*
X154858827Y-107171000D01*
X154858827Y-107258500D01*
X154731218Y-107258500D01*
X151567500Y-104094782D01*
X151567500Y-98777044D01*
X151588466Y-98827786D01*
X151725483Y-98965042D01*
X151904595Y-99039415D01*
X152098534Y-99039585D01*
X152214500Y-98991669D01*
X152214500Y-100334126D01*
X152113958Y-100434493D01*
X152039585Y-100613605D01*
X152039415Y-100807544D01*
X152113476Y-100986786D01*
X152250493Y-101124042D01*
X152429605Y-101198415D01*
X152623544Y-101198585D01*
X152802786Y-101124524D01*
X152940042Y-100987507D01*
X153014415Y-100808395D01*
X153014585Y-100614456D01*
X152940524Y-100435214D01*
X152839500Y-100334014D01*
X152839500Y-97650440D01*
X153377091Y-97112849D01*
X153371489Y-97141011D01*
G36*
X161664302Y-91802720D02*
X161664177Y-91944782D01*
X161738238Y-92124024D01*
X161765518Y-92151352D01*
X155933146Y-92151352D01*
X155813558Y-92175139D01*
X155712175Y-92242881D01*
X153576029Y-94379027D01*
X153508288Y-94480409D01*
X153484500Y-94599998D01*
X153484500Y-95000126D01*
X153420014Y-95064500D01*
X151089178Y-95064500D01*
X150975562Y-94950884D01*
X151035042Y-94891507D01*
X151109415Y-94712395D01*
X151109585Y-94518456D01*
X151049691Y-94373501D01*
X151277489Y-94373501D01*
X151277415Y-94457544D01*
X151351476Y-94636786D01*
X151488493Y-94774042D01*
X151667605Y-94848415D01*
X151861544Y-94848585D01*
X152040786Y-94774524D01*
X152178042Y-94637507D01*
X152252415Y-94458395D01*
X152252585Y-94264456D01*
X152178524Y-94085214D01*
X152041507Y-93947958D01*
X151862395Y-93873585D01*
X151719402Y-93873460D01*
X151685972Y-93840030D01*
X151665645Y-93826448D01*
X151584590Y-93772289D01*
X151465001Y-93748501D01*
X150658451Y-93748501D01*
X151494442Y-92912510D01*
X152023126Y-92912510D01*
X152123493Y-93013052D01*
X152302605Y-93087425D01*
X152496544Y-93087595D01*
X152675786Y-93013534D01*
X152813042Y-92876517D01*
X152887415Y-92697405D01*
X152887585Y-92503466D01*
X152839669Y-92387500D01*
X154690126Y-92387500D01*
X154790493Y-92488042D01*
X154969605Y-92562415D01*
X155163544Y-92562585D01*
X155342786Y-92488524D01*
X155480042Y-92351507D01*
X155554415Y-92172395D01*
X155554585Y-91978456D01*
X155480524Y-91799214D01*
X155343507Y-91661958D01*
X155164395Y-91587585D01*
X154970456Y-91587415D01*
X154791214Y-91661476D01*
X154690014Y-91762500D01*
X148211442Y-91762500D01*
X147553460Y-91104518D01*
X147553585Y-90962456D01*
X147505673Y-90846499D01*
X160708081Y-90846499D01*
X161664302Y-91802720D01*
X161664302Y-91802720D01*
G37*
X161664302Y-91802720D02*
X161664177Y-91944782D01*
X161738238Y-92124024D01*
X161765518Y-92151352D01*
X155933146Y-92151352D01*
X155813558Y-92175139D01*
X155712175Y-92242881D01*
X153576029Y-94379027D01*
X153508288Y-94480409D01*
X153484500Y-94599998D01*
X153484500Y-95000126D01*
X153420014Y-95064500D01*
X151089178Y-95064500D01*
X150975562Y-94950884D01*
X151035042Y-94891507D01*
X151109415Y-94712395D01*
X151109585Y-94518456D01*
X151049691Y-94373501D01*
X151277489Y-94373501D01*
X151277415Y-94457544D01*
X151351476Y-94636786D01*
X151488493Y-94774042D01*
X151667605Y-94848415D01*
X151861544Y-94848585D01*
X152040786Y-94774524D01*
X152178042Y-94637507D01*
X152252415Y-94458395D01*
X152252585Y-94264456D01*
X152178524Y-94085214D01*
X152041507Y-93947958D01*
X151862395Y-93873585D01*
X151719402Y-93873460D01*
X151685972Y-93840030D01*
X151665645Y-93826448D01*
X151584590Y-93772289D01*
X151465001Y-93748501D01*
X150658451Y-93748501D01*
X151494442Y-92912510D01*
X152023126Y-92912510D01*
X152123493Y-93013052D01*
X152302605Y-93087425D01*
X152496544Y-93087595D01*
X152675786Y-93013534D01*
X152813042Y-92876517D01*
X152887415Y-92697405D01*
X152887585Y-92503466D01*
X152839669Y-92387500D01*
X154690126Y-92387500D01*
X154790493Y-92488042D01*
X154969605Y-92562415D01*
X155163544Y-92562585D01*
X155342786Y-92488524D01*
X155480042Y-92351507D01*
X155554415Y-92172395D01*
X155554585Y-91978456D01*
X155480524Y-91799214D01*
X155343507Y-91661958D01*
X155164395Y-91587585D01*
X154970456Y-91587415D01*
X154791214Y-91661476D01*
X154690014Y-91762500D01*
X148211442Y-91762500D01*
X147553460Y-91104518D01*
X147553585Y-90962456D01*
X147505673Y-90846499D01*
X160708081Y-90846499D01*
X161664302Y-91802720D01*
M02*
