G04 #@! TF.FileFunction,Copper,L1,Top,Signal*
%FSLAX46Y46*%
G04 Gerber Fmt 4.6, Leading zero omitted, Abs format (unit mm)*
G04 Created by KiCad (PCBNEW 0.201602050916+6538~42~ubuntu15.10.1-product) date Fri 05 Feb 2016 02:43:43 PM EST*
%MOMM*%
G01*
G04 APERTURE LIST*
%ADD10C,0.100000*%
%ADD11R,1.050000X1.050000*%
%ADD12C,1.050000*%
%ADD13C,0.600000*%
%ADD14R,0.600000X0.500000*%
%ADD15R,0.850000X0.300000*%
%ADD16R,0.300000X0.850000*%
%ADD17R,1.300000X1.300000*%
%ADD18R,0.600000X0.400000*%
%ADD19R,0.400000X0.600000*%
%ADD20R,1.000000X0.600000*%
%ADD21R,0.700000X1.000000*%
%ADD22R,0.700000X0.600000*%
%ADD23R,2.032000X2.032000*%
%ADD24O,2.032000X2.032000*%
%ADD25R,1.000000X3.500000*%
%ADD26R,1.700000X3.400000*%
%ADD27R,0.500000X0.600000*%
%ADD28R,0.797560X0.797560*%
%ADD29R,0.590000X0.450000*%
%ADD30R,0.250000X0.700000*%
%ADD31R,0.700000X0.250000*%
%ADD32R,1.725000X1.725000*%
%ADD33R,1.400000X1.200000*%
%ADD34C,3.800000*%
%ADD35R,0.650000X1.050000*%
%ADD36R,1.350000X0.400000*%
%ADD37O,0.950000X1.250000*%
%ADD38O,1.550000X1.000000*%
%ADD39R,0.500000X0.300000*%
%ADD40R,1.060000X0.880000*%
%ADD41C,1.250000*%
%ADD42C,0.250000*%
%ADD43C,0.500000*%
%ADD44C,0.350000*%
%ADD45C,0.125000*%
G04 APERTURE END LIST*
D10*
D11*
X155575000Y-107696000D03*
D12*
X156845000Y-107696000D03*
X158115000Y-107696000D03*
X159385000Y-107696000D03*
X160655000Y-107696000D03*
X156845000Y-106426000D03*
X158115000Y-106426000D03*
X159385000Y-106426000D03*
X160655000Y-106426000D03*
X155575000Y-106426000D03*
D13*
X154432000Y-91313000D03*
X160274000Y-91567000D03*
X154686000Y-99441000D03*
X147955000Y-107442000D03*
X145288000Y-91313000D03*
X147320000Y-93091000D03*
X145923000Y-91059000D03*
D14*
X151511000Y-96012000D03*
X150411000Y-96012000D03*
D13*
X158496000Y-103886000D03*
X158496000Y-103124000D03*
X152273000Y-101854000D03*
X138176000Y-101473000D03*
X137414000Y-101600000D03*
X138049000Y-98298000D03*
X137414000Y-99187000D03*
X142621000Y-99949000D03*
X143002000Y-99314000D03*
X142240000Y-99314000D03*
X143891000Y-88773000D03*
X143510000Y-88138000D03*
X144145000Y-88138000D03*
X162814000Y-94107000D03*
X163322000Y-94615000D03*
X161798000Y-94996000D03*
X154178000Y-93345000D03*
X154432000Y-92710000D03*
X142494000Y-95377000D03*
X142494000Y-94742000D03*
X142494000Y-94107000D03*
X141478000Y-96393000D03*
X140335000Y-95377000D03*
X140335000Y-94742000D03*
X140335000Y-94107000D03*
X148209000Y-108077000D03*
X147574000Y-108077000D03*
X153670000Y-108966000D03*
X153035000Y-108966000D03*
X152400000Y-108966000D03*
X149606000Y-87249000D03*
X148971000Y-87249000D03*
X148336000Y-87249000D03*
X147701000Y-87249000D03*
X139827000Y-106934000D03*
X140081000Y-106299000D03*
X139319000Y-106299000D03*
X143226000Y-103916000D03*
X144526000Y-103886000D03*
X144526000Y-102616000D03*
X143226000Y-102616000D03*
X149606000Y-101219000D03*
X150368000Y-101219000D03*
X149987000Y-101854000D03*
X154686000Y-98044000D03*
X157152000Y-98933000D03*
X158877000Y-98933000D03*
X158877000Y-97208000D03*
D15*
X141926000Y-102016000D03*
X141926000Y-102516000D03*
X141926000Y-103016000D03*
X141926000Y-103516000D03*
X141926000Y-104016000D03*
X141926000Y-104516000D03*
D16*
X142626000Y-105216000D03*
X143126000Y-105216000D03*
X143626000Y-105216000D03*
X144126000Y-105216000D03*
X144626000Y-105216000D03*
X145126000Y-105216000D03*
D15*
X145826000Y-104516000D03*
X145826000Y-104016000D03*
X145826000Y-103516000D03*
X145826000Y-103016000D03*
X145826000Y-102516000D03*
X145826000Y-102016000D03*
D16*
X145126000Y-101316000D03*
X144626000Y-101316000D03*
X144126000Y-101316000D03*
X143626000Y-101316000D03*
X143126000Y-101316000D03*
X142626000Y-101316000D03*
D17*
X144526000Y-103916000D03*
X144526000Y-102616000D03*
X143226000Y-103916000D03*
X143226000Y-102616000D03*
D18*
X151257000Y-93276000D03*
X151257000Y-94176000D03*
D19*
X162560000Y-92964000D03*
X163460000Y-92964000D03*
D14*
X149775000Y-91694000D03*
X148675000Y-91694000D03*
D20*
X141027000Y-99121000D03*
X141027000Y-98171000D03*
X141027000Y-97221000D03*
X138627000Y-97221000D03*
X138627000Y-99121000D03*
D19*
X137096500Y-96774000D03*
X136196500Y-96774000D03*
D21*
X138541000Y-105017000D03*
D22*
X138541000Y-103317000D03*
X136541000Y-103317000D03*
X136541000Y-105217000D03*
D23*
X130556000Y-88011000D03*
D24*
X130556000Y-90551000D03*
D25*
X143494000Y-94118000D03*
X141494000Y-94118000D03*
D26*
X145944000Y-88568000D03*
X139044000Y-88568000D03*
D14*
X137202000Y-98171000D03*
X136102000Y-98171000D03*
D27*
X142621000Y-97113000D03*
X142621000Y-98213000D03*
X148336000Y-97070000D03*
X148336000Y-95970000D03*
X142621000Y-106765000D03*
X142621000Y-107865000D03*
X140208000Y-104225000D03*
X140208000Y-105325000D03*
X147447000Y-102955000D03*
X147447000Y-104055000D03*
X141224000Y-107865000D03*
X141224000Y-106765000D03*
D14*
X150537000Y-107823000D03*
X149437000Y-107823000D03*
D27*
X152146000Y-102701000D03*
X152146000Y-103801000D03*
X157734000Y-103843000D03*
X157734000Y-102743000D03*
X159258000Y-102701000D03*
X159258000Y-103801000D03*
D28*
X134112000Y-90792300D03*
X134112000Y-89293700D03*
D29*
X146851000Y-97282000D03*
X144741000Y-97282000D03*
D28*
X148221700Y-90043000D03*
X149720300Y-90043000D03*
D20*
X149803000Y-97475000D03*
X149803000Y-98425000D03*
X149803000Y-99375000D03*
X152203000Y-99375000D03*
X152203000Y-97475000D03*
D30*
X159764500Y-95670500D03*
X159264500Y-95670500D03*
X158764500Y-95670500D03*
X158264500Y-95670500D03*
X157764500Y-95670500D03*
X157264500Y-95670500D03*
X156764500Y-95670500D03*
X156264500Y-95670500D03*
D31*
X155614500Y-96320500D03*
X155614500Y-96820500D03*
X155614500Y-97320500D03*
X155614500Y-97820500D03*
X155614500Y-98320500D03*
X155614500Y-98820500D03*
X155614500Y-99320500D03*
X155614500Y-99820500D03*
D30*
X156264500Y-100470500D03*
X156764500Y-100470500D03*
X157264500Y-100470500D03*
X157764500Y-100470500D03*
X158264500Y-100470500D03*
X158764500Y-100470500D03*
X159264500Y-100470500D03*
X159764500Y-100470500D03*
D31*
X160414500Y-99820500D03*
X160414500Y-99320500D03*
X160414500Y-98820500D03*
X160414500Y-98320500D03*
X160414500Y-97820500D03*
X160414500Y-97320500D03*
X160414500Y-96820500D03*
X160414500Y-96320500D03*
D32*
X157152000Y-98933000D03*
X158877000Y-98933000D03*
X157152000Y-97208000D03*
X158877000Y-97208000D03*
D19*
X136588500Y-89535000D03*
X135688500Y-89535000D03*
X137408500Y-100457000D03*
X138308500Y-100457000D03*
X148405000Y-99441000D03*
X147505000Y-99441000D03*
D18*
X144018000Y-107765000D03*
X144018000Y-106865000D03*
D19*
X149744000Y-88392000D03*
X148844000Y-88392000D03*
X149537000Y-105029000D03*
X150437000Y-105029000D03*
X150437000Y-106426000D03*
X149537000Y-106426000D03*
D18*
X153797000Y-108019000D03*
X153797000Y-107119000D03*
X152273000Y-108019000D03*
X152273000Y-107119000D03*
X157099000Y-90736000D03*
X157099000Y-91636000D03*
D19*
X152712000Y-96139000D03*
X153612000Y-96139000D03*
X152712000Y-94488000D03*
X153612000Y-94488000D03*
D33*
X153840000Y-104051000D03*
X156040000Y-104051000D03*
X153840000Y-102451000D03*
X156040000Y-102451000D03*
D34*
X131826000Y-106934000D03*
X164592000Y-89281000D03*
D35*
X151325000Y-92118000D03*
X151325000Y-87968000D03*
X153475000Y-92118000D03*
X153475000Y-87968000D03*
X159072000Y-92118000D03*
X159072000Y-87968000D03*
X161222000Y-92118000D03*
X161222000Y-87968000D03*
D29*
X137707000Y-94234000D03*
X135597000Y-94234000D03*
X137707000Y-92011500D03*
X135597000Y-92011500D03*
D36*
X133388540Y-96806600D03*
X133388540Y-97456600D03*
X133388540Y-98106600D03*
X133388540Y-98756600D03*
X133388540Y-99406600D03*
D37*
X133388540Y-95606600D03*
X133388540Y-100606600D03*
D38*
X130688540Y-94606600D03*
X130688540Y-101606600D03*
D39*
X148071000Y-93044000D03*
X148071000Y-93544000D03*
X148071000Y-94044000D03*
X148071000Y-94544000D03*
X149871000Y-94544000D03*
X149871000Y-94044000D03*
X149871000Y-93544000D03*
X149871000Y-93044000D03*
D40*
X148971000Y-94234000D03*
X148971000Y-93354000D03*
D13*
X157152000Y-97208000D03*
D41*
X165703000Y-107918000D03*
X163703000Y-107918000D03*
X165703000Y-105918000D03*
X163703000Y-105918000D03*
X165703000Y-103918000D03*
X163703000Y-103918000D03*
X165703000Y-101918000D03*
X163703000Y-101918000D03*
X165703000Y-99918000D03*
X163703000Y-99918000D03*
X165703000Y-97918000D03*
X163703000Y-97918000D03*
X165703000Y-95918000D03*
X163703000Y-95918000D03*
D19*
X146500000Y-106807000D03*
X145600000Y-106807000D03*
X147124000Y-105537000D03*
X148024000Y-105537000D03*
D13*
X148209000Y-98298000D03*
X148844000Y-98298000D03*
X145288000Y-99314000D03*
X147447000Y-101219000D03*
X152400000Y-92600010D03*
X151130000Y-98298000D03*
X151130000Y-97536000D03*
X158115000Y-101473000D03*
X145034000Y-107823000D03*
X140970000Y-104041010D03*
X154813000Y-94361000D03*
X156464000Y-94361000D03*
X157353000Y-94488000D03*
X161250262Y-103798738D03*
X159096991Y-94361000D03*
X150622000Y-94615000D03*
X153797000Y-95377000D03*
X152527000Y-100711000D03*
X156965034Y-93338863D03*
X154940000Y-100457000D03*
X160274000Y-101092000D03*
X139255500Y-104140000D03*
X135001000Y-97853500D03*
X136541000Y-102362000D03*
X139255500Y-102616000D03*
X147066000Y-91059000D03*
X155067000Y-92075000D03*
X152001990Y-98552000D03*
X151765000Y-94361000D03*
X162151762Y-91848238D03*
X148717000Y-104521000D03*
D42*
X134112000Y-90792300D02*
X135302802Y-90792300D01*
X135302802Y-90792300D02*
X136117001Y-91606499D01*
X136117001Y-91606499D02*
X136117001Y-93238999D01*
X136117001Y-93238999D02*
X135597000Y-93759000D01*
X135597000Y-93759000D02*
X135597000Y-94234000D01*
D43*
X137096500Y-96774000D02*
X137096500Y-95733500D01*
X137096500Y-95733500D02*
X135597000Y-94234000D01*
D42*
X137141000Y-105217000D02*
X137033000Y-105217000D01*
D44*
X137033000Y-105217000D02*
X136541000Y-105217000D01*
X138627000Y-97221000D02*
X138627000Y-97871000D01*
X138627000Y-97871000D02*
X139402001Y-98646001D01*
X139402001Y-98646001D02*
X139402001Y-101310997D01*
X139402001Y-101310997D02*
X137166001Y-103546997D01*
X137166001Y-105083999D02*
X137033000Y-105217000D01*
X137166001Y-103546997D02*
X137166001Y-105083999D01*
X137202000Y-98171000D02*
X137202000Y-96879500D01*
X137202000Y-96879500D02*
X137096500Y-96774000D01*
D43*
X137096500Y-96774000D02*
X138180000Y-96774000D01*
X138180000Y-96774000D02*
X138627000Y-97221000D01*
X138827000Y-97221000D02*
X138627000Y-97221000D01*
D42*
X136541000Y-105217000D02*
X136491000Y-105217000D01*
X142621000Y-106765000D02*
X142621000Y-106815000D01*
X142621000Y-106815000D02*
X143096001Y-107290001D01*
X143096001Y-107290001D02*
X143096001Y-108345001D01*
X143096001Y-108345001D02*
X143051001Y-108390001D01*
X143051001Y-108390001D02*
X140314001Y-108390001D01*
X140314001Y-108390001D02*
X137141000Y-105217000D01*
X143126000Y-105216000D02*
X142626000Y-105216000D01*
X142621000Y-106765000D02*
X142621000Y-105221000D01*
X142621000Y-105221000D02*
X142626000Y-105216000D01*
X141926000Y-102516000D02*
X143126000Y-102516000D01*
X143126000Y-102516000D02*
X143226000Y-102616000D01*
X148336000Y-95970000D02*
X148336000Y-95885000D01*
D43*
X148209000Y-98298000D02*
X148844000Y-98298000D01*
X149803000Y-98425000D02*
X148971000Y-98425000D01*
X148971000Y-98425000D02*
X148844000Y-98298000D01*
D42*
X157764500Y-100470500D02*
X157764500Y-99545500D01*
X147447000Y-101219000D02*
X149537000Y-103309000D01*
X149537000Y-103309000D02*
X149537000Y-105029000D01*
X145288000Y-99314000D02*
X145288000Y-97829000D01*
X145288000Y-97829000D02*
X144741000Y-97282000D01*
D43*
X142621000Y-97113000D02*
X143637000Y-97113000D01*
X143637000Y-97113000D02*
X144572000Y-97113000D01*
X143494000Y-94118000D02*
X143494000Y-96970000D01*
X143494000Y-96970000D02*
X143637000Y-97113000D01*
X144572000Y-97113000D02*
X144741000Y-97282000D01*
X142621000Y-97113000D02*
X141135000Y-97113000D01*
X141135000Y-97113000D02*
X141027000Y-97221000D01*
D42*
X155575000Y-107696000D02*
X154120000Y-107696000D01*
X154120000Y-107696000D02*
X153797000Y-108019000D01*
X152273000Y-108019000D02*
X153797000Y-108019000D01*
X145736001Y-108933001D02*
X151258999Y-108933001D01*
X151258999Y-108933001D02*
X152173000Y-108019000D01*
X152173000Y-108019000D02*
X152273000Y-108019000D01*
X157099000Y-90736000D02*
X162364000Y-90736000D01*
X162364000Y-90736000D02*
X163449000Y-91821000D01*
X163449000Y-91821000D02*
X163449000Y-92403000D01*
X163449000Y-92403000D02*
X163460000Y-92414000D01*
X163460000Y-92414000D02*
X163460000Y-92964000D01*
X157099000Y-90736000D02*
X153601998Y-90736000D01*
X153601998Y-90736000D02*
X152400000Y-91937998D01*
X152400000Y-91937998D02*
X152400000Y-92175746D01*
X152400000Y-92175746D02*
X152400000Y-92600010D01*
X152712000Y-92583000D02*
X152712000Y-93218000D01*
X152400000Y-92600010D02*
X152694990Y-92600010D01*
X152694990Y-92600010D02*
X152712000Y-92583000D01*
X151511000Y-96012000D02*
X152585000Y-96012000D01*
X152585000Y-96012000D02*
X152712000Y-96139000D01*
X149775000Y-91694000D02*
X149775000Y-92948000D01*
X149775000Y-92948000D02*
X149871000Y-93044000D01*
X152712000Y-93218000D02*
X152712000Y-94488000D01*
X151257000Y-93276000D02*
X152654000Y-93276000D01*
X152654000Y-93276000D02*
X152712000Y-93218000D01*
X149871000Y-93044000D02*
X151025000Y-93044000D01*
X151025000Y-93044000D02*
X151257000Y-93276000D01*
D43*
X151130000Y-98298000D02*
X151130000Y-97536000D01*
D42*
X157351500Y-101157500D02*
X158115000Y-101157500D01*
X158115000Y-101157500D02*
X158264500Y-101157500D01*
X158115000Y-101473000D02*
X158115000Y-101157500D01*
D43*
X152203000Y-97475000D02*
X151191000Y-97475000D01*
X151191000Y-97475000D02*
X151130000Y-97536000D01*
D42*
X158580000Y-101473000D02*
X158264500Y-101157500D01*
X159258000Y-102151000D02*
X158580000Y-101473000D01*
X157264500Y-100470500D02*
X157264500Y-101070500D01*
X157264500Y-101070500D02*
X157351500Y-101157500D01*
X159258000Y-102701000D02*
X159258000Y-102151000D01*
X158264500Y-101157500D02*
X158264500Y-101070500D01*
X158264500Y-101070500D02*
X158264500Y-100470500D01*
X152712000Y-96139000D02*
X152712000Y-96239000D01*
X152712000Y-96239000D02*
X152203000Y-96748000D01*
X152203000Y-96748000D02*
X152203000Y-97043000D01*
X152203000Y-97475000D02*
X152203000Y-97043000D01*
X144568000Y-107765000D02*
X144780000Y-107977000D01*
X144780000Y-107977000D02*
X145736001Y-108933001D01*
X145034000Y-107823000D02*
X144934000Y-107823000D01*
X144934000Y-107823000D02*
X144780000Y-107977000D01*
X140843000Y-104016000D02*
X140417000Y-104016000D01*
X141926000Y-104016000D02*
X140843000Y-104016000D01*
X140843000Y-104016000D02*
X140944990Y-104016000D01*
X140944990Y-104016000D02*
X140970000Y-104041010D01*
X144018000Y-107765000D02*
X144568000Y-107765000D01*
X140417000Y-104016000D02*
X140208000Y-104225000D01*
X145826000Y-104516000D02*
X146103000Y-104516000D01*
X146103000Y-104516000D02*
X147124000Y-105537000D01*
D43*
X132842000Y-91295000D02*
X133558500Y-92011500D01*
X133558500Y-92011500D02*
X135597000Y-92011500D01*
X132842000Y-88781000D02*
X132842000Y-91295000D01*
X130556000Y-88011000D02*
X132072000Y-88011000D01*
X132072000Y-88011000D02*
X132842000Y-88781000D01*
D42*
X153612000Y-94488000D02*
X153612000Y-94588000D01*
X153059999Y-95140001D02*
X150067001Y-95140001D01*
X153612000Y-94588000D02*
X153059999Y-95140001D01*
X150067001Y-95140001D02*
X149871000Y-94944000D01*
X149871000Y-94944000D02*
X149871000Y-94544000D01*
X149971000Y-94544000D02*
X149871000Y-94544000D01*
X153612000Y-94615000D02*
X154686000Y-94615000D01*
X154686000Y-94615000D02*
X155434000Y-94615000D01*
X154813000Y-94361000D02*
X154686000Y-94488000D01*
X154686000Y-94488000D02*
X154686000Y-94615000D01*
X155434000Y-94615000D02*
X156264500Y-95445500D01*
X156264500Y-95445500D02*
X156264500Y-95670500D01*
X153797000Y-107119000D02*
X154490000Y-106426000D01*
X154490000Y-106426000D02*
X155575000Y-106426000D01*
X156464000Y-94361000D02*
X156764500Y-94661500D01*
X156764500Y-94661500D02*
X156764500Y-95670500D01*
X152273000Y-107119000D02*
X152823000Y-107119000D01*
X154266001Y-105675999D02*
X156094999Y-105675999D01*
X152823000Y-107119000D02*
X154266001Y-105675999D01*
X156094999Y-105675999D02*
X156320001Y-105901001D01*
X156320001Y-105901001D02*
X156845000Y-106426000D01*
X157353000Y-94488000D02*
X157353000Y-95582000D01*
X157353000Y-95582000D02*
X157264500Y-95670500D01*
X161250262Y-103798738D02*
X161250262Y-105283000D01*
X151062001Y-107424997D02*
X153161007Y-105325991D01*
X161250262Y-105283000D02*
X161250262Y-105830738D01*
X150878009Y-108582991D02*
X151062001Y-108398999D01*
X151062001Y-108398999D02*
X151062001Y-107424997D01*
X153161007Y-105325991D02*
X161207271Y-105325991D01*
X161207271Y-105325991D02*
X161250262Y-105283000D01*
X161250262Y-105830738D02*
X160655000Y-106426000D01*
X157099000Y-91636000D02*
X158590000Y-91636000D01*
X158590000Y-91636000D02*
X159072000Y-92118000D01*
X146500000Y-106807000D02*
X148097002Y-106807000D01*
X148875993Y-108582991D02*
X150878009Y-108582991D01*
X148097002Y-106807000D02*
X148734001Y-107443999D01*
X148734001Y-108440999D02*
X148875993Y-108582991D01*
X148734001Y-107443999D02*
X148734001Y-108440999D01*
X161290000Y-103838476D02*
X161250262Y-103798738D01*
X158747000Y-94011009D02*
X159096991Y-94361000D01*
X158747000Y-93948000D02*
X158747000Y-94011009D01*
X158747000Y-92643000D02*
X158747000Y-93948000D01*
X158747000Y-93948000D02*
X158764500Y-93965500D01*
X158764500Y-93965500D02*
X158764500Y-95670500D01*
X159072000Y-92118000D02*
X159072000Y-92318000D01*
X159072000Y-92318000D02*
X158747000Y-92643000D01*
X149871000Y-94044000D02*
X150371000Y-94044000D01*
X150371000Y-94044000D02*
X150622000Y-94295000D01*
X150622000Y-94295000D02*
X150622000Y-94615000D01*
X153797000Y-95377000D02*
X153797000Y-95954000D01*
X153797000Y-95954000D02*
X153612000Y-96139000D01*
X155614500Y-96320500D02*
X153793500Y-96320500D01*
X153793500Y-96320500D02*
X153612000Y-96139000D01*
X152227001Y-100411001D02*
X152527000Y-100711000D01*
X144877998Y-100584000D02*
X145050997Y-100411001D01*
X145050997Y-100411001D02*
X152227001Y-100411001D01*
X144626000Y-101316000D02*
X144626000Y-100641000D01*
X144626000Y-100641000D02*
X144683000Y-100584000D01*
X144683000Y-100584000D02*
X144877998Y-100584000D01*
X157027306Y-93276591D02*
X156965034Y-93338863D01*
X157742282Y-93276591D02*
X157027306Y-93276591D01*
X158264500Y-93798809D02*
X157742282Y-93276591D01*
X158264500Y-95670500D02*
X158264500Y-93798809D01*
X154515736Y-100457000D02*
X154940000Y-100457000D01*
X154024737Y-99966001D02*
X154515736Y-100457000D01*
X144800999Y-99966001D02*
X154024737Y-99966001D01*
X144126000Y-101316000D02*
X144126000Y-100641000D01*
X144126000Y-100641000D02*
X144800999Y-99966001D01*
X159764500Y-100470500D02*
X159764500Y-100582500D01*
X159764500Y-100582500D02*
X160274000Y-101092000D01*
X159764500Y-95670500D02*
X162197498Y-95670500D01*
X165078001Y-97293001D02*
X165703000Y-97918000D01*
X162197498Y-95670500D02*
X163594997Y-97067999D01*
X163594997Y-97067999D02*
X164852999Y-97067999D01*
X164852999Y-97067999D02*
X165078001Y-97293001D01*
X159264500Y-100470500D02*
X159264500Y-101070500D01*
X159264500Y-101070500D02*
X162336990Y-104142990D01*
X163078001Y-105293001D02*
X163703000Y-105918000D01*
X162336990Y-104142990D02*
X162336990Y-104551990D01*
X162336990Y-104551990D02*
X163078001Y-105293001D01*
X160414500Y-99820500D02*
X160780500Y-99820500D01*
X161452959Y-101915937D02*
X162687000Y-103149978D01*
X162687000Y-104394000D02*
X163360999Y-105067999D01*
X163360999Y-105067999D02*
X164852999Y-105067999D01*
X160780500Y-99820500D02*
X161452959Y-100492959D01*
X161452959Y-100492959D02*
X161452959Y-101915937D01*
X162687000Y-103149978D02*
X162687000Y-104394000D01*
X164852999Y-105067999D02*
X165078001Y-105293001D01*
X165078001Y-105293001D02*
X165703000Y-105918000D01*
X160414500Y-99320500D02*
X160794502Y-99320500D01*
X160794502Y-99320500D02*
X161802969Y-100328967D01*
X161802969Y-100328967D02*
X161802969Y-101770959D01*
X161802969Y-101770959D02*
X163703000Y-103670990D01*
X163703000Y-103670990D02*
X163703000Y-103918000D01*
X160414500Y-98820500D02*
X160796500Y-98820500D01*
X160796500Y-98820500D02*
X162152979Y-100176979D01*
X162152979Y-100176979D02*
X162152979Y-101625981D01*
X162152979Y-101625981D02*
X163594997Y-103067999D01*
X163594997Y-103067999D02*
X164852999Y-103067999D01*
X165078001Y-103293001D02*
X165703000Y-103918000D01*
X164852999Y-103067999D02*
X165078001Y-103293001D01*
X160414500Y-98320500D02*
X160794502Y-98320500D01*
X160794502Y-98320500D02*
X162502989Y-100028987D01*
X162502989Y-100028987D02*
X162502989Y-100717989D01*
X162502989Y-100717989D02*
X163703000Y-101918000D01*
X160414500Y-97820500D02*
X161014500Y-97820500D01*
X165078001Y-101293001D02*
X165703000Y-101918000D01*
X161014500Y-97820500D02*
X162852999Y-99658999D01*
X162852999Y-99658999D02*
X162852999Y-100326001D01*
X162852999Y-100326001D02*
X163594997Y-101067999D01*
X164852999Y-101067999D02*
X165078001Y-101293001D01*
X163594997Y-101067999D02*
X164852999Y-101067999D01*
X160414500Y-97320500D02*
X161019512Y-97320500D01*
X161019512Y-97320500D02*
X163617012Y-99918000D01*
X163617012Y-99918000D02*
X163703000Y-99918000D01*
X160414500Y-96820500D02*
X161014500Y-96820500D01*
X161014500Y-96820500D02*
X163261999Y-99067999D01*
X163261999Y-99067999D02*
X164852999Y-99067999D01*
X164852999Y-99067999D02*
X165078001Y-99293001D01*
X165078001Y-99293001D02*
X165703000Y-99918000D01*
X160414500Y-96320500D02*
X162105500Y-96320500D01*
X162105500Y-96320500D02*
X163703000Y-97918000D01*
X139255500Y-104140000D02*
X139255500Y-103715736D01*
X139255500Y-103715736D02*
X139319000Y-103652236D01*
X139319000Y-103652236D02*
X139319000Y-103516000D01*
X133388540Y-97456600D02*
X134604100Y-97456600D01*
X134604100Y-97456600D02*
X135001000Y-97853500D01*
X141926000Y-103516000D02*
X139446000Y-103516000D01*
X139446000Y-103516000D02*
X139319000Y-103516000D01*
X139319000Y-103516000D02*
X138740000Y-103516000D01*
X138740000Y-103516000D02*
X138541000Y-103317000D01*
X136541000Y-100629058D02*
X136541000Y-102362000D01*
X136541000Y-102362000D02*
X136541000Y-102767000D01*
X141926000Y-103016000D02*
X140719998Y-103016000D01*
X140719998Y-103016000D02*
X140319998Y-102616000D01*
X140319998Y-102616000D02*
X139255500Y-102616000D01*
X133388540Y-98106600D02*
X134018542Y-98106600D01*
X134018542Y-98106600D02*
X136541000Y-100629058D01*
X136541000Y-102767000D02*
X136541000Y-103317000D01*
X149720300Y-90043000D02*
X149720300Y-88415700D01*
X149720300Y-88415700D02*
X149744000Y-88392000D01*
X138627000Y-99121000D02*
X138627000Y-100138500D01*
X138627000Y-100138500D02*
X138308500Y-100457000D01*
X149803000Y-99375000D02*
X148471000Y-99375000D01*
X148471000Y-99375000D02*
X148405000Y-99441000D01*
X149795000Y-99383000D02*
X149803000Y-99375000D01*
X157734000Y-102743000D02*
X156332000Y-102743000D01*
X156332000Y-102743000D02*
X156040000Y-102451000D01*
X156040000Y-102451000D02*
X156764500Y-101726500D01*
X156764500Y-101726500D02*
X156764500Y-100470500D01*
D43*
X133388540Y-96806600D02*
X136163900Y-96806600D01*
X136163900Y-96806600D02*
X136196500Y-96774000D01*
D42*
X143626000Y-105216000D02*
X143626000Y-106473000D01*
X143626000Y-106473000D02*
X144018000Y-106865000D01*
X147066000Y-91059000D02*
X147205700Y-91059000D01*
X147205700Y-91059000D02*
X148221700Y-90043000D01*
X157764500Y-95670500D02*
X157764500Y-95070500D01*
X155067000Y-92186998D02*
X155067000Y-92075000D01*
X157764500Y-95070500D02*
X157878001Y-94956999D01*
X157878001Y-94956999D02*
X157878001Y-94235999D01*
X157878001Y-94235999D02*
X157505866Y-93863864D01*
X157505866Y-93863864D02*
X156743866Y-93863864D01*
X156743866Y-93863864D02*
X155067000Y-92186998D01*
X145826000Y-103016000D02*
X147386000Y-103016000D01*
X147386000Y-103016000D02*
X147447000Y-102955000D01*
X141926000Y-104516000D02*
X141926000Y-106563000D01*
X141926000Y-106563000D02*
X141724000Y-106765000D01*
X141724000Y-106765000D02*
X141224000Y-106765000D01*
X159733001Y-102039001D02*
X159733001Y-104281001D01*
X159733001Y-104281001D02*
X159038023Y-104975979D01*
X159038023Y-104975979D02*
X150940021Y-104975979D01*
X150940021Y-104975979D02*
X150887000Y-105029000D01*
X150887000Y-105029000D02*
X150437000Y-105029000D01*
X150437000Y-106426000D02*
X150437000Y-107723000D01*
X150437000Y-107723000D02*
X150537000Y-107823000D01*
X150437000Y-105029000D02*
X150437000Y-106426000D01*
X158764500Y-100470500D02*
X158764500Y-101070500D01*
X158764500Y-101070500D02*
X159733001Y-102039001D01*
X153840000Y-104051000D02*
X152781000Y-104051000D01*
X152781000Y-104051000D02*
X152396000Y-104051000D01*
X156264500Y-100470500D02*
X155889500Y-100470500D01*
X152798001Y-101787997D02*
X152798001Y-104033999D01*
X152798001Y-104033999D02*
X152781000Y-104051000D01*
X155889500Y-100470500D02*
X154734001Y-101625999D01*
X154734001Y-101625999D02*
X152959999Y-101625999D01*
X152959999Y-101625999D02*
X152798001Y-101787997D01*
X152146000Y-103801000D02*
X152146000Y-103751000D01*
X156264500Y-100695500D02*
X156264500Y-100470500D01*
X152396000Y-104051000D02*
X152146000Y-103801000D01*
X134112000Y-89293700D02*
X135447200Y-89293700D01*
X135447200Y-89293700D02*
X135688500Y-89535000D01*
X140017500Y-98311500D02*
X140827000Y-99121000D01*
X140827000Y-99121000D02*
X141027000Y-99121000D01*
X140017500Y-97406498D02*
X140017500Y-98311500D01*
X136588500Y-89535000D02*
X136588500Y-93977498D01*
X136588500Y-93977498D02*
X140017500Y-97406498D01*
D43*
X144013502Y-91757500D02*
X146851000Y-94594998D01*
X146851000Y-94594998D02*
X146851000Y-97282000D01*
X138493500Y-91757500D02*
X144013502Y-91757500D01*
X138239500Y-92011500D02*
X138493500Y-91757500D01*
X137707000Y-92011500D02*
X138239500Y-92011500D01*
X137707000Y-94234000D02*
X137707000Y-92011500D01*
D42*
X147505000Y-97467000D02*
X147320000Y-97282000D01*
D43*
X147320000Y-97282000D02*
X148209000Y-97282000D01*
X148209000Y-97282000D02*
X149610000Y-97282000D01*
D42*
X148336000Y-97070000D02*
X148336000Y-97155000D01*
X148336000Y-97155000D02*
X148209000Y-97282000D01*
X147505000Y-99441000D02*
X147505000Y-97467000D01*
D43*
X146851000Y-97282000D02*
X147320000Y-97282000D01*
X149610000Y-97282000D02*
X149803000Y-97475000D01*
D42*
X152001990Y-98552000D02*
X152426254Y-98552000D01*
X152426254Y-98552000D02*
X152694754Y-98820500D01*
X152694754Y-98820500D02*
X155014500Y-98820500D01*
X155014500Y-98820500D02*
X155614500Y-98820500D01*
X151257000Y-94176000D02*
X151580000Y-94176000D01*
X151580000Y-94176000D02*
X151765000Y-94361000D01*
X151257000Y-94176000D02*
X150625000Y-93544000D01*
X150625000Y-93544000D02*
X149871000Y-93544000D01*
X145126000Y-105216000D02*
X145126000Y-106333000D01*
X145126000Y-106333000D02*
X145600000Y-106807000D01*
X162560000Y-92964000D02*
X162179000Y-92964000D01*
X162179000Y-92964000D02*
X161371000Y-92964000D01*
X162151762Y-91848238D02*
X162151762Y-92936762D01*
X162151762Y-92936762D02*
X162179000Y-92964000D01*
X148024000Y-105537000D02*
X148024000Y-105214000D01*
X148024000Y-105214000D02*
X148717000Y-104521000D01*
X161371000Y-92964000D02*
X159893000Y-94442000D01*
X159893000Y-94442000D02*
X159264500Y-95070500D01*
X159264500Y-95070500D02*
X159264500Y-95670500D01*
X151325000Y-92118000D02*
X151325000Y-91918000D01*
X151325000Y-91918000D02*
X150625999Y-91218999D01*
X147768999Y-95444999D02*
X149877011Y-95444999D01*
X150625999Y-91218999D02*
X147795001Y-91218999D01*
X147795001Y-91218999D02*
X146685000Y-92329000D01*
X146685000Y-92329000D02*
X146685000Y-93218000D01*
X146685000Y-93218000D02*
X147326010Y-93859010D01*
X147326010Y-93859010D02*
X147326010Y-95002010D01*
X153186999Y-96619001D02*
X153388498Y-96820500D01*
X155014500Y-96820500D02*
X155614500Y-96820500D01*
X147326010Y-95002010D02*
X147768999Y-95444999D01*
X149877011Y-95444999D02*
X149969011Y-95536999D01*
X149969011Y-95536999D02*
X153015001Y-95536999D01*
X153015001Y-95536999D02*
X153186999Y-95708997D01*
X153186999Y-95708997D02*
X153186999Y-96619001D01*
X153388498Y-96820500D02*
X155014500Y-96820500D01*
D45*
G36*
X138002827Y-90268000D02*
X138017379Y-90341159D01*
X138058820Y-90403180D01*
X138120841Y-90444621D01*
X138194000Y-90459173D01*
X139894000Y-90459173D01*
X139967159Y-90444621D01*
X140029180Y-90403180D01*
X140070621Y-90341159D01*
X140085173Y-90268000D01*
X140085173Y-87003500D01*
X144902827Y-87003500D01*
X144902827Y-90268000D01*
X144917379Y-90341159D01*
X144958820Y-90403180D01*
X145020841Y-90444621D01*
X145094000Y-90459173D01*
X146794000Y-90459173D01*
X146867159Y-90444621D01*
X146929180Y-90403180D01*
X146970621Y-90341159D01*
X146985173Y-90268000D01*
X146985173Y-88621125D01*
X148327500Y-88621125D01*
X148327500Y-88754956D01*
X148375684Y-88871283D01*
X148464717Y-88960316D01*
X148581044Y-89008500D01*
X148664875Y-89008500D01*
X148744000Y-88929375D01*
X148744000Y-88542000D01*
X148406625Y-88542000D01*
X148327500Y-88621125D01*
X146985173Y-88621125D01*
X146985173Y-88029044D01*
X148327500Y-88029044D01*
X148327500Y-88162875D01*
X148406625Y-88242000D01*
X148744000Y-88242000D01*
X148744000Y-87854625D01*
X148944000Y-87854625D01*
X148944000Y-88242000D01*
X149044000Y-88242000D01*
X149044000Y-88542000D01*
X148944000Y-88542000D01*
X148944000Y-88929375D01*
X149023125Y-89008500D01*
X149106956Y-89008500D01*
X149223283Y-88960316D01*
X149312316Y-88871283D01*
X149360500Y-88754956D01*
X149360500Y-88730575D01*
X149367379Y-88765159D01*
X149407800Y-88825653D01*
X149407800Y-89453047D01*
X149321520Y-89453047D01*
X149248361Y-89467599D01*
X149186340Y-89509040D01*
X149144899Y-89571061D01*
X149130347Y-89644220D01*
X149130347Y-90441780D01*
X149144899Y-90514939D01*
X149186340Y-90576960D01*
X149248361Y-90618401D01*
X149321520Y-90632953D01*
X150119080Y-90632953D01*
X150192239Y-90618401D01*
X150254260Y-90576960D01*
X150295701Y-90514939D01*
X150310253Y-90441780D01*
X150310253Y-89644220D01*
X150295701Y-89571061D01*
X150254260Y-89509040D01*
X150192239Y-89467599D01*
X150119080Y-89453047D01*
X150032800Y-89453047D01*
X150032800Y-88941538D01*
X162357717Y-88941538D01*
X162397885Y-89822401D01*
X162657698Y-90449645D01*
X162920488Y-90681690D01*
X164321178Y-89281000D01*
X164862822Y-89281000D01*
X166263512Y-90681690D01*
X166526302Y-90449645D01*
X166826283Y-89620462D01*
X166786115Y-88739599D01*
X166526302Y-88112355D01*
X166263512Y-87880310D01*
X164862822Y-89281000D01*
X164321178Y-89281000D01*
X162920488Y-87880310D01*
X162657698Y-88112355D01*
X162357717Y-88941538D01*
X150032800Y-88941538D01*
X150032800Y-88858170D01*
X150079180Y-88827180D01*
X150120621Y-88765159D01*
X150135173Y-88692000D01*
X150135173Y-88092000D01*
X150120621Y-88018841D01*
X150079180Y-87956820D01*
X150017159Y-87915379D01*
X149944000Y-87900827D01*
X149544000Y-87900827D01*
X149470841Y-87915379D01*
X149408820Y-87956820D01*
X149367379Y-88018841D01*
X149360500Y-88053425D01*
X149360500Y-88029044D01*
X149312316Y-87912717D01*
X149223283Y-87823684D01*
X149106956Y-87775500D01*
X149023125Y-87775500D01*
X148944000Y-87854625D01*
X148744000Y-87854625D01*
X148664875Y-87775500D01*
X148581044Y-87775500D01*
X148464717Y-87823684D01*
X148375684Y-87912717D01*
X148327500Y-88029044D01*
X146985173Y-88029044D01*
X146985173Y-87443000D01*
X150808827Y-87443000D01*
X150808827Y-88493000D01*
X150823379Y-88566159D01*
X150864820Y-88628180D01*
X150926841Y-88669621D01*
X151000000Y-88684173D01*
X151650000Y-88684173D01*
X151723159Y-88669621D01*
X151785180Y-88628180D01*
X151826621Y-88566159D01*
X151841173Y-88493000D01*
X151841173Y-88238625D01*
X152833500Y-88238625D01*
X152833500Y-88555956D01*
X152881684Y-88672283D01*
X152970717Y-88761316D01*
X153087044Y-88809500D01*
X153233375Y-88809500D01*
X153312500Y-88730375D01*
X153312500Y-88159500D01*
X153637500Y-88159500D01*
X153637500Y-88730375D01*
X153716625Y-88809500D01*
X153862956Y-88809500D01*
X153979283Y-88761316D01*
X154068316Y-88672283D01*
X154116500Y-88555956D01*
X154116500Y-88238625D01*
X154037375Y-88159500D01*
X153637500Y-88159500D01*
X153312500Y-88159500D01*
X152912625Y-88159500D01*
X152833500Y-88238625D01*
X151841173Y-88238625D01*
X151841173Y-87443000D01*
X151828651Y-87380044D01*
X152833500Y-87380044D01*
X152833500Y-87697375D01*
X152912625Y-87776500D01*
X153312500Y-87776500D01*
X153312500Y-87205625D01*
X153637500Y-87205625D01*
X153637500Y-87776500D01*
X154037375Y-87776500D01*
X154116500Y-87697375D01*
X154116500Y-87443000D01*
X158555827Y-87443000D01*
X158555827Y-88493000D01*
X158570379Y-88566159D01*
X158611820Y-88628180D01*
X158673841Y-88669621D01*
X158747000Y-88684173D01*
X159397000Y-88684173D01*
X159470159Y-88669621D01*
X159532180Y-88628180D01*
X159573621Y-88566159D01*
X159588173Y-88493000D01*
X159588173Y-88238625D01*
X160580500Y-88238625D01*
X160580500Y-88555956D01*
X160628684Y-88672283D01*
X160717717Y-88761316D01*
X160834044Y-88809500D01*
X160980375Y-88809500D01*
X161059500Y-88730375D01*
X161059500Y-88159500D01*
X161384500Y-88159500D01*
X161384500Y-88730375D01*
X161463625Y-88809500D01*
X161609956Y-88809500D01*
X161726283Y-88761316D01*
X161815316Y-88672283D01*
X161863500Y-88555956D01*
X161863500Y-88238625D01*
X161784375Y-88159500D01*
X161384500Y-88159500D01*
X161059500Y-88159500D01*
X160659625Y-88159500D01*
X160580500Y-88238625D01*
X159588173Y-88238625D01*
X159588173Y-87443000D01*
X159575651Y-87380044D01*
X160580500Y-87380044D01*
X160580500Y-87697375D01*
X160659625Y-87776500D01*
X161059500Y-87776500D01*
X161059500Y-87205625D01*
X161384500Y-87205625D01*
X161384500Y-87776500D01*
X161784375Y-87776500D01*
X161863500Y-87697375D01*
X161863500Y-87609488D01*
X163191310Y-87609488D01*
X164592000Y-89010178D01*
X165992690Y-87609488D01*
X165760645Y-87346698D01*
X164931462Y-87046717D01*
X164050599Y-87086885D01*
X163423355Y-87346698D01*
X163191310Y-87609488D01*
X161863500Y-87609488D01*
X161863500Y-87380044D01*
X161815316Y-87263717D01*
X161726283Y-87174684D01*
X161609956Y-87126500D01*
X161463625Y-87126500D01*
X161384500Y-87205625D01*
X161059500Y-87205625D01*
X160980375Y-87126500D01*
X160834044Y-87126500D01*
X160717717Y-87174684D01*
X160628684Y-87263717D01*
X160580500Y-87380044D01*
X159575651Y-87380044D01*
X159573621Y-87369841D01*
X159532180Y-87307820D01*
X159470159Y-87266379D01*
X159397000Y-87251827D01*
X158747000Y-87251827D01*
X158673841Y-87266379D01*
X158611820Y-87307820D01*
X158570379Y-87369841D01*
X158555827Y-87443000D01*
X154116500Y-87443000D01*
X154116500Y-87380044D01*
X154068316Y-87263717D01*
X153979283Y-87174684D01*
X153862956Y-87126500D01*
X153716625Y-87126500D01*
X153637500Y-87205625D01*
X153312500Y-87205625D01*
X153233375Y-87126500D01*
X153087044Y-87126500D01*
X152970717Y-87174684D01*
X152881684Y-87263717D01*
X152833500Y-87380044D01*
X151828651Y-87380044D01*
X151826621Y-87369841D01*
X151785180Y-87307820D01*
X151723159Y-87266379D01*
X151650000Y-87251827D01*
X151000000Y-87251827D01*
X150926841Y-87266379D01*
X150864820Y-87307820D01*
X150823379Y-87369841D01*
X150808827Y-87443000D01*
X146985173Y-87443000D01*
X146985173Y-87003500D01*
X166869500Y-87003500D01*
X166869500Y-109211500D01*
X151393873Y-109211500D01*
X151479970Y-109153972D01*
X151972595Y-108661347D01*
X163230475Y-108661347D01*
X163305026Y-108791563D01*
X163669618Y-108877365D01*
X164039292Y-108817112D01*
X164100974Y-108791563D01*
X164175525Y-108661347D01*
X163703000Y-108188822D01*
X163230475Y-108661347D01*
X151972595Y-108661347D01*
X152223769Y-108410173D01*
X152573000Y-108410173D01*
X152646159Y-108395621D01*
X152708180Y-108354180D01*
X152723334Y-108331500D01*
X153346666Y-108331500D01*
X153361820Y-108354180D01*
X153423841Y-108395621D01*
X153497000Y-108410173D01*
X154097000Y-108410173D01*
X154170159Y-108395621D01*
X154232180Y-108354180D01*
X154273621Y-108292159D01*
X154288173Y-108219000D01*
X154288173Y-108008500D01*
X154858827Y-108008500D01*
X154858827Y-108221000D01*
X154873379Y-108294159D01*
X154914820Y-108356180D01*
X154976841Y-108397621D01*
X155050000Y-108412173D01*
X156100000Y-108412173D01*
X156173159Y-108397621D01*
X156235180Y-108356180D01*
X156258554Y-108321199D01*
X156374590Y-108437235D01*
X156446580Y-108365245D01*
X156508337Y-108485176D01*
X156835969Y-108553938D01*
X157164976Y-108492088D01*
X157181663Y-108485176D01*
X157243421Y-108365243D01*
X157716579Y-108365243D01*
X157778337Y-108485176D01*
X158105969Y-108553938D01*
X158434976Y-108492088D01*
X158451663Y-108485176D01*
X158513421Y-108365243D01*
X158115000Y-107966822D01*
X157716579Y-108365243D01*
X157243421Y-108365243D01*
X156845000Y-107966822D01*
X156830858Y-107980964D01*
X156560036Y-107710142D01*
X156574178Y-107696000D01*
X157115822Y-107696000D01*
X157291852Y-107872030D01*
X157318912Y-108015976D01*
X157325824Y-108032663D01*
X157445757Y-108094421D01*
X157480000Y-108060178D01*
X157514243Y-108094421D01*
X157634176Y-108032663D01*
X157667820Y-107872358D01*
X157844178Y-107696000D01*
X157668148Y-107519970D01*
X157641088Y-107376024D01*
X157634176Y-107359337D01*
X157514243Y-107297579D01*
X157480000Y-107331822D01*
X157445757Y-107297579D01*
X157325824Y-107359337D01*
X157292180Y-107519642D01*
X157115822Y-107696000D01*
X156574178Y-107696000D01*
X156560036Y-107681858D01*
X156830858Y-107411036D01*
X156845000Y-107425178D01*
X157233970Y-107036208D01*
X157248072Y-107030381D01*
X157448676Y-106830126D01*
X157479942Y-106754828D01*
X157510619Y-106829072D01*
X157710874Y-107029676D01*
X157725622Y-107035800D01*
X158115000Y-107425178D01*
X158503970Y-107036208D01*
X158518072Y-107030381D01*
X158718676Y-106830126D01*
X158749942Y-106754828D01*
X158780619Y-106829072D01*
X158980874Y-107029676D01*
X159056172Y-107060942D01*
X158981928Y-107091619D01*
X158781324Y-107291874D01*
X158775200Y-107306622D01*
X158385822Y-107696000D01*
X158774792Y-108084970D01*
X158780619Y-108099072D01*
X158980874Y-108299676D01*
X159242653Y-108408376D01*
X159526103Y-108408624D01*
X159631093Y-108365243D01*
X160256579Y-108365243D01*
X160318337Y-108485176D01*
X160645969Y-108553938D01*
X160974976Y-108492088D01*
X160991663Y-108485176D01*
X161053421Y-108365243D01*
X160655000Y-107966822D01*
X160256579Y-108365243D01*
X159631093Y-108365243D01*
X159788072Y-108300381D01*
X159988676Y-108100126D01*
X159994800Y-108085378D01*
X160384178Y-107696000D01*
X160925822Y-107696000D01*
X161324243Y-108094421D01*
X161444176Y-108032663D01*
X161475247Y-107884618D01*
X162743635Y-107884618D01*
X162803888Y-108254292D01*
X162829437Y-108315974D01*
X162959653Y-108390525D01*
X163432178Y-107918000D01*
X163973822Y-107918000D01*
X164446347Y-108390525D01*
X164576563Y-108315974D01*
X164632353Y-108078907D01*
X164890359Y-108078907D01*
X165013794Y-108377643D01*
X165242155Y-108606402D01*
X165540675Y-108730359D01*
X165863907Y-108730641D01*
X166162643Y-108607206D01*
X166391402Y-108378845D01*
X166515359Y-108080325D01*
X166515641Y-107757093D01*
X166392206Y-107458357D01*
X166163845Y-107229598D01*
X165865325Y-107105641D01*
X165542093Y-107105359D01*
X165243357Y-107228794D01*
X165014598Y-107457155D01*
X164890641Y-107755675D01*
X164890359Y-108078907D01*
X164632353Y-108078907D01*
X164662365Y-107951382D01*
X164602112Y-107581708D01*
X164576563Y-107520026D01*
X164446347Y-107445475D01*
X163973822Y-107918000D01*
X163432178Y-107918000D01*
X162959653Y-107445475D01*
X162829437Y-107520026D01*
X162743635Y-107884618D01*
X161475247Y-107884618D01*
X161512938Y-107705031D01*
X161451088Y-107376024D01*
X161444176Y-107359337D01*
X161324243Y-107297579D01*
X160925822Y-107696000D01*
X160384178Y-107696000D01*
X159995208Y-107307030D01*
X159989381Y-107292928D01*
X159789126Y-107092324D01*
X159713828Y-107061058D01*
X159788072Y-107030381D01*
X159988676Y-106830126D01*
X160019942Y-106754828D01*
X160050619Y-106829072D01*
X160250874Y-107029676D01*
X160265622Y-107035800D01*
X160655000Y-107425178D01*
X160905525Y-107174653D01*
X163230475Y-107174653D01*
X163703000Y-107647178D01*
X164175525Y-107174653D01*
X164100974Y-107044437D01*
X163736382Y-106958635D01*
X163366708Y-107018888D01*
X163305026Y-107044437D01*
X163230475Y-107174653D01*
X160905525Y-107174653D01*
X161043970Y-107036208D01*
X161058072Y-107030381D01*
X161258676Y-106830126D01*
X161367376Y-106568347D01*
X161367624Y-106284897D01*
X161329738Y-106193204D01*
X161471233Y-106051709D01*
X161538975Y-105950326D01*
X161562762Y-105830738D01*
X161562762Y-104175612D01*
X161663304Y-104075245D01*
X161711422Y-103959364D01*
X162024490Y-104272432D01*
X162024490Y-104551990D01*
X162048278Y-104671579D01*
X162095312Y-104741971D01*
X162116019Y-104772961D01*
X162951696Y-105608638D01*
X162890641Y-105755675D01*
X162890359Y-106078907D01*
X163013794Y-106377643D01*
X163242155Y-106606402D01*
X163540675Y-106730359D01*
X163863907Y-106730641D01*
X164162643Y-106607206D01*
X164391402Y-106378845D01*
X164515359Y-106080325D01*
X164515641Y-105757093D01*
X164392206Y-105458357D01*
X164314483Y-105380499D01*
X164723557Y-105380499D01*
X164951696Y-105608638D01*
X164890641Y-105755675D01*
X164890359Y-106078907D01*
X165013794Y-106377643D01*
X165242155Y-106606402D01*
X165540675Y-106730359D01*
X165863907Y-106730641D01*
X166162643Y-106607206D01*
X166391402Y-106378845D01*
X166515359Y-106080325D01*
X166515641Y-105757093D01*
X166392206Y-105458357D01*
X166163845Y-105229598D01*
X165865325Y-105105641D01*
X165542093Y-105105359D01*
X165393640Y-105166698D01*
X165073970Y-104847028D01*
X165052589Y-104832742D01*
X164972588Y-104779287D01*
X164852999Y-104755499D01*
X163490441Y-104755499D01*
X163411778Y-104676836D01*
X163540675Y-104730359D01*
X163863907Y-104730641D01*
X164162643Y-104607206D01*
X164391402Y-104378845D01*
X164515359Y-104080325D01*
X164515641Y-103757093D01*
X164392206Y-103458357D01*
X164314483Y-103380499D01*
X164723557Y-103380499D01*
X164951696Y-103608638D01*
X164890641Y-103755675D01*
X164890359Y-104078907D01*
X165013794Y-104377643D01*
X165242155Y-104606402D01*
X165540675Y-104730359D01*
X165863907Y-104730641D01*
X166162643Y-104607206D01*
X166391402Y-104378845D01*
X166515359Y-104080325D01*
X166515641Y-103757093D01*
X166392206Y-103458357D01*
X166163845Y-103229598D01*
X165865325Y-103105641D01*
X165542093Y-103105359D01*
X165393640Y-103166698D01*
X165073970Y-102847028D01*
X165059677Y-102837478D01*
X164972588Y-102779287D01*
X164852999Y-102755499D01*
X163724439Y-102755499D01*
X163699438Y-102730498D01*
X163863907Y-102730641D01*
X164162643Y-102607206D01*
X164391402Y-102378845D01*
X164515359Y-102080325D01*
X164515641Y-101757093D01*
X164392206Y-101458357D01*
X164314483Y-101380499D01*
X164723557Y-101380499D01*
X164951696Y-101608638D01*
X164890641Y-101755675D01*
X164890359Y-102078907D01*
X165013794Y-102377643D01*
X165242155Y-102606402D01*
X165540675Y-102730359D01*
X165863907Y-102730641D01*
X166162643Y-102607206D01*
X166391402Y-102378845D01*
X166515359Y-102080325D01*
X166515641Y-101757093D01*
X166392206Y-101458357D01*
X166163845Y-101229598D01*
X165865325Y-101105641D01*
X165542093Y-101105359D01*
X165393640Y-101166698D01*
X165073970Y-100847028D01*
X165059827Y-100837578D01*
X164972588Y-100779287D01*
X164852999Y-100755499D01*
X163724439Y-100755499D01*
X163699438Y-100730498D01*
X163863907Y-100730641D01*
X164162643Y-100607206D01*
X164391402Y-100378845D01*
X164515359Y-100080325D01*
X164515641Y-99757093D01*
X164392206Y-99458357D01*
X164314483Y-99380499D01*
X164723557Y-99380499D01*
X164951696Y-99608638D01*
X164890641Y-99755675D01*
X164890359Y-100078907D01*
X165013794Y-100377643D01*
X165242155Y-100606402D01*
X165540675Y-100730359D01*
X165863907Y-100730641D01*
X166162643Y-100607206D01*
X166391402Y-100378845D01*
X166515359Y-100080325D01*
X166515641Y-99757093D01*
X166392206Y-99458357D01*
X166163845Y-99229598D01*
X165865325Y-99105641D01*
X165542093Y-99105359D01*
X165393640Y-99166698D01*
X165073970Y-98847028D01*
X165045172Y-98827786D01*
X164972588Y-98779287D01*
X164852999Y-98755499D01*
X163391441Y-98755499D01*
X163242478Y-98606536D01*
X163540675Y-98730359D01*
X163863907Y-98730641D01*
X164162643Y-98607206D01*
X164391402Y-98378845D01*
X164515359Y-98080325D01*
X164515641Y-97757093D01*
X164392206Y-97458357D01*
X164314483Y-97380499D01*
X164723557Y-97380499D01*
X164951696Y-97608638D01*
X164890641Y-97755675D01*
X164890359Y-98078907D01*
X165013794Y-98377643D01*
X165242155Y-98606402D01*
X165540675Y-98730359D01*
X165863907Y-98730641D01*
X166162643Y-98607206D01*
X166391402Y-98378845D01*
X166515359Y-98080325D01*
X166515641Y-97757093D01*
X166392206Y-97458357D01*
X166163845Y-97229598D01*
X165865325Y-97105641D01*
X165542093Y-97105359D01*
X165393640Y-97166698D01*
X165073970Y-96847028D01*
X165036556Y-96822029D01*
X164972588Y-96779287D01*
X164852999Y-96755499D01*
X163724439Y-96755499D01*
X163699438Y-96730498D01*
X163863907Y-96730641D01*
X164162643Y-96607206D01*
X164391402Y-96378845D01*
X164515359Y-96080325D01*
X164515360Y-96078907D01*
X164890359Y-96078907D01*
X165013794Y-96377643D01*
X165242155Y-96606402D01*
X165540675Y-96730359D01*
X165863907Y-96730641D01*
X166162643Y-96607206D01*
X166391402Y-96378845D01*
X166515359Y-96080325D01*
X166515641Y-95757093D01*
X166392206Y-95458357D01*
X166163845Y-95229598D01*
X165865325Y-95105641D01*
X165542093Y-95105359D01*
X165243357Y-95228794D01*
X165014598Y-95457155D01*
X164890641Y-95755675D01*
X164890359Y-96078907D01*
X164515360Y-96078907D01*
X164515641Y-95757093D01*
X164392206Y-95458357D01*
X164163845Y-95229598D01*
X163865325Y-95105641D01*
X163542093Y-95105359D01*
X163243357Y-95228794D01*
X163014598Y-95457155D01*
X162890641Y-95755675D01*
X162890496Y-95921556D01*
X162418469Y-95449529D01*
X162393170Y-95432625D01*
X162317087Y-95381788D01*
X162197498Y-95358000D01*
X160080673Y-95358000D01*
X160080673Y-95320500D01*
X160066121Y-95247341D01*
X160024680Y-95185320D01*
X159962659Y-95143879D01*
X159889500Y-95129327D01*
X159647615Y-95129327D01*
X161500442Y-93276500D01*
X162171313Y-93276500D01*
X162183379Y-93337159D01*
X162224820Y-93399180D01*
X162286841Y-93440621D01*
X162360000Y-93455173D01*
X162760000Y-93455173D01*
X162833159Y-93440621D01*
X162895180Y-93399180D01*
X162936621Y-93337159D01*
X162951173Y-93264000D01*
X162951173Y-92664000D01*
X162936621Y-92590841D01*
X162895180Y-92528820D01*
X162833159Y-92487379D01*
X162760000Y-92472827D01*
X162464262Y-92472827D01*
X162464262Y-92225112D01*
X162564804Y-92124745D01*
X162639177Y-91945633D01*
X162639347Y-91751694D01*
X162565286Y-91572452D01*
X162428269Y-91435196D01*
X162249157Y-91360823D01*
X162055218Y-91360653D01*
X161875976Y-91434714D01*
X161839214Y-91471412D01*
X161815316Y-91413717D01*
X161726283Y-91324684D01*
X161609956Y-91276500D01*
X161463625Y-91276500D01*
X161384500Y-91355625D01*
X161384500Y-91926500D01*
X161433500Y-91926500D01*
X161433500Y-92309500D01*
X161384500Y-92309500D01*
X161384500Y-92329500D01*
X161059500Y-92329500D01*
X161059500Y-92309500D01*
X160659625Y-92309500D01*
X160580500Y-92388625D01*
X160580500Y-92705956D01*
X160628684Y-92822283D01*
X160717717Y-92911316D01*
X160834044Y-92959500D01*
X160933558Y-92959500D01*
X159584537Y-94308521D01*
X159584576Y-94264456D01*
X159510515Y-94085214D01*
X159373498Y-93947958D01*
X159194386Y-93873585D01*
X159059500Y-93873467D01*
X159059500Y-92834173D01*
X159397000Y-92834173D01*
X159470159Y-92819621D01*
X159532180Y-92778180D01*
X159573621Y-92716159D01*
X159588173Y-92643000D01*
X159588173Y-91593000D01*
X159575651Y-91530044D01*
X160580500Y-91530044D01*
X160580500Y-91847375D01*
X160659625Y-91926500D01*
X161059500Y-91926500D01*
X161059500Y-91355625D01*
X160980375Y-91276500D01*
X160834044Y-91276500D01*
X160717717Y-91324684D01*
X160628684Y-91413717D01*
X160580500Y-91530044D01*
X159575651Y-91530044D01*
X159573621Y-91519841D01*
X159532180Y-91457820D01*
X159470159Y-91416379D01*
X159397000Y-91401827D01*
X158791213Y-91401827D01*
X158709589Y-91347288D01*
X158590000Y-91323500D01*
X157549334Y-91323500D01*
X157534180Y-91300820D01*
X157472159Y-91259379D01*
X157399000Y-91244827D01*
X156799000Y-91244827D01*
X156725841Y-91259379D01*
X156663820Y-91300820D01*
X156622379Y-91362841D01*
X156607827Y-91436000D01*
X156607827Y-91836000D01*
X156622379Y-91909159D01*
X156663820Y-91971180D01*
X156725841Y-92012621D01*
X156799000Y-92027173D01*
X157399000Y-92027173D01*
X157472159Y-92012621D01*
X157534180Y-91971180D01*
X157549334Y-91948500D01*
X158460558Y-91948500D01*
X158555827Y-92043769D01*
X158555827Y-92392231D01*
X158526029Y-92422029D01*
X158458288Y-92523411D01*
X158434500Y-92643000D01*
X158434500Y-93526867D01*
X157963253Y-93055620D01*
X157861871Y-92987879D01*
X157742282Y-92964091D01*
X157279744Y-92964091D01*
X157241541Y-92925821D01*
X157062429Y-92851448D01*
X156868490Y-92851278D01*
X156689248Y-92925339D01*
X156551992Y-93062356D01*
X156502791Y-93180847D01*
X155536789Y-92214845D01*
X155554415Y-92172395D01*
X155554585Y-91978456D01*
X155480524Y-91799214D01*
X155343507Y-91661958D01*
X155164395Y-91587585D01*
X154970456Y-91587415D01*
X154791214Y-91661476D01*
X154653958Y-91798493D01*
X154579585Y-91977605D01*
X154579415Y-92171544D01*
X154653476Y-92350786D01*
X154790493Y-92488042D01*
X154969605Y-92562415D01*
X155000502Y-92562442D01*
X156327843Y-93889783D01*
X156188214Y-93947476D01*
X156050958Y-94084493D01*
X155976585Y-94263605D01*
X155976415Y-94457544D01*
X156050476Y-94636786D01*
X156187493Y-94774042D01*
X156366605Y-94848415D01*
X156452000Y-94848490D01*
X156452000Y-95141759D01*
X156390460Y-95129518D01*
X155654971Y-94394029D01*
X155641717Y-94385173D01*
X155553589Y-94326288D01*
X155434000Y-94302500D01*
X155300552Y-94302500D01*
X155300585Y-94264456D01*
X155226524Y-94085214D01*
X155089507Y-93947958D01*
X154910395Y-93873585D01*
X154716456Y-93873415D01*
X154537214Y-93947476D01*
X154399958Y-94084493D01*
X154325585Y-94263605D01*
X154325551Y-94302500D01*
X154003173Y-94302500D01*
X154003173Y-94188000D01*
X153988621Y-94114841D01*
X153947180Y-94052820D01*
X153885159Y-94011379D01*
X153812000Y-93996827D01*
X153412000Y-93996827D01*
X153338841Y-94011379D01*
X153276820Y-94052820D01*
X153235379Y-94114841D01*
X153220827Y-94188000D01*
X153220827Y-94537231D01*
X153103173Y-94654885D01*
X153103173Y-94188000D01*
X153088621Y-94114841D01*
X153047180Y-94052820D01*
X153024500Y-94037666D01*
X153024500Y-92933594D01*
X153087044Y-92959500D01*
X153233375Y-92959500D01*
X153312500Y-92880375D01*
X153312500Y-92309500D01*
X153637500Y-92309500D01*
X153637500Y-92880375D01*
X153716625Y-92959500D01*
X153862956Y-92959500D01*
X153979283Y-92911316D01*
X154068316Y-92822283D01*
X154116500Y-92705956D01*
X154116500Y-92388625D01*
X154037375Y-92309500D01*
X153637500Y-92309500D01*
X153312500Y-92309500D01*
X152912625Y-92309500D01*
X152889286Y-92332839D01*
X152831588Y-92294287D01*
X152771759Y-92282387D01*
X152712500Y-92223024D01*
X152712500Y-92067440D01*
X152883033Y-91896908D01*
X152912625Y-91926500D01*
X153312500Y-91926500D01*
X153312500Y-91906500D01*
X153637500Y-91906500D01*
X153637500Y-91926500D01*
X154037375Y-91926500D01*
X154116500Y-91847375D01*
X154116500Y-91530044D01*
X154068316Y-91413717D01*
X153979283Y-91324684D01*
X153862956Y-91276500D01*
X153716625Y-91276500D01*
X153666502Y-91326623D01*
X153666502Y-91276500D01*
X153503440Y-91276500D01*
X153731440Y-91048500D01*
X156648666Y-91048500D01*
X156663820Y-91071180D01*
X156725841Y-91112621D01*
X156799000Y-91127173D01*
X157399000Y-91127173D01*
X157472159Y-91112621D01*
X157534180Y-91071180D01*
X157549334Y-91048500D01*
X162234558Y-91048500D01*
X163136500Y-91950442D01*
X163136500Y-92403000D01*
X163147500Y-92458300D01*
X163147500Y-92513666D01*
X163124820Y-92528820D01*
X163083379Y-92590841D01*
X163068827Y-92664000D01*
X163068827Y-93264000D01*
X163083379Y-93337159D01*
X163124820Y-93399180D01*
X163186841Y-93440621D01*
X163260000Y-93455173D01*
X163660000Y-93455173D01*
X163733159Y-93440621D01*
X163795180Y-93399180D01*
X163836621Y-93337159D01*
X163851173Y-93264000D01*
X163851173Y-92664000D01*
X163836621Y-92590841D01*
X163795180Y-92528820D01*
X163772500Y-92513666D01*
X163772500Y-92414000D01*
X163761500Y-92358700D01*
X163761500Y-91821000D01*
X163758417Y-91805500D01*
X163737713Y-91701412D01*
X163669971Y-91600029D01*
X163022454Y-90952512D01*
X163191310Y-90952512D01*
X163423355Y-91215302D01*
X164252538Y-91515283D01*
X165133401Y-91475115D01*
X165760645Y-91215302D01*
X165992690Y-90952512D01*
X164592000Y-89551822D01*
X163191310Y-90952512D01*
X163022454Y-90952512D01*
X162584971Y-90515029D01*
X162567848Y-90503588D01*
X162483589Y-90447288D01*
X162364000Y-90423500D01*
X157549334Y-90423500D01*
X157534180Y-90400820D01*
X157472159Y-90359379D01*
X157399000Y-90344827D01*
X156799000Y-90344827D01*
X156725841Y-90359379D01*
X156663820Y-90400820D01*
X156648666Y-90423500D01*
X153601998Y-90423500D01*
X153482409Y-90447288D01*
X153398150Y-90503588D01*
X153381027Y-90515029D01*
X152179029Y-91717027D01*
X152111288Y-91818409D01*
X152087500Y-91937998D01*
X152087500Y-92223136D01*
X151986958Y-92323503D01*
X151912585Y-92502615D01*
X151912415Y-92696554D01*
X151986476Y-92875796D01*
X152074027Y-92963500D01*
X151707334Y-92963500D01*
X151692180Y-92940820D01*
X151630159Y-92899379D01*
X151557000Y-92884827D01*
X151307769Y-92884827D01*
X151257115Y-92834173D01*
X151650000Y-92834173D01*
X151723159Y-92819621D01*
X151785180Y-92778180D01*
X151826621Y-92716159D01*
X151841173Y-92643000D01*
X151841173Y-91593000D01*
X151826621Y-91519841D01*
X151785180Y-91457820D01*
X151723159Y-91416379D01*
X151650000Y-91401827D01*
X151250769Y-91401827D01*
X150846970Y-90998028D01*
X150828431Y-90985641D01*
X150745588Y-90930287D01*
X150625999Y-90906499D01*
X147800143Y-90906499D01*
X148073689Y-90632953D01*
X148620480Y-90632953D01*
X148693639Y-90618401D01*
X148755660Y-90576960D01*
X148797101Y-90514939D01*
X148811653Y-90441780D01*
X148811653Y-89644220D01*
X148797101Y-89571061D01*
X148755660Y-89509040D01*
X148693639Y-89467599D01*
X148620480Y-89453047D01*
X147822920Y-89453047D01*
X147749761Y-89467599D01*
X147687740Y-89509040D01*
X147646299Y-89571061D01*
X147631747Y-89644220D01*
X147631747Y-90191011D01*
X147225419Y-90597339D01*
X147163395Y-90571585D01*
X146969456Y-90571415D01*
X146790214Y-90645476D01*
X146652958Y-90782493D01*
X146578585Y-90961605D01*
X146578415Y-91155544D01*
X146652476Y-91334786D01*
X146789493Y-91472042D01*
X146968605Y-91546415D01*
X147025593Y-91546465D01*
X146464029Y-92108029D01*
X146396288Y-92209411D01*
X146372500Y-92329000D01*
X146372500Y-93218000D01*
X146396288Y-93337589D01*
X146435437Y-93396180D01*
X146464029Y-93438971D01*
X147013510Y-93988452D01*
X147013510Y-94138790D01*
X144322861Y-91448141D01*
X144180926Y-91353303D01*
X144013502Y-91320000D01*
X138493500Y-91320000D01*
X138326076Y-91353303D01*
X138184141Y-91448141D01*
X138058282Y-91574000D01*
X137707000Y-91574000D01*
X137599783Y-91595327D01*
X137412000Y-91595327D01*
X137338841Y-91609879D01*
X137276820Y-91651320D01*
X137235379Y-91713341D01*
X137220827Y-91786500D01*
X137220827Y-92236500D01*
X137235379Y-92309659D01*
X137269500Y-92360725D01*
X137269500Y-93884775D01*
X137235379Y-93935841D01*
X137220827Y-94009000D01*
X137220827Y-94167883D01*
X136901000Y-93848056D01*
X136901000Y-89985334D01*
X136923680Y-89970180D01*
X136965121Y-89908159D01*
X136979673Y-89835000D01*
X136979673Y-89235000D01*
X136965121Y-89161841D01*
X136923680Y-89099820D01*
X136861659Y-89058379D01*
X136788500Y-89043827D01*
X136388500Y-89043827D01*
X136315341Y-89058379D01*
X136253320Y-89099820D01*
X136211879Y-89161841D01*
X136197327Y-89235000D01*
X136197327Y-89835000D01*
X136211879Y-89908159D01*
X136253320Y-89970180D01*
X136276000Y-89985334D01*
X136276000Y-91323556D01*
X135523773Y-90571329D01*
X135470899Y-90536000D01*
X135422391Y-90503588D01*
X135302802Y-90479800D01*
X134701953Y-90479800D01*
X134701953Y-90393520D01*
X134687401Y-90320361D01*
X134645960Y-90258340D01*
X134583939Y-90216899D01*
X134510780Y-90202347D01*
X133713220Y-90202347D01*
X133640061Y-90216899D01*
X133578040Y-90258340D01*
X133536599Y-90320361D01*
X133522047Y-90393520D01*
X133522047Y-91191080D01*
X133536599Y-91264239D01*
X133578040Y-91326260D01*
X133640061Y-91367701D01*
X133713220Y-91382253D01*
X134510780Y-91382253D01*
X134583939Y-91367701D01*
X134645960Y-91326260D01*
X134687401Y-91264239D01*
X134701953Y-91191080D01*
X134701953Y-91104800D01*
X135173360Y-91104800D01*
X135653873Y-91585313D01*
X135597000Y-91574000D01*
X133739718Y-91574000D01*
X133279500Y-91113782D01*
X133279500Y-88894920D01*
X133522047Y-88894920D01*
X133522047Y-89692480D01*
X133536599Y-89765639D01*
X133578040Y-89827660D01*
X133640061Y-89869101D01*
X133713220Y-89883653D01*
X134510780Y-89883653D01*
X134583939Y-89869101D01*
X134645960Y-89827660D01*
X134687401Y-89765639D01*
X134701953Y-89692480D01*
X134701953Y-89606200D01*
X135297327Y-89606200D01*
X135297327Y-89835000D01*
X135311879Y-89908159D01*
X135353320Y-89970180D01*
X135415341Y-90011621D01*
X135488500Y-90026173D01*
X135888500Y-90026173D01*
X135961659Y-90011621D01*
X136023680Y-89970180D01*
X136065121Y-89908159D01*
X136079673Y-89835000D01*
X136079673Y-89235000D01*
X136065121Y-89161841D01*
X136023680Y-89099820D01*
X135961659Y-89058379D01*
X135888500Y-89043827D01*
X135624916Y-89043827D01*
X135566789Y-89004988D01*
X135447200Y-88981200D01*
X134701953Y-88981200D01*
X134701953Y-88894920D01*
X134687401Y-88821761D01*
X134645960Y-88759740D01*
X134583939Y-88718299D01*
X134510780Y-88703747D01*
X133713220Y-88703747D01*
X133640061Y-88718299D01*
X133578040Y-88759740D01*
X133536599Y-88821761D01*
X133522047Y-88894920D01*
X133279500Y-88894920D01*
X133279500Y-88781000D01*
X133246197Y-88613576D01*
X133207697Y-88555956D01*
X133151359Y-88471640D01*
X132381359Y-87701641D01*
X132239424Y-87606803D01*
X132072000Y-87573500D01*
X131763173Y-87573500D01*
X131763173Y-87003500D01*
X138002827Y-87003500D01*
X138002827Y-90268000D01*
X138002827Y-90268000D01*
G37*
X138002827Y-90268000D02*
X138017379Y-90341159D01*
X138058820Y-90403180D01*
X138120841Y-90444621D01*
X138194000Y-90459173D01*
X139894000Y-90459173D01*
X139967159Y-90444621D01*
X140029180Y-90403180D01*
X140070621Y-90341159D01*
X140085173Y-90268000D01*
X140085173Y-87003500D01*
X144902827Y-87003500D01*
X144902827Y-90268000D01*
X144917379Y-90341159D01*
X144958820Y-90403180D01*
X145020841Y-90444621D01*
X145094000Y-90459173D01*
X146794000Y-90459173D01*
X146867159Y-90444621D01*
X146929180Y-90403180D01*
X146970621Y-90341159D01*
X146985173Y-90268000D01*
X146985173Y-88621125D01*
X148327500Y-88621125D01*
X148327500Y-88754956D01*
X148375684Y-88871283D01*
X148464717Y-88960316D01*
X148581044Y-89008500D01*
X148664875Y-89008500D01*
X148744000Y-88929375D01*
X148744000Y-88542000D01*
X148406625Y-88542000D01*
X148327500Y-88621125D01*
X146985173Y-88621125D01*
X146985173Y-88029044D01*
X148327500Y-88029044D01*
X148327500Y-88162875D01*
X148406625Y-88242000D01*
X148744000Y-88242000D01*
X148744000Y-87854625D01*
X148944000Y-87854625D01*
X148944000Y-88242000D01*
X149044000Y-88242000D01*
X149044000Y-88542000D01*
X148944000Y-88542000D01*
X148944000Y-88929375D01*
X149023125Y-89008500D01*
X149106956Y-89008500D01*
X149223283Y-88960316D01*
X149312316Y-88871283D01*
X149360500Y-88754956D01*
X149360500Y-88730575D01*
X149367379Y-88765159D01*
X149407800Y-88825653D01*
X149407800Y-89453047D01*
X149321520Y-89453047D01*
X149248361Y-89467599D01*
X149186340Y-89509040D01*
X149144899Y-89571061D01*
X149130347Y-89644220D01*
X149130347Y-90441780D01*
X149144899Y-90514939D01*
X149186340Y-90576960D01*
X149248361Y-90618401D01*
X149321520Y-90632953D01*
X150119080Y-90632953D01*
X150192239Y-90618401D01*
X150254260Y-90576960D01*
X150295701Y-90514939D01*
X150310253Y-90441780D01*
X150310253Y-89644220D01*
X150295701Y-89571061D01*
X150254260Y-89509040D01*
X150192239Y-89467599D01*
X150119080Y-89453047D01*
X150032800Y-89453047D01*
X150032800Y-88941538D01*
X162357717Y-88941538D01*
X162397885Y-89822401D01*
X162657698Y-90449645D01*
X162920488Y-90681690D01*
X164321178Y-89281000D01*
X164862822Y-89281000D01*
X166263512Y-90681690D01*
X166526302Y-90449645D01*
X166826283Y-89620462D01*
X166786115Y-88739599D01*
X166526302Y-88112355D01*
X166263512Y-87880310D01*
X164862822Y-89281000D01*
X164321178Y-89281000D01*
X162920488Y-87880310D01*
X162657698Y-88112355D01*
X162357717Y-88941538D01*
X150032800Y-88941538D01*
X150032800Y-88858170D01*
X150079180Y-88827180D01*
X150120621Y-88765159D01*
X150135173Y-88692000D01*
X150135173Y-88092000D01*
X150120621Y-88018841D01*
X150079180Y-87956820D01*
X150017159Y-87915379D01*
X149944000Y-87900827D01*
X149544000Y-87900827D01*
X149470841Y-87915379D01*
X149408820Y-87956820D01*
X149367379Y-88018841D01*
X149360500Y-88053425D01*
X149360500Y-88029044D01*
X149312316Y-87912717D01*
X149223283Y-87823684D01*
X149106956Y-87775500D01*
X149023125Y-87775500D01*
X148944000Y-87854625D01*
X148744000Y-87854625D01*
X148664875Y-87775500D01*
X148581044Y-87775500D01*
X148464717Y-87823684D01*
X148375684Y-87912717D01*
X148327500Y-88029044D01*
X146985173Y-88029044D01*
X146985173Y-87443000D01*
X150808827Y-87443000D01*
X150808827Y-88493000D01*
X150823379Y-88566159D01*
X150864820Y-88628180D01*
X150926841Y-88669621D01*
X151000000Y-88684173D01*
X151650000Y-88684173D01*
X151723159Y-88669621D01*
X151785180Y-88628180D01*
X151826621Y-88566159D01*
X151841173Y-88493000D01*
X151841173Y-88238625D01*
X152833500Y-88238625D01*
X152833500Y-88555956D01*
X152881684Y-88672283D01*
X152970717Y-88761316D01*
X153087044Y-88809500D01*
X153233375Y-88809500D01*
X153312500Y-88730375D01*
X153312500Y-88159500D01*
X153637500Y-88159500D01*
X153637500Y-88730375D01*
X153716625Y-88809500D01*
X153862956Y-88809500D01*
X153979283Y-88761316D01*
X154068316Y-88672283D01*
X154116500Y-88555956D01*
X154116500Y-88238625D01*
X154037375Y-88159500D01*
X153637500Y-88159500D01*
X153312500Y-88159500D01*
X152912625Y-88159500D01*
X152833500Y-88238625D01*
X151841173Y-88238625D01*
X151841173Y-87443000D01*
X151828651Y-87380044D01*
X152833500Y-87380044D01*
X152833500Y-87697375D01*
X152912625Y-87776500D01*
X153312500Y-87776500D01*
X153312500Y-87205625D01*
X153637500Y-87205625D01*
X153637500Y-87776500D01*
X154037375Y-87776500D01*
X154116500Y-87697375D01*
X154116500Y-87443000D01*
X158555827Y-87443000D01*
X158555827Y-88493000D01*
X158570379Y-88566159D01*
X158611820Y-88628180D01*
X158673841Y-88669621D01*
X158747000Y-88684173D01*
X159397000Y-88684173D01*
X159470159Y-88669621D01*
X159532180Y-88628180D01*
X159573621Y-88566159D01*
X159588173Y-88493000D01*
X159588173Y-88238625D01*
X160580500Y-88238625D01*
X160580500Y-88555956D01*
X160628684Y-88672283D01*
X160717717Y-88761316D01*
X160834044Y-88809500D01*
X160980375Y-88809500D01*
X161059500Y-88730375D01*
X161059500Y-88159500D01*
X161384500Y-88159500D01*
X161384500Y-88730375D01*
X161463625Y-88809500D01*
X161609956Y-88809500D01*
X161726283Y-88761316D01*
X161815316Y-88672283D01*
X161863500Y-88555956D01*
X161863500Y-88238625D01*
X161784375Y-88159500D01*
X161384500Y-88159500D01*
X161059500Y-88159500D01*
X160659625Y-88159500D01*
X160580500Y-88238625D01*
X159588173Y-88238625D01*
X159588173Y-87443000D01*
X159575651Y-87380044D01*
X160580500Y-87380044D01*
X160580500Y-87697375D01*
X160659625Y-87776500D01*
X161059500Y-87776500D01*
X161059500Y-87205625D01*
X161384500Y-87205625D01*
X161384500Y-87776500D01*
X161784375Y-87776500D01*
X161863500Y-87697375D01*
X161863500Y-87609488D01*
X163191310Y-87609488D01*
X164592000Y-89010178D01*
X165992690Y-87609488D01*
X165760645Y-87346698D01*
X164931462Y-87046717D01*
X164050599Y-87086885D01*
X163423355Y-87346698D01*
X163191310Y-87609488D01*
X161863500Y-87609488D01*
X161863500Y-87380044D01*
X161815316Y-87263717D01*
X161726283Y-87174684D01*
X161609956Y-87126500D01*
X161463625Y-87126500D01*
X161384500Y-87205625D01*
X161059500Y-87205625D01*
X160980375Y-87126500D01*
X160834044Y-87126500D01*
X160717717Y-87174684D01*
X160628684Y-87263717D01*
X160580500Y-87380044D01*
X159575651Y-87380044D01*
X159573621Y-87369841D01*
X159532180Y-87307820D01*
X159470159Y-87266379D01*
X159397000Y-87251827D01*
X158747000Y-87251827D01*
X158673841Y-87266379D01*
X158611820Y-87307820D01*
X158570379Y-87369841D01*
X158555827Y-87443000D01*
X154116500Y-87443000D01*
X154116500Y-87380044D01*
X154068316Y-87263717D01*
X153979283Y-87174684D01*
X153862956Y-87126500D01*
X153716625Y-87126500D01*
X153637500Y-87205625D01*
X153312500Y-87205625D01*
X153233375Y-87126500D01*
X153087044Y-87126500D01*
X152970717Y-87174684D01*
X152881684Y-87263717D01*
X152833500Y-87380044D01*
X151828651Y-87380044D01*
X151826621Y-87369841D01*
X151785180Y-87307820D01*
X151723159Y-87266379D01*
X151650000Y-87251827D01*
X151000000Y-87251827D01*
X150926841Y-87266379D01*
X150864820Y-87307820D01*
X150823379Y-87369841D01*
X150808827Y-87443000D01*
X146985173Y-87443000D01*
X146985173Y-87003500D01*
X166869500Y-87003500D01*
X166869500Y-109211500D01*
X151393873Y-109211500D01*
X151479970Y-109153972D01*
X151972595Y-108661347D01*
X163230475Y-108661347D01*
X163305026Y-108791563D01*
X163669618Y-108877365D01*
X164039292Y-108817112D01*
X164100974Y-108791563D01*
X164175525Y-108661347D01*
X163703000Y-108188822D01*
X163230475Y-108661347D01*
X151972595Y-108661347D01*
X152223769Y-108410173D01*
X152573000Y-108410173D01*
X152646159Y-108395621D01*
X152708180Y-108354180D01*
X152723334Y-108331500D01*
X153346666Y-108331500D01*
X153361820Y-108354180D01*
X153423841Y-108395621D01*
X153497000Y-108410173D01*
X154097000Y-108410173D01*
X154170159Y-108395621D01*
X154232180Y-108354180D01*
X154273621Y-108292159D01*
X154288173Y-108219000D01*
X154288173Y-108008500D01*
X154858827Y-108008500D01*
X154858827Y-108221000D01*
X154873379Y-108294159D01*
X154914820Y-108356180D01*
X154976841Y-108397621D01*
X155050000Y-108412173D01*
X156100000Y-108412173D01*
X156173159Y-108397621D01*
X156235180Y-108356180D01*
X156258554Y-108321199D01*
X156374590Y-108437235D01*
X156446580Y-108365245D01*
X156508337Y-108485176D01*
X156835969Y-108553938D01*
X157164976Y-108492088D01*
X157181663Y-108485176D01*
X157243421Y-108365243D01*
X157716579Y-108365243D01*
X157778337Y-108485176D01*
X158105969Y-108553938D01*
X158434976Y-108492088D01*
X158451663Y-108485176D01*
X158513421Y-108365243D01*
X158115000Y-107966822D01*
X157716579Y-108365243D01*
X157243421Y-108365243D01*
X156845000Y-107966822D01*
X156830858Y-107980964D01*
X156560036Y-107710142D01*
X156574178Y-107696000D01*
X157115822Y-107696000D01*
X157291852Y-107872030D01*
X157318912Y-108015976D01*
X157325824Y-108032663D01*
X157445757Y-108094421D01*
X157480000Y-108060178D01*
X157514243Y-108094421D01*
X157634176Y-108032663D01*
X157667820Y-107872358D01*
X157844178Y-107696000D01*
X157668148Y-107519970D01*
X157641088Y-107376024D01*
X157634176Y-107359337D01*
X157514243Y-107297579D01*
X157480000Y-107331822D01*
X157445757Y-107297579D01*
X157325824Y-107359337D01*
X157292180Y-107519642D01*
X157115822Y-107696000D01*
X156574178Y-107696000D01*
X156560036Y-107681858D01*
X156830858Y-107411036D01*
X156845000Y-107425178D01*
X157233970Y-107036208D01*
X157248072Y-107030381D01*
X157448676Y-106830126D01*
X157479942Y-106754828D01*
X157510619Y-106829072D01*
X157710874Y-107029676D01*
X157725622Y-107035800D01*
X158115000Y-107425178D01*
X158503970Y-107036208D01*
X158518072Y-107030381D01*
X158718676Y-106830126D01*
X158749942Y-106754828D01*
X158780619Y-106829072D01*
X158980874Y-107029676D01*
X159056172Y-107060942D01*
X158981928Y-107091619D01*
X158781324Y-107291874D01*
X158775200Y-107306622D01*
X158385822Y-107696000D01*
X158774792Y-108084970D01*
X158780619Y-108099072D01*
X158980874Y-108299676D01*
X159242653Y-108408376D01*
X159526103Y-108408624D01*
X159631093Y-108365243D01*
X160256579Y-108365243D01*
X160318337Y-108485176D01*
X160645969Y-108553938D01*
X160974976Y-108492088D01*
X160991663Y-108485176D01*
X161053421Y-108365243D01*
X160655000Y-107966822D01*
X160256579Y-108365243D01*
X159631093Y-108365243D01*
X159788072Y-108300381D01*
X159988676Y-108100126D01*
X159994800Y-108085378D01*
X160384178Y-107696000D01*
X160925822Y-107696000D01*
X161324243Y-108094421D01*
X161444176Y-108032663D01*
X161475247Y-107884618D01*
X162743635Y-107884618D01*
X162803888Y-108254292D01*
X162829437Y-108315974D01*
X162959653Y-108390525D01*
X163432178Y-107918000D01*
X163973822Y-107918000D01*
X164446347Y-108390525D01*
X164576563Y-108315974D01*
X164632353Y-108078907D01*
X164890359Y-108078907D01*
X165013794Y-108377643D01*
X165242155Y-108606402D01*
X165540675Y-108730359D01*
X165863907Y-108730641D01*
X166162643Y-108607206D01*
X166391402Y-108378845D01*
X166515359Y-108080325D01*
X166515641Y-107757093D01*
X166392206Y-107458357D01*
X166163845Y-107229598D01*
X165865325Y-107105641D01*
X165542093Y-107105359D01*
X165243357Y-107228794D01*
X165014598Y-107457155D01*
X164890641Y-107755675D01*
X164890359Y-108078907D01*
X164632353Y-108078907D01*
X164662365Y-107951382D01*
X164602112Y-107581708D01*
X164576563Y-107520026D01*
X164446347Y-107445475D01*
X163973822Y-107918000D01*
X163432178Y-107918000D01*
X162959653Y-107445475D01*
X162829437Y-107520026D01*
X162743635Y-107884618D01*
X161475247Y-107884618D01*
X161512938Y-107705031D01*
X161451088Y-107376024D01*
X161444176Y-107359337D01*
X161324243Y-107297579D01*
X160925822Y-107696000D01*
X160384178Y-107696000D01*
X159995208Y-107307030D01*
X159989381Y-107292928D01*
X159789126Y-107092324D01*
X159713828Y-107061058D01*
X159788072Y-107030381D01*
X159988676Y-106830126D01*
X160019942Y-106754828D01*
X160050619Y-106829072D01*
X160250874Y-107029676D01*
X160265622Y-107035800D01*
X160655000Y-107425178D01*
X160905525Y-107174653D01*
X163230475Y-107174653D01*
X163703000Y-107647178D01*
X164175525Y-107174653D01*
X164100974Y-107044437D01*
X163736382Y-106958635D01*
X163366708Y-107018888D01*
X163305026Y-107044437D01*
X163230475Y-107174653D01*
X160905525Y-107174653D01*
X161043970Y-107036208D01*
X161058072Y-107030381D01*
X161258676Y-106830126D01*
X161367376Y-106568347D01*
X161367624Y-106284897D01*
X161329738Y-106193204D01*
X161471233Y-106051709D01*
X161538975Y-105950326D01*
X161562762Y-105830738D01*
X161562762Y-104175612D01*
X161663304Y-104075245D01*
X161711422Y-103959364D01*
X162024490Y-104272432D01*
X162024490Y-104551990D01*
X162048278Y-104671579D01*
X162095312Y-104741971D01*
X162116019Y-104772961D01*
X162951696Y-105608638D01*
X162890641Y-105755675D01*
X162890359Y-106078907D01*
X163013794Y-106377643D01*
X163242155Y-106606402D01*
X163540675Y-106730359D01*
X163863907Y-106730641D01*
X164162643Y-106607206D01*
X164391402Y-106378845D01*
X164515359Y-106080325D01*
X164515641Y-105757093D01*
X164392206Y-105458357D01*
X164314483Y-105380499D01*
X164723557Y-105380499D01*
X164951696Y-105608638D01*
X164890641Y-105755675D01*
X164890359Y-106078907D01*
X165013794Y-106377643D01*
X165242155Y-106606402D01*
X165540675Y-106730359D01*
X165863907Y-106730641D01*
X166162643Y-106607206D01*
X166391402Y-106378845D01*
X166515359Y-106080325D01*
X166515641Y-105757093D01*
X166392206Y-105458357D01*
X166163845Y-105229598D01*
X165865325Y-105105641D01*
X165542093Y-105105359D01*
X165393640Y-105166698D01*
X165073970Y-104847028D01*
X165052589Y-104832742D01*
X164972588Y-104779287D01*
X164852999Y-104755499D01*
X163490441Y-104755499D01*
X163411778Y-104676836D01*
X163540675Y-104730359D01*
X163863907Y-104730641D01*
X164162643Y-104607206D01*
X164391402Y-104378845D01*
X164515359Y-104080325D01*
X164515641Y-103757093D01*
X164392206Y-103458357D01*
X164314483Y-103380499D01*
X164723557Y-103380499D01*
X164951696Y-103608638D01*
X164890641Y-103755675D01*
X164890359Y-104078907D01*
X165013794Y-104377643D01*
X165242155Y-104606402D01*
X165540675Y-104730359D01*
X165863907Y-104730641D01*
X166162643Y-104607206D01*
X166391402Y-104378845D01*
X166515359Y-104080325D01*
X166515641Y-103757093D01*
X166392206Y-103458357D01*
X166163845Y-103229598D01*
X165865325Y-103105641D01*
X165542093Y-103105359D01*
X165393640Y-103166698D01*
X165073970Y-102847028D01*
X165059677Y-102837478D01*
X164972588Y-102779287D01*
X164852999Y-102755499D01*
X163724439Y-102755499D01*
X163699438Y-102730498D01*
X163863907Y-102730641D01*
X164162643Y-102607206D01*
X164391402Y-102378845D01*
X164515359Y-102080325D01*
X164515641Y-101757093D01*
X164392206Y-101458357D01*
X164314483Y-101380499D01*
X164723557Y-101380499D01*
X164951696Y-101608638D01*
X164890641Y-101755675D01*
X164890359Y-102078907D01*
X165013794Y-102377643D01*
X165242155Y-102606402D01*
X165540675Y-102730359D01*
X165863907Y-102730641D01*
X166162643Y-102607206D01*
X166391402Y-102378845D01*
X166515359Y-102080325D01*
X166515641Y-101757093D01*
X166392206Y-101458357D01*
X166163845Y-101229598D01*
X165865325Y-101105641D01*
X165542093Y-101105359D01*
X165393640Y-101166698D01*
X165073970Y-100847028D01*
X165059827Y-100837578D01*
X164972588Y-100779287D01*
X164852999Y-100755499D01*
X163724439Y-100755499D01*
X163699438Y-100730498D01*
X163863907Y-100730641D01*
X164162643Y-100607206D01*
X164391402Y-100378845D01*
X164515359Y-100080325D01*
X164515641Y-99757093D01*
X164392206Y-99458357D01*
X164314483Y-99380499D01*
X164723557Y-99380499D01*
X164951696Y-99608638D01*
X164890641Y-99755675D01*
X164890359Y-100078907D01*
X165013794Y-100377643D01*
X165242155Y-100606402D01*
X165540675Y-100730359D01*
X165863907Y-100730641D01*
X166162643Y-100607206D01*
X166391402Y-100378845D01*
X166515359Y-100080325D01*
X166515641Y-99757093D01*
X166392206Y-99458357D01*
X166163845Y-99229598D01*
X165865325Y-99105641D01*
X165542093Y-99105359D01*
X165393640Y-99166698D01*
X165073970Y-98847028D01*
X165045172Y-98827786D01*
X164972588Y-98779287D01*
X164852999Y-98755499D01*
X163391441Y-98755499D01*
X163242478Y-98606536D01*
X163540675Y-98730359D01*
X163863907Y-98730641D01*
X164162643Y-98607206D01*
X164391402Y-98378845D01*
X164515359Y-98080325D01*
X164515641Y-97757093D01*
X164392206Y-97458357D01*
X164314483Y-97380499D01*
X164723557Y-97380499D01*
X164951696Y-97608638D01*
X164890641Y-97755675D01*
X164890359Y-98078907D01*
X165013794Y-98377643D01*
X165242155Y-98606402D01*
X165540675Y-98730359D01*
X165863907Y-98730641D01*
X166162643Y-98607206D01*
X166391402Y-98378845D01*
X166515359Y-98080325D01*
X166515641Y-97757093D01*
X166392206Y-97458357D01*
X166163845Y-97229598D01*
X165865325Y-97105641D01*
X165542093Y-97105359D01*
X165393640Y-97166698D01*
X165073970Y-96847028D01*
X165036556Y-96822029D01*
X164972588Y-96779287D01*
X164852999Y-96755499D01*
X163724439Y-96755499D01*
X163699438Y-96730498D01*
X163863907Y-96730641D01*
X164162643Y-96607206D01*
X164391402Y-96378845D01*
X164515359Y-96080325D01*
X164515360Y-96078907D01*
X164890359Y-96078907D01*
X165013794Y-96377643D01*
X165242155Y-96606402D01*
X165540675Y-96730359D01*
X165863907Y-96730641D01*
X166162643Y-96607206D01*
X166391402Y-96378845D01*
X166515359Y-96080325D01*
X166515641Y-95757093D01*
X166392206Y-95458357D01*
X166163845Y-95229598D01*
X165865325Y-95105641D01*
X165542093Y-95105359D01*
X165243357Y-95228794D01*
X165014598Y-95457155D01*
X164890641Y-95755675D01*
X164890359Y-96078907D01*
X164515360Y-96078907D01*
X164515641Y-95757093D01*
X164392206Y-95458357D01*
X164163845Y-95229598D01*
X163865325Y-95105641D01*
X163542093Y-95105359D01*
X163243357Y-95228794D01*
X163014598Y-95457155D01*
X162890641Y-95755675D01*
X162890496Y-95921556D01*
X162418469Y-95449529D01*
X162393170Y-95432625D01*
X162317087Y-95381788D01*
X162197498Y-95358000D01*
X160080673Y-95358000D01*
X160080673Y-95320500D01*
X160066121Y-95247341D01*
X160024680Y-95185320D01*
X159962659Y-95143879D01*
X159889500Y-95129327D01*
X159647615Y-95129327D01*
X161500442Y-93276500D01*
X162171313Y-93276500D01*
X162183379Y-93337159D01*
X162224820Y-93399180D01*
X162286841Y-93440621D01*
X162360000Y-93455173D01*
X162760000Y-93455173D01*
X162833159Y-93440621D01*
X162895180Y-93399180D01*
X162936621Y-93337159D01*
X162951173Y-93264000D01*
X162951173Y-92664000D01*
X162936621Y-92590841D01*
X162895180Y-92528820D01*
X162833159Y-92487379D01*
X162760000Y-92472827D01*
X162464262Y-92472827D01*
X162464262Y-92225112D01*
X162564804Y-92124745D01*
X162639177Y-91945633D01*
X162639347Y-91751694D01*
X162565286Y-91572452D01*
X162428269Y-91435196D01*
X162249157Y-91360823D01*
X162055218Y-91360653D01*
X161875976Y-91434714D01*
X161839214Y-91471412D01*
X161815316Y-91413717D01*
X161726283Y-91324684D01*
X161609956Y-91276500D01*
X161463625Y-91276500D01*
X161384500Y-91355625D01*
X161384500Y-91926500D01*
X161433500Y-91926500D01*
X161433500Y-92309500D01*
X161384500Y-92309500D01*
X161384500Y-92329500D01*
X161059500Y-92329500D01*
X161059500Y-92309500D01*
X160659625Y-92309500D01*
X160580500Y-92388625D01*
X160580500Y-92705956D01*
X160628684Y-92822283D01*
X160717717Y-92911316D01*
X160834044Y-92959500D01*
X160933558Y-92959500D01*
X159584537Y-94308521D01*
X159584576Y-94264456D01*
X159510515Y-94085214D01*
X159373498Y-93947958D01*
X159194386Y-93873585D01*
X159059500Y-93873467D01*
X159059500Y-92834173D01*
X159397000Y-92834173D01*
X159470159Y-92819621D01*
X159532180Y-92778180D01*
X159573621Y-92716159D01*
X159588173Y-92643000D01*
X159588173Y-91593000D01*
X159575651Y-91530044D01*
X160580500Y-91530044D01*
X160580500Y-91847375D01*
X160659625Y-91926500D01*
X161059500Y-91926500D01*
X161059500Y-91355625D01*
X160980375Y-91276500D01*
X160834044Y-91276500D01*
X160717717Y-91324684D01*
X160628684Y-91413717D01*
X160580500Y-91530044D01*
X159575651Y-91530044D01*
X159573621Y-91519841D01*
X159532180Y-91457820D01*
X159470159Y-91416379D01*
X159397000Y-91401827D01*
X158791213Y-91401827D01*
X158709589Y-91347288D01*
X158590000Y-91323500D01*
X157549334Y-91323500D01*
X157534180Y-91300820D01*
X157472159Y-91259379D01*
X157399000Y-91244827D01*
X156799000Y-91244827D01*
X156725841Y-91259379D01*
X156663820Y-91300820D01*
X156622379Y-91362841D01*
X156607827Y-91436000D01*
X156607827Y-91836000D01*
X156622379Y-91909159D01*
X156663820Y-91971180D01*
X156725841Y-92012621D01*
X156799000Y-92027173D01*
X157399000Y-92027173D01*
X157472159Y-92012621D01*
X157534180Y-91971180D01*
X157549334Y-91948500D01*
X158460558Y-91948500D01*
X158555827Y-92043769D01*
X158555827Y-92392231D01*
X158526029Y-92422029D01*
X158458288Y-92523411D01*
X158434500Y-92643000D01*
X158434500Y-93526867D01*
X157963253Y-93055620D01*
X157861871Y-92987879D01*
X157742282Y-92964091D01*
X157279744Y-92964091D01*
X157241541Y-92925821D01*
X157062429Y-92851448D01*
X156868490Y-92851278D01*
X156689248Y-92925339D01*
X156551992Y-93062356D01*
X156502791Y-93180847D01*
X155536789Y-92214845D01*
X155554415Y-92172395D01*
X155554585Y-91978456D01*
X155480524Y-91799214D01*
X155343507Y-91661958D01*
X155164395Y-91587585D01*
X154970456Y-91587415D01*
X154791214Y-91661476D01*
X154653958Y-91798493D01*
X154579585Y-91977605D01*
X154579415Y-92171544D01*
X154653476Y-92350786D01*
X154790493Y-92488042D01*
X154969605Y-92562415D01*
X155000502Y-92562442D01*
X156327843Y-93889783D01*
X156188214Y-93947476D01*
X156050958Y-94084493D01*
X155976585Y-94263605D01*
X155976415Y-94457544D01*
X156050476Y-94636786D01*
X156187493Y-94774042D01*
X156366605Y-94848415D01*
X156452000Y-94848490D01*
X156452000Y-95141759D01*
X156390460Y-95129518D01*
X155654971Y-94394029D01*
X155641717Y-94385173D01*
X155553589Y-94326288D01*
X155434000Y-94302500D01*
X155300552Y-94302500D01*
X155300585Y-94264456D01*
X155226524Y-94085214D01*
X155089507Y-93947958D01*
X154910395Y-93873585D01*
X154716456Y-93873415D01*
X154537214Y-93947476D01*
X154399958Y-94084493D01*
X154325585Y-94263605D01*
X154325551Y-94302500D01*
X154003173Y-94302500D01*
X154003173Y-94188000D01*
X153988621Y-94114841D01*
X153947180Y-94052820D01*
X153885159Y-94011379D01*
X153812000Y-93996827D01*
X153412000Y-93996827D01*
X153338841Y-94011379D01*
X153276820Y-94052820D01*
X153235379Y-94114841D01*
X153220827Y-94188000D01*
X153220827Y-94537231D01*
X153103173Y-94654885D01*
X153103173Y-94188000D01*
X153088621Y-94114841D01*
X153047180Y-94052820D01*
X153024500Y-94037666D01*
X153024500Y-92933594D01*
X153087044Y-92959500D01*
X153233375Y-92959500D01*
X153312500Y-92880375D01*
X153312500Y-92309500D01*
X153637500Y-92309500D01*
X153637500Y-92880375D01*
X153716625Y-92959500D01*
X153862956Y-92959500D01*
X153979283Y-92911316D01*
X154068316Y-92822283D01*
X154116500Y-92705956D01*
X154116500Y-92388625D01*
X154037375Y-92309500D01*
X153637500Y-92309500D01*
X153312500Y-92309500D01*
X152912625Y-92309500D01*
X152889286Y-92332839D01*
X152831588Y-92294287D01*
X152771759Y-92282387D01*
X152712500Y-92223024D01*
X152712500Y-92067440D01*
X152883033Y-91896908D01*
X152912625Y-91926500D01*
X153312500Y-91926500D01*
X153312500Y-91906500D01*
X153637500Y-91906500D01*
X153637500Y-91926500D01*
X154037375Y-91926500D01*
X154116500Y-91847375D01*
X154116500Y-91530044D01*
X154068316Y-91413717D01*
X153979283Y-91324684D01*
X153862956Y-91276500D01*
X153716625Y-91276500D01*
X153666502Y-91326623D01*
X153666502Y-91276500D01*
X153503440Y-91276500D01*
X153731440Y-91048500D01*
X156648666Y-91048500D01*
X156663820Y-91071180D01*
X156725841Y-91112621D01*
X156799000Y-91127173D01*
X157399000Y-91127173D01*
X157472159Y-91112621D01*
X157534180Y-91071180D01*
X157549334Y-91048500D01*
X162234558Y-91048500D01*
X163136500Y-91950442D01*
X163136500Y-92403000D01*
X163147500Y-92458300D01*
X163147500Y-92513666D01*
X163124820Y-92528820D01*
X163083379Y-92590841D01*
X163068827Y-92664000D01*
X163068827Y-93264000D01*
X163083379Y-93337159D01*
X163124820Y-93399180D01*
X163186841Y-93440621D01*
X163260000Y-93455173D01*
X163660000Y-93455173D01*
X163733159Y-93440621D01*
X163795180Y-93399180D01*
X163836621Y-93337159D01*
X163851173Y-93264000D01*
X163851173Y-92664000D01*
X163836621Y-92590841D01*
X163795180Y-92528820D01*
X163772500Y-92513666D01*
X163772500Y-92414000D01*
X163761500Y-92358700D01*
X163761500Y-91821000D01*
X163758417Y-91805500D01*
X163737713Y-91701412D01*
X163669971Y-91600029D01*
X163022454Y-90952512D01*
X163191310Y-90952512D01*
X163423355Y-91215302D01*
X164252538Y-91515283D01*
X165133401Y-91475115D01*
X165760645Y-91215302D01*
X165992690Y-90952512D01*
X164592000Y-89551822D01*
X163191310Y-90952512D01*
X163022454Y-90952512D01*
X162584971Y-90515029D01*
X162567848Y-90503588D01*
X162483589Y-90447288D01*
X162364000Y-90423500D01*
X157549334Y-90423500D01*
X157534180Y-90400820D01*
X157472159Y-90359379D01*
X157399000Y-90344827D01*
X156799000Y-90344827D01*
X156725841Y-90359379D01*
X156663820Y-90400820D01*
X156648666Y-90423500D01*
X153601998Y-90423500D01*
X153482409Y-90447288D01*
X153398150Y-90503588D01*
X153381027Y-90515029D01*
X152179029Y-91717027D01*
X152111288Y-91818409D01*
X152087500Y-91937998D01*
X152087500Y-92223136D01*
X151986958Y-92323503D01*
X151912585Y-92502615D01*
X151912415Y-92696554D01*
X151986476Y-92875796D01*
X152074027Y-92963500D01*
X151707334Y-92963500D01*
X151692180Y-92940820D01*
X151630159Y-92899379D01*
X151557000Y-92884827D01*
X151307769Y-92884827D01*
X151257115Y-92834173D01*
X151650000Y-92834173D01*
X151723159Y-92819621D01*
X151785180Y-92778180D01*
X151826621Y-92716159D01*
X151841173Y-92643000D01*
X151841173Y-91593000D01*
X151826621Y-91519841D01*
X151785180Y-91457820D01*
X151723159Y-91416379D01*
X151650000Y-91401827D01*
X151250769Y-91401827D01*
X150846970Y-90998028D01*
X150828431Y-90985641D01*
X150745588Y-90930287D01*
X150625999Y-90906499D01*
X147800143Y-90906499D01*
X148073689Y-90632953D01*
X148620480Y-90632953D01*
X148693639Y-90618401D01*
X148755660Y-90576960D01*
X148797101Y-90514939D01*
X148811653Y-90441780D01*
X148811653Y-89644220D01*
X148797101Y-89571061D01*
X148755660Y-89509040D01*
X148693639Y-89467599D01*
X148620480Y-89453047D01*
X147822920Y-89453047D01*
X147749761Y-89467599D01*
X147687740Y-89509040D01*
X147646299Y-89571061D01*
X147631747Y-89644220D01*
X147631747Y-90191011D01*
X147225419Y-90597339D01*
X147163395Y-90571585D01*
X146969456Y-90571415D01*
X146790214Y-90645476D01*
X146652958Y-90782493D01*
X146578585Y-90961605D01*
X146578415Y-91155544D01*
X146652476Y-91334786D01*
X146789493Y-91472042D01*
X146968605Y-91546415D01*
X147025593Y-91546465D01*
X146464029Y-92108029D01*
X146396288Y-92209411D01*
X146372500Y-92329000D01*
X146372500Y-93218000D01*
X146396288Y-93337589D01*
X146435437Y-93396180D01*
X146464029Y-93438971D01*
X147013510Y-93988452D01*
X147013510Y-94138790D01*
X144322861Y-91448141D01*
X144180926Y-91353303D01*
X144013502Y-91320000D01*
X138493500Y-91320000D01*
X138326076Y-91353303D01*
X138184141Y-91448141D01*
X138058282Y-91574000D01*
X137707000Y-91574000D01*
X137599783Y-91595327D01*
X137412000Y-91595327D01*
X137338841Y-91609879D01*
X137276820Y-91651320D01*
X137235379Y-91713341D01*
X137220827Y-91786500D01*
X137220827Y-92236500D01*
X137235379Y-92309659D01*
X137269500Y-92360725D01*
X137269500Y-93884775D01*
X137235379Y-93935841D01*
X137220827Y-94009000D01*
X137220827Y-94167883D01*
X136901000Y-93848056D01*
X136901000Y-89985334D01*
X136923680Y-89970180D01*
X136965121Y-89908159D01*
X136979673Y-89835000D01*
X136979673Y-89235000D01*
X136965121Y-89161841D01*
X136923680Y-89099820D01*
X136861659Y-89058379D01*
X136788500Y-89043827D01*
X136388500Y-89043827D01*
X136315341Y-89058379D01*
X136253320Y-89099820D01*
X136211879Y-89161841D01*
X136197327Y-89235000D01*
X136197327Y-89835000D01*
X136211879Y-89908159D01*
X136253320Y-89970180D01*
X136276000Y-89985334D01*
X136276000Y-91323556D01*
X135523773Y-90571329D01*
X135470899Y-90536000D01*
X135422391Y-90503588D01*
X135302802Y-90479800D01*
X134701953Y-90479800D01*
X134701953Y-90393520D01*
X134687401Y-90320361D01*
X134645960Y-90258340D01*
X134583939Y-90216899D01*
X134510780Y-90202347D01*
X133713220Y-90202347D01*
X133640061Y-90216899D01*
X133578040Y-90258340D01*
X133536599Y-90320361D01*
X133522047Y-90393520D01*
X133522047Y-91191080D01*
X133536599Y-91264239D01*
X133578040Y-91326260D01*
X133640061Y-91367701D01*
X133713220Y-91382253D01*
X134510780Y-91382253D01*
X134583939Y-91367701D01*
X134645960Y-91326260D01*
X134687401Y-91264239D01*
X134701953Y-91191080D01*
X134701953Y-91104800D01*
X135173360Y-91104800D01*
X135653873Y-91585313D01*
X135597000Y-91574000D01*
X133739718Y-91574000D01*
X133279500Y-91113782D01*
X133279500Y-88894920D01*
X133522047Y-88894920D01*
X133522047Y-89692480D01*
X133536599Y-89765639D01*
X133578040Y-89827660D01*
X133640061Y-89869101D01*
X133713220Y-89883653D01*
X134510780Y-89883653D01*
X134583939Y-89869101D01*
X134645960Y-89827660D01*
X134687401Y-89765639D01*
X134701953Y-89692480D01*
X134701953Y-89606200D01*
X135297327Y-89606200D01*
X135297327Y-89835000D01*
X135311879Y-89908159D01*
X135353320Y-89970180D01*
X135415341Y-90011621D01*
X135488500Y-90026173D01*
X135888500Y-90026173D01*
X135961659Y-90011621D01*
X136023680Y-89970180D01*
X136065121Y-89908159D01*
X136079673Y-89835000D01*
X136079673Y-89235000D01*
X136065121Y-89161841D01*
X136023680Y-89099820D01*
X135961659Y-89058379D01*
X135888500Y-89043827D01*
X135624916Y-89043827D01*
X135566789Y-89004988D01*
X135447200Y-88981200D01*
X134701953Y-88981200D01*
X134701953Y-88894920D01*
X134687401Y-88821761D01*
X134645960Y-88759740D01*
X134583939Y-88718299D01*
X134510780Y-88703747D01*
X133713220Y-88703747D01*
X133640061Y-88718299D01*
X133578040Y-88759740D01*
X133536599Y-88821761D01*
X133522047Y-88894920D01*
X133279500Y-88894920D01*
X133279500Y-88781000D01*
X133246197Y-88613576D01*
X133207697Y-88555956D01*
X133151359Y-88471640D01*
X132381359Y-87701641D01*
X132239424Y-87606803D01*
X132072000Y-87573500D01*
X131763173Y-87573500D01*
X131763173Y-87003500D01*
X138002827Y-87003500D01*
X138002827Y-90268000D01*
G36*
X132404500Y-88962219D02*
X132404500Y-91295000D01*
X132437803Y-91462424D01*
X132532641Y-91604359D01*
X133249141Y-92320859D01*
X133391076Y-92415697D01*
X133558500Y-92449000D01*
X135597000Y-92449000D01*
X135704217Y-92427673D01*
X135804501Y-92427673D01*
X135804501Y-93109557D01*
X135376029Y-93538029D01*
X135308288Y-93639411D01*
X135284500Y-93759000D01*
X135284500Y-93821308D01*
X135228841Y-93832379D01*
X135166820Y-93873820D01*
X135125379Y-93935841D01*
X135110827Y-94009000D01*
X135110827Y-94459000D01*
X135125379Y-94532159D01*
X135166820Y-94594180D01*
X135228841Y-94635621D01*
X135302000Y-94650173D01*
X135394455Y-94650173D01*
X136659000Y-95914718D01*
X136659000Y-96774000D01*
X136692303Y-96941424D01*
X136705327Y-96960916D01*
X136705327Y-97074000D01*
X136719879Y-97147159D01*
X136761320Y-97209180D01*
X136823341Y-97250621D01*
X136839500Y-97253835D01*
X136839500Y-97742259D01*
X136828841Y-97744379D01*
X136766820Y-97785820D01*
X136725379Y-97847841D01*
X136718500Y-97882425D01*
X136718500Y-97858044D01*
X136670316Y-97741717D01*
X136581283Y-97652684D01*
X136464956Y-97604500D01*
X136331125Y-97604500D01*
X136252000Y-97683625D01*
X136252000Y-98046000D01*
X136313500Y-98046000D01*
X136313500Y-98296000D01*
X136252000Y-98296000D01*
X136252000Y-98658375D01*
X136331125Y-98737500D01*
X136464956Y-98737500D01*
X136581283Y-98689316D01*
X136670316Y-98600283D01*
X136718500Y-98483956D01*
X136718500Y-98459575D01*
X136725379Y-98494159D01*
X136766820Y-98556180D01*
X136828841Y-98597621D01*
X136902000Y-98612173D01*
X137502000Y-98612173D01*
X137575159Y-98597621D01*
X137637180Y-98556180D01*
X137678621Y-98494159D01*
X137693173Y-98421000D01*
X137693173Y-97921000D01*
X137678621Y-97847841D01*
X137637180Y-97785820D01*
X137575159Y-97744379D01*
X137564500Y-97742259D01*
X137564500Y-97211500D01*
X137935827Y-97211500D01*
X137935827Y-97521000D01*
X137950379Y-97594159D01*
X137991820Y-97656180D01*
X138053841Y-97697621D01*
X138127000Y-97712173D01*
X138264500Y-97712173D01*
X138264500Y-97871000D01*
X138292094Y-98009723D01*
X138339269Y-98080325D01*
X138370674Y-98127326D01*
X138873175Y-98629827D01*
X138127000Y-98629827D01*
X138053841Y-98644379D01*
X137991820Y-98685820D01*
X137950379Y-98747841D01*
X137935827Y-98821000D01*
X137935827Y-99421000D01*
X137950379Y-99494159D01*
X137991820Y-99556180D01*
X138053841Y-99597621D01*
X138127000Y-99612173D01*
X138314500Y-99612173D01*
X138314500Y-99965827D01*
X138108500Y-99965827D01*
X138035341Y-99980379D01*
X137973320Y-100021820D01*
X137931879Y-100083841D01*
X137925000Y-100118425D01*
X137925000Y-100094044D01*
X137876816Y-99977717D01*
X137787783Y-99888684D01*
X137671456Y-99840500D01*
X137587625Y-99840500D01*
X137508500Y-99919625D01*
X137508500Y-100307000D01*
X137608500Y-100307000D01*
X137608500Y-100607000D01*
X137508500Y-100607000D01*
X137508500Y-100994375D01*
X137587625Y-101073500D01*
X137671456Y-101073500D01*
X137787783Y-101025316D01*
X137876816Y-100936283D01*
X137925000Y-100819956D01*
X137925000Y-100795575D01*
X137931879Y-100830159D01*
X137973320Y-100892180D01*
X138035341Y-100933621D01*
X138108500Y-100948173D01*
X138508500Y-100948173D01*
X138581659Y-100933621D01*
X138643680Y-100892180D01*
X138685121Y-100830159D01*
X138699673Y-100757000D01*
X138699673Y-100507769D01*
X138847971Y-100359471D01*
X138915712Y-100258089D01*
X138939500Y-100138500D01*
X138939500Y-99612173D01*
X139039501Y-99612173D01*
X139039501Y-101160844D01*
X137082173Y-103118173D01*
X137082173Y-103017000D01*
X137067621Y-102943841D01*
X137026180Y-102881820D01*
X136964159Y-102840379D01*
X136891000Y-102825827D01*
X136853500Y-102825827D01*
X136853500Y-102738874D01*
X136954042Y-102638507D01*
X137028415Y-102459395D01*
X137028585Y-102265456D01*
X136954524Y-102086214D01*
X136853500Y-101985014D01*
X136853500Y-100686125D01*
X136892000Y-100686125D01*
X136892000Y-100819956D01*
X136940184Y-100936283D01*
X137029217Y-101025316D01*
X137145544Y-101073500D01*
X137229375Y-101073500D01*
X137308500Y-100994375D01*
X137308500Y-100607000D01*
X136971125Y-100607000D01*
X136892000Y-100686125D01*
X136853500Y-100686125D01*
X136853500Y-100629058D01*
X136829712Y-100509469D01*
X136761971Y-100408087D01*
X136447928Y-100094044D01*
X136892000Y-100094044D01*
X136892000Y-100227875D01*
X136971125Y-100307000D01*
X137308500Y-100307000D01*
X137308500Y-99919625D01*
X137229375Y-99840500D01*
X137145544Y-99840500D01*
X137029217Y-99888684D01*
X136940184Y-99977717D01*
X136892000Y-100094044D01*
X136447928Y-100094044D01*
X134729009Y-98375125D01*
X135485500Y-98375125D01*
X135485500Y-98483956D01*
X135533684Y-98600283D01*
X135622717Y-98689316D01*
X135739044Y-98737500D01*
X135872875Y-98737500D01*
X135952000Y-98658375D01*
X135952000Y-98296000D01*
X135564625Y-98296000D01*
X135485500Y-98375125D01*
X134729009Y-98375125D01*
X134253280Y-97899396D01*
X134240161Y-97833441D01*
X134205522Y-97781600D01*
X134213874Y-97769100D01*
X134474658Y-97769100D01*
X134513540Y-97807982D01*
X134513415Y-97950044D01*
X134587476Y-98129286D01*
X134724493Y-98266542D01*
X134903605Y-98340915D01*
X135097544Y-98341085D01*
X135276786Y-98267024D01*
X135414042Y-98130007D01*
X135485500Y-97957915D01*
X135485500Y-97966875D01*
X135564625Y-98046000D01*
X135952000Y-98046000D01*
X135952000Y-97683625D01*
X135872875Y-97604500D01*
X135739044Y-97604500D01*
X135622717Y-97652684D01*
X135533684Y-97741717D01*
X135488503Y-97850795D01*
X135488585Y-97756956D01*
X135414524Y-97577714D01*
X135277507Y-97440458D01*
X135098395Y-97366085D01*
X134955402Y-97365960D01*
X134833542Y-97244100D01*
X135913582Y-97244100D01*
X135923341Y-97250621D01*
X135996500Y-97265173D01*
X136396500Y-97265173D01*
X136469659Y-97250621D01*
X136531680Y-97209180D01*
X136573121Y-97147159D01*
X136587673Y-97074000D01*
X136587673Y-96960916D01*
X136600697Y-96941424D01*
X136633999Y-96774000D01*
X136600697Y-96606576D01*
X136587673Y-96587084D01*
X136587673Y-96474000D01*
X136573121Y-96400841D01*
X136531680Y-96338820D01*
X136469659Y-96297379D01*
X136396500Y-96282827D01*
X135996500Y-96282827D01*
X135923341Y-96297379D01*
X135861320Y-96338820D01*
X135841088Y-96369100D01*
X133866715Y-96369100D01*
X134037432Y-96202914D01*
X134158835Y-95920620D01*
X134095885Y-95798100D01*
X133580040Y-95798100D01*
X133580040Y-95818100D01*
X133197040Y-95818100D01*
X133197040Y-95798100D01*
X132681195Y-95798100D01*
X132618245Y-95920620D01*
X132739648Y-96202914D01*
X132957955Y-96415427D01*
X132713540Y-96415427D01*
X132640381Y-96429979D01*
X132578360Y-96471420D01*
X132536919Y-96533441D01*
X132522367Y-96606600D01*
X132522367Y-97006600D01*
X132536919Y-97079759D01*
X132571558Y-97131600D01*
X132536919Y-97183441D01*
X132522367Y-97256600D01*
X132522367Y-97656600D01*
X132536919Y-97729759D01*
X132571558Y-97781600D01*
X132536919Y-97833441D01*
X132522367Y-97906600D01*
X132522367Y-98306600D01*
X132536919Y-98379759D01*
X132571558Y-98431600D01*
X132536919Y-98483441D01*
X132522367Y-98556600D01*
X132522367Y-98950174D01*
X132445224Y-99027317D01*
X132397040Y-99143644D01*
X132397040Y-99227475D01*
X132476165Y-99306600D01*
X133197040Y-99306600D01*
X133197040Y-99206600D01*
X133580040Y-99206600D01*
X133580040Y-99306600D01*
X134300915Y-99306600D01*
X134380040Y-99227475D01*
X134380040Y-99143644D01*
X134331856Y-99027317D01*
X134254713Y-98950174D01*
X134254713Y-98784713D01*
X136228500Y-100758500D01*
X136228500Y-101985126D01*
X136127958Y-102085493D01*
X136053585Y-102264605D01*
X136053415Y-102458544D01*
X136127476Y-102637786D01*
X136228500Y-102738986D01*
X136228500Y-102825827D01*
X136191000Y-102825827D01*
X136117841Y-102840379D01*
X136055820Y-102881820D01*
X136014379Y-102943841D01*
X135999827Y-103017000D01*
X135999827Y-103617000D01*
X136014379Y-103690159D01*
X136055820Y-103752180D01*
X136117841Y-103793621D01*
X136191000Y-103808173D01*
X136803501Y-103808173D01*
X136803501Y-104725827D01*
X136191000Y-104725827D01*
X136117841Y-104740379D01*
X136055820Y-104781820D01*
X136014379Y-104843841D01*
X135999827Y-104917000D01*
X135999827Y-105517000D01*
X136014379Y-105590159D01*
X136055820Y-105652180D01*
X136117841Y-105693621D01*
X136191000Y-105708173D01*
X136891000Y-105708173D01*
X136964159Y-105693621D01*
X137026180Y-105652180D01*
X137067621Y-105590159D01*
X137068384Y-105586326D01*
X140093030Y-108610972D01*
X140194412Y-108678713D01*
X140314001Y-108702501D01*
X143051001Y-108702501D01*
X143170590Y-108678713D01*
X143271972Y-108610972D01*
X143316972Y-108565972D01*
X143384714Y-108464589D01*
X143408501Y-108345001D01*
X143408501Y-107290001D01*
X143398878Y-107241621D01*
X143384714Y-107170413D01*
X143316972Y-107069030D01*
X143062173Y-106814231D01*
X143062173Y-106465000D01*
X143047621Y-106391841D01*
X143006180Y-106329820D01*
X142944159Y-106288379D01*
X142933500Y-106286259D01*
X142933500Y-105823719D01*
X142976000Y-105832173D01*
X143276000Y-105832173D01*
X143313500Y-105824714D01*
X143313500Y-106473000D01*
X143337288Y-106592589D01*
X143372583Y-106645412D01*
X143405029Y-106693971D01*
X143526827Y-106815769D01*
X143526827Y-107065000D01*
X143541379Y-107138159D01*
X143582820Y-107200180D01*
X143644841Y-107241621D01*
X143718000Y-107256173D01*
X144318000Y-107256173D01*
X144391159Y-107241621D01*
X144453180Y-107200180D01*
X144494621Y-107138159D01*
X144509173Y-107065000D01*
X144509173Y-106665000D01*
X144494621Y-106591841D01*
X144453180Y-106529820D01*
X144391159Y-106488379D01*
X144318000Y-106473827D01*
X144068769Y-106473827D01*
X143938500Y-106343558D01*
X143938500Y-105824714D01*
X143976000Y-105832173D01*
X144276000Y-105832173D01*
X144349159Y-105817621D01*
X144376000Y-105799686D01*
X144402841Y-105817621D01*
X144476000Y-105832173D01*
X144776000Y-105832173D01*
X144813500Y-105824714D01*
X144813500Y-106333000D01*
X144837288Y-106452589D01*
X144886532Y-106526288D01*
X144905029Y-106553971D01*
X145208827Y-106857769D01*
X145208827Y-107107000D01*
X145223379Y-107180159D01*
X145264820Y-107242180D01*
X145326841Y-107283621D01*
X145400000Y-107298173D01*
X145800000Y-107298173D01*
X145873159Y-107283621D01*
X145935180Y-107242180D01*
X145976621Y-107180159D01*
X145991173Y-107107000D01*
X145991173Y-106507000D01*
X145976621Y-106433841D01*
X145935180Y-106371820D01*
X145873159Y-106330379D01*
X145800000Y-106315827D01*
X145550769Y-106315827D01*
X145438500Y-106203558D01*
X145438500Y-106063044D01*
X149020500Y-106063044D01*
X149020500Y-106196875D01*
X149099625Y-106276000D01*
X149437000Y-106276000D01*
X149437000Y-105888625D01*
X149357875Y-105809500D01*
X149274044Y-105809500D01*
X149157717Y-105857684D01*
X149068684Y-105946717D01*
X149020500Y-106063044D01*
X145438500Y-106063044D01*
X145438500Y-105735293D01*
X145452621Y-105714159D01*
X145467173Y-105641000D01*
X145467173Y-104857173D01*
X146002231Y-104857173D01*
X146732827Y-105587769D01*
X146732827Y-105837000D01*
X146747379Y-105910159D01*
X146788820Y-105972180D01*
X146850841Y-106013621D01*
X146924000Y-106028173D01*
X147324000Y-106028173D01*
X147397159Y-106013621D01*
X147459180Y-105972180D01*
X147500621Y-105910159D01*
X147515173Y-105837000D01*
X147515173Y-105237000D01*
X147500621Y-105163841D01*
X147459180Y-105101820D01*
X147397159Y-105060379D01*
X147324000Y-105045827D01*
X147074769Y-105045827D01*
X146442173Y-104413231D01*
X146442173Y-104366000D01*
X146427621Y-104292841D01*
X146421798Y-104284125D01*
X146880500Y-104284125D01*
X146880500Y-104417956D01*
X146928684Y-104534283D01*
X147017717Y-104623316D01*
X147134044Y-104671500D01*
X147242875Y-104671500D01*
X147322000Y-104592375D01*
X147322000Y-104205000D01*
X147572000Y-104205000D01*
X147572000Y-104592375D01*
X147651125Y-104671500D01*
X147759956Y-104671500D01*
X147876283Y-104623316D01*
X147965316Y-104534283D01*
X148013500Y-104417956D01*
X148013500Y-104284125D01*
X147934375Y-104205000D01*
X147572000Y-104205000D01*
X147322000Y-104205000D01*
X146959625Y-104205000D01*
X146880500Y-104284125D01*
X146421798Y-104284125D01*
X146409686Y-104266000D01*
X146427621Y-104239159D01*
X146442173Y-104166000D01*
X146442173Y-103866000D01*
X146427621Y-103792841D01*
X146409686Y-103766000D01*
X146427621Y-103739159D01*
X146442173Y-103666000D01*
X146442173Y-103366000D01*
X146434714Y-103328500D01*
X147020607Y-103328500D01*
X147061820Y-103390180D01*
X147123841Y-103431621D01*
X147158425Y-103438500D01*
X147134044Y-103438500D01*
X147017717Y-103486684D01*
X146928684Y-103575717D01*
X146880500Y-103692044D01*
X146880500Y-103825875D01*
X146959625Y-103905000D01*
X147322000Y-103905000D01*
X147322000Y-103843500D01*
X147572000Y-103843500D01*
X147572000Y-103905000D01*
X147934375Y-103905000D01*
X148013500Y-103825875D01*
X148013500Y-103692044D01*
X147965316Y-103575717D01*
X147876283Y-103486684D01*
X147759956Y-103438500D01*
X147735575Y-103438500D01*
X147770159Y-103431621D01*
X147832180Y-103390180D01*
X147873621Y-103328159D01*
X147888173Y-103255000D01*
X147888173Y-102655000D01*
X147873621Y-102581841D01*
X147832180Y-102519820D01*
X147770159Y-102478379D01*
X147697000Y-102463827D01*
X147197000Y-102463827D01*
X147123841Y-102478379D01*
X147061820Y-102519820D01*
X147020379Y-102581841D01*
X147005827Y-102655000D01*
X147005827Y-102703500D01*
X146434714Y-102703500D01*
X146442173Y-102666000D01*
X146442173Y-102366000D01*
X146427621Y-102292841D01*
X146409686Y-102266000D01*
X146427621Y-102239159D01*
X146442173Y-102166000D01*
X146442173Y-101866000D01*
X146427621Y-101792841D01*
X146386180Y-101730820D01*
X146324159Y-101689379D01*
X146251000Y-101674827D01*
X145467173Y-101674827D01*
X145467173Y-101315544D01*
X146959415Y-101315544D01*
X147033476Y-101494786D01*
X147170493Y-101632042D01*
X147349605Y-101706415D01*
X147492598Y-101706540D01*
X149224500Y-103438442D01*
X149224500Y-104578666D01*
X149204438Y-104592071D01*
X149204585Y-104424456D01*
X149130524Y-104245214D01*
X148993507Y-104107958D01*
X148814395Y-104033585D01*
X148620456Y-104033415D01*
X148441214Y-104107476D01*
X148303958Y-104244493D01*
X148229585Y-104423605D01*
X148229460Y-104566598D01*
X147803029Y-104993029D01*
X147759129Y-105058730D01*
X147750841Y-105060379D01*
X147688820Y-105101820D01*
X147647379Y-105163841D01*
X147632827Y-105237000D01*
X147632827Y-105837000D01*
X147647379Y-105910159D01*
X147688820Y-105972180D01*
X147750841Y-106013621D01*
X147824000Y-106028173D01*
X148224000Y-106028173D01*
X148297159Y-106013621D01*
X148359180Y-105972180D01*
X148400621Y-105910159D01*
X148415173Y-105837000D01*
X148415173Y-105264769D01*
X148671482Y-105008460D01*
X148813544Y-105008585D01*
X148992786Y-104934524D01*
X149130042Y-104797507D01*
X149145827Y-104759492D01*
X149145827Y-105329000D01*
X149160379Y-105402159D01*
X149201820Y-105464180D01*
X149263841Y-105505621D01*
X149337000Y-105520173D01*
X149737000Y-105520173D01*
X149810159Y-105505621D01*
X149872180Y-105464180D01*
X149913621Y-105402159D01*
X149928173Y-105329000D01*
X149928173Y-104729000D01*
X149913621Y-104655841D01*
X149872180Y-104593820D01*
X149849500Y-104578666D01*
X149849500Y-103309000D01*
X149825712Y-103189411D01*
X149757971Y-103088029D01*
X149007986Y-102338044D01*
X151579500Y-102338044D01*
X151579500Y-102471875D01*
X151658625Y-102551000D01*
X152021000Y-102551000D01*
X152021000Y-102163625D01*
X151941875Y-102084500D01*
X151833044Y-102084500D01*
X151716717Y-102132684D01*
X151627684Y-102221717D01*
X151579500Y-102338044D01*
X149007986Y-102338044D01*
X147934460Y-101264518D01*
X147934585Y-101122456D01*
X147860524Y-100943214D01*
X147723507Y-100805958D01*
X147544395Y-100731585D01*
X147350456Y-100731415D01*
X147171214Y-100805476D01*
X147033958Y-100942493D01*
X146959585Y-101121605D01*
X146959415Y-101315544D01*
X145467173Y-101315544D01*
X145467173Y-100891000D01*
X145452621Y-100817841D01*
X145411180Y-100755820D01*
X145362811Y-100723501D01*
X152039489Y-100723501D01*
X152039415Y-100807544D01*
X152113476Y-100986786D01*
X152250493Y-101124042D01*
X152429605Y-101198415D01*
X152623544Y-101198585D01*
X152802786Y-101124524D01*
X152940042Y-100987507D01*
X153014415Y-100808395D01*
X153014585Y-100614456D01*
X152940524Y-100435214D01*
X152803507Y-100297958D01*
X152756649Y-100278501D01*
X153895295Y-100278501D01*
X154294765Y-100677971D01*
X154396147Y-100745712D01*
X154515736Y-100769500D01*
X154563126Y-100769500D01*
X154663493Y-100870042D01*
X154842605Y-100944415D01*
X154973528Y-100944530D01*
X154604559Y-101313499D01*
X152959999Y-101313499D01*
X152840411Y-101337286D01*
X152739028Y-101405028D01*
X152577030Y-101567026D01*
X152509289Y-101668408D01*
X152485501Y-101787997D01*
X152485501Y-102095495D01*
X152458956Y-102084500D01*
X152350125Y-102084500D01*
X152271000Y-102163625D01*
X152271000Y-102551000D01*
X152357500Y-102551000D01*
X152357500Y-102851000D01*
X152271000Y-102851000D01*
X152271000Y-102912500D01*
X152021000Y-102912500D01*
X152021000Y-102851000D01*
X151658625Y-102851000D01*
X151579500Y-102930125D01*
X151579500Y-103063956D01*
X151627684Y-103180283D01*
X151716717Y-103269316D01*
X151833044Y-103317500D01*
X151857425Y-103317500D01*
X151822841Y-103324379D01*
X151760820Y-103365820D01*
X151719379Y-103427841D01*
X151704827Y-103501000D01*
X151704827Y-104101000D01*
X151719379Y-104174159D01*
X151760820Y-104236180D01*
X151822841Y-104277621D01*
X151896000Y-104292173D01*
X152205264Y-104292173D01*
X152276411Y-104339712D01*
X152396000Y-104363500D01*
X152948827Y-104363500D01*
X152948827Y-104651000D01*
X152951309Y-104663479D01*
X150940021Y-104663479D01*
X150820432Y-104687267D01*
X150819938Y-104687597D01*
X150813621Y-104655841D01*
X150772180Y-104593820D01*
X150710159Y-104552379D01*
X150637000Y-104537827D01*
X150237000Y-104537827D01*
X150163841Y-104552379D01*
X150101820Y-104593820D01*
X150060379Y-104655841D01*
X150045827Y-104729000D01*
X150045827Y-105329000D01*
X150060379Y-105402159D01*
X150101820Y-105464180D01*
X150124500Y-105479334D01*
X150124500Y-105975666D01*
X150101820Y-105990820D01*
X150060379Y-106052841D01*
X150053500Y-106087425D01*
X150053500Y-106063044D01*
X150005316Y-105946717D01*
X149916283Y-105857684D01*
X149799956Y-105809500D01*
X149716125Y-105809500D01*
X149637000Y-105888625D01*
X149637000Y-106276000D01*
X149737000Y-106276000D01*
X149737000Y-106576000D01*
X149637000Y-106576000D01*
X149637000Y-106963375D01*
X149716125Y-107042500D01*
X149799956Y-107042500D01*
X149916283Y-106994316D01*
X150005316Y-106905283D01*
X150053500Y-106788956D01*
X150053500Y-106764575D01*
X150060379Y-106799159D01*
X150101820Y-106861180D01*
X150124500Y-106876334D01*
X150124500Y-107422666D01*
X150101820Y-107437820D01*
X150060379Y-107499841D01*
X150053500Y-107534425D01*
X150053500Y-107510044D01*
X150005316Y-107393717D01*
X149916283Y-107304684D01*
X149799956Y-107256500D01*
X149666125Y-107256500D01*
X149587000Y-107335625D01*
X149587000Y-107698000D01*
X149648500Y-107698000D01*
X149648500Y-107948000D01*
X149587000Y-107948000D01*
X149587000Y-108034500D01*
X149287000Y-108034500D01*
X149287000Y-107948000D01*
X149225500Y-107948000D01*
X149225500Y-107698000D01*
X149287000Y-107698000D01*
X149287000Y-107335625D01*
X149207875Y-107256500D01*
X149074044Y-107256500D01*
X148998301Y-107287874D01*
X148954972Y-107223028D01*
X148387069Y-106655125D01*
X149020500Y-106655125D01*
X149020500Y-106788956D01*
X149068684Y-106905283D01*
X149157717Y-106994316D01*
X149274044Y-107042500D01*
X149357875Y-107042500D01*
X149437000Y-106963375D01*
X149437000Y-106576000D01*
X149099625Y-106576000D01*
X149020500Y-106655125D01*
X148387069Y-106655125D01*
X148317973Y-106586029D01*
X148289648Y-106567103D01*
X148216591Y-106518288D01*
X148097002Y-106494500D01*
X146888687Y-106494500D01*
X146876621Y-106433841D01*
X146835180Y-106371820D01*
X146773159Y-106330379D01*
X146700000Y-106315827D01*
X146300000Y-106315827D01*
X146226841Y-106330379D01*
X146164820Y-106371820D01*
X146123379Y-106433841D01*
X146108827Y-106507000D01*
X146108827Y-107107000D01*
X146123379Y-107180159D01*
X146164820Y-107242180D01*
X146226841Y-107283621D01*
X146300000Y-107298173D01*
X146700000Y-107298173D01*
X146773159Y-107283621D01*
X146835180Y-107242180D01*
X146876621Y-107180159D01*
X146888687Y-107119500D01*
X147967560Y-107119500D01*
X148421501Y-107573441D01*
X148421501Y-108440999D01*
X148445289Y-108560588D01*
X148485321Y-108620501D01*
X145865443Y-108620501D01*
X145395701Y-108150759D01*
X145447042Y-108099507D01*
X145521415Y-107920395D01*
X145521585Y-107726456D01*
X145447524Y-107547214D01*
X145310507Y-107409958D01*
X145131395Y-107335585D01*
X144937456Y-107335415D01*
X144758214Y-107409476D01*
X144689803Y-107477768D01*
X144687589Y-107476288D01*
X144568000Y-107452500D01*
X144468334Y-107452500D01*
X144453180Y-107429820D01*
X144391159Y-107388379D01*
X144318000Y-107373827D01*
X143718000Y-107373827D01*
X143644841Y-107388379D01*
X143582820Y-107429820D01*
X143541379Y-107491841D01*
X143526827Y-107565000D01*
X143526827Y-107965000D01*
X143541379Y-108038159D01*
X143582820Y-108100180D01*
X143644841Y-108141621D01*
X143718000Y-108156173D01*
X144318000Y-108156173D01*
X144391159Y-108141621D01*
X144453180Y-108100180D01*
X144456408Y-108095350D01*
X145515030Y-109153972D01*
X145601127Y-109211500D01*
X129548500Y-109211500D01*
X129548500Y-108605512D01*
X130425310Y-108605512D01*
X130657355Y-108868302D01*
X131486538Y-109168283D01*
X132367401Y-109128115D01*
X132994645Y-108868302D01*
X133226690Y-108605512D01*
X131826000Y-107204822D01*
X130425310Y-108605512D01*
X129548500Y-108605512D01*
X129548500Y-106594538D01*
X129591717Y-106594538D01*
X129631885Y-107475401D01*
X129891698Y-108102645D01*
X130154488Y-108334690D01*
X131555178Y-106934000D01*
X132096822Y-106934000D01*
X133497512Y-108334690D01*
X133760302Y-108102645D01*
X134060283Y-107273462D01*
X134020115Y-106392599D01*
X133760302Y-105765355D01*
X133497512Y-105533310D01*
X132096822Y-106934000D01*
X131555178Y-106934000D01*
X130154488Y-105533310D01*
X129891698Y-105765355D01*
X129591717Y-106594538D01*
X129548500Y-106594538D01*
X129548500Y-105262488D01*
X130425310Y-105262488D01*
X131826000Y-106663178D01*
X133226690Y-105262488D01*
X132994645Y-104999698D01*
X132165462Y-104699717D01*
X131284599Y-104739885D01*
X130657355Y-104999698D01*
X130425310Y-105262488D01*
X129548500Y-105262488D01*
X129548500Y-101919908D01*
X129659544Y-101919908D01*
X129794192Y-102159794D01*
X130053035Y-102354699D01*
X130366762Y-102435713D01*
X130497040Y-102353698D01*
X130497040Y-101798100D01*
X130880040Y-101798100D01*
X130880040Y-102353698D01*
X131010318Y-102435713D01*
X131324045Y-102354699D01*
X131582888Y-102159794D01*
X131717536Y-101919908D01*
X131675614Y-101798100D01*
X130880040Y-101798100D01*
X130497040Y-101798100D01*
X129701466Y-101798100D01*
X129659544Y-101919908D01*
X129548500Y-101919908D01*
X129548500Y-101293292D01*
X129659544Y-101293292D01*
X129701466Y-101415100D01*
X130497040Y-101415100D01*
X130497040Y-100859502D01*
X130880040Y-100859502D01*
X130880040Y-101415100D01*
X131675614Y-101415100D01*
X131717536Y-101293292D01*
X131582888Y-101053406D01*
X131406542Y-100920620D01*
X132618245Y-100920620D01*
X132739648Y-101202914D01*
X132959839Y-101417261D01*
X133079259Y-101485172D01*
X133197040Y-101442753D01*
X133197040Y-100798100D01*
X133580040Y-100798100D01*
X133580040Y-101442753D01*
X133697821Y-101485172D01*
X133817241Y-101417261D01*
X134037432Y-101202914D01*
X134158835Y-100920620D01*
X134095885Y-100798100D01*
X133580040Y-100798100D01*
X133197040Y-100798100D01*
X132681195Y-100798100D01*
X132618245Y-100920620D01*
X131406542Y-100920620D01*
X131324045Y-100858501D01*
X131010318Y-100777487D01*
X130880040Y-100859502D01*
X130497040Y-100859502D01*
X130366762Y-100777487D01*
X130053035Y-100858501D01*
X129794192Y-101053406D01*
X129659544Y-101293292D01*
X129548500Y-101293292D01*
X129548500Y-99585725D01*
X132397040Y-99585725D01*
X132397040Y-99669556D01*
X132445224Y-99785883D01*
X132534257Y-99874916D01*
X132650584Y-99923100D01*
X132829211Y-99923100D01*
X132739648Y-100010286D01*
X132618245Y-100292580D01*
X132681195Y-100415100D01*
X133197040Y-100415100D01*
X133197040Y-99506600D01*
X133580040Y-99506600D01*
X133580040Y-100415100D01*
X134095885Y-100415100D01*
X134158835Y-100292580D01*
X134037432Y-100010286D01*
X133947869Y-99923100D01*
X134126496Y-99923100D01*
X134242823Y-99874916D01*
X134331856Y-99785883D01*
X134380040Y-99669556D01*
X134380040Y-99585725D01*
X134300915Y-99506600D01*
X133580040Y-99506600D01*
X133197040Y-99506600D01*
X132476165Y-99506600D01*
X132397040Y-99585725D01*
X129548500Y-99585725D01*
X129548500Y-94919908D01*
X129659544Y-94919908D01*
X129794192Y-95159794D01*
X130053035Y-95354699D01*
X130366762Y-95435713D01*
X130497040Y-95353698D01*
X130497040Y-94798100D01*
X130880040Y-94798100D01*
X130880040Y-95353698D01*
X131010318Y-95435713D01*
X131324045Y-95354699D01*
X131406541Y-95292580D01*
X132618245Y-95292580D01*
X132681195Y-95415100D01*
X133197040Y-95415100D01*
X133197040Y-94770447D01*
X133580040Y-94770447D01*
X133580040Y-95415100D01*
X134095885Y-95415100D01*
X134158835Y-95292580D01*
X134037432Y-95010286D01*
X133817241Y-94795939D01*
X133697821Y-94728028D01*
X133580040Y-94770447D01*
X133197040Y-94770447D01*
X133079259Y-94728028D01*
X132959839Y-94795939D01*
X132739648Y-95010286D01*
X132618245Y-95292580D01*
X131406541Y-95292580D01*
X131582888Y-95159794D01*
X131717536Y-94919908D01*
X131675614Y-94798100D01*
X130880040Y-94798100D01*
X130497040Y-94798100D01*
X129701466Y-94798100D01*
X129659544Y-94919908D01*
X129548500Y-94919908D01*
X129548500Y-94293292D01*
X129659544Y-94293292D01*
X129701466Y-94415100D01*
X130497040Y-94415100D01*
X130497040Y-93859502D01*
X130880040Y-93859502D01*
X130880040Y-94415100D01*
X131675614Y-94415100D01*
X131717536Y-94293292D01*
X131582888Y-94053406D01*
X131324045Y-93858501D01*
X131010318Y-93777487D01*
X130880040Y-93859502D01*
X130497040Y-93859502D01*
X130366762Y-93777487D01*
X130053035Y-93858501D01*
X129794192Y-94053406D01*
X129659544Y-94293292D01*
X129548500Y-94293292D01*
X129548500Y-91416893D01*
X129935823Y-91730399D01*
X130160573Y-91823476D01*
X130364500Y-91789659D01*
X130364500Y-90742500D01*
X130747500Y-90742500D01*
X130747500Y-91789659D01*
X130951427Y-91823476D01*
X131176177Y-91730399D01*
X131580305Y-91403291D01*
X131828492Y-90946430D01*
X131795559Y-90742500D01*
X130747500Y-90742500D01*
X130364500Y-90742500D01*
X130344500Y-90742500D01*
X130344500Y-90359500D01*
X130364500Y-90359500D01*
X130364500Y-89312341D01*
X130747500Y-89312341D01*
X130747500Y-90359500D01*
X131795559Y-90359500D01*
X131828492Y-90155570D01*
X131580305Y-89698709D01*
X131176177Y-89371601D01*
X130951427Y-89278524D01*
X130747500Y-89312341D01*
X130364500Y-89312341D01*
X130160573Y-89278524D01*
X129935823Y-89371601D01*
X129548500Y-89685107D01*
X129548500Y-89218173D01*
X131572000Y-89218173D01*
X131645159Y-89203621D01*
X131707180Y-89162180D01*
X131748621Y-89100159D01*
X131763173Y-89027000D01*
X131763173Y-88448500D01*
X131890782Y-88448500D01*
X132404500Y-88962219D01*
X132404500Y-88962219D01*
G37*
X132404500Y-88962219D02*
X132404500Y-91295000D01*
X132437803Y-91462424D01*
X132532641Y-91604359D01*
X133249141Y-92320859D01*
X133391076Y-92415697D01*
X133558500Y-92449000D01*
X135597000Y-92449000D01*
X135704217Y-92427673D01*
X135804501Y-92427673D01*
X135804501Y-93109557D01*
X135376029Y-93538029D01*
X135308288Y-93639411D01*
X135284500Y-93759000D01*
X135284500Y-93821308D01*
X135228841Y-93832379D01*
X135166820Y-93873820D01*
X135125379Y-93935841D01*
X135110827Y-94009000D01*
X135110827Y-94459000D01*
X135125379Y-94532159D01*
X135166820Y-94594180D01*
X135228841Y-94635621D01*
X135302000Y-94650173D01*
X135394455Y-94650173D01*
X136659000Y-95914718D01*
X136659000Y-96774000D01*
X136692303Y-96941424D01*
X136705327Y-96960916D01*
X136705327Y-97074000D01*
X136719879Y-97147159D01*
X136761320Y-97209180D01*
X136823341Y-97250621D01*
X136839500Y-97253835D01*
X136839500Y-97742259D01*
X136828841Y-97744379D01*
X136766820Y-97785820D01*
X136725379Y-97847841D01*
X136718500Y-97882425D01*
X136718500Y-97858044D01*
X136670316Y-97741717D01*
X136581283Y-97652684D01*
X136464956Y-97604500D01*
X136331125Y-97604500D01*
X136252000Y-97683625D01*
X136252000Y-98046000D01*
X136313500Y-98046000D01*
X136313500Y-98296000D01*
X136252000Y-98296000D01*
X136252000Y-98658375D01*
X136331125Y-98737500D01*
X136464956Y-98737500D01*
X136581283Y-98689316D01*
X136670316Y-98600283D01*
X136718500Y-98483956D01*
X136718500Y-98459575D01*
X136725379Y-98494159D01*
X136766820Y-98556180D01*
X136828841Y-98597621D01*
X136902000Y-98612173D01*
X137502000Y-98612173D01*
X137575159Y-98597621D01*
X137637180Y-98556180D01*
X137678621Y-98494159D01*
X137693173Y-98421000D01*
X137693173Y-97921000D01*
X137678621Y-97847841D01*
X137637180Y-97785820D01*
X137575159Y-97744379D01*
X137564500Y-97742259D01*
X137564500Y-97211500D01*
X137935827Y-97211500D01*
X137935827Y-97521000D01*
X137950379Y-97594159D01*
X137991820Y-97656180D01*
X138053841Y-97697621D01*
X138127000Y-97712173D01*
X138264500Y-97712173D01*
X138264500Y-97871000D01*
X138292094Y-98009723D01*
X138339269Y-98080325D01*
X138370674Y-98127326D01*
X138873175Y-98629827D01*
X138127000Y-98629827D01*
X138053841Y-98644379D01*
X137991820Y-98685820D01*
X137950379Y-98747841D01*
X137935827Y-98821000D01*
X137935827Y-99421000D01*
X137950379Y-99494159D01*
X137991820Y-99556180D01*
X138053841Y-99597621D01*
X138127000Y-99612173D01*
X138314500Y-99612173D01*
X138314500Y-99965827D01*
X138108500Y-99965827D01*
X138035341Y-99980379D01*
X137973320Y-100021820D01*
X137931879Y-100083841D01*
X137925000Y-100118425D01*
X137925000Y-100094044D01*
X137876816Y-99977717D01*
X137787783Y-99888684D01*
X137671456Y-99840500D01*
X137587625Y-99840500D01*
X137508500Y-99919625D01*
X137508500Y-100307000D01*
X137608500Y-100307000D01*
X137608500Y-100607000D01*
X137508500Y-100607000D01*
X137508500Y-100994375D01*
X137587625Y-101073500D01*
X137671456Y-101073500D01*
X137787783Y-101025316D01*
X137876816Y-100936283D01*
X137925000Y-100819956D01*
X137925000Y-100795575D01*
X137931879Y-100830159D01*
X137973320Y-100892180D01*
X138035341Y-100933621D01*
X138108500Y-100948173D01*
X138508500Y-100948173D01*
X138581659Y-100933621D01*
X138643680Y-100892180D01*
X138685121Y-100830159D01*
X138699673Y-100757000D01*
X138699673Y-100507769D01*
X138847971Y-100359471D01*
X138915712Y-100258089D01*
X138939500Y-100138500D01*
X138939500Y-99612173D01*
X139039501Y-99612173D01*
X139039501Y-101160844D01*
X137082173Y-103118173D01*
X137082173Y-103017000D01*
X137067621Y-102943841D01*
X137026180Y-102881820D01*
X136964159Y-102840379D01*
X136891000Y-102825827D01*
X136853500Y-102825827D01*
X136853500Y-102738874D01*
X136954042Y-102638507D01*
X137028415Y-102459395D01*
X137028585Y-102265456D01*
X136954524Y-102086214D01*
X136853500Y-101985014D01*
X136853500Y-100686125D01*
X136892000Y-100686125D01*
X136892000Y-100819956D01*
X136940184Y-100936283D01*
X137029217Y-101025316D01*
X137145544Y-101073500D01*
X137229375Y-101073500D01*
X137308500Y-100994375D01*
X137308500Y-100607000D01*
X136971125Y-100607000D01*
X136892000Y-100686125D01*
X136853500Y-100686125D01*
X136853500Y-100629058D01*
X136829712Y-100509469D01*
X136761971Y-100408087D01*
X136447928Y-100094044D01*
X136892000Y-100094044D01*
X136892000Y-100227875D01*
X136971125Y-100307000D01*
X137308500Y-100307000D01*
X137308500Y-99919625D01*
X137229375Y-99840500D01*
X137145544Y-99840500D01*
X137029217Y-99888684D01*
X136940184Y-99977717D01*
X136892000Y-100094044D01*
X136447928Y-100094044D01*
X134729009Y-98375125D01*
X135485500Y-98375125D01*
X135485500Y-98483956D01*
X135533684Y-98600283D01*
X135622717Y-98689316D01*
X135739044Y-98737500D01*
X135872875Y-98737500D01*
X135952000Y-98658375D01*
X135952000Y-98296000D01*
X135564625Y-98296000D01*
X135485500Y-98375125D01*
X134729009Y-98375125D01*
X134253280Y-97899396D01*
X134240161Y-97833441D01*
X134205522Y-97781600D01*
X134213874Y-97769100D01*
X134474658Y-97769100D01*
X134513540Y-97807982D01*
X134513415Y-97950044D01*
X134587476Y-98129286D01*
X134724493Y-98266542D01*
X134903605Y-98340915D01*
X135097544Y-98341085D01*
X135276786Y-98267024D01*
X135414042Y-98130007D01*
X135485500Y-97957915D01*
X135485500Y-97966875D01*
X135564625Y-98046000D01*
X135952000Y-98046000D01*
X135952000Y-97683625D01*
X135872875Y-97604500D01*
X135739044Y-97604500D01*
X135622717Y-97652684D01*
X135533684Y-97741717D01*
X135488503Y-97850795D01*
X135488585Y-97756956D01*
X135414524Y-97577714D01*
X135277507Y-97440458D01*
X135098395Y-97366085D01*
X134955402Y-97365960D01*
X134833542Y-97244100D01*
X135913582Y-97244100D01*
X135923341Y-97250621D01*
X135996500Y-97265173D01*
X136396500Y-97265173D01*
X136469659Y-97250621D01*
X136531680Y-97209180D01*
X136573121Y-97147159D01*
X136587673Y-97074000D01*
X136587673Y-96960916D01*
X136600697Y-96941424D01*
X136633999Y-96774000D01*
X136600697Y-96606576D01*
X136587673Y-96587084D01*
X136587673Y-96474000D01*
X136573121Y-96400841D01*
X136531680Y-96338820D01*
X136469659Y-96297379D01*
X136396500Y-96282827D01*
X135996500Y-96282827D01*
X135923341Y-96297379D01*
X135861320Y-96338820D01*
X135841088Y-96369100D01*
X133866715Y-96369100D01*
X134037432Y-96202914D01*
X134158835Y-95920620D01*
X134095885Y-95798100D01*
X133580040Y-95798100D01*
X133580040Y-95818100D01*
X133197040Y-95818100D01*
X133197040Y-95798100D01*
X132681195Y-95798100D01*
X132618245Y-95920620D01*
X132739648Y-96202914D01*
X132957955Y-96415427D01*
X132713540Y-96415427D01*
X132640381Y-96429979D01*
X132578360Y-96471420D01*
X132536919Y-96533441D01*
X132522367Y-96606600D01*
X132522367Y-97006600D01*
X132536919Y-97079759D01*
X132571558Y-97131600D01*
X132536919Y-97183441D01*
X132522367Y-97256600D01*
X132522367Y-97656600D01*
X132536919Y-97729759D01*
X132571558Y-97781600D01*
X132536919Y-97833441D01*
X132522367Y-97906600D01*
X132522367Y-98306600D01*
X132536919Y-98379759D01*
X132571558Y-98431600D01*
X132536919Y-98483441D01*
X132522367Y-98556600D01*
X132522367Y-98950174D01*
X132445224Y-99027317D01*
X132397040Y-99143644D01*
X132397040Y-99227475D01*
X132476165Y-99306600D01*
X133197040Y-99306600D01*
X133197040Y-99206600D01*
X133580040Y-99206600D01*
X133580040Y-99306600D01*
X134300915Y-99306600D01*
X134380040Y-99227475D01*
X134380040Y-99143644D01*
X134331856Y-99027317D01*
X134254713Y-98950174D01*
X134254713Y-98784713D01*
X136228500Y-100758500D01*
X136228500Y-101985126D01*
X136127958Y-102085493D01*
X136053585Y-102264605D01*
X136053415Y-102458544D01*
X136127476Y-102637786D01*
X136228500Y-102738986D01*
X136228500Y-102825827D01*
X136191000Y-102825827D01*
X136117841Y-102840379D01*
X136055820Y-102881820D01*
X136014379Y-102943841D01*
X135999827Y-103017000D01*
X135999827Y-103617000D01*
X136014379Y-103690159D01*
X136055820Y-103752180D01*
X136117841Y-103793621D01*
X136191000Y-103808173D01*
X136803501Y-103808173D01*
X136803501Y-104725827D01*
X136191000Y-104725827D01*
X136117841Y-104740379D01*
X136055820Y-104781820D01*
X136014379Y-104843841D01*
X135999827Y-104917000D01*
X135999827Y-105517000D01*
X136014379Y-105590159D01*
X136055820Y-105652180D01*
X136117841Y-105693621D01*
X136191000Y-105708173D01*
X136891000Y-105708173D01*
X136964159Y-105693621D01*
X137026180Y-105652180D01*
X137067621Y-105590159D01*
X137068384Y-105586326D01*
X140093030Y-108610972D01*
X140194412Y-108678713D01*
X140314001Y-108702501D01*
X143051001Y-108702501D01*
X143170590Y-108678713D01*
X143271972Y-108610972D01*
X143316972Y-108565972D01*
X143384714Y-108464589D01*
X143408501Y-108345001D01*
X143408501Y-107290001D01*
X143398878Y-107241621D01*
X143384714Y-107170413D01*
X143316972Y-107069030D01*
X143062173Y-106814231D01*
X143062173Y-106465000D01*
X143047621Y-106391841D01*
X143006180Y-106329820D01*
X142944159Y-106288379D01*
X142933500Y-106286259D01*
X142933500Y-105823719D01*
X142976000Y-105832173D01*
X143276000Y-105832173D01*
X143313500Y-105824714D01*
X143313500Y-106473000D01*
X143337288Y-106592589D01*
X143372583Y-106645412D01*
X143405029Y-106693971D01*
X143526827Y-106815769D01*
X143526827Y-107065000D01*
X143541379Y-107138159D01*
X143582820Y-107200180D01*
X143644841Y-107241621D01*
X143718000Y-107256173D01*
X144318000Y-107256173D01*
X144391159Y-107241621D01*
X144453180Y-107200180D01*
X144494621Y-107138159D01*
X144509173Y-107065000D01*
X144509173Y-106665000D01*
X144494621Y-106591841D01*
X144453180Y-106529820D01*
X144391159Y-106488379D01*
X144318000Y-106473827D01*
X144068769Y-106473827D01*
X143938500Y-106343558D01*
X143938500Y-105824714D01*
X143976000Y-105832173D01*
X144276000Y-105832173D01*
X144349159Y-105817621D01*
X144376000Y-105799686D01*
X144402841Y-105817621D01*
X144476000Y-105832173D01*
X144776000Y-105832173D01*
X144813500Y-105824714D01*
X144813500Y-106333000D01*
X144837288Y-106452589D01*
X144886532Y-106526288D01*
X144905029Y-106553971D01*
X145208827Y-106857769D01*
X145208827Y-107107000D01*
X145223379Y-107180159D01*
X145264820Y-107242180D01*
X145326841Y-107283621D01*
X145400000Y-107298173D01*
X145800000Y-107298173D01*
X145873159Y-107283621D01*
X145935180Y-107242180D01*
X145976621Y-107180159D01*
X145991173Y-107107000D01*
X145991173Y-106507000D01*
X145976621Y-106433841D01*
X145935180Y-106371820D01*
X145873159Y-106330379D01*
X145800000Y-106315827D01*
X145550769Y-106315827D01*
X145438500Y-106203558D01*
X145438500Y-106063044D01*
X149020500Y-106063044D01*
X149020500Y-106196875D01*
X149099625Y-106276000D01*
X149437000Y-106276000D01*
X149437000Y-105888625D01*
X149357875Y-105809500D01*
X149274044Y-105809500D01*
X149157717Y-105857684D01*
X149068684Y-105946717D01*
X149020500Y-106063044D01*
X145438500Y-106063044D01*
X145438500Y-105735293D01*
X145452621Y-105714159D01*
X145467173Y-105641000D01*
X145467173Y-104857173D01*
X146002231Y-104857173D01*
X146732827Y-105587769D01*
X146732827Y-105837000D01*
X146747379Y-105910159D01*
X146788820Y-105972180D01*
X146850841Y-106013621D01*
X146924000Y-106028173D01*
X147324000Y-106028173D01*
X147397159Y-106013621D01*
X147459180Y-105972180D01*
X147500621Y-105910159D01*
X147515173Y-105837000D01*
X147515173Y-105237000D01*
X147500621Y-105163841D01*
X147459180Y-105101820D01*
X147397159Y-105060379D01*
X147324000Y-105045827D01*
X147074769Y-105045827D01*
X146442173Y-104413231D01*
X146442173Y-104366000D01*
X146427621Y-104292841D01*
X146421798Y-104284125D01*
X146880500Y-104284125D01*
X146880500Y-104417956D01*
X146928684Y-104534283D01*
X147017717Y-104623316D01*
X147134044Y-104671500D01*
X147242875Y-104671500D01*
X147322000Y-104592375D01*
X147322000Y-104205000D01*
X147572000Y-104205000D01*
X147572000Y-104592375D01*
X147651125Y-104671500D01*
X147759956Y-104671500D01*
X147876283Y-104623316D01*
X147965316Y-104534283D01*
X148013500Y-104417956D01*
X148013500Y-104284125D01*
X147934375Y-104205000D01*
X147572000Y-104205000D01*
X147322000Y-104205000D01*
X146959625Y-104205000D01*
X146880500Y-104284125D01*
X146421798Y-104284125D01*
X146409686Y-104266000D01*
X146427621Y-104239159D01*
X146442173Y-104166000D01*
X146442173Y-103866000D01*
X146427621Y-103792841D01*
X146409686Y-103766000D01*
X146427621Y-103739159D01*
X146442173Y-103666000D01*
X146442173Y-103366000D01*
X146434714Y-103328500D01*
X147020607Y-103328500D01*
X147061820Y-103390180D01*
X147123841Y-103431621D01*
X147158425Y-103438500D01*
X147134044Y-103438500D01*
X147017717Y-103486684D01*
X146928684Y-103575717D01*
X146880500Y-103692044D01*
X146880500Y-103825875D01*
X146959625Y-103905000D01*
X147322000Y-103905000D01*
X147322000Y-103843500D01*
X147572000Y-103843500D01*
X147572000Y-103905000D01*
X147934375Y-103905000D01*
X148013500Y-103825875D01*
X148013500Y-103692044D01*
X147965316Y-103575717D01*
X147876283Y-103486684D01*
X147759956Y-103438500D01*
X147735575Y-103438500D01*
X147770159Y-103431621D01*
X147832180Y-103390180D01*
X147873621Y-103328159D01*
X147888173Y-103255000D01*
X147888173Y-102655000D01*
X147873621Y-102581841D01*
X147832180Y-102519820D01*
X147770159Y-102478379D01*
X147697000Y-102463827D01*
X147197000Y-102463827D01*
X147123841Y-102478379D01*
X147061820Y-102519820D01*
X147020379Y-102581841D01*
X147005827Y-102655000D01*
X147005827Y-102703500D01*
X146434714Y-102703500D01*
X146442173Y-102666000D01*
X146442173Y-102366000D01*
X146427621Y-102292841D01*
X146409686Y-102266000D01*
X146427621Y-102239159D01*
X146442173Y-102166000D01*
X146442173Y-101866000D01*
X146427621Y-101792841D01*
X146386180Y-101730820D01*
X146324159Y-101689379D01*
X146251000Y-101674827D01*
X145467173Y-101674827D01*
X145467173Y-101315544D01*
X146959415Y-101315544D01*
X147033476Y-101494786D01*
X147170493Y-101632042D01*
X147349605Y-101706415D01*
X147492598Y-101706540D01*
X149224500Y-103438442D01*
X149224500Y-104578666D01*
X149204438Y-104592071D01*
X149204585Y-104424456D01*
X149130524Y-104245214D01*
X148993507Y-104107958D01*
X148814395Y-104033585D01*
X148620456Y-104033415D01*
X148441214Y-104107476D01*
X148303958Y-104244493D01*
X148229585Y-104423605D01*
X148229460Y-104566598D01*
X147803029Y-104993029D01*
X147759129Y-105058730D01*
X147750841Y-105060379D01*
X147688820Y-105101820D01*
X147647379Y-105163841D01*
X147632827Y-105237000D01*
X147632827Y-105837000D01*
X147647379Y-105910159D01*
X147688820Y-105972180D01*
X147750841Y-106013621D01*
X147824000Y-106028173D01*
X148224000Y-106028173D01*
X148297159Y-106013621D01*
X148359180Y-105972180D01*
X148400621Y-105910159D01*
X148415173Y-105837000D01*
X148415173Y-105264769D01*
X148671482Y-105008460D01*
X148813544Y-105008585D01*
X148992786Y-104934524D01*
X149130042Y-104797507D01*
X149145827Y-104759492D01*
X149145827Y-105329000D01*
X149160379Y-105402159D01*
X149201820Y-105464180D01*
X149263841Y-105505621D01*
X149337000Y-105520173D01*
X149737000Y-105520173D01*
X149810159Y-105505621D01*
X149872180Y-105464180D01*
X149913621Y-105402159D01*
X149928173Y-105329000D01*
X149928173Y-104729000D01*
X149913621Y-104655841D01*
X149872180Y-104593820D01*
X149849500Y-104578666D01*
X149849500Y-103309000D01*
X149825712Y-103189411D01*
X149757971Y-103088029D01*
X149007986Y-102338044D01*
X151579500Y-102338044D01*
X151579500Y-102471875D01*
X151658625Y-102551000D01*
X152021000Y-102551000D01*
X152021000Y-102163625D01*
X151941875Y-102084500D01*
X151833044Y-102084500D01*
X151716717Y-102132684D01*
X151627684Y-102221717D01*
X151579500Y-102338044D01*
X149007986Y-102338044D01*
X147934460Y-101264518D01*
X147934585Y-101122456D01*
X147860524Y-100943214D01*
X147723507Y-100805958D01*
X147544395Y-100731585D01*
X147350456Y-100731415D01*
X147171214Y-100805476D01*
X147033958Y-100942493D01*
X146959585Y-101121605D01*
X146959415Y-101315544D01*
X145467173Y-101315544D01*
X145467173Y-100891000D01*
X145452621Y-100817841D01*
X145411180Y-100755820D01*
X145362811Y-100723501D01*
X152039489Y-100723501D01*
X152039415Y-100807544D01*
X152113476Y-100986786D01*
X152250493Y-101124042D01*
X152429605Y-101198415D01*
X152623544Y-101198585D01*
X152802786Y-101124524D01*
X152940042Y-100987507D01*
X153014415Y-100808395D01*
X153014585Y-100614456D01*
X152940524Y-100435214D01*
X152803507Y-100297958D01*
X152756649Y-100278501D01*
X153895295Y-100278501D01*
X154294765Y-100677971D01*
X154396147Y-100745712D01*
X154515736Y-100769500D01*
X154563126Y-100769500D01*
X154663493Y-100870042D01*
X154842605Y-100944415D01*
X154973528Y-100944530D01*
X154604559Y-101313499D01*
X152959999Y-101313499D01*
X152840411Y-101337286D01*
X152739028Y-101405028D01*
X152577030Y-101567026D01*
X152509289Y-101668408D01*
X152485501Y-101787997D01*
X152485501Y-102095495D01*
X152458956Y-102084500D01*
X152350125Y-102084500D01*
X152271000Y-102163625D01*
X152271000Y-102551000D01*
X152357500Y-102551000D01*
X152357500Y-102851000D01*
X152271000Y-102851000D01*
X152271000Y-102912500D01*
X152021000Y-102912500D01*
X152021000Y-102851000D01*
X151658625Y-102851000D01*
X151579500Y-102930125D01*
X151579500Y-103063956D01*
X151627684Y-103180283D01*
X151716717Y-103269316D01*
X151833044Y-103317500D01*
X151857425Y-103317500D01*
X151822841Y-103324379D01*
X151760820Y-103365820D01*
X151719379Y-103427841D01*
X151704827Y-103501000D01*
X151704827Y-104101000D01*
X151719379Y-104174159D01*
X151760820Y-104236180D01*
X151822841Y-104277621D01*
X151896000Y-104292173D01*
X152205264Y-104292173D01*
X152276411Y-104339712D01*
X152396000Y-104363500D01*
X152948827Y-104363500D01*
X152948827Y-104651000D01*
X152951309Y-104663479D01*
X150940021Y-104663479D01*
X150820432Y-104687267D01*
X150819938Y-104687597D01*
X150813621Y-104655841D01*
X150772180Y-104593820D01*
X150710159Y-104552379D01*
X150637000Y-104537827D01*
X150237000Y-104537827D01*
X150163841Y-104552379D01*
X150101820Y-104593820D01*
X150060379Y-104655841D01*
X150045827Y-104729000D01*
X150045827Y-105329000D01*
X150060379Y-105402159D01*
X150101820Y-105464180D01*
X150124500Y-105479334D01*
X150124500Y-105975666D01*
X150101820Y-105990820D01*
X150060379Y-106052841D01*
X150053500Y-106087425D01*
X150053500Y-106063044D01*
X150005316Y-105946717D01*
X149916283Y-105857684D01*
X149799956Y-105809500D01*
X149716125Y-105809500D01*
X149637000Y-105888625D01*
X149637000Y-106276000D01*
X149737000Y-106276000D01*
X149737000Y-106576000D01*
X149637000Y-106576000D01*
X149637000Y-106963375D01*
X149716125Y-107042500D01*
X149799956Y-107042500D01*
X149916283Y-106994316D01*
X150005316Y-106905283D01*
X150053500Y-106788956D01*
X150053500Y-106764575D01*
X150060379Y-106799159D01*
X150101820Y-106861180D01*
X150124500Y-106876334D01*
X150124500Y-107422666D01*
X150101820Y-107437820D01*
X150060379Y-107499841D01*
X150053500Y-107534425D01*
X150053500Y-107510044D01*
X150005316Y-107393717D01*
X149916283Y-107304684D01*
X149799956Y-107256500D01*
X149666125Y-107256500D01*
X149587000Y-107335625D01*
X149587000Y-107698000D01*
X149648500Y-107698000D01*
X149648500Y-107948000D01*
X149587000Y-107948000D01*
X149587000Y-108034500D01*
X149287000Y-108034500D01*
X149287000Y-107948000D01*
X149225500Y-107948000D01*
X149225500Y-107698000D01*
X149287000Y-107698000D01*
X149287000Y-107335625D01*
X149207875Y-107256500D01*
X149074044Y-107256500D01*
X148998301Y-107287874D01*
X148954972Y-107223028D01*
X148387069Y-106655125D01*
X149020500Y-106655125D01*
X149020500Y-106788956D01*
X149068684Y-106905283D01*
X149157717Y-106994316D01*
X149274044Y-107042500D01*
X149357875Y-107042500D01*
X149437000Y-106963375D01*
X149437000Y-106576000D01*
X149099625Y-106576000D01*
X149020500Y-106655125D01*
X148387069Y-106655125D01*
X148317973Y-106586029D01*
X148289648Y-106567103D01*
X148216591Y-106518288D01*
X148097002Y-106494500D01*
X146888687Y-106494500D01*
X146876621Y-106433841D01*
X146835180Y-106371820D01*
X146773159Y-106330379D01*
X146700000Y-106315827D01*
X146300000Y-106315827D01*
X146226841Y-106330379D01*
X146164820Y-106371820D01*
X146123379Y-106433841D01*
X146108827Y-106507000D01*
X146108827Y-107107000D01*
X146123379Y-107180159D01*
X146164820Y-107242180D01*
X146226841Y-107283621D01*
X146300000Y-107298173D01*
X146700000Y-107298173D01*
X146773159Y-107283621D01*
X146835180Y-107242180D01*
X146876621Y-107180159D01*
X146888687Y-107119500D01*
X147967560Y-107119500D01*
X148421501Y-107573441D01*
X148421501Y-108440999D01*
X148445289Y-108560588D01*
X148485321Y-108620501D01*
X145865443Y-108620501D01*
X145395701Y-108150759D01*
X145447042Y-108099507D01*
X145521415Y-107920395D01*
X145521585Y-107726456D01*
X145447524Y-107547214D01*
X145310507Y-107409958D01*
X145131395Y-107335585D01*
X144937456Y-107335415D01*
X144758214Y-107409476D01*
X144689803Y-107477768D01*
X144687589Y-107476288D01*
X144568000Y-107452500D01*
X144468334Y-107452500D01*
X144453180Y-107429820D01*
X144391159Y-107388379D01*
X144318000Y-107373827D01*
X143718000Y-107373827D01*
X143644841Y-107388379D01*
X143582820Y-107429820D01*
X143541379Y-107491841D01*
X143526827Y-107565000D01*
X143526827Y-107965000D01*
X143541379Y-108038159D01*
X143582820Y-108100180D01*
X143644841Y-108141621D01*
X143718000Y-108156173D01*
X144318000Y-108156173D01*
X144391159Y-108141621D01*
X144453180Y-108100180D01*
X144456408Y-108095350D01*
X145515030Y-109153972D01*
X145601127Y-109211500D01*
X129548500Y-109211500D01*
X129548500Y-108605512D01*
X130425310Y-108605512D01*
X130657355Y-108868302D01*
X131486538Y-109168283D01*
X132367401Y-109128115D01*
X132994645Y-108868302D01*
X133226690Y-108605512D01*
X131826000Y-107204822D01*
X130425310Y-108605512D01*
X129548500Y-108605512D01*
X129548500Y-106594538D01*
X129591717Y-106594538D01*
X129631885Y-107475401D01*
X129891698Y-108102645D01*
X130154488Y-108334690D01*
X131555178Y-106934000D01*
X132096822Y-106934000D01*
X133497512Y-108334690D01*
X133760302Y-108102645D01*
X134060283Y-107273462D01*
X134020115Y-106392599D01*
X133760302Y-105765355D01*
X133497512Y-105533310D01*
X132096822Y-106934000D01*
X131555178Y-106934000D01*
X130154488Y-105533310D01*
X129891698Y-105765355D01*
X129591717Y-106594538D01*
X129548500Y-106594538D01*
X129548500Y-105262488D01*
X130425310Y-105262488D01*
X131826000Y-106663178D01*
X133226690Y-105262488D01*
X132994645Y-104999698D01*
X132165462Y-104699717D01*
X131284599Y-104739885D01*
X130657355Y-104999698D01*
X130425310Y-105262488D01*
X129548500Y-105262488D01*
X129548500Y-101919908D01*
X129659544Y-101919908D01*
X129794192Y-102159794D01*
X130053035Y-102354699D01*
X130366762Y-102435713D01*
X130497040Y-102353698D01*
X130497040Y-101798100D01*
X130880040Y-101798100D01*
X130880040Y-102353698D01*
X131010318Y-102435713D01*
X131324045Y-102354699D01*
X131582888Y-102159794D01*
X131717536Y-101919908D01*
X131675614Y-101798100D01*
X130880040Y-101798100D01*
X130497040Y-101798100D01*
X129701466Y-101798100D01*
X129659544Y-101919908D01*
X129548500Y-101919908D01*
X129548500Y-101293292D01*
X129659544Y-101293292D01*
X129701466Y-101415100D01*
X130497040Y-101415100D01*
X130497040Y-100859502D01*
X130880040Y-100859502D01*
X130880040Y-101415100D01*
X131675614Y-101415100D01*
X131717536Y-101293292D01*
X131582888Y-101053406D01*
X131406542Y-100920620D01*
X132618245Y-100920620D01*
X132739648Y-101202914D01*
X132959839Y-101417261D01*
X133079259Y-101485172D01*
X133197040Y-101442753D01*
X133197040Y-100798100D01*
X133580040Y-100798100D01*
X133580040Y-101442753D01*
X133697821Y-101485172D01*
X133817241Y-101417261D01*
X134037432Y-101202914D01*
X134158835Y-100920620D01*
X134095885Y-100798100D01*
X133580040Y-100798100D01*
X133197040Y-100798100D01*
X132681195Y-100798100D01*
X132618245Y-100920620D01*
X131406542Y-100920620D01*
X131324045Y-100858501D01*
X131010318Y-100777487D01*
X130880040Y-100859502D01*
X130497040Y-100859502D01*
X130366762Y-100777487D01*
X130053035Y-100858501D01*
X129794192Y-101053406D01*
X129659544Y-101293292D01*
X129548500Y-101293292D01*
X129548500Y-99585725D01*
X132397040Y-99585725D01*
X132397040Y-99669556D01*
X132445224Y-99785883D01*
X132534257Y-99874916D01*
X132650584Y-99923100D01*
X132829211Y-99923100D01*
X132739648Y-100010286D01*
X132618245Y-100292580D01*
X132681195Y-100415100D01*
X133197040Y-100415100D01*
X133197040Y-99506600D01*
X133580040Y-99506600D01*
X133580040Y-100415100D01*
X134095885Y-100415100D01*
X134158835Y-100292580D01*
X134037432Y-100010286D01*
X133947869Y-99923100D01*
X134126496Y-99923100D01*
X134242823Y-99874916D01*
X134331856Y-99785883D01*
X134380040Y-99669556D01*
X134380040Y-99585725D01*
X134300915Y-99506600D01*
X133580040Y-99506600D01*
X133197040Y-99506600D01*
X132476165Y-99506600D01*
X132397040Y-99585725D01*
X129548500Y-99585725D01*
X129548500Y-94919908D01*
X129659544Y-94919908D01*
X129794192Y-95159794D01*
X130053035Y-95354699D01*
X130366762Y-95435713D01*
X130497040Y-95353698D01*
X130497040Y-94798100D01*
X130880040Y-94798100D01*
X130880040Y-95353698D01*
X131010318Y-95435713D01*
X131324045Y-95354699D01*
X131406541Y-95292580D01*
X132618245Y-95292580D01*
X132681195Y-95415100D01*
X133197040Y-95415100D01*
X133197040Y-94770447D01*
X133580040Y-94770447D01*
X133580040Y-95415100D01*
X134095885Y-95415100D01*
X134158835Y-95292580D01*
X134037432Y-95010286D01*
X133817241Y-94795939D01*
X133697821Y-94728028D01*
X133580040Y-94770447D01*
X133197040Y-94770447D01*
X133079259Y-94728028D01*
X132959839Y-94795939D01*
X132739648Y-95010286D01*
X132618245Y-95292580D01*
X131406541Y-95292580D01*
X131582888Y-95159794D01*
X131717536Y-94919908D01*
X131675614Y-94798100D01*
X130880040Y-94798100D01*
X130497040Y-94798100D01*
X129701466Y-94798100D01*
X129659544Y-94919908D01*
X129548500Y-94919908D01*
X129548500Y-94293292D01*
X129659544Y-94293292D01*
X129701466Y-94415100D01*
X130497040Y-94415100D01*
X130497040Y-93859502D01*
X130880040Y-93859502D01*
X130880040Y-94415100D01*
X131675614Y-94415100D01*
X131717536Y-94293292D01*
X131582888Y-94053406D01*
X131324045Y-93858501D01*
X131010318Y-93777487D01*
X130880040Y-93859502D01*
X130497040Y-93859502D01*
X130366762Y-93777487D01*
X130053035Y-93858501D01*
X129794192Y-94053406D01*
X129659544Y-94293292D01*
X129548500Y-94293292D01*
X129548500Y-91416893D01*
X129935823Y-91730399D01*
X130160573Y-91823476D01*
X130364500Y-91789659D01*
X130364500Y-90742500D01*
X130747500Y-90742500D01*
X130747500Y-91789659D01*
X130951427Y-91823476D01*
X131176177Y-91730399D01*
X131580305Y-91403291D01*
X131828492Y-90946430D01*
X131795559Y-90742500D01*
X130747500Y-90742500D01*
X130364500Y-90742500D01*
X130344500Y-90742500D01*
X130344500Y-90359500D01*
X130364500Y-90359500D01*
X130364500Y-89312341D01*
X130747500Y-89312341D01*
X130747500Y-90359500D01*
X131795559Y-90359500D01*
X131828492Y-90155570D01*
X131580305Y-89698709D01*
X131176177Y-89371601D01*
X130951427Y-89278524D01*
X130747500Y-89312341D01*
X130364500Y-89312341D01*
X130160573Y-89278524D01*
X129935823Y-89371601D01*
X129548500Y-89685107D01*
X129548500Y-89218173D01*
X131572000Y-89218173D01*
X131645159Y-89203621D01*
X131707180Y-89162180D01*
X131748621Y-89100159D01*
X131763173Y-89027000D01*
X131763173Y-88448500D01*
X131890782Y-88448500D01*
X132404500Y-88962219D01*
G36*
X137999827Y-103617000D02*
X138014379Y-103690159D01*
X138055820Y-103752180D01*
X138117841Y-103793621D01*
X138191000Y-103808173D01*
X138637810Y-103808173D01*
X138740000Y-103828500D01*
X138877512Y-103828500D01*
X138842458Y-103863493D01*
X138768085Y-104042605D01*
X138767923Y-104227702D01*
X138716000Y-104279625D01*
X138716000Y-104825500D01*
X139128375Y-104825500D01*
X139207500Y-104746375D01*
X139207500Y-104627458D01*
X139352044Y-104627585D01*
X139531286Y-104553524D01*
X139668542Y-104416507D01*
X139742915Y-104237395D01*
X139743085Y-104043456D01*
X139669024Y-103864214D01*
X139633372Y-103828500D01*
X139796975Y-103828500D01*
X139781379Y-103851841D01*
X139766827Y-103925000D01*
X139766827Y-104525000D01*
X139781379Y-104598159D01*
X139822820Y-104660180D01*
X139884841Y-104701621D01*
X139919425Y-104708500D01*
X139895044Y-104708500D01*
X139778717Y-104756684D01*
X139689684Y-104845717D01*
X139641500Y-104962044D01*
X139641500Y-105095875D01*
X139720625Y-105175000D01*
X140083000Y-105175000D01*
X140083000Y-105113500D01*
X140333000Y-105113500D01*
X140333000Y-105175000D01*
X140695375Y-105175000D01*
X140774500Y-105095875D01*
X140774500Y-104962044D01*
X140726316Y-104845717D01*
X140637283Y-104756684D01*
X140520956Y-104708500D01*
X140496575Y-104708500D01*
X140531159Y-104701621D01*
X140593180Y-104660180D01*
X140634621Y-104598159D01*
X140649173Y-104525000D01*
X140649173Y-104409655D01*
X140693493Y-104454052D01*
X140872605Y-104528425D01*
X141066544Y-104528595D01*
X141245786Y-104454534D01*
X141309827Y-104390605D01*
X141309827Y-104666000D01*
X141324379Y-104739159D01*
X141365820Y-104801180D01*
X141427841Y-104842621D01*
X141501000Y-104857173D01*
X141613500Y-104857173D01*
X141613500Y-106336285D01*
X141609180Y-106329820D01*
X141547159Y-106288379D01*
X141474000Y-106273827D01*
X140974000Y-106273827D01*
X140900841Y-106288379D01*
X140838820Y-106329820D01*
X140797379Y-106391841D01*
X140782827Y-106465000D01*
X140782827Y-107065000D01*
X140797379Y-107138159D01*
X140838820Y-107200180D01*
X140900841Y-107241621D01*
X140935425Y-107248500D01*
X140911044Y-107248500D01*
X140794717Y-107296684D01*
X140705684Y-107385717D01*
X140657500Y-107502044D01*
X140657500Y-107635875D01*
X140736625Y-107715000D01*
X141099000Y-107715000D01*
X141099000Y-107653500D01*
X141349000Y-107653500D01*
X141349000Y-107715000D01*
X141711375Y-107715000D01*
X141790500Y-107635875D01*
X141790500Y-107502044D01*
X141742316Y-107385717D01*
X141653283Y-107296684D01*
X141536956Y-107248500D01*
X141512575Y-107248500D01*
X141547159Y-107241621D01*
X141609180Y-107200180D01*
X141650621Y-107138159D01*
X141662687Y-107077500D01*
X141724000Y-107077500D01*
X141843589Y-107053712D01*
X141944971Y-106985971D01*
X142146971Y-106783971D01*
X142172735Y-106745412D01*
X142179827Y-106734798D01*
X142179827Y-107065000D01*
X142194379Y-107138159D01*
X142235820Y-107200180D01*
X142297841Y-107241621D01*
X142332425Y-107248500D01*
X142308044Y-107248500D01*
X142191717Y-107296684D01*
X142102684Y-107385717D01*
X142054500Y-107502044D01*
X142054500Y-107635875D01*
X142133625Y-107715000D01*
X142496000Y-107715000D01*
X142496000Y-107653500D01*
X142746000Y-107653500D01*
X142746000Y-107715000D01*
X142783501Y-107715000D01*
X142783501Y-108015000D01*
X142746000Y-108015000D01*
X142746000Y-108076500D01*
X142496000Y-108076500D01*
X142496000Y-108015000D01*
X142133625Y-108015000D01*
X142071124Y-108077501D01*
X141773876Y-108077501D01*
X141711375Y-108015000D01*
X141349000Y-108015000D01*
X141349000Y-108076500D01*
X141099000Y-108076500D01*
X141099000Y-108015000D01*
X140736625Y-108015000D01*
X140674124Y-108077501D01*
X140443443Y-108077501D01*
X138199442Y-105833500D01*
X138286875Y-105833500D01*
X138366000Y-105754375D01*
X138366000Y-105208500D01*
X138716000Y-105208500D01*
X138716000Y-105754375D01*
X138795125Y-105833500D01*
X138953956Y-105833500D01*
X139070283Y-105785316D01*
X139159316Y-105696283D01*
X139207500Y-105579956D01*
X139207500Y-105554125D01*
X139641500Y-105554125D01*
X139641500Y-105687956D01*
X139689684Y-105804283D01*
X139778717Y-105893316D01*
X139895044Y-105941500D01*
X140003875Y-105941500D01*
X140083000Y-105862375D01*
X140083000Y-105475000D01*
X140333000Y-105475000D01*
X140333000Y-105862375D01*
X140412125Y-105941500D01*
X140520956Y-105941500D01*
X140637283Y-105893316D01*
X140726316Y-105804283D01*
X140774500Y-105687956D01*
X140774500Y-105554125D01*
X140695375Y-105475000D01*
X140333000Y-105475000D01*
X140083000Y-105475000D01*
X139720625Y-105475000D01*
X139641500Y-105554125D01*
X139207500Y-105554125D01*
X139207500Y-105287625D01*
X139128375Y-105208500D01*
X138716000Y-105208500D01*
X138366000Y-105208500D01*
X137953625Y-105208500D01*
X137874500Y-105287625D01*
X137874500Y-105508558D01*
X137515467Y-105149525D01*
X137528501Y-105083999D01*
X137528501Y-104454044D01*
X137874500Y-104454044D01*
X137874500Y-104746375D01*
X137953625Y-104825500D01*
X138366000Y-104825500D01*
X138366000Y-104279625D01*
X138286875Y-104200500D01*
X138128044Y-104200500D01*
X138011717Y-104248684D01*
X137922684Y-104337717D01*
X137874500Y-104454044D01*
X137528501Y-104454044D01*
X137528501Y-103697149D01*
X137999827Y-103225823D01*
X137999827Y-103617000D01*
X137999827Y-103617000D01*
G37*
X137999827Y-103617000D02*
X138014379Y-103690159D01*
X138055820Y-103752180D01*
X138117841Y-103793621D01*
X138191000Y-103808173D01*
X138637810Y-103808173D01*
X138740000Y-103828500D01*
X138877512Y-103828500D01*
X138842458Y-103863493D01*
X138768085Y-104042605D01*
X138767923Y-104227702D01*
X138716000Y-104279625D01*
X138716000Y-104825500D01*
X139128375Y-104825500D01*
X139207500Y-104746375D01*
X139207500Y-104627458D01*
X139352044Y-104627585D01*
X139531286Y-104553524D01*
X139668542Y-104416507D01*
X139742915Y-104237395D01*
X139743085Y-104043456D01*
X139669024Y-103864214D01*
X139633372Y-103828500D01*
X139796975Y-103828500D01*
X139781379Y-103851841D01*
X139766827Y-103925000D01*
X139766827Y-104525000D01*
X139781379Y-104598159D01*
X139822820Y-104660180D01*
X139884841Y-104701621D01*
X139919425Y-104708500D01*
X139895044Y-104708500D01*
X139778717Y-104756684D01*
X139689684Y-104845717D01*
X139641500Y-104962044D01*
X139641500Y-105095875D01*
X139720625Y-105175000D01*
X140083000Y-105175000D01*
X140083000Y-105113500D01*
X140333000Y-105113500D01*
X140333000Y-105175000D01*
X140695375Y-105175000D01*
X140774500Y-105095875D01*
X140774500Y-104962044D01*
X140726316Y-104845717D01*
X140637283Y-104756684D01*
X140520956Y-104708500D01*
X140496575Y-104708500D01*
X140531159Y-104701621D01*
X140593180Y-104660180D01*
X140634621Y-104598159D01*
X140649173Y-104525000D01*
X140649173Y-104409655D01*
X140693493Y-104454052D01*
X140872605Y-104528425D01*
X141066544Y-104528595D01*
X141245786Y-104454534D01*
X141309827Y-104390605D01*
X141309827Y-104666000D01*
X141324379Y-104739159D01*
X141365820Y-104801180D01*
X141427841Y-104842621D01*
X141501000Y-104857173D01*
X141613500Y-104857173D01*
X141613500Y-106336285D01*
X141609180Y-106329820D01*
X141547159Y-106288379D01*
X141474000Y-106273827D01*
X140974000Y-106273827D01*
X140900841Y-106288379D01*
X140838820Y-106329820D01*
X140797379Y-106391841D01*
X140782827Y-106465000D01*
X140782827Y-107065000D01*
X140797379Y-107138159D01*
X140838820Y-107200180D01*
X140900841Y-107241621D01*
X140935425Y-107248500D01*
X140911044Y-107248500D01*
X140794717Y-107296684D01*
X140705684Y-107385717D01*
X140657500Y-107502044D01*
X140657500Y-107635875D01*
X140736625Y-107715000D01*
X141099000Y-107715000D01*
X141099000Y-107653500D01*
X141349000Y-107653500D01*
X141349000Y-107715000D01*
X141711375Y-107715000D01*
X141790500Y-107635875D01*
X141790500Y-107502044D01*
X141742316Y-107385717D01*
X141653283Y-107296684D01*
X141536956Y-107248500D01*
X141512575Y-107248500D01*
X141547159Y-107241621D01*
X141609180Y-107200180D01*
X141650621Y-107138159D01*
X141662687Y-107077500D01*
X141724000Y-107077500D01*
X141843589Y-107053712D01*
X141944971Y-106985971D01*
X142146971Y-106783971D01*
X142172735Y-106745412D01*
X142179827Y-106734798D01*
X142179827Y-107065000D01*
X142194379Y-107138159D01*
X142235820Y-107200180D01*
X142297841Y-107241621D01*
X142332425Y-107248500D01*
X142308044Y-107248500D01*
X142191717Y-107296684D01*
X142102684Y-107385717D01*
X142054500Y-107502044D01*
X142054500Y-107635875D01*
X142133625Y-107715000D01*
X142496000Y-107715000D01*
X142496000Y-107653500D01*
X142746000Y-107653500D01*
X142746000Y-107715000D01*
X142783501Y-107715000D01*
X142783501Y-108015000D01*
X142746000Y-108015000D01*
X142746000Y-108076500D01*
X142496000Y-108076500D01*
X142496000Y-108015000D01*
X142133625Y-108015000D01*
X142071124Y-108077501D01*
X141773876Y-108077501D01*
X141711375Y-108015000D01*
X141349000Y-108015000D01*
X141349000Y-108076500D01*
X141099000Y-108076500D01*
X141099000Y-108015000D01*
X140736625Y-108015000D01*
X140674124Y-108077501D01*
X140443443Y-108077501D01*
X138199442Y-105833500D01*
X138286875Y-105833500D01*
X138366000Y-105754375D01*
X138366000Y-105208500D01*
X138716000Y-105208500D01*
X138716000Y-105754375D01*
X138795125Y-105833500D01*
X138953956Y-105833500D01*
X139070283Y-105785316D01*
X139159316Y-105696283D01*
X139207500Y-105579956D01*
X139207500Y-105554125D01*
X139641500Y-105554125D01*
X139641500Y-105687956D01*
X139689684Y-105804283D01*
X139778717Y-105893316D01*
X139895044Y-105941500D01*
X140003875Y-105941500D01*
X140083000Y-105862375D01*
X140083000Y-105475000D01*
X140333000Y-105475000D01*
X140333000Y-105862375D01*
X140412125Y-105941500D01*
X140520956Y-105941500D01*
X140637283Y-105893316D01*
X140726316Y-105804283D01*
X140774500Y-105687956D01*
X140774500Y-105554125D01*
X140695375Y-105475000D01*
X140333000Y-105475000D01*
X140083000Y-105475000D01*
X139720625Y-105475000D01*
X139641500Y-105554125D01*
X139207500Y-105554125D01*
X139207500Y-105287625D01*
X139128375Y-105208500D01*
X138716000Y-105208500D01*
X138366000Y-105208500D01*
X137953625Y-105208500D01*
X137874500Y-105287625D01*
X137874500Y-105508558D01*
X137515467Y-105149525D01*
X137528501Y-105083999D01*
X137528501Y-104454044D01*
X137874500Y-104454044D01*
X137874500Y-104746375D01*
X137953625Y-104825500D01*
X138366000Y-104825500D01*
X138366000Y-104279625D01*
X138286875Y-104200500D01*
X138128044Y-104200500D01*
X138011717Y-104248684D01*
X137922684Y-104337717D01*
X137874500Y-104454044D01*
X137528501Y-104454044D01*
X137528501Y-103697149D01*
X137999827Y-103225823D01*
X137999827Y-103617000D01*
G36*
X157130529Y-101378471D02*
X157231912Y-101446213D01*
X157351500Y-101470000D01*
X157627502Y-101470000D01*
X157627415Y-101569544D01*
X157701476Y-101748786D01*
X157838493Y-101886042D01*
X158017605Y-101960415D01*
X158211544Y-101960585D01*
X158390786Y-101886524D01*
X158471254Y-101806196D01*
X158907623Y-102242565D01*
X158872820Y-102265820D01*
X158831379Y-102327841D01*
X158816827Y-102401000D01*
X158816827Y-103001000D01*
X158831379Y-103074159D01*
X158872820Y-103136180D01*
X158934841Y-103177621D01*
X158969425Y-103184500D01*
X158945044Y-103184500D01*
X158828717Y-103232684D01*
X158739684Y-103321717D01*
X158691500Y-103438044D01*
X158691500Y-103571875D01*
X158770625Y-103651000D01*
X159133000Y-103651000D01*
X159133000Y-103589500D01*
X159383000Y-103589500D01*
X159383000Y-103651000D01*
X159420501Y-103651000D01*
X159420501Y-103951000D01*
X159383000Y-103951000D01*
X159383000Y-104012500D01*
X159133000Y-104012500D01*
X159133000Y-103951000D01*
X158770625Y-103951000D01*
X158691500Y-104030125D01*
X158691500Y-104163956D01*
X158739684Y-104280283D01*
X158828717Y-104369316D01*
X158945044Y-104417500D01*
X159053875Y-104417500D01*
X159066498Y-104404877D01*
X159066498Y-104417500D01*
X159154560Y-104417500D01*
X158908581Y-104663479D01*
X156928691Y-104663479D01*
X156931173Y-104651000D01*
X156931173Y-104072125D01*
X157167500Y-104072125D01*
X157167500Y-104205956D01*
X157215684Y-104322283D01*
X157304717Y-104411316D01*
X157421044Y-104459500D01*
X157529875Y-104459500D01*
X157609000Y-104380375D01*
X157609000Y-103993000D01*
X157859000Y-103993000D01*
X157859000Y-104380375D01*
X157938125Y-104459500D01*
X158046956Y-104459500D01*
X158163283Y-104411316D01*
X158252316Y-104322283D01*
X158300500Y-104205956D01*
X158300500Y-104072125D01*
X158221375Y-103993000D01*
X157859000Y-103993000D01*
X157609000Y-103993000D01*
X157246625Y-103993000D01*
X157167500Y-104072125D01*
X156931173Y-104072125D01*
X156931173Y-103451000D01*
X156916621Y-103377841D01*
X156907500Y-103364190D01*
X156907500Y-103137810D01*
X156916621Y-103124159D01*
X156930278Y-103055500D01*
X157295313Y-103055500D01*
X157307379Y-103116159D01*
X157348820Y-103178180D01*
X157410841Y-103219621D01*
X157445425Y-103226500D01*
X157421044Y-103226500D01*
X157304717Y-103274684D01*
X157215684Y-103363717D01*
X157167500Y-103480044D01*
X157167500Y-103613875D01*
X157246625Y-103693000D01*
X157609000Y-103693000D01*
X157609000Y-103631500D01*
X157859000Y-103631500D01*
X157859000Y-103693000D01*
X158221375Y-103693000D01*
X158300500Y-103613875D01*
X158300500Y-103480044D01*
X158252316Y-103363717D01*
X158163283Y-103274684D01*
X158046956Y-103226500D01*
X158022575Y-103226500D01*
X158057159Y-103219621D01*
X158119180Y-103178180D01*
X158160621Y-103116159D01*
X158175173Y-103043000D01*
X158175173Y-102443000D01*
X158160621Y-102369841D01*
X158119180Y-102307820D01*
X158057159Y-102266379D01*
X157984000Y-102251827D01*
X157484000Y-102251827D01*
X157410841Y-102266379D01*
X157348820Y-102307820D01*
X157307379Y-102369841D01*
X157295313Y-102430500D01*
X156931173Y-102430500D01*
X156931173Y-102001769D01*
X156985471Y-101947471D01*
X157053213Y-101846088D01*
X157077000Y-101726500D01*
X157077000Y-101324942D01*
X157130529Y-101378471D01*
X157130529Y-101378471D01*
G37*
X157130529Y-101378471D02*
X157231912Y-101446213D01*
X157351500Y-101470000D01*
X157627502Y-101470000D01*
X157627415Y-101569544D01*
X157701476Y-101748786D01*
X157838493Y-101886042D01*
X158017605Y-101960415D01*
X158211544Y-101960585D01*
X158390786Y-101886524D01*
X158471254Y-101806196D01*
X158907623Y-102242565D01*
X158872820Y-102265820D01*
X158831379Y-102327841D01*
X158816827Y-102401000D01*
X158816827Y-103001000D01*
X158831379Y-103074159D01*
X158872820Y-103136180D01*
X158934841Y-103177621D01*
X158969425Y-103184500D01*
X158945044Y-103184500D01*
X158828717Y-103232684D01*
X158739684Y-103321717D01*
X158691500Y-103438044D01*
X158691500Y-103571875D01*
X158770625Y-103651000D01*
X159133000Y-103651000D01*
X159133000Y-103589500D01*
X159383000Y-103589500D01*
X159383000Y-103651000D01*
X159420501Y-103651000D01*
X159420501Y-103951000D01*
X159383000Y-103951000D01*
X159383000Y-104012500D01*
X159133000Y-104012500D01*
X159133000Y-103951000D01*
X158770625Y-103951000D01*
X158691500Y-104030125D01*
X158691500Y-104163956D01*
X158739684Y-104280283D01*
X158828717Y-104369316D01*
X158945044Y-104417500D01*
X159053875Y-104417500D01*
X159066498Y-104404877D01*
X159066498Y-104417500D01*
X159154560Y-104417500D01*
X158908581Y-104663479D01*
X156928691Y-104663479D01*
X156931173Y-104651000D01*
X156931173Y-104072125D01*
X157167500Y-104072125D01*
X157167500Y-104205956D01*
X157215684Y-104322283D01*
X157304717Y-104411316D01*
X157421044Y-104459500D01*
X157529875Y-104459500D01*
X157609000Y-104380375D01*
X157609000Y-103993000D01*
X157859000Y-103993000D01*
X157859000Y-104380375D01*
X157938125Y-104459500D01*
X158046956Y-104459500D01*
X158163283Y-104411316D01*
X158252316Y-104322283D01*
X158300500Y-104205956D01*
X158300500Y-104072125D01*
X158221375Y-103993000D01*
X157859000Y-103993000D01*
X157609000Y-103993000D01*
X157246625Y-103993000D01*
X157167500Y-104072125D01*
X156931173Y-104072125D01*
X156931173Y-103451000D01*
X156916621Y-103377841D01*
X156907500Y-103364190D01*
X156907500Y-103137810D01*
X156916621Y-103124159D01*
X156930278Y-103055500D01*
X157295313Y-103055500D01*
X157307379Y-103116159D01*
X157348820Y-103178180D01*
X157410841Y-103219621D01*
X157445425Y-103226500D01*
X157421044Y-103226500D01*
X157304717Y-103274684D01*
X157215684Y-103363717D01*
X157167500Y-103480044D01*
X157167500Y-103613875D01*
X157246625Y-103693000D01*
X157609000Y-103693000D01*
X157609000Y-103631500D01*
X157859000Y-103631500D01*
X157859000Y-103693000D01*
X158221375Y-103693000D01*
X158300500Y-103613875D01*
X158300500Y-103480044D01*
X158252316Y-103363717D01*
X158163283Y-103274684D01*
X158046956Y-103226500D01*
X158022575Y-103226500D01*
X158057159Y-103219621D01*
X158119180Y-103178180D01*
X158160621Y-103116159D01*
X158175173Y-103043000D01*
X158175173Y-102443000D01*
X158160621Y-102369841D01*
X158119180Y-102307820D01*
X158057159Y-102266379D01*
X157984000Y-102251827D01*
X157484000Y-102251827D01*
X157410841Y-102266379D01*
X157348820Y-102307820D01*
X157307379Y-102369841D01*
X157295313Y-102430500D01*
X156931173Y-102430500D01*
X156931173Y-102001769D01*
X156985471Y-101947471D01*
X157053213Y-101846088D01*
X157077000Y-101726500D01*
X157077000Y-101324942D01*
X157130529Y-101378471D01*
G36*
X143417500Y-102424500D02*
X144334500Y-102424500D01*
X144334500Y-102404500D01*
X144717500Y-102404500D01*
X144717500Y-102424500D01*
X144737500Y-102424500D01*
X144737500Y-102807500D01*
X144717500Y-102807500D01*
X144717500Y-103724500D01*
X144737500Y-103724500D01*
X144737500Y-104107500D01*
X144717500Y-104107500D01*
X144717500Y-104127500D01*
X144334500Y-104127500D01*
X144334500Y-104107500D01*
X143417500Y-104107500D01*
X143417500Y-104127500D01*
X143034500Y-104127500D01*
X143034500Y-104107500D01*
X143014500Y-104107500D01*
X143014500Y-103724500D01*
X143034500Y-103724500D01*
X143034500Y-102807500D01*
X143417500Y-102807500D01*
X143417500Y-103724500D01*
X144334500Y-103724500D01*
X144334500Y-102807500D01*
X143417500Y-102807500D01*
X143034500Y-102807500D01*
X143014500Y-102807500D01*
X143014500Y-102424500D01*
X143034500Y-102424500D01*
X143034500Y-102404500D01*
X143417500Y-102404500D01*
X143417500Y-102424500D01*
X143417500Y-102424500D01*
G37*
X143417500Y-102424500D02*
X144334500Y-102424500D01*
X144334500Y-102404500D01*
X144717500Y-102404500D01*
X144717500Y-102424500D01*
X144737500Y-102424500D01*
X144737500Y-102807500D01*
X144717500Y-102807500D01*
X144717500Y-103724500D01*
X144737500Y-103724500D01*
X144737500Y-104107500D01*
X144717500Y-104107500D01*
X144717500Y-104127500D01*
X144334500Y-104127500D01*
X144334500Y-104107500D01*
X143417500Y-104107500D01*
X143417500Y-104127500D01*
X143034500Y-104127500D01*
X143034500Y-104107500D01*
X143014500Y-104107500D01*
X143014500Y-103724500D01*
X143034500Y-103724500D01*
X143034500Y-102807500D01*
X143417500Y-102807500D01*
X143417500Y-103724500D01*
X144334500Y-103724500D01*
X144334500Y-102807500D01*
X143417500Y-102807500D01*
X143034500Y-102807500D01*
X143014500Y-102807500D01*
X143014500Y-102424500D01*
X143034500Y-102424500D01*
X143034500Y-102404500D01*
X143417500Y-102404500D01*
X143417500Y-102424500D01*
G36*
X139705000Y-97535940D02*
X139705000Y-98311500D01*
X139728788Y-98431089D01*
X139770930Y-98494159D01*
X139796529Y-98532471D01*
X140335827Y-99071769D01*
X140335827Y-99421000D01*
X140350379Y-99494159D01*
X140391820Y-99556180D01*
X140453841Y-99597621D01*
X140527000Y-99612173D01*
X141527000Y-99612173D01*
X141600159Y-99597621D01*
X141662180Y-99556180D01*
X141703621Y-99494159D01*
X141718173Y-99421000D01*
X141718173Y-98821000D01*
X141703621Y-98747841D01*
X141699737Y-98742028D01*
X141706283Y-98739316D01*
X141795316Y-98650283D01*
X141843500Y-98533956D01*
X141843500Y-98442125D01*
X142054500Y-98442125D01*
X142054500Y-98575956D01*
X142102684Y-98692283D01*
X142191717Y-98781316D01*
X142308044Y-98829500D01*
X142416875Y-98829500D01*
X142496000Y-98750375D01*
X142496000Y-98363000D01*
X142746000Y-98363000D01*
X142746000Y-98750375D01*
X142825125Y-98829500D01*
X142933956Y-98829500D01*
X143050283Y-98781316D01*
X143139316Y-98692283D01*
X143187500Y-98575956D01*
X143187500Y-98442125D01*
X143108375Y-98363000D01*
X142746000Y-98363000D01*
X142496000Y-98363000D01*
X142133625Y-98363000D01*
X142054500Y-98442125D01*
X141843500Y-98442125D01*
X141843500Y-98400125D01*
X141764375Y-98321000D01*
X141218500Y-98321000D01*
X141218500Y-98382500D01*
X140835500Y-98382500D01*
X140835500Y-98321000D01*
X140815500Y-98321000D01*
X140815500Y-98021000D01*
X140835500Y-98021000D01*
X140835500Y-97959500D01*
X141218500Y-97959500D01*
X141218500Y-98021000D01*
X141764375Y-98021000D01*
X141843500Y-97941875D01*
X141843500Y-97808044D01*
X141795316Y-97691717D01*
X141706283Y-97602684D01*
X141699737Y-97599972D01*
X141703621Y-97594159D01*
X141712305Y-97550500D01*
X142239292Y-97550500D01*
X142297841Y-97589621D01*
X142332425Y-97596500D01*
X142308044Y-97596500D01*
X142191717Y-97644684D01*
X142102684Y-97733717D01*
X142054500Y-97850044D01*
X142054500Y-97983875D01*
X142133625Y-98063000D01*
X142496000Y-98063000D01*
X142496000Y-98001500D01*
X142746000Y-98001500D01*
X142746000Y-98063000D01*
X143108375Y-98063000D01*
X143187500Y-97983875D01*
X143187500Y-97850044D01*
X143139316Y-97733717D01*
X143050283Y-97644684D01*
X142933956Y-97596500D01*
X142909575Y-97596500D01*
X142944159Y-97589621D01*
X143002708Y-97550500D01*
X144263480Y-97550500D01*
X144269379Y-97580159D01*
X144310820Y-97642180D01*
X144372841Y-97683621D01*
X144446000Y-97698173D01*
X144633783Y-97698173D01*
X144735455Y-97718397D01*
X144975500Y-97958442D01*
X144975500Y-98937126D01*
X144874958Y-99037493D01*
X144800585Y-99216605D01*
X144800415Y-99410544D01*
X144874476Y-99589786D01*
X144938080Y-99653501D01*
X144800999Y-99653501D01*
X144681411Y-99677288D01*
X144580028Y-99745030D01*
X143905029Y-100420029D01*
X143837288Y-100521411D01*
X143813500Y-100641000D01*
X143813500Y-100707286D01*
X143776000Y-100699827D01*
X143476000Y-100699827D01*
X143402841Y-100714379D01*
X143376000Y-100732314D01*
X143349159Y-100714379D01*
X143276000Y-100699827D01*
X142976000Y-100699827D01*
X142902841Y-100714379D01*
X142876000Y-100732314D01*
X142849159Y-100714379D01*
X142776000Y-100699827D01*
X142476000Y-100699827D01*
X142402841Y-100714379D01*
X142340820Y-100755820D01*
X142299379Y-100817841D01*
X142284827Y-100891000D01*
X142284827Y-101674827D01*
X141501000Y-101674827D01*
X141427841Y-101689379D01*
X141365820Y-101730820D01*
X141324379Y-101792841D01*
X141309827Y-101866000D01*
X141309827Y-102109574D01*
X141232684Y-102186717D01*
X141184500Y-102303044D01*
X141184500Y-102361875D01*
X141263625Y-102441000D01*
X141734500Y-102441000D01*
X141734500Y-102366000D01*
X142117500Y-102366000D01*
X142117500Y-102441000D01*
X142259500Y-102441000D01*
X142259500Y-102591000D01*
X142117500Y-102591000D01*
X142117500Y-102666000D01*
X141734500Y-102666000D01*
X141734500Y-102591000D01*
X141263625Y-102591000D01*
X141184500Y-102670125D01*
X141184500Y-102703500D01*
X140849440Y-102703500D01*
X140540969Y-102395029D01*
X140503272Y-102369841D01*
X140439587Y-102327288D01*
X140319998Y-102303500D01*
X139632374Y-102303500D01*
X139532007Y-102202958D01*
X139352895Y-102128585D01*
X139158956Y-102128415D01*
X139053777Y-102171874D01*
X139658328Y-101567323D01*
X139736908Y-101449719D01*
X139764501Y-101310997D01*
X139764501Y-98646001D01*
X139736907Y-98507278D01*
X139658327Y-98389675D01*
X138989500Y-97720848D01*
X138989500Y-97712173D01*
X139127000Y-97712173D01*
X139200159Y-97697621D01*
X139262180Y-97656180D01*
X139303621Y-97594159D01*
X139318173Y-97521000D01*
X139318173Y-97149113D01*
X139705000Y-97535940D01*
X139705000Y-97535940D01*
G37*
X139705000Y-97535940D02*
X139705000Y-98311500D01*
X139728788Y-98431089D01*
X139770930Y-98494159D01*
X139796529Y-98532471D01*
X140335827Y-99071769D01*
X140335827Y-99421000D01*
X140350379Y-99494159D01*
X140391820Y-99556180D01*
X140453841Y-99597621D01*
X140527000Y-99612173D01*
X141527000Y-99612173D01*
X141600159Y-99597621D01*
X141662180Y-99556180D01*
X141703621Y-99494159D01*
X141718173Y-99421000D01*
X141718173Y-98821000D01*
X141703621Y-98747841D01*
X141699737Y-98742028D01*
X141706283Y-98739316D01*
X141795316Y-98650283D01*
X141843500Y-98533956D01*
X141843500Y-98442125D01*
X142054500Y-98442125D01*
X142054500Y-98575956D01*
X142102684Y-98692283D01*
X142191717Y-98781316D01*
X142308044Y-98829500D01*
X142416875Y-98829500D01*
X142496000Y-98750375D01*
X142496000Y-98363000D01*
X142746000Y-98363000D01*
X142746000Y-98750375D01*
X142825125Y-98829500D01*
X142933956Y-98829500D01*
X143050283Y-98781316D01*
X143139316Y-98692283D01*
X143187500Y-98575956D01*
X143187500Y-98442125D01*
X143108375Y-98363000D01*
X142746000Y-98363000D01*
X142496000Y-98363000D01*
X142133625Y-98363000D01*
X142054500Y-98442125D01*
X141843500Y-98442125D01*
X141843500Y-98400125D01*
X141764375Y-98321000D01*
X141218500Y-98321000D01*
X141218500Y-98382500D01*
X140835500Y-98382500D01*
X140835500Y-98321000D01*
X140815500Y-98321000D01*
X140815500Y-98021000D01*
X140835500Y-98021000D01*
X140835500Y-97959500D01*
X141218500Y-97959500D01*
X141218500Y-98021000D01*
X141764375Y-98021000D01*
X141843500Y-97941875D01*
X141843500Y-97808044D01*
X141795316Y-97691717D01*
X141706283Y-97602684D01*
X141699737Y-97599972D01*
X141703621Y-97594159D01*
X141712305Y-97550500D01*
X142239292Y-97550500D01*
X142297841Y-97589621D01*
X142332425Y-97596500D01*
X142308044Y-97596500D01*
X142191717Y-97644684D01*
X142102684Y-97733717D01*
X142054500Y-97850044D01*
X142054500Y-97983875D01*
X142133625Y-98063000D01*
X142496000Y-98063000D01*
X142496000Y-98001500D01*
X142746000Y-98001500D01*
X142746000Y-98063000D01*
X143108375Y-98063000D01*
X143187500Y-97983875D01*
X143187500Y-97850044D01*
X143139316Y-97733717D01*
X143050283Y-97644684D01*
X142933956Y-97596500D01*
X142909575Y-97596500D01*
X142944159Y-97589621D01*
X143002708Y-97550500D01*
X144263480Y-97550500D01*
X144269379Y-97580159D01*
X144310820Y-97642180D01*
X144372841Y-97683621D01*
X144446000Y-97698173D01*
X144633783Y-97698173D01*
X144735455Y-97718397D01*
X144975500Y-97958442D01*
X144975500Y-98937126D01*
X144874958Y-99037493D01*
X144800585Y-99216605D01*
X144800415Y-99410544D01*
X144874476Y-99589786D01*
X144938080Y-99653501D01*
X144800999Y-99653501D01*
X144681411Y-99677288D01*
X144580028Y-99745030D01*
X143905029Y-100420029D01*
X143837288Y-100521411D01*
X143813500Y-100641000D01*
X143813500Y-100707286D01*
X143776000Y-100699827D01*
X143476000Y-100699827D01*
X143402841Y-100714379D01*
X143376000Y-100732314D01*
X143349159Y-100714379D01*
X143276000Y-100699827D01*
X142976000Y-100699827D01*
X142902841Y-100714379D01*
X142876000Y-100732314D01*
X142849159Y-100714379D01*
X142776000Y-100699827D01*
X142476000Y-100699827D01*
X142402841Y-100714379D01*
X142340820Y-100755820D01*
X142299379Y-100817841D01*
X142284827Y-100891000D01*
X142284827Y-101674827D01*
X141501000Y-101674827D01*
X141427841Y-101689379D01*
X141365820Y-101730820D01*
X141324379Y-101792841D01*
X141309827Y-101866000D01*
X141309827Y-102109574D01*
X141232684Y-102186717D01*
X141184500Y-102303044D01*
X141184500Y-102361875D01*
X141263625Y-102441000D01*
X141734500Y-102441000D01*
X141734500Y-102366000D01*
X142117500Y-102366000D01*
X142117500Y-102441000D01*
X142259500Y-102441000D01*
X142259500Y-102591000D01*
X142117500Y-102591000D01*
X142117500Y-102666000D01*
X141734500Y-102666000D01*
X141734500Y-102591000D01*
X141263625Y-102591000D01*
X141184500Y-102670125D01*
X141184500Y-102703500D01*
X140849440Y-102703500D01*
X140540969Y-102395029D01*
X140503272Y-102369841D01*
X140439587Y-102327288D01*
X140319998Y-102303500D01*
X139632374Y-102303500D01*
X139532007Y-102202958D01*
X139352895Y-102128585D01*
X139158956Y-102128415D01*
X139053777Y-102171874D01*
X139658328Y-101567323D01*
X139736908Y-101449719D01*
X139764501Y-101310997D01*
X139764501Y-98646001D01*
X139736907Y-98507278D01*
X139658327Y-98389675D01*
X138989500Y-97720848D01*
X138989500Y-97712173D01*
X139127000Y-97712173D01*
X139200159Y-97697621D01*
X139262180Y-97656180D01*
X139303621Y-97594159D01*
X139318173Y-97521000D01*
X139318173Y-97149113D01*
X139705000Y-97535940D01*
G36*
X157827000Y-100295500D02*
X157889500Y-100295500D01*
X157889500Y-100645500D01*
X157827000Y-100645500D01*
X157827000Y-100682000D01*
X157702000Y-100682000D01*
X157702000Y-100645500D01*
X157639500Y-100645500D01*
X157639500Y-100295500D01*
X157702000Y-100295500D01*
X157702000Y-100259000D01*
X157827000Y-100259000D01*
X157827000Y-100295500D01*
X157827000Y-100295500D01*
G37*
X157827000Y-100295500D02*
X157889500Y-100295500D01*
X157889500Y-100645500D01*
X157827000Y-100645500D01*
X157827000Y-100682000D01*
X157702000Y-100682000D01*
X157702000Y-100645500D01*
X157639500Y-100645500D01*
X157639500Y-100295500D01*
X157702000Y-100295500D01*
X157702000Y-100259000D01*
X157827000Y-100259000D01*
X157827000Y-100295500D01*
G36*
X155073327Y-99195500D02*
X155073327Y-99445500D01*
X155087879Y-99518659D01*
X155122518Y-99570500D01*
X155087879Y-99622341D01*
X155073327Y-99695500D01*
X155073327Y-99945500D01*
X155081784Y-99988017D01*
X155037395Y-99969585D01*
X154843456Y-99969415D01*
X154664214Y-100043476D01*
X154604132Y-100103454D01*
X154245708Y-99745030D01*
X154222783Y-99729712D01*
X154144326Y-99677289D01*
X154024737Y-99653501D01*
X152894173Y-99653501D01*
X152894173Y-99133000D01*
X155085759Y-99133000D01*
X155073327Y-99195500D01*
X155073327Y-99195500D01*
G37*
X155073327Y-99195500D02*
X155073327Y-99445500D01*
X155087879Y-99518659D01*
X155122518Y-99570500D01*
X155087879Y-99622341D01*
X155073327Y-99695500D01*
X155073327Y-99945500D01*
X155081784Y-99988017D01*
X155037395Y-99969585D01*
X154843456Y-99969415D01*
X154664214Y-100043476D01*
X154604132Y-100103454D01*
X154245708Y-99745030D01*
X154222783Y-99729712D01*
X154144326Y-99677289D01*
X154024737Y-99653501D01*
X152894173Y-99653501D01*
X152894173Y-99133000D01*
X155085759Y-99133000D01*
X155073327Y-99195500D01*
G36*
X147548028Y-95665970D02*
X147649410Y-95733711D01*
X147768999Y-95757499D01*
X147786124Y-95757499D01*
X147848625Y-95820000D01*
X148211000Y-95820000D01*
X148211000Y-95758500D01*
X148461000Y-95758500D01*
X148461000Y-95820000D01*
X148823375Y-95820000D01*
X148885876Y-95757499D01*
X149747569Y-95757499D01*
X149748040Y-95757970D01*
X149794500Y-95789014D01*
X149794500Y-95807875D01*
X149873625Y-95887000D01*
X150261000Y-95887000D01*
X150261000Y-95849499D01*
X150561000Y-95849499D01*
X150561000Y-95887000D01*
X150622500Y-95887000D01*
X150622500Y-96137000D01*
X150561000Y-96137000D01*
X150561000Y-96499375D01*
X150640125Y-96578500D01*
X150773956Y-96578500D01*
X150890283Y-96530316D01*
X150979316Y-96441283D01*
X151027500Y-96324956D01*
X151027500Y-96300575D01*
X151034379Y-96335159D01*
X151075820Y-96397180D01*
X151137841Y-96438621D01*
X151211000Y-96453173D01*
X151811000Y-96453173D01*
X151884159Y-96438621D01*
X151946180Y-96397180D01*
X151987621Y-96335159D01*
X151989741Y-96324500D01*
X152184558Y-96324500D01*
X151982029Y-96527029D01*
X151914288Y-96628411D01*
X151890500Y-96748000D01*
X151890500Y-96983827D01*
X151703000Y-96983827D01*
X151629841Y-96998379D01*
X151571292Y-97037500D01*
X151191000Y-97037500D01*
X151135677Y-97048505D01*
X151033456Y-97048415D01*
X150854214Y-97122476D01*
X150716958Y-97259493D01*
X150642585Y-97438605D01*
X150642415Y-97632544D01*
X150692500Y-97753759D01*
X150692500Y-98080395D01*
X150642585Y-98200605D01*
X150642415Y-98394544D01*
X150716476Y-98573786D01*
X150853493Y-98711042D01*
X151032605Y-98785415D01*
X151226544Y-98785585D01*
X151405786Y-98711524D01*
X151514445Y-98603054D01*
X151514405Y-98648544D01*
X151588466Y-98827786D01*
X151654116Y-98893550D01*
X151629841Y-98898379D01*
X151567820Y-98939820D01*
X151526379Y-99001841D01*
X151511827Y-99075000D01*
X151511827Y-99653501D01*
X150494173Y-99653501D01*
X150494173Y-99075000D01*
X150479621Y-99001841D01*
X150475737Y-98996028D01*
X150482283Y-98993316D01*
X150571316Y-98904283D01*
X150619500Y-98787956D01*
X150619500Y-98654125D01*
X150540375Y-98575000D01*
X149994500Y-98575000D01*
X149994500Y-98636500D01*
X149611500Y-98636500D01*
X149611500Y-98575000D01*
X149065625Y-98575000D01*
X148986500Y-98654125D01*
X148986500Y-98787956D01*
X149034684Y-98904283D01*
X149123717Y-98993316D01*
X149130263Y-98996028D01*
X149126379Y-99001841D01*
X149114313Y-99062500D01*
X148778052Y-99062500D01*
X148740180Y-99005820D01*
X148678159Y-98964379D01*
X148605000Y-98949827D01*
X148205000Y-98949827D01*
X148131841Y-98964379D01*
X148069820Y-99005820D01*
X148028379Y-99067841D01*
X148013827Y-99141000D01*
X148013827Y-99653501D01*
X147896173Y-99653501D01*
X147896173Y-99141000D01*
X147881621Y-99067841D01*
X147840180Y-99005820D01*
X147817500Y-98990666D01*
X147817500Y-97719500D01*
X149111827Y-97719500D01*
X149111827Y-97775000D01*
X149126379Y-97848159D01*
X149130263Y-97853972D01*
X149123717Y-97856684D01*
X149034684Y-97945717D01*
X148986500Y-98062044D01*
X148986500Y-98195875D01*
X149065625Y-98275000D01*
X149611500Y-98275000D01*
X149611500Y-98213500D01*
X149994500Y-98213500D01*
X149994500Y-98275000D01*
X150540375Y-98275000D01*
X150619500Y-98195875D01*
X150619500Y-98062044D01*
X150571316Y-97945717D01*
X150482283Y-97856684D01*
X150475737Y-97853972D01*
X150479621Y-97848159D01*
X150494173Y-97775000D01*
X150494173Y-97175000D01*
X150479621Y-97101841D01*
X150438180Y-97039820D01*
X150376159Y-96998379D01*
X150303000Y-96983827D01*
X149930545Y-96983827D01*
X149919359Y-96972641D01*
X149777424Y-96877803D01*
X149610000Y-96844500D01*
X148777173Y-96844500D01*
X148777173Y-96770000D01*
X148762621Y-96696841D01*
X148721180Y-96634820D01*
X148659159Y-96593379D01*
X148624575Y-96586500D01*
X148648956Y-96586500D01*
X148765283Y-96538316D01*
X148854316Y-96449283D01*
X148902500Y-96332956D01*
X148902500Y-96216125D01*
X149794500Y-96216125D01*
X149794500Y-96324956D01*
X149842684Y-96441283D01*
X149931717Y-96530316D01*
X150048044Y-96578500D01*
X150181875Y-96578500D01*
X150261000Y-96499375D01*
X150261000Y-96137000D01*
X149873625Y-96137000D01*
X149794500Y-96216125D01*
X148902500Y-96216125D01*
X148902500Y-96199125D01*
X148823375Y-96120000D01*
X148461000Y-96120000D01*
X148461000Y-96181500D01*
X148211000Y-96181500D01*
X148211000Y-96120000D01*
X147848625Y-96120000D01*
X147769500Y-96199125D01*
X147769500Y-96332956D01*
X147817684Y-96449283D01*
X147906717Y-96538316D01*
X148023044Y-96586500D01*
X148047425Y-96586500D01*
X148012841Y-96593379D01*
X147950820Y-96634820D01*
X147909379Y-96696841D01*
X147894827Y-96770000D01*
X147894827Y-96844500D01*
X147288500Y-96844500D01*
X147288500Y-95406442D01*
X147548028Y-95665970D01*
X147548028Y-95665970D01*
G37*
X147548028Y-95665970D02*
X147649410Y-95733711D01*
X147768999Y-95757499D01*
X147786124Y-95757499D01*
X147848625Y-95820000D01*
X148211000Y-95820000D01*
X148211000Y-95758500D01*
X148461000Y-95758500D01*
X148461000Y-95820000D01*
X148823375Y-95820000D01*
X148885876Y-95757499D01*
X149747569Y-95757499D01*
X149748040Y-95757970D01*
X149794500Y-95789014D01*
X149794500Y-95807875D01*
X149873625Y-95887000D01*
X150261000Y-95887000D01*
X150261000Y-95849499D01*
X150561000Y-95849499D01*
X150561000Y-95887000D01*
X150622500Y-95887000D01*
X150622500Y-96137000D01*
X150561000Y-96137000D01*
X150561000Y-96499375D01*
X150640125Y-96578500D01*
X150773956Y-96578500D01*
X150890283Y-96530316D01*
X150979316Y-96441283D01*
X151027500Y-96324956D01*
X151027500Y-96300575D01*
X151034379Y-96335159D01*
X151075820Y-96397180D01*
X151137841Y-96438621D01*
X151211000Y-96453173D01*
X151811000Y-96453173D01*
X151884159Y-96438621D01*
X151946180Y-96397180D01*
X151987621Y-96335159D01*
X151989741Y-96324500D01*
X152184558Y-96324500D01*
X151982029Y-96527029D01*
X151914288Y-96628411D01*
X151890500Y-96748000D01*
X151890500Y-96983827D01*
X151703000Y-96983827D01*
X151629841Y-96998379D01*
X151571292Y-97037500D01*
X151191000Y-97037500D01*
X151135677Y-97048505D01*
X151033456Y-97048415D01*
X150854214Y-97122476D01*
X150716958Y-97259493D01*
X150642585Y-97438605D01*
X150642415Y-97632544D01*
X150692500Y-97753759D01*
X150692500Y-98080395D01*
X150642585Y-98200605D01*
X150642415Y-98394544D01*
X150716476Y-98573786D01*
X150853493Y-98711042D01*
X151032605Y-98785415D01*
X151226544Y-98785585D01*
X151405786Y-98711524D01*
X151514445Y-98603054D01*
X151514405Y-98648544D01*
X151588466Y-98827786D01*
X151654116Y-98893550D01*
X151629841Y-98898379D01*
X151567820Y-98939820D01*
X151526379Y-99001841D01*
X151511827Y-99075000D01*
X151511827Y-99653501D01*
X150494173Y-99653501D01*
X150494173Y-99075000D01*
X150479621Y-99001841D01*
X150475737Y-98996028D01*
X150482283Y-98993316D01*
X150571316Y-98904283D01*
X150619500Y-98787956D01*
X150619500Y-98654125D01*
X150540375Y-98575000D01*
X149994500Y-98575000D01*
X149994500Y-98636500D01*
X149611500Y-98636500D01*
X149611500Y-98575000D01*
X149065625Y-98575000D01*
X148986500Y-98654125D01*
X148986500Y-98787956D01*
X149034684Y-98904283D01*
X149123717Y-98993316D01*
X149130263Y-98996028D01*
X149126379Y-99001841D01*
X149114313Y-99062500D01*
X148778052Y-99062500D01*
X148740180Y-99005820D01*
X148678159Y-98964379D01*
X148605000Y-98949827D01*
X148205000Y-98949827D01*
X148131841Y-98964379D01*
X148069820Y-99005820D01*
X148028379Y-99067841D01*
X148013827Y-99141000D01*
X148013827Y-99653501D01*
X147896173Y-99653501D01*
X147896173Y-99141000D01*
X147881621Y-99067841D01*
X147840180Y-99005820D01*
X147817500Y-98990666D01*
X147817500Y-97719500D01*
X149111827Y-97719500D01*
X149111827Y-97775000D01*
X149126379Y-97848159D01*
X149130263Y-97853972D01*
X149123717Y-97856684D01*
X149034684Y-97945717D01*
X148986500Y-98062044D01*
X148986500Y-98195875D01*
X149065625Y-98275000D01*
X149611500Y-98275000D01*
X149611500Y-98213500D01*
X149994500Y-98213500D01*
X149994500Y-98275000D01*
X150540375Y-98275000D01*
X150619500Y-98195875D01*
X150619500Y-98062044D01*
X150571316Y-97945717D01*
X150482283Y-97856684D01*
X150475737Y-97853972D01*
X150479621Y-97848159D01*
X150494173Y-97775000D01*
X150494173Y-97175000D01*
X150479621Y-97101841D01*
X150438180Y-97039820D01*
X150376159Y-96998379D01*
X150303000Y-96983827D01*
X149930545Y-96983827D01*
X149919359Y-96972641D01*
X149777424Y-96877803D01*
X149610000Y-96844500D01*
X148777173Y-96844500D01*
X148777173Y-96770000D01*
X148762621Y-96696841D01*
X148721180Y-96634820D01*
X148659159Y-96593379D01*
X148624575Y-96586500D01*
X148648956Y-96586500D01*
X148765283Y-96538316D01*
X148854316Y-96449283D01*
X148902500Y-96332956D01*
X148902500Y-96216125D01*
X149794500Y-96216125D01*
X149794500Y-96324956D01*
X149842684Y-96441283D01*
X149931717Y-96530316D01*
X150048044Y-96578500D01*
X150181875Y-96578500D01*
X150261000Y-96499375D01*
X150261000Y-96137000D01*
X149873625Y-96137000D01*
X149794500Y-96216125D01*
X148902500Y-96216125D01*
X148902500Y-96199125D01*
X148823375Y-96120000D01*
X148461000Y-96120000D01*
X148461000Y-96181500D01*
X148211000Y-96181500D01*
X148211000Y-96120000D01*
X147848625Y-96120000D01*
X147769500Y-96199125D01*
X147769500Y-96332956D01*
X147817684Y-96449283D01*
X147906717Y-96538316D01*
X148023044Y-96586500D01*
X148047425Y-96586500D01*
X148012841Y-96593379D01*
X147950820Y-96634820D01*
X147909379Y-96696841D01*
X147894827Y-96770000D01*
X147894827Y-96844500D01*
X147288500Y-96844500D01*
X147288500Y-95406442D01*
X147548028Y-95665970D01*
G36*
X157343500Y-97016500D02*
X158685500Y-97016500D01*
X158685500Y-96996500D01*
X159068500Y-96996500D01*
X159068500Y-97016500D01*
X159088500Y-97016500D01*
X159088500Y-97399500D01*
X159068500Y-97399500D01*
X159068500Y-98741500D01*
X159088500Y-98741500D01*
X159088500Y-99124500D01*
X159068500Y-99124500D01*
X159068500Y-99144500D01*
X158685500Y-99144500D01*
X158685500Y-99124500D01*
X157343500Y-99124500D01*
X157343500Y-99144500D01*
X156960500Y-99144500D01*
X156960500Y-99124500D01*
X156940500Y-99124500D01*
X156940500Y-98741500D01*
X156960500Y-98741500D01*
X156960500Y-97399500D01*
X157343500Y-97399500D01*
X157343500Y-98741500D01*
X158685500Y-98741500D01*
X158685500Y-97399500D01*
X157343500Y-97399500D01*
X156960500Y-97399500D01*
X156940500Y-97399500D01*
X156940500Y-97016500D01*
X156960500Y-97016500D01*
X156960500Y-96996500D01*
X157343500Y-96996500D01*
X157343500Y-97016500D01*
X157343500Y-97016500D01*
G37*
X157343500Y-97016500D02*
X158685500Y-97016500D01*
X158685500Y-96996500D01*
X159068500Y-96996500D01*
X159068500Y-97016500D01*
X159088500Y-97016500D01*
X159088500Y-97399500D01*
X159068500Y-97399500D01*
X159068500Y-98741500D01*
X159088500Y-98741500D01*
X159088500Y-99124500D01*
X159068500Y-99124500D01*
X159068500Y-99144500D01*
X158685500Y-99144500D01*
X158685500Y-99124500D01*
X157343500Y-99124500D01*
X157343500Y-99144500D01*
X156960500Y-99144500D01*
X156960500Y-99124500D01*
X156940500Y-99124500D01*
X156940500Y-98741500D01*
X156960500Y-98741500D01*
X156960500Y-97399500D01*
X157343500Y-97399500D01*
X157343500Y-98741500D01*
X158685500Y-98741500D01*
X158685500Y-97399500D01*
X157343500Y-97399500D01*
X156960500Y-97399500D01*
X156940500Y-97399500D01*
X156940500Y-97016500D01*
X156960500Y-97016500D01*
X156960500Y-96996500D01*
X157343500Y-96996500D01*
X157343500Y-97016500D01*
G36*
X152898287Y-96738590D02*
X152925480Y-96779287D01*
X152966028Y-96839972D01*
X153167527Y-97041471D01*
X153268910Y-97109213D01*
X153388498Y-97133000D01*
X155085759Y-97133000D01*
X155073327Y-97195500D01*
X155073327Y-97445500D01*
X155087879Y-97518659D01*
X155122518Y-97570500D01*
X155087879Y-97622341D01*
X155073327Y-97695500D01*
X155073327Y-97945500D01*
X155087879Y-98018659D01*
X155122518Y-98070500D01*
X155087879Y-98122341D01*
X155073327Y-98195500D01*
X155073327Y-98445500D01*
X155085759Y-98508000D01*
X152824196Y-98508000D01*
X152647225Y-98331029D01*
X152631467Y-98320500D01*
X152545843Y-98263288D01*
X152426254Y-98239500D01*
X152378864Y-98239500D01*
X152278497Y-98138958D01*
X152099385Y-98064585D01*
X151905446Y-98064415D01*
X151726204Y-98138476D01*
X151617545Y-98246946D01*
X151617585Y-98201456D01*
X151567500Y-98080241D01*
X151567500Y-97912500D01*
X151571292Y-97912500D01*
X151629841Y-97951621D01*
X151703000Y-97966173D01*
X152703000Y-97966173D01*
X152776159Y-97951621D01*
X152838180Y-97910180D01*
X152879621Y-97848159D01*
X152894173Y-97775000D01*
X152894173Y-97175000D01*
X152879621Y-97101841D01*
X152838180Y-97039820D01*
X152776159Y-96998379D01*
X152703000Y-96983827D01*
X152515500Y-96983827D01*
X152515500Y-96877442D01*
X152762769Y-96630173D01*
X152876721Y-96630173D01*
X152898287Y-96738590D01*
X152898287Y-96738590D01*
G37*
X152898287Y-96738590D02*
X152925480Y-96779287D01*
X152966028Y-96839972D01*
X153167527Y-97041471D01*
X153268910Y-97109213D01*
X153388498Y-97133000D01*
X155085759Y-97133000D01*
X155073327Y-97195500D01*
X155073327Y-97445500D01*
X155087879Y-97518659D01*
X155122518Y-97570500D01*
X155087879Y-97622341D01*
X155073327Y-97695500D01*
X155073327Y-97945500D01*
X155087879Y-98018659D01*
X155122518Y-98070500D01*
X155087879Y-98122341D01*
X155073327Y-98195500D01*
X155073327Y-98445500D01*
X155085759Y-98508000D01*
X152824196Y-98508000D01*
X152647225Y-98331029D01*
X152631467Y-98320500D01*
X152545843Y-98263288D01*
X152426254Y-98239500D01*
X152378864Y-98239500D01*
X152278497Y-98138958D01*
X152099385Y-98064585D01*
X151905446Y-98064415D01*
X151726204Y-98138476D01*
X151617545Y-98246946D01*
X151617585Y-98201456D01*
X151567500Y-98080241D01*
X151567500Y-97912500D01*
X151571292Y-97912500D01*
X151629841Y-97951621D01*
X151703000Y-97966173D01*
X152703000Y-97966173D01*
X152776159Y-97951621D01*
X152838180Y-97910180D01*
X152879621Y-97848159D01*
X152894173Y-97775000D01*
X152894173Y-97175000D01*
X152879621Y-97101841D01*
X152838180Y-97039820D01*
X152776159Y-96998379D01*
X152703000Y-96983827D01*
X152515500Y-96983827D01*
X152515500Y-96877442D01*
X152762769Y-96630173D01*
X152876721Y-96630173D01*
X152898287Y-96738590D01*
G36*
X140677500Y-92305044D02*
X140677500Y-93847375D01*
X140756625Y-93926500D01*
X141302500Y-93926500D01*
X141302500Y-93906500D01*
X141685500Y-93906500D01*
X141685500Y-93926500D01*
X142231375Y-93926500D01*
X142310500Y-93847375D01*
X142310500Y-92305044D01*
X142264918Y-92195000D01*
X142915422Y-92195000D01*
X142858820Y-92232820D01*
X142817379Y-92294841D01*
X142802827Y-92368000D01*
X142802827Y-95868000D01*
X142817379Y-95941159D01*
X142858820Y-96003180D01*
X142920841Y-96044621D01*
X142994000Y-96059173D01*
X143056500Y-96059173D01*
X143056500Y-96675500D01*
X143002708Y-96675500D01*
X142944159Y-96636379D01*
X142871000Y-96621827D01*
X142371000Y-96621827D01*
X142297841Y-96636379D01*
X142239292Y-96675500D01*
X141135000Y-96675500D01*
X140967576Y-96708803D01*
X140936111Y-96729827D01*
X140527000Y-96729827D01*
X140453841Y-96744379D01*
X140391820Y-96785820D01*
X140350379Y-96847841D01*
X140335827Y-96921000D01*
X140335827Y-97521000D01*
X140350379Y-97594159D01*
X140354263Y-97599972D01*
X140347717Y-97602684D01*
X140330000Y-97620401D01*
X140330000Y-97406498D01*
X140306212Y-97286909D01*
X140238471Y-97185527D01*
X137721550Y-94668606D01*
X137814217Y-94650173D01*
X138002000Y-94650173D01*
X138075159Y-94635621D01*
X138137180Y-94594180D01*
X138178621Y-94532159D01*
X138193173Y-94459000D01*
X138193173Y-94388625D01*
X140677500Y-94388625D01*
X140677500Y-95930956D01*
X140725684Y-96047283D01*
X140814717Y-96136316D01*
X140931044Y-96184500D01*
X141223375Y-96184500D01*
X141302500Y-96105375D01*
X141302500Y-94309500D01*
X141685500Y-94309500D01*
X141685500Y-96105375D01*
X141764625Y-96184500D01*
X142056956Y-96184500D01*
X142173283Y-96136316D01*
X142262316Y-96047283D01*
X142310500Y-95930956D01*
X142310500Y-94388625D01*
X142231375Y-94309500D01*
X141685500Y-94309500D01*
X141302500Y-94309500D01*
X140756625Y-94309500D01*
X140677500Y-94388625D01*
X138193173Y-94388625D01*
X138193173Y-94009000D01*
X138178621Y-93935841D01*
X138144500Y-93884775D01*
X138144500Y-92449000D01*
X138239500Y-92449000D01*
X138406924Y-92415697D01*
X138548859Y-92320859D01*
X138674718Y-92195000D01*
X140723082Y-92195000D01*
X140677500Y-92305044D01*
X140677500Y-92305044D01*
G37*
X140677500Y-92305044D02*
X140677500Y-93847375D01*
X140756625Y-93926500D01*
X141302500Y-93926500D01*
X141302500Y-93906500D01*
X141685500Y-93906500D01*
X141685500Y-93926500D01*
X142231375Y-93926500D01*
X142310500Y-93847375D01*
X142310500Y-92305044D01*
X142264918Y-92195000D01*
X142915422Y-92195000D01*
X142858820Y-92232820D01*
X142817379Y-92294841D01*
X142802827Y-92368000D01*
X142802827Y-95868000D01*
X142817379Y-95941159D01*
X142858820Y-96003180D01*
X142920841Y-96044621D01*
X142994000Y-96059173D01*
X143056500Y-96059173D01*
X143056500Y-96675500D01*
X143002708Y-96675500D01*
X142944159Y-96636379D01*
X142871000Y-96621827D01*
X142371000Y-96621827D01*
X142297841Y-96636379D01*
X142239292Y-96675500D01*
X141135000Y-96675500D01*
X140967576Y-96708803D01*
X140936111Y-96729827D01*
X140527000Y-96729827D01*
X140453841Y-96744379D01*
X140391820Y-96785820D01*
X140350379Y-96847841D01*
X140335827Y-96921000D01*
X140335827Y-97521000D01*
X140350379Y-97594159D01*
X140354263Y-97599972D01*
X140347717Y-97602684D01*
X140330000Y-97620401D01*
X140330000Y-97406498D01*
X140306212Y-97286909D01*
X140238471Y-97185527D01*
X137721550Y-94668606D01*
X137814217Y-94650173D01*
X138002000Y-94650173D01*
X138075159Y-94635621D01*
X138137180Y-94594180D01*
X138178621Y-94532159D01*
X138193173Y-94459000D01*
X138193173Y-94388625D01*
X140677500Y-94388625D01*
X140677500Y-95930956D01*
X140725684Y-96047283D01*
X140814717Y-96136316D01*
X140931044Y-96184500D01*
X141223375Y-96184500D01*
X141302500Y-96105375D01*
X141302500Y-94309500D01*
X141685500Y-94309500D01*
X141685500Y-96105375D01*
X141764625Y-96184500D01*
X142056956Y-96184500D01*
X142173283Y-96136316D01*
X142262316Y-96047283D01*
X142310500Y-95930956D01*
X142310500Y-94388625D01*
X142231375Y-94309500D01*
X141685500Y-94309500D01*
X141302500Y-94309500D01*
X140756625Y-94309500D01*
X140677500Y-94388625D01*
X138193173Y-94388625D01*
X138193173Y-94009000D01*
X138178621Y-93935841D01*
X138144500Y-93884775D01*
X138144500Y-92449000D01*
X138239500Y-92449000D01*
X138406924Y-92415697D01*
X138548859Y-92320859D01*
X138674718Y-92195000D01*
X140723082Y-92195000D01*
X140677500Y-92305044D01*
G36*
X148137625Y-91569000D02*
X148525000Y-91569000D01*
X148525000Y-91531499D01*
X148825000Y-91531499D01*
X148825000Y-91569000D01*
X148886500Y-91569000D01*
X148886500Y-91819000D01*
X148825000Y-91819000D01*
X148825000Y-92181375D01*
X148904125Y-92260500D01*
X149037956Y-92260500D01*
X149154283Y-92212316D01*
X149243316Y-92123283D01*
X149291500Y-92006956D01*
X149291500Y-91982575D01*
X149298379Y-92017159D01*
X149339820Y-92079180D01*
X149401841Y-92120621D01*
X149462500Y-92132687D01*
X149462500Y-92722827D01*
X148592675Y-92722827D01*
X148589316Y-92714717D01*
X148500283Y-92625684D01*
X148383956Y-92577500D01*
X148275125Y-92577500D01*
X148196000Y-92656625D01*
X148196000Y-92969000D01*
X148249827Y-92969000D01*
X148249827Y-93102798D01*
X148233625Y-93119000D01*
X148196000Y-93119000D01*
X148196000Y-93469000D01*
X148233625Y-93469000D01*
X148249827Y-93485202D01*
X148249827Y-93602798D01*
X148233625Y-93619000D01*
X148196000Y-93619000D01*
X148196000Y-93969000D01*
X148233625Y-93969000D01*
X148249827Y-93985202D01*
X148249827Y-94102798D01*
X148233625Y-94119000D01*
X148196000Y-94119000D01*
X148196000Y-94469000D01*
X148233625Y-94469000D01*
X148249827Y-94485202D01*
X148249827Y-94619000D01*
X148196000Y-94619000D01*
X148196000Y-94931375D01*
X148275125Y-95010500D01*
X148383956Y-95010500D01*
X148500283Y-94962316D01*
X148589316Y-94873283D01*
X148592675Y-94865173D01*
X149501000Y-94865173D01*
X149530813Y-94859243D01*
X149547841Y-94870621D01*
X149558500Y-94872741D01*
X149558500Y-94944000D01*
X149582288Y-95063589D01*
X149621048Y-95121598D01*
X149628332Y-95132499D01*
X147898441Y-95132499D01*
X147776442Y-95010500D01*
X147866875Y-95010500D01*
X147946000Y-94931375D01*
X147946000Y-94619000D01*
X147859500Y-94619000D01*
X147859500Y-94510500D01*
X147866875Y-94510500D01*
X147908375Y-94469000D01*
X147946000Y-94469000D01*
X147946000Y-94119000D01*
X147908375Y-94119000D01*
X147866875Y-94077500D01*
X147859500Y-94077500D01*
X147859500Y-94010500D01*
X147866875Y-94010500D01*
X147908375Y-93969000D01*
X147946000Y-93969000D01*
X147946000Y-93619000D01*
X147908375Y-93619000D01*
X147866875Y-93577500D01*
X147758044Y-93577500D01*
X147657854Y-93619000D01*
X147583625Y-93619000D01*
X147554033Y-93648592D01*
X147546981Y-93638039D01*
X147107067Y-93198125D01*
X147504500Y-93198125D01*
X147504500Y-93256956D01*
X147519844Y-93294000D01*
X147504500Y-93331044D01*
X147504500Y-93389875D01*
X147583625Y-93469000D01*
X147657854Y-93469000D01*
X147758044Y-93510500D01*
X147866875Y-93510500D01*
X147908375Y-93469000D01*
X147946000Y-93469000D01*
X147946000Y-93119000D01*
X147908375Y-93119000D01*
X147866875Y-93077500D01*
X147758044Y-93077500D01*
X147657854Y-93119000D01*
X147583625Y-93119000D01*
X147504500Y-93198125D01*
X147107067Y-93198125D01*
X146997500Y-93088558D01*
X146997500Y-92831044D01*
X147504500Y-92831044D01*
X147504500Y-92889875D01*
X147583625Y-92969000D01*
X147946000Y-92969000D01*
X147946000Y-92656625D01*
X147866875Y-92577500D01*
X147758044Y-92577500D01*
X147641717Y-92625684D01*
X147552684Y-92714717D01*
X147504500Y-92831044D01*
X146997500Y-92831044D01*
X146997500Y-92458442D01*
X147557817Y-91898125D01*
X148058500Y-91898125D01*
X148058500Y-92006956D01*
X148106684Y-92123283D01*
X148195717Y-92212316D01*
X148312044Y-92260500D01*
X148445875Y-92260500D01*
X148525000Y-92181375D01*
X148525000Y-91819000D01*
X148137625Y-91819000D01*
X148058500Y-91898125D01*
X147557817Y-91898125D01*
X147924443Y-91531499D01*
X148100124Y-91531499D01*
X148137625Y-91569000D01*
X148137625Y-91569000D01*
G37*
X148137625Y-91569000D02*
X148525000Y-91569000D01*
X148525000Y-91531499D01*
X148825000Y-91531499D01*
X148825000Y-91569000D01*
X148886500Y-91569000D01*
X148886500Y-91819000D01*
X148825000Y-91819000D01*
X148825000Y-92181375D01*
X148904125Y-92260500D01*
X149037956Y-92260500D01*
X149154283Y-92212316D01*
X149243316Y-92123283D01*
X149291500Y-92006956D01*
X149291500Y-91982575D01*
X149298379Y-92017159D01*
X149339820Y-92079180D01*
X149401841Y-92120621D01*
X149462500Y-92132687D01*
X149462500Y-92722827D01*
X148592675Y-92722827D01*
X148589316Y-92714717D01*
X148500283Y-92625684D01*
X148383956Y-92577500D01*
X148275125Y-92577500D01*
X148196000Y-92656625D01*
X148196000Y-92969000D01*
X148249827Y-92969000D01*
X148249827Y-93102798D01*
X148233625Y-93119000D01*
X148196000Y-93119000D01*
X148196000Y-93469000D01*
X148233625Y-93469000D01*
X148249827Y-93485202D01*
X148249827Y-93602798D01*
X148233625Y-93619000D01*
X148196000Y-93619000D01*
X148196000Y-93969000D01*
X148233625Y-93969000D01*
X148249827Y-93985202D01*
X148249827Y-94102798D01*
X148233625Y-94119000D01*
X148196000Y-94119000D01*
X148196000Y-94469000D01*
X148233625Y-94469000D01*
X148249827Y-94485202D01*
X148249827Y-94619000D01*
X148196000Y-94619000D01*
X148196000Y-94931375D01*
X148275125Y-95010500D01*
X148383956Y-95010500D01*
X148500283Y-94962316D01*
X148589316Y-94873283D01*
X148592675Y-94865173D01*
X149501000Y-94865173D01*
X149530813Y-94859243D01*
X149547841Y-94870621D01*
X149558500Y-94872741D01*
X149558500Y-94944000D01*
X149582288Y-95063589D01*
X149621048Y-95121598D01*
X149628332Y-95132499D01*
X147898441Y-95132499D01*
X147776442Y-95010500D01*
X147866875Y-95010500D01*
X147946000Y-94931375D01*
X147946000Y-94619000D01*
X147859500Y-94619000D01*
X147859500Y-94510500D01*
X147866875Y-94510500D01*
X147908375Y-94469000D01*
X147946000Y-94469000D01*
X147946000Y-94119000D01*
X147908375Y-94119000D01*
X147866875Y-94077500D01*
X147859500Y-94077500D01*
X147859500Y-94010500D01*
X147866875Y-94010500D01*
X147908375Y-93969000D01*
X147946000Y-93969000D01*
X147946000Y-93619000D01*
X147908375Y-93619000D01*
X147866875Y-93577500D01*
X147758044Y-93577500D01*
X147657854Y-93619000D01*
X147583625Y-93619000D01*
X147554033Y-93648592D01*
X147546981Y-93638039D01*
X147107067Y-93198125D01*
X147504500Y-93198125D01*
X147504500Y-93256956D01*
X147519844Y-93294000D01*
X147504500Y-93331044D01*
X147504500Y-93389875D01*
X147583625Y-93469000D01*
X147657854Y-93469000D01*
X147758044Y-93510500D01*
X147866875Y-93510500D01*
X147908375Y-93469000D01*
X147946000Y-93469000D01*
X147946000Y-93119000D01*
X147908375Y-93119000D01*
X147866875Y-93077500D01*
X147758044Y-93077500D01*
X147657854Y-93119000D01*
X147583625Y-93119000D01*
X147504500Y-93198125D01*
X147107067Y-93198125D01*
X146997500Y-93088558D01*
X146997500Y-92831044D01*
X147504500Y-92831044D01*
X147504500Y-92889875D01*
X147583625Y-92969000D01*
X147946000Y-92969000D01*
X147946000Y-92656625D01*
X147866875Y-92577500D01*
X147758044Y-92577500D01*
X147641717Y-92625684D01*
X147552684Y-92714717D01*
X147504500Y-92831044D01*
X146997500Y-92831044D01*
X146997500Y-92458442D01*
X147557817Y-91898125D01*
X148058500Y-91898125D01*
X148058500Y-92006956D01*
X148106684Y-92123283D01*
X148195717Y-92212316D01*
X148312044Y-92260500D01*
X148445875Y-92260500D01*
X148525000Y-92181375D01*
X148525000Y-91819000D01*
X148137625Y-91819000D01*
X148058500Y-91898125D01*
X147557817Y-91898125D01*
X147924443Y-91531499D01*
X148100124Y-91531499D01*
X148137625Y-91569000D01*
M02*
