G04 #@! TF.FileFunction,Soldermask,Top*
%FSLAX46Y46*%
G04 Gerber Fmt 4.6, Leading zero omitted, Abs format (unit mm)*
G04 Created by KiCad (PCBNEW 0.201512051502+6347~38~ubuntu15.10.1-stable) date Sun 06 Dec 2015 10:28:51 PM EST*
%MOMM*%
G01*
G04 APERTURE LIST*
%ADD10C,0.100000*%
%ADD11R,1.100000X3.600000*%
%ADD12R,1.800000X3.500000*%
%ADD13R,0.750000X1.150000*%
%ADD14R,0.700000X0.600000*%
%ADD15R,0.600000X0.700000*%
%ADD16R,0.897560X0.897560*%
%ADD17R,0.690000X0.550000*%
%ADD18R,0.500000X0.700000*%
%ADD19R,1.100000X0.700000*%
%ADD20R,0.800000X1.100000*%
%ADD21R,0.800000X0.700000*%
%ADD22R,0.950000X0.400000*%
%ADD23R,0.400000X0.950000*%
%ADD24R,1.400000X1.400000*%
%ADD25R,0.350000X0.800000*%
%ADD26R,0.800000X0.350000*%
%ADD27R,1.825000X1.825000*%
%ADD28R,1.150000X1.150000*%
%ADD29C,1.150000*%
%ADD30R,2.132000X2.132000*%
%ADD31O,2.132000X2.132000*%
%ADD32R,0.700000X0.500000*%
%ADD33R,1.500000X1.300000*%
%ADD34C,1.350000*%
%ADD35C,3.900000*%
%ADD36R,1.450000X0.500000*%
%ADD37R,2.100000X2.200000*%
%ADD38R,2.000000X1.700000*%
%ADD39R,2.000000X1.300000*%
G04 APERTURE END LIST*
D10*
D11*
X143494000Y-94118000D03*
X141494000Y-94118000D03*
D12*
X145944000Y-88568000D03*
X139044000Y-88568000D03*
D13*
X158747000Y-92643000D03*
X158747000Y-87443000D03*
X161547000Y-92643000D03*
X161547000Y-87443000D03*
D14*
X137202000Y-97028000D03*
X136102000Y-97028000D03*
D15*
X142621000Y-97113000D03*
X142621000Y-98213000D03*
X148336000Y-97070000D03*
X148336000Y-95970000D03*
D14*
X151172000Y-96012000D03*
X150072000Y-96012000D03*
D15*
X142621000Y-106765000D03*
X142621000Y-107865000D03*
X140208000Y-104225000D03*
X140208000Y-105325000D03*
X147447000Y-102955000D03*
X147447000Y-104055000D03*
X141224000Y-107865000D03*
X141224000Y-106765000D03*
D14*
X150537000Y-108204000D03*
X149437000Y-108204000D03*
D15*
X157099000Y-90847000D03*
X157099000Y-89747000D03*
X152146000Y-102701000D03*
X152146000Y-103801000D03*
X157734000Y-103843000D03*
X157734000Y-102743000D03*
X159258000Y-102701000D03*
X159258000Y-103801000D03*
X148209000Y-92372000D03*
X148209000Y-93472000D03*
D16*
X134112000Y-90792300D03*
X134112000Y-89293700D03*
D17*
X146851000Y-97282000D03*
X144741000Y-97282000D03*
D16*
X148221700Y-90043000D03*
X149720300Y-90043000D03*
D18*
X137102000Y-100838000D03*
X136202000Y-100838000D03*
D19*
X149803000Y-97475000D03*
X149803000Y-98425000D03*
X149803000Y-99375000D03*
X152203000Y-99375000D03*
X152203000Y-97475000D03*
D20*
X138541000Y-105017000D03*
D21*
X138541000Y-103317000D03*
X136541000Y-103317000D03*
X136541000Y-105217000D03*
D22*
X141926000Y-102016000D03*
X141926000Y-102516000D03*
X141926000Y-103016000D03*
X141926000Y-103516000D03*
X141926000Y-104016000D03*
X141926000Y-104516000D03*
D23*
X142626000Y-105216000D03*
X143126000Y-105216000D03*
X143626000Y-105216000D03*
X144126000Y-105216000D03*
X144626000Y-105216000D03*
X145126000Y-105216000D03*
D22*
X145826000Y-104516000D03*
X145826000Y-104016000D03*
X145826000Y-103516000D03*
X145826000Y-103016000D03*
X145826000Y-102516000D03*
X145826000Y-102016000D03*
D23*
X145126000Y-101316000D03*
X144626000Y-101316000D03*
X144126000Y-101316000D03*
X143626000Y-101316000D03*
X143126000Y-101316000D03*
X142626000Y-101316000D03*
D24*
X144526000Y-103916000D03*
X144526000Y-102616000D03*
X143226000Y-103916000D03*
X143226000Y-102616000D03*
D25*
X159764500Y-95670500D03*
X159264500Y-95670500D03*
X158764500Y-95670500D03*
X158264500Y-95670500D03*
X157764500Y-95670500D03*
X157264500Y-95670500D03*
X156764500Y-95670500D03*
X156264500Y-95670500D03*
D26*
X155614500Y-96320500D03*
X155614500Y-96820500D03*
X155614500Y-97320500D03*
X155614500Y-97820500D03*
X155614500Y-98320500D03*
X155614500Y-98820500D03*
X155614500Y-99320500D03*
X155614500Y-99820500D03*
D25*
X156264500Y-100470500D03*
X156764500Y-100470500D03*
X157264500Y-100470500D03*
X157764500Y-100470500D03*
X158264500Y-100470500D03*
X158764500Y-100470500D03*
X159264500Y-100470500D03*
X159764500Y-100470500D03*
D26*
X160414500Y-99820500D03*
X160414500Y-99320500D03*
X160414500Y-98820500D03*
X160414500Y-98320500D03*
X160414500Y-97820500D03*
X160414500Y-97320500D03*
X160414500Y-96820500D03*
X160414500Y-96320500D03*
D27*
X157152000Y-98933000D03*
X158877000Y-98933000D03*
X157152000Y-97208000D03*
X158877000Y-97208000D03*
D28*
X156210000Y-107696000D03*
D29*
X157480000Y-107696000D03*
X158750000Y-107696000D03*
X160020000Y-107696000D03*
X161290000Y-107696000D03*
X157480000Y-106426000D03*
X158750000Y-106426000D03*
X160020000Y-106426000D03*
X161290000Y-106426000D03*
X156210000Y-106426000D03*
D30*
X130556000Y-88011000D03*
D31*
X130556000Y-90551000D03*
D32*
X135890000Y-90493000D03*
X135890000Y-89593000D03*
D18*
X136202000Y-99314000D03*
X137102000Y-99314000D03*
X148405000Y-99441000D03*
X147505000Y-99441000D03*
D32*
X144018000Y-107765000D03*
X144018000Y-106865000D03*
D18*
X149744000Y-88392000D03*
X148844000Y-88392000D03*
X149537000Y-105283000D03*
X150437000Y-105283000D03*
X150437000Y-106807000D03*
X149537000Y-106807000D03*
D32*
X154305000Y-108019000D03*
X154305000Y-107119000D03*
X152781000Y-108019000D03*
X152781000Y-107119000D03*
X155575000Y-89916000D03*
X155575000Y-90816000D03*
D18*
X152712000Y-96139000D03*
X153612000Y-96139000D03*
X152712000Y-94615000D03*
X153612000Y-94615000D03*
D32*
X149733000Y-93414000D03*
X149733000Y-92514000D03*
D13*
X151000000Y-92643000D03*
X151000000Y-87443000D03*
X153800000Y-92643000D03*
X153800000Y-87443000D03*
D33*
X153840000Y-104051000D03*
X156040000Y-104051000D03*
X153840000Y-102451000D03*
X156040000Y-102451000D03*
D19*
X141027000Y-99121000D03*
X141027000Y-98171000D03*
X141027000Y-97221000D03*
X138627000Y-97221000D03*
X138627000Y-99121000D03*
D34*
X165703000Y-107918000D03*
X163703000Y-107918000D03*
X165703000Y-105918000D03*
X163703000Y-105918000D03*
X165703000Y-103918000D03*
X163703000Y-103918000D03*
X165703000Y-101918000D03*
X163703000Y-101918000D03*
X165703000Y-99918000D03*
X163703000Y-99918000D03*
X165703000Y-97918000D03*
X163703000Y-97918000D03*
X165703000Y-95918000D03*
X163703000Y-95918000D03*
D35*
X131826000Y-106934000D03*
X164592000Y-89281000D03*
D36*
X133417500Y-96807500D03*
X133417500Y-97457500D03*
X133417500Y-98107500D03*
X133417500Y-98757500D03*
X133417500Y-99407500D03*
D37*
X133092500Y-95007500D03*
X133092500Y-101207500D03*
D38*
X130742500Y-94007500D03*
X130742500Y-102207500D03*
D39*
X130742500Y-98957500D03*
X130742500Y-97257500D03*
M02*
