G04 #@! TF.FileFunction,Legend,Top*
%FSLAX46Y46*%
G04 Gerber Fmt 4.6, Leading zero omitted, Abs format (unit mm)*
G04 Created by KiCad (PCBNEW 0.201512051502+6347~38~ubuntu15.10.1-stable) date Sun 06 Dec 2015 10:28:51 PM EST*
%MOMM*%
G01*
G04 APERTURE LIST*
%ADD10C,0.100000*%
%ADD11C,0.125000*%
%ADD12C,0.150000*%
G04 APERTURE END LIST*
D10*
X166953381Y-96480238D02*
X166977190Y-96408809D01*
X166977190Y-96289762D01*
X166953381Y-96242143D01*
X166929571Y-96218333D01*
X166881952Y-96194524D01*
X166834333Y-96194524D01*
X166786714Y-96218333D01*
X166762905Y-96242143D01*
X166739095Y-96289762D01*
X166715286Y-96385000D01*
X166691476Y-96432619D01*
X166667667Y-96456428D01*
X166620048Y-96480238D01*
X166572429Y-96480238D01*
X166524810Y-96456428D01*
X166501000Y-96432619D01*
X166477190Y-96385000D01*
X166477190Y-96265952D01*
X166501000Y-96194524D01*
X166929571Y-95694524D02*
X166953381Y-95718334D01*
X166977190Y-95789762D01*
X166977190Y-95837381D01*
X166953381Y-95908810D01*
X166905762Y-95956429D01*
X166858143Y-95980238D01*
X166762905Y-96004048D01*
X166691476Y-96004048D01*
X166596238Y-95980238D01*
X166548619Y-95956429D01*
X166501000Y-95908810D01*
X166477190Y-95837381D01*
X166477190Y-95789762D01*
X166501000Y-95718334D01*
X166524810Y-95694524D01*
X166977190Y-95242143D02*
X166977190Y-95480238D01*
X166477190Y-95480238D01*
X162889381Y-96492142D02*
X162913190Y-96420713D01*
X162913190Y-96301666D01*
X162889381Y-96254047D01*
X162865571Y-96230237D01*
X162817952Y-96206428D01*
X162770333Y-96206428D01*
X162722714Y-96230237D01*
X162698905Y-96254047D01*
X162675095Y-96301666D01*
X162651286Y-96396904D01*
X162627476Y-96444523D01*
X162603667Y-96468332D01*
X162556048Y-96492142D01*
X162508429Y-96492142D01*
X162460810Y-96468332D01*
X162437000Y-96444523D01*
X162413190Y-96396904D01*
X162413190Y-96277856D01*
X162437000Y-96206428D01*
X162913190Y-95992142D02*
X162413190Y-95992142D01*
X162413190Y-95873095D01*
X162437000Y-95801666D01*
X162484619Y-95754047D01*
X162532238Y-95730238D01*
X162627476Y-95706428D01*
X162698905Y-95706428D01*
X162794143Y-95730238D01*
X162841762Y-95754047D01*
X162889381Y-95801666D01*
X162913190Y-95873095D01*
X162913190Y-95992142D01*
X162770333Y-95515952D02*
X162770333Y-95277857D01*
X162913190Y-95563571D02*
X162413190Y-95396904D01*
X162913190Y-95230238D01*
X166977190Y-98655094D02*
X166477190Y-98655094D01*
X166477190Y-98321761D02*
X166477190Y-98226523D01*
X166501000Y-98178904D01*
X166548619Y-98131285D01*
X166643857Y-98107476D01*
X166810524Y-98107476D01*
X166905762Y-98131285D01*
X166953381Y-98178904D01*
X166977190Y-98226523D01*
X166977190Y-98321761D01*
X166953381Y-98369380D01*
X166905762Y-98416999D01*
X166810524Y-98440809D01*
X166643857Y-98440809D01*
X166548619Y-98416999D01*
X166501000Y-98369380D01*
X166477190Y-98321761D01*
X166977190Y-97631285D02*
X166977190Y-97916999D01*
X166977190Y-97774142D02*
X166477190Y-97774142D01*
X166548619Y-97821761D01*
X166596238Y-97869380D01*
X166620048Y-97916999D01*
X166477190Y-97321761D02*
X166477190Y-97274142D01*
X166501000Y-97226523D01*
X166524810Y-97202714D01*
X166572429Y-97178904D01*
X166667667Y-97155095D01*
X166786714Y-97155095D01*
X166881952Y-97178904D01*
X166929571Y-97202714D01*
X166953381Y-97226523D01*
X166977190Y-97274142D01*
X166977190Y-97321761D01*
X166953381Y-97369380D01*
X166929571Y-97393190D01*
X166881952Y-97416999D01*
X166786714Y-97440809D01*
X166667667Y-97440809D01*
X166572429Y-97416999D01*
X166524810Y-97393190D01*
X166501000Y-97369380D01*
X166477190Y-97321761D01*
X162913190Y-98416999D02*
X162413190Y-98416999D01*
X162413190Y-98083666D02*
X162413190Y-97988428D01*
X162437000Y-97940809D01*
X162484619Y-97893190D01*
X162579857Y-97869381D01*
X162746524Y-97869381D01*
X162841762Y-97893190D01*
X162889381Y-97940809D01*
X162913190Y-97988428D01*
X162913190Y-98083666D01*
X162889381Y-98131285D01*
X162841762Y-98178904D01*
X162746524Y-98202714D01*
X162579857Y-98202714D01*
X162484619Y-98178904D01*
X162437000Y-98131285D01*
X162413190Y-98083666D01*
X162913190Y-97631285D02*
X162913190Y-97536047D01*
X162889381Y-97488428D01*
X162865571Y-97464618D01*
X162794143Y-97416999D01*
X162698905Y-97393190D01*
X162508429Y-97393190D01*
X162460810Y-97416999D01*
X162437000Y-97440809D01*
X162413190Y-97488428D01*
X162413190Y-97583666D01*
X162437000Y-97631285D01*
X162460810Y-97655094D01*
X162508429Y-97678904D01*
X162627476Y-97678904D01*
X162675095Y-97655094D01*
X162698905Y-97631285D01*
X162722714Y-97583666D01*
X162722714Y-97488428D01*
X162698905Y-97440809D01*
X162675095Y-97416999D01*
X162627476Y-97393190D01*
X162913190Y-100448999D02*
X162413190Y-100448999D01*
X162413190Y-100115666D02*
X162413190Y-100020428D01*
X162437000Y-99972809D01*
X162484619Y-99925190D01*
X162579857Y-99901381D01*
X162746524Y-99901381D01*
X162841762Y-99925190D01*
X162889381Y-99972809D01*
X162913190Y-100020428D01*
X162913190Y-100115666D01*
X162889381Y-100163285D01*
X162841762Y-100210904D01*
X162746524Y-100234714D01*
X162579857Y-100234714D01*
X162484619Y-100210904D01*
X162437000Y-100163285D01*
X162413190Y-100115666D01*
X162413190Y-99734713D02*
X162413190Y-99401380D01*
X162913190Y-99615666D01*
X166977190Y-100448999D02*
X166477190Y-100448999D01*
X166477190Y-100115666D02*
X166477190Y-100020428D01*
X166501000Y-99972809D01*
X166548619Y-99925190D01*
X166643857Y-99901381D01*
X166810524Y-99901381D01*
X166905762Y-99925190D01*
X166953381Y-99972809D01*
X166977190Y-100020428D01*
X166977190Y-100115666D01*
X166953381Y-100163285D01*
X166905762Y-100210904D01*
X166810524Y-100234714D01*
X166643857Y-100234714D01*
X166548619Y-100210904D01*
X166501000Y-100163285D01*
X166477190Y-100115666D01*
X166691476Y-99615666D02*
X166667667Y-99663285D01*
X166643857Y-99687094D01*
X166596238Y-99710904D01*
X166572429Y-99710904D01*
X166524810Y-99687094D01*
X166501000Y-99663285D01*
X166477190Y-99615666D01*
X166477190Y-99520428D01*
X166501000Y-99472809D01*
X166524810Y-99448999D01*
X166572429Y-99425190D01*
X166596238Y-99425190D01*
X166643857Y-99448999D01*
X166667667Y-99472809D01*
X166691476Y-99520428D01*
X166691476Y-99615666D01*
X166715286Y-99663285D01*
X166739095Y-99687094D01*
X166786714Y-99710904D01*
X166881952Y-99710904D01*
X166929571Y-99687094D01*
X166953381Y-99663285D01*
X166977190Y-99615666D01*
X166977190Y-99520428D01*
X166953381Y-99472809D01*
X166929571Y-99448999D01*
X166881952Y-99425190D01*
X166786714Y-99425190D01*
X166739095Y-99448999D01*
X166715286Y-99472809D01*
X166691476Y-99520428D01*
X166977190Y-102353999D02*
X166477190Y-102353999D01*
X166477190Y-102020666D02*
X166477190Y-101925428D01*
X166501000Y-101877809D01*
X166548619Y-101830190D01*
X166643857Y-101806381D01*
X166810524Y-101806381D01*
X166905762Y-101830190D01*
X166953381Y-101877809D01*
X166977190Y-101925428D01*
X166977190Y-102020666D01*
X166953381Y-102068285D01*
X166905762Y-102115904D01*
X166810524Y-102139714D01*
X166643857Y-102139714D01*
X166548619Y-102115904D01*
X166501000Y-102068285D01*
X166477190Y-102020666D01*
X166477190Y-101377809D02*
X166477190Y-101473047D01*
X166501000Y-101520666D01*
X166524810Y-101544475D01*
X166596238Y-101592094D01*
X166691476Y-101615904D01*
X166881952Y-101615904D01*
X166929571Y-101592094D01*
X166953381Y-101568285D01*
X166977190Y-101520666D01*
X166977190Y-101425428D01*
X166953381Y-101377809D01*
X166929571Y-101353999D01*
X166881952Y-101330190D01*
X166762905Y-101330190D01*
X166715286Y-101353999D01*
X166691476Y-101377809D01*
X166667667Y-101425428D01*
X166667667Y-101520666D01*
X166691476Y-101568285D01*
X166715286Y-101592094D01*
X166762905Y-101615904D01*
X162913190Y-102353999D02*
X162413190Y-102353999D01*
X162413190Y-102020666D02*
X162413190Y-101925428D01*
X162437000Y-101877809D01*
X162484619Y-101830190D01*
X162579857Y-101806381D01*
X162746524Y-101806381D01*
X162841762Y-101830190D01*
X162889381Y-101877809D01*
X162913190Y-101925428D01*
X162913190Y-102020666D01*
X162889381Y-102068285D01*
X162841762Y-102115904D01*
X162746524Y-102139714D01*
X162579857Y-102139714D01*
X162484619Y-102115904D01*
X162437000Y-102068285D01*
X162413190Y-102020666D01*
X162413190Y-101353999D02*
X162413190Y-101592094D01*
X162651286Y-101615904D01*
X162627476Y-101592094D01*
X162603667Y-101544475D01*
X162603667Y-101425428D01*
X162627476Y-101377809D01*
X162651286Y-101353999D01*
X162698905Y-101330190D01*
X162817952Y-101330190D01*
X162865571Y-101353999D01*
X162889381Y-101377809D01*
X162913190Y-101425428D01*
X162913190Y-101544475D01*
X162889381Y-101592094D01*
X162865571Y-101615904D01*
X166977190Y-104385999D02*
X166477190Y-104385999D01*
X166477190Y-104052666D02*
X166477190Y-103957428D01*
X166501000Y-103909809D01*
X166548619Y-103862190D01*
X166643857Y-103838381D01*
X166810524Y-103838381D01*
X166905762Y-103862190D01*
X166953381Y-103909809D01*
X166977190Y-103957428D01*
X166977190Y-104052666D01*
X166953381Y-104100285D01*
X166905762Y-104147904D01*
X166810524Y-104171714D01*
X166643857Y-104171714D01*
X166548619Y-104147904D01*
X166501000Y-104100285D01*
X166477190Y-104052666D01*
X166643857Y-103409809D02*
X166977190Y-103409809D01*
X166453381Y-103528856D02*
X166810524Y-103647904D01*
X166810524Y-103338380D01*
X162913190Y-104385999D02*
X162413190Y-104385999D01*
X162413190Y-104052666D02*
X162413190Y-103957428D01*
X162437000Y-103909809D01*
X162484619Y-103862190D01*
X162579857Y-103838381D01*
X162746524Y-103838381D01*
X162841762Y-103862190D01*
X162889381Y-103909809D01*
X162913190Y-103957428D01*
X162913190Y-104052666D01*
X162889381Y-104100285D01*
X162841762Y-104147904D01*
X162746524Y-104171714D01*
X162579857Y-104171714D01*
X162484619Y-104147904D01*
X162437000Y-104100285D01*
X162413190Y-104052666D01*
X162413190Y-103671713D02*
X162413190Y-103362190D01*
X162603667Y-103528856D01*
X162603667Y-103457428D01*
X162627476Y-103409809D01*
X162651286Y-103385999D01*
X162698905Y-103362190D01*
X162817952Y-103362190D01*
X162865571Y-103385999D01*
X162889381Y-103409809D01*
X162913190Y-103457428D01*
X162913190Y-103600285D01*
X162889381Y-103647904D01*
X162865571Y-103671713D01*
X162913190Y-106417999D02*
X162413190Y-106417999D01*
X162413190Y-106084666D02*
X162413190Y-105989428D01*
X162437000Y-105941809D01*
X162484619Y-105894190D01*
X162579857Y-105870381D01*
X162746524Y-105870381D01*
X162841762Y-105894190D01*
X162889381Y-105941809D01*
X162913190Y-105989428D01*
X162913190Y-106084666D01*
X162889381Y-106132285D01*
X162841762Y-106179904D01*
X162746524Y-106203714D01*
X162579857Y-106203714D01*
X162484619Y-106179904D01*
X162437000Y-106132285D01*
X162413190Y-106084666D01*
X162913190Y-105394190D02*
X162913190Y-105679904D01*
X162913190Y-105537047D02*
X162413190Y-105537047D01*
X162484619Y-105584666D01*
X162532238Y-105632285D01*
X162556048Y-105679904D01*
X162437000Y-108330953D02*
X162413190Y-108378572D01*
X162413190Y-108450000D01*
X162437000Y-108521429D01*
X162484619Y-108569048D01*
X162532238Y-108592857D01*
X162627476Y-108616667D01*
X162698905Y-108616667D01*
X162794143Y-108592857D01*
X162841762Y-108569048D01*
X162889381Y-108521429D01*
X162913190Y-108450000D01*
X162913190Y-108402381D01*
X162889381Y-108330953D01*
X162865571Y-108307143D01*
X162698905Y-108307143D01*
X162698905Y-108402381D01*
X162913190Y-108092857D02*
X162413190Y-108092857D01*
X162913190Y-107807143D01*
X162413190Y-107807143D01*
X162913190Y-107569047D02*
X162413190Y-107569047D01*
X162413190Y-107450000D01*
X162437000Y-107378571D01*
X162484619Y-107330952D01*
X162532238Y-107307143D01*
X162627476Y-107283333D01*
X162698905Y-107283333D01*
X162794143Y-107307143D01*
X162841762Y-107330952D01*
X162889381Y-107378571D01*
X162913190Y-107450000D01*
X162913190Y-107569047D01*
X166477190Y-108569046D02*
X166477190Y-108259523D01*
X166667667Y-108426189D01*
X166667667Y-108354761D01*
X166691476Y-108307142D01*
X166715286Y-108283332D01*
X166762905Y-108259523D01*
X166881952Y-108259523D01*
X166929571Y-108283332D01*
X166953381Y-108307142D01*
X166977190Y-108354761D01*
X166977190Y-108497618D01*
X166953381Y-108545237D01*
X166929571Y-108569046D01*
X166477190Y-108116666D02*
X166977190Y-107949999D01*
X166477190Y-107783333D01*
X166477190Y-107664285D02*
X166477190Y-107354762D01*
X166667667Y-107521428D01*
X166667667Y-107450000D01*
X166691476Y-107402381D01*
X166715286Y-107378571D01*
X166762905Y-107354762D01*
X166881952Y-107354762D01*
X166929571Y-107378571D01*
X166953381Y-107402381D01*
X166977190Y-107450000D01*
X166977190Y-107592857D01*
X166953381Y-107640476D01*
X166929571Y-107664285D01*
X166977190Y-106417999D02*
X166477190Y-106417999D01*
X166477190Y-106084666D02*
X166477190Y-105989428D01*
X166501000Y-105941809D01*
X166548619Y-105894190D01*
X166643857Y-105870381D01*
X166810524Y-105870381D01*
X166905762Y-105894190D01*
X166953381Y-105941809D01*
X166977190Y-105989428D01*
X166977190Y-106084666D01*
X166953381Y-106132285D01*
X166905762Y-106179904D01*
X166810524Y-106203714D01*
X166643857Y-106203714D01*
X166548619Y-106179904D01*
X166501000Y-106132285D01*
X166477190Y-106084666D01*
X166524810Y-105679904D02*
X166501000Y-105656094D01*
X166477190Y-105608475D01*
X166477190Y-105489428D01*
X166501000Y-105441809D01*
X166524810Y-105417999D01*
X166572429Y-105394190D01*
X166620048Y-105394190D01*
X166691476Y-105417999D01*
X166977190Y-105703713D01*
X166977190Y-105394190D01*
D11*
X152439857Y-105814762D02*
X152582714Y-105862381D01*
X152820810Y-105862381D01*
X152916048Y-105814762D01*
X152963667Y-105767143D01*
X153011286Y-105671905D01*
X153011286Y-105576667D01*
X152963667Y-105481429D01*
X152916048Y-105433810D01*
X152820810Y-105386190D01*
X152630333Y-105338571D01*
X152535095Y-105290952D01*
X152487476Y-105243333D01*
X152439857Y-105148095D01*
X152439857Y-105052857D01*
X152487476Y-104957619D01*
X152535095Y-104910000D01*
X152630333Y-104862381D01*
X152868429Y-104862381D01*
X153011286Y-104910000D01*
X153344619Y-104862381D02*
X153582714Y-105862381D01*
X153773191Y-105148095D01*
X153963667Y-105862381D01*
X154201762Y-104862381D01*
X154582714Y-105862381D02*
X154582714Y-104862381D01*
X154820809Y-104862381D01*
X154963667Y-104910000D01*
X155058905Y-105005238D01*
X155106524Y-105100476D01*
X155154143Y-105290952D01*
X155154143Y-105433810D01*
X155106524Y-105624286D01*
X155058905Y-105719524D01*
X154963667Y-105814762D01*
X154820809Y-105862381D01*
X154582714Y-105862381D01*
X163139381Y-92622619D02*
X162663190Y-92955953D01*
X163139381Y-93194048D02*
X162139381Y-93194048D01*
X162139381Y-92813095D01*
X162187000Y-92717857D01*
X162234619Y-92670238D01*
X162329857Y-92622619D01*
X162472714Y-92622619D01*
X162567952Y-92670238D01*
X162615571Y-92717857D01*
X162663190Y-92813095D01*
X162663190Y-93194048D01*
X163091762Y-92241667D02*
X163139381Y-92098810D01*
X163139381Y-91860714D01*
X163091762Y-91765476D01*
X163044143Y-91717857D01*
X162948905Y-91670238D01*
X162853667Y-91670238D01*
X162758429Y-91717857D01*
X162710810Y-91765476D01*
X162663190Y-91860714D01*
X162615571Y-92051191D01*
X162567952Y-92146429D01*
X162520333Y-92194048D01*
X162425095Y-92241667D01*
X162329857Y-92241667D01*
X162234619Y-92194048D01*
X162187000Y-92146429D01*
X162139381Y-92051191D01*
X162139381Y-91813095D01*
X162187000Y-91670238D01*
X162139381Y-91384524D02*
X162139381Y-90813095D01*
X163139381Y-91098810D02*
X162139381Y-91098810D01*
X129587762Y-92035381D02*
X129921095Y-93035381D01*
X130254429Y-92035381D01*
X130587762Y-93035381D02*
X130587762Y-92035381D01*
X131063952Y-93035381D02*
X131063952Y-92035381D01*
X131635381Y-93035381D01*
X131635381Y-92035381D01*
X132532429Y-90804952D02*
X132532429Y-90043047D01*
X132207048Y-88082429D02*
X132968953Y-88082429D01*
X132588001Y-88463381D02*
X132588001Y-87701476D01*
X134159715Y-88622143D02*
X134112096Y-88669762D01*
X133969239Y-88717381D01*
X133874001Y-88717381D01*
X133731143Y-88669762D01*
X133635905Y-88574524D01*
X133588286Y-88479286D01*
X133540667Y-88288810D01*
X133540667Y-88145952D01*
X133588286Y-87955476D01*
X133635905Y-87860238D01*
X133731143Y-87765000D01*
X133874001Y-87717381D01*
X133969239Y-87717381D01*
X134112096Y-87765000D01*
X134159715Y-87812619D01*
X134588286Y-88717381D02*
X134588286Y-87717381D01*
X134588286Y-88193571D02*
X135159715Y-88193571D01*
X135159715Y-88717381D02*
X135159715Y-87717381D01*
X136159715Y-87765000D02*
X136064477Y-87717381D01*
X135921620Y-87717381D01*
X135778762Y-87765000D01*
X135683524Y-87860238D01*
X135635905Y-87955476D01*
X135588286Y-88145952D01*
X135588286Y-88288810D01*
X135635905Y-88479286D01*
X135683524Y-88574524D01*
X135778762Y-88669762D01*
X135921620Y-88717381D01*
X136016858Y-88717381D01*
X136159715Y-88669762D01*
X136207334Y-88622143D01*
X136207334Y-88288810D01*
X136016858Y-88288810D01*
D12*
X139344000Y-95468000D02*
X138544000Y-95468000D01*
X139344000Y-92868000D02*
X139344000Y-95468000D01*
X145644000Y-92868000D02*
X139344000Y-92868000D01*
X145644000Y-95468000D02*
X145644000Y-92868000D01*
X146444000Y-95468000D02*
X145644000Y-95468000D01*
X138544000Y-86868000D02*
X138544000Y-95468000D01*
X146444000Y-86868000D02*
X146444000Y-95468000D01*
X138544000Y-86868000D02*
X146444000Y-86868000D01*
X159047000Y-90443000D02*
G75*
G03X161247000Y-90443000I1100000J0D01*
G01*
X161247000Y-89643000D02*
G75*
G03X159047000Y-89643000I-1100000J0D01*
G01*
X161247000Y-89643000D02*
X161247000Y-90443000D01*
X159047000Y-90443000D02*
X159047000Y-89643000D01*
X161747000Y-92343000D02*
X158547000Y-92343000D01*
X161747000Y-87743000D02*
X161747000Y-92343000D01*
X158547000Y-87743000D02*
X161747000Y-87743000D01*
X158547000Y-92343000D02*
X158547000Y-87743000D01*
X136402000Y-97503000D02*
X136902000Y-97503000D01*
X136902000Y-96553000D02*
X136402000Y-96553000D01*
X143096000Y-97913000D02*
X143096000Y-97413000D01*
X142146000Y-97413000D02*
X142146000Y-97913000D01*
X147861000Y-96270000D02*
X147861000Y-96770000D01*
X148811000Y-96770000D02*
X148811000Y-96270000D01*
X150372000Y-96487000D02*
X150872000Y-96487000D01*
X150872000Y-95537000D02*
X150372000Y-95537000D01*
X143096000Y-107565000D02*
X143096000Y-107065000D01*
X142146000Y-107065000D02*
X142146000Y-107565000D01*
X140683000Y-105025000D02*
X140683000Y-104525000D01*
X139733000Y-104525000D02*
X139733000Y-105025000D01*
X147922000Y-103755000D02*
X147922000Y-103255000D01*
X146972000Y-103255000D02*
X146972000Y-103755000D01*
X140749000Y-107065000D02*
X140749000Y-107565000D01*
X141699000Y-107565000D02*
X141699000Y-107065000D01*
X149737000Y-108679000D02*
X150237000Y-108679000D01*
X150237000Y-107729000D02*
X149737000Y-107729000D01*
X156624000Y-90047000D02*
X156624000Y-90547000D01*
X157574000Y-90547000D02*
X157574000Y-90047000D01*
X152621000Y-103501000D02*
X152621000Y-103001000D01*
X151671000Y-103001000D02*
X151671000Y-103501000D01*
X157259000Y-103043000D02*
X157259000Y-103543000D01*
X158209000Y-103543000D02*
X158209000Y-103043000D01*
X159733000Y-103501000D02*
X159733000Y-103001000D01*
X158783000Y-103001000D02*
X158783000Y-103501000D01*
X148684000Y-93172000D02*
X148684000Y-92672000D01*
X147734000Y-92672000D02*
X147734000Y-93172000D01*
X133562000Y-88943000D02*
X133562000Y-90843000D01*
X134662000Y-88943000D02*
X134662000Y-90843000D01*
X134112000Y-89843000D02*
X134112000Y-90293000D01*
X134362000Y-89793000D02*
X133862000Y-89793000D01*
X134112000Y-89793000D02*
X134362000Y-90043000D01*
X134362000Y-90043000D02*
X133862000Y-90043000D01*
X133862000Y-90043000D02*
X134112000Y-89793000D01*
X145546000Y-97282000D02*
X145296000Y-97282000D01*
X146046000Y-97282000D02*
X146296000Y-97282000D01*
X146046000Y-97282000D02*
X145546000Y-97632000D01*
X145546000Y-97632000D02*
X145546000Y-96932000D01*
X145546000Y-96932000D02*
X146046000Y-97282000D01*
X146046000Y-97632000D02*
X146046000Y-96932000D01*
X147096000Y-96482000D02*
X144696000Y-96482000D01*
X147096000Y-98082000D02*
X144696000Y-98082000D01*
X150071000Y-89493000D02*
X148171000Y-89493000D01*
X150071000Y-90593000D02*
X148171000Y-90593000D01*
X149171000Y-90043000D02*
X148721000Y-90043000D01*
X149221000Y-90293000D02*
X149221000Y-89793000D01*
X149221000Y-90043000D02*
X148971000Y-90293000D01*
X148971000Y-90293000D02*
X148971000Y-89793000D01*
X148971000Y-89793000D02*
X149221000Y-90043000D01*
X136402000Y-101363000D02*
X136902000Y-101363000D01*
X136902000Y-100313000D02*
X136402000Y-100313000D01*
X150203000Y-96975000D02*
X151803000Y-96975000D01*
X150203000Y-99875000D02*
X150203000Y-96975000D01*
X151803000Y-99875000D02*
X150203000Y-99875000D01*
X151803000Y-96975000D02*
X151803000Y-99875000D01*
X138441000Y-105867000D02*
X138841000Y-105867000D01*
X138241000Y-105767000D02*
X136841000Y-105767000D01*
X138241000Y-102767000D02*
X138241000Y-105767000D01*
X136841000Y-102767000D02*
X138241000Y-102767000D01*
X136841000Y-105767000D02*
X136841000Y-102767000D01*
X146026000Y-101116000D02*
X146026000Y-101641000D01*
X141726000Y-105416000D02*
X141726000Y-104891000D01*
X146026000Y-105416000D02*
X146026000Y-104891000D01*
X141726000Y-101116000D02*
X142251000Y-101116000D01*
X141726000Y-105416000D02*
X142251000Y-105416000D01*
X146026000Y-105416000D02*
X145501000Y-105416000D01*
X146026000Y-101116000D02*
X145501000Y-101116000D01*
X160639500Y-100695500D02*
X160114500Y-100695500D01*
X155389500Y-95445500D02*
X155914500Y-95445500D01*
X155389500Y-100695500D02*
X155914500Y-100695500D01*
X160639500Y-95445500D02*
X160639500Y-95970500D01*
X155389500Y-95445500D02*
X155389500Y-95970500D01*
X155389500Y-100695500D02*
X155389500Y-100170500D01*
X160639500Y-100695500D02*
X160639500Y-100170500D01*
X155410000Y-105596000D02*
X155410000Y-106396000D01*
X162060000Y-105596000D02*
X155410000Y-105596000D01*
X162060000Y-105596000D02*
X162060000Y-108546000D01*
X162060000Y-108546000D02*
X157510000Y-108546000D01*
X155410000Y-107196000D02*
X155410000Y-108546000D01*
X155410000Y-108546000D02*
X156710000Y-108546000D01*
X129006000Y-86461000D02*
X129006000Y-88011000D01*
X129286000Y-91821000D02*
X129286000Y-89281000D01*
X129286000Y-89281000D02*
X131826000Y-89281000D01*
X132106000Y-88011000D02*
X132106000Y-86461000D01*
X132106000Y-86461000D02*
X129006000Y-86461000D01*
X131826000Y-89281000D02*
X131826000Y-91821000D01*
X131826000Y-91821000D02*
X129286000Y-91821000D01*
X135365000Y-89793000D02*
X135365000Y-90293000D01*
X136415000Y-90293000D02*
X136415000Y-89793000D01*
X136902000Y-98789000D02*
X136402000Y-98789000D01*
X136402000Y-99839000D02*
X136902000Y-99839000D01*
X147705000Y-99966000D02*
X148205000Y-99966000D01*
X148205000Y-98916000D02*
X147705000Y-98916000D01*
X143493000Y-107065000D02*
X143493000Y-107565000D01*
X144543000Y-107565000D02*
X144543000Y-107065000D01*
X149044000Y-88917000D02*
X149544000Y-88917000D01*
X149544000Y-87867000D02*
X149044000Y-87867000D01*
X150237000Y-104758000D02*
X149737000Y-104758000D01*
X149737000Y-105808000D02*
X150237000Y-105808000D01*
X149737000Y-107332000D02*
X150237000Y-107332000D01*
X150237000Y-106282000D02*
X149737000Y-106282000D01*
X153780000Y-107319000D02*
X153780000Y-107819000D01*
X154830000Y-107819000D02*
X154830000Y-107319000D01*
X152256000Y-107319000D02*
X152256000Y-107819000D01*
X153306000Y-107819000D02*
X153306000Y-107319000D01*
X156100000Y-90616000D02*
X156100000Y-90116000D01*
X155050000Y-90116000D02*
X155050000Y-90616000D01*
X153412000Y-95614000D02*
X152912000Y-95614000D01*
X152912000Y-96664000D02*
X153412000Y-96664000D01*
X153412000Y-94090000D02*
X152912000Y-94090000D01*
X152912000Y-95140000D02*
X153412000Y-95140000D01*
X149208000Y-92714000D02*
X149208000Y-93214000D01*
X150258000Y-93214000D02*
X150258000Y-92714000D01*
X151300000Y-90443000D02*
G75*
G03X153500000Y-90443000I1100000J0D01*
G01*
X153500000Y-89643000D02*
G75*
G03X151300000Y-89643000I-1100000J0D01*
G01*
X153500000Y-89643000D02*
X153500000Y-90443000D01*
X151300000Y-90443000D02*
X151300000Y-89643000D01*
X154000000Y-92343000D02*
X150800000Y-92343000D01*
X154000000Y-87743000D02*
X154000000Y-92343000D01*
X150800000Y-87743000D02*
X154000000Y-87743000D01*
X150800000Y-92343000D02*
X150800000Y-87743000D01*
X153340000Y-101951000D02*
X156540000Y-101951000D01*
X156540000Y-101951000D02*
X156540000Y-104551000D01*
X156540000Y-104551000D02*
X153340000Y-104551000D01*
X153340000Y-104551000D02*
X153340000Y-101951000D01*
X140627000Y-99621000D02*
X139027000Y-99621000D01*
X140627000Y-96721000D02*
X140627000Y-99621000D01*
X139027000Y-96721000D02*
X140627000Y-96721000D01*
X139027000Y-99621000D02*
X139027000Y-96721000D01*
X133951000Y-106934000D02*
G75*
G03X133951000Y-106934000I-2125000J0D01*
G01*
X166717000Y-89281000D02*
G75*
G03X166717000Y-89281000I-2125000J0D01*
G01*
X129292500Y-101857500D02*
X134092500Y-101857500D01*
X129292500Y-94357500D02*
X129292500Y-101857500D01*
X129292500Y-94357500D02*
X134092500Y-94357500D01*
X134092500Y-94357500D02*
X134092500Y-101857500D01*
D10*
X137962048Y-88109762D02*
X137312048Y-88109762D01*
X137312048Y-87862143D01*
X137343000Y-87800238D01*
X137373952Y-87769286D01*
X137435857Y-87738334D01*
X137528714Y-87738334D01*
X137590619Y-87769286D01*
X137621571Y-87800238D01*
X137652524Y-87862143D01*
X137652524Y-88109762D01*
X137373952Y-87490714D02*
X137343000Y-87459762D01*
X137312048Y-87397857D01*
X137312048Y-87243095D01*
X137343000Y-87181191D01*
X137373952Y-87150238D01*
X137435857Y-87119286D01*
X137497762Y-87119286D01*
X137590619Y-87150238D01*
X137962048Y-87521667D01*
X137962048Y-87119286D01*
X159283334Y-87512095D02*
X159376191Y-87543048D01*
X159530953Y-87543048D01*
X159592857Y-87512095D01*
X159623810Y-87481143D01*
X159654762Y-87419238D01*
X159654762Y-87357333D01*
X159623810Y-87295429D01*
X159592857Y-87264476D01*
X159530953Y-87233524D01*
X159407143Y-87202571D01*
X159345238Y-87171619D01*
X159314286Y-87140667D01*
X159283334Y-87078762D01*
X159283334Y-87016857D01*
X159314286Y-86954952D01*
X159345238Y-86924000D01*
X159407143Y-86893048D01*
X159561905Y-86893048D01*
X159654762Y-86924000D01*
X159871429Y-86893048D02*
X160026191Y-87543048D01*
X160150001Y-87078762D01*
X160273810Y-87543048D01*
X160428572Y-86893048D01*
X160645239Y-86954952D02*
X160676191Y-86924000D01*
X160738096Y-86893048D01*
X160892858Y-86893048D01*
X160954762Y-86924000D01*
X160985715Y-86954952D01*
X161016667Y-87016857D01*
X161016667Y-87078762D01*
X160985715Y-87171619D01*
X160614286Y-87543048D01*
X161016667Y-87543048D01*
X136543666Y-96244143D02*
X136512714Y-96275095D01*
X136419857Y-96306048D01*
X136357952Y-96306048D01*
X136265095Y-96275095D01*
X136203190Y-96213190D01*
X136172238Y-96151286D01*
X136141286Y-96027476D01*
X136141286Y-95934619D01*
X136172238Y-95810810D01*
X136203190Y-95748905D01*
X136265095Y-95687000D01*
X136357952Y-95656048D01*
X136419857Y-95656048D01*
X136512714Y-95687000D01*
X136543666Y-95717952D01*
X137162714Y-96306048D02*
X136791286Y-96306048D01*
X136977000Y-96306048D02*
X136977000Y-95656048D01*
X136915095Y-95748905D01*
X136853190Y-95810810D01*
X136791286Y-95841762D01*
X143869143Y-97771334D02*
X143900095Y-97802286D01*
X143931048Y-97895143D01*
X143931048Y-97957048D01*
X143900095Y-98049905D01*
X143838190Y-98111810D01*
X143776286Y-98142762D01*
X143652476Y-98173714D01*
X143559619Y-98173714D01*
X143435810Y-98142762D01*
X143373905Y-98111810D01*
X143312000Y-98049905D01*
X143281048Y-97957048D01*
X143281048Y-97895143D01*
X143312000Y-97802286D01*
X143342952Y-97771334D01*
X143342952Y-97523714D02*
X143312000Y-97492762D01*
X143281048Y-97430857D01*
X143281048Y-97276095D01*
X143312000Y-97214191D01*
X143342952Y-97183238D01*
X143404857Y-97152286D01*
X143466762Y-97152286D01*
X143559619Y-97183238D01*
X143931048Y-97554667D01*
X143931048Y-97152286D01*
X148568143Y-95104334D02*
X148599095Y-95135286D01*
X148630048Y-95228143D01*
X148630048Y-95290048D01*
X148599095Y-95382905D01*
X148537190Y-95444810D01*
X148475286Y-95475762D01*
X148351476Y-95506714D01*
X148258619Y-95506714D01*
X148134810Y-95475762D01*
X148072905Y-95444810D01*
X148011000Y-95382905D01*
X147980048Y-95290048D01*
X147980048Y-95228143D01*
X148011000Y-95135286D01*
X148041952Y-95104334D01*
X147980048Y-94887667D02*
X147980048Y-94485286D01*
X148227667Y-94701953D01*
X148227667Y-94609095D01*
X148258619Y-94547191D01*
X148289571Y-94516238D01*
X148351476Y-94485286D01*
X148506238Y-94485286D01*
X148568143Y-94516238D01*
X148599095Y-94547191D01*
X148630048Y-94609095D01*
X148630048Y-94794810D01*
X148599095Y-94856714D01*
X148568143Y-94887667D01*
X150513666Y-95228143D02*
X150482714Y-95259095D01*
X150389857Y-95290048D01*
X150327952Y-95290048D01*
X150235095Y-95259095D01*
X150173190Y-95197190D01*
X150142238Y-95135286D01*
X150111286Y-95011476D01*
X150111286Y-94918619D01*
X150142238Y-94794810D01*
X150173190Y-94732905D01*
X150235095Y-94671000D01*
X150327952Y-94640048D01*
X150389857Y-94640048D01*
X150482714Y-94671000D01*
X150513666Y-94701952D01*
X151070809Y-94856714D02*
X151070809Y-95290048D01*
X150916047Y-94609095D02*
X150761286Y-95073381D01*
X151163666Y-95073381D01*
X142853143Y-108947334D02*
X142884095Y-108978286D01*
X142915048Y-109071143D01*
X142915048Y-109133048D01*
X142884095Y-109225905D01*
X142822190Y-109287810D01*
X142760286Y-109318762D01*
X142636476Y-109349714D01*
X142543619Y-109349714D01*
X142419810Y-109318762D01*
X142357905Y-109287810D01*
X142296000Y-109225905D01*
X142265048Y-109133048D01*
X142265048Y-109071143D01*
X142296000Y-108978286D01*
X142326952Y-108947334D01*
X142265048Y-108359238D02*
X142265048Y-108668762D01*
X142574571Y-108699714D01*
X142543619Y-108668762D01*
X142512667Y-108606857D01*
X142512667Y-108452095D01*
X142543619Y-108390191D01*
X142574571Y-108359238D01*
X142636476Y-108328286D01*
X142791238Y-108328286D01*
X142853143Y-108359238D01*
X142884095Y-108390191D01*
X142915048Y-108452095D01*
X142915048Y-108606857D01*
X142884095Y-108668762D01*
X142853143Y-108699714D01*
X140440143Y-103105334D02*
X140471095Y-103136286D01*
X140502048Y-103229143D01*
X140502048Y-103291048D01*
X140471095Y-103383905D01*
X140409190Y-103445810D01*
X140347286Y-103476762D01*
X140223476Y-103507714D01*
X140130619Y-103507714D01*
X140006810Y-103476762D01*
X139944905Y-103445810D01*
X139883000Y-103383905D01*
X139852048Y-103291048D01*
X139852048Y-103229143D01*
X139883000Y-103136286D01*
X139913952Y-103105334D01*
X139852048Y-102548191D02*
X139852048Y-102672000D01*
X139883000Y-102733905D01*
X139913952Y-102764857D01*
X140006810Y-102826762D01*
X140130619Y-102857714D01*
X140378238Y-102857714D01*
X140440143Y-102826762D01*
X140471095Y-102795810D01*
X140502048Y-102733905D01*
X140502048Y-102610095D01*
X140471095Y-102548191D01*
X140440143Y-102517238D01*
X140378238Y-102486286D01*
X140223476Y-102486286D01*
X140161571Y-102517238D01*
X140130619Y-102548191D01*
X140099667Y-102610095D01*
X140099667Y-102733905D01*
X140130619Y-102795810D01*
X140161571Y-102826762D01*
X140223476Y-102857714D01*
X148695143Y-103613334D02*
X148726095Y-103644286D01*
X148757048Y-103737143D01*
X148757048Y-103799048D01*
X148726095Y-103891905D01*
X148664190Y-103953810D01*
X148602286Y-103984762D01*
X148478476Y-104015714D01*
X148385619Y-104015714D01*
X148261810Y-103984762D01*
X148199905Y-103953810D01*
X148138000Y-103891905D01*
X148107048Y-103799048D01*
X148107048Y-103737143D01*
X148138000Y-103644286D01*
X148168952Y-103613334D01*
X148107048Y-103396667D02*
X148107048Y-102963334D01*
X148757048Y-103241905D01*
X141456143Y-108947334D02*
X141487095Y-108978286D01*
X141518048Y-109071143D01*
X141518048Y-109133048D01*
X141487095Y-109225905D01*
X141425190Y-109287810D01*
X141363286Y-109318762D01*
X141239476Y-109349714D01*
X141146619Y-109349714D01*
X141022810Y-109318762D01*
X140960905Y-109287810D01*
X140899000Y-109225905D01*
X140868048Y-109133048D01*
X140868048Y-109071143D01*
X140899000Y-108978286D01*
X140929952Y-108947334D01*
X141146619Y-108575905D02*
X141115667Y-108637810D01*
X141084714Y-108668762D01*
X141022810Y-108699714D01*
X140991857Y-108699714D01*
X140929952Y-108668762D01*
X140899000Y-108637810D01*
X140868048Y-108575905D01*
X140868048Y-108452095D01*
X140899000Y-108390191D01*
X140929952Y-108359238D01*
X140991857Y-108328286D01*
X141022810Y-108328286D01*
X141084714Y-108359238D01*
X141115667Y-108390191D01*
X141146619Y-108452095D01*
X141146619Y-108575905D01*
X141177571Y-108637810D01*
X141208524Y-108668762D01*
X141270429Y-108699714D01*
X141394238Y-108699714D01*
X141456143Y-108668762D01*
X141487095Y-108637810D01*
X141518048Y-108575905D01*
X141518048Y-108452095D01*
X141487095Y-108390191D01*
X141456143Y-108359238D01*
X141394238Y-108328286D01*
X141270429Y-108328286D01*
X141208524Y-108359238D01*
X141177571Y-108390191D01*
X141146619Y-108452095D01*
X148227666Y-108436143D02*
X148196714Y-108467095D01*
X148103857Y-108498048D01*
X148041952Y-108498048D01*
X147949095Y-108467095D01*
X147887190Y-108405190D01*
X147856238Y-108343286D01*
X147825286Y-108219476D01*
X147825286Y-108126619D01*
X147856238Y-108002810D01*
X147887190Y-107940905D01*
X147949095Y-107879000D01*
X148041952Y-107848048D01*
X148103857Y-107848048D01*
X148196714Y-107879000D01*
X148227666Y-107909952D01*
X148537190Y-108498048D02*
X148661000Y-108498048D01*
X148722905Y-108467095D01*
X148753857Y-108436143D01*
X148815762Y-108343286D01*
X148846714Y-108219476D01*
X148846714Y-107971857D01*
X148815762Y-107909952D01*
X148784809Y-107879000D01*
X148722905Y-107848048D01*
X148599095Y-107848048D01*
X148537190Y-107879000D01*
X148506238Y-107909952D01*
X148475286Y-107971857D01*
X148475286Y-108126619D01*
X148506238Y-108188524D01*
X148537190Y-108219476D01*
X148599095Y-108250429D01*
X148722905Y-108250429D01*
X148784809Y-108219476D01*
X148815762Y-108188524D01*
X148846714Y-108126619D01*
X157458143Y-92619858D02*
X157489095Y-92650810D01*
X157520048Y-92743667D01*
X157520048Y-92805572D01*
X157489095Y-92898429D01*
X157427190Y-92960334D01*
X157365286Y-92991286D01*
X157241476Y-93022238D01*
X157148619Y-93022238D01*
X157024810Y-92991286D01*
X156962905Y-92960334D01*
X156901000Y-92898429D01*
X156870048Y-92805572D01*
X156870048Y-92743667D01*
X156901000Y-92650810D01*
X156931952Y-92619858D01*
X157520048Y-92000810D02*
X157520048Y-92372238D01*
X157520048Y-92186524D02*
X156870048Y-92186524D01*
X156962905Y-92248429D01*
X157024810Y-92310334D01*
X157055762Y-92372238D01*
X156870048Y-91598429D02*
X156870048Y-91536524D01*
X156901000Y-91474619D01*
X156931952Y-91443667D01*
X156993857Y-91412714D01*
X157117667Y-91381762D01*
X157272429Y-91381762D01*
X157396238Y-91412714D01*
X157458143Y-91443667D01*
X157489095Y-91474619D01*
X157520048Y-91536524D01*
X157520048Y-91598429D01*
X157489095Y-91660333D01*
X157458143Y-91691286D01*
X157396238Y-91722238D01*
X157272429Y-91753190D01*
X157117667Y-91753190D01*
X156993857Y-91722238D01*
X156931952Y-91691286D01*
X156901000Y-91660333D01*
X156870048Y-91598429D01*
X151362143Y-103668858D02*
X151393095Y-103699810D01*
X151424048Y-103792667D01*
X151424048Y-103854572D01*
X151393095Y-103947429D01*
X151331190Y-104009334D01*
X151269286Y-104040286D01*
X151145476Y-104071238D01*
X151052619Y-104071238D01*
X150928810Y-104040286D01*
X150866905Y-104009334D01*
X150805000Y-103947429D01*
X150774048Y-103854572D01*
X150774048Y-103792667D01*
X150805000Y-103699810D01*
X150835952Y-103668858D01*
X151424048Y-103049810D02*
X151424048Y-103421238D01*
X151424048Y-103235524D02*
X150774048Y-103235524D01*
X150866905Y-103297429D01*
X150928810Y-103359334D01*
X150959762Y-103421238D01*
X151424048Y-102430762D02*
X151424048Y-102802190D01*
X151424048Y-102616476D02*
X150774048Y-102616476D01*
X150866905Y-102678381D01*
X150928810Y-102740286D01*
X150959762Y-102802190D01*
X157316142Y-105134143D02*
X157285190Y-105165095D01*
X157192333Y-105196048D01*
X157130428Y-105196048D01*
X157037571Y-105165095D01*
X156975666Y-105103190D01*
X156944714Y-105041286D01*
X156913762Y-104917476D01*
X156913762Y-104824619D01*
X156944714Y-104700810D01*
X156975666Y-104638905D01*
X157037571Y-104577000D01*
X157130428Y-104546048D01*
X157192333Y-104546048D01*
X157285190Y-104577000D01*
X157316142Y-104607952D01*
X157935190Y-105196048D02*
X157563762Y-105196048D01*
X157749476Y-105196048D02*
X157749476Y-104546048D01*
X157687571Y-104638905D01*
X157625666Y-104700810D01*
X157563762Y-104731762D01*
X158182810Y-104607952D02*
X158213762Y-104577000D01*
X158275667Y-104546048D01*
X158430429Y-104546048D01*
X158492333Y-104577000D01*
X158523286Y-104607952D01*
X158554238Y-104669857D01*
X158554238Y-104731762D01*
X158523286Y-104824619D01*
X158151857Y-105196048D01*
X158554238Y-105196048D01*
X160633143Y-103668858D02*
X160664095Y-103699810D01*
X160695048Y-103792667D01*
X160695048Y-103854572D01*
X160664095Y-103947429D01*
X160602190Y-104009334D01*
X160540286Y-104040286D01*
X160416476Y-104071238D01*
X160323619Y-104071238D01*
X160199810Y-104040286D01*
X160137905Y-104009334D01*
X160076000Y-103947429D01*
X160045048Y-103854572D01*
X160045048Y-103792667D01*
X160076000Y-103699810D01*
X160106952Y-103668858D01*
X160695048Y-103049810D02*
X160695048Y-103421238D01*
X160695048Y-103235524D02*
X160045048Y-103235524D01*
X160137905Y-103297429D01*
X160199810Y-103359334D01*
X160230762Y-103421238D01*
X160045048Y-102833143D02*
X160045048Y-102430762D01*
X160292667Y-102647429D01*
X160292667Y-102554571D01*
X160323619Y-102492667D01*
X160354571Y-102461714D01*
X160416476Y-102430762D01*
X160571238Y-102430762D01*
X160633143Y-102461714D01*
X160664095Y-102492667D01*
X160695048Y-102554571D01*
X160695048Y-102740286D01*
X160664095Y-102802190D01*
X160633143Y-102833143D01*
X147425143Y-93127858D02*
X147456095Y-93158810D01*
X147487048Y-93251667D01*
X147487048Y-93313572D01*
X147456095Y-93406429D01*
X147394190Y-93468334D01*
X147332286Y-93499286D01*
X147208476Y-93530238D01*
X147115619Y-93530238D01*
X146991810Y-93499286D01*
X146929905Y-93468334D01*
X146868000Y-93406429D01*
X146837048Y-93313572D01*
X146837048Y-93251667D01*
X146868000Y-93158810D01*
X146898952Y-93127858D01*
X147487048Y-92508810D02*
X147487048Y-92880238D01*
X147487048Y-92694524D02*
X146837048Y-92694524D01*
X146929905Y-92756429D01*
X146991810Y-92818334D01*
X147022762Y-92880238D01*
X147053714Y-91951667D02*
X147487048Y-91951667D01*
X146806095Y-92106429D02*
X147270381Y-92261190D01*
X147270381Y-91858810D01*
X134406048Y-92300762D02*
X133756048Y-92300762D01*
X133756048Y-92146000D01*
X133787000Y-92053143D01*
X133848905Y-91991238D01*
X133910810Y-91960286D01*
X134034619Y-91929334D01*
X134127476Y-91929334D01*
X134251286Y-91960286D01*
X134313190Y-91991238D01*
X134375095Y-92053143D01*
X134406048Y-92146000D01*
X134406048Y-92300762D01*
X134406048Y-91310286D02*
X134406048Y-91681714D01*
X134406048Y-91496000D02*
X133756048Y-91496000D01*
X133848905Y-91557905D01*
X133910810Y-91619810D01*
X133941762Y-91681714D01*
X145697238Y-98973048D02*
X145697238Y-98323048D01*
X145852000Y-98323048D01*
X145944857Y-98354000D01*
X146006762Y-98415905D01*
X146037714Y-98477810D01*
X146068666Y-98601619D01*
X146068666Y-98694476D01*
X146037714Y-98818286D01*
X146006762Y-98880190D01*
X145944857Y-98942095D01*
X145852000Y-98973048D01*
X145697238Y-98973048D01*
X146316286Y-98384952D02*
X146347238Y-98354000D01*
X146409143Y-98323048D01*
X146563905Y-98323048D01*
X146625809Y-98354000D01*
X146656762Y-98384952D01*
X146687714Y-98446857D01*
X146687714Y-98508762D01*
X146656762Y-98601619D01*
X146285333Y-98973048D01*
X146687714Y-98973048D01*
X147602238Y-91480048D02*
X147602238Y-90830048D01*
X147757000Y-90830048D01*
X147849857Y-90861000D01*
X147911762Y-90922905D01*
X147942714Y-90984810D01*
X147973666Y-91108619D01*
X147973666Y-91201476D01*
X147942714Y-91325286D01*
X147911762Y-91387190D01*
X147849857Y-91449095D01*
X147757000Y-91480048D01*
X147602238Y-91480048D01*
X148190333Y-90830048D02*
X148592714Y-90830048D01*
X148376047Y-91077667D01*
X148468905Y-91077667D01*
X148530809Y-91108619D01*
X148561762Y-91139571D01*
X148592714Y-91201476D01*
X148592714Y-91356238D01*
X148561762Y-91418143D01*
X148530809Y-91449095D01*
X148468905Y-91480048D01*
X148283190Y-91480048D01*
X148221286Y-91449095D01*
X148190333Y-91418143D01*
X137761334Y-100791571D02*
X137544667Y-100791571D01*
X137544667Y-101132048D02*
X137544667Y-100482048D01*
X137854191Y-100482048D01*
X138318477Y-100791571D02*
X138411334Y-100822524D01*
X138442286Y-100853476D01*
X138473238Y-100915381D01*
X138473238Y-101008238D01*
X138442286Y-101070143D01*
X138411334Y-101101095D01*
X138349429Y-101132048D01*
X138101810Y-101132048D01*
X138101810Y-100482048D01*
X138318477Y-100482048D01*
X138380381Y-100513000D01*
X138411334Y-100543952D01*
X138442286Y-100605857D01*
X138442286Y-100667762D01*
X138411334Y-100729667D01*
X138380381Y-100760619D01*
X138318477Y-100791571D01*
X138101810Y-100791571D01*
X139092286Y-101132048D02*
X138720858Y-101132048D01*
X138906572Y-101132048D02*
X138906572Y-100482048D01*
X138844667Y-100574905D01*
X138782762Y-100636810D01*
X138720858Y-100667762D01*
X150368476Y-100690048D02*
X150368476Y-100040048D01*
X151049428Y-100628143D02*
X151018476Y-100659095D01*
X150925619Y-100690048D01*
X150863714Y-100690048D01*
X150770857Y-100659095D01*
X150708952Y-100597190D01*
X150678000Y-100535286D01*
X150647048Y-100411476D01*
X150647048Y-100318619D01*
X150678000Y-100194810D01*
X150708952Y-100132905D01*
X150770857Y-100071000D01*
X150863714Y-100040048D01*
X150925619Y-100040048D01*
X151018476Y-100071000D01*
X151049428Y-100101952D01*
X151297048Y-100101952D02*
X151328000Y-100071000D01*
X151389905Y-100040048D01*
X151544667Y-100040048D01*
X151606571Y-100071000D01*
X151637524Y-100101952D01*
X151668476Y-100163857D01*
X151668476Y-100225762D01*
X151637524Y-100318619D01*
X151266095Y-100690048D01*
X151668476Y-100690048D01*
X136906476Y-106847048D02*
X136906476Y-106197048D01*
X137587428Y-106785143D02*
X137556476Y-106816095D01*
X137463619Y-106847048D01*
X137401714Y-106847048D01*
X137308857Y-106816095D01*
X137246952Y-106754190D01*
X137216000Y-106692286D01*
X137185048Y-106568476D01*
X137185048Y-106475619D01*
X137216000Y-106351810D01*
X137246952Y-106289905D01*
X137308857Y-106228000D01*
X137401714Y-106197048D01*
X137463619Y-106197048D01*
X137556476Y-106228000D01*
X137587428Y-106258952D01*
X137804095Y-106197048D02*
X138206476Y-106197048D01*
X137989809Y-106444667D01*
X138082667Y-106444667D01*
X138144571Y-106475619D01*
X138175524Y-106506571D01*
X138206476Y-106568476D01*
X138206476Y-106723238D01*
X138175524Y-106785143D01*
X138144571Y-106816095D01*
X138082667Y-106847048D01*
X137896952Y-106847048D01*
X137835048Y-106816095D01*
X137804095Y-106785143D01*
X143226476Y-100370048D02*
X143226476Y-99720048D01*
X143907428Y-100308143D02*
X143876476Y-100339095D01*
X143783619Y-100370048D01*
X143721714Y-100370048D01*
X143628857Y-100339095D01*
X143566952Y-100277190D01*
X143536000Y-100215286D01*
X143505048Y-100091476D01*
X143505048Y-99998619D01*
X143536000Y-99874810D01*
X143566952Y-99812905D01*
X143628857Y-99751000D01*
X143721714Y-99720048D01*
X143783619Y-99720048D01*
X143876476Y-99751000D01*
X143907428Y-99781952D01*
X144464571Y-99936714D02*
X144464571Y-100370048D01*
X144309809Y-99689095D02*
X144155048Y-100153381D01*
X144557428Y-100153381D01*
X161838048Y-99567524D02*
X161188048Y-99567524D01*
X161776143Y-98886572D02*
X161807095Y-98917524D01*
X161838048Y-99010381D01*
X161838048Y-99072286D01*
X161807095Y-99165143D01*
X161745190Y-99227048D01*
X161683286Y-99258000D01*
X161559476Y-99288952D01*
X161466619Y-99288952D01*
X161342810Y-99258000D01*
X161280905Y-99227048D01*
X161219000Y-99165143D01*
X161188048Y-99072286D01*
X161188048Y-99010381D01*
X161219000Y-98917524D01*
X161249952Y-98886572D01*
X161188048Y-98298476D02*
X161188048Y-98608000D01*
X161497571Y-98638952D01*
X161466619Y-98608000D01*
X161435667Y-98546095D01*
X161435667Y-98391333D01*
X161466619Y-98329429D01*
X161497571Y-98298476D01*
X161559476Y-98267524D01*
X161714238Y-98267524D01*
X161776143Y-98298476D01*
X161807095Y-98329429D01*
X161838048Y-98391333D01*
X161838048Y-98546095D01*
X161807095Y-98608000D01*
X161776143Y-98638952D01*
X159930333Y-104673048D02*
X159930333Y-105137333D01*
X159899381Y-105230190D01*
X159837476Y-105292095D01*
X159744619Y-105323048D01*
X159682714Y-105323048D01*
X160580333Y-105323048D02*
X160208905Y-105323048D01*
X160394619Y-105323048D02*
X160394619Y-104673048D01*
X160332714Y-104765905D01*
X160270809Y-104827810D01*
X160208905Y-104858762D01*
X132235238Y-92115048D02*
X132235238Y-91465048D01*
X132482857Y-91465048D01*
X132544762Y-91496000D01*
X132575714Y-91526952D01*
X132606666Y-91588857D01*
X132606666Y-91681714D01*
X132575714Y-91743619D01*
X132544762Y-91774571D01*
X132482857Y-91805524D01*
X132235238Y-91805524D01*
X133225714Y-92115048D02*
X132854286Y-92115048D01*
X133040000Y-92115048D02*
X133040000Y-91465048D01*
X132978095Y-91557905D01*
X132916190Y-91619810D01*
X132854286Y-91650762D01*
X136184048Y-91802334D02*
X135874524Y-92019000D01*
X136184048Y-92173762D02*
X135534048Y-92173762D01*
X135534048Y-91926143D01*
X135565000Y-91864238D01*
X135595952Y-91833286D01*
X135657857Y-91802334D01*
X135750714Y-91802334D01*
X135812619Y-91833286D01*
X135843571Y-91864238D01*
X135874524Y-91926143D01*
X135874524Y-92173762D01*
X136184048Y-91183286D02*
X136184048Y-91554714D01*
X136184048Y-91369000D02*
X135534048Y-91369000D01*
X135626905Y-91430905D01*
X135688810Y-91492810D01*
X135719762Y-91554714D01*
X136543666Y-98592048D02*
X136327000Y-98282524D01*
X136172238Y-98592048D02*
X136172238Y-97942048D01*
X136419857Y-97942048D01*
X136481762Y-97973000D01*
X136512714Y-98003952D01*
X136543666Y-98065857D01*
X136543666Y-98158714D01*
X136512714Y-98220619D01*
X136481762Y-98251571D01*
X136419857Y-98282524D01*
X136172238Y-98282524D01*
X136791286Y-98003952D02*
X136822238Y-97973000D01*
X136884143Y-97942048D01*
X137038905Y-97942048D01*
X137100809Y-97973000D01*
X137131762Y-98003952D01*
X137162714Y-98065857D01*
X137162714Y-98127762D01*
X137131762Y-98220619D01*
X136760333Y-98592048D01*
X137162714Y-98592048D01*
X148100666Y-100878048D02*
X147884000Y-100568524D01*
X147729238Y-100878048D02*
X147729238Y-100228048D01*
X147976857Y-100228048D01*
X148038762Y-100259000D01*
X148069714Y-100289952D01*
X148100666Y-100351857D01*
X148100666Y-100444714D01*
X148069714Y-100506619D01*
X148038762Y-100537571D01*
X147976857Y-100568524D01*
X147729238Y-100568524D01*
X148317333Y-100228048D02*
X148719714Y-100228048D01*
X148503047Y-100475667D01*
X148595905Y-100475667D01*
X148657809Y-100506619D01*
X148688762Y-100537571D01*
X148719714Y-100599476D01*
X148719714Y-100754238D01*
X148688762Y-100816143D01*
X148657809Y-100847095D01*
X148595905Y-100878048D01*
X148410190Y-100878048D01*
X148348286Y-100847095D01*
X148317333Y-100816143D01*
X144439048Y-108947334D02*
X144129524Y-109164000D01*
X144439048Y-109318762D02*
X143789048Y-109318762D01*
X143789048Y-109071143D01*
X143820000Y-109009238D01*
X143850952Y-108978286D01*
X143912857Y-108947334D01*
X144005714Y-108947334D01*
X144067619Y-108978286D01*
X144098571Y-109009238D01*
X144129524Y-109071143D01*
X144129524Y-109318762D01*
X144005714Y-108390191D02*
X144439048Y-108390191D01*
X143758095Y-108544953D02*
X144222381Y-108699714D01*
X144222381Y-108297334D01*
X147719666Y-88686048D02*
X147503000Y-88376524D01*
X147348238Y-88686048D02*
X147348238Y-88036048D01*
X147595857Y-88036048D01*
X147657762Y-88067000D01*
X147688714Y-88097952D01*
X147719666Y-88159857D01*
X147719666Y-88252714D01*
X147688714Y-88314619D01*
X147657762Y-88345571D01*
X147595857Y-88376524D01*
X147348238Y-88376524D01*
X148307762Y-88036048D02*
X147998238Y-88036048D01*
X147967286Y-88345571D01*
X147998238Y-88314619D01*
X148060143Y-88283667D01*
X148214905Y-88283667D01*
X148276809Y-88314619D01*
X148307762Y-88345571D01*
X148338714Y-88407476D01*
X148338714Y-88562238D01*
X148307762Y-88624143D01*
X148276809Y-88655095D01*
X148214905Y-88686048D01*
X148060143Y-88686048D01*
X147998238Y-88655095D01*
X147967286Y-88624143D01*
X148412666Y-105577048D02*
X148196000Y-105267524D01*
X148041238Y-105577048D02*
X148041238Y-104927048D01*
X148288857Y-104927048D01*
X148350762Y-104958000D01*
X148381714Y-104988952D01*
X148412666Y-105050857D01*
X148412666Y-105143714D01*
X148381714Y-105205619D01*
X148350762Y-105236571D01*
X148288857Y-105267524D01*
X148041238Y-105267524D01*
X148969809Y-104927048D02*
X148846000Y-104927048D01*
X148784095Y-104958000D01*
X148753143Y-104988952D01*
X148691238Y-105081810D01*
X148660286Y-105205619D01*
X148660286Y-105453238D01*
X148691238Y-105515143D01*
X148722190Y-105546095D01*
X148784095Y-105577048D01*
X148907905Y-105577048D01*
X148969809Y-105546095D01*
X149000762Y-105515143D01*
X149031714Y-105453238D01*
X149031714Y-105298476D01*
X149000762Y-105236571D01*
X148969809Y-105205619D01*
X148907905Y-105174667D01*
X148784095Y-105174667D01*
X148722190Y-105205619D01*
X148691238Y-105236571D01*
X148660286Y-105298476D01*
X148423666Y-107101048D02*
X148207000Y-106791524D01*
X148052238Y-107101048D02*
X148052238Y-106451048D01*
X148299857Y-106451048D01*
X148361762Y-106482000D01*
X148392714Y-106512952D01*
X148423666Y-106574857D01*
X148423666Y-106667714D01*
X148392714Y-106729619D01*
X148361762Y-106760571D01*
X148299857Y-106791524D01*
X148052238Y-106791524D01*
X148640333Y-106451048D02*
X149073666Y-106451048D01*
X148795095Y-107101048D01*
X154196666Y-106720048D02*
X153980000Y-106410524D01*
X153825238Y-106720048D02*
X153825238Y-106070048D01*
X154072857Y-106070048D01*
X154134762Y-106101000D01*
X154165714Y-106131952D01*
X154196666Y-106193857D01*
X154196666Y-106286714D01*
X154165714Y-106348619D01*
X154134762Y-106379571D01*
X154072857Y-106410524D01*
X153825238Y-106410524D01*
X154568095Y-106348619D02*
X154506190Y-106317667D01*
X154475238Y-106286714D01*
X154444286Y-106224810D01*
X154444286Y-106193857D01*
X154475238Y-106131952D01*
X154506190Y-106101000D01*
X154568095Y-106070048D01*
X154691905Y-106070048D01*
X154753809Y-106101000D01*
X154784762Y-106131952D01*
X154815714Y-106193857D01*
X154815714Y-106224810D01*
X154784762Y-106286714D01*
X154753809Y-106317667D01*
X154691905Y-106348619D01*
X154568095Y-106348619D01*
X154506190Y-106379571D01*
X154475238Y-106410524D01*
X154444286Y-106472429D01*
X154444286Y-106596238D01*
X154475238Y-106658143D01*
X154506190Y-106689095D01*
X154568095Y-106720048D01*
X154691905Y-106720048D01*
X154753809Y-106689095D01*
X154784762Y-106658143D01*
X154815714Y-106596238D01*
X154815714Y-106472429D01*
X154784762Y-106410524D01*
X154753809Y-106379571D01*
X154691905Y-106348619D01*
X152672666Y-106720048D02*
X152456000Y-106410524D01*
X152301238Y-106720048D02*
X152301238Y-106070048D01*
X152548857Y-106070048D01*
X152610762Y-106101000D01*
X152641714Y-106131952D01*
X152672666Y-106193857D01*
X152672666Y-106286714D01*
X152641714Y-106348619D01*
X152610762Y-106379571D01*
X152548857Y-106410524D01*
X152301238Y-106410524D01*
X152982190Y-106720048D02*
X153106000Y-106720048D01*
X153167905Y-106689095D01*
X153198857Y-106658143D01*
X153260762Y-106565286D01*
X153291714Y-106441476D01*
X153291714Y-106193857D01*
X153260762Y-106131952D01*
X153229809Y-106101000D01*
X153167905Y-106070048D01*
X153044095Y-106070048D01*
X152982190Y-106101000D01*
X152951238Y-106131952D01*
X152920286Y-106193857D01*
X152920286Y-106348619D01*
X152951238Y-106410524D01*
X152982190Y-106441476D01*
X153044095Y-106472429D01*
X153167905Y-106472429D01*
X153229809Y-106441476D01*
X153260762Y-106410524D01*
X153291714Y-106348619D01*
X156123048Y-92492858D02*
X155813524Y-92709524D01*
X156123048Y-92864286D02*
X155473048Y-92864286D01*
X155473048Y-92616667D01*
X155504000Y-92554762D01*
X155534952Y-92523810D01*
X155596857Y-92492858D01*
X155689714Y-92492858D01*
X155751619Y-92523810D01*
X155782571Y-92554762D01*
X155813524Y-92616667D01*
X155813524Y-92864286D01*
X156123048Y-91873810D02*
X156123048Y-92245238D01*
X156123048Y-92059524D02*
X155473048Y-92059524D01*
X155565905Y-92121429D01*
X155627810Y-92183334D01*
X155658762Y-92245238D01*
X155473048Y-91471429D02*
X155473048Y-91409524D01*
X155504000Y-91347619D01*
X155534952Y-91316667D01*
X155596857Y-91285714D01*
X155720667Y-91254762D01*
X155875429Y-91254762D01*
X155999238Y-91285714D01*
X156061143Y-91316667D01*
X156092095Y-91347619D01*
X156123048Y-91409524D01*
X156123048Y-91471429D01*
X156092095Y-91533333D01*
X156061143Y-91564286D01*
X155999238Y-91595238D01*
X155875429Y-91626190D01*
X155720667Y-91626190D01*
X155596857Y-91595238D01*
X155534952Y-91564286D01*
X155504000Y-91533333D01*
X155473048Y-91471429D01*
X153379142Y-97449048D02*
X153162476Y-97139524D01*
X153007714Y-97449048D02*
X153007714Y-96799048D01*
X153255333Y-96799048D01*
X153317238Y-96830000D01*
X153348190Y-96860952D01*
X153379142Y-96922857D01*
X153379142Y-97015714D01*
X153348190Y-97077619D01*
X153317238Y-97108571D01*
X153255333Y-97139524D01*
X153007714Y-97139524D01*
X153998190Y-97449048D02*
X153626762Y-97449048D01*
X153812476Y-97449048D02*
X153812476Y-96799048D01*
X153750571Y-96891905D01*
X153688666Y-96953810D01*
X153626762Y-96984762D01*
X154617238Y-97449048D02*
X154245810Y-97449048D01*
X154431524Y-97449048D02*
X154431524Y-96799048D01*
X154369619Y-96891905D01*
X154307714Y-96953810D01*
X154245810Y-96984762D01*
X152109142Y-93893048D02*
X151892476Y-93583524D01*
X151737714Y-93893048D02*
X151737714Y-93243048D01*
X151985333Y-93243048D01*
X152047238Y-93274000D01*
X152078190Y-93304952D01*
X152109142Y-93366857D01*
X152109142Y-93459714D01*
X152078190Y-93521619D01*
X152047238Y-93552571D01*
X151985333Y-93583524D01*
X151737714Y-93583524D01*
X152728190Y-93893048D02*
X152356762Y-93893048D01*
X152542476Y-93893048D02*
X152542476Y-93243048D01*
X152480571Y-93335905D01*
X152418666Y-93397810D01*
X152356762Y-93428762D01*
X152975810Y-93304952D02*
X153006762Y-93274000D01*
X153068667Y-93243048D01*
X153223429Y-93243048D01*
X153285333Y-93274000D01*
X153316286Y-93304952D01*
X153347238Y-93366857D01*
X153347238Y-93428762D01*
X153316286Y-93521619D01*
X152944857Y-93893048D01*
X153347238Y-93893048D01*
X149315142Y-91988048D02*
X149098476Y-91678524D01*
X148943714Y-91988048D02*
X148943714Y-91338048D01*
X149191333Y-91338048D01*
X149253238Y-91369000D01*
X149284190Y-91399952D01*
X149315142Y-91461857D01*
X149315142Y-91554714D01*
X149284190Y-91616619D01*
X149253238Y-91647571D01*
X149191333Y-91678524D01*
X148943714Y-91678524D01*
X149934190Y-91988048D02*
X149562762Y-91988048D01*
X149748476Y-91988048D02*
X149748476Y-91338048D01*
X149686571Y-91430905D01*
X149624666Y-91492810D01*
X149562762Y-91523762D01*
X150150857Y-91338048D02*
X150553238Y-91338048D01*
X150336571Y-91585667D01*
X150429429Y-91585667D01*
X150491333Y-91616619D01*
X150522286Y-91647571D01*
X150553238Y-91709476D01*
X150553238Y-91864238D01*
X150522286Y-91926143D01*
X150491333Y-91957095D01*
X150429429Y-91988048D01*
X150243714Y-91988048D01*
X150181810Y-91957095D01*
X150150857Y-91926143D01*
X151533334Y-87512095D02*
X151626191Y-87543048D01*
X151780953Y-87543048D01*
X151842857Y-87512095D01*
X151873810Y-87481143D01*
X151904762Y-87419238D01*
X151904762Y-87357333D01*
X151873810Y-87295429D01*
X151842857Y-87264476D01*
X151780953Y-87233524D01*
X151657143Y-87202571D01*
X151595238Y-87171619D01*
X151564286Y-87140667D01*
X151533334Y-87078762D01*
X151533334Y-87016857D01*
X151564286Y-86954952D01*
X151595238Y-86924000D01*
X151657143Y-86893048D01*
X151811905Y-86893048D01*
X151904762Y-86924000D01*
X152121429Y-86893048D02*
X152276191Y-87543048D01*
X152400001Y-87078762D01*
X152523810Y-87543048D01*
X152678572Y-86893048D01*
X153266667Y-87543048D02*
X152895239Y-87543048D01*
X153080953Y-87543048D02*
X153080953Y-86893048D01*
X153019048Y-86985905D01*
X152957143Y-87047810D01*
X152895239Y-87078762D01*
X153614476Y-101330524D02*
X153614476Y-101640048D01*
X153397810Y-100990048D02*
X153614476Y-101330524D01*
X153831143Y-100990048D01*
X154388286Y-101640048D02*
X154016858Y-101640048D01*
X154202572Y-101640048D02*
X154202572Y-100990048D01*
X154140667Y-101082905D01*
X154078762Y-101144810D01*
X154016858Y-101175762D01*
X139248476Y-100387429D02*
X139248476Y-99737429D01*
X139929428Y-100325524D02*
X139898476Y-100356476D01*
X139805619Y-100387429D01*
X139743714Y-100387429D01*
X139650857Y-100356476D01*
X139588952Y-100294571D01*
X139558000Y-100232667D01*
X139527048Y-100108857D01*
X139527048Y-100016000D01*
X139558000Y-99892191D01*
X139588952Y-99830286D01*
X139650857Y-99768381D01*
X139743714Y-99737429D01*
X139805619Y-99737429D01*
X139898476Y-99768381D01*
X139929428Y-99799333D01*
X140548476Y-100387429D02*
X140177048Y-100387429D01*
X140362762Y-100387429D02*
X140362762Y-99737429D01*
X140300857Y-99830286D01*
X140238952Y-99892191D01*
X140177048Y-99923143D01*
X163477238Y-94782048D02*
X163477238Y-94132048D01*
X163724857Y-94132048D01*
X163786762Y-94163000D01*
X163817714Y-94193952D01*
X163848666Y-94255857D01*
X163848666Y-94348714D01*
X163817714Y-94410619D01*
X163786762Y-94441571D01*
X163724857Y-94472524D01*
X163477238Y-94472524D01*
X164405809Y-94348714D02*
X164405809Y-94782048D01*
X164251047Y-94101095D02*
X164096286Y-94565381D01*
X164498666Y-94565381D01*
X132616238Y-103354548D02*
X132616238Y-102704548D01*
X132863857Y-102704548D01*
X132925762Y-102735500D01*
X132956714Y-102766452D01*
X132987666Y-102828357D01*
X132987666Y-102921214D01*
X132956714Y-102983119D01*
X132925762Y-103014071D01*
X132863857Y-103045024D01*
X132616238Y-103045024D01*
X133204333Y-102704548D02*
X133606714Y-102704548D01*
X133390047Y-102952167D01*
X133482905Y-102952167D01*
X133544809Y-102983119D01*
X133575762Y-103014071D01*
X133606714Y-103075976D01*
X133606714Y-103230738D01*
X133575762Y-103292643D01*
X133544809Y-103323595D01*
X133482905Y-103354548D01*
X133297190Y-103354548D01*
X133235286Y-103323595D01*
X133204333Y-103292643D01*
M02*
